<svg xmlns="http://www.w3.org/2000/svg" width="321.66" height="361.031" viewBox="0 0 321.66 361.031">
  <g id="Grupo_59419" data-name="Grupo 59419" transform="translate(-758.086 -1271.912)">
    <g id="freepik--background-complete--inject-349">
      <rect id="Rectángulo_5617" data-name="Rectángulo 5617" width="14.9" height="0.25" transform="translate(1055.746 1615.402)" fill="#ebebeb"/>
      <rect id="Rectángulo_5618" data-name="Rectángulo 5618" width="8.69" height="0.25" transform="translate(943.276 1618.122)" fill="#ebebeb"/>
      <rect id="Rectángulo_5619" data-name="Rectángulo 5619" width="34.19" height="0.25" transform="translate(1017.336 1606.122)" fill="#ebebeb"/>
      <rect id="Rectángulo_5620" data-name="Rectángulo 5620" width="93.68" height="0.25" transform="translate(781.826 1607.922)" fill="#ebebeb"/>
      <path id="Trazado_103697" data-name="Trazado 103697" d="M1074.056,1554.712h-193.1a5.72,5.72,0,0,1-5.71-5.71v-271.43a5.721,5.721,0,0,1,5.71-5.66h193.1a5.71,5.71,0,0,1,5.69,5.66V1549A5.71,5.71,0,0,1,1074.056,1554.712Zm-193.1-282.6a5.471,5.471,0,0,0-5.46,5.46V1549a5.47,5.47,0,0,0,5.46,5.46h193.1a5.469,5.469,0,0,0,5.46-5.46v-271.43a5.47,5.47,0,0,0-5.46-5.46Z" fill="#ebebeb"/>
      <rect id="Rectángulo_5621" data-name="Rectángulo 5621" width="18.62" height="127.87" transform="translate(835.226 1471.442)" fill="#e6e6e6"/>
      <path id="Trazado_103698" data-name="Trazado 103698" d="M841.776,1599.312h-6.56v-24.3h13.43Z" fill="#f0f0f0"/>
      <rect id="Rectángulo_5622" data-name="Rectángulo 5622" width="18.62" height="127.87" transform="translate(1032.146 1471.442)" fill="#e6e6e6"/>
      <rect id="Rectángulo_5623" data-name="Rectángulo 5623" width="202.64" height="121.24" transform="translate(835.226 1471.432)" fill="#f0f0f0"/>
      <path id="Trazado_103699" data-name="Trazado 103699" d="M1031.306,1599.312h6.56v-24.3h-13.43Z" fill="#f0f0f0"/>
      <rect id="Rectángulo_5624" data-name="Rectángulo 5624" width="60.07" height="100.29" transform="translate(971.056 1481.482)" fill="#e6e6e6"/>
      <path id="Trazado_103700" data-name="Trazado 103700" d="M995.146,1485h11.89a20.171,20.171,0,0,0,13.65-5.09h-39.18A20.134,20.134,0,0,0,995.146,1485Z" fill="#f0f0f0"/>
      <rect id="Rectángulo_5625" data-name="Rectángulo 5625" width="60.07" height="100.29" transform="translate(906.506 1481.482)" fill="#e6e6e6"/>
      <path id="Trazado_103701" data-name="Trazado 103701" d="M930,1485h11.88a20.171,20.171,0,0,0,13.65-5.09h-39.18A20.171,20.171,0,0,0,930,1485Z" fill="#f0f0f0"/>
      <rect id="Rectángulo_5626" data-name="Rectángulo 5626" width="60.07" height="100.29" transform="translate(841.966 1481.482)" fill="#e6e6e6"/>
      <path id="Trazado_103702" data-name="Trazado 103702" d="M865.446,1485h11.88a20.148,20.148,0,0,0,13.65-5.09H851.8A20.171,20.171,0,0,0,865.446,1485Z" fill="#f0f0f0"/>
      <rect id="Rectángulo_5627" data-name="Rectángulo 5627" width="38.71" height="113.09" transform="translate(758.086 1389.242)" fill="#f5f5f5"/>
      <rect id="Rectángulo_5628" data-name="Rectángulo 5628" width="134.74" height="126.4" transform="translate(898.156 1313.692)" fill="#e6e6e6"/>
      <rect id="Rectángulo_5629" data-name="Rectángulo 5629" width="134.74" height="126.4" transform="translate(894.766 1313.692)" fill="#f5f5f5"/>
      <rect id="Rectángulo_5630" data-name="Rectángulo 5630" width="146.01" height="7.32" transform="translate(886.886 1440.092)" fill="#e6e6e6"/>
      <rect id="Rectángulo_5631" data-name="Rectángulo 5631" width="138.49" height="7.32" transform="translate(883.066 1440.092)" fill="#f5f5f5"/>
      <rect id="Rectángulo_5632" data-name="Rectángulo 5632" width="122.55" height="113.25" transform="translate(900.856 1320.262)" fill="#aed3f2"/>
      <rect id="Rectángulo_5633" data-name="Rectángulo 5633" width="6.79" height="113.25" transform="translate(958.736 1320.262)" fill="#f5f5f5"/>
      <rect id="Rectángulo_5634" data-name="Rectángulo 5634" width="2.57" height="113.25" transform="translate(900.856 1320.272)" fill="#e6e6e6"/>
      <rect id="Rectángulo_5635" data-name="Rectángulo 5635" width="2.57" height="113.25" transform="translate(965.526 1320.262)" fill="#e6e6e6"/>
      <path id="Trazado_103703" data-name="Trazado 103703" d="M916.266,1443.442c-2.48-25.68-4.2-67.34-2.86-81.28a1.682,1.682,0,0,1,.69-1.2h0a1.72,1.72,0,0,1,2.73,1.43c-.24,6.91-.51,24.17,1,53.94.73,14.82,1.79,25,1.06,27.11Z" fill="#5e6178"/>
      <path id="Trazado_103704" data-name="Trazado 103704" d="M907.026,1384.262c-7-7.84-21.46-13.41-36.15-13.38-5.76,0,17.54,9.11,27.23,19.16,7.53,7.8,16,20.93,18.91,28.22C915.146,1402.912,914.086,1392.092,907.026,1384.262Z" fill="#e6e6e6"/>
      <path id="Trazado_103705" data-name="Trazado 103705" d="M921.016,1386.652c5.86-8.16,19.39-14.44,34-15.15,5.75-.28-16.11,10-24.27,20.46-6.34,8.15-12.84,21.66-14.62,29.06C915.746,1405.652,915.156,1394.812,921.016,1386.652Z" fill="#5e6178"/>
      <path id="Trazado_103706" data-name="Trazado 103706" d="M906.746,1355.652c-6-6.64-18.18-11.36-30.61-11.33-4.89,0,14.85,7.72,23.06,16.22,6.37,6.61,13.56,17.73,16,23.9C913.586,1371.462,912.686,1362.282,906.746,1355.652Z" fill="#5e6178"/>
      <path id="Trazado_103707" data-name="Trazado 103707" d="M918.556,1365.462c5-6.91,16.42-12.23,28.81-12.83,4.86-.23-13.65,8.44-20.55,17.33-5.37,6.9-10.87,18.34-12.39,24.61C914.066,1381.552,913.6,1372.372,918.556,1365.462Z" fill="#5e6178"/>
      <path id="Trazado_103708" data-name="Trazado 103708" d="M917.266,1471.442h0a14.6,14.6,0,0,1-14.52-13.75l-1.28-22.32h31.7l-1.29,22.32A14.589,14.589,0,0,1,917.266,1471.442Z" fill="#6595bf"/>
      <path id="Trazado_103709" data-name="Trazado 103709" d="M935.166,1440.442h-35.81l-1.02-9.29h37.85Z" fill="#6595bf"/>
    </g>
    <g id="freepik--Character--inject-349">
      <path id="Trazado_103710" data-name="Trazado 103710" d="M874.656,1622.332l-8.35.94-3.08-18.94,8.35-.94Z" fill="#ffc3bd"/>
      <path id="Trazado_103711" data-name="Trazado 103711" d="M912.036,1624.152H903.7l-2.07-19.31h8.34Z" fill="#ffc3bd"/>
      <path id="Trazado_103712" data-name="Trazado 103712" d="M903.016,1623.182h10.16a.729.729,0,0,1,.71.57l1.65,7.41a1.217,1.217,0,0,1-1.22,1.48c-3.27-.05-5.66-.24-9.78-.24-2.53,0-10.17.26-13.67.26s-4-3.46-2.52-3.77c6.42-1.41,11.26-3.35,13.32-5.2A2,2,0,0,1,903.016,1623.182Z" fill="#344154"/>
      <path id="Trazado_103713" data-name="Trazado 103713" d="M866.176,1621.842l9-1a.719.719,0,0,1,.77.49l2.47,7.17a1.21,1.21,0,0,1-.731,1.548,1.181,1.181,0,0,1-.269.062c-3.27.32-8,.66-12.11,1.13-4.8.54-5.6,1.83-11.25,1.69-3.43-.08-4.3-3.56-2.86-3.84,6.56-1.27,7.82-2.26,13-6.35A3.827,3.827,0,0,1,866.176,1621.842Z" fill="#344154"/>
      <path id="Trazado_103714" data-name="Trazado 103714" d="M873.536,1379.162c-2.8,2.31-5.56,4.32-8.41,6.38s-5.76,4-8.76,5.83-6.07,3.62-9.3,5.23a67.258,67.258,0,0,1-10.26,4.31c-.93.29-1.84.54-2.89.79a27.713,27.713,0,0,1-3.11.5c-1.88.21-3.64.29-5.4.38-3.51.16-7,.15-10.4.13-6.88-.08-13.7-.41-20.56-1l-.1-6.26c6.73-.86,13.49-1.61,20.18-2.36,3.34-.37,6.68-.77,9.93-1.2,1.63-.22,3.24-.48,4.72-.76a18.97,18.97,0,0,0,1.9-.44c.58-.2,1.3-.43,2-.7a68.034,68.034,0,0,0,8.31-4.06c2.77-1.59,5.53-3.3,8.25-5.11s5.43-3.69,8.12-5.6,5.36-3.94,7.88-5.86Z" fill="#ffc3bd"/>
      <path id="Trazado_103715" data-name="Trazado 103715" d="M881.686,1372.042c-1.2,7.88-17.79,19.93-17.79,19.93l-11.91-14.77a197.931,197.931,0,0,1,16.57-15.76C873.906,1357.062,882.986,1363.462,881.686,1372.042Z" fill="#d9a171"/>
      <path id="Trazado_103716" data-name="Trazado 103716" d="M796.646,1396.092l-4.73-3.37-.52,10.65s2.62,0,3.63-1.92Z" fill="#ffc3bd"/>
      <path id="Trazado_103717" data-name="Trazado 103717" d="M787.636,1389.622l-.97,10.43,4.73,3.32.52-10.65Z" fill="#ffc3bd"/>
      <path id="Trazado_103718" data-name="Trazado 103718" d="M863.236,1604.342l1.58,9.76,8.35-.94-1.58-9.76Z" opacity="0.2" style="isolation: isolate"/>
      <path id="Trazado_103719" data-name="Trazado 103719" d="M909.966,1604.842h-8.34l1.07,9.96h8.34Z" opacity="0.2" style="isolation: isolate"/>
      <path id="Trazado_103720" data-name="Trazado 103720" d="M910.086,1361.692a4.761,4.761,0,0,1,3.611,5.682c-.01.043-.02.086-.031.128a196.042,196.042,0,0,0-4.08,22.79c-.79,6.46-1.26,12.63-1.55,18.22-.7,13.1-.41,23.09-.8,26.48l-44.49-3.08c-4.52-35.4.77-58,3.75-67.17a7.943,7.943,0,0,1,6.5-5.44c1.71-.22,3.75-.44,5.91-.57.75,0,1.52-.07,2.29-.09a165.483,165.483,0,0,1,18.93,1.27c1.19.14,2.39.32,3.56.5C906.016,1360.822,908.246,1361.282,910.086,1361.692Z" fill="#344154"/>
      <path id="Trazado_103721" data-name="Trazado 103721" d="M899.746,1338.522c-1.62,6-3.59,17.06.38,21.42-10.31,6.94-16.89,16.7-18.79,14.58-1-1.11-1.42-14-.12-15.9,6.9-1.15,7.08-6.19,6.23-11Z" fill="#ffc3bd"/>
      <path id="Trazado_103722" data-name="Trazado 103722" d="M899.326,1357.452s-16.81,7.44-19,24.06c4.62-5.36,14.85-11.19,14.85-11.19l-4.51-1.29a46.145,46.145,0,0,1,8.86-2.39c-.5-2.3,2.17-6.88,2.17-6.88Z" fill="#d9a171"/>
      <path id="Trazado_103723" data-name="Trazado 103723" d="M884.166,1357.182s2.23,9.5-3.87,24.33c-.95-5.66-4.94-15.13-4.94-15.13l4.12,1.11s-.21-1.91-3.54-4.46c1.24-2.38,5.12-5.19,5.12-5.19Z" fill="#d9a171"/>
      <path id="Trazado_103724" data-name="Trazado 103724" d="M894.746,1342.232l-7.28,5.38a18.942,18.942,0,0,1,.35,3.4c2.62-.19,6.38-2.79,6.84-5.49A9.076,9.076,0,0,0,894.746,1342.232Z" opacity="0.2" style="isolation: isolate"/>
      <path id="Trazado_103725" data-name="Trazado 103725" d="M878.386,1321.142c-4.07.17-6.31,7.18-2.19,13S883.856,1320.912,878.386,1321.142Z" fill="#344154"/>
      <path id="Trazado_103726" data-name="Trazado 103726" d="M898.436,1327.312c.48,8.26,1.18,13.07-2.45,17.77-5.47,7.08-16.05,4.55-19-3.4-2.64-7.16-3-19.47,4.65-23.69a11.289,11.289,0,0,1,16.8,9.32Z" fill="#ffc3bd"/>
      <path id="Trazado_103727" data-name="Trazado 103727" d="M899.646,1333.652c-6.26-4-8.47-9.27-8.95-11.92-2.43.57-14.49,6.12-18.2,0s1-9.72,7.9-5.95c-3.07-5.42-.28-8.07,9.37-8.31s8.35,5.36,8.35,5.36,7.3-3.18,9.89,2.42C911,1321.692,905.476,1332.682,899.646,1333.652Z" fill="#344154"/>
      <path id="Trazado_103728" data-name="Trazado 103728" d="M896.466,1311.352c.09,0,3.65.86,7.76-3.27-.73,3.52-7.11,5.87-7.11,5.87Z" fill="#344154"/>
      <path id="Trazado_103729" data-name="Trazado 103729" d="M901.256,1323.442c-3.84-1.33-8.5,4.37-6.78,11.25S906.446,1325.232,901.256,1323.442Z" fill="#344154"/>
      <path id="Trazado_103730" data-name="Trazado 103730" d="M903.436,1334.182a7.818,7.818,0,0,1-3.2,5.08c-2.26,1.58-4.3-.22-4.43-2.83-.12-2.35.92-6,3.55-6.54S903.846,1331.662,903.436,1334.182Z" fill="#ffc3bd"/>
      <path id="Trazado_103731" data-name="Trazado 103731" d="M875.3,1525.822c2-24.38,16.7-91.89,16.7-91.89l-29.25-2.02s-11.28,67-12.14,92.44c-.9,26.45,9.74,85.22,9.74,85.22l14-1.6S873.276,1550.312,875.3,1525.822Z" fill="#d9a171"/>
      <path id="Trazado_103732" data-name="Trazado 103732" d="M875.3,1525.822c2-24.38,16.7-91.89,16.7-91.89l-29.25-2.02s-11.28,67-12.14,92.44c-.9,26.45,9.74,85.22,9.74,85.22l14-1.6S873.276,1550.312,875.3,1525.822Z" fill="#fff" opacity="0.5" style="isolation: isolate"/>
      <path id="Trazado_103733" data-name="Trazado 103733" d="M880.976,1456.792c-5.9,7.54-6,34-3.72,53.58,2.17-14.12,5.59-32,8.6-47Z" opacity="0.2" style="isolation: isolate"/>
      <path id="Trazado_103734" data-name="Trazado 103734" d="M878.526,1432.992s3.16,71.38,6.68,95.55c3.85,26.47,13.64,84.37,13.64,84.37h15.27s-2.51-54.49-4.53-80.5c-2.29-29.62-2.35-97.38-2.35-97.38Z" fill="#d9a171"/>
      <path id="Trazado_103735" data-name="Trazado 103735" d="M878.526,1432.992s3.16,71.38,6.68,95.55c3.85,26.47,13.64,84.37,13.64,84.37h15.27s-2.51-54.49-4.53-80.5c-2.29-29.62-2.35-97.38-2.35-97.38Z" fill="#fff" opacity="0.5" style="isolation: isolate"/>
      <path id="Trazado_103736" data-name="Trazado 103736" d="M897.016,1613.2H915v-5.37l-20.1-.35Z" fill="#d9a171"/>
      <path id="Trazado_103737" data-name="Trazado 103737" d="M859.726,1611.132l16.72-1.9-.61-5.4-18.72,1.83Z" fill="#d9a171"/>
      <path id="Trazado_103738" data-name="Trazado 103738" d="M886.276,1331.092c.08.67-.21,1.26-.65,1.31s-.85-.45-.94-1.12.21-1.25.65-1.3S886.2,1330.432,886.276,1331.092Z" fill="#344154"/>
      <path id="Trazado_103739" data-name="Trazado 103739" d="M878.746,1332c.08.67-.21,1.25-.65,1.31s-.85-.45-.93-1.12.21-1.25.64-1.3S878.646,1331.332,878.746,1332Z" fill="#344154"/>
      <path id="Trazado_103740" data-name="Trazado 103740" d="M881.166,1332.052a24.06,24.06,0,0,1-2.51,6.09,3.89,3.89,0,0,0,3.27.21Z" fill="#ed847e"/>
      <path id="Trazado_103741" data-name="Trazado 103741" d="M888.326,1328.372a.389.389,0,0,1-.4-.1,3.161,3.161,0,0,0-2.67-1,.4.4,0,0,1-.495-.273.419.419,0,0,1-.015-.087.381.381,0,0,1,.288-.454l.032-.006a3.893,3.893,0,0,1,3.38,1.23.39.39,0,0,1,.009.552l-.009.008A.449.449,0,0,1,888.326,1328.372Z" fill="#344154"/>
      <path id="Trazado_103742" data-name="Trazado 103742" d="M885.426,1341.022h0a6.056,6.056,0,0,0,4.32-3.55.21.21,0,0,0-.12-.27.221.221,0,0,0-.28.13,5.728,5.728,0,0,1-4,3.27.214.214,0,0,0,.08.42Z" fill="#344154"/>
      <path id="Trazado_103743" data-name="Trazado 103743" d="M875.176,1329.792a.321.321,0,0,1-.24,0,.4.4,0,0,1-.25-.5,3.943,3.943,0,0,1,2.55-2.55.39.39,0,0,1,.477.278l0,.012a.38.38,0,0,1-.266.467l-.014,0h0a3.143,3.143,0,0,0-2,2A.358.358,0,0,1,875.176,1329.792Z" fill="#344154"/>
      <path id="Trazado_103744" data-name="Trazado 103744" d="M900.256,1624.642a2.508,2.508,0,0,1-1.6-.43,1.18,1.18,0,0,1-.41-1,.612.612,0,0,1,.34-.56c.92-.48,3.61,1.18,3.91,1.37a.18.18,0,0,1,.09.2.189.189,0,0,1-.15.16A9.7,9.7,0,0,1,900.256,1624.642Zm-1.24-1.73a.583.583,0,0,0-.25.05.243.243,0,0,0-.13.23.81.81,0,0,0,.27.72c.46.38,1.55.44,3,.15A8.079,8.079,0,0,0,899.016,1622.912Z" fill="#d9a171"/>
      <path id="Trazado_103745" data-name="Trazado 103745" d="M902.4,1624.342a.17.17,0,0,1-.1,0c-.86-.47-2.53-2.3-2.35-3.22a.651.651,0,0,1,.63-.52,1.065,1.065,0,0,1,.84.25c1,.79,1.17,3.2,1.17,3.3a.169.169,0,0,1-.09.18A.164.164,0,0,1,902.4,1624.342Zm-1.65-3.38h-.08c-.26,0-.28.15-.29.2-.11.55,1,1.93,1.81,2.58a4.672,4.672,0,0,0-1-2.61A.7.7,0,0,0,900.746,1620.962Z" fill="#d9a171"/>
      <path id="Trazado_103746" data-name="Trazado 103746" d="M865.5,1623.072h0c-1.3.42-3.64,1-4.64.31a1.082,1.082,0,0,1-.47-.91.632.632,0,0,1,.26-.56c.94-.66,4.47.64,4.86.79a.208.208,0,0,1,.13.19A.188.188,0,0,1,865.5,1623.072Zm-4.61-.86h0a.263.263,0,0,0-.1.23.709.709,0,0,0,.31.6c.56.4,1.93.32,3.73-.19-1.45-.45-3.36-.94-3.94-.64Z" fill="#d9a171"/>
      <path id="Trazado_103747" data-name="Trazado 103747" d="M865.5,1623.072a.221.221,0,0,1-.16,0c-1.05-.33-3.23-1.9-3.18-2.85,0-.23.13-.52.66-.63a1.421,1.421,0,0,1,1.13.21c1.15.75,1.63,3,1.65,3a.218.218,0,0,1-.06.19Zm-2.81-3c-.13.07-.14.15-.14.19,0,.57,1.48,1.82,2.57,2.32a4.62,4.62,0,0,0-1.39-2.43,1,1,0,0,0-.82-.16.709.709,0,0,0-.22.07Z" fill="#d9a171"/>
      <path id="Trazado_103748" data-name="Trazado 103748" d="M917.106,1373.712c-.21,3.26-.59,6.29-1,9.42s-.93,6.2-1.52,9.3a109.518,109.518,0,0,1-5.13,18.58l-1,2.33-.25.58-.06.15-.1.22-.3.62a10.073,10.073,0,0,1-1.38,2,12.15,12.15,0,0,1-3,2.48,17.785,17.785,0,0,1-2.87,1.39,37.488,37.488,0,0,1-10.26,2.15,85.965,85.965,0,0,1-19.08-.71l.23-6.26,4.41-.5c1.48-.17,2.95-.4,4.41-.6,2.92-.43,5.81-.91,8.57-1.55a32.611,32.611,0,0,0,7.37-2.44,4.075,4.075,0,0,0,1.61-1.23c0-.15-.29.48.08-.52l.66-1.93a125.945,125.945,0,0,0,3.7-16.86c.48-2.9.88-5.83,1.28-8.77s.71-5.93,1-8.74Z" fill="#ffc3bd"/>
      <path id="Trazado_103749" data-name="Trazado 103749" d="M917.846,1367.672c4.08,6.84.6,28.36.6,28.36l-21.4-4s-1.16-12.32,2.92-21.78C904.4,1359.992,912.906,1359.372,917.846,1367.672Z" fill="#d9a171"/>
      <path id="Trazado_103750" data-name="Trazado 103750" d="M865.426,1435.212l-11.35-52.8a10.68,10.68,0,0,0-9.93-8.17h-43.48a10.7,10.7,0,0,1,9.93,8.17l11.34,52.8a10.7,10.7,0,0,0,9.93,8.17h43.49A10.688,10.688,0,0,1,865.426,1435.212Z" fill="#344154"/>
      <path id="Trazado_103751" data-name="Trazado 103751" d="M865.426,1435.212l-11.35-52.8a10.68,10.68,0,0,0-9.93-8.17h-43.48a10.7,10.7,0,0,1,9.93,8.17l11.34,52.8a10.7,10.7,0,0,0,9.93,8.17h43.49A10.688,10.688,0,0,1,865.426,1435.212Z" fill="#d9a171" opacity="0.7" style="isolation: isolate"/>
      <rect id="Rectángulo_5636" data-name="Rectángulo 5636" width="12.44" height="1.004" transform="translate(782.588 1450.242) rotate(-84.857)" fill="#d9a171"/>
      <rect id="Rectángulo_5637" data-name="Rectángulo 5637" width="5.21" height="1" transform="matrix(0.092, -0.996, 0.996, 0.092, 780.98, 1461.417)" fill="#d9a171"/>
      <path id="Trazado_103752" data-name="Trazado 103752" d="M800.666,1374.242h43.48a9.131,9.131,0,0,0-8.91,8.17l-11.28,122.68a9.139,9.139,0,0,1-8.92,8.17H787.9a7.34,7.34,0,0,1-7.476-7.2,7.469,7.469,0,0,1,.046-.969l11.28-122.68A9.141,9.141,0,0,1,800.666,1374.242Z" fill="#d9a171"/>
      <path id="Trazado_103753" data-name="Trazado 103753" d="M807.606,1505.092a7.34,7.34,0,0,0,6.462,8.124,7.265,7.265,0,0,0,.968.046h-43.49a7.33,7.33,0,0,1-7.467-7.19,7.475,7.475,0,0,1,.047-.98Z" fill="#344154"/>
      <path id="Trazado_103754" data-name="Trazado 103754" d="M807.606,1505.092a7.34,7.34,0,0,0,6.462,8.124,7.265,7.265,0,0,0,.968.046h-43.49a7.33,7.33,0,0,1-7.467-7.19,7.475,7.475,0,0,1,.047-.98Z" fill="#d9a171" opacity="0.7" style="isolation: isolate"/>
      <g id="Grupo_59418" data-name="Grupo 59418" opacity="0.5">
        <path id="Trazado_103755" data-name="Trazado 103755" d="M827.746,1387.992h-29.48a1.6,1.6,0,0,1-1.62-1.579,1.691,1.691,0,0,1,.01-.2h0a2,2,0,0,1,1.94-1.78h29.43a1.6,1.6,0,0,1,1.62,1.58,1.486,1.486,0,0,1-.01.2h0A2,2,0,0,1,827.746,1387.992Z" fill="#fff"/>
        <path id="Trazado_103756" data-name="Trazado 103756" d="M826.826,1397.612H797.4a1.6,1.6,0,0,1-1.63-1.569,1.66,1.66,0,0,1,.01-.211h0a2,2,0,0,1,1.94-1.78h29.43a1.6,1.6,0,0,1,1.63,1.57,1.638,1.638,0,0,1-.01.21h0A2,2,0,0,1,826.826,1397.612Z" fill="#fff"/>
        <path id="Trazado_103757" data-name="Trazado 103757" d="M818.746,1407.242h-22.23a1.6,1.6,0,0,1-1.62-1.579,1.691,1.691,0,0,1,.01-.2h0a2,2,0,0,1,1.94-1.78h22.21a1.6,1.6,0,0,1,1.63,1.57,1.627,1.627,0,0,1-.01.21h0A2,2,0,0,1,818.746,1407.242Z" fill="#fff"/>
        <path id="Trazado_103758" data-name="Trazado 103758" d="M803.176,1416.912h-7.53a1.6,1.6,0,0,1-1.629-1.57,1.663,1.663,0,0,1,.009-.2h0a2,2,0,0,1,1.94-1.78h7.54a1.6,1.6,0,0,1,1.62,1.58,1.474,1.474,0,0,1-.01.2h0A2,2,0,0,1,803.176,1416.912Z" fill="#fff"/>
        <path id="Trazado_103759" data-name="Trazado 103759" d="M824.2,1426.492h-29.45a1.6,1.6,0,0,1-1.62-1.579,1.7,1.7,0,0,1,.01-.2h0a2,2,0,0,1,1.94-1.78H824.5a1.6,1.6,0,0,1,1.63,1.57,1.627,1.627,0,0,1-.01.21h0A2,2,0,0,1,824.2,1426.492Z" fill="#fff"/>
        <path id="Trazado_103760" data-name="Trazado 103760" d="M811.746,1436.122H793.9a1.6,1.6,0,0,1-1.63-1.569,1.66,1.66,0,0,1,.01-.211h0a2,2,0,0,1,1.94-1.78h17.84a1.61,1.61,0,0,1,1.629,1.591,1.5,1.5,0,0,1-.009.189h0A2,2,0,0,1,811.746,1436.122Z" fill="#fff"/>
        <path id="Trazado_103761" data-name="Trazado 103761" d="M822.446,1445.742h-29.43a1.6,1.6,0,0,1-1.62-1.579,1.691,1.691,0,0,1,.01-.2h0a2,2,0,0,1,1.94-1.78h29.4a1.61,1.61,0,0,1,1.629,1.591,1.5,1.5,0,0,1-.009.189h0A2,2,0,0,1,822.446,1445.742Z" fill="#fff"/>
        <path id="Trazado_103762" data-name="Trazado 103762" d="M814.356,1455.372h-22.21a1.6,1.6,0,0,1-1.63-1.569,1.66,1.66,0,0,1,.01-.211h0a2,2,0,0,1,1.94-1.78h22.21a1.6,1.6,0,0,1,1.63,1.57,1.638,1.638,0,0,1-.01.21h0A2,2,0,0,1,814.356,1455.372Z" fill="#fff"/>
        <path id="Trazado_103763" data-name="Trazado 103763" d="M798.806,1465h-7.54a1.609,1.609,0,0,1-1.629-1.59c0-.064,0-.127.009-.19h0a2,2,0,0,1,1.95-1.78h7.53a1.6,1.6,0,0,1,1.63,1.57,1.617,1.617,0,0,1-.01.21h0A2,2,0,0,1,798.806,1465Z" fill="#fff"/>
        <path id="Trazado_103764" data-name="Trazado 103764" d="M819.816,1474.622H790.4a1.6,1.6,0,0,1-1.63-1.569,1.66,1.66,0,0,1,.01-.211h0a2,2,0,0,1,1.94-1.78h29.43a1.6,1.6,0,0,1,1.62,1.58,1.476,1.476,0,0,1-.01.2h0A2,2,0,0,1,819.816,1474.622Z" fill="#fff"/>
        <path id="Trazado_103765" data-name="Trazado 103765" d="M807.356,1484.252h-17.84a1.6,1.6,0,0,1-1.63-1.569,1.66,1.66,0,0,1,.01-.211h0a2,2,0,0,1,1.94-1.78h17.84a1.6,1.6,0,0,1,1.63,1.57,1.638,1.638,0,0,1-.01.21h0A2,2,0,0,1,807.356,1484.252Z" fill="#fff"/>
        <path id="Trazado_103766" data-name="Trazado 103766" d="M818.066,1493.912h-29.42a1.6,1.6,0,0,1-1.63-1.569,1.662,1.662,0,0,1,.01-.211h0a2,2,0,0,1,1.94-1.77H818.4a1.6,1.6,0,0,1,1.619,1.581,1.487,1.487,0,0,1-.009.189h0A2,2,0,0,1,818.066,1493.912Z" fill="#fff"/>
      </g>
      <path id="Trazado_103767" data-name="Trazado 103767" d="M873.976,1416.532l-6.39-5.55-3,10.22s6.49,3.52,8.73.29Z" fill="#ffc3bd"/>
      <path id="Trazado_103768" data-name="Trazado 103768" d="M860.636,1410.582l-2.08,8.57,6.04,2.05,2.99-10.22Z" fill="#ffc3bd"/>
    </g>
  </g>
</svg>
