<svg xmlns="http://www.w3.org/2000/svg" xmlns:xlink="http://www.w3.org/1999/xlink" width="263.578" height="263.578" viewBox="0 0 263.578 263.578">
  <defs>
    <clipPath id="clip-path">
      <circle id="Elipse_4018" data-name="Elipse 4018" cx="115.89" cy="115.89" r="115.89" transform="translate(-278.604 5509.517) rotate(-81.475)" fill="#aed3f2"/>
    </clipPath>
  </defs>
  <g id="Grupo_58854" data-name="Grupo 58854" transform="translate(278.604 -5280.299)">
    <g id="Grupo_58853" data-name="Grupo 58853">
      <g id="Grupo_58850" data-name="Grupo 58850">
        <g id="Grupo_58849" data-name="Grupo 58849">
          <circle id="Elipse_4017" data-name="Elipse 4017" cx="115.89" cy="115.89" r="115.89" transform="translate(-278.604 5509.517) rotate(-81.475)" fill="#aed3f2"/>
          <g id="Grupo_58848" data-name="Grupo 58848" clip-path="url(#clip-path)">
            <g id="Grupo_58847" data-name="Grupo 58847">
              <g id="Grupo_58846" data-name="Grupo 58846">
                <path id="Trazado_102655" data-name="Trazado 102655" d="M-227.967,5527.232c7.229,4.273,14.585,8.328,22.107,12.049a222.525,222.525,0,0,0,30.6,8.157,416.24,416.24,0,0,0,76.751-.359,245.069,245.069,0,0,0,33.793-8.378q2.165-1.159,4.282-2.4c.031-.031.063-.061.093-.092a98.733,98.733,0,0,1,8.854-8.095,146.679,146.679,0,0,0-10.1-18.489c-17.076-26.508-36.278-38.137-36.278-38.137l-48.951,14.873v.02l-48.944-14.872s-19.208,11.633-36.28,38.139c-2.645,4.1-4.929,8.115-6.909,11.94A105.7,105.7,0,0,1-227.967,5527.232Z" fill="#412646"/>
                <path id="Trazado_102656" data-name="Trazado 102656" d="M-227.967,5527.232c7.229,4.273,14.585,8.328,22.107,12.049a222.525,222.525,0,0,0,30.6,8.157,416.24,416.24,0,0,0,76.751-.359,245.069,245.069,0,0,0,33.793-8.378q2.165-1.159,4.282-2.4c.031-.031.063-.061.093-.092a98.733,98.733,0,0,1,8.854-8.095,146.679,146.679,0,0,0-10.1-18.489c-17.076-26.508-36.278-38.137-36.278-38.137l-48.951,14.873v.02l-48.944-14.872s-19.208,11.633-36.28,38.139c-2.645,4.1-4.929,8.115-6.909,11.94A105.7,105.7,0,0,1-227.967,5527.232Z" fill="#5480ad"/>
                <path id="Trazado_102657" data-name="Trazado 102657" d="M-227.967,5527.232c7.229,4.273,14.585,8.328,22.107,12.049q7.537,2.6,15.239,4.645l43.806-1.341v-.019l60.252,1.839-.017.278c7.382-1.65,14.689-3.614,21.863-5.982q2.165-1.159,4.282-2.4c.031-.031.063-.061.093-.092a98.539,98.539,0,0,1,8.851-8.093,146.814,146.814,0,0,0-10.1-18.491c-17.076-26.508-36.278-38.137-36.278-38.137l-48.951,14.873v.02l-48.944-14.872s-19.208,11.633-36.28,38.139c-2.644,4.1-4.931,8.115-6.91,11.94A105.712,105.712,0,0,1-227.967,5527.232Z" fill="#d9a171"/>
                <path id="Trazado_102658" data-name="Trazado 102658" d="M-101.433,5457.526c-14.606-23.63-45.382-19.632-45.382-19.632l-.006.026c-.051-.008-30.787-3.983-45.378,19.628-10.691,17.3,5.553,31.931,5.553,31.931l39.829.665v-.042l0,.02,39.828-.666S-90.743,5474.825-101.433,5457.526Z" fill="#d9a171"/>
                <path id="Trazado_102659" data-name="Trazado 102659" d="M-106.258,5460.555c-8.216-24.11-40.6-19.508-40.6-19.508v.009c-1.93-.248-32.555-3.829-40.513,19.523-1.185,3.482,12.553,10.694,22.3,26.173,9.647,15.321,17.275,46.56,18.211,50.471v.384s.018-.08.045-.194c.028.127.052.217.052.217v-.43c.929-3.909,8.561-35.154,18.206-50.471C-118.809,5471.253-105.07,5464.038-106.258,5460.555Z" fill="#8e3e86"/>
                <path id="Trazado_102660" data-name="Trazado 102660" d="M-106.258,5460.555c-8.216-24.11-40.6-19.508-40.6-19.508v.009c-1.93-.248-32.555-3.829-40.513,19.523-1.185,3.482,12.553,10.694,22.3,26.173,9.647,15.321,17.275,46.56,18.211,50.471v.384s.018-.08.045-.194c.028.127.052.217.052.217v-.43c.929-3.909,8.561-35.154,18.206-50.471C-118.809,5471.253-105.07,5464.038-106.258,5460.555Z" fill="#344154"/>
                <g id="Grupo_58840" data-name="Grupo 58840">
                  <path id="Trazado_102661" data-name="Trazado 102661" d="M-147.816,5334.683s-16.7-5.981-26.558,1.65c-10.582,8.187-7.937,16.257-12.98,26.959-4.893,10.383-17.538,23.132-19.325,48.375-2.244,31.756,24.866,46.582,24.866,46.582a10.087,10.087,0,0,1-2.948-6.938,9.017,9.017,0,0,1,1.847-5.093s-1.9-4.588.9-7.388c2.6-2.6,7.84-.8,7.84-.8a15.71,15.71,0,0,1,8.836-3.942c6.289-.7,13.629,1.4,13.629,1.4Z" fill="#a66d58"/>
                  <path id="Trazado_102662" data-name="Trazado 102662" d="M-131.436,5455.653a105.141,105.141,0,0,1-1.131-18.073h-28.5a105.255,105.255,0,0,1-1.131,18.073c-1.5,8.488-2.642,14.877,15.379,14.877S-129.94,5464.141-131.436,5455.653Z" fill="#ffbf9d"/>
                  <path id="Trazado_102663" data-name="Trazado 102663" d="M-111.727,5396.3c-.339-8.958,1.065-17.286-5.635-32.161-7.079-15.714-20.849-18.943-29.134-18.943s-22.056,3.229-29.136,18.943c-6.7,14.875-5.295,23.2-5.633,32.161s-3.035,17.183,0,24.672,10.98,9.986,15.313,13.218,13,12.824,19.456,12.824,15.121-9.594,19.456-12.824,12.281-5.73,15.313-13.218S-111.388,5405.257-111.727,5396.3Z" fill="#ffbf9d"/>
                  <g id="Grupo_58825" data-name="Grupo 58825">
                    <path id="Trazado_102664" data-name="Trazado 102664" d="M-112.664,5390.151c0-1.45,2.3-4.692,7.092-3.046s4.191,6.866,3.743,9.039c-.647,3.145-2.2,4.89-3.246,6.888s-1.5,4.693-3.293,5.192a3.2,3.2,0,0,1-3.045-.849S-112.664,5391.6-112.664,5390.151Z" fill="#b2807a"/>
                    <path id="Trazado_102665" data-name="Trazado 102665" d="M-106.02,5390c2.343.5,2.27,3.306,2.045,4.743a11.186,11.186,0,0,1-1.248,4.245c-.849,1.547-1.8,3.194-3.3,3s-1.5-5.84-1.35-7.887S-108.368,5389.5-106.02,5390Z" fill="#805d55"/>
                  </g>
                  <path id="Trazado_102666" data-name="Trazado 102666" d="M-156.329,5423.913c-.455.735,4.649,7.38,9.514,7.38s9.926-6.906,9.514-7.38c-.207-.237-4.877-.1-9.516-.13C-151.476,5423.75-156.1,5423.546-156.329,5423.913Z" fill="#fff"/>
                  <g id="Grupo_58826" data-name="Grupo 58826">
                    <path id="Trazado_102667" data-name="Trazado 102667" d="M-160.746,5398.373c0,2.427-1.633,4.4-3.646,4.4s-3.644-1.968-3.644-4.4,1.633-4.394,3.644-4.394S-160.746,5395.946-160.746,5398.373Z" fill="#344154"/>
                    <path id="Trazado_102668" data-name="Trazado 102668" d="M-125.592,5398.373c0,2.427-1.633,4.4-3.647,4.4s-3.646-1.968-3.646-4.4,1.633-4.394,3.646-4.394S-125.592,5395.946-125.592,5398.373Z" fill="#344154"/>
                  </g>
                  <path id="Trazado_102669" data-name="Trazado 102669" d="M-154.312,5385.577s-1.449,1.48-5.29,2.117-9.03-1.639-12.138-.568a11.874,11.874,0,0,0-3.934,2.427,6.658,6.658,0,0,1,3.3-4.093c2.815-1.326,8.084.836,12.524.757A20.263,20.263,0,0,0-154.312,5385.577Z" fill="#344154"/>
                  <path id="Trazado_102670" data-name="Trazado 102670" d="M-139.429,5385.577s1.449,1.48,5.292,2.117,9.026-1.639,12.14-.568a11.892,11.892,0,0,1,3.932,2.427,6.652,6.652,0,0,0-3.305-4.093c-2.814-1.326-8.081.836-12.522.757A20.267,20.267,0,0,1-139.429,5385.577Z" fill="#344154"/>
                  <g id="Grupo_58827" data-name="Grupo 58827">
                    <path id="Trazado_102671" data-name="Trazado 102671" d="M-146.16,5413.011a6.713,6.713,0,0,1-2.045-.324.6.6,0,0,1-.378-.756.6.6,0,0,1,.756-.383c.139.047,3.354,1.078,4.192-1.232.365-1.01-.055-1.715-1.045-3.21-1.453-2.193-3.645-5.5-3.584-12.716a.6.6,0,0,1,.6-.593h0a.6.6,0,0,1,.594.6c-.057,6.844,2.014,9.973,3.385,12.045.984,1.484,1.761,2.659,1.174,4.28A3.568,3.568,0,0,1-146.16,5413.011Z" fill="#d9a171"/>
                  </g>
                  <path id="Trazado_102672" data-name="Trazado 102672" d="M-157.7,5347.515c1.46-10.4,14.876-20.725,34.446-16.474,19.77,4.294,21.8,28.161,26.158,41.137,4.695,13.98,21.907,25.2,16.376,50.275-6.74,30.552-36.993,40.589-36.993,40.589s7.536-5.891,7.041-12.082c-.306-3.781-4.195-3.947-4.195-3.947s1.9-4.738-1.7-6.834c-3.743-2.188-6.89,3.292-6.89,3.292s9.987-35.847-5.19-65.2C-144.034,5348.5-159.146,5357.8-157.7,5347.515Z" fill="#a66d58"/>
                  <g id="Grupo_58828" data-name="Grupo 58828">
                    <path id="Trazado_102673" data-name="Trazado 102673" d="M-88.806,5402.831a.6.6,0,0,1-.576-.44c-1.834-6.7-5.154-10.9-8.08-14.613a35.812,35.812,0,0,1-4.16-6.049c-4.63-9.36-3.69-14.637-3.646-14.856a.6.6,0,0,1,.7-.473.6.6,0,0,1,.477.7c-.009.052-.883,5.152,3.544,14.1a35,35,0,0,0,4.027,5.837c3,3.8,6.4,8.107,8.293,15.039a.6.6,0,0,1-.419.735A.613.613,0,0,1-88.806,5402.831Z" fill="#caa79b"/>
                  </g>
                  <g id="Grupo_58829" data-name="Grupo 58829">
                    <path id="Trazado_102674" data-name="Trazado 102674" d="M-114.765,5357a.59.59,0,0,1-.507-.279,32.534,32.534,0,0,0-24.181-15.5.6.6,0,0,1-.573-.622.6.6,0,0,1,.6-.576h.024a33.761,33.761,0,0,1,25.149,16.057.6.6,0,0,1-.192.827A.582.582,0,0,1-114.765,5357Z" fill="#caa79b"/>
                  </g>
                  <g id="Grupo_58830" data-name="Grupo 58830">
                    <path id="Trazado_102675" data-name="Trazado 102675" d="M-121.655,5375.274a.606.606,0,0,1-.57-.411c-7.1-21.3-23.809-25.552-23.978-25.593a.6.6,0,0,1-.443-.721.6.6,0,0,1,.722-.443c.177.041,17.527,4.45,24.838,26.377a.6.6,0,0,1-.378.76A.583.583,0,0,1-121.655,5375.274Z" fill="#caa79b"/>
                  </g>
                  <g id="Grupo_58831" data-name="Grupo 58831">
                    <path id="Trazado_102676" data-name="Trazado 102676" d="M-93.395,5438.082a.586.586,0,0,1-.381-.138.6.6,0,0,1-.086-.842,37.756,37.756,0,0,0,7.256-23.36.6.6,0,0,1,.572-.625.567.567,0,0,1,.625.572,39.053,39.053,0,0,1-7.523,24.171A.593.593,0,0,1-93.395,5438.082Z" fill="#caa79b"/>
                  </g>
                  <g id="Grupo_58832" data-name="Grupo 58832">
                    <path id="Trazado_102677" data-name="Trazado 102677" d="M-110.373,5448.363a.588.588,0,0,1-.454-.211.6.6,0,0,1,.067-.844c.158-.135,15.774-13.642,16.166-32.806a.585.585,0,0,1,.609-.587.6.6,0,0,1,.59.612c-.4,19.712-16.428,33.557-16.59,33.7A.6.6,0,0,1-110.373,5448.363Z" fill="#caa79b"/>
                  </g>
                  <g id="Grupo_58833" data-name="Grupo 58833">
                    <path id="Trazado_102678" data-name="Trazado 102678" d="M-118.86,5439.477a.6.6,0,0,1-.485-.247.6.6,0,0,1,.136-.836,41.672,41.672,0,0,0,14.827-33.253.6.6,0,0,1,.591-.611.59.59,0,0,1,.608.589,42.907,42.907,0,0,1-15.325,34.247A.626.626,0,0,1-118.86,5439.477Z" fill="#caa79b"/>
                  </g>
                  <g id="Grupo_58834" data-name="Grupo 58834">
                    <path id="Trazado_102679" data-name="Trazado 102679" d="M-196.343,5411.019a.6.6,0,0,1-.594-.531c-2.5-22.922,9.77-33.473,9.9-33.578a.6.6,0,0,1,.842.077.6.6,0,0,1-.073.841c-.12.1-11.9,10.281-9.476,32.527a.6.6,0,0,1-.53.66A.352.352,0,0,1-196.343,5411.019Z" fill="#caa79b"/>
                  </g>
                  <g id="Grupo_58835" data-name="Grupo 58835">
                    <path id="Trazado_102680" data-name="Trazado 102680" d="M-182.365,5437.48a.6.6,0,0,1-.46-.217c-.368-.447-9.016-11.062-10.12-22.891a.6.6,0,0,1,.539-.653.59.59,0,0,1,.653.54c1.07,11.466,9.765,22.135,9.851,22.242a.6.6,0,0,1-.079.843A.614.614,0,0,1-182.365,5437.48Z" fill="#caa79b"/>
                  </g>
                  <g id="Grupo_58836" data-name="Grupo 58836">
                    <path id="Trazado_102681" data-name="Trazado 102681" d="M-186.157,5446.368a.6.6,0,0,1-.376-.133c-6.672-5.359-8.755-13.507-8.842-13.85a.6.6,0,0,1,.435-.726.6.6,0,0,1,.728.435c.02.082,2.083,8.109,8.43,13.207a.6.6,0,0,1,.094.842A.6.6,0,0,1-186.157,5446.368Z" fill="#caa79b"/>
                  </g>
                  <g id="Grupo_58837" data-name="Grupo 58837">
                    <path id="Trazado_102682" data-name="Trazado 102682" d="M-173.58,5436.475a.607.607,0,0,1-.377-.132,29.268,29.268,0,0,1-7.948-10.466.6.6,0,0,1,.329-.781.6.6,0,0,1,.78.325,28.6,28.6,0,0,0,7.594,9.989.6.6,0,0,1,.087.843A.591.591,0,0,1-173.58,5436.475Z" fill="#caa79b"/>
                  </g>
                  <path id="Trazado_102683" data-name="Trazado 102683" d="M-157.7,5347.566s-.121,8.515-8.087,23.364c-8.838,16.474-15.578,21.268-15.578,21.268l-5.242-17.075,13.181-25.011,16.026-5.693Z" fill="#a66d58"/>
                  <g id="Grupo_58838" data-name="Grupo 58838">
                    <path id="Trazado_102684" data-name="Trazado 102684" d="M-182.764,5371.379a.582.582,0,0,1-.408-.162.6.6,0,0,1-.028-.849c4.163-4.408,5.4-9.428,6.585-14.282,1.167-4.758,2.268-9.255,6.035-12.613,5.333-4.755,14.882-3.013,15.288-2.936a.6.6,0,0,1,.477.7.6.6,0,0,1-.7.476c-.092-.015-9.375-1.707-14.264,2.656-3.491,3.111-4.55,7.43-5.67,12-1.227,5-2.5,10.182-6.877,14.82A.6.6,0,0,1-182.764,5371.379Z" fill="#caa79b"/>
                  </g>
                  <g id="Grupo_58839" data-name="Grupo 58839">
                    <path id="Trazado_102685" data-name="Trazado 102685" d="M-180.416,5390.151c0-1.45-2.3-4.692-7.088-3.046s-4.193,6.866-3.746,9.039c.65,3.145,2.2,4.89,3.246,6.888s1.5,4.693,3.295,5.192a3.2,3.2,0,0,0,3.044-.849S-180.416,5391.6-180.416,5390.151Z" fill="#ffbf9d"/>
                  </g>
                </g>
                <path id="Trazado_102686" data-name="Trazado 102686" d="M-146.765,5537.2c.929-3.909,8.561-35.154,18.206-50.471a76.507,76.507,0,0,1,10.325-12.826l-6.67-19.326s-6.577,5.092-21.905,5.092-21.916-5.092-21.916-5.092l-6.676,19.345a76.413,76.413,0,0,1,10.328,12.83c9.647,15.321,17.275,46.56,18.211,50.471v.384s.018-.08.045-.194c.028.127.052.217.052.217Z" fill="#344154"/>
                <g id="Grupo_58841" data-name="Grupo 58841">
                  <path id="Trazado_102687" data-name="Trazado 102687" d="M-115.453,5488.388a.774.774,0,0,1-.758-.549.723.723,0,0,1,.564-.884c15.458-3.634,16.4-15,16.431-15.48a.738.738,0,0,1,.828-.681.743.743,0,0,1,.732.765c-.009.128-1.008,12.9-17.605,16.8A.773.773,0,0,1-115.453,5488.388Z" fill="#a66d58"/>
                </g>
                <g id="Grupo_58842" data-name="Grupo 58842">
                  <path id="Trazado_102688" data-name="Trazado 102688" d="M-178.833,5488.388a.764.764,0,0,1-.193-.024c-16.6-3.9-17.6-16.677-17.606-16.8a.741.741,0,0,1,.733-.765.743.743,0,0,1,.828.681c.032.48.974,11.846,16.43,15.48a.723.723,0,0,1,.565.884A.769.769,0,0,1-178.833,5488.388Z" fill="#a66d58"/>
                </g>
                <g id="Grupo_58843" data-name="Grupo 58843">
                  <path id="Trazado_102689" data-name="Trazado 102689" d="M-143.862,5549l.041-11.327-4.7-.013-.041,11.259Q-146.21,5548.976-143.862,5549Z" fill="#a5a5a5"/>
                </g>
                <path id="Trazado_102690" data-name="Trazado 102690" d="M-151.435,5548.853q5.281.157,10.57.177a9.671,9.671,0,0,1-.236-1.546,70.983,70.983,0,0,1,0-7.191,4.9,4.9,0,0,0-5.069-4.71,4.9,4.9,0,0,0-5.068,4.71,70.651,70.651,0,0,1,0,7.191A9.283,9.283,0,0,1-151.435,5548.853Zm5.265-11.184a2.728,2.728,0,0,1,2.822,2.624,2.728,2.728,0,0,1-2.822,2.621,2.727,2.727,0,0,1-2.823-2.621A2.728,2.728,0,0,1-146.17,5537.669Z" fill="#d3d3d3"/>
                <g id="Grupo_58845" data-name="Grupo 58845">
                  <g id="Grupo_58844" data-name="Grupo 58844">
                    <path id="Trazado_102691" data-name="Trazado 102691" d="M-85.772,5544.507a31.742,31.742,0,0,1,2.7-6.768.7.7,0,0,0-.331-.982.823.823,0,0,0-1.06.309,31.674,31.674,0,0,0-3,7.81C-86.9,5544.752-86.335,5544.634-85.772,5544.507Z" fill="#1f1521"/>
                  </g>
                  <path id="Trazado_102692" data-name="Trazado 102692" d="M-85.756,5544.5a31.8,31.8,0,0,1,2.7-6.764.706.706,0,0,0-.334-.982.822.822,0,0,0-1.058.309,31.664,31.664,0,0,0-3,7.807C-86.882,5544.749-86.318,5544.631-85.756,5544.5Z" fill="#2c563e"/>
                </g>
              </g>
            </g>
          </g>
        </g>
      </g>
      <g id="Grupo_58852" data-name="Grupo 58852">
        <path id="Trazado_102693" data-name="Trazado 102693" d="M-30.926,5478.744l-49.126-49.125v14.389h-48.861v69.474h48.861v14.388Z" fill="#f2e9e4" stroke="#344154" stroke-miterlimit="10" stroke-width="1"/>
        <g id="_33_padlock" data-name="33 padlock">
          <g id="Grupo_58851" data-name="Grupo 58851">
            <path id="Trazado_102694" data-name="Trazado 102694" d="M-78.052,5467.269a1.981,1.981,0,0,1-1.981-1.982v-.433a9.51,9.51,0,0,0-9.5-9.5,9.51,9.51,0,0,0-9.5,9.5v10.577a1.981,1.981,0,0,1-1.982,1.981,1.981,1.981,0,0,1-1.981-1.981v-10.577a13.477,13.477,0,0,1,13.462-13.462,13.477,13.477,0,0,1,13.462,13.462v.433a1.982,1.982,0,0,1-1.982,1.982Z" fill="#5e6178"/>
          </g>
          <path id="Trazado_102695" data-name="Trazado 102695" d="M-89.532,5451.392a13.392,13.392,0,0,0-1.976.146,13.481,13.481,0,0,1,11.486,13.316v.433c0,.039,0,.076,0,.114a1.979,1.979,0,0,0,1.975,1.868,1.982,1.982,0,0,0,1.982-1.982v-.433a13.477,13.477,0,0,0-13.462-13.462Z" fill="#5d6776"/>
          <path id="Trazado_102696" data-name="Trazado 102696" d="M-73.564,5504.019H-105.5a3.339,3.339,0,0,1-3.34-3.339v-23.671a3.339,3.339,0,0,1,3.34-3.339h31.936a3.34,3.34,0,0,1,3.34,3.339v23.671A3.339,3.339,0,0,1-73.564,5504.019Z" fill="#5e6178"/>
          <path id="Trazado_102697" data-name="Trazado 102697" d="M-84.468,5486.2a5.064,5.064,0,0,0-5.064-5.064A5.064,5.064,0,0,0-94.6,5486.2a5.061,5.061,0,0,0,2.524,4.381v5.839a2.54,2.54,0,0,0,2.54,2.54,2.539,2.539,0,0,0,2.539-2.54v-5.839A5.06,5.06,0,0,0-84.468,5486.2Z" fill="#bdbdbd"/>
          <path id="Trazado_102698" data-name="Trazado 102698" d="M-73.564,5473.67h-3.951a3.34,3.34,0,0,1,3.34,3.339v23.671a3.34,3.34,0,0,1-3.34,3.339h3.951a3.339,3.339,0,0,0,3.34-3.339v-23.671a3.339,3.339,0,0,0-3.34-3.339Z" fill="#344154"/>
        </g>
      </g>
    </g>
    <rect id="Rectángulo_5462" data-name="Rectángulo 5462" width="258.047" height="258.047" transform="translate(-275.839 5283.065)" fill="none"/>
  </g>
</svg>
