<svg xmlns="http://www.w3.org/2000/svg" width="373.329" height="380.947" viewBox="0 0 373.329 380.947">
  <g id="Grupo_58798" data-name="Grupo 58798" transform="translate(-197.633 -5742.279)">
    <circle id="Elipse_4012" data-name="Elipse 4012" cx="184.164" cy="184.164" r="184.164" transform="translate(200.133 5752.397)" fill="#cee5f7" stroke="#aed3f2" stroke-miterlimit="10" stroke-width="5"/>
    <g id="Grupo_58764" data-name="Grupo 58764">
      <path id="Trazado_102502" data-name="Trazado 102502" d="M509.96,5952.739s-24.745-5.006-48.635-2.582,11.24,33.641,11.24,33.641H477.5S458.88,5964,459.917,5959.077s47.921,1.568,47.921,1.568Z" fill="#1a2e35"/>
      <path id="Trazado_102503" data-name="Trazado 102503" d="M509.96,5952.739s-24.745-5.006-48.635-2.582,11.24,33.641,11.24,33.641H477.5S458.88,5964,459.917,5959.077s47.921,1.568,47.921,1.568Z" fill="#fff" opacity="0.2" style="isolation: isolate"/>
      <path id="Trazado_102504" data-name="Trazado 102504" d="M501.028,5982.719a443.99,443.99,0,0,0,13.507-93.459,11.609,11.609,0,0,1,11.61-11.161h20.824a11.613,11.613,0,0,1,11.621,11.56c.081,18.97-1.244,61.538-11.945,93.06Z" fill="#1a2e35"/>
      <path id="Trazado_102505" data-name="Trazado 102505" d="M501.028,5982.719a443.99,443.99,0,0,0,13.507-93.459,11.609,11.609,0,0,1,11.61-11.161h20.824a11.613,11.613,0,0,1,11.621,11.56c.081,18.97-1.244,61.538-11.945,93.06Z" fill="#fff" opacity="0.4" style="isolation: isolate"/>
      <path id="Trazado_102506" data-name="Trazado 102506" d="M494.951,5977.43c3.383-12.8,11-45.9,12.607-89.635a12.585,12.585,0,0,1,12.587-12.1H542.72a12.591,12.591,0,0,1,12.6,12.532c.088,20.566-1.349,62.61-12.95,96.783l-42.968-1.582A4.78,4.78,0,0,1,494.951,5977.43Z" fill="#d9a171"/>
      <path id="Rectángulo_5437" data-name="Rectángulo 5437" d="M0,0H76.371a0,0,0,0,1,0,0V11.928a5,5,0,0,1-5,5H5a5,5,0,0,1-5-5V0A0,0,0,0,1,0,0Z" transform="translate(539.646 5983.719) rotate(180)" fill="#d9a171"/>
      <path id="Trazado_102507" data-name="Trazado 102507" d="M537.158,6043.239l-24.47-2.4v-34.39h-9.7v34.38l-24.57,2.415a4.765,4.765,0,0,0-4.3,4.742v3.674h67.336v-3.674A4.765,4.765,0,0,0,537.158,6043.239Z" fill="#1a2e35"/>
      <path id="Trazado_102508" data-name="Trazado 102508" d="M537.158,6043.239l-24.47-2.4v-34.39h-9.7v34.38l-24.57,2.415a4.765,4.765,0,0,0-4.3,4.742v3.674h67.336v-3.674A4.765,4.765,0,0,0,537.158,6043.239Z" fill="#fff" opacity="0.4" style="isolation: isolate"/>
      <path id="Trazado_102509" data-name="Trazado 102509" d="M483.051,6056.213a6.34,6.34,0,1,1-6.34-6.341A6.34,6.34,0,0,1,483.051,6056.213Z" fill="#1a2e35"/>
      <path id="Trazado_102510" data-name="Trazado 102510" d="M476.71,6059.554a3.341,3.341,0,1,1,3.341-3.341A3.344,3.344,0,0,1,476.71,6059.554Z" fill="#fff" opacity="0.4" style="isolation: isolate"/>
      <path id="Trazado_102511" data-name="Trazado 102511" d="M532.526,6056.213a6.341,6.341,0,1,0,6.341-6.341A6.341,6.341,0,0,0,532.526,6056.213Z" fill="#1a2e35"/>
      <path id="Trazado_102512" data-name="Trazado 102512" d="M538.867,6059.554a3.341,3.341,0,1,1,3.341-3.341A3.345,3.345,0,0,1,538.867,6059.554Z" fill="#fff" opacity="0.4" style="isolation: isolate"/>
      <path id="Rectángulo_5438" data-name="Rectángulo 5438" d="M0,0H13.038a0,0,0,0,1,0,0V26.5a4.133,4.133,0,0,1-4.133,4.133H4.133A4.133,4.133,0,0,1,0,26.5V0A0,0,0,0,1,0,0Z" transform="translate(501.319 5983.204)" fill="#1a2e35"/>
      <path id="Rectángulo_5439" data-name="Rectángulo 5439" d="M0,0H13.038a0,0,0,0,1,0,0V26.5a4.133,4.133,0,0,1-4.133,4.133H4.133A4.133,4.133,0,0,1,0,26.5V0A0,0,0,0,1,0,0Z" transform="translate(501.319 5983.204)" fill="#fff" opacity="0.2" style="isolation: isolate"/>
      <g id="Grupo_58761" data-name="Grupo 58761">
        <rect id="Rectángulo_5440" data-name="Rectángulo 5440" width="86.913" height="4.964" rx="2.011" transform="translate(547.465 5986.719) rotate(-180)" fill="#1a2e35"/>
      </g>
      <g id="Grupo_58762" data-name="Grupo 58762" opacity="0.4" style="isolation: isolate">
        <rect id="Rectángulo_5441" data-name="Rectángulo 5441" width="86.913" height="4.964" rx="2.011" transform="translate(547.465 5986.719) rotate(-180)" fill="#fff"/>
      </g>
      <g id="Grupo_58763" data-name="Grupo 58763">
        <path id="Trazado_102513" data-name="Trazado 102513" d="M553.96,5952.739s-24.745-5.006-48.635-2.582,11.24,33.641,11.24,33.641H521.5S502.88,5964,503.917,5959.077s47.921,1.568,47.921,1.568Z" fill="#1a2e35"/>
        <path id="Trazado_102514" data-name="Trazado 102514" d="M553.96,5952.739s-24.745-5.006-48.635-2.582,11.24,33.641,11.24,33.641H521.5S502.88,5964,503.917,5959.077s47.921,1.568,47.921,1.568Z" fill="#fff" opacity="0.4" style="isolation: isolate"/>
      </g>
    </g>
    <g id="Grupo_58774" data-name="Grupo 58774">
      <g id="Grupo_58773" data-name="Grupo 58773">
        <g id="Grupo_58765" data-name="Grupo 58765">
          <path id="Trazado_102515" data-name="Trazado 102515" d="M272.908,5958.1v1.01h-15.24v-.771c0-1.849,1.92-3.369,4.38-3.469l.81-.031,5.16-.209C270.678,5954.52,272.908,5956.1,272.908,5958.1Z" fill="#1a2e35"/>
          <path id="Trazado_102516" data-name="Trazado 102516" d="M265.888,5958.1v1.01h-8.22v-.771c0-1.849,1.92-3.369,4.38-3.469l.81-.031C264.618,5955.321,265.888,5956.6,265.888,5958.1Z" fill="#fff" opacity="0.2" style="isolation: isolate"/>
        </g>
        <g id="Grupo_58766" data-name="Grupo 58766">
          <path id="Trazado_102517" data-name="Trazado 102517" d="M397.178,6062.5h1.533a.355.355,0,0,0,.352-.347l2.425-93.891H394.4l2.424,93.891A.355.355,0,0,0,397.178,6062.5Z" fill="#1a2e35"/>
        </g>
        <g id="Grupo_58767" data-name="Grupo 58767">
          <path id="Trazado_102518" data-name="Trazado 102518" d="M451.854,6062.5H455.4l-10-94.238h-7.087Z" fill="#1a2e35"/>
        </g>
        <path id="Trazado_102519" data-name="Trazado 102519" d="M223.6,6062.5h0l13.581-94.238h-7.087l-10,94.238Z" fill="#1a2e35"/>
        <path id="Trazado_102520" data-name="Trazado 102520" d="M275.51,6062.5h4.071l0,0,1.507-94.235H274Z" fill="#1a2e35"/>
        <g id="Grupo_58768" data-name="Grupo 58768" opacity="0.4" style="isolation: isolate">
          <path id="Trazado_102521" data-name="Trazado 102521" d="M451.854,6062.5H455.4l-10-94.238h-7.087Z" fill="#fff"/>
        </g>
        <path id="Trazado_102522" data-name="Trazado 102522" d="M275.51,6062.5h4.071l0,0,1.507-94.235H274Z" fill="#fff" opacity="0.4" style="isolation: isolate"/>
        <g id="Grupo_58769" data-name="Grupo 58769" opacity="0.2" style="isolation: isolate">
          <path id="Trazado_102523" data-name="Trazado 102523" d="M397.178,6062.5h1.533a.355.355,0,0,0,.352-.347l2.425-93.891H394.4l2.424,93.891A.355.355,0,0,0,397.178,6062.5Z" fill="#fff"/>
        </g>
        <path id="Trazado_102524" data-name="Trazado 102524" d="M223.6,6062.5h0l13.581-94.238h-7.087l-10,94.238Z" fill="#fff" opacity="0.2" style="isolation: isolate"/>
        <g id="Grupo_58770" data-name="Grupo 58770">
          <path id="Trazado_102525" data-name="Trazado 102525" d="M287.849,5959.631h20.168l3.208-28.159a1.976,1.976,0,0,0-1.974-1.881H295.739a1.976,1.976,0,0,0-1.974,1.881Z" fill="#1a2e35"/>
          <path id="Trazado_102526" data-name="Trazado 102526" d="M257.066,5888.177H262.1l5.659,53.184h-5.035a1.722,1.722,0,0,1-1.671-1.511l-5.338-50.163A1.333,1.333,0,0,1,257.066,5888.177Z" fill="#1a2e35"/>
          <path id="Trazado_102527" data-name="Trazado 102527" d="M264.854,5941.361h75.46a1.333,1.333,0,0,0,1.35-1.511l-5.338-50.163a1.721,1.721,0,0,0-1.671-1.51H259.2a1.333,1.333,0,0,0-1.35,1.51l5.338,50.163A1.721,1.721,0,0,0,264.854,5941.361Z" fill="#1a2e35"/>
          <rect id="Rectángulo_5442" data-name="Rectángulo 5442" width="26.993" height="2.187" rx="0.959" transform="translate(312.991 5959.631) rotate(180)" fill="#1a2e35"/>
          <path id="Trazado_102528" data-name="Trazado 102528" d="M264.854,5941.361h75.46a1.333,1.333,0,0,0,1.35-1.511l-5.338-50.163a1.721,1.721,0,0,0-1.671-1.51H259.2a1.333,1.333,0,0,0-1.35,1.51l5.338,50.163A1.721,1.721,0,0,0,264.854,5941.361Z" fill="#fff" opacity="0.2" style="isolation: isolate"/>
          <path id="Trazado_102529" data-name="Trazado 102529" d="M266.264,5936.449h71.158a1.163,1.163,0,0,0,1.178-1.318l-4.657-43.766a1.5,1.5,0,0,0-1.458-1.318H261.327a1.163,1.163,0,0,0-1.178,1.318l4.656,43.766A1.5,1.5,0,0,0,266.264,5936.449Z" fill="#d9a171"/>
          <rect id="Rectángulo_5443" data-name="Rectángulo 5443" width="26.993" height="2.187" rx="0.959" transform="translate(312.991 5959.631) rotate(180)" fill="#fff" opacity="0.2" style="isolation: isolate"/>
          <path id="Trazado_102530" data-name="Trazado 102530" d="M266.264,5936.449h71.158a1.163,1.163,0,0,0,1.178-1.318l-4.657-43.766a1.5,1.5,0,0,0-1.458-1.318H261.327a1.163,1.163,0,0,0-1.178,1.318l4.656,43.766A1.5,1.5,0,0,0,266.264,5936.449Z" fill="#d9a171" opacity="0.2" style="isolation: isolate"/>
        </g>
        <path id="Trazado_102531" data-name="Trazado 102531" d="M287.429,5959H226v9.268H449.5V5959Z" fill="#d9a171"/>
        <g id="Grupo_58772" data-name="Grupo 58772">
          <g id="Grupo_58771" data-name="Grupo 58771">
            <path id="Trazado_102532" data-name="Trazado 102532" d="M332.88,5957.332h1.882a.359.359,0,0,0,.359-.359v-1.99a.359.359,0,0,0-.359-.359h-1.351a.358.358,0,0,0-.347.266l-.531,1.991A.359.359,0,0,0,332.88,5957.332Z" fill="#d9a171"/>
            <path id="Trazado_102533" data-name="Trazado 102533" d="M330.28,5957.332h1.881a.359.359,0,0,0,.36-.359v-1.99a.36.36,0,0,0-.36-.359H330.81a.358.358,0,0,0-.347.266l-.531,1.991A.36.36,0,0,0,330.28,5957.332Z" fill="#d9a171"/>
            <path id="Trazado_102534" data-name="Trazado 102534" d="M327.679,5957.332h1.882a.359.359,0,0,0,.359-.359v-1.99a.359.359,0,0,0-.359-.359H328.21a.358.358,0,0,0-.347.266l-.531,1.991A.359.359,0,0,0,327.679,5957.332Z" fill="#d9a171"/>
            <path id="Trazado_102535" data-name="Trazado 102535" d="M325.078,5957.332h1.882a.358.358,0,0,0,.359-.359v-1.99a.359.359,0,0,0-.359-.359h-1.351a.359.359,0,0,0-.347.266l-.531,1.991A.359.359,0,0,0,325.078,5957.332Z" fill="#d9a171"/>
            <path id="Trazado_102536" data-name="Trazado 102536" d="M322.478,5957.332h1.882a.359.359,0,0,0,.359-.359v-1.99a.359.359,0,0,0-.359-.359h-1.351a.36.36,0,0,0-.348.266l-.53,1.991A.359.359,0,0,0,322.478,5957.332Z" fill="#d9a171"/>
            <path id="Trazado_102537" data-name="Trazado 102537" d="M319.877,5957.332h1.882a.359.359,0,0,0,.359-.359v-1.99a.359.359,0,0,0-.359-.359h-1.351a.358.358,0,0,0-.347.266l-.531,1.991A.359.359,0,0,0,319.877,5957.332Z" fill="#d9a171"/>
            <path id="Trazado_102538" data-name="Trazado 102538" d="M317.277,5957.332h1.881a.359.359,0,0,0,.36-.359v-1.99a.36.36,0,0,0-.36-.359h-1.351a.359.359,0,0,0-.347.266l-.531,1.991A.36.36,0,0,0,317.277,5957.332Z" fill="#d9a171"/>
            <path id="Trazado_102539" data-name="Trazado 102539" d="M314.676,5957.332h1.882a.359.359,0,0,0,.359-.359v-1.99a.359.359,0,0,0-.359-.359h-1.351a.359.359,0,0,0-.347.266l-.531,1.991A.359.359,0,0,0,314.676,5957.332Z" fill="#d9a171"/>
            <path id="Trazado_102540" data-name="Trazado 102540" d="M312.075,5957.332h1.882a.359.359,0,0,0,.36-.359v-1.99a.36.36,0,0,0-.36-.359h-1.351a.358.358,0,0,0-.347.266l-.531,1.991A.359.359,0,0,0,312.075,5957.332Z" fill="#d9a171"/>
            <path id="Trazado_102541" data-name="Trazado 102541" d="M309.475,5957.332h1.882a.359.359,0,0,0,.359-.359v-1.99a.359.359,0,0,0-.359-.359h-1.351a.36.36,0,0,0-.348.266l-.53,1.991A.359.359,0,0,0,309.475,5957.332Z" fill="#d9a171"/>
            <path id="Trazado_102542" data-name="Trazado 102542" d="M306.874,5957.332h1.882a.358.358,0,0,0,.359-.359v-1.99a.359.359,0,0,0-.359-.359H307.4a.358.358,0,0,0-.347.266l-.531,1.991A.359.359,0,0,0,306.874,5957.332Z" fill="#d9a171"/>
            <path id="Trazado_102543" data-name="Trazado 102543" d="M304.274,5957.332h1.881a.359.359,0,0,0,.36-.359v-1.99a.36.36,0,0,0-.36-.359H304.8a.359.359,0,0,0-.347.266l-.531,1.991A.36.36,0,0,0,304.274,5957.332Z" fill="#d9a171"/>
            <path id="Trazado_102544" data-name="Trazado 102544" d="M301.673,5957.332h1.882a.359.359,0,0,0,.359-.359v-1.99a.359.359,0,0,0-.359-.359H302.2a.358.358,0,0,0-.347.266l-.531,1.991A.359.359,0,0,0,301.673,5957.332Z" fill="#d9a171"/>
            <path id="Trazado_102545" data-name="Trazado 102545" d="M299.072,5957.332h1.882a.359.359,0,0,0,.36-.359v-1.99a.36.36,0,0,0-.36-.359H299.6a.358.358,0,0,0-.347.266l-.531,1.991A.359.359,0,0,0,299.072,5957.332Z" fill="#d9a171"/>
            <path id="Trazado_102546" data-name="Trazado 102546" d="M296.472,5957.332h1.882a.359.359,0,0,0,.359-.359v-1.99a.359.359,0,0,0-.359-.359H297a.36.36,0,0,0-.348.266l-.53,1.991A.359.359,0,0,0,296.472,5957.332Z" fill="#d9a171"/>
          </g>
          <rect id="Rectángulo_5444" data-name="Rectángulo 5444" width="42.076" height="3.134" transform="translate(336.655 5959.112) rotate(180)" fill="#1a2e35"/>
          <rect id="Rectángulo_5445" data-name="Rectángulo 5445" width="42.076" height="3.134" transform="translate(336.655 5959.112) rotate(180)" fill="#fff" opacity="0.2" style="isolation: isolate"/>
          <rect id="Rectángulo_5446" data-name="Rectángulo 5446" width="13.633" height="3.134" transform="translate(308.212 5959.112) rotate(180)" fill="#fff" opacity="0.2" style="isolation: isolate"/>
        </g>
        <rect id="Rectángulo_5447" data-name="Rectángulo 5447" width="179.589" height="9.268" transform="translate(449.495 5968.266) rotate(180)" fill="#fff" opacity="0.2" style="isolation: isolate"/>
      </g>
    </g>
    <g id="Grupo_58779" data-name="Grupo 58779">
      <g id="Grupo_58775" data-name="Grupo 58775">
        <path id="Trazado_102547" data-name="Trazado 102547" d="M259.75,6044.93a1.573,1.573,0,0,0-1.259-2.256,3.364,3.364,0,0,0-1.066-3.674.789.789,0,0,0-.463-.206.893.893,0,0,0-.5.219l-2.943,2.114a1.774,1.774,0,0,0-.584.578c-.6,1.165,1.567,2.658.675,3.62-.256.276-.668.333-.987.533-.7.438-.785,1.4-1.112,2.158s-1.464,1.347-1.9.646c.322-.728-.651-1.355-1.441-1.448s-1.616-.135-2.052-.877c-1.121.98-3.632-1.754-3.574-2.856a2.161,2.161,0,0,0-1.751,1.8,12.909,12.909,0,0,0-.1,2.747c-.028,1.785-.6,3.533-.572,5.318a3.751,3.751,0,0,0,1.832,3.49,4.8,4.8,0,0,0,1.973.265l14.479-.093a2.2,2.2,0,0,0,1.018-.169c.653-.341.791-1.2.852-1.933l.777-9.437Z" fill="#d9a171"/>
        <path id="Trazado_102548" data-name="Trazado 102548" d="M259.75,6044.93a1.573,1.573,0,0,0-1.259-2.256,3.364,3.364,0,0,0-1.066-3.674.789.789,0,0,0-.463-.206.893.893,0,0,0-.5.219l-2.943,2.114a1.774,1.774,0,0,0-.584.578c-.6,1.165,1.567,2.658.675,3.62-.256.276-.668.333-.987.533-.7.438-.785,1.4-1.112,2.158s-1.464,1.347-1.9.646c.322-.728-.651-1.355-1.441-1.448s-1.616-.135-2.052-.877c-1.121.98-3.632-1.754-3.574-2.856a2.161,2.161,0,0,0-1.751,1.8,12.909,12.909,0,0,0-.1,2.747c-.028,1.785-.6,3.533-.572,5.318a3.751,3.751,0,0,0,1.832,3.49,4.8,4.8,0,0,0,1.973.265l14.479-.093a2.2,2.2,0,0,0,1.018-.169c.653-.341.791-1.2.852-1.933l.777-9.437Z" fill="#fff" opacity="0.3" style="isolation: isolate"/>
      </g>
      <g id="Grupo_58778" data-name="Grupo 58778">
        <g id="Grupo_58776" data-name="Grupo 58776">
          <path id="Trazado_102549" data-name="Trazado 102549" d="M260.6,6029.626H238.129l.184,2.269.132,1.621.343,4.218.2,2.423.259,3.225.11,1.383.037.412.132,1.626.18,2.227.111,1.383.116,1.4.132,1.625.1,1.23.111,1.383.047.6h20.619l.048-.6.111-1.377.1-1.241.132-1.626.116-1.4.111-1.383.179-2.233.132-1.62.032-.412.111-1.383.264-3.225.2-2.418.338-4.223.132-1.621.185-2.269Zm1.352,1.488h0l-.433-.433h.47Zm-.111,1.378-.042.549-2.012,2.011-2.306-2.307,2.063-2.064h.486Zm-.581,7.19-1.473,1.472-2.306-2.306,2.306-2.3,1.594,1.594Zm-21.379-1.542h0l1.594-1.594,2.307,2.3-2.307,2.306L240,6039.682Zm19.162-2.344-2.307,2.307-2.307-2.307,2.307-2.306Zm-3.627-5.115h2.64l-1.32,1.32Zm.571,8.167-2.3,2.306-2.307-2.306,2.307-2.3Zm-7.66,3.051,2.307-2.3,2.3,2.3-2.3,2.307Zm1.557,3.051-2.307,2.307-2.3-2.3,2.307-2.307Zm3.8-2.3,2.3,2.307-2.3,2.3-2.307-2.307Zm-3.051-4.545-2.307-2.307,2.307-2.306,2.3,2.306Zm-.75.745-2.3,2.306-2.307-2.306,2.307-2.3Zm-5.358-.745-2.3-2.307,2.3-2.306,2.307,2.306Zm0,1.494,2.307,2.3-2.307,2.307-2.3-2.307Zm2.307,8.409-2.307,2.3-2.3-2.3,2.3-2.307Zm.744.745,2.307,2.306-2.3,2.307-2.307-2.307Zm.75-.745,2.307-2.307,2.3,2.307-2.3,2.3Zm5.358.745,2.3,2.306-2.3,2.307-2.307-2.307Zm3.051,3.051,2.307,2.307-1.494,1.493h-1.626l-1.494-1.493Zm-2.307-3.8,2.307-2.307,2.307,2.307-2.307,2.3Zm0-6.107,2.307-2.3,2.307,2.3-2.307,2.307Zm1.558-9.154-2.3,2.307-2.307-2.307,2.064-2.064h.486Zm-5.353-.744-1.32-1.32h2.634Zm-.75.744-2.3,2.307-2.307-2.307,2.064-2.064h.486Zm-4.038-2.064-1.32,1.32-1.314-1.32Zm-4.128,0,2.064,2.064-2.307,2.307-2.006-2.011-.042-.549,1.805-1.811Zm-1.974,0-.428.428h0l-.037-.428Zm-.143,3.986,1.13,1.129-.961.961Zm.628,7.733-.089-1.093h0l.591.592-.5.5Zm.111,1.388,1.135-1.14,2.307,2.307-2.307,2.3-.929-.929Zm.343,4.266,0-.1.053.052-.048.048Zm.4,4.914-.291-3.536.681-.681,2.307,2.306-2.307,2.3-.39-.391Zm.211,2.634-.043-.527.222-.222.75.749Zm.929-1.493,2.3-2.307,2.307,2.307-1.494,1.493h-1.626Zm4.608,1.493.75-.749.749.749Zm2.988,0-1.494-1.493,2.307-2.307,2.3,2.307-1.488,1.493Zm3.114,0,.75-.749.75.749Zm7.032,0h-.929l.749-.749.222.222Zm.216-2.634-.4.391-2.306-2.3,2.306-2.306.681.681Zm.407-5.02-.011.106-.047-.048.058-.058Zm.132-1.62-.935.929-2.306-2.3,2.306-2.307,1.141,1.14Zm.316-3.923-.506-.506.6-.592Zm.629-7.744-.169,2.1-.966-.966,1.135-1.135Z" fill="#d9a171"/>
        </g>
        <g id="Grupo_58777" data-name="Grupo 58777" opacity="0.6" style="isolation: isolate">
          <path id="Trazado_102550" data-name="Trazado 102550" d="M260.6,6029.626H238.129l.184,2.269.132,1.621.343,4.218.2,2.423.259,3.225.11,1.383.037.412.132,1.626.18,2.227.111,1.383.116,1.4.132,1.625.1,1.23.111,1.383.047.6h20.619l.048-.6.111-1.377.1-1.241.132-1.626.116-1.4.111-1.383.179-2.233.132-1.62.032-.412.111-1.383.264-3.225.2-2.418.338-4.223.132-1.621.185-2.269Zm1.352,1.488h0l-.433-.433h.47Zm-.111,1.378-.042.549-2.012,2.011-2.306-2.307,2.063-2.064h.486Zm-.581,7.19-1.473,1.472-2.306-2.306,2.306-2.3,1.594,1.594Zm-21.379-1.542h0l1.594-1.594,2.307,2.3-2.307,2.306L240,6039.682Zm19.162-2.344-2.307,2.307-2.307-2.307,2.307-2.306Zm-3.627-5.115h2.64l-1.32,1.32Zm.571,8.167-2.3,2.306-2.307-2.306,2.307-2.3Zm-7.66,3.051,2.307-2.3,2.3,2.3-2.3,2.307Zm1.557,3.051-2.307,2.307-2.3-2.3,2.307-2.307Zm3.8-2.3,2.3,2.307-2.3,2.3-2.307-2.307Zm-3.051-4.545-2.307-2.307,2.307-2.306,2.3,2.306Zm-.75.745-2.3,2.306-2.307-2.306,2.307-2.3Zm-5.358-.745-2.3-2.307,2.3-2.306,2.307,2.306Zm0,1.494,2.307,2.3-2.307,2.307-2.3-2.307Zm2.307,8.409-2.307,2.3-2.3-2.3,2.3-2.307Zm.744.745,2.307,2.306-2.3,2.307-2.307-2.307Zm.75-.745,2.307-2.307,2.3,2.307-2.3,2.3Zm5.358.745,2.3,2.306-2.3,2.307-2.307-2.307Zm3.051,3.051,2.307,2.307-1.494,1.493h-1.626l-1.494-1.493Zm-2.307-3.8,2.307-2.307,2.307,2.307-2.307,2.3Zm0-6.107,2.307-2.3,2.307,2.3-2.307,2.307Zm1.558-9.154-2.3,2.307-2.307-2.307,2.064-2.064h.486Zm-5.353-.744-1.32-1.32h2.634Zm-.75.744-2.3,2.307-2.307-2.307,2.064-2.064h.486Zm-4.038-2.064-1.32,1.32-1.314-1.32Zm-4.128,0,2.064,2.064-2.307,2.307-2.006-2.011-.042-.549,1.805-1.811Zm-1.974,0-.428.428h0l-.037-.428Zm-.143,3.986,1.13,1.129-.961.961Zm.628,7.733-.089-1.093h0l.591.592-.5.5Zm.111,1.388,1.135-1.14,2.307,2.307-2.307,2.3-.929-.929Zm.343,4.266,0-.1.053.052-.048.048Zm.4,4.914-.291-3.536.681-.681,2.307,2.306-2.307,2.3-.39-.391Zm.211,2.634-.043-.527.222-.222.75.749Zm.929-1.493,2.3-2.307,2.307,2.307-1.494,1.493h-1.626Zm4.608,1.493.75-.749.749.749Zm2.988,0-1.494-1.493,2.307-2.307,2.3,2.307-1.488,1.493Zm3.114,0,.75-.749.75.749Zm7.032,0h-.929l.749-.749.222.222Zm.216-2.634-.4.391-2.306-2.3,2.306-2.306.681.681Zm.407-5.02-.011.106-.047-.048.058-.058Zm.132-1.62-.935.929-2.306-2.3,2.306-2.307,1.141,1.14Zm.316-3.923-.506-.506.6-.592Zm.629-7.744-.169,2.1-.966-.966,1.135-1.135Z" fill="#fff"/>
        </g>
      </g>
      <rect id="Rectángulo_5448" data-name="Rectángulo 5448" width="27.873" height="2.939" rx="1.469" transform="translate(264.564 6031.623) rotate(180)" fill="#d9a171"/>
      <rect id="Rectángulo_5449" data-name="Rectángulo 5449" width="23.854" height="2.939" rx="1.469" transform="translate(238.7 6055.078)" fill="#d9a171"/>
    </g>
    <g id="Grupo_58781" data-name="Grupo 58781">
      <rect id="Rectángulo_5450" data-name="Rectángulo 5450" width="37.315" height="37.315" rx="3.692" transform="translate(420.291 5779.047) rotate(170.18)" fill="#d9a171"/>
      <path id="Trazado_102551" data-name="Trazado 102551" d="M397.463,5780.066s6.735,10.2,18.133,11.773c0,0-6.572-2.413-8.1-13.982Z" fill="#d9a171"/>
      <g id="Grupo_58780" data-name="Grupo 58780">
        <path id="Trazado_102552" data-name="Trazado 102552" d="M407.2,5761.034l-4.757.569s-1.562-3.185-2.55-10.544a8.8,8.8,0,0,0-2.441.382c-.766.342.083,8.575.083,8.575s-8.626.6-9.035,1.029c-.259.273-.156,1.55-.046,2.446a1.089,1.089,0,0,0,1.021.955l.3.018,1.532,8.1a1.2,1.2,0,0,0,1.333.968l7.982-1.02a3.931,3.931,0,0,0,2.124-.971l.788-.705,4.962-.321Z" fill="#d9a171"/>
        <path id="Trazado_102553" data-name="Trazado 102553" d="M407.2,5761.034l-4.757.569s-1.562-3.185-2.55-10.544a8.8,8.8,0,0,0-2.441.382c-.766.342.083,8.575.083,8.575s-8.626.6-9.035,1.029c-.259.273-.156,1.55-.046,2.446a1.089,1.089,0,0,0,1.021.955l.3.018,1.532,8.1a1.2,1.2,0,0,0,1.333.968l7.982-1.02a3.931,3.931,0,0,0,2.124-.971l.788-.705,4.962-.321Z" fill="#fff" opacity="0.7" style="isolation: isolate"/>
      </g>
    </g>
    <g id="Grupo_58797" data-name="Grupo 58797">
      <g id="_Group_" data-name="&lt;Group&gt;">
        <path id="Trazado_102554" data-name="Trazado 102554" d="M424.159,5819.639c-4.357-.166-21.344,27.492-21.344,27.492l-11.542-2.177-2.472,5.9s10.4,5.073,14.586,5.525,20.19-21.878,20.19-21.878Z" fill="#d9a171"/>
        <path id="Trazado_102555" data-name="Trazado 102555" d="M424.16,5819.634l-.584,14.863s-.385.54-1.057,1.442c-1.222,1.674-3.413,4.6-5.9,7.729-4.866,6.1-10.9,12.959-13.234,12.706-4.184-.451-14.588-5.516-14.588-5.516l2.477-5.9,11.538,2.18S419.8,5819.468,424.16,5819.634Z" fill="#fff" opacity="0.2" style="isolation: isolate"/>
        <path id="Trazado_102556" data-name="Trazado 102556" d="M422.519,5835.939c-1.222,1.674-3.413,4.6-5.9,7.729.088-5.9,5.252-13.234,5.252-13.234S422.233,5832.835,422.519,5835.939Z" fill="#d9a171" opacity="0.2" style="isolation: isolate"/>
        <path id="Trazado_102557" data-name="Trazado 102557" d="M457.274,6061.708h9.756a.706.706,0,0,1,.685.552l1.583,7.151a1.185,1.185,0,0,1-.914,1.4,1.144,1.144,0,0,1-.261.026c-3.156-.051-5.455-.245-9.418-.245-2.442,0-9.807.255-13.178.255s-3.811-3.33-2.432-3.636c6.191-1.349,10.849-3.218,12.831-5A1.941,1.941,0,0,1,457.274,6061.708Z" fill="#1a2e35"/>
        <path id="Trazado_102558" data-name="Trazado 102558" d="M415.9,6061.453h9.756a.7.7,0,0,1,.684.552l1.583,7.151a1.186,1.186,0,0,1-1.174,1.43c-3.157-.051-5.455-.245-9.419-.245-2.441,0-9.807.255-13.178.255s-3.81-3.33-2.431-3.637c6.19-1.348,10.849-3.218,12.83-5A1.943,1.943,0,0,1,415.9,6061.453Z" fill="#1a2e35"/>
        <path id="Trazado_102559" data-name="Trazado 102559" d="M462.448,5880.867H419.825c-4.053,22.13-16.738,111.993-7.637,181.769h14.43s-1.336-105.971,11.4-140.216c1.465,18.328,16.361,140.144,16.361,140.144h14.69s-2.194-45.824-4.392-89.11C463.3,5946.2,462.507,5886.463,462.448,5880.867Z" fill="#1a2e35"/>
        <path id="Trazado_102560" data-name="Trazado 102560" d="M438.018,5922.424a114.191,114.191,0,0,0-4.76,18.439c-1.192-16.309,3.575-33.606,3.575-33.606Z" fill="#d9a171" opacity="0.2" style="isolation: isolate"/>
        <path id="Trazado_102561" data-name="Trazado 102561" d="M419.467,5881.378h42.9v5.107l-43.452-.528Z" fill="#d9a171"/>
        <rect id="Rectángulo_5451" data-name="Rectángulo 5451" width="1.532" height="9.066" transform="translate(447.049 5879.08)" fill="#1a2e35"/>
        <rect id="Rectángulo_5452" data-name="Rectángulo 5452" width="1.532" height="9.066" transform="translate(425.341 5879.08)" fill="#1a2e35"/>
        <rect id="Rectángulo_5453" data-name="Rectángulo 5453" width="7.935" height="5.718" transform="translate(431.087 5880.484)" fill="#fff"/>
        <g id="Grupo_58782" data-name="Grupo 58782">
          <path id="Trazado_102562" data-name="Trazado 102562" d="M462.5,5882.2c1.137-24.414,8.32-58.962,8.32-58.962-19.924-4.8-46.666-3.6-46.666-3.6-5.214,18.642-5.115,48.722-4.665,62.563Z" fill="#d9a171"/>
          <path id="Trazado_102563" data-name="Trazado 102563" d="M470.82,5823.234s-.8,3.864-1.915,9.92c-.529,2.884-1.134,6.276-1.751,9.986-.352,2.169-.727,4.437-1.079,6.782-.352,2.279-.705,4.624-1.035,7-1.178,8.477-2.169,17.406-2.543,25.279H419.491c-.451-13.84-.539-43.919,4.669-62.57C424.16,5819.634,450.9,5818.433,470.82,5823.234Z" fill="#fff" opacity="0.2" style="isolation: isolate"/>
          <path id="Trazado_102564" data-name="Trazado 102564" d="M468.9,5833.154c-.529,2.884-1.134,6.276-1.751,9.986-.352,2.169-.727,4.437-1.079,6.782-3.16-8.29,2.224-19.488,2.224-19.488Z" fill="#d9a171" opacity="0.2" style="isolation: isolate"/>
        </g>
        <path id="Trazado_102565" data-name="Trazado 102565" d="M438.315,5822.879l1.076,5.285s-6.154,25.668-7.477,38.983l2.242,2.246,3.528-2.246s.316-27.112,3.429-38.5l5.58-4.569-4.392-1.421Z" fill="#1a2e35"/>
        <path id="Trazado_102566" data-name="Trazado 102566" d="M455.019,5820.544c-3.686,3.349-12.718,2.111-12.718,2.111s-5.637-1.543-4.453-3.3c3.32-.549,4.928-2.1,5.592-4.081a9.654,9.654,0,0,0,.337-3.793,19.928,19.928,0,0,0-.279-2.117l11.165-8.269C453.2,5806.548,451.41,5816.588,455.019,5820.544Z" fill="#fcc1bb"/>
        <path id="Trazado_102567" data-name="Trazado 102567" d="M452.084,5806.346c-.443,6.7-5.949,8.547-8.644,8.923a9.654,9.654,0,0,0,.337-3.793Z" fill="#d9a171" opacity="0.2" style="isolation: isolate"/>
        <g id="Grupo_58783" data-name="Grupo 58783">
          <path id="Trazado_102568" data-name="Trazado 102568" d="M453.374,5816.292,442.7,5821.1l-.625-3.858-3.924,1.38a3.226,3.226,0,0,0-2.138,3.378l.443,4.234,5.415-2.964,2.7,3.817,12.82-6.175Z" fill="#d9a171"/>
          <path id="Trazado_102569" data-name="Trazado 102569" d="M453.374,5816.292,442.7,5821.1l-.625-3.858-3.924,1.38a3.226,3.226,0,0,0-2.138,3.378l.443,4.234,5.415-2.964,2.7,3.817,12.82-6.175Z" fill="#fff" opacity="0.3" style="isolation: isolate"/>
        </g>
        <g id="Grupo_58785" data-name="Grupo 58785">
          <path id="Trazado_102570" data-name="Trazado 102570" d="M431.773,5785.582s-1.668,10.751,4.029,14.9,5.756-15.867,5.756-15.867Z" fill="#1a2e35"/>
          <path id="Trazado_102571" data-name="Trazado 102571" d="M452.349,5809.085a9.763,9.763,0,0,1-11.22,3.748,10.873,10.873,0,0,1-6.19-5.072,11.09,11.09,0,0,1-.513-1.034c-2.79-6.581-3.649-18.08,3.314-22.368a10.587,10.587,0,0,1,16.139,8.021C454.709,5800.067,455.56,5804.547,452.349,5809.085Z" fill="#fcc1bb"/>
          <path id="Trazado_102572" data-name="Trazado 102572" d="M442.664,5796.452c.147.608-.136,1.176-.548,1.245s-.818-.386-.925-1,.145-1.179.548-1.245S442.554,5795.825,442.664,5796.452Z" fill="#1a2e35"/>
          <path id="Trazado_102573" data-name="Trazado 102573" d="M435.646,5797.629c.147.608-.145,1.178-.548,1.244s-.817-.385-.925-1,.145-1.178.548-1.244S435.546,5797.04,435.646,5797.629Z" fill="#1a2e35"/>
          <path id="Trazado_102574" data-name="Trazado 102574" d="M437.927,5797.56a22.4,22.4,0,0,1-2.075,5.809,3.644,3.644,0,0,0,3.077.056Z" fill="#eb827e"/>
          <path id="Trazado_102575" data-name="Trazado 102575" d="M432.542,5795.067a.387.387,0,0,0,.38-.071,2.98,2.98,0,0,1,2.563-.745.367.367,0,1,0,.2-.708h0a3.665,3.665,0,0,0-3.245.9.369.369,0,0,0-.047.518l.006.006A.554.554,0,0,0,432.542,5795.067Z" fill="#1a2e35"/>
          <path id="Trazado_102576" data-name="Trazado 102576" d="M443.582,5793.413a.321.321,0,0,0,.073-.612l-.007,0a3.664,3.664,0,0,0-3.364-.285.367.367,0,0,0-.169.491h0a.376.376,0,0,0,.492.169h0a2.983,2.983,0,0,1,2.661.267A.373.373,0,0,0,443.582,5793.413Z" fill="#1a2e35"/>
          <path id="Trazado_102577" data-name="Trazado 102577" d="M446.69,5783.807l-.01,3.433a2.54,2.54,0,0,1,1.645,3.025c-.753,2.977,1.387,7.2,3.78,8.7,0,0-.079-1.241,1-1.073s1.552,6.624-.113,9.928c0,0,2.74-3.136,3.671-10.082.861-6.425.442-11.644-1.126-13.9Z" fill="#1a2e35"/>
          <path id="Trazado_102578" data-name="Trazado 102578" d="M458.257,5798.073a7.351,7.351,0,0,1-3.543,4.365c-2.276,1.214-3.968-.69-3.807-3.131.164-2.167,1.522-5.477,4.04-5.66S458.911,5795.773,458.257,5798.073Z" fill="#fcc1bb"/>
          <g id="Grupo_58784" data-name="Grupo 58784">
            <path id="Trazado_102579" data-name="Trazado 102579" d="M439.735,5805.312a20.243,20.243,0,0,1,1.43,2.564c.168-.044.335-.088.5-.142,2.25-.66,3.076-1.709,3.309-2.673a3.027,3.027,0,0,0-.033-1.431,2.926,2.926,0,0,0-.3-.764,11.058,11.058,0,0,1-4.146,2.209C440.035,5805.234,439.735,5805.312,439.735,5805.312Z" fill="#1a2e35"/>
            <path id="Trazado_102580" data-name="Trazado 102580" d="M440.5,5805.075l.441.745c2.118-.627,3.525-1.353,4-2.19a2.926,2.926,0,0,0-.3-.764A11.058,11.058,0,0,1,440.5,5805.075Z" fill="#fff"/>
            <path id="Trazado_102581" data-name="Trazado 102581" d="M441.664,5807.734c2.25-.66,3.076-1.709,3.309-2.673a7.562,7.562,0,0,0-2.353,1.228A2.824,2.824,0,0,0,441.664,5807.734Z" fill="#fd5652"/>
          </g>
          <path id="Trazado_102582" data-name="Trazado 102582" d="M455.019,5785.427s3.693-4.5-5.163-7.26-21.8,5.464-19.165,8.712,11.7,1.887,11.7,1.887a6.867,6.867,0,0,1-3.461-1.452S452.053,5788.185,455.019,5785.427Z" fill="#1a2e35"/>
        </g>
        <path id="Trazado_102583" data-name="Trazado 102583" d="M470.82,5823.239c5.6,1.9,9.445,36.779,9.376,39.809s-8.66,4.337-9.373-1.979-3.67-19.818-3.67-19.818-.779-6.1,0-9.8S470.82,5823.239,470.82,5823.239Z" fill="#d9a171"/>
        <path id="Trazado_102584" data-name="Trazado 102584" d="M470.82,5823.239c5.6,1.9,9.445,36.779,9.376,39.809s-8.66,4.337-9.373-1.979-3.67-19.818-3.67-19.818-.779-6.1,0-9.8S470.82,5823.239,470.82,5823.239Z" fill="#fff" opacity="0.2" style="isolation: isolate"/>
      </g>
      <g id="Grupo_58796" data-name="Grupo 58796">
        <rect id="Rectángulo_5454" data-name="Rectángulo 5454" width="196.898" height="136.966" transform="matrix(0.994, 0.108, -0.108, 0.994, 319.182, 5840.955)" fill="#d9a171"/>
        <rect id="Rectángulo_5455" data-name="Rectángulo 5455" width="196.898" height="136.966" transform="matrix(0.994, 0.108, -0.108, 0.994, 319.182, 5840.955)" fill="#fff" opacity="0.6" style="isolation: isolate"/>
        <rect id="Rectángulo_5456" data-name="Rectángulo 5456" width="127.675" height="186.872" transform="translate(509.455 5866.213) rotate(96.175)" fill="none" stroke="#6595bf" stroke-miterlimit="10" stroke-width="1"/>
        <path id="Trazado_102585" data-name="Trazado 102585" d="M510.959,5874.133l1.071-9.9-9.9-1.071-.417,3.851-170.665-18.465.417-3.851-9.9-1.071-1.071,9.9,3.956.428-12.075,111.6-3.956-.428-1.071,9.9,9.9,1.07.417-3.851,170.665,18.465-.417,3.851,9.9,1.071,1.071-9.9-3.956-.428L507,5873.7Z" fill="none" stroke="#6595bf" stroke-miterlimit="10" stroke-width="1"/>
        <g id="Grupo_58786" data-name="Grupo 58786">
          <g id="Rectángulo_5457" data-name="Rectángulo 5457" transform="translate(325.923 5849.062) rotate(6.173)" fill="none" stroke="#6595bf" stroke-miterlimit="10" stroke-width="1">
            <rect width="2.287" height="2.287" stroke="none"/>
            <rect x="-0.5" y="-0.5" width="3.287" height="3.287" fill="none"/>
          </g>
          <g id="Rectángulo_5458" data-name="Rectángulo 5458" transform="matrix(0.994, 0.108, -0.108, 0.994, 313.014, 5968.375)" fill="none" stroke="#6595bf" stroke-miterlimit="10" stroke-width="1">
            <rect width="2.287" height="2.287" stroke="none"/>
            <rect x="-0.5" y="-0.5" width="3.287" height="3.287" fill="none"/>
          </g>
          <g id="Rectángulo_5459" data-name="Rectángulo 5459" transform="matrix(0.994, 0.108, -0.108, 0.994, 504.345, 5868.366)" fill="none" stroke="#6595bf" stroke-miterlimit="10" stroke-width="1">
            <rect width="2.287" height="2.287" stroke="none"/>
            <rect x="-0.5" y="-0.5" width="3.287" height="3.287" fill="none"/>
          </g>
          <g id="Rectángulo_5460" data-name="Rectángulo 5460" transform="translate(491.437 5987.679) rotate(6.173)" fill="none" stroke="#6595bf" stroke-miterlimit="10" stroke-width="1">
            <rect width="2.287" height="2.287" stroke="none"/>
            <rect x="-0.5" y="-0.5" width="3.287" height="3.287" fill="none"/>
          </g>
        </g>
        <path id="Trazado_102586" data-name="Trazado 102586" d="M456.785,5912.209l-91.506-9.9a3.895,3.895,0,0,0-.838,7.744l91.506,9.9a3.895,3.895,0,0,0,.838-7.744Z" fill="#fff" opacity="0.6" style="isolation: isolate"/>
        <g id="Grupo_58787" data-name="Grupo 58787">
          <line id="Línea_235" data-name="Línea 235" x1="139.678" y1="15.112" transform="translate(339.355 5916.689)" fill="none" stroke="#6595bf" stroke-linecap="round" stroke-linejoin="round" stroke-width="1"/>
          <line id="Línea_236" data-name="Línea 236" x1="128.732" y1="13.928" transform="translate(350.755 5913.683)" fill="none" stroke="#6595bf" stroke-linecap="round" stroke-linejoin="round" stroke-width="1"/>
          <line id="Línea_237" data-name="Línea 237" x1="84.947" y1="9.191" transform="translate(338.882 5921.068)" fill="none" stroke="#6595bf" stroke-linecap="round" stroke-linejoin="round" stroke-width="1"/>
        </g>
        <g id="Grupo_58788" data-name="Grupo 58788">
          <line id="Línea_238" data-name="Línea 238" x2="128.732" y2="13.928" transform="translate(353.952 5884.128)" fill="none" stroke="#6595bf" stroke-linecap="round" stroke-linejoin="round" stroke-width="1"/>
          <line id="Línea_239" data-name="Línea 239" x2="139.678" y2="15.112" transform="translate(342.553 5887.135)" fill="none" stroke="#6595bf" stroke-linecap="round" stroke-linejoin="round" stroke-width="1"/>
          <line id="Línea_240" data-name="Línea 240" x2="63.055" y2="6.822" transform="translate(341.605 5895.892)" fill="none" stroke="#6595bf" stroke-linecap="round" stroke-linejoin="round" stroke-width="1"/>
          <line id="Línea_241" data-name="Línea 241" x2="139.678" y2="15.112" transform="translate(342.079 5891.514)" fill="none" stroke="#6595bf" stroke-linecap="round" stroke-linejoin="round" stroke-width="1"/>
        </g>
        <g id="Grupo_58791" data-name="Grupo 58791">
          <g id="Grupo_58789" data-name="Grupo 58789">
            <path id="Trazado_102587" data-name="Trazado 102587" d="M464.132,5978.546l-5.773-3.947-6.484,2.621,2.244-20.738,12.257,1.326Z" fill="#d9a171"/>
            <path id="Trazado_102588" data-name="Trazado 102588" d="M464.132,5978.546l-5.773-3.947-6.484,2.621,2.244-20.738,12.257,1.326Z" fill="#d9a171" opacity="0.2" style="isolation: isolate"/>
          </g>
          <path id="Trazado_102589" data-name="Trazado 102589" d="M461.966,5941.255l2.026-1.176,1.28,1.962,2.255-.635.752,2.219,2.342-.055.176,2.336,2.282.53-.41,2.307,2.079,1.08-.971,2.132,1.745,1.563-1.471,1.824,1.3,1.948-1.878,1.4.776,2.21-2.167.89.2,2.334-2.32.322-.385,2.311-2.328-.265-.948,2.143-2.189-.835-1.451,1.839-1.912-1.353-1.863,1.421-1.516-1.787-2.158.913-1.024-2.107-2.317.348-.467-2.3-2.331-.239.118-2.339-2.2-.812.7-2.237-1.927-1.333,1.231-1.994-1.535-1.77,1.688-1.625-1.047-2.1,2.039-1.154-.493-2.29,2.262-.611.092-2.341,2.343-.029.672-2.245,2.276.555,1.209-2.007,2.067,1.1,1.67-1.644Z" fill="#d9a171"/>
          <path id="Trazado_102590" data-name="Trazado 102590" d="M461.671,5943.983l1.618-.939,1.022,1.567,1.8-.507.6,1.771,1.87-.043.141,1.865,1.822.423-.328,1.842,1.66.863-.775,1.7,1.393,1.249-1.174,1.456,1.039,1.556-1.5,1.118.619,1.765-1.731.71.161,1.864-1.853.257-.307,1.845-1.859-.211-.757,1.711-1.748-.667-1.158,1.469-1.527-1.081-1.487,1.134-1.21-1.426-1.723.729-.818-1.683-1.85.278-.373-1.833-1.861-.191.094-1.869-1.755-.647.556-1.787-1.539-1.063.983-1.592-1.226-1.414,1.348-1.3-.836-1.673,1.628-.921-.393-1.829,1.806-.488.074-1.869,1.871-.023.536-1.792,1.818.443.965-1.6,1.65.881,1.333-1.312Z" fill="#fff" opacity="0.2" style="isolation: isolate"/>
          <g id="Grupo_58790" data-name="Grupo 58790">
            <path id="Trazado_102591" data-name="Trazado 102591" d="M460.511,5955.695l1.394.15-.1.939-1.507-.163-.406,1.732-.94-.1.407-1.732-1.745-.188-.407,1.731-.939-.1.407-1.732-1.394-.151.1-.938,1.507.163.436-1.812-1.393-.151.1-.94,1.506.163.407-1.73.939.1-.406,1.731,1.734.188.406-1.731.94.1-.407,1.73,1.384.15-.092.941-1.507-.163Zm-.939-.1.426-1.813-1.735-.188-.436,1.812Z" fill="#d9a171"/>
            <path id="Trazado_102592" data-name="Trazado 102592" d="M465.919,5951.695l-.782,7.225-1.341-.145.66-6.1-1.528-.166.122-1.124Z" fill="#d9a171"/>
          </g>
        </g>
        <g id="Grupo_58792" data-name="Grupo 58792">
          <path id="Trazado_102593" data-name="Trazado 102593" d="M349.77,5934.118h0a1.067,1.067,0,0,1,1.431.34h0a1.067,1.067,0,0,0,1.184.444h0a1.069,1.069,0,0,1,1.3.686h0a1.067,1.067,0,0,0,1.036.725h0a1.067,1.067,0,0,1,1.09.987h0a1.067,1.067,0,0,0,.824.96h0a1.07,1.07,0,0,1,.81,1.228h0a1.066,1.066,0,0,0,.559,1.134h0a1.068,1.068,0,0,1,.479,1.391h0a1.067,1.067,0,0,0,.259,1.238h0a1.067,1.067,0,0,1,.119,1.465h0a1.07,1.07,0,0,0-.057,1.264h0a1.067,1.067,0,0,1-.25,1.449h0a1.069,1.069,0,0,0-.369,1.21h0a1.069,1.069,0,0,1-.6,1.342h0a1.069,1.069,0,0,0-.659,1.08h0a1.067,1.067,0,0,1-.917,1.149h0a1.068,1.068,0,0,0-.906.883h0a1.068,1.068,0,0,1-1.174.885h0a1.07,1.07,0,0,0-1.1.629h0a1.067,1.067,0,0,1-1.357.566h0a1.07,1.07,0,0,0-1.22.337h0a1.068,1.068,0,0,1-1.455.21h0a1.067,1.067,0,0,0-1.265.023h0a1.068,1.068,0,0,1-1.462-.159h0a1.067,1.067,0,0,0-1.23-.292h0a1.068,1.068,0,0,1-1.377-.517h0a1.067,1.067,0,0,0-1.119-.589h0a1.069,1.069,0,0,1-1.205-.843h0a1.069,1.069,0,0,0-.938-.85h0a1.067,1.067,0,0,1-.957-1.116h0a1.07,1.07,0,0,0-.7-1.056h0a1.067,1.067,0,0,1-.65-1.319h0a1.068,1.068,0,0,0-.412-1.2h0a1.068,1.068,0,0,1-.3-1.439h0a1.068,1.068,0,0,0-.1-1.261h0a1.068,1.068,0,0,1,.066-1.469h0a1.067,1.067,0,0,0,.215-1.247h0a1.068,1.068,0,0,1,.429-1.406h0a1.066,1.066,0,0,0,.518-1.154h0a1.069,1.069,0,0,1,.766-1.256h0a1.068,1.068,0,0,0,.789-.989h0a1.067,1.067,0,0,1,1.054-1.025h0a1.069,1.069,0,0,0,1.01-.762h0a1.067,1.067,0,0,1,1.275-.731h0a1.07,1.07,0,0,0,1.168-.487h0a1.067,1.067,0,0,1,1.418-.391h0a1.068,1.068,0,0,0,1.252-.181h0a1.067,1.067,0,0,1,1.47-.026h0A1.069,1.069,0,0,0,349.77,5934.118Z" fill="#d9a171"/>
          <circle id="Elipse_4013" data-name="Elipse 4013" cx="9.219" cy="9.219" r="9.219" transform="translate(338.749 5935.68)" fill="#fff" opacity="0.2" style="isolation: isolate"/>
          <path id="Trazado_102594" data-name="Trazado 102594" d="M348.463,5940.321l1.161,3.175,3.274.843-2.66,2.085.21,3.375-2.806-1.886-3.144,1.242.927-3.251-2.153-2.606,3.378-.124Z" fill="#d9a171"/>
        </g>
        <g id="Grupo_58794" data-name="Grupo 58794">
          <circle id="Elipse_4014" data-name="Elipse 4014" cx="11.191" cy="11.191" r="11.191" transform="matrix(0.779, -0.627, 0.627, 0.779, 366.055, 5946.856)" fill="#d9a171"/>
          <path id="Trazado_102595" data-name="Trazado 102595" d="M390.18,5949.466a8.44,8.44,0,1,1-7.483-9.3A8.44,8.44,0,0,1,390.18,5949.466Z" fill="#fff" opacity="0.2" style="isolation: isolate"/>
          <g id="Grupo_58793" data-name="Grupo 58793" opacity="0.2" style="isolation: isolate">
            <path id="Trazado_102596" data-name="Trazado 102596" d="M380.747,5958.194a9.692,9.692,0,1,1,10.678-8.593A9.7,9.7,0,0,1,380.747,5958.194Zm2.021-18.684a9.1,9.1,0,1,0,8.07,10.028A9.112,9.112,0,0,0,382.768,5939.51Z" fill="#fff"/>
          </g>
          <path id="Trazado_102597" data-name="Trazado 102597" d="M383.567,5948.945l-1.41-3.792-2.187,3.4-3.508-3.71.844,6.673,2.089.226,1.818.2.415.045,1.818.2,2.089.226,2.252-6.338Z" fill="#d9a171"/>
        </g>
        <g id="Grupo_58795" data-name="Grupo 58795">
          <path id="Trazado_102598" data-name="Trazado 102598" d="M381.62,5862.78l-3.017-.326-.906,8.374-1.231-.133.906-8.375-3.011-.325.11-1.013,7.259.786Z" fill="#344154"/>
          <path id="Trazado_102599" data-name="Trazado 102599" d="M384.3,5861.531l1.444.156-1.932,1.708-.961-.107Zm-1.083,9.894-1.2-.13.754-6.975,1.2.13Z" fill="#344154"/>
          <path id="Trazado_102600" data-name="Trazado 102600" d="M387.738,5863.148l-.183,1.689,1.3.141-.1.922-1.3-.141-.468,4.332a.974.974,0,0,0,.105.648.743.743,0,0,0,.571.274,2.98,2.98,0,0,0,.576-.016l-.1.961a3.485,3.485,0,0,1-.93.029,1.489,1.489,0,0,1-1.153-.614,2.089,2.089,0,0,1-.258-1.417l.469-4.326-1.271-.137.1-.922,1.27.137.183-1.689Z" fill="#344154"/>
          <path id="Trazado_102601" data-name="Trazado 102601" d="M393.876,5871.881a2.549,2.549,0,0,1-2.132.6,2.179,2.179,0,0,1-1.629-.831,2.824,2.824,0,0,1-.382-1.982l.491-4.539,1.193.129-.488,4.507q-.171,1.585,1.118,1.725a1.794,1.794,0,0,0,1.928-.822l.549-5.074,1.193.129-.755,6.976-1.135-.123Z" fill="#344154"/>
          <path id="Trazado_102602" data-name="Trazado 102602" d="M398.069,5873.032l-1.192-.129,1.071-9.9,1.193.129Z" fill="#344154"/>
          <path id="Trazado_102603" data-name="Trazado 102603" d="M400.046,5869.652a4.157,4.157,0,0,1,.6-1.8,3.029,3.029,0,0,1,1.259-1.142,3.073,3.073,0,0,1,1.689-.268,2.96,2.96,0,0,1,2.2,1.236,3.82,3.82,0,0,1,.6,2.719l-.009.084a4.2,4.2,0,0,1-.588,1.786,2.972,2.972,0,0,1-1.252,1.139,3.1,3.1,0,0,1-1.715.271,2.949,2.949,0,0,1-2.192-1.235,3.8,3.8,0,0,1-.6-2.706Zm1.184.272a3,3,0,0,0,.336,1.921,1.835,1.835,0,0,0,2.886.3,3.275,3.275,0,0,0,.751-1.938,3,3,0,0,0-.343-1.919,1.745,1.745,0,0,0-1.37-.869,1.726,1.726,0,0,0-1.5.549A3.249,3.249,0,0,0,401.23,5869.924Z" fill="#344154"/>
          <path id="Trazado_102604" data-name="Trazado 102604" d="M410.87,5870.83a4.1,4.1,0,0,1,1.04-2.5,2.6,2.6,0,0,1,3.947.287l.394-3.636,1.192.129-1.071,9.9-1.1-.118.023-.754a2.443,2.443,0,0,1-2.087.661,2.4,2.4,0,0,1-1.869-1.207,4.158,4.158,0,0,1-.483-2.674Zm1.178.264a3.1,3.1,0,0,0,.289,1.91,1.592,1.592,0,0,0,1.281.817,1.75,1.75,0,0,0,1.767-.839l.347-3.205a1.765,1.765,0,0,0-1.538-1.164,1.6,1.6,0,0,0-1.44.529A3.425,3.425,0,0,0,412.048,5871.094Z" fill="#344154"/>
          <path id="Trazado_102605" data-name="Trazado 102605" d="M421.1,5875.655a3.065,3.065,0,0,1-2.207-1.182,3.475,3.475,0,0,1-.62-2.588l.023-.219a4.212,4.212,0,0,1,.6-1.81,3.111,3.111,0,0,1,1.247-1.157,2.805,2.805,0,0,1,1.594-.294,2.628,2.628,0,0,1,2.018,1.125,3.9,3.9,0,0,1,.476,2.648l-.053.5-4.726-.511a2.5,2.5,0,0,0,.423,1.732,1.9,1.9,0,0,0,1.4.793,2.088,2.088,0,0,0,1.1-.142,2.7,2.7,0,0,0,.841-.6l.667.646A2.948,2.948,0,0,1,421.1,5875.655Zm.528-6.27a1.606,1.606,0,0,0-1.269.394,2.579,2.579,0,0,0-.765,1.408l3.494.378.01-.09a2.288,2.288,0,0,0-.338-1.462A1.5,1.5,0,0,0,421.631,5869.385Z" fill="#344154"/>
          <path id="Trazado_102606" data-name="Trazado 102606" d="M430.962,5874.954l2.307-5.171,1.219.132-3.256,6.705-.909-.1-1.773-7.249,1.219.132Z" fill="#344154"/>
          <path id="Trazado_102607" data-name="Trazado 102607" d="M439.091,5877.47a2.514,2.514,0,0,1-.089-.753,2.672,2.672,0,0,1-2.079.649,2.48,2.48,0,0,1-1.629-.766,1.9,1.9,0,0,1-.5-1.551,1.984,1.984,0,0,1,1.012-1.6,3.924,3.924,0,0,1,2.4-.35l1.16.125.059-.548a1.339,1.339,0,0,0-.266-1.036,1.5,1.5,0,0,0-1.062-.49,1.748,1.748,0,0,0-1.105.206.955.955,0,0,0-.516.734l-1.2-.13a1.654,1.654,0,0,1,.479-.969,2.56,2.56,0,0,1,1.089-.662,3.413,3.413,0,0,1,1.427-.132,2.775,2.775,0,0,1,1.824.807,2.187,2.187,0,0,1,.529,1.737l-.347,3.21a3.945,3.945,0,0,0,.079,1.555l-.011.1Zm-1.881-1.123a2.1,2.1,0,0,0,1.1-.175,1.764,1.764,0,0,0,.81-.675l.155-1.431-.935-.1q-2.191-.237-2.331,1.046a1.094,1.094,0,0,0,.279.917A1.444,1.444,0,0,0,437.21,5876.347Z" fill="#344154"/>
          <path id="Trazado_102608" data-name="Trazado 102608" d="M443.262,5877.922l-1.193-.129,1.071-9.9,1.193.129Z" fill="#344154"/>
          <path id="Trazado_102609" data-name="Trazado 102609" d="M445.238,5874.542a4.131,4.131,0,0,1,.6-1.8,3.023,3.023,0,0,1,1.258-1.143,3.084,3.084,0,0,1,1.689-.267,2.96,2.96,0,0,1,2.2,1.236,3.815,3.815,0,0,1,.6,2.719l-.009.084a4.161,4.161,0,0,1-.588,1.785,2.98,2.98,0,0,1-1.251,1.14,3.113,3.113,0,0,1-1.716.271,2.949,2.949,0,0,1-2.191-1.235,3.8,3.8,0,0,1-.6-2.706Zm1.184.271a3,3,0,0,0,.337,1.922,1.836,1.836,0,0,0,2.886.3,3.285,3.285,0,0,0,.751-1.937,2.993,2.993,0,0,0-.344-1.919,1.74,1.74,0,0,0-1.37-.869,1.722,1.722,0,0,0-1.5.549A3.264,3.264,0,0,0,446.422,5874.813Z" fill="#344154"/>
          <path id="Trazado_102610" data-name="Trazado 102610" d="M456.711,5873.4a3.736,3.736,0,0,0-.582-.108,1.581,1.581,0,0,0-1.7.827l-.535,4.951-1.193-.129.755-6.976,1.16.126-.068.808a1.868,1.868,0,0,1,1.765-.755,1.221,1.221,0,0,1,.518.147Z" fill="#344154"/>
        </g>
      </g>
      <path id="Trazado_102611" data-name="Trazado 102611" d="M387.28,5850.853l2.468-2.263,2.024.219.372-2.875-3.618-.835s-5.039-.686-6.781-.7c-.726,0-1.579,0-3.612,4.471C377.773,5849.667,387.28,5850.853,387.28,5850.853Z" fill="#fcc1bb"/>
      <path id="Trazado_102612" data-name="Trazado 102612" d="M468.9,5857.154a16.438,16.438,0,0,1,1.915-3.2c.669-.58,6.772.763,7.783,1.6s.539,2.706.539,2.706-1.7,2.663-2.862,2.518-7.056-.436-7.375-.871S468.9,5857.154,468.9,5857.154Z" fill="#fcc1bb"/>
    </g>
  </g>
</svg>
