<svg xmlns="http://www.w3.org/2000/svg" width="374.5" height="261.968" viewBox="0 0 374.5 261.968">
  <g id="Grupo_66530" data-name="Grupo 66530" transform="translate(-208.5 -420.397)">
    <g id="Grupo_66111" data-name="Grupo 66111" transform="translate(-244.123 -3879.396)">
      <g id="freepik--background-complete--inject-28" transform="translate(452.623 4386.182)">
        <rect id="Rectángulo_5965" data-name="Rectángulo 5965" width="66.004" height="122.755" transform="translate(3.199 3.388)" fill="#aed3f2"/>
        <rect id="Rectángulo_5966" data-name="Rectángulo 5966" width="72.396" height="3.388" transform="translate(0 0)" fill="#839eb6"/>
        <rect id="Rectángulo_5967" data-name="Rectángulo 5967" width="22.766" height="3.388" transform="translate(72.396 0)" fill="#ebebeb"/>
        <rect id="Rectángulo_5968" data-name="Rectángulo 5968" width="22.361" height="122.755" transform="translate(69.204 3.388)" fill="#dbdbdb"/>
        <path id="Trazado_105381" data-name="Trazado 105381" d="M519.679,4481.376h-51.8v-29.313h51.8Zm-51.628-.168h51.459v-28.976H468.052Z" transform="translate(-457.583 -4435.675)" fill="#6595bf"/>
        <rect id="Rectángulo_5969" data-name="Rectángulo 5969" width="10.084" height="5.798" transform="translate(28.969 24.946)" fill="#6595bf"/>
        <path id="Trazado_105382" data-name="Trazado 105382" d="M510.1,4470.353H499.883v-5.089h10.246Zm-10.077-.169h9.908v-4.724h-9.908Z" transform="translate(-467.984 -4439.966)" fill="#c7c7c7"/>
        <path id="Trazado_105383" data-name="Trazado 105383" d="M519.679,4535.823h-51.8v-29.28h51.8Zm-51.628-.169h51.459v-28.942H468.052Z" transform="translate(-457.583 -4453.383)" fill="#6595bf"/>
        <rect id="Rectángulo_5970" data-name="Rectángulo 5970" width="10.084" height="5.798" transform="translate(28.969 61.718)" fill="#6595bf"/>
        <path id="Trazado_105384" data-name="Trazado 105384" d="M510.1,4524.838H499.883v-5.1h10.246Zm-10.077-.168h9.908v-4.759h-9.908Z" transform="translate(-467.984 -4457.673)" fill="#c7c7c7"/>
        <path id="Trazado_105385" data-name="Trazado 105385" d="M519.679,4590.3h-51.8v-29.279h51.8Zm-51.628-.168h51.459v-28.942H468.052Z" transform="translate(-457.583 -4471.092)" fill="#6595bf"/>
        <rect id="Rectángulo_5971" data-name="Rectángulo 5971" width="10.084" height="5.798" transform="translate(28.969 98.49)" fill="#c7c7c7"/>
        <path id="Trazado_105386" data-name="Trazado 105386" d="M510.1,4579.322H499.883v-5.089h10.246Zm-10.077-.188h9.908v-4.725h-9.908Z" transform="translate(-467.984 -4475.385)" fill="#6595bf"/>
        <rect id="Rectángulo_5972" data-name="Rectángulo 5972" width="10.084" height="5.798" transform="translate(341.26 60.719)" fill="#c7c7c7"/>
        <path id="Trazado_105387" data-name="Trazado 105387" d="M972.759,4523.358H962.513v-5.1h10.246Zm-10.077-.168h9.908v-4.772h-9.908Z" transform="translate(-618.358 -4457.193)" fill="#c7c7c7"/>
      </g>
      <g id="freepik--Character--inject-28" transform="translate(488.567 4317.092)">
        <path id="Trazado_105388" data-name="Trazado 105388" d="M609.578,4662.148c-1.573.513-46.376-.067-48.064-1.174-.675-.412-.952-6.946-1.08-14.85v-.25c-.034-1.626-.054-3.308-.054-5v-.675c-.068-11.407.115-23.246.115-23.246l29.968.3-.9,23.016-.034.911-.182,4.765v.493s17.049,7.891,18.784,9.3S611.164,4661.649,609.578,4662.148Z" transform="translate(-523.588 -4420.181)" fill="#d9a171"/>
        <path id="Trazado_105389" data-name="Trazado 105389" d="M613.239,4665.1c-.115-.034-.175-.074-.182-.108Z" transform="translate(-540.715 -4435.796)" fill="#d9a171"/>
        <path id="Trazado_105390" data-name="Trazado 105390" d="M609.627,4677.438c-1.566.506-46.37-.067-48.064-1.181-.574-.358-.877-5.562-1.026-12.264,8.208,1.714,40.025,8.146,40.9,5.4.344-1.066-2.376-2.916-4.1-3.962,4.725,2.241,9.908,4.806,10.8,5.562C609.87,4672.43,611.22,4676.938,609.627,4677.438Z" transform="translate(-523.644 -4435.471)" fill="#d9a171"/>
        <path id="Trazado_105391" data-name="Trazado 105391" d="M581.538,4677.371c-10.084-.243-19.176-.621-19.925-1.114-.574-.358-.877-5.562-1.026-12.264,1.168.236,2.808.581,4.772.972Z" transform="translate(-523.66 -4435.471)" opacity="0.1" style="isolation: isolate"/>
        <path id="Trazado_105392" data-name="Trazado 105392" d="M546.927,4425.7s6.75,75.71,7.823,81.488c.25,1.315.412,8.471.513,17.664.229,20.073.094,56.264.094,56.264h31.581s-.938-62.71-2.335-74.245-10.334-81.164-10.334-81.164Z" transform="translate(-519.22 -4358.018)" fill="#5e6178"/>
        <path id="Trazado_105393" data-name="Trazado 105393" d="M590.126,4647.705c-4.927-.1-3.51-.142-8.437-.188-2.41,0-18.264-.163-20.519.209-.047,0-.047.094,0,.1,2.254.371,18.109.236,20.519.209,4.927-.047,3.51-.088,8.437-.189a.075.075,0,0,0,.049-.093A.077.077,0,0,0,590.126,4647.705Z" transform="translate(-523.838 -4430.104)" fill="#344154"/>
        <path id="Trazado_105394" data-name="Trazado 105394" d="M563.269,4541.472l-.1-13.742c-.034-4.435,0-8.876-.236-13.311-.432-8.97-2.254-17.8-3.543-26.668s-2.376-17.792-3.375-26.708c-1.1-10-2.072-20.026-3.1-30.036,0-.067-.115-.067-.108,0,1.492,17.879,3.152,35.773,5.622,53.524q.931,6.628,2.025,13.236c.742,4.455,1.471,8.917,1.822,13.425s.4,8.835.445,13.263l.142,13.729c.094,10.171.2,25.824.29,35.989a.155.155,0,0,0,.31,0C563.4,4565.1,563.336,4550.543,563.269,4541.472Z" transform="translate(-521.131 -4359.726)" fill="#344154"/>
        <path id="Trazado_105395" data-name="Trazado 105395" d="M537.057,4425.7s13.384,75.71,14.485,81.488c.25,1.315.412,8.471.513,17.664h0L567.14,4425.7Z" transform="translate(-516.012 -4358.018)" fill="#344154"/>
        <path id="Trazado_105396" data-name="Trazado 105396" d="M555.695,4664.5c-1.6.4-46.255-3.375-47.861-4.583-.614-.452-.452-6.993,0-14.849v-.25c.088-1.627.182-3.3.3-4.995a3.637,3.637,0,0,1,.04-.675c.742-11.379,1.762-23.178,1.762-23.178l29.867,2.376-2.545,22.888-.095.911-.52,4.725-.061.5s16.449,9.078,18.075,10.61S557.3,4664.118,555.695,4664.5Z" transform="translate(-506.382 -4419.863)" fill="#d9a171"/>
        <path id="Trazado_105397" data-name="Trazado 105397" d="M555.693,4680.114c-1.606.4-46.248-3.375-47.861-4.582-.526-.385-.486-5.218-.189-11.529,6.912,1.769,40.241,10.124,41.267,7.424.209-.587-.5-1.451-1.458-2.295a81,81,0,0,1,7.236,4.489C556.294,4675.133,557.293,4679.723,555.693,4680.114Z" transform="translate(-506.38 -4435.475)" fill="#d9a171"/>
        <path id="Trazado_105398" data-name="Trazado 105398" d="M537.431,4582.807l-31.554-1.35s8.613-69.237,8.775-73.5c.236-6.324,3.267-32.439,5.818-53.578,0,0-4.833-11.475,4.212-28.74H560.94s-2.43,16.456-6.594,26.891a48.084,48.084,0,0,0-8.059,3.679s-3.611,47.139-3.746,53.018C542.291,4520.866,537.431,4582.807,537.431,4582.807Z" transform="translate(-505.877 -4357.998)" fill="#5e6178"/>
        <path id="Trazado_105399" data-name="Trazado 105399" d="M537.447,4649.311c-4.914-.311-3.5-.29-8.423-.547-2.41-.128-18.224-.931-20.505-.674-.047,0-.054.088,0,.094,2.234.473,18.075,1.006,20.485,1.086,4.927.163,3.51.061,8.444.163C537.535,4649.459,537.542,4649.317,537.447,4649.311Z" transform="translate(-506.723 -4430.286)" fill="#344154"/>
        <path id="Trazado_105400" data-name="Trazado 105400" d="M529.652,4427.907a47.451,47.451,0,0,0-4.266,12.75,34.234,34.234,0,0,0,1.559,14.121s-.263,3.732-.547,6.115-.56,4.792-.837,7.188q-.83,7.262-1.674,14.525-1.66,14.443-3.314,28.909T517.3,4540.43c-1.073,9.611-2.221,19.216-3.172,28.841-.121,1.2-.236,2.4-.351,3.6a.1.1,0,0,0,.209,0c1.282-9.6,2.376-19.23,3.523-28.854s2.248-19.163,3.375-28.747,2.234-19.263,3.341-28.9c1.093-9.5,2.322-18.993,3.26-28.5a21.722,21.722,0,0,0,.081-3.314s-2.025-6.75-1.775-11.123a37.429,37.429,0,0,1,2.977-12.244c.405-1.053.83-2.106,1.235-3.152C530.084,4427.846,529.747,4427.711,529.652,4427.907Z" transform="translate(-508.445 -4358.703)" fill="#344154"/>
        <path id="Trazado_105401" data-name="Trazado 105401" d="M575.171,4464.491a59.591,59.591,0,0,0-9.449,4.394.108.108,0,0,0,.088.2c3.179-1.35,6.419-2.7,9.524-4.212a.209.209,0,0,0-.162-.377Z" transform="translate(-525.312 -4370.623)" fill="#344154"/>
        <path id="Trazado_105402" data-name="Trazado 105402" d="M572.669,4448.638c.31-1.9.567-3.8.729-5.71a52.011,52.011,0,0,0-.115-10.705.095.095,0,0,0-.182,0,99.205,99.205,0,0,1-.864,14.782c-.358,2.355-1.546,5.9.918,6.257s4.131-5.562,4.434-7.188a54.054,54.054,0,0,0,.533-14.005c0-.115-.2-.135-.2,0a105.786,105.786,0,0,1-.533,10.624c-.148,1.641-1.465,10.691-4.306,10.03-.472-.115-.716-.58-.79-1.3a11.518,11.518,0,0,1,.378-2.774" transform="translate(-527.251 -4360.056)" fill="#344154"/>
        <path id="Trazado_105403" data-name="Trazado 105403" d="M573.445,4462.95a15.37,15.37,0,0,0-.675,1.876,4.183,4.183,0,0,0-.263,1.539c0,.1.142.115.2.047a5.43,5.43,0,0,0,.675-1.5c.216-.581.445-1.154.675-1.741a.322.322,0,1,0-.607-.216Z" transform="translate(-527.534 -4370.054)" fill="#344154"/>
        <path id="Trazado_105404" data-name="Trazado 105404" d="M549.216,4327.364c-5.872,5.035-4.239,12.379-6.689,16.368-1.505,2.436-6.392,5.007-7.364,7.816-1.593,4.61,2.315,6.27,1.438,8.774-1.235,3.557-5.994,3.28-6.851,9.092s5.541,11.994,20.715,13.668,23.516-3.881,24.056-8.815-4.5-6.575-4.846-10.253c-.216-2.356,2.9-3.989,3.057-8.322s-4.05-5.737-4.671-9.416,1.35-12.615-4.05-17.178S552.139,4324.874,549.216,4327.364Z" transform="translate(-513.612 -4325.467)" fill="#344154"/>
        <path id="Trazado_105405" data-name="Trazado 105405" d="M549.32,4328.419a12.551,12.551,0,0,0-3.9,4.5,27.482,27.482,0,0,0-2.167,5.967,16.643,16.643,0,0,1-1.181,3.57,8.9,8.9,0,0,1-2.025,2.511c-1.64,1.485-3.6,2.612-5.076,4.286s-2.477,3.692-1.924,5.846a22.128,22.128,0,0,0,1.559,3.22,2.718,2.718,0,0,1-.257,3.186,20.9,20.9,0,0,1-2.7,1.674,9.539,9.539,0,0,0-2.214,2.146,7.424,7.424,0,0,0-1.4,5.838c.9,4.725,5.325,7.424,9.449,9.092l1.714.675c.088.033.162-.095.074-.135-4.1-1.836-8.869-3.989-10.442-8.579a6.913,6.913,0,0,1,.675-6.074,8.729,8.729,0,0,1,2.173-2.282c.823-.614,1.775-.985,2.619-1.566a2.787,2.787,0,0,0,1.289-2.491,6.82,6.82,0,0,0-1.12-2.99,5.613,5.613,0,0,1-.965-3.179,6.12,6.12,0,0,1,1.215-3.037c1.276-1.809,3.166-2.99,4.86-4.36a10.3,10.3,0,0,0,3.7-5.11c.31-1.086.506-2.2.776-3.293a28.975,28.975,0,0,1,.911-3,14.315,14.315,0,0,1,3.206-5.292,8.483,8.483,0,0,1,1.255-1.025A.08.08,0,0,0,549.32,4328.419Z" transform="translate(-513.041 -4326.394)" fill="#344154"/>
        <path id="Trazado_105406" data-name="Trazado 105406" d="M592.386,4373.428a5.734,5.734,0,0,0-1.026-2.207,25.206,25.206,0,0,0-1.755-1.85,4.344,4.344,0,0,1-1.242-2.024,4.13,4.13,0,0,1,.675-2.7,21.628,21.628,0,0,0,1.35-2.646,9.434,9.434,0,0,0,.574-2.828,9.7,9.7,0,0,0-1.525-5.643c-.52-.851-1.1-1.653-1.62-2.5a12.078,12.078,0,0,1-1.35-2.95c-.675-2.281-.83-4.725-1.39-7.006a35.587,35.587,0,0,0-2.491-6.945c0-.054-.108,0-.081.047a31.714,31.714,0,0,1,2.16,6.216c.479,2.025.675,4.1,1.026,6.156a15.423,15.423,0,0,0,.77,2.957,15.926,15.926,0,0,0,1.35,2.538,14.132,14.132,0,0,1,2.369,5.3,9.323,9.323,0,0,1-.979,5.684c-.8,1.5-1.917,3.165-1.222,4.934.594,1.5,2.025,2.4,2.963,3.631a6.013,6.013,0,0,1,1.033,4.8c-.823,4.245-5.076,6.358-9.065,6.567a.1.1,0,0,0,0,.2c3.463-.041,7.236-1.566,8.862-4.812A7.345,7.345,0,0,0,592.386,4373.428Z" transform="translate(-530.783 -4328.246)" fill="#344154"/>
        <path id="Trazado_105407" data-name="Trazado 105407" d="M591.337,4391.794c1.067,2.813,6.067,13.074,9.821,13.877,4.2.9,24.38-7.38,29.613-9.633,1.88-.814-2.707-7.3-4.773-8.057-1.24-.457-21.917,9.046-23.827,9.046-1.077,0-3.5-3.964-8.3-7.7C591.241,4387.253,589.9,4388.01,591.337,4391.794Z" transform="translate(-533.465 -4345.751)" fill="#ffbf9d"/>
        <path id="Trazado_105408" data-name="Trazado 105408" d="M646.454,4393.709c1.123-.334,7.464-2.164,8.74-3s4.767-3.583,4.21-4.626-1.64-.333-1.64-.333,1.293-1.394.626-2.393-2.31.173-2.31.173,1.223-1.52.5-2.47-2.19.506-2.19.506,1.183-1.334.257-1.87c-1.113-.637-3.016,2.073-4.5,2.911-.333.189-7.08,3.377-7.08,3.377Z" transform="translate(-550.47 -4343.032)" fill="#ffbf9d"/>
        <path id="Trazado_105409" data-name="Trazado 105409" d="M657.828,4382.305a8.5,8.5,0,0,1-4.577,3.536c-.043.017-.023.088.024.07,2.25-.7,3.564-1.313,4.667-3.543C657.982,4382.258,657.9,4382.211,657.828,4382.305Z" transform="translate(-553.772 -4343.895)" fill="#344154"/>
        <path id="Trazado_105410" data-name="Trazado 105410" d="M660.148,4385.167a12.779,12.779,0,0,1-4.92,3.76c-.033.016,0,.073.024.061,2.3-.927,3.6-1.571,4.98-3.724C660.294,4385.167,660.221,4385.076,660.148,4385.167Z" transform="translate(-554.417 -4344.829)" fill="#344154"/>
        <path id="Trazado_105411" data-name="Trazado 105411" d="M662.172,4388.748a11.517,11.517,0,0,1-5.147,3.387.045.045,0,0,0-.032.056.044.044,0,0,0,.055.031,8.16,8.16,0,0,0,5.17-3.417C662.313,4388.681,662.279,4388.635,662.172,4388.748Z" transform="translate(-554.996 -4345.985)" fill="#344154"/>
        <path id="Trazado_105412" data-name="Trazado 105412" d="M640.175,4386.172a23.379,23.379,0,0,1,2.91-3.634c1.07-.863,6.234-2.606,6.667-1.514.566,1.414-2.214,3-3.667,3.61,0,0,1.334,3.267-.43,4.844S640.175,4386.172,640.175,4386.172Z" transform="translate(-549.529 -4343.382)" fill="#ffbf9d"/>
        <path id="Trazado_105413" data-name="Trazado 105413" d="M652.461,4381.83c-.41,1.667-2.383,2.333-3.76,3.021a.139.139,0,0,0-.072.184.154.154,0,0,0,.029.042c.46,1.407.7,3.523-.237,4.773a.037.037,0,0,0,.017.049.036.036,0,0,0,.036,0c1.191-1.2,1.12-3.3.517-4.811,1.423-.686,3.373-1.443,3.487-3.253Z" transform="translate(-552.208 -4343.757)" fill="#344154"/>
        <path id="Trazado_105414" data-name="Trazado 105414" d="M585.941,4407.092l4.59-20.735a185.09,185.09,0,0,0-14.7-14.559c-7.458-6.446-11.009-5.758-6.54,5.724S580.352,4402.3,585.941,4407.092Z" transform="translate(-525.849 -4339.171)" fill="#d9a171"/>
        <path id="Trazado_105415" data-name="Trazado 105415" d="M585.941,4407.092l4.59-20.735a185.09,185.09,0,0,0-14.7-14.559c-7.458-6.446-11.009-5.758-6.54,5.724S580.352,4402.3,585.941,4407.092Z" transform="translate(-525.849 -4339.171)" fill="#d9a171"/>
        <path id="Trazado_105416" data-name="Trazado 105416" d="M596.138,4394.656c-.79,2.835-1.471,5.676-2.065,8.559q-.445,2.167-.83,4.354c-.263,1.478-.425,2.976-.675,4.468,0,.067.094.081.108,0,.54-2.9,1.181-5.8,1.775-8.7l1.762-8.667C596.252,4394.622,596.158,4394.6,596.138,4394.656Z" transform="translate(-534.055 -4347.915)" fill="#344154"/>
        <path id="Trazado_105417" data-name="Trazado 105417" d="M571.119,4381.831a5.519,5.519,0,0,1,.4,1.431v.25c-.148-.378-.3-.743-.459-1.114A3.337,3.337,0,0,1,571.119,4381.831Zm12.338-1.269a5.825,5.825,0,0,0,.412,2.9,5.123,5.123,0,0,0,0-1.479,5.337,5.337,0,0,0-.445-1.417Zm-4.171,14.849a5.12,5.12,0,0,0,0,1.472,5.358,5.358,0,0,0,.4,1.424,4.934,4.934,0,0,0,0-1.478,5.1,5.1,0,0,0-.432-1.418Zm3.9-4.616a5.623,5.623,0,0,0,2.9-.412,5.17,5.17,0,0,0-1.478,0,5.112,5.112,0,0,0-1.451.412Zm-15.166-19.405a5.43,5.43,0,0,0,1.478,0,.745.745,0,1,0-.054-.391,5.492,5.492,0,0,0-1.458.391Zm6.75,19.25a.06.06,0,0,0,0,.041.521.521,0,0,0,.04-.1.249.249,0,0,0-.067.055ZM587.318,4398a5.321,5.321,0,0,0-1.033,1.06,5.085,5.085,0,0,0-.722,1.282,5.062,5.062,0,0,0,1.026-1.053A5.252,5.252,0,0,0,587.318,4398Zm-7.668-10.9a5.468,5.468,0,0,0-1.053-1.033,5.261,5.261,0,0,0-1.289-.722A5.861,5.861,0,0,0,579.65,4387.1Zm-2.8-10.948a5.3,5.3,0,0,0-1.039,1.053,5.236,5.236,0,0,0-.729,1.283,5.807,5.807,0,0,0,1.768-2.335Z" transform="translate(-526.065 -4340.219)" fill="#fff"/>
        <path id="Trazado_105418" data-name="Trazado 105418" d="M569.291,4377.832c4.468,11.475,11.036,24.778,16.651,29.571l1.89-8.539-20.147-30.191C566.922,4369.9,567.34,4372.831,569.291,4377.832Z" transform="translate(-525.85 -4339.48)" fill="#344154"/>
        <path id="Trazado_105419" data-name="Trazado 105419" d="M569.367,4411.887s-14.336,3.375-41.49,1.046c0,0,10.617-33.89,19.169-43.029,3.895-4.157,7.695-3.523,10.921-.843.8.674,10.8,13.317,11.616,17.731.749,3.895-2.416,8.221-2.416,8.221Z" transform="translate(-513.028 -4338.911)" fill="#d9a171"/>
        <path id="Trazado_105420" data-name="Trazado 105420" d="M559.236,4383.277a5.065,5.065,0,0,1,0,1.471,5.117,5.117,0,0,1-.391-1.417,4.934,4.934,0,0,1,0-1.478A5.315,5.315,0,0,1,559.236,4383.277Zm.25,22.888a5.424,5.424,0,0,0,0,1.478,4.961,4.961,0,0,0,.4,1.424,5.37,5.37,0,0,0,0-1.479,5.2,5.2,0,0,0-.4-1.424Zm7.04,4.394a5.622,5.622,0,0,0,.412,2.9,5.371,5.371,0,0,0,0-1.478A5.094,5.094,0,0,0,566.525,4410.559Zm-22.8-20.08a4.937,4.937,0,0,0,0,1.479,5.128,5.128,0,0,0,.392,1.417,5.074,5.074,0,0,0,0-1.471A5.384,5.384,0,0,0,543.725,4390.479ZM567,4395.427a5.116,5.116,0,0,0,0,1.472,5.347,5.347,0,0,0,.4,1.423,4.934,4.934,0,0,0,0-1.478A5.1,5.1,0,0,0,567,4395.427Zm-16.793-8.95a5.523,5.523,0,1,0,1.424-.392A5.412,5.412,0,0,0,550.212,4386.477Zm-8.451,14.343a5.638,5.638,0,0,0,2.9-.412,5.135,5.135,0,0,0-1.478,0A5.2,5.2,0,0,0,541.761,4400.82Zm14.073-1.141a5.43,5.43,0,0,0,1.478,0,.745.745,0,1,0-.054-.392A5.252,5.252,0,0,0,555.834,4399.679Zm-25.527,13.182a5.381,5.381,0,0,0,1.471,0,5.1,5.1,0,0,0,1.424-.392,5.614,5.614,0,0,0-2.9.412Zm25.432-41.422a5.391,5.391,0,0,0,1.478,0,.745.745,0,1,0-.054-.391,5.458,5.458,0,0,0-1.424.357Zm-4.779,2.592a5.283,5.283,0,0,0-1.033,1.053,5.132,5.132,0,0,0-.722,1.289,5.245,5.245,0,0,0,1.026-1.06A5.1,5.1,0,0,0,550.961,4374.031Zm-12.824,18.312a5.076,5.076,0,0,0-1.033,1.053,5.155,5.155,0,0,0-.729,1.289A5.794,5.794,0,0,0,538.136,4392.342Zm24.393-1.708a5.681,5.681,0,0,0-1.762,2.342A5.789,5.789,0,0,0,562.53,4390.634Zm-12.2,13.647a5.455,5.455,0,0,0-1.033,1.054,5.241,5.241,0,0,0-.722,1.289,5.294,5.294,0,0,0,1.033-1.06,5.061,5.061,0,0,0,.749-1.309Zm13.5-27.4-.3.365a5.118,5.118,0,0,0-.729,1.282,4.933,4.933,0,0,0,1.033-1.059c.067-.095.128-.189.2-.284Zm3.544,10.26a5.463,5.463,0,0,0-1.053-1.033,5.262,5.262,0,0,0-1.289-.722A5.861,5.861,0,0,0,567.376,4387.138Zm-31.048,17.016a5.282,5.282,0,0,0-1.06-1.033,5.09,5.09,0,0,0-1.282-.729,5.1,5.1,0,0,0,1.053,1.033,5.493,5.493,0,0,0,1.323.7Zm31.723.534a5.662,5.662,0,0,0-2.342-1.762,4.946,4.946,0,0,0,1.06,1.032,5.108,5.108,0,0,0,1.3.7Zm-21.882-21.208a5.472,5.472,0,0,0-1.06-1.033,5.076,5.076,0,0,0-1.282-.722,5.061,5.061,0,0,0,1.053,1.026A5.289,5.289,0,0,0,546.169,4383.48Zm9,30.373a5.861,5.861,0,0,0-2.342-1.755,5.08,5.08,0,0,0,1.053,1.033,5.248,5.248,0,0,0,1.289.722Zm-2.7-18.669a4.932,4.932,0,0,0-1.026-1.04,5.127,5.127,0,0,0-1.289-.729,5.8,5.8,0,0,0,2.342,1.762Zm-10.185,15a5.71,5.71,0,0,0-2.335-1.762,5.1,5.1,0,0,0,1.053,1.032,5.225,5.225,0,0,0,1.3.722Z" transform="translate(-513.818 -4340.235)" fill="#fff"/>
        <path id="Trazado_105421" data-name="Trazado 105421" d="M581.913,4382.538a40.621,40.621,0,0,1,2.423,3.651c-.3-.709-.594-1.424-.844-2.16m.047,0c.263.52.533,1.033.749,1.573s.385.972.567,1.458h0a19.607,19.607,0,0,1,2.254,4.65,9.089,9.089,0,0,1-.094,4.563,11.394,11.394,0,0,1-.891,2.214,6.74,6.74,0,0,1-1.168,1.748c.277,1.56.459,3.146.675,4.725a38.183,38.183,0,0,1,.479,4.63.081.081,0,1,1-.162,0l-.1-.324a.049.049,0,0,1,0-.054,43.189,43.189,0,0,1-.675-4.34c-.2-1.5-.581-4.616-.587-4.63s.715-1.31.992-1.9a12.881,12.881,0,0,0,.823-2.254,8.487,8.487,0,0,0,.094-4.481,21.665,21.665,0,0,0-2.106-4.5c-.844-1.513-1.714-3.011-2.585-4.509-.027-.041.068-.087.108-.054Z" transform="translate(-530.555 -4343.983)" fill="#344154"/>
        <g id="Grupo_66109" data-name="Grupo 66109" transform="translate(18.891 55.302)">
          <path id="Trazado_105422" data-name="Trazado 105422" d="M544.835,4409.045c-4.574,6.194-13.313,20.849-10.381,24.077,4.822,5.306,38.882,8.306,42.5,9.292,1.56.435,6.779-10.978,5.3-11.862-1.777-1.068-36.66-3.381-36.625-4.435,0-.6,1.307-5.627,2.374-12.074C549.227,4406.562,547.018,4406.1,544.835,4409.045Z" transform="translate(-533.866 -4407.355)" fill="#ffbf9d"/>
          <path id="Trazado_105423" data-name="Trazado 105423" d="M597.91,4438.321s2.8-.905,5.728-2.234a19.78,19.78,0,0,1,6-1.743c2.178,0,11.231,1.429,10.934,3.633-.27,2-7.9-.213-7.9-.213s7.915,1.534,7.131,3.877-9.057-1.306-9.057-1.306,8.081,1.768,6.909,4.059c-.871,1.744-8.581-1.141-8.581-1.141s6.935,1.573,6.1,3.389c-.919,2.013-8.19-.192-8.19-.192-2.9,4.27-7.379,5.934-10.542,4.483C595.932,4450.71,597.91,4438.321,597.91,4438.321Z" transform="translate(-554.178 -4416.128)" fill="#ffbf9d"/>
          <path id="Trazado_105424" data-name="Trazado 105424" d="M616.518,4438.34c.937.148,1.882.292,2.8.522s1.83.492,2.723.811a16.155,16.155,0,0,1,3.355,1.555,34.887,34.887,0,0,0-6.151-2.117c-.924-.231-1.821-.506-2.736-.737C616.487,4438.37,616.5,4438.34,616.518,4438.34Z" transform="translate(-560.724 -4417.427)" fill="#344154"/>
          <path id="Trazado_105425" data-name="Trazado 105425" d="M615.2,4443.232c1.185.239,2.37.435,3.546.728s2.253.671,3.4,1.041c.087.03.044.069-.043.043-1.164-.327-2.261-.536-3.424-.85s-2.314-.666-3.485-.937Z" transform="translate(-560.3 -4419.017)" fill="#344154"/>
          <path id="Trazado_105426" data-name="Trazado 105426" d="M613.3,4447.22a27.1,27.1,0,0,1,5.331,1.529c.088.035.026.074-.065.048-1.764-.541-3.145-.98-5.28-1.512C613.261,4447.277,613.266,4447.216,613.3,4447.22Z" transform="translate(-559.676 -4420.313)" fill="#344154"/>
          <path id="Trazado_105427" data-name="Trazado 105427" d="M609.7,4435.187a9.033,9.033,0,0,1,1.463-.7,10.288,10.288,0,0,1,1.443-.483,7.809,7.809,0,0,1,3.258-.131,30.519,30.519,0,0,1,7.532,2.252c.04,0,.026.1,0,.082a55.992,55.992,0,0,0-7.379-1.891,8.893,8.893,0,0,0-3.219.031,16.126,16.126,0,0,0-1.612.462c-.475.153-.941.361-1.425.47a.055.055,0,1,1-.061-.091Z" transform="translate(-558.507 -4415.938)" fill="#344154"/>
        </g>
        <path id="Trazado_105428" data-name="Trazado 105428" d="M526.5,4407.38l19.662-8a184.978,184.978,0,0,0,3.638-20.364c1.073-9.8-1.512-12.332-8.424-2.14S527.26,4400.037,526.5,4407.38Z" transform="translate(-512.579 -4340.025)" fill="#d9a171"/>
        <path id="Trazado_105429" data-name="Trazado 105429" d="M545.378,4378.132a3.6,3.6,0,0,1-.23-.675q.129-.189.263-.364A3.973,3.973,0,0,1,545.378,4378.132Zm.121,13.81a4.938,4.938,0,0,0,0,1.478,5.118,5.118,0,0,0,.392,1.417,5.074,5.074,0,0,0,0-1.471A5.376,5.376,0,0,0,545.5,4391.942Zm-1.964,10.34a5.633,5.633,0,0,0,2.9-.411,5.1,5.1,0,0,0-1.478,0A5.183,5.183,0,0,0,543.536,4402.282Zm-4.232-15.754-.243.4h.216a5.146,5.146,0,0,0,1.424-.391,4.622,4.622,0,0,0-1.4-.007Zm13.432-11.035a5.311,5.311,0,0,0-1.033,1.053,5.145,5.145,0,0,0-.722,1.289,5.242,5.242,0,0,0,1.026-1.059A5.09,5.09,0,0,0,552.735,4375.493ZM539.911,4393.8a5.088,5.088,0,0,0-1.033,1.053,5.164,5.164,0,0,0-.729,1.289A5.791,5.791,0,0,0,539.911,4393.8Zm-1.8,11.812a5.3,5.3,0,0,0-1.06-1.033,5.091,5.091,0,0,0-1.282-.729,5.091,5.091,0,0,0,1.053,1.033,5.484,5.484,0,0,0,1.316.7Zm9.834-20.674a5.471,5.471,0,0,0-1.06-1.033,5.078,5.078,0,0,0-1.282-.722,5.062,5.062,0,0,0,1.053,1.026A5.27,5.27,0,0,0,547.943,4384.942Z" transform="translate(-515.592 -4341.697)" fill="#fff"/>
        <path id="Trazado_105430" data-name="Trazado 105430" d="M558.774,4391.662a10.946,10.946,0,0,0-.675,1.769c-.074.2-.135.411-.2.614q.253-1.7.486-3.416c0-.074-.1-.108-.115,0-.5,2.571-2.788,14.64-2.889,15.261-.061,0-.675.358-.709.351s0,.128.047.1.79-.357.79-.365c.25-.546,2.025-9.753,2.227-10.873a1.392,1.392,0,0,0,.074-.148c.061-.162.115-.325.175-.479.115-.3.209-.594.317-.891a13.916,13.916,0,0,0,.574-1.87.057.057,0,0,0-.024-.078A.058.058,0,0,0,558.774,4391.662Z" transform="translate(-521.732 -4346.595)" fill="#344154"/>
        <path id="Trazado_105431" data-name="Trazado 105431" d="M546.65,4410.083a21.44,21.44,0,0,0-2.3.675c-.763.243-1.532.466-2.295.716-1.465.479-2.916,1-4.367,1.539a91.458,91.458,0,0,0-8.572,3.578c-.061,0,0,.128.047.108,2.963-1.04,5.879-2.214,8.822-3.314l4.347-1.613,2.167-.823c.722-.264,1.5-.473,2.187-.8C546.724,4410.13,546.691,4410.076,546.65,4410.083Z" transform="translate(-513.422 -4352.94)" fill="#344154"/>
        <path id="Trazado_105432" data-name="Trazado 105432" d="M561.5,4363.7c.162.736,3.6,5.515,6.939,5.4,1.087-.041,1.134-5.994,1.134-5.994l.1-.439,1.444-6.142-7.182-4.724-1.033-.621s-.29,1.708-.621,3.833a2.8,2.8,0,0,1-.047.3c-.013.108-.047.229-.061.344-.054.317-.108.675-.155.965s-.074.486-.1.749-.061.513-.1.77A39.9,39.9,0,0,0,561.5,4363.7Z" transform="translate(-523.954 -4333.796)" fill="#ffbf9d"/>
        <path id="Trazado_105433" data-name="Trazado 105433" d="M562.627,4355.017a12.662,12.662,0,0,0,7.425,7.654l1.444-6.142-7.182-4.724-1.033-.621S562.978,4352.891,562.627,4355.017Z" transform="translate(-524.323 -4333.796)" fill="#344154"/>
        <path id="Trazado_105434" data-name="Trazado 105434" d="M579.2,4338.723c1.417,10.982-4.995,13.074-7.364,13.378-2.153.277-9.5.945-12.055-9.834s2.106-14.9,6.986-15.8S577.774,4327.776,579.2,4338.723Z" transform="translate(-523.163 -4325.703)" fill="#ffbf9d"/>
        <path id="Trazado_105435" data-name="Trazado 105435" d="M585.451,4341.658a7.16,7.16,0,0,1-.763-.081,1.226,1.226,0,0,1-.763-.223.4.4,0,0,1-.047-.479.971.971,0,0,1,.931-.331,1.442,1.442,0,0,1,.952.412.418.418,0,0,1-.31.7Z" transform="translate(-531.212 -4330.332)" fill="#344154"/>
        <path id="Trazado_105436" data-name="Trazado 105436" d="M574.79,4342.737a6.936,6.936,0,0,0,.722-.236,1.209,1.209,0,0,0,.675-.385.384.384,0,0,0-.047-.472.973.973,0,0,0-.985-.128,1.425,1.425,0,0,0-.837.6.419.419,0,0,0,.472.622Z" transform="translate(-528.103 -4330.627)" fill="#344154"/>
        <path id="Trazado_105437" data-name="Trazado 105437" d="M577.79,4347.092s-.054.041-.047.075c.122.743.135,1.613-.506,1.951v.04C578.054,4348.936,578.027,4347.774,577.79,4347.092Z" transform="translate(-529.072 -4332.466)" fill="#344154"/>
        <path id="Trazado_105438" data-name="Trazado 105438" d="M576.524,4346.062c-1.215.068-.992,2.491.135,2.43S577.543,4346.008,576.524,4346.062Z" transform="translate(-528.575 -4332.13)" fill="#344154"/>
        <path id="Trazado_105439" data-name="Trazado 105439" d="M575.538,4346.314c-.2.155-.385.411-.634.466s-.54-.183-.756-.406h-.041c.041.459.263.925.763.945s.749-.418.823-.9C575.707,4346.367,575.619,4346.246,575.538,4346.314Z" transform="translate(-528.054 -4332.207)" fill="#344154"/>
        <path id="Trazado_105440" data-name="Trazado 105440" d="M584.209,4346.293a.068.068,0,0,1,.068.061c.034.756.209,1.607.911,1.8m0,.04c-.844-.047-1.06-1.181-.979-1.9Z" transform="translate(-531.333 -4332.206)" fill="#344154"/>
        <path id="Trazado_105441" data-name="Trazado 105441" d="M584.818,4345.038c1.2-.189,1.5,2.227.385,2.4S583.812,4345.2,584.818,4345.038Z" transform="translate(-531.334 -4331.795)" fill="#344154"/>
        <path id="Trazado_105442" data-name="Trazado 105442" d="M585.847,4345.063c.2.1.418.311.675.3s.432-.3.574-.566h.041c.068.459,0,.958-.459,1.1s-.742-.229-.911-.675C585.712,4345.158,585.759,4345.016,585.847,4345.063Z" transform="translate(-531.837 -4331.719)" fill="#344154"/>
        <path id="Trazado_105443" data-name="Trazado 105443" d="M578.735,4356.228c.189.169.378.405.675.412a1.95,1.95,0,0,0,.8-.223h.04a1.019,1.019,0,0,1-.938.453.811.811,0,0,1-.628-.635C578.64,4356.221,578.708,4356.208,578.735,4356.228Z" transform="translate(-529.537 -4335.432)" fill="#344154"/>
        <path id="Trazado_105444" data-name="Trazado 105444" d="M581.78,4348.246s.27,1.1.324,1.627c0,.054-.122.087-.3.114h0a2.531,2.531,0,0,1-2.538-.675c-.041-.047,0-.108.074-.081a3.783,3.783,0,0,0,2.356.418c0-.149-.526-1.87-.439-1.891a4.933,4.933,0,0,1,1.229.149c-.5-2.315-1.35-4.536-1.822-6.844a.074.074,0,0,1,.135-.047,38.294,38.294,0,0,1,2.275,7.29C583.13,4348.6,582,4348.313,581.78,4348.246Z" transform="translate(-529.727 -4330.481)" fill="#344154"/>
        <path id="Trazado_105445" data-name="Trazado 105445" d="M560.413,4342.27c1.782-.061,1.768-3.814,1.768-3.814s3.591-.391,4.192-5.689a7.976,7.976,0,0,1-1.107,4.448s6.257-1.384,8.329-6.979a14.128,14.128,0,0,1-1.654,3.888,7.466,7.466,0,0,0,3.625-3.341,16.3,16.3,0,0,0,2.4,3.678s-1.512-11.049-11.643-8.713c0,0-6.378,1.154-8.1,6.5S560.413,4342.27,560.413,4342.27Z" transform="translate(-522.75 -4325.422)" fill="#344154"/>
        <path id="Trazado_105446" data-name="Trazado 105446" d="M574.02,4350.114a3.435,3.435,0,1,1,3.294-4.319h0a3.442,3.442,0,0,1-2.45,4.205A3.589,3.589,0,0,1,574.02,4350.114Zm-.041-6.419a3.1,3.1,0,0,0-.736.1,2.987,2.987,0,1,0,.736-.1Z" transform="translate(-526.901 -4331.215)" fill="#d9a171"/>
        <path id="Trazado_105447" data-name="Trazado 105447" d="M585.935,4348.6c-1.35,0-2.518-1.35-2.747-3.111a4.126,4.126,0,0,1,.425-2.471,2.139,2.139,0,0,1,3.638-.458,4.1,4.1,0,0,1,1.019,2.294c.236,1.876-.709,3.55-2.113,3.726A1.26,1.26,0,0,1,585.935,4348.6Zm-.4-6.4h-.169a1.852,1.852,0,0,0-1.35,1.02,3.662,3.662,0,0,0-.364,2.2c.2,1.627,1.3,2.835,2.457,2.7s1.917-1.586,1.708-3.219a3.652,3.652,0,0,0-.9-2.025,1.918,1.918,0,0,0-1.384-.675Z" transform="translate(-530.993 -4330.727)" fill="#d9a171"/>
        <path id="Trazado_105448" data-name="Trazado 105448" d="M580.314,4347.1l-.337-.311a1.881,1.881,0,0,1,2.531-.452l-.3.358C581.367,4345.987,580.355,4347.054,580.314,4347.1Z" transform="translate(-529.963 -4332.109)" fill="#d9a171"/>
        <path id="Trazado_105449" data-name="Trazado 105449" d="M558.929,4350.406l-.432-.156c.074-.2.756-1.977,1.748-2.268s6.432-.506,6.7-.52v.466a61.428,61.428,0,0,0-6.574.492C559.719,4348.617,559.111,4349.92,558.929,4350.406Z" transform="translate(-522.981 -4332.586)" fill="#d9a171"/>
        <path id="Trazado_105450" data-name="Trazado 105450" d="M559.481,4352.765a2.191,2.191,0,0,0,.513.108,1.73,1.73,0,0,0,.526,0,1.536,1.536,0,0,0,.628-.236,1.8,1.8,0,0,0,.4-.338,2.21,2.21,0,0,0,.391-.675l-.736-2.93s-2.565-3.375-4.09-2.423S557.611,4352.157,559.481,4352.765Z" transform="translate(-522.358 -4332.144)" fill="#d9a171"/>
        <path id="Trazado_105451" data-name="Trazado 105451" d="M558.277,4348.541a4.705,4.705,0,0,1,2.572,2.855,1.039,1.039,0,0,0-1.437-.309.991.991,0,0,0-.122.093s0,.081.041.067a1.139,1.139,0,0,1,1.282.351,5.719,5.719,0,0,1,.675,1c.068.115.277.041.223-.087h0c-.081-1.7-1.458-3.942-3.233-4.016Z" transform="translate(-522.909 -4332.921)" fill="#344154"/>
        <path id="Trazado_105452" data-name="Trazado 105452" d="M561.061,4354.967a.513.513,0,1,0,.378-.621A.52.52,0,0,0,561.061,4354.967Z" transform="translate(-523.81 -4334.819)" fill="#fff"/>
        <path id="Trazado_105453" data-name="Trazado 105453" d="M559.452,4353.976a.371.371,0,0,0,.439.263.364.364,0,0,0,.27-.439.357.357,0,0,0-.431-.265l-.008,0A.364.364,0,0,0,559.452,4353.976Z" transform="translate(-523.288 -4334.557)" fill="#fff"/>
        <path id="Trazado_105454" data-name="Trazado 105454" d="M568.79,4369.176l-1.654,5.021-6.48-5.8-1.6,2.092s6.588,9.45,6.594,9.017l1.748-4.354,3.1,2.754-.715-7.357Z" transform="translate(-523.163 -4339.389)" fill="#ebebeb"/>
        <path id="Trazado_105455" data-name="Trazado 105455" d="M570.5,4375.3c-.155-1.215-.284-2.437-.5-3.638a.041.041,0,0,0-.081,0c-.169,1.188.459,5.818.526,6.932h0c-.128-.114-2.869-2.41-2.889-2.369-.4.675-1.681,3.868-1.762,4.158-1.039-1.505-5.015-6.958-6.223-8.363-.04-.041-.1,0-.074.047.938,1.593,6.21,8.943,6.277,8.916a45.457,45.457,0,0,0,1.822-4.6,32.037,32.037,0,0,0,3.253,2.93A37.784,37.784,0,0,0,570.5,4375.3Z" transform="translate(-523.302 -4340.44)" fill="#344154"/>
      </g>
      <g id="freepik--Documents--inject-28" transform="translate(550.326 4299.793)">
        <rect id="Rectángulo_5973" data-name="Rectángulo 5973" width="78.066" height="100.218" transform="translate(33.33 58.148)" fill="#fff"/>
        <path id="Trazado_105456" data-name="Trazado 105456" d="M724.664,4486.015l-38.972.135-39.094.074h-.216v-.216l-.115-100.218v-.3h.331l78.066.081h.257v.25l-.115,50.149Zm0,0-.169-50.176-.081-50.042.25.257-78.066.074.331-.331-.122,100.218-.209-.216,38.979.081Z" transform="translate(-613.268 -4327.649)" fill="#dbdbdb"/>
        <path id="Trazado_105457" data-name="Trazado 105457" d="M659.407,4417.644l30.495-.081,30.495.081-30.495.074Z" transform="translate(-617.54 -4338.073)" fill="#c7c7c7"/>
        <path id="Trazado_105458" data-name="Trazado 105458" d="M659.407,4421.327l30.495-.074,30.495.074-30.495.081Z" transform="translate(-617.54 -4339.272)" fill="#c7c7c7"/>
        <path id="Trazado_105459" data-name="Trazado 105459" d="M659.407,4425.014l30.495-.081,30.495.081-30.495.074Z" transform="translate(-617.54 -4340.469)" fill="#c7c7c7"/>
        <path id="Trazado_105460" data-name="Trazado 105460" d="M659.407,4428.7l30.495-.074,30.495.074-30.495.074Z" transform="translate(-617.54 -4341.668)" fill="#c7c7c7"/>
        <path id="Trazado_105461" data-name="Trazado 105461" d="M659.407,4432.384l30.495-.081,30.495.081-30.495.075Z" transform="translate(-617.54 -4342.864)" fill="#c7c7c7"/>
        <path id="Trazado_105462" data-name="Trazado 105462" d="M659.407,4436.067l30.495-.074,30.495.074-30.495.074Z" transform="translate(-617.54 -4344.063)" fill="#c7c7c7"/>
        <path id="Trazado_105463" data-name="Trazado 105463" d="M659.407,4439.748l30.495-.075,30.495.075-30.495.081Z" transform="translate(-617.54 -4345.26)" fill="#c7c7c7"/>
        <path id="Trazado_105464" data-name="Trazado 105464" d="M659.407,4443.437l30.495-.074,30.495.074-30.495.075Z" transform="translate(-617.54 -4346.458)" fill="#c7c7c7"/>
        <path id="Trazado_105465" data-name="Trazado 105465" d="M659.407,4447.117l30.495-.074,30.495.074-30.495.081Z" transform="translate(-617.54 -4347.655)" fill="#c7c7c7"/>
        <path id="Trazado_105466" data-name="Trazado 105466" d="M659.407,4450.8l30.495-.081,30.495.081-30.495.075Z" transform="translate(-617.54 -4348.851)" fill="#c7c7c7"/>
        <path id="Trazado_105467" data-name="Trazado 105467" d="M659.407,4454.487l30.495-.074,30.495.074-30.495.081Z" transform="translate(-617.54 -4350.051)" fill="#c7c7c7"/>
        <path id="Trazado_105468" data-name="Trazado 105468" d="M659.407,4458.174l30.495-.081,30.495.081-30.495.075Z" transform="translate(-617.54 -4351.247)" fill="#c7c7c7"/>
        <path id="Trazado_105469" data-name="Trazado 105469" d="M659.407,4461.857l30.495-.074,30.495.074-30.495.081Z" transform="translate(-617.54 -4352.446)" fill="#c7c7c7"/>
        <path id="Trazado_105470" data-name="Trazado 105470" d="M659.407,4465.544l30.495-.082,30.495.082-30.495.074Z" transform="translate(-617.54 -4353.642)" fill="#c7c7c7"/>
        <path id="Trazado_105471" data-name="Trazado 105471" d="M659.407,4469.228l30.495-.075,30.495.075-30.495.081Z" transform="translate(-617.54 -4354.842)" fill="#c7c7c7"/>
        <rect id="Rectángulo_5974" data-name="Rectángulo 5974" width="4.623" height="10.435" transform="translate(48.32 106.846)" fill="#d9a171"/>
        <rect id="Rectángulo_5975" data-name="Rectángulo 5975" width="4.623" height="16.003" transform="translate(56.899 101.278)" fill="#d9a171"/>
        <rect id="Rectángulo_5976" data-name="Rectángulo 5976" width="4.623" height="22.24" transform="translate(65.478 95.048)" fill="#aed3f2"/>
        <rect id="Rectángulo_5977" data-name="Rectángulo 5977" width="4.623" height="24.913" transform="translate(74.057 92.375)" fill="#aed3f2"/>
        <rect id="Rectángulo_5978" data-name="Rectángulo 5978" width="4.623" height="29.685" transform="translate(82.635 87.603)" fill="#aed3f2"/>
        <rect id="Rectángulo_5979" data-name="Rectángulo 5979" width="4.623" height="34.396" transform="translate(91.214 82.885)" fill="#aed3f2"/>
        <path id="Trazado_105472" data-name="Trazado 105472" d="M661.721,4415.093l.121,9.868.081,9.862c.061,6.581.074,13.155.088,19.735l-.29-.29H676.57l14.849.034,14.849.1,14.849.168-14.849.169-14.849.094H661.437v-.283q0-9.869.081-19.736l.088-9.861Z" transform="translate(-618.199 -4337.27)" fill="#c7c7c7"/>
        <rect id="Rectángulo_5980" data-name="Rectángulo 5980" width="4.623" height="0.418" transform="translate(48.32 119.373)" fill="#c7c7c7"/>
        <rect id="Rectángulo_5981" data-name="Rectángulo 5981" width="4.623" height="0.418" transform="translate(56.899 119.373)" fill="#c7c7c7"/>
        <rect id="Rectángulo_5982" data-name="Rectángulo 5982" width="4.623" height="0.418" transform="translate(65.478 119.373)" fill="#c7c7c7"/>
        <rect id="Rectángulo_5983" data-name="Rectángulo 5983" width="4.623" height="0.418" transform="translate(74.057 119.373)" fill="#c7c7c7"/>
        <rect id="Rectángulo_5984" data-name="Rectángulo 5984" width="4.623" height="0.418" transform="translate(82.635 119.373)" fill="#c7c7c7"/>
        <rect id="Rectángulo_5985" data-name="Rectángulo 5985" width="4.623" height="0.418" transform="translate(91.214 119.373)" fill="#c7c7c7"/>
        <path id="Trazado_105473" data-name="Trazado 105473" d="M669.737,4448.329a56.539,56.539,0,0,0,6.75-.506,67.526,67.526,0,0,0,6.675-1.215,57.771,57.771,0,0,0,12.7-4.475,45.289,45.289,0,0,0,11.1-7.56l.628-.567.594-.6,1.174-1.208c.729-.857,1.512-1.674,2.173-2.585a45.827,45.827,0,0,0,3.793-5.609h.034a40.579,40.579,0,0,1-13.3,15.274,45.025,45.025,0,0,1-5.886,3.456,57.453,57.453,0,0,1-26.4,5.6Z" transform="translate(-620.897 -4340.166)" fill="#344154"/>
        <path id="Trazado_105474" data-name="Trazado 105474" d="M736.932,4426.944l-.641.162-.79-3.159-3.091,1.019-.2-.627,3.766-1.235Z" transform="translate(-641.203 -4339.874)" fill="#344154"/>
        <rect id="Rectángulo_5986" data-name="Rectángulo 5986" width="63.595" height="2.572" transform="translate(40.565 132.798)" fill="#dbdbdb"/>
        <rect id="Rectángulo_5987" data-name="Rectángulo 5987" width="35.807" height="2.572" transform="translate(40.565 139.298)" fill="#dbdbdb"/>
        <rect id="Rectángulo_5988" data-name="Rectángulo 5988" width="35.807" height="2.572" transform="translate(54.456 69.224)" fill="#dbdbdb"/>
        <path id="Trazado_105475" data-name="Trazado 105475" d="M694.018,4525.3l-76.473,15.713-20.168-98.166,56.778-11.663,23.536,14.66Z" transform="translate(-597.377 -4342.5)" fill="#f2e9e4"/>
        <path id="Trazado_105476" data-name="Trazado 105476" d="M681.5,4431.183l23.536,14.66-19.7,4.043Z" transform="translate(-624.72 -4342.5)" fill="#d9a171"/>
        <rect id="Rectángulo_5989" data-name="Rectángulo 5989" width="43.407" height="2.572" transform="translate(10.842 115.284) rotate(-11.61)" fill="#dbdbdb"/>
        <rect id="Rectángulo_5990" data-name="Rectángulo 5990" width="43.407" height="2.572" transform="translate(12.146 121.645) rotate(-11.61)" fill="#dbdbdb"/>
        <rect id="Rectángulo_5991" data-name="Rectángulo 5991" width="43.407" height="2.572" transform="translate(13.463 128.004) rotate(-11.61)" fill="#dbdbdb"/>
        <rect id="Rectángulo_5992" data-name="Rectángulo 5992" width="63.595" height="2.572" transform="translate(14.769 134.368) rotate(-11.61)" fill="#dbdbdb"/>
        <rect id="Rectángulo_5993" data-name="Rectángulo 5993" width="63.607" height="2.572" transform="matrix(0.98, -0.2, 0.2, 0.98, 16.202, 140.393)" fill="#dbdbdb"/>
        <rect id="Rectángulo_5994" data-name="Rectángulo 5994" width="63.595" height="2.572" transform="translate(17.384 147.089) rotate(-11.61)" fill="#dbdbdb"/>
        <rect id="Rectángulo_5995" data-name="Rectángulo 5995" width="63.595" height="2.572" transform="translate(18.696 153.454) rotate(-11.61)" fill="#dbdbdb"/>
        <rect id="Rectángulo_5996" data-name="Rectángulo 5996" width="63.595" height="2.572" transform="translate(20 159.815) rotate(-11.61)" fill="#dbdbdb"/>
        <rect id="Rectángulo_5997" data-name="Rectángulo 5997" width="63.595" height="2.572" transform="translate(21.305 166.182) rotate(-11.61)" fill="#dbdbdb"/>
        <rect id="Rectángulo_5998" data-name="Rectángulo 5998" width="63.595" height="2.572" transform="translate(22.609 172.542) rotate(-11.61)" fill="#dbdbdb"/>
        <rect id="Rectángulo_5999" data-name="Rectángulo 5999" width="63.595" height="2.572" transform="translate(23.926 178.901) rotate(-11.61)" fill="#dbdbdb"/>
        <rect id="Rectángulo_6000" data-name="Rectángulo 6000" width="63.595" height="2.572" transform="translate(25.232 185.268) rotate(-11.61)" fill="#dbdbdb"/>
        <path id="Trazado_105477" data-name="Trazado 105477" d="M928.3,4411.34l-85.659,6.237c-9.753-37.083.675-74.165-6.9-111.247l85.646-6.237C931.143,4337.176,920.708,4374.257,928.3,4411.34Z" transform="translate(-674.854 -4299.89)" fill="#fff"/>
        <path id="Trazado_105478" data-name="Trazado 105478" d="M928.106,4411.243l-85.605,6.466h-.2a2.093,2.093,0,0,1-.054-.209c-9.807-37.076.6-74.158-7.033-111.24a1.463,1.463,0,0,0-.074-.331h.338l85.659-6.135h.236c.019.08.041.159.068.236C931.11,4337.064,920.573,4374.153,928.106,4411.243Zm0,0c-7.694-37.076,2.7-74.151-7.141-111.227l.3.216-85.652,6.338.263-.365c7.566,37.123-2.929,74.171,6.75,111.26l-.263-.2Z" transform="translate(-674.659 -4299.793)" fill="#dbdbdb"/>
        <path id="Trazado_105479" data-name="Trazado 105479" d="M851.057,4331.206l48.091-3.462q.162,1.425.284,2.855l-48.152,3.469C851.212,4333.109,851.138,4332.158,851.057,4331.206Z" transform="translate(-679.833 -4308.878)" fill="#dbdbdb"/>
        <path id="Trazado_105480" data-name="Trazado 105480" d="M851.767,4341.892l48.239-3.469q.088,1.425.162,2.855l-48.287,3.47C851.848,4343.8,851.807,4342.844,851.767,4341.892Z" transform="translate(-680.064 -4312.349)" fill="#dbdbdb"/>
        <path id="Trazado_105481" data-name="Trazado 105481" d="M852.1,4352.572l48.354-3.469c0,.952.047,1.9.068,2.855l-48.395,3.483C852.124,4354.476,852.11,4353.524,852.1,4352.572Z" transform="translate(-680.171 -4315.821)" fill="#dbdbdb"/>
        <path id="Trazado_105482" data-name="Trazado 105482" d="M852.117,4362.479l70.959-5.075v2.854l-71,5.076Q852.117,4363.906,852.117,4362.479Z" transform="translate(-680.165 -4318.519)" fill="#dbdbdb"/>
        <path id="Trazado_105483" data-name="Trazado 105483" d="M851.968,4373.159l71.046-5.076-.041,2.855-71.067,5.082Z" transform="translate(-680.11 -4321.99)" fill="#dbdbdb"/>
        <path id="Trazado_105484" data-name="Trazado 105484" d="M851.708,4383.845l71.087-5.083c0,.952-.041,1.9-.068,2.855l-71.1,5.062C851.661,4385.749,851.688,4384.8,851.708,4383.845Z" transform="translate(-680.019 -4325.461)" fill="#dbdbdb"/>
        <path id="Trazado_105485" data-name="Trazado 105485" d="M851.471,4394.542l71.08-5.049c0,.952-.041,1.91-.068,2.862l-71.067,5.076C851.437,4396.445,851.451,4395.493,851.471,4394.542Z" transform="translate(-679.95 -4328.949)" fill="#dbdbdb"/>
        <path id="Trazado_105486" data-name="Trazado 105486" d="M851.333,4405.208l71.067-5.076c0,.952-.034,1.9-.047,2.855l-71.006,5.076C851.319,4407.125,851.319,4406.161,851.333,4405.208Z" transform="translate(-679.92 -4332.407)" fill="#dbdbdb"/>
        <path id="Trazado_105487" data-name="Trazado 105487" d="M851.347,4415.889l70.938-5.076v2.855l-70.871,5.083C851.374,4417.8,851.361,4416.847,851.347,4415.889Z" transform="translate(-679.928 -4335.879)" fill="#dbdbdb"/>
        <path id="Trazado_105488" data-name="Trazado 105488" d="M851.627,4426.575l70.81-5.082c0,.951.041,1.9.074,2.862l-70.743,5.076Q851.688,4428.006,851.627,4426.575Z" transform="translate(-680.019 -4339.351)" fill="#dbdbdb"/>
        <path id="Trazado_105489" data-name="Trazado 105489" d="M852.277,4437.255l70.628-5.083c.047.958.108,1.911.169,2.862l-70.56,5.075C852.432,4439.138,852.351,4438.207,852.277,4437.255Z" transform="translate(-680.23 -4342.821)" fill="#dbdbdb"/>
        <path id="Trazado_105490" data-name="Trazado 105490" d="M853.377,4447.938l70.405-5.076c.088.952.182,1.9.29,2.855l-70.3,5.083C853.627,4449.849,853.5,4448.89,853.377,4447.938Z" transform="translate(-680.588 -4346.296)" fill="#dbdbdb"/>
        <path id="Trazado_105491" data-name="Trazado 105491" d="M912.64,4463.584q-44.3-7.512-87.6-15c3.773-36.644,22.267-73.26,21.322-109.876q44.3,7.512,87.6,15.024C930.216,4390.344,911.7,4426.981,912.64,4463.584Z" transform="translate(-671.376 -4312.44)" fill="#d9a171"/>
        <path id="Trazado_105492" data-name="Trazado 105492" d="M912.64,4463.584q-44.3-7.512-87.6-15c3.773-36.644,22.267-73.26,21.322-109.876q44.3,7.512,87.6,15.024C930.216,4390.344,911.7,4426.981,912.64,4463.584Z" transform="translate(-671.376 -4312.44)" fill="#fff" opacity="0.8" style="isolation: isolate"/>
        <path id="Trazado_105493" data-name="Trazado 105493" d="M867.208,4364.853q24.015,4.178,47.807,8.356c-.162.945-.331,1.883-.506,2.821q-23.745-4.171-47.672-8.355C866.972,4366.736,867.093,4365.8,867.208,4364.853Z" transform="translate(-684.963 -4320.94)" fill="#dbdbdb"/>
        <path id="Trazado_105494" data-name="Trazado 105494" d="M865.63,4375.4q23.82,4.178,47.47,8.356c-.2.945-.4,1.883-.614,2.821q-23.59-4.171-47.348-8.356C865.306,4377.286,865.468,4376.348,865.63,4375.4Z" transform="translate(-684.41 -4324.369)" fill="#dbdbdb"/>
        <path id="Trazado_105495" data-name="Trazado 105495" d="M863.627,4385.953l47.193,8.356c-.229.938-.452,1.884-.675,2.822q-23.489-4.185-47.1-8.356C863.236,4387.836,863.438,4386.9,863.627,4385.953Z" transform="translate(-683.731 -4327.798)" fill="#dbdbdb"/>
        <path id="Trazado_105496" data-name="Trazado 105496" d="M861.3,4396.493q34.5,6.127,68.778,12.244c-.25.938-.506,1.876-.763,2.821q-34.267-6.115-68.691-12.237C860.83,4398.383,861.052,4397.444,861.3,4396.493Z" transform="translate(-682.944 -4331.224)" fill="#dbdbdb"/>
        <path id="Trazado_105497" data-name="Trazado 105497" d="M858.646,4407.053q34.369,6.128,68.6,12.244c-.256.938-.513,1.876-.776,2.821l-68.549-12.244C858.16,4408.936,858.4,4408.025,858.646,4407.053Z" transform="translate(-682.063 -4334.657)" fill="#dbdbdb"/>
        <path id="Trazado_105498" data-name="Trazado 105498" d="M855.85,4417.6l68.5,12.244c-.256.938-.52,1.876-.776,2.821l-68.488-12.244C855.343,4419.486,855.6,4418.542,855.85,4417.6Z" transform="translate(-681.143 -4338.086)" fill="#dbdbdb"/>
        <path id="Trazado_105499" data-name="Trazado 105499" d="M852.96,4428.153l68.508,12.244c-.256.938-.506,1.876-.756,2.814q-34.315-6.114-68.535-12.236C852.44,4430.036,852.7,4429.091,852.96,4428.153Z" transform="translate(-680.197 -4341.515)" fill="#dbdbdb"/>
        <path id="Trazado_105500" data-name="Trazado 105500" d="M850.066,4438.7q34.248,6.116,68.61,12.237c-.236.944-.472,1.883-.675,2.821q-34.423-6.116-68.684-12.237C849.526,4440.587,849.8,4439.641,850.066,4438.7Z" transform="translate(-679.268 -4344.944)" fill="#dbdbdb"/>
        <path id="Trazado_105501" data-name="Trazado 105501" d="M847.269,4449.252q34.3,6.116,68.805,12.237c-.216.945-.425,1.883-.635,2.821q-34.585-6.115-68.913-12.237C846.736,4451.129,846.986,4450.191,847.269,4449.252Z" transform="translate(-678.361 -4348.373)" fill="#dbdbdb"/>
        <path id="Trazado_105502" data-name="Trazado 105502" d="M844.535,4459.8q34.423,6.114,69.1,12.237c-.189.945-.365,1.883-.54,2.821q-34.808-6.115-69.251-12.237C844.07,4461.679,844.3,4460.741,844.535,4459.8Z" transform="translate(-677.49 -4351.803)" fill="#dbdbdb"/>
        <path id="Trazado_105503" data-name="Trazado 105503" d="M842.084,4470.343q34.572,6.128,69.521,12.244c-.155.938-.3,1.883-.432,2.821q-35.071-6.114-69.7-12.264C841.673,4472.226,841.875,4471.288,842.084,4470.343Z" transform="translate(-676.72 -4355.229)" fill="#dbdbdb"/>
        <path id="Trazado_105504" data-name="Trazado 105504" d="M839.956,4480.893q34.781,6.122,69.987,12.244c-.108.938-.2,1.883-.29,2.821q-35.367-6.129-70.2-12.244C839.612,4482.776,839.781,4481.838,839.956,4480.893Z" transform="translate(-676.063 -4358.658)" fill="#dbdbdb"/>
      </g>
      <g id="freepik--Folder--inject-28" transform="translate(591.188 4362.604)">
        <rect id="Rectángulo_6001" data-name="Rectángulo 6001" width="151.387" height="109.735" transform="translate(13.283 73.321)" fill="#d9a171"/>
        <path id="Trazado_105505" data-name="Trazado 105505" d="M731.088,4484.643H677.6v11.366h56.562Z" transform="translate(-664.314 -4422.688)" fill="#d9a171"/>
        <g id="Grupo_66110" data-name="Grupo 66110" transform="translate(13.283 61.955)" opacity="0.1">
          <rect id="Rectángulo_6002" data-name="Rectángulo 6002" width="151.387" height="109.735" transform="translate(0 11.366)"/>
          <path id="Trazado_105506" data-name="Trazado 105506" d="M731.088,4484.643H677.6v11.366h56.562Z" transform="translate(-677.597 -4484.643)"/>
        </g>
        <path id="Trazado_105507" data-name="Trazado 105507" d="M858.508,4542.915c-29.556-8.457-58.451-16.813-86.9-25.088,7.155-33.445,27.2-66.207,28.564-100.144,29.529,7.971,58.4,15.942,86.867,23.947C879.756,4475.6,859.737,4508.674,858.508,4542.915Z" transform="translate(-694.871 -4400.924)" fill="#aed3f2"/>
        <path id="Trazado_105508" data-name="Trazado 105508" d="M858.388,4542.72c-29.556-8.39-58.472-16.691-86.942-24.9l-.209-.061.04-.189c7.128-33.451,27.133-66.227,28.429-100.177v-.311l.344.095c29.55,7.991,58.438,16,86.867,24.042l.236.068a.374.374,0,0,1-.047.216C879.777,4475.467,859.7,4508.534,858.388,4542.72Zm0,0c1.147-34.241,21.106-67.314,28.267-101.352.061.095.122.189.189.283-28.429-7.971-57.3-15.922-86.807-23.859l.358-.216c-1.438,33.93-21.518,66.679-28.706,100.11l-.162-.243Q814.161,4529.947,858.388,4542.72Z" transform="translate(-694.751 -4400.729)" fill="#dbdbdb"/>
        <path id="Trazado_105509" data-name="Trazado 105509" d="M871.223,4497.28c-4.394,11.738-17.711,18.278-30.137,14.606s-18.939-16.07-14.653-27.741a24.335,24.335,0,0,1,29.7-14.714C868.726,4473.029,875.671,4485.536,871.223,4497.28Z" transform="translate(-712.264 -4417.426)" fill="#455a64"/>
        <path id="Trazado_105510" data-name="Trazado 105510" d="M848.841,4490.706c-5.1,5.818-10.253,11.623-15.281,17.427a20.748,20.748,0,0,1-7.128-23.981c4.225-11.616,17.184-18.292,29.7-14.715s19.526,16.2,15.106,27.85Q860.038,4493.986,848.841,4490.706Z" transform="translate(-712.263 -4417.432)" fill="#dbdbdb"/>
        <path id="Trazado_105511" data-name="Trazado 105511" d="M848.85,4490.706c4.441,5.974,8.835,11.947,13.324,17.94a25.189,25.189,0,0,1-21.079,3.247c-12.406-3.638-18.9-16.145-14.653-27.741a24.44,24.44,0,0,1,29.7-14.714c12.514,3.578,19.527,16.2,15.106,27.849Q860.048,4493.986,848.85,4490.706Z" transform="translate(-712.272 -4417.433)" fill="#dbdbdb"/>
        <path id="Trazado_105512" data-name="Trazado 105512" d="M848.848,4490.706l-23.482,3.915a21.351,21.351,0,0,1,1.073-10.468c4.225-11.616,17.184-18.292,29.7-14.715s19.526,16.2,15.106,27.85Q860.046,4493.986,848.848,4490.706Z" transform="translate(-712.27 -4417.432)" fill="#d9a171"/>
        <path id="Trazado_105513" data-name="Trazado 105513" d="M823.593,4439.493q18,5,35.739,10.01c-.209.871-.418,1.735-.641,2.6q-17.683-5.014-35.584-10.016C823.276,4441.221,823.458,4440.357,823.593,4439.493Z" transform="translate(-711.611 -4408.012)" fill="#6595bf"/>
        <path id="Trazado_105514" data-name="Trazado 105514" d="M819.421,4538.553q23.711,7,47.679,14.045c-.236.864-.472,1.728-.675,2.592q-24.076-7.067-47.828-14.066C818.853,4540.268,819.137,4539.411,819.421,4538.553Z" transform="translate(-710.145 -4440.211)" fill="#dbdbdb"/>
        <path id="Trazado_105515" data-name="Trazado 105515" d="M816.39,4548.163q23.867,7.02,48.064,14.107c-.2.863-.4,1.734-.587,2.6q-24.3-7.107-48.239-14.134C815.877,4549.878,816.127,4549.021,816.39,4548.163Z" transform="translate(-709.179 -4443.335)" fill="#dbdbdb"/>
        <path id="Trazado_105516" data-name="Trazado 105516" d="M813.7,4557.783q24.055,7.053,48.53,14.174c-.162.864-.317,1.735-.459,2.605q-24.6-7.148-48.739-14.208C813.243,4559.5,813.466,4558.641,813.7,4557.783Z" transform="translate(-708.334 -4446.462)" fill="#dbdbdb"/>
        <path id="Trazado_105517" data-name="Trazado 105517" d="M803.2,4536.6l-5.751-1.687.871-2.565,5.744,1.694C803.771,4534.9,803.481,4535.755,803.2,4536.6Z" transform="translate(-703.27 -4438.196)" fill="#d9a171"/>
        <path id="Trazado_105518" data-name="Trazado 105518" d="M800.148,4546.2l-5.791-1.7c.263-.85.533-1.707.8-2.564l5.778,1.7C800.668,4544.484,800.4,4545.342,800.148,4546.2Z" transform="translate(-702.266 -4441.31)" fill="#455a64"/>
        <path id="Trazado_105519" data-name="Trazado 105519" d="M797.438,4555.806l-5.811-1.708c.229-.857.466-1.707.709-2.564l5.818,1.7Q797.769,4554.516,797.438,4555.806Z" transform="translate(-701.378 -4444.43)" fill="#dbdbdb"/>
        <path id="Trazado_105520" data-name="Trazado 105520" d="M822.771,4615.6H671.384l-11.677-100.63H811.094Z" transform="translate(-658.499 -4432.547)" fill="#d9a171"/>
        <path id="Trazado_105521" data-name="Trazado 105521" d="M711.408,4499.533H657.917l1.208,10.421h56.562Z" transform="translate(-657.917 -4427.528)" fill="#d9a171"/>
        <path id="Trazado_105522" data-name="Trazado 105522" d="M812.924,4398.252a9.725,9.725,0,0,1-.338-2.7,9.475,9.475,0,0,1,.338-2.7A10.932,10.932,0,0,1,812.924,4398.252Z" transform="translate(-708.19 -4392.853)" fill="#344154"/>
        <path id="Trazado_105523" data-name="Trazado 105523" d="M803.65,4400.954a9.935,9.935,0,0,1-1.64-2.167,9.726,9.726,0,0,1-1.053-2.5,9.835,9.835,0,0,1,1.64,2.167A9.67,9.67,0,0,1,803.65,4400.954Z" transform="translate(-704.411 -4393.968)" fill="#344154"/>
        <path id="Trazado_105524" data-name="Trazado 105524" d="M796.838,4408.006a9.713,9.713,0,0,1-2.5-1.053,9.56,9.56,0,0,1-2.167-1.64,9.679,9.679,0,0,1,2.5,1.053A10.078,10.078,0,0,1,796.838,4408.006Z" transform="translate(-701.554 -4396.903)" fill="#344154"/>
        <path id="Trazado_105525" data-name="Trazado 105525" d="M794.457,4417.333a10.94,10.94,0,0,1-5.4,0A11.174,11.174,0,0,1,794.457,4417.333Z" transform="translate(-700.543 -4400.703)" fill="#344154"/>
        <path id="Trazado_105526" data-name="Trazado 105526" d="M797.158,4425.66a9.844,9.844,0,0,1-2.167,1.64,9.627,9.627,0,0,1-2.5,1.053,10.907,10.907,0,0,1,4.671-2.7Z" transform="translate(-701.658 -4403.514)" fill="#344154"/>
        <path id="Trazado_105527" data-name="Trazado 105527" d="M804.21,4431.493a9.8,9.8,0,0,1-1.053,2.5,9.622,9.622,0,0,1-1.64,2.159,9.671,9.671,0,0,1,1.053-2.5A9.776,9.776,0,0,1,804.21,4431.493Z" transform="translate(-704.593 -4405.413)" fill="#344154"/>
        <path id="Trazado_105528" data-name="Trazado 105528" d="M813.564,4433.563a10.918,10.918,0,0,1,0,5.4A10.915,10.915,0,0,1,813.564,4433.563Z" transform="translate(-708.398 -4406.085)" fill="#344154"/>
        <path id="Trazado_105529" data-name="Trazado 105529" d="M821.867,4431.2a10.034,10.034,0,0,1,1.64,2.167,9.659,9.659,0,0,1,1.053,2.5,9.589,9.589,0,0,1-1.64-2.167A9.726,9.726,0,0,1,821.867,4431.2Z" transform="translate(-711.208 -4405.318)" fill="#344154"/>
        <path id="Trazado_105530" data-name="Trazado 105530" d="M827.73,4425.1a9.641,9.641,0,0,1,2.5,1.053,9.78,9.78,0,0,1,2.153,1.64,10.8,10.8,0,0,1-4.664-2.7Z" transform="translate(-713.109 -4403.332)" fill="#344154"/>
        <path id="Trazado_105531" data-name="Trazado 105531" d="M829.757,4416.719a10.076,10.076,0,0,1,2.7-.337,1.371,1.371,0,1,1,0,.675A10.017,10.017,0,0,1,829.757,4416.719Z" transform="translate(-713.772 -4400.5)" fill="#344154"/>
        <path id="Trazado_105532" data-name="Trazado 105532" d="M827.407,4407.453a9.872,9.872,0,0,1,2.167-1.64,9.46,9.46,0,0,1,2.5-1.06,9.549,9.549,0,0,1-2.167,1.641A9.933,9.933,0,0,1,827.407,4407.453Z" transform="translate(-713.008 -4396.721)" fill="#344154"/>
        <path id="Trazado_105533" data-name="Trazado 105533" d="M821.307,4400.634a9.729,9.729,0,0,1,1.053-2.5,9.585,9.585,0,0,1,1.64-2.167,9.673,9.673,0,0,1-1.053,2.5A9.846,9.846,0,0,1,821.307,4400.634Z" transform="translate(-711.026 -4393.864)" fill="#344154"/>
      </g>
      <g id="freepik--Note--inject-28" transform="translate(698.676 4456.181)">
        <path id="Trazado_105534" data-name="Trazado 105534" d="M817.167,4566.159h34.686a18.5,18.5,0,0,0,1.721-6.905v-27.761H818.888v28.146A19.545,19.545,0,0,1,817.167,4566.159Z" transform="translate(-817.167 -4531.493)" fill="#455a64"/>
        <path id="Trazado_105535" data-name="Trazado 105535" d="M826.007,4543.4c4.05-.337,8.16-.412,12.237-.432s8.16.094,12.237.432c-4.05.331-8.16.412-12.237.426S830.084,4543.735,826.007,4543.4Z" transform="translate(-820.04 -4535.224)" fill="#fff"/>
        <path id="Trazado_105536" data-name="Trazado 105536" d="M826.007,4550.174c3.672-.331,7.337-.412,11.009-.432s7.337.094,11,.432c-3.665.337-7.337.412-11,.432S829.679,4550.511,826.007,4550.174Z" transform="translate(-820.04 -4537.424)" fill="#fff"/>
        <path id="Trazado_105537" data-name="Trazado 105537" d="M826.007,4556.955c3.206-.337,6.419-.412,9.625-.432a95.817,95.817,0,0,1,9.632.432c-3.213.331-6.419.412-9.632.425A89.952,89.952,0,0,1,826.007,4556.955Z" transform="translate(-820.04 -4539.628)" fill="#fff"/>
        <path id="Trazado_105538" data-name="Trazado 105538" d="M826.007,4563.724c4.05-.331,8.16-.412,12.237-.432s8.16.094,12.237.432c-4.05.337-8.16.412-12.237.432S830.084,4564.062,826.007,4563.724Z" transform="translate(-820.04 -4541.828)" fill="#fff"/>
      </g>
      <g id="freepik--Plant--inject-28" transform="translate(758.515 4412.906)">
        <path id="Trazado_105539" data-name="Trazado 105539" d="M951.625,4535.694a51.619,51.619,0,0,0-1.663,9.4c.09.152.072.737,0,.575,0,.522-.8.423-.8-.081v-.989c-1.8-2.283-4.5-3.731-6.663-5.709a12.534,12.534,0,0,1-3.65-5.808c-1.8-6.167-.108-12.7-2.265-18.88-1.852-5.3-5.179-9.89-7.993-14.709-2.967-5.08-5.161-10.42-5.394-16.372-.171-4.55.369-10.627,3.839-14.035,3.677-3.6,8.236-.9,11.059,2.32,8.164,9.368,11.94,21.209,13.486,33.319.845,6.707,1.717,13.487,1.519,20.211A54.529,54.529,0,0,1,951.625,4535.694Z" transform="translate(-911.462 -4467.378)" fill="#6595bf"/>
        <path id="Trazado_105540" data-name="Trazado 105540" d="M954.141,4555.47a115.278,115.278,0,0,0-.225-18.979v-.072c.1-5.133.5-10.241.306-15.383a91.137,91.137,0,0,0-2.256-16.5c0-.063-.117,0-.1,0a106.637,106.637,0,0,1,1.8,16.129q.161,4.361-.063,8.7c-.054.944-.144,1.888-.207,2.841h0a101.6,101.6,0,0,0-15.284-40.4c-.107-.17-.4,0-.3.18a105.554,105.554,0,0,1,12.425,29.958c-3.929-7.274-9.89-13.253-14.259-20.248,0,0-.08,0-.063.045,3.947,7.786,10.483,13.918,14.646,21.578.72,3.129,1.313,6.293,1.753,9.449a105.316,105.316,0,0,1,.944,13.136c-2.391-4.5-4.873-8.748-6.833-13.486,0-.126-.234,0-.189.09,1.663,4.909,3.9,10.2,7.04,14.384q0,4.666-.261,9.324c-.485,8.289-1.905,16.471-2.562,24.733a.19.19,0,0,0,.378.044A189.272,189.272,0,0,0,954.141,4555.47Z" transform="translate(-915.604 -4475.295)" fill="#344154"/>
        <path id="Trazado_105541" data-name="Trazado 105541" d="M949.835,4491.5a.054.054,0,0,0-.075-.016.05.05,0,0,0-.015.016c1.511,4.181,2.364,8.424,3.461,12.721a.162.162,0,0,0,.315-.054A46.008,46.008,0,0,0,949.835,4491.5Z" transform="translate(-920.1 -4475.21)" fill="#344154"/>
        <path id="Trazado_105542" data-name="Trazado 105542" d="M992.446,4515.205a63.373,63.373,0,0,1-3.479,7.192c-2.7,4.944-5.575,9.484-6.087,15.284a34.8,34.8,0,0,1-1.1,7.642,22.712,22.712,0,0,1-3.039,5.979c-2.958,4.307-6.653,8.011-9.386,12.48a52.411,52.411,0,0,0-6.239,15.041c-.072.287-.522.206-.459-.081a.127.127,0,0,0,0-.063v-.063c-.431-12.361.557-24.813,4.324-36.663a126.349,126.349,0,0,1,5.988-15.284,36.218,36.218,0,0,1,8.091-11.626c2.3-2.076,7.292-6,10.564-3.919C993.183,4512.075,993.067,4513.658,992.446,4515.205Z" transform="translate(-924.267 -4481.404)" fill="#6595bf"/>
        <path id="Trazado_105543" data-name="Trazado 105543" d="M978.521,4548.293a102.09,102.09,0,0,1-7.192,10.321c-1.2,1.564-2.418,3.111-3.6,4.676-.566.745-1.2,1.482-1.717,2.274.323-1.3.638-2.607.971-3.9a152.5,152.5,0,0,1,5.512-18.548,124.8,124.8,0,0,1,8.577-16.831c.081-.145-.144-.244-.234-.108-2.607,4.3-5.259,8.586-7.454,13.118a66.631,66.631,0,0,0-3.164,7.777,119.582,119.582,0,0,1,4.208-16.624c0-.045-.054-.081-.072,0a56.807,56.807,0,0,0-4.37,17.262h0c-.539,1.6-1.034,3.228-1.492,4.855-1.951,6.915-3.659,13.909-5.242,20.922a74.338,74.338,0,0,1,1.2-13.747.081.081,0,0,0-.162,0,43.44,43.44,0,0,0-1.2,14.484q-.9,4-1.754,8.011c-1.214,5.7-2.7,11.5-3.417,17.28a.117.117,0,0,0,.225.045c.9-3.119,1.358-6.357,2.059-9.512s1.411-6.293,2.148-9.485q1.6-6.9,3.344-13.774a24.651,24.651,0,0,1,3.354-4.576c1.115-1.412,2.427-3.093,3.6-4.667a69.683,69.683,0,0,0,5.952-9.206C978.664,4548.276,978.557,4548.222,978.521,4548.293Z" transform="translate(-922.758 -4486.469)" fill="#344154"/>
        <path id="Trazado_105544" data-name="Trazado 105544" d="M985.827,4551.131A64.3,64.3,0,0,0,978.8,4562.3c0,.054.054.108.09.054,2.364-3.7,4.693-7.445,7.049-11.158C985.98,4551.139,985.872,4551.068,985.827,4551.131Z" transform="translate(-929.543 -4494.593)" fill="#344154"/>
        <path id="Trazado_105545" data-name="Trazado 105545" d="M909.486,4528.137c1.609,2.76,3.434,6.078,2.7,9.387-.431,2.094-1.969,3.8-2.248,5.942-.62,4.721,4.091,7.84,7.5,10.069,8.488,5.575,20.121,10.538,21.668,21.911.063.4.755.3.7-.1a.254.254,0,0,0,0-.071v-.063a43.45,43.45,0,0,0-.162-17.369,55.1,55.1,0,0,0-6.841-16.283c-5.107-8.712-10.519-17.64-18.242-24.274-2.14-1.852-6.519-5.17-8.218-1S907.526,4524.774,909.486,4528.137Z" transform="translate(-905.824 -4482.621)" fill="#6595bf"/>
        <path id="Trazado_105546" data-name="Trazado 105546" d="M922.7,4556.37c5.619,6.1,14.574,9.512,19.411,16.337a68.259,68.259,0,0,0-14.925-28.033c-.18-.207.108-.513.315-.315a55.2,55.2,0,0,1,12.191,17.667,78.151,78.151,0,0,0-5.251-13.432.145.145,0,1,1,.252-.144,51.14,51.14,0,0,1,5.629,15.06c6.374,15.454,6.967,33.571,5.628,49.862a.18.18,0,0,1-.359,0c.359-12.838.153-25.893-2.923-38.426-.063-.26-.134-.521-.2-.782-5.268-7.345-14.178-10.788-19.905-17.729C922.552,4556.406,922.642,4556.316,922.7,4556.37Z" transform="translate(-911.266 -4492.379)" fill="#344154"/>
        <path id="Trazado_105547" data-name="Trazado 105547" d="M920.73,4554.416c2.958,2.7,5.862,5.484,8.829,8.191m0,.063a43.252,43.252,0,0,1-8.991-8.091.115.115,0,1,1,.162-.162Z" transform="translate(-910.605 -4495.657)" fill="#344154"/>
        <path id="Trazado_105548" data-name="Trazado 105548" d="M920.053,4537.017a93.138,93.138,0,0,0,8.847,12.165.054.054,0,0,1-.081.072,42.759,42.759,0,0,1-8.919-12.138.091.091,0,0,1,.153-.1Z" transform="translate(-910.394 -4490)" fill="#344154"/>
        <path id="Trazado_105549" data-name="Trazado 105549" d="M939.848,4646.936h25.875l-3.488-34.812h-18.4Z" transform="translate(-916.883 -4514.426)" fill="#455a64"/>
        <path id="Trazado_105550" data-name="Trazado 105550" d="M944.789,4617.787h19.618l-.566-5.664h-18.4Z" transform="translate(-918.489 -4514.426)" fill="#344154"/>
        <rect id="Rectángulo_6003" data-name="Rectángulo 6003" width="24.257" height="5.556" transform="translate(23.774 93.849)" fill="#455a64"/>
      </g>
    </g>
  </g>
</svg>
