<svg xmlns="http://www.w3.org/2000/svg" xmlns:xlink="http://www.w3.org/1999/xlink" width="258.047" height="258.047" viewBox="0 0 258.047 258.047">
  <defs>
    <clipPath id="clip-path">
      <path id="Trazado_102732" data-name="Trazado 102732" d="M316.381,5412.089A115.889,115.889,0,1,1,200.49,5296.2,115.889,115.889,0,0,1,316.381,5412.089Z" fill="#aed3f2"/>
    </clipPath>
  </defs>
  <g id="Grupo_58877" data-name="Grupo 58877" transform="translate(-71.469 -5283.064)">
    <g id="Grupo_58876" data-name="Grupo 58876">
      <g id="Grupo_58873" data-name="Grupo 58873">
        <g id="Grupo_58872" data-name="Grupo 58872">
          <path id="Trazado_102699" data-name="Trazado 102699" d="M316.381,5412.089A115.889,115.889,0,1,1,200.49,5296.2,115.889,115.889,0,0,1,316.381,5412.089Z" fill="#aed3f2"/>
          <g id="Grupo_58871" data-name="Grupo 58871" clip-path="url(#clip-path)">
            <g id="Grupo_58870" data-name="Grupo 58870">
              <rect id="Rect치ngulo_5463" data-name="Rect치ngulo 5463" width="41.556" height="40.787" transform="translate(179.746 5441.693)" fill="#344154"/>
              <g id="Grupo_58860" data-name="Grupo 58860">
                <path id="Trazado_102700" data-name="Trazado 102700" d="M238.737,5397.755c.311-5.385,5.3-18.324-2.77-34.465-9.077-18.159-30.81-18.159-35.39-18.159s-26.313,0-35.394,18.159c-8.068,16.141-3.076,29.08-2.765,34.465s-1.465,22.969,2.765,34.508,11.963,14.111,16.882,17.808,8.626,8.158,18.512,8.158,14.239-4.859,19.163-8.55,12-5.876,16.227-17.416S238.432,5403.143,238.737,5397.755Z" fill="#344154"/>
                <path id="Trazado_102701" data-name="Trazado 102701" d="M242.584,5366.366s2.309-3.922,1.654-6.54-2.076-3.114-2.231-3.617,3.541-7.075,1-11.5c-2.032-3.547-5.385-3.039-5.768-3.425s-1.116-5.655-6.656-6.5-6.845,2.884-8.038,2.657-3.58-6.543-9-7.042c-4.783-.442-7.117,4.154-7.729,4.116s-.576-4.114-5.234-4.114-4.618,4.077-5.235,4.114-2.944-4.558-7.732-4.116c-5.419.5-7.806,6.811-9,7.042s-2.5-3.5-8.039-2.657-6.272,6.117-6.66,6.5-3.731-.122-5.763,3.425c-2.542,4.424,1.149,11,1,11.5s-1.582,1-2.232,3.617,1.654,6.54,1.654,6.54a26.4,26.4,0,0,0-2.154,12.925,93.463,93.463,0,0,0,3.3,16l3.542,4.846s7.232-33.929,11.463-33.929,25.852-.538,25.852-.538,21.618.538,25.853.538,11.463,33.929,11.463,33.929l3.541-4.846a93.356,93.356,0,0,0,3.3-16A26.387,26.387,0,0,0,242.584,5366.366Z" fill="#344154"/>
                <g id="Grupo_58855" data-name="Grupo 58855">
                  <path id="Trazado_102702" data-name="Trazado 102702" d="M163.223,5394.411c-1.015-1.528-2.9-1.426-5.346.269-3,2.079-3.178,6.549-2.771,8.848.462,2.616,1.578,3.673,2.538,7.154.684,2.481.674,3.289,2.464,4.846s3.8-.172,3.8-.172S164.236,5395.939,163.223,5394.411Z" fill="#344154"/>
                </g>
                <path id="Trazado_102703" data-name="Trazado 102703" d="M188.7,5395.149a29.037,29.037,0,0,0-8.261.627,44.33,44.33,0,0,0-8.228,2.251c-1.033.333-2.14-4.98-1.4-5.459s2.9-1.648,8.412-2.693a35.686,35.686,0,0,1,9.149-.776C189.177,5389.135,189.769,5395.187,188.7,5395.149Z" fill="#344154"/>
                <path id="Trazado_102704" data-name="Trazado 102704" d="M212,5395.149a29.073,29.073,0,0,1,8.267.627,44.444,44.444,0,0,1,8.227,2.251c1.034.333,2.14-4.98,1.4-5.459s-2.892-1.648-8.412-2.693a35.675,35.675,0,0,0-9.15-.776C211.517,5389.135,210.93,5395.187,212,5395.149Z" fill="#344154"/>
                <g id="Grupo_58858" data-name="Grupo 58858">
                  <g id="Grupo_58856" data-name="Grupo 58856">
                    <path id="Trazado_102705" data-name="Trazado 102705" d="M200.151,5422.684a.46.46,0,0,1-.447-.352,53.368,53.368,0,0,1-1.043-20.506.462.462,0,0,1,.907.172,52.423,52.423,0,0,0,1.033,20.114.465.465,0,0,1-.339.559A.514.514,0,0,1,200.151,5422.684Z" fill="#344154"/>
                  </g>
                  <g id="Grupo_58857" data-name="Grupo 58857">
                    <path id="Trazado_102706" data-name="Trazado 102706" d="M200.471,5426.319c-1.873,0-3.11-1.141-4.308-2.247a11.386,11.386,0,0,0-1.713-1.4.458.458,0,0,1-.15-.635.462.462,0,0,1,.635-.151,12.366,12.366,0,0,1,1.858,1.51c1.14,1.057,2.236,2.059,3.8,2,1.872-.06,2.387-1.411,2.881-2.718.321-.84.621-1.636,1.349-1.824a.462.462,0,0,1,.233.894c-.267.068-.495.672-.718,1.259-.491,1.286-1.232,3.231-3.712,3.313Z" fill="#344154"/>
                  </g>
                </g>
                <path id="Trazado_102707" data-name="Trazado 102707" d="M185.533,5408.358c0,2.443-1.552,4.422-3.464,4.422s-3.463-1.979-3.463-4.422,1.548-4.417,3.463-4.417S185.533,5405.918,185.533,5408.358Z" fill="#344154"/>
                <path id="Trazado_102708" data-name="Trazado 102708" d="M215.34,5408.358c0,2.443,1.552,4.422,3.463,4.422s3.464-1.979,3.464-4.422-1.552-4.417-3.464-4.417S215.34,5405.918,215.34,5408.358Z" fill="#344154"/>
                <path id="Trazado_102709" data-name="Trazado 102709" d="M212.424,5434.455c-1.261-1.29-3.347.75-11.847.75s-10.828-1.953-11.807-.75,2.784,9.259,11.807,9.259S213.681,5435.75,212.424,5434.455Z" fill="#344154"/>
                <g id="Grupo_58859" data-name="Grupo 58859">
                  <path id="Trazado_102710" data-name="Trazado 102710" d="M238.267,5394.411c.975-1.528,2.9-1.426,5.351.269,3,2.079,3.172,6.549,2.77,8.848-.461,2.616-1.577,3.673-2.543,7.154-.683,2.481-.674,3.289-2.459,4.846s-3.813-.172-3.813-.172S237.3,5395.939,238.267,5394.411Z" fill="#344154"/>
                </g>
              </g>
              <path id="Trazado_102711" data-name="Trazado 102711" d="M124.272,5584.608c.189.066.373.124.558.192,8.572,3.132,16.974,6.736,25.324,10.421,16.236,1.717,32.551,2.957,48.807,3.762q5.574.278,11.159.463c20.768-.16,41.546-.929,62.207-3q2.67-.462,5.332-.965c-1.058-12.037-1.689-20.317-1.635-22.368l45.009-21.126s-23.688-74.212-64.652-83.391c-18.08-4.051-27.269-7.036-27.269-7.036l-19.448,11.563-7.243,9.355-1.96-4.953L171.9,5461.562s-9.732,1.054-27.265,7.036c-45.907,15.668-64.676,83.391-64.676,83.391l45.034,21.141C125.024,5574.481,124.762,5578.547,124.272,5584.608Z" fill="#db6060"/>
              <path id="Trazado_102712" data-name="Trazado 102712" d="M124.272,5584.608c.189.066.373.124.558.192,8.572,3.132,16.974,6.736,25.324,10.421,16.236,1.717,32.551,2.957,48.807,3.762q5.574.278,11.159.463c20.768-.16,41.546-.929,62.207-3q2.67-.462,5.332-.965c-1.058-12.037-1.689-20.317-1.635-22.368l45.009-21.126s-23.688-74.212-64.652-83.391c-18.08-4.051-27.269-7.036-27.269-7.036l-19.448,11.563-7.243,9.355-1.96-4.953L171.9,5461.562s-9.732,1.054-27.265,7.036c-45.907,15.668-64.676,83.391-64.676,83.391l45.034,21.141C125.024,5574.481,124.762,5578.547,124.272,5584.608Z" fill="#344154"/>
              <g id="Grupo_58861" data-name="Grupo 58861">
                <path id="Trazado_102713" data-name="Trazado 102713" d="M142.673,5562c-1.262,1.863.752,25.8,2.711,27.311a5.32,5.32,0,0,0,2.043.461c7.369.8,31.359-.124,33.115-1.967,2.013-2.113,1.911-27.361-.753-27.614S143.929,5560.137,142.673,5562Z" fill="#e07d7d"/>
                <path id="Trazado_102714" data-name="Trazado 102714" d="M142.673,5562a20.931,20.931,0,0,0,8.354,8.441,22.875,22.875,0,0,0,11.332,2.572,18.418,18.418,0,0,0,10.939-3.352,21.331,21.331,0,0,0,7.044-9.557,17.71,17.71,0,0,1-5.87,11.026,16.967,16.967,0,0,1-5.66,3.246,21.4,21.4,0,0,1-6.419,1.048,25.6,25.6,0,0,1-6.413-.754,19.95,19.95,0,0,1-5.923-2.62A17.506,17.506,0,0,1,142.673,5562Z" fill="#db6060"/>
              </g>
              <g id="Grupo_58862" data-name="Grupo 58862">
                <path id="Trazado_102715" data-name="Trazado 102715" d="M263.168,5562.8c1.261,1.86-.752,25.8-2.717,27.31s-33.143.6-35.152-1.508-1.911-27.361.752-27.611S261.911,5560.942,263.168,5562.8Z" fill="#e07d7d"/>
                <path id="Trazado_102716" data-name="Trazado 102716" d="M263.168,5562.8a20.95,20.95,0,0,1-8.354,8.441,22.911,22.911,0,0,1-11.332,2.571,18.4,18.4,0,0,1-10.94-3.354,21.34,21.34,0,0,1-7.044-9.555,17.721,17.721,0,0,0,5.865,11.027,17.047,17.047,0,0,0,5.667,3.246,21.335,21.335,0,0,0,6.418,1.048,25.452,25.452,0,0,0,6.408-.757,19.8,19.8,0,0,0,5.924-2.618A17.518,17.518,0,0,0,263.168,5562.8Z" fill="#db6060"/>
              </g>
              <path id="Trazado_102717" data-name="Trazado 102717" d="M210.12,5599.446l.17,0c.034-61.941.116-117.849.291-119.6a27.931,27.931,0,0,1,1.314-6.165l-2.013-4.849-3.852-.956a26.543,26.543,0,0,0-3.9,9.906c-.441,2.276-.611,58.618-.664,121.317Q205.793,5599.3,210.12,5599.446Z" fill="#344154"/>
              <path id="Trazado_102718" data-name="Trazado 102718" d="M179.785,5455.589a32.161,32.161,0,0,0,6.214,6.545,41,41,0,0,0,9.178,5.739,22.606,22.606,0,0,0-5.734,5.87,60.19,60.19,0,0,0-4.39,7.218,35.7,35.7,0,0,1-9.983-10.659,23.127,23.127,0,0,1-3.513-9.854Z" fill="#344154"/>
              <path id="Trazado_102719" data-name="Trazado 102719" d="M221.433,5455.589a32.152,32.152,0,0,1-6.215,6.545,40.873,40.873,0,0,1-9.178,5.739,22.572,22.572,0,0,1,5.739,5.87,60.33,60.33,0,0,1,4.385,7.218,35.668,35.668,0,0,0,9.989-10.659,23.091,23.091,0,0,0,3.508-9.854Z" fill="#344154"/>
              <g id="Grupo_58863" data-name="Grupo 58863">
                <path id="Trazado_102720" data-name="Trazado 102720" d="M209.664,5495.758a3.621,3.621,0,1,1-3.624-3.622A3.621,3.621,0,0,1,209.664,5495.758Z" fill="#344154"/>
                <path id="Trazado_102721" data-name="Trazado 102721" d="M209.664,5538.786a3.621,3.621,0,1,1-3.624-3.621A3.622,3.622,0,0,1,209.664,5538.786Z" fill="#ffc3c3"/>
                <path id="Trazado_102722" data-name="Trazado 102722" d="M209.664,5581.812a3.621,3.621,0,1,1-3.624-3.622A3.621,3.621,0,0,1,209.664,5581.812Z" fill="#ffc3c3"/>
              </g>
              <path id="Trazado_102723" data-name="Trazado 102723" d="M195.177,5467.873a18.982,18.982,0,0,1,5.449,4.046,29.123,29.123,0,0,1,5.414,8l-4.172,7.694s-1.747-6.058-5.672-9.871-6.753-4-6.753-4l1.776-3.936Z" fill="#344154"/>
              <g id="Grupo_58864" data-name="Grupo 58864">
                <path id="Trazado_102724" data-name="Trazado 102724" d="M130.108,5555.812a.572.572,0,0,1-.131-.016.6.6,0,0,1-.456-.718c.024-.113,2.552-11.419,8.126-20.309a.6.6,0,1,1,1.018.64c-5.457,8.709-7.941,19.818-7.965,19.927A.608.608,0,0,1,130.108,5555.812Z" fill="#c75151"/>
              </g>
              <g id="Grupo_58865" data-name="Grupo 58865">
                <path id="Trazado_102725" data-name="Trazado 102725" d="M269.528,5555.812a.608.608,0,0,0,.131-.016.6.6,0,0,0,.456-.718c-.024-.113-2.552-11.419-8.126-20.309a.6.6,0,1,0-1.019.64c5.458,8.709,7.942,19.818,7.966,19.927A.608.608,0,0,0,269.528,5555.812Z" fill="#c75151"/>
              </g>
              <g id="Grupo_58866" data-name="Grupo 58866">
                <path id="Trazado_102726" data-name="Trazado 102726" d="M200.766,5599.065c.4.02.8.037,1.209.056l-.045-45.869.607-64.147c-.286-12.388,2.741-19.607,3.59-20.592.709.262,2.533,1.692,4.623,4.566a66.94,66.94,0,0,1,4.876,8.154.6.6,0,1,0,1.082-.538,68.69,68.69,0,0,0-4.982-8.327c-2.072-2.856-4.381-4.948-5.614-5.1a.9.9,0,0,0-.718.272c-1.314,1.193-4.351,9.1-4.065,21.568l-.606,64.137Z" fill="#344154"/>
              </g>
              <g id="Grupo_58867" data-name="Grupo 58867">
                <path id="Trazado_102727" data-name="Trazado 102727" d="M185.053,5481.566a.551.551,0,0,1-.261-.061.6.6,0,0,1-.282-.806c1.553-3.188,6.767-13.626,8.917-14,1.265-.231,4.385,2.072,5.3,2.782a29.313,29.313,0,0,1,4.992,5,.6.6,0,0,1-.966.724,28.816,28.816,0,0,0-4.764-4.764c-2.4-1.863-4.017-2.587-4.361-2.548-1.092.278-5.025,7.141-8.033,13.343A.6.6,0,0,1,185.053,5481.566Z" fill="#344154"/>
              </g>
              <g id="Grupo_58868" data-name="Grupo 58868">
                <path id="Trazado_102728" data-name="Trazado 102728" d="M279.386,5549.573a.6.6,0,0,1-.214-1.167c.194-.071,19.391-7.294,29.7-12.843a.6.6,0,1,1,.573,1.065c-10.377,5.585-29.651,12.836-29.845,12.908A.6.6,0,0,1,279.386,5549.573Z" fill="#c75151"/>
              </g>
              <g id="Grupo_58869" data-name="Grupo 58869">
                <path id="Trazado_102729" data-name="Trazado 102729" d="M123.67,5549.573a.6.6,0,0,0,.209-1.167c-.189-.071-19.39-7.294-29.7-12.843a.6.6,0,0,0-.573,1.065c10.382,5.585,29.656,12.836,29.85,12.908A.579.579,0,0,0,123.67,5549.573Z" fill="#c75151"/>
              </g>
              <path id="Trazado_102730" data-name="Trazado 102730" d="M132.524,5566.071l-48.716-25.442c-2.615,6.9-3.852,11.36-3.852,11.36l45.034,21.141c.019.845-.073,2.754-.267,5.543Z" fill="#db6060"/>
              <path id="Trazado_102731" data-name="Trazado 102731" d="M299.1,5544.343l-17.5,6.639-8.446,15.089,2.969,9.9c-.078-1.339-.112-2.316-.1-2.853l45.009-21.126s-2.275-7.118-6.626-17.212Z" fill="#db6060"/>
            </g>
          </g>
        </g>
      </g>
      <g id="Grupo_58875" data-name="Grupo 58875">
        <path id="Trazado_102733" data-name="Trazado 102733" d="M316.381,5464.4l-49.126-49.126v14.389H218.394v69.474h48.861v14.388Z" fill="#f2e9e4" stroke="#344154" stroke-miterlimit="10" stroke-width="1"/>
        <g id="_33_padlock" data-name="33 padlock">
          <g id="Grupo_58874" data-name="Grupo 58874">
            <path id="Trazado_102734" data-name="Trazado 102734" d="M269.256,5454.353a1.981,1.981,0,0,1-1.982-1.981v-.542a9.5,9.5,0,1,0-19,0v10.577a1.981,1.981,0,0,1-3.963,0V5451.83a13.462,13.462,0,0,1,26.924,0v.542a1.981,1.981,0,0,1-1.981,1.981Z" fill="#5e6178"/>
          </g>
          <path id="Trazado_102735" data-name="Trazado 102735" d="M257.775,5438.369a13.513,13.513,0,0,0-1.975.145,13.483,13.483,0,0,1,11.486,13.316v.542c0,.038,0,.076-.006.114a1.98,1.98,0,0,0,3.957-.114v-.542a13.477,13.477,0,0,0-13.462-13.461Z" fill="#5d6776"/>
          <path id="Trazado_102736" data-name="Trazado 102736" d="M273.743,5491H241.807a3.34,3.34,0,0,1-3.34-3.34v-23.67a3.34,3.34,0,0,1,3.34-3.34h31.936a3.34,3.34,0,0,1,3.34,3.34v23.67A3.34,3.34,0,0,1,273.743,5491Z" fill="#5e6178"/>
          <path id="Trazado_102737" data-name="Trazado 102737" d="M262.839,5473.181a5.064,5.064,0,1,0-7.6,4.38v5.84a2.54,2.54,0,0,0,5.079,0v-5.84A5.059,5.059,0,0,0,262.839,5473.181Z" fill="#bdbdbd"/>
          <path id="Trazado_102738" data-name="Trazado 102738" d="M273.743,5460.646h-3.951a3.34,3.34,0,0,1,3.34,3.34v23.67a3.34,3.34,0,0,1-3.34,3.34h3.951a3.34,3.34,0,0,0,3.34-3.34v-23.67a3.34,3.34,0,0,0-3.34-3.34Z" fill="#344154"/>
        </g>
      </g>
    </g>
    <rect id="Rect치ngulo_5464" data-name="Rect치ngulo 5464" width="258.047" height="258.047" transform="translate(71.469 5283.065)" fill="none"/>
  </g>
</svg>
