<svg xmlns="http://www.w3.org/2000/svg" xmlns:xlink="http://www.w3.org/1999/xlink" width="258.047" height="258.047" viewBox="0 0 258.047 258.047">
  <defs>
    <clipPath id="clip-path">
      <circle id="Elipse_4016" data-name="Elipse 4016" cx="115.889" cy="115.889" r="115.889" transform="translate(-708.656 5298.816) rotate(-1.279)" fill="#aed3f2"/>
    </clipPath>
  </defs>
  <g id="Grupo_66548" data-name="Grupo 66548" transform="translate(-210 -18087.963)">
    <g id="Grupo_58824" data-name="Grupo 58824" transform="translate(929.232 12804.898)">
      <g id="Grupo_58823" data-name="Grupo 58823">
        <g id="Grupo_58821" data-name="Grupo 58821">
          <g id="Grupo_58820" data-name="Grupo 58820">
            <circle id="Elipse_4015" data-name="Elipse 4015" cx="115.889" cy="115.889" r="115.889" transform="translate(-708.656 5298.816) rotate(-1.279)" fill="#aed3f2"/>
            <g id="Grupo_58819" data-name="Grupo 58819" clip-path="url(#clip-path)">
              <g id="Grupo_58818" data-name="Grupo 58818">
                <g id="Grupo_58817" data-name="Grupo 58817">
                  <path id="Trazado_102613" data-name="Trazado 102613" d="M-615.822,5432.162h7.6l-.471,28.276s-14.176-1.723-15.588-11.906C-626.173,5434.88-615.822,5432.162-615.822,5432.162Z" fill="#334b60"/>
                  <path id="Trazado_102614" data-name="Trazado 102614" d="M-564.592,5432.162h-7.6l.471,28.276s14.176-1.723,15.586-11.906C-554.241,5434.88-564.592,5432.162-564.592,5432.162Z" fill="#334b60"/>
                  <path id="Trazado_102615" data-name="Trazado 102615" d="M-678.526,5540.222a242.711,242.711,0,0,0,36.551,9.772,544.41,544.41,0,0,0,56.814,1.566c14.275-.245,28.546-.941,42.756-2.317a280.74,280.74,0,0,0,43.233-10.97q7.881-4.015,15.345-8.772,3.4-3.165,6.6-6.535c.435-.638.882-1.266,1.328-1.892-2.291-14.416-5.594-26.852-10.423-32.1-12.7-13.805-41.894-17.987-41.894-17.987l-61.98,3.785-.019.678v-.678l-61.981-3.785s-29.193,4.182-41.894,17.987c-5.923,6.438-9.552,23.684-11.831,42.139C-696.8,5534.174-687.582,5537-678.526,5540.222Z" fill="#6595bf"/>
                  <path id="Trazado_102616" data-name="Trazado 102616" d="M-570.219,5449.55c-.1-6.373.109-12.062.109-12.062h-40.22s.208,5.689.109,12.062a73.773,73.773,0,0,1-1.74,13.786s4.005,25.847,21.742,25.847,21.739-25.847,21.739-25.847A73.817,73.817,0,0,1-570.219,5449.55Z" fill="#ffbf9d"/>
                  <path id="Trazado_102617" data-name="Trazado 102617" d="M-618.721,5427.619a15.706,15.706,0,0,0-5.8,2.507,11.139,11.139,0,0,0-3.6,4.543s-7.784,1.872-12.688,8.145a23.289,23.289,0,0,0-4.936,12.532s-5.949-.217-8.458,4.231c-3.447,6.108,2.9,13.6,6.814,15.821,16.683,9.477,29.45,5.8,39.868,8.537,10.344,2.722,17.3,12.558,17.3,12.558s.634-19.764-7.433-29.319c-7.592-8.993-23.344-9.414-25.3-19.19-2.116-10.574,7.129-15.822,7.129-15.822Z" fill="#6595bf"/>
                  <path id="Trazado_102618" data-name="Trazado 102618" d="M-561.693,5427.619a15.719,15.719,0,0,1,5.8,2.507,11.131,11.131,0,0,1,3.6,4.543s7.784,1.872,12.688,8.145a23.277,23.277,0,0,1,4.937,12.532s5.95-.217,8.459,4.231c3.445,6.108-2.9,13.6-6.816,15.821-16.683,9.477-29.45,5.8-39.866,8.537-10.345,2.722-17.3,12.558-17.3,12.558s-.635-19.764,7.432-29.319c7.592-8.993,23.344-9.414,25.3-19.19,2.116-10.574-7.128-15.822-7.128-15.822Z" fill="#6595bf"/>
                  <g id="Grupo_58801" data-name="Grupo 58801">
                    <path id="Trazado_102619" data-name="Trazado 102619" d="M-629.843,5452.164a.629.629,0,0,0,.182-.028.624.624,0,0,0,.417-.78c-3.666-12.157,3.13-18.466,3.422-18.729a.626.626,0,0,0,.047-.883.613.613,0,0,0-.3-.176,10.3,10.3,0,0,0-2.04,3.1s-.393.1-1.035.305c-1.854,3.234-3.676,8.835-1.288,16.744A.628.628,0,0,0-629.843,5452.164Z" fill="#a3bfd9"/>
                    <path id="Trazado_102620" data-name="Trazado 102620" d="M-634.63,5469.161a.662.662,0,0,0,.244.05.628.628,0,0,0,.577-.385.627.627,0,0,0-.334-.821c-9.939-4.185-11.2-12.964-11.214-13.052a.622.622,0,0,0-.317-.451c-.06.531-.07.844-.07.844s-.313-.009-.816.025C-646.29,5456.913-644.434,5465.032-634.63,5469.161Z" fill="#a3bfd9"/>
                    <g id="Grupo_58799" data-name="Grupo 58799">
                      <path id="Trazado_102621" data-name="Trazado 102621" d="M-601.8,5477.9a.624.624,0,0,1-.529-.291c-2.21-3.478-4.876-4.473-7.963-5.626a26.251,26.251,0,0,1-8.837-4.889.624.624,0,0,1-.062-.884.628.628,0,0,1,.884-.064,25.142,25.142,0,0,0,8.455,4.664c3.161,1.179,6.147,2.295,8.58,6.127a.626.626,0,0,1-.192.865A.632.632,0,0,1-601.8,5477.9Z" fill="#a3bfd9"/>
                    </g>
                    <path id="Trazado_102622" data-name="Trazado 102622" d="M-551.172,5451.356a.626.626,0,0,0,.42.78.616.616,0,0,0,.18.028.628.628,0,0,0,.6-.446c2.389-7.909.565-13.51-1.288-16.744-.641-.207-1.035-.305-1.035-.305a10.3,10.3,0,0,0-2.04-3.1.587.587,0,0,0-.306.176.627.627,0,0,0,.05.884C-554.52,5432.693-547.491,5439.162-551.172,5451.356Z" fill="#a3bfd9"/>
                    <path id="Trazado_102623" data-name="Trazado 102623" d="M-534.67,5455.346s-.01-.314-.072-.846a.616.616,0,0,0-.316.453c-.011.088-1.243,8.855-11.214,13.052a.628.628,0,0,0-.334.821.627.627,0,0,0,.578.385.648.648,0,0,0,.242-.05c9.8-4.129,11.661-12.248,11.93-13.79C-534.357,5455.337-534.67,5455.346-534.67,5455.346Z" fill="#a3bfd9"/>
                    <g id="Grupo_58800" data-name="Grupo 58800">
                      <path id="Trazado_102624" data-name="Trazado 102624" d="M-578.611,5477.9a.636.636,0,0,1-.338-.1.628.628,0,0,1-.192-.865c2.435-3.832,5.421-4.948,8.582-6.127a25.162,25.162,0,0,0,8.455-4.664.629.629,0,0,1,.885.064.627.627,0,0,1-.064.884,26.247,26.247,0,0,1-8.836,4.889c-3.087,1.153-5.755,2.148-7.965,5.626A.62.62,0,0,1-578.611,5477.9Z" fill="#a3bfd9"/>
                    </g>
                  </g>
                  <path id="Trazado_102625" data-name="Trazado 102625" d="M-670.057,5532.979c3.7,4.6,6.975,8.691,8.616,12.566.5.136,1.005.274,1.509.407-1.571-4.317-5.118-8.737-9.148-13.756-5.158-6.425-11.005-13.708-13.5-22.2a.624.624,0,0,0-.777-.425.626.626,0,0,0-.424.779C-681.218,5519.08-675.288,5526.465-670.057,5532.979Z" fill="#36243f"/>
                  <path id="Trazado_102626" data-name="Trazado 102626" d="M-693.613,5488.482a20.86,20.86,0,0,0,2.856,7.78.63.63,0,0,0,.524.284.616.616,0,0,0,.342-.1.621.621,0,0,0,.183-.865,20.523,20.523,0,0,1-2.8-8.19C-692.887,5487.743-693.254,5488.11-693.613,5488.482Z" fill="#36243f"/>
                  <g id="Grupo_58802" data-name="Grupo 58802">
                    <path id="Trazado_102627" data-name="Trazado 102627" d="M-642.417,5549.907c.148.028.295.059.442.087q1.96.172,3.922.322a91.55,91.55,0,0,1-37.658-26.891.629.629,0,0,0-.878-.124.626.626,0,0,0-.124.877A92.937,92.937,0,0,0-642.417,5549.907Z" fill="#36243f"/>
                  </g>
                  <path id="Trazado_102628" data-name="Trazado 102628" d="M-518.248,5544.01c1.781-3.42,4.673-7.03,7.886-11.031,5.23-6.514,11.159-13.9,13.727-22.628a.628.628,0,0,0-.425-.779.626.626,0,0,0-.778.425c-2.5,8.491-8.344,15.774-13.5,22.2-3.557,4.431-6.734,8.4-8.511,12.233C-519.315,5544.293-518.783,5544.149-518.248,5544.01Z" fill="#36243f"/>
                  <path id="Trazado_102629" data-name="Trazado 102629" d="M-486.8,5488.482a20.865,20.865,0,0,1-2.857,7.78.633.633,0,0,1-.525.284.624.624,0,0,1-.343-.1.625.625,0,0,1-.183-.865,20.516,20.516,0,0,0,2.8-8.19C-487.533,5487.743-487.164,5488.11-486.8,5488.482Z" fill="#36243f"/>
                  <g id="Grupo_58803" data-name="Grupo 58803">
                    <path id="Trazado_102630" data-name="Trazado 102630" d="M-532.638,5547.368a92.409,92.409,0,0,0,28.931-23.19.626.626,0,0,0-.123-.877.631.631,0,0,0-.88.124,91.48,91.48,0,0,1-32.863,24.928Q-535.1,5547.882-532.638,5547.368Z" fill="#36243f"/>
                  </g>
                  <g id="Grupo_58808" data-name="Grupo 58808">
                    <path id="Trazado_102631" data-name="Trazado 102631" d="M-587.94,5486.677a2.507,2.507,0,0,1-2.506,2.506,2.507,2.507,0,0,1-2.506-2.506,2.506,2.506,0,0,1,2.506-2.507A2.506,2.506,0,0,1-587.94,5486.677Z" fill="#fff"/>
                    <g id="Grupo_58804" data-name="Grupo 58804">
                      <path id="Trazado_102632" data-name="Trazado 102632" d="M-568.911,5499.226a8.147,8.147,0,0,1-2.206-.355c-4.487-1.293-18.836-11.1-19.445-11.52l-1.149-.787,1.351-.338a47.723,47.723,0,0,1,10.348-1.25,21.508,21.508,0,0,1,7.408,1.113c3.763,1.4,7.472,7.2,6.841,10.7A2.9,2.9,0,0,1-568.911,5499.226Zm-19.733-12.089c3.616,2.433,14.309,9.5,17.875,10.529,2.228.642,3.522.305,3.773-1.1.482-2.671-2.621-8.032-6.047-9.3a20.23,20.23,0,0,0-6.969-1.035A46.557,46.557,0,0,0-588.644,5487.137Z" fill="#fff"/>
                    </g>
                    <g id="Grupo_58805" data-name="Grupo 58805">
                      <path id="Trazado_102633" data-name="Trazado 102633" d="M-611.546,5499.226h0a2.9,2.9,0,0,1-3.148-2.436c-.63-3.5,3.078-9.3,6.842-10.7a21.5,21.5,0,0,1,7.408-1.113,47.734,47.734,0,0,1,10.348,1.25l1.351.338-1.149.787c-.608.417-14.958,10.227-19.445,11.52A8.159,8.159,0,0,1-611.546,5499.226Zm11.1-13a20.257,20.257,0,0,0-6.972,1.035c-3.424,1.272-6.525,6.633-6.044,9.3.172.959.78,1.405,1.914,1.405h0a6.865,6.865,0,0,0,1.858-.307c3.566-1.026,14.257-8.1,17.877-10.529A46.581,46.581,0,0,0-600.444,5486.229Z" fill="#fff"/>
                    </g>
                    <g id="Grupo_58806" data-name="Grupo 58806">
                      <path id="Trazado_102634" data-name="Trazado 102634" d="M-605.536,5519.364a.627.627,0,0,1-.6-.445.629.629,0,0,1,.417-.782c.31-.093,7.551-2.44,6.763-13.769-.828-11.876,6.723-17.545,7.044-17.78a.623.623,0,0,1,.874.135.627.627,0,0,1-.133.876c-.074.054-7.312,5.521-6.533,16.683.859,12.366-7.568,15.031-7.652,15.056A.636.636,0,0,1-605.536,5519.364Z" fill="#fff"/>
                    </g>
                    <g id="Grupo_58807" data-name="Grupo 58807">
                      <path id="Trazado_102635" data-name="Trazado 102635" d="M-577.338,5518.32a.678.678,0,0,1-.141-.017c-.084-.02-8.136-2.04-7.273-14.439.776-11.149-6.24-16.206-6.312-16.257a.628.628,0,0,1-.154-.872.625.625,0,0,1,.873-.155c.314.218,7.67,5.483,6.843,17.371-.786,11.287,6.017,13.063,6.307,13.133a.625.625,0,0,1,.464.753A.624.624,0,0,1-577.338,5518.32Z" fill="#fff"/>
                    </g>
                  </g>
                  <path id="Trazado_102636" data-name="Trazado 102636" d="M-553.458,5346.519c-11.3-20.908-29.1-23.779-36.792-23.779s-25.49,2.871-36.792,23.779c-6.787,12.561-4.213,41.649-3.884,44.994s2.827,8.026,3.53,11.371-.9,8.811,3.369,18.74c3.907,9.089,19.589,22.932,33.777,22.98,14.191-.048,29.869-13.891,33.779-22.98,4.269-9.929,2.66-15.4,3.366-18.74s3.2-8.03,3.532-11.371S-546.669,5359.08-553.458,5346.519Z" fill="#ffbf9d"/>
                  <path id="Trazado_102637" data-name="Trazado 102637" d="M-553.443,5346.519c-11.3-20.905-29.1-23.779-36.788-23.779h-.02c-7.694,0-25.49,2.874-36.791,23.779-6.787,12.561-4.213,41.649-3.884,44.994.014.162.061.343.085.511l3.587-5.528s-.211-10.31.353-13,7.347-5.085,8.265-6.357-1.766-13.7,1.2-16.1,13.916.988,27.2.988,24.224-3.391,27.19-.988.284,14.831,1.2,16.1,7.7,3.673,8.264,6.357.353,13,.353,13l3.588,5.528c.026-.168.07-.349.085-.511C-549.23,5388.168-546.652,5359.08-553.443,5346.519Z" fill="#344154"/>
                  <path id="Trazado_102638" data-name="Trazado 102638" d="M-620.916,5383.106a27.664,27.664,0,0,1,12.05-5.225,35.131,35.131,0,0,1,11.775.045l-.284,3.155a48.213,48.213,0,0,0-10.6-.141,49.368,49.368,0,0,0-12.38,2.732Z" fill="#344154"/>
                  <path id="Trazado_102639" data-name="Trazado 102639" d="M-559.572,5383.106a27.688,27.688,0,0,0-12.055-5.225,35.114,35.114,0,0,0-11.771.045l.281,3.155a48.216,48.216,0,0,1,10.6-.141,49.414,49.414,0,0,1,12.385,2.732Z" fill="#344154"/>
                  <g id="Grupo_58809" data-name="Grupo 58809">
                    <path id="Trazado_102640" data-name="Trazado 102640" d="M-603.391,5393.236c0,2.286-1.538,4.142-3.436,4.142s-3.439-1.856-3.439-4.142,1.541-4.147,3.439-4.147S-603.391,5390.947-603.391,5393.236Z" fill="#344154"/>
                    <path id="Trazado_102641" data-name="Trazado 102641" d="M-570.233,5393.236c0,2.286-1.538,4.142-3.439,4.142s-3.439-1.856-3.439-4.142,1.54-4.147,3.439-4.147S-570.233,5390.947-570.233,5393.236Z" fill="#344154"/>
                  </g>
                  <g id="Grupo_58812" data-name="Grupo 58812">
                    <g id="Grupo_58810" data-name="Grupo 58810">
                      <path id="Trazado_102642" data-name="Trazado 102642" d="M-590.628,5408.16a.469.469,0,0,1-.085-.007.566.566,0,0,1-.472-.645,175.477,175.477,0,0,0,1.268-21.154.567.567,0,0,1,.568-.556h.009a.564.564,0,0,1,.556.571,176.92,176.92,0,0,1-1.284,21.312A.566.566,0,0,1-590.628,5408.16Z" fill="#d9a171"/>
                    </g>
                    <g id="Grupo_58811" data-name="Grupo 58811">
                      <path id="Trazado_102643" data-name="Trazado 102643" d="M-590.913,5411.29h-.011c-1.736-.008-2.68-1.388-3.591-2.723-.894-1.307-1.736-2.544-3.285-2.673a.566.566,0,0,1-.517-.609.559.559,0,0,1,.611-.517c2.082.175,3.168,1.763,4.124,3.164.815,1.191,1.519,2.223,2.663,2.228h.006c1.242,0,2.085-1.142,2.98-2.349.935-1.265,1.9-2.573,3.447-2.573h.011a.566.566,0,0,1,.564.568.564.564,0,0,1-.566.563h-.006c-.977,0-1.738,1.027-2.543,2.115C-588,5409.8-589.1,5411.29-590.913,5411.29Z" fill="#d9a171"/>
                    </g>
                  </g>
                  <path id="Trazado_102644" data-name="Trazado 102644" d="M-602.505,5419.271s2.984,9.041,12.255,9.041,12.257-9.041,12.257-9.041Z" fill="#fff"/>
                  <g id="Grupo_58813" data-name="Grupo 58813">
                    <path id="Trazado_102645" data-name="Trazado 102645" d="M-553.637,5387.062c.613-2.4,3.485-6.453,8.336-4.757,4.457,1.559,3.555,6.642,3.06,8.476-1.507,5.6-4.283,10.125-7.533,11.018-3.516.969-5.558.094-5.981-1.787s1.13-3.674,1.508-6.075S-554,5388.476-553.637,5387.062Z" fill="#ffbf9d"/>
                  </g>
                  <g id="Grupo_58814" data-name="Grupo 58814">
                    <path id="Trazado_102646" data-name="Trazado 102646" d="M-627.411,5387.062c-.614-2.4-3.486-6.453-8.336-4.757-4.456,1.559-3.556,6.642-3.062,8.476,1.508,5.6,4.286,10.125,7.535,11.018,3.517.969,5.56.094,5.981-1.787s-1.13-3.674-1.508-6.075S-627.05,5388.476-627.411,5387.062Z" fill="#ffbf9d"/>
                  </g>
                  <g id="Grupo_58815" data-name="Grupo 58815">
                    <path id="Trazado_102647" data-name="Trazado 102647" d="M-631.581,5481.913c-.023,0-.044,0-.067,0-12.392-1.305-20.526-9.946-20.866-10.314a.626.626,0,0,1,.035-.885.626.626,0,0,1,.884.034c.082.085,8.167,8.664,20.078,9.918a.628.628,0,0,1,.558.69A.629.629,0,0,1-631.581,5481.913Z" fill="#a3bfd9"/>
                  </g>
                  <g id="Grupo_58816" data-name="Grupo 58816">
                    <path id="Trazado_102648" data-name="Trazado 102648" d="M-549.124,5481.913l.068,0c12.391-1.305,20.525-9.946,20.864-10.314a.626.626,0,0,0-.035-.885.625.625,0,0,0-.883.034c-.082.085-8.169,8.664-20.079,9.918a.623.623,0,0,0-.556.69A.626.626,0,0,0-549.124,5481.913Z" fill="#a3bfd9"/>
                  </g>
                </g>
              </g>
            </g>
          </g>
        </g>
        <path id="Trazado_102649" data-name="Trazado 102649" d="M-474.321,5478.852l-49.126-49.126v14.389h-48.861v69.474h48.861v14.389Z" fill="#f2e9e4" stroke="#344154" stroke-miterlimit="10" stroke-width="1"/>
        <g id="_33_padlock" data-name="33 padlock">
          <g id="Grupo_58822" data-name="Grupo 58822">
            <path id="Trazado_102650" data-name="Trazado 102650" d="M-521.446,5480.9a1.981,1.981,0,0,1-1.981-1.981v-10.577a9.511,9.511,0,0,0-9.5-9.5,9.51,9.51,0,0,0-9.5,9.5v10.577a1.981,1.981,0,0,1-1.981,1.981,1.981,1.981,0,0,1-1.981-1.981v-10.577a13.477,13.477,0,0,1,13.461-13.461,13.477,13.477,0,0,1,13.462,13.461v10.577a1.981,1.981,0,0,1-1.981,1.981Z" fill="#5e6178"/>
          </g>
          <path id="Trazado_102651" data-name="Trazado 102651" d="M-532.927,5454.882a13.58,13.58,0,0,0-1.975.145,13.483,13.483,0,0,1,11.486,13.316v10.577c0,.038,0,.076-.006.114a1.98,1.98,0,0,0,1.976,1.867,1.981,1.981,0,0,0,1.981-1.981v-10.577a13.477,13.477,0,0,0-13.462-13.461Z" fill="#5d6776"/>
          <path id="Trazado_102652" data-name="Trazado 102652" d="M-516.958,5504.019H-548.9a3.339,3.339,0,0,1-3.339-3.339v-23.671a3.339,3.339,0,0,1,3.339-3.339h31.937a3.339,3.339,0,0,1,3.339,3.339v23.671A3.339,3.339,0,0,1-516.958,5504.019Z" fill="#5e6178"/>
          <path id="Trazado_102653" data-name="Trazado 102653" d="M-527.862,5486.2a5.065,5.065,0,0,0-5.065-5.064,5.064,5.064,0,0,0-5.064,5.064,5.062,5.062,0,0,0,2.525,4.381v5.839a2.539,2.539,0,0,0,2.539,2.54,2.54,2.54,0,0,0,2.54-2.54v-5.839A5.062,5.062,0,0,0-527.862,5486.2Z" fill="#bdbdbd"/>
          <path id="Trazado_102654" data-name="Trazado 102654" d="M-516.958,5473.67h-3.951a3.339,3.339,0,0,1,3.339,3.339v23.671a3.339,3.339,0,0,1-3.339,3.339h3.951a3.339,3.339,0,0,0,3.339-3.339v-23.671a3.339,3.339,0,0,0-3.339-3.339Z" fill="#344154"/>
        </g>
      </g>
      <rect id="Rectángulo_5461" data-name="Rectángulo 5461" width="258.047" height="258.047" transform="translate(-719.233 5283.065)" fill="none"/>
    </g>
  </g>
</svg>
