<svg xmlns="http://www.w3.org/2000/svg" width="462.606" height="262.207" viewBox="0 0 462.606 262.207">
  <g id="Grupo_66549" data-name="Grupo 66549" transform="translate(-724.394 -418.304)">
    <g id="Grupo_59356" data-name="Grupo 59356" transform="translate(1265.578 -2950.867)">
      <g id="Grupo_59247" data-name="Grupo 59247" transform="translate(-541.184 3592.14)">
        <ellipse id="Elipse_4022" data-name="Elipse 4022" cx="231.303" cy="19.619" rx="231.303" ry="19.619" fill="#b8d0fc"/>
      </g>
      <g id="Grupo_59271" data-name="Grupo 59271" transform="translate(-404.142 3393.344)">
        <g id="Grupo_59248" data-name="Grupo 59248" transform="translate(21.219)">
          <path id="Trazado_103086" data-name="Trazado 103086" d="M-361.982,3404.057c-.649,2.912-.794,6.089-2.559,8.494-2.129,2.9-6.261,4.13-7.663,7.443-1.341,3.156.271,7.281-1.884,9.946-1.156,1.431-3.194,2.083-4,3.739a4.813,4.813,0,0,0-.376,2.348,10.014,10.014,0,0,0,9.836,9.154c6.353-.133,11.129-6.285,17.4-7.3,3.4-.547,6.875.481,10.292.082A12.853,12.853,0,0,0-330,3424.943a36.63,36.63,0,0,1-.275-3.784,23.6,23.6,0,0,1,.63-3.472,20.016,20.016,0,0,0-3.627-15.883,20.027,20.027,0,0,0-14.327-7.752c-6.051-.428-13.03,3.952-14.384,10Z" transform="translate(378.476 -3394.023)" fill="#344154"/>
        </g>
        <g id="Grupo_59249" data-name="Grupo 59249" transform="translate(73.306 56.946)">
          <path id="Trazado_103087" data-name="Trazado 103087" d="M-324.925,3456.309s9.284,23.216,29.693,39.316l5.148-1.909s-17.237-17.146-26.643-41.146l-8.2,3.739Z" transform="translate(324.925 -3452.57)" fill="#ffa089"/>
        </g>
        <g id="Grupo_59250" data-name="Grupo 59250" transform="translate(10.228 55.74)">
          <path id="Trazado_103088" data-name="Trazado 103088" d="M-365.411,3456.4s-9.166,26.894-19.418,39.2l-4.947-2.171s13.507-27.015,14.835-42.09l9.53,5.066Z" transform="translate(389.776 -3451.33)" fill="#ffa089"/>
        </g>
        <g id="Grupo_59251" data-name="Grupo 59251" transform="translate(20.481 34.996)">
          <path id="Trazado_103089" data-name="Trazado 103089" d="M-338.953,3430s13.266,3.964,15.677,6.807,7.961,20.208,7.961,20.208l-9.408,5.307-2.414-2.412-5.787,29.669H-356.08l-8.684-31.116-1.687,4.582-12.785-4.823s7.479-20.02,12.061-22.674S-351.5,3430-351.5,3430Z" transform="translate(379.235 -3430.003)" fill="#d9a171"/>
        </g>
        <g id="Grupo_59252" data-name="Grupo 59252" transform="translate(29.405 54.775)">
          <path id="Trazado_103090" data-name="Trazado 103090" d="M-370.06,3516.188a113.838,113.838,0,0,1,1.928-14.24c1.45-6.746,10.888-16.885,10.638-17.78s1.665-33.83,1.665-33.83h28.461s3.982,5.307,3.619,8.2a15.752,15.752,0,0,1-2.652,6.03l-2.291,21.467s4.823,13.991,5.787,18.935-47.157,11.217-47.157,11.217Z" transform="translate(370.06 -3450.338)" fill="#aed3f2"/>
        </g>
        <g id="Grupo_59253" data-name="Grupo 59253" transform="translate(41.384 35.376)">
          <path id="Trazado_103091" data-name="Trazado 103091" d="M-355.492,3449.793l-2.252-17.771,5.437-1.628,3.448,21.028-6.633-1.629Z" transform="translate(357.745 -3430.394)" fill="#aed3f2"/>
        </g>
        <g id="Grupo_59254" data-name="Grupo 59254" transform="translate(65.788 36.645)">
          <path id="Trazado_103092" data-name="Trazado 103092" d="M-326.345,3449.829l-1.7-16.387-4.6-1.744,1.669,20.845,4.64-2.714Z" transform="translate(332.654 -3431.698)" fill="#aed3f2"/>
        </g>
        <g id="Grupo_59255" data-name="Grupo 59255" transform="translate(64.206 15.716)">
          <path id="Trazado_103093" data-name="Trazado 103093" d="M-334.281,3411.259s.745-1.454,1.512-.984c1.963,1.2.224,3.279-.929,3.816l-.583-2.832Z" transform="translate(334.281 -3410.181)" fill="#ef8474"/>
        </g>
        <g id="Grupo_59256" data-name="Grupo 59256" transform="translate(41.987 1.512)">
          <path id="Trazado_103094" data-name="Trazado 103094" d="M-348.031,3395.759a11.125,11.125,0,0,0-9.073,11.57,11.02,11.02,0,0,0,1.52,4.972c1.958,3.662,3.566,6.608,5.385,8.68a11.021,11.021,0,0,1,2.8,7.576l-.043,2.273c6.778,2.472,9.161-.645,9.161-.645l-.714-6.269h0c6.835-1.618,4.447-14.3,4.018-18.086l-.014,0c-.009-.143-.018-.284-.035-.428a11.089,11.089,0,0,0-13.008-9.647Z" transform="translate(357.124 -3395.578)" fill="#ffa089"/>
        </g>
        <g id="Grupo_59257" data-name="Grupo 59257" transform="translate(39.984 0.958)">
          <path id="Trazado_103095" data-name="Trazado 103095" d="M-347.781,3406.983a46.242,46.242,0,0,0-4.626,7.773c-.127.305-1.013,2.6-.658,2.812a14.315,14.315,0,0,1-4.513-4.966,11.639,11.639,0,0,1-.394-11.084,11.612,11.612,0,0,1,8.548-6.235c3.966-.783,8.487.061,11.313,3.122,2.654,2.873,3.211,6.825,3.9,10.514-.771-4.141-6.739-6.613-10.27-7.7.1.032-2.09,3.893-2.208,4.083-.351.565-.719,1.124-1.091,1.683Z" transform="translate(359.184 -3395.009)" fill="#344154"/>
        </g>
        <g id="Grupo_59258" data-name="Grupo 59258" transform="translate(43.037 20.089)">
          <path id="Trazado_103096" data-name="Trazado 103096" d="M-351.843,3415.526a1.647,1.647,0,0,0-.946-.679,2.781,2.781,0,0,0-2.993.626c-1.2,1.508,1.937,4.783,4.421,2.692,0,0,.684-.856-.481-2.64Z" transform="translate(356.045 -3414.677)" fill="#ffa089"/>
        </g>
        <g id="Grupo_59259" data-name="Grupo 59259" transform="translate(60.558 16.155)">
          <path id="Trazado_103097" data-name="Trazado 103097" d="M-336.094,3411.583a.968.968,0,0,0-.986-.95.966.966,0,0,0-.95.983.969.969,0,0,0,.985.951.968.968,0,0,0,.951-.984Z" transform="translate(338.031 -3410.633)" fill="#344154"/>
        </g>
        <g id="Grupo_59260" data-name="Grupo 59260" transform="translate(51.602 18.21)">
          <path id="Trazado_103098" data-name="Trazado 103098" d="M-345.306,3413.7a.965.965,0,0,0-.981-.95.967.967,0,0,0-.951.984.968.968,0,0,0,.981.95.965.965,0,0,0,.951-.984Z" transform="translate(347.239 -3412.745)" fill="#344154"/>
        </g>
        <g id="Grupo_59261" data-name="Grupo 59261" transform="translate(56.26 23.105)">
          <path id="Trazado_103099" data-name="Trazado 103099" d="M-337.184,3418.561s-1.275-.919-1.761-.766a1.43,1.43,0,0,0-.74.759,1.121,1.121,0,0,0-.915-.576c-.6.012-1.849,1.672-1.849,1.672s1.8,2.592,3.606,2.2c1.844-.4,1.643-3.154,1.643-3.154l.017-.135Z" transform="translate(342.45 -3417.778)" fill="#aed3f2"/>
        </g>
        <g id="Grupo_59262" data-name="Grupo 59262" transform="translate(50.06 16.035)">
          <path id="Trazado_103100" data-name="Trazado 103100" d="M-348.373,3412.526a.4.4,0,0,1-.325-.1.406.406,0,0,1-.021-.569,4.837,4.837,0,0,1,2.935-1.342.4.4,0,0,1,.434.367.412.412,0,0,1-.368.435,4,4,0,0,0-2.41,1.09.414.414,0,0,1-.245.124Z" transform="translate(348.825 -3410.51)" fill="#344154"/>
        </g>
        <g id="Grupo_59263" data-name="Grupo 59263" transform="translate(59.386 13.802)">
          <path id="Trazado_103101" data-name="Trazado 103101" d="M-338.879,3409.616a.394.394,0,0,1-.29-.179.4.4,0,0,1,.115-.557,4.773,4.773,0,0,1,3.167-.61.406.406,0,0,1,.337.459.408.408,0,0,1-.46.336,4,4,0,0,0-2.6.488.411.411,0,0,1-.267.064Z" transform="translate(339.236 -3408.213)" fill="#344154"/>
        </g>
        <g id="Grupo_59264" data-name="Grupo 59264" transform="translate(57.328 17.102)">
          <path id="Trazado_103102" data-name="Trazado 103102" d="M-340.4,3416.832a1.721,1.721,0,0,0,1.376-1.695.327.327,0,0,0-.1-.23,5,5,0,0,1-1.266-2.979.338.338,0,0,0-.355-.322.337.337,0,0,0-.319.354,5.68,5.68,0,0,0,1.358,3.322c-.035.273-.241.9-1.328.968a.338.338,0,0,0-.315.36.341.341,0,0,0,.359.317,3.008,3.008,0,0,0,.591-.1Z" transform="translate(341.352 -3411.606)" fill="#ef8474"/>
        </g>
        <g id="Grupo_59265" data-name="Grupo 59265" transform="translate(56.26 23.888)">
          <path id="Trazado_103103" data-name="Trazado 103103" d="M-337.184,3418.583l-5.266,1.089s1.972,1.295,3.4,1.08,1.867-2.169,1.867-2.169Z" transform="translate(342.45 -3418.583)" fill="#f9f9fb"/>
        </g>
        <g id="Grupo_59266" data-name="Grupo 59266" transform="translate(48.46 58.514)">
          <path id="Trazado_103104" data-name="Trazado 103104" d="M-329,3456.353H-350.47v-2.171H-329v2.171Z" transform="translate(350.47 -3454.182)" fill="#344154"/>
        </g>
        <g id="Grupo_59267" data-name="Grupo 59267" transform="translate(101.811 97.45)">
          <path id="Trazado_103105" data-name="Trazado 103105" d="M-295.619,3494.477s3.413,7.017,4.929,7.318,6.1.586,6.813.8,4.128,2.181,4.855,2.121-3.053-3.217-3.053-3.217,3.6,2.241,4.188,1.72-3.072-3.26-3.072-3.26,3.584,2.387,3.952,1.764-3.079-2.991-3.079-2.991,2.8,1.816,3.088,1.315-3.9-4.229-6.12-4.16c-5.245.165-7-1.678-7-1.678l-5.5.265Z" transform="translate(295.619 -3494.212)" fill="#ffa089"/>
        </g>
        <g id="Grupo_59268" data-name="Grupo 59268" transform="translate(104.436 102.464)">
          <path id="Trazado_103106" data-name="Trazado 103106" d="M-292.92,3499.367s2.243,3.783,3.492,4.5,3.618,2.474,3.908,1.927-2.865-3.217-2.8-3.69-1.542-1.354-1.542-1.354l-3.058-1.378Z" transform="translate(292.92 -3499.367)" fill="#ffa089"/>
        </g>
        <g id="Grupo_59269" data-name="Grupo 59269" transform="translate(0 94.615)">
          <path id="Trazado_103107" data-name="Trazado 103107" d="M-381.652,3491.561s-3.413,7.018-4.928,7.318-6.1.586-6.814.8-4.127,2.18-4.855,2.121,3.054-3.217,3.054-3.217-3.6,2.24-4.188,1.719,3.071-3.26,3.071-3.26-3.583,2.387-3.952,1.763,3.08-2.99,3.08-2.99-2.8,1.815-3.089,1.314,3.9-4.229,6.121-4.159c5.245.164,7-1.678,7-1.678l5.5.263Z" transform="translate(400.291 -3491.297)" fill="#ffa089"/>
        </g>
        <g id="Grupo_59270" data-name="Grupo 59270" transform="translate(8.597 99.629)">
          <path id="Trazado_103108" data-name="Trazado 103108" d="M-384.034,3496.452s-2.243,3.782-3.492,4.5-3.619,2.472-3.908,1.927,2.865-3.218,2.8-3.69,1.543-1.354,1.543-1.354l3.058-1.378Z" transform="translate(391.453 -3496.452)" fill="#ffa089"/>
        </g>
      </g>
      <g id="Grupo_59272" data-name="Grupo 59272" transform="translate(-426.152 3493.356)">
        <rect id="Rectángulo_5496" data-name="Rectángulo 5496" width="254.383" height="118.934" fill="#344154"/>
      </g>
      <g id="Grupo_59273" data-name="Grupo 59273" transform="translate(-457.815 3493.356)">
        <rect id="Rectángulo_5497" data-name="Rectángulo 5497" width="334.717" height="10.312" rx="5.156" fill="#d9a171"/>
      </g>
      <g id="Grupo_59276" data-name="Grupo 59276" transform="translate(-320.544 3448.545)">
        <g id="Grupo_59274" data-name="Grupo 59274">
          <path id="Trazado_103109" data-name="Trazado 103109" d="M-314.344,3485.2h50.7l5.585-34.429h-50.7Z" transform="translate(314.344 -3450.776)" fill="#344154"/>
        </g>
        <g id="Grupo_59275" data-name="Grupo 59275" transform="translate(22.126 27.196)">
          <rect id="Rectángulo_5498" data-name="Rectángulo 5498" width="8.807" height="17.615" transform="translate(8.807 17.615) rotate(180)" fill="#344154"/>
        </g>
      </g>
      <g id="Grupo_59282" data-name="Grupo 59282" transform="translate(-268.457 3465.306)">
        <g id="Grupo_59277" data-name="Grupo 59277" transform="translate(0 19.076)">
          <path id="Trazado_103110" data-name="Trazado 103110" d="M-237.546,3496.594h-23.247l2.252-8.974h23.065Z" transform="translate(260.793 -3487.62)" fill="#344154"/>
        </g>
        <g id="Grupo_59278" data-name="Grupo 59278" transform="translate(10.114 19.076)">
          <path id="Trazado_103111" data-name="Trazado 103111" d="M-248.326,3496.594h23.247l-2.252-8.974h-23.065Z" transform="translate(250.395 -3487.62)" fill="#0f0855"/>
        </g>
        <g id="Grupo_59279" data-name="Grupo 59279" transform="translate(5.378)">
          <path id="Trazado_103112" data-name="Trazado 103112" d="M-252.137,3478.448H-225.7a.662.662,0,0,0,.648-.872l-2.045-8.7a1.158,1.158,0,0,0-1.058-.873h-26.435a.662.662,0,0,0-.648.873l2.044,8.7A1.159,1.159,0,0,0-252.137,3478.448Z" transform="translate(255.263 -3468.007)" fill="#0f0855"/>
        </g>
        <g id="Grupo_59280" data-name="Grupo 59280" transform="translate(7.556 1.157)">
          <path id="Trazado_103113" data-name="Trazado 103113" d="M-250.552,3476.956h23.2a.586.586,0,0,0,.584-.769l-1.5-6.222a1.036,1.036,0,0,0-.953-.768h-23.2a.586.586,0,0,0-.585.768l1.5,6.222A1.039,1.039,0,0,0-250.552,3476.956Z" transform="translate(253.025 -3469.197)" fill="#b8d0fc"/>
        </g>
        <g id="Grupo_59281" data-name="Grupo 59281" transform="translate(18.202 10.441)">
          <rect id="Rectángulo_5499" data-name="Rectángulo 5499" width="4.99" height="8.635" transform="translate(4.99 8.635) rotate(180)" fill="#0f0855"/>
        </g>
      </g>
      <g id="Grupo_59301" data-name="Grupo 59301" transform="translate(-230.884 3464.727)">
        <g id="Grupo_59283" data-name="Grupo 59283" transform="translate(8.501 17.656)">
          <rect id="Rectángulo_5500" data-name="Rectángulo 5500" width="3.42" height="10.973" fill="#0f0855"/>
        </g>
        <g id="Grupo_59300" data-name="Grupo 59300">
          <g id="Grupo_59284" data-name="Grupo 59284">
            <path id="Trazado_103114" data-name="Trazado 103114" d="M-207.911,3487.478h-8.38a1.943,1.943,0,0,1-1.79-1.449l-4.043-17.167a1.11,1.11,0,0,1,1.107-1.449h8.381a1.943,1.943,0,0,1,1.79,1.449l4.043,17.167A1.11,1.11,0,0,1-207.911,3487.478Z" transform="translate(222.164 -3467.412)" fill="#344154"/>
          </g>
          <g id="Grupo_59285" data-name="Grupo 59285" transform="translate(2.546)">
            <path id="Trazado_103115" data-name="Trazado 103115" d="M-205.293,3487.478h-8.38a1.943,1.943,0,0,1-1.79-1.449l-4.044-17.167a1.111,1.111,0,0,1,1.108-1.449h8.38a1.944,1.944,0,0,1,1.79,1.449l4.043,17.167A1.11,1.11,0,0,1-205.293,3487.478Z" transform="translate(219.547 -3467.412)" fill="#0f0855"/>
          </g>
          <g id="Grupo_59286" data-name="Grupo 59286" transform="translate(4.082 2.326)">
            <path id="Trazado_103116" data-name="Trazado 103116" d="M-208.129,3474.638h-8.7l-1.139-4.835h8.7Z" transform="translate(217.968 -3469.803)" fill="#b8d0fc"/>
          </g>
          <g id="Grupo_59299" data-name="Grupo 59299" transform="translate(5.697 9.28)">
            <g id="Grupo_59290" data-name="Grupo 59290">
              <g id="Grupo_59287" data-name="Grupo 59287">
                <path id="Trazado_103117" data-name="Trazado 103117" d="M-213.825,3478.942h-1.692a.544.544,0,0,1-.5-.406l-.277-1.177a.311.311,0,0,1,.31-.406h1.692a.545.545,0,0,1,.5.406l.277,1.177A.31.31,0,0,1-213.825,3478.942Z" transform="translate(216.307 -3476.953)" fill="#b8d0fc"/>
              </g>
              <g id="Grupo_59288" data-name="Grupo 59288" transform="translate(3.205)">
                <path id="Trazado_103118" data-name="Trazado 103118" d="M-210.53,3478.942h-1.692a.544.544,0,0,1-.5-.406l-.277-1.177a.311.311,0,0,1,.31-.406H-211a.545.545,0,0,1,.5.406l.277,1.177A.31.31,0,0,1-210.53,3478.942Z" transform="translate(213.012 -3476.953)" fill="#b8d0fc"/>
              </g>
              <g id="Grupo_59289" data-name="Grupo 59289" transform="translate(6.41)">
                <path id="Trazado_103119" data-name="Trazado 103119" d="M-207.235,3478.942h-1.692a.544.544,0,0,1-.5-.406l-.277-1.177a.311.311,0,0,1,.31-.406h1.692a.545.545,0,0,1,.5.406l.277,1.177A.31.31,0,0,1-207.235,3478.942Z" transform="translate(209.717 -3476.953)" fill="#b8d0fc"/>
              </g>
            </g>
            <g id="Grupo_59294" data-name="Grupo 59294" transform="translate(0.601 2.554)">
              <g id="Grupo_59291" data-name="Grupo 59291">
                <path id="Trazado_103120" data-name="Trazado 103120" d="M-213.206,3481.568H-214.9a.547.547,0,0,1-.5-.406l-.277-1.177a.312.312,0,0,1,.31-.407h1.693a.546.546,0,0,1,.5.407l.277,1.177A.311.311,0,0,1-213.206,3481.568Z" transform="translate(215.689 -3479.579)" fill="#b8d0fc"/>
              </g>
              <g id="Grupo_59292" data-name="Grupo 59292" transform="translate(3.205)">
                <path id="Trazado_103121" data-name="Trazado 103121" d="M-209.911,3481.568H-211.6a.547.547,0,0,1-.5-.406l-.277-1.177a.312.312,0,0,1,.31-.407h1.693a.546.546,0,0,1,.5.407l.277,1.177A.311.311,0,0,1-209.911,3481.568Z" transform="translate(212.394 -3479.579)" fill="#b8d0fc"/>
              </g>
              <g id="Grupo_59293" data-name="Grupo 59293" transform="translate(6.41)">
                <path id="Trazado_103122" data-name="Trazado 103122" d="M-206.616,3481.568h-1.693a.547.547,0,0,1-.5-.406l-.277-1.177a.312.312,0,0,1,.31-.407h1.693a.546.546,0,0,1,.5.407l.277,1.177A.311.311,0,0,1-206.616,3481.568Z" transform="translate(209.099 -3479.579)" fill="#b8d0fc"/>
              </g>
            </g>
            <g id="Grupo_59298" data-name="Grupo 59298" transform="translate(1.233 5.239)">
              <g id="Grupo_59295" data-name="Grupo 59295">
                <path id="Trazado_103123" data-name="Trazado 103123" d="M-212.556,3484.328h-1.693a.547.547,0,0,1-.5-.406l-.277-1.178a.311.311,0,0,1,.31-.406h1.693a.546.546,0,0,1,.5.406l.277,1.178A.311.311,0,0,1-212.556,3484.328Z" transform="translate(215.039 -3482.339)" fill="#b8d0fc"/>
              </g>
              <g id="Grupo_59296" data-name="Grupo 59296" transform="translate(3.205)">
                <path id="Trazado_103124" data-name="Trazado 103124" d="M-209.261,3484.328h-1.693a.547.547,0,0,1-.5-.406l-.277-1.178a.311.311,0,0,1,.31-.406h1.693a.546.546,0,0,1,.5.406l.277,1.178A.311.311,0,0,1-209.261,3484.328Z" transform="translate(211.744 -3482.339)" fill="#b8d0fc"/>
              </g>
              <g id="Grupo_59297" data-name="Grupo 59297" transform="translate(6.41)">
                <path id="Trazado_103125" data-name="Trazado 103125" d="M-205.966,3484.328h-1.693a.547.547,0,0,1-.5-.406l-.277-1.178a.311.311,0,0,1,.31-.406h1.693a.546.546,0,0,1,.5.406l.277,1.178A.311.311,0,0,1-205.966,3484.328Z" transform="translate(208.449 -3482.339)" fill="#b8d0fc"/>
              </g>
            </g>
          </g>
        </g>
      </g>
      <g id="Grupo_59302" data-name="Grupo 59302" transform="translate(-308.39 3503.668)">
        <path id="Trazado_103126" data-name="Trazado 103126" d="M-258.309,3530.7h-39.136c-2.428,0-4.4-1.328-4.4-2.959v-20.29h.312v20.29c0,1.459,1.835,2.646,4.091,2.646h39.136c2.256,0,4.09-1.187,4.09-2.646v-20.29h.313v20.29C-253.905,3529.369-255.881,3530.7-258.309,3530.7Z" transform="translate(301.848 -3507.448)" fill="#344154"/>
      </g>
      <g id="Grupo_59307" data-name="Grupo 59307" transform="translate(-304.77 3524.703)">
        <g id="Grupo_59303" data-name="Grupo 59303" transform="translate(0 13.974)">
          <path id="Trazado_103127" data-name="Trazado 103127" d="M-250.448,3596.273h-47.679l2.891-52.833h40.96Z" transform="translate(298.127 -3543.44)" fill="#a66d58"/>
        </g>
        <g id="Grupo_59306" data-name="Grupo 59306" transform="translate(8.452)">
          <g id="Grupo_59304" data-name="Grupo 59304" transform="translate(25.775)">
            <rect id="Rectángulo_5501" data-name="Rectángulo 5501" width="3.802" height="24.668" fill="#d9a171"/>
          </g>
          <g id="Grupo_59305" data-name="Grupo 59305">
            <rect id="Rectángulo_5502" data-name="Rectángulo 5502" width="3.802" height="24.668" fill="#d9a171"/>
          </g>
        </g>
      </g>
      <g id="Grupo_59308" data-name="Grupo 59308" transform="translate(-253.956 3503.668)">
        <path id="Trazado_103128" data-name="Trazado 103128" d="M-202.346,3530.7h-39.136c-2.428,0-4.4-1.328-4.4-2.959v-20.29h.312v20.29c0,1.459,1.835,2.646,4.091,2.646h39.136c2.256,0,4.09-1.187,4.09-2.646v-20.29h.313v20.29C-197.942,3529.369-199.918,3530.7-202.346,3530.7Z" transform="translate(245.885 -3507.448)" fill="#344154"/>
      </g>
      <g id="Grupo_59313" data-name="Grupo 59313" transform="translate(-248.898 3524.703)">
        <g id="Grupo_59309" data-name="Grupo 59309" transform="translate(0 10.871)">
          <path id="Trazado_103129" data-name="Trazado 103129" d="M-203.593,3581.351h-37.092l2.249-41.1h31.864Z" transform="translate(240.685 -3540.25)" fill="#f2e9e4"/>
        </g>
        <g id="Grupo_59312" data-name="Grupo 59312" transform="translate(6.575)">
          <g id="Grupo_59310" data-name="Grupo 59310" transform="translate(20.052)">
            <rect id="Rectángulo_5503" data-name="Rectángulo 5503" width="2.958" height="19.19" fill="#d9a171"/>
          </g>
          <g id="Grupo_59311" data-name="Grupo 59311">
            <rect id="Rectángulo_5504" data-name="Rectángulo 5504" width="2.958" height="19.19" fill="#d9a171"/>
          </g>
        </g>
      </g>
      <g id="Grupo_59321" data-name="Grupo 59321" transform="translate(-419.433 3530.072)">
        <g id="Grupo_59314" data-name="Grupo 59314" transform="translate(26.027 4.225)">
          <rect id="Rectángulo_5505" data-name="Rectángulo 5505" width="56.789" height="36.59" fill="#dae6ff"/>
        </g>
        <g id="Grupo_59316" data-name="Grupo 59316" transform="translate(0 2.722)">
          <g id="Grupo_59315" data-name="Grupo 59315">
            <path id="Trazado_103130" data-name="Trazado 103130" d="M-314.019,3576.989h-82.193a19.823,19.823,0,0,1-19.8-19.8,19.667,19.667,0,0,1,5.8-14,19.68,19.68,0,0,1,14-5.8h82.193v3.007h-82.193a16.691,16.691,0,0,0-11.875,4.918A16.676,16.676,0,0,0-413,3557.19a16.812,16.812,0,0,0,16.792,16.792h82.193Z" transform="translate(416.012 -3537.392)" fill="#dae6ff"/>
          </g>
        </g>
        <g id="Grupo_59319" data-name="Grupo 59319" transform="translate(41.28 10.167)">
          <g id="Grupo_59317" data-name="Grupo 59317">
            <circle id="Elipse_4023" data-name="Elipse 4023" cx="12.353" cy="12.353" r="12.353" fill="#aed3f2"/>
          </g>
          <g id="Grupo_59318" data-name="Grupo 59318" transform="translate(5.584 10.785)">
            <rect id="Rectángulo_5506" data-name="Rectángulo 5506" width="12.965" height="2.983" fill="#dae6ff"/>
          </g>
        </g>
        <g id="Grupo_59320" data-name="Grupo 59320" transform="translate(98.882)">
          <rect id="Rectángulo_5507" data-name="Rectángulo 5507" width="4.124" height="82.217" fill="#dae6ff"/>
        </g>
      </g>
      <g id="Grupo_59327" data-name="Grupo 59327" transform="translate(-510.627 3447.318)">
        <g id="Grupo_59322" data-name="Grupo 59322">
          <path id="Trazado_103131" data-name="Trazado 103131" d="M-479.851,3449.864c5.38,1.112,10.227,5,10.778,13.447.522,8-3.847,15.918-1.686,23.841,2.218,8.134,8.55,10.916,6.239,20.976-.824,3.583-2.15,7.075-2.082,10.837.14,7.882,5.646,12.7,8.338,18.878,3.472,7.98,2.187,18.974-2.437,25.531-8.79,12.469-23.7,7.99-34.788,6.809-6.442-.687-12.254-5.3-13.865-14.646-1.87-10.854,3.027-16.084,6.088-24.668,2.978-8.353-.689-18.191-.777-27.522-.1-10.432,5.93-16.159,7.037-25.745.8-6.932-1.993-14.073.787-20.621a11.546,11.546,0,0,1,7-6.538A18.574,18.574,0,0,1-479.851,3449.864Z" transform="translate(509.769 -3449.514)" fill="#b8d0fc"/>
        </g>
        <g id="Grupo_59323" data-name="Grupo 59323" transform="translate(26.099 50.298)">
          <rect id="Rectángulo_5508" data-name="Rectángulo 5508" width="1.283" height="98.447" fill="#89b4fd"/>
        </g>
        <g id="Grupo_59324" data-name="Grupo 59324" transform="translate(15.353 70.534)">
          <rect id="Rectángulo_5509" data-name="Rectángulo 5509" width="1.283" height="25.992" transform="translate(0 0.533) rotate(-24.56)" fill="#89b4fd"/>
        </g>
        <g id="Grupo_59325" data-name="Grupo 59325" transform="translate(26.213 95.86)">
          <rect id="Rectángulo_5510" data-name="Rectángulo 5510" width="18.625" height="1.283" transform="translate(0 15.287) rotate(-55.167)" fill="#89b4fd"/>
        </g>
        <g id="Grupo_59326" data-name="Grupo 59326" transform="translate(13.539 145.119)">
          <path id="Rectángulo_5511" data-name="Rectángulo 5511" d="M0,0H25.815a0,0,0,0,1,0,0V14.091a6.3,6.3,0,0,1-6.3,6.3H6.3a6.3,6.3,0,0,1-6.3-6.3V0A0,0,0,0,1,0,0Z" fill="#89b4fd"/>
        </g>
      </g>
      <g id="Grupo_59337" data-name="Grupo 59337" transform="translate(-296.217 3369.171)">
        <g id="Grupo_59328" data-name="Grupo 59328">
          <circle id="Elipse_4024" data-name="Elipse 4024" cx="15.286" cy="15.286" r="15.286" fill="#89b4fd"/>
        </g>
        <g id="Grupo_59329" data-name="Grupo 59329" transform="translate(0.361 0.546)">
          <circle id="Elipse_4025" data-name="Elipse 4025" cx="12.16" cy="12.16" r="12.16" transform="translate(0 5.587) rotate(-13.283)" fill="#fff"/>
        </g>
        <g id="Grupo_59330" data-name="Grupo 59330" transform="translate(13.614 13.691)">
          <path id="Trazado_103132" data-name="Trazado 103132" d="M-272.615,3384.609a1.361,1.361,0,0,0-1.361-1.362,1.362,1.362,0,0,0-1.362,1.362,1.361,1.361,0,0,0,1.362,1.361A1.36,1.36,0,0,0-272.615,3384.609Z" transform="translate(275.337 -3383.247)" fill="#7798f8"/>
        </g>
        <g id="Grupo_59333" data-name="Grupo 59333" transform="translate(13.888 5.253)">
          <g id="Grupo_59331" data-name="Grupo 59331">
            <path id="Trazado_103133" data-name="Trazado 103133" d="M-273.968,3384.641h-.272a.27.27,0,0,1-.27-.27.27.27,0,0,1,.27-.27h0l.013-8.39-.338.49a.272.272,0,0,1-.375.069.271.271,0,0,1-.069-.376l.832-1.205a.271.271,0,0,1,.3-.1.271.271,0,0,1,.19.259l-.016,9.529A.269.269,0,0,1-273.968,3384.641Z" transform="translate(275.055 -3374.572)" fill="#7798f8"/>
          </g>
          <g id="Grupo_59332" data-name="Grupo 59332" transform="translate(0.831)">
            <path id="Trazado_103134" data-name="Trazado 103134" d="M-273.011,3376.24a.269.269,0,0,1-.209-.1l-.919-1.128a.269.269,0,0,1,.04-.38.269.269,0,0,1,.379.039l.919,1.127a.27.27,0,0,1-.04.38A.266.266,0,0,1-273.011,3376.24Z" transform="translate(274.2 -3374.572)" fill="#7798f8"/>
          </g>
        </g>
        <g id="Grupo_59336" data-name="Grupo 59336" transform="translate(9.006 13.908)">
          <g id="Grupo_59334" data-name="Grupo 59334" transform="translate(0 0.919)">
            <path id="Trazado_103135" data-name="Trazado 103135" d="M-279,3385.786a.267.267,0,0,1-.194-.083l-.8-.831a.27.27,0,0,1-.054-.294.269.269,0,0,1,.248-.164h0l6.34.014a.27.27,0,0,1,.269.271v.272a.27.27,0,0,1-.27.269.269.269,0,0,1-.269-.269v0l-5.432-.013.359.373a.269.269,0,0,1-.006.381A.272.272,0,0,1-279,3385.786Z" transform="translate(280.073 -3384.414)" fill="#7798f8"/>
          </g>
          <g id="Grupo_59335" data-name="Grupo 59335">
            <path id="Trazado_103136" data-name="Trazado 103136" d="M-279.8,3384.929a.272.272,0,0,1-.171-.061.271.271,0,0,1-.038-.38l.75-.919a.27.27,0,0,1,.38-.038.27.27,0,0,1,.039.38l-.75.919A.272.272,0,0,1-279.8,3384.929Z" transform="translate(280.074 -3383.469)" fill="#7798f8"/>
          </g>
        </g>
      </g>
      <g id="Grupo_59355" data-name="Grupo 59355" transform="translate(-455.654 3458.783)">
        <g id="Grupo_59344" data-name="Grupo 59344" transform="translate(14.358)">
          <g id="Grupo_59340" data-name="Grupo 59340">
            <g id="Grupo_59338" data-name="Grupo 59338" transform="translate(0 0.086)">
              <path id="Trazado_103137" data-name="Trazado 103137" d="M-438.06,3474.253a.425.425,0,0,1-.288-.112.429.429,0,0,1-.029-.605l10.917-12.006a.428.428,0,0,1,.6-.029.429.429,0,0,1,.029.6l-10.917,12.007A.43.43,0,0,1-438.06,3474.253Z" transform="translate(438.488 -3461.389)" fill="#344154"/>
            </g>
            <g id="Grupo_59339" data-name="Grupo 59339" transform="translate(6.727)">
              <path id="Trazado_103138" data-name="Trazado 103138" d="M-431.058,3466.843a.513.513,0,0,1-.345-.134.514.514,0,0,1-.035-.726l4.1-4.514a.513.513,0,0,1,.726-.034.514.514,0,0,1,.035.726l-4.1,4.514A.51.51,0,0,1-431.058,3466.843Z" transform="translate(431.572 -3461.301)" fill="#aed3f2"/>
            </g>
          </g>
          <g id="Grupo_59343" data-name="Grupo 59343" transform="translate(11.854)">
            <g id="Grupo_59341" data-name="Grupo 59341" transform="translate(0.086 0.086)">
              <path id="Trazado_103139" data-name="Trazado 103139" d="M-414.868,3474.253a.431.431,0,0,1-.317-.14l-10.916-12.007a.428.428,0,0,1,.028-.6.428.428,0,0,1,.605.029l10.917,12.006a.428.428,0,0,1-.028.605A.429.429,0,0,1-414.868,3474.253Z" transform="translate(426.213 -3461.389)" fill="#344154"/>
            </g>
            <g id="Grupo_59342" data-name="Grupo 59342">
              <path id="Trazado_103140" data-name="Trazado 103140" d="M-421.683,3466.843a.513.513,0,0,1-.38-.168l-4.1-4.514a.513.513,0,0,1,.034-.726.514.514,0,0,1,.727.034l4.1,4.514a.513.513,0,0,1-.034.726A.517.517,0,0,1-421.683,3466.843Z" transform="translate(426.301 -3461.301)" fill="#aed3f2"/>
            </g>
          </g>
        </g>
        <g id="Grupo_59354" data-name="Grupo 59354" transform="translate(0 12.05)">
          <g id="Grupo_59352" data-name="Grupo 59352" transform="translate(1.661)">
            <g id="Grupo_59345" data-name="Grupo 59345" transform="translate(0 0)">
              <path id="Trazado_103141" data-name="Trazado 103141" d="M-408.371,3496.31h-34.954a.463.463,0,0,1-.462-.463.463.463,0,0,1,.462-.463h34.606l5.951-20.768h-48.31a.462.462,0,0,1-.463-.463.462.462,0,0,1,.463-.463h48.924a.465.465,0,0,1,.37.185.463.463,0,0,1,.076.406l-6.217,21.7a.462.462,0,0,1-.445.334Z" transform="translate(451.542 -3473.69)" fill="#344154"/>
            </g>
            <g id="Grupo_59346" data-name="Grupo 59346" transform="translate(0 0)">
              <path id="Trazado_103142" data-name="Trazado 103142" d="M-444.864,3496.31h34.955a.463.463,0,0,0,.462-.463.463.463,0,0,0-.462-.463h-34.605l-5.952-20.768h48.311a.463.463,0,0,0,.463-.463.463.463,0,0,0-.463-.463h-48.924a.464.464,0,0,0-.37.185.463.463,0,0,0-.076.406l6.217,21.7a.461.461,0,0,0,.444.334Z" transform="translate(451.542 -3473.69)" fill="#344154"/>
            </g>
            <g id="Grupo_59347" data-name="Grupo 59347" transform="translate(31.608 0)">
              <path id="Trazado_103143" data-name="Trazado 103143" d="M-418.582,3495.713a.428.428,0,0,1-.1-.01.462.462,0,0,1-.354-.55l4.551-21.1a.464.464,0,0,1,.55-.355.463.463,0,0,1,.355.55l-4.551,21.1a.463.463,0,0,1-.451.364Z" transform="translate(419.046 -3473.69)" fill="#344154"/>
            </g>
            <g id="Grupo_59348" data-name="Grupo 59348" transform="translate(11.182)">
              <path id="Trazado_103144" data-name="Trazado 103144" d="M-434.284,3496.31a.463.463,0,0,1-.449-.353l-5.3-21.694a.464.464,0,0,1,.34-.559.462.462,0,0,1,.559.339l5.3,21.7a.464.464,0,0,1-.34.558.429.429,0,0,1-.11.014Z" transform="translate(440.046 -3473.69)" fill="#344154"/>
            </g>
            <g id="Grupo_59349" data-name="Grupo 59349" transform="translate(24.463 0)">
              <path id="Trazado_103145" data-name="Trazado 103145" d="M-425.93,3496.31a.463.463,0,0,1-.462-.463v-21.694a.463.463,0,0,1,.462-.463.464.464,0,0,1,.463.463v21.694a.463.463,0,0,1-.463.463Z" transform="translate(426.392 -3473.69)" fill="#344154"/>
            </g>
            <g id="Grupo_59350" data-name="Grupo 59350" transform="translate(1.737 6.232)">
              <path id="Trazado_103146" data-name="Trazado 103146" d="M-403.951,3480.981h-45.362a.444.444,0,0,1-.443-.443h0a.443.443,0,0,1,.443-.442h45.362a.443.443,0,0,1,.443.442h0A.444.444,0,0,1-403.951,3480.981Z" transform="translate(449.756 -3480.097)" fill="#344154"/>
            </g>
            <g id="Grupo_59351" data-name="Grupo 59351" transform="translate(4.064 14.134)">
              <path id="Trazado_103147" data-name="Trazado 103147" d="M-406.083,3489.1h-40.839a.443.443,0,0,1-.442-.442h0a.443.443,0,0,1,.442-.442h40.839a.443.443,0,0,1,.442.442h0A.443.443,0,0,1-406.083,3489.1Z" transform="translate(447.364 -3488.221)" fill="#344154"/>
            </g>
          </g>
          <g id="Grupo_59353" data-name="Grupo 59353" transform="translate(0 0)">
            <path id="Trazado_103148" data-name="Trazado 103148" d="M-401.29,3474.631h-51.489a.472.472,0,0,1-.471-.471h0a.471.471,0,0,1,.471-.47h51.489a.471.471,0,0,1,.47.47h0A.472.472,0,0,1-401.29,3474.631Z" transform="translate(453.25 -3473.69)" fill="#aed3f2"/>
          </g>
        </g>
      </g>
    </g>
  </g>
</svg>
