<svg xmlns="http://www.w3.org/2000/svg" width="403.3" height="373.329" viewBox="0 0 403.3 373.329">
  <g id="Grupo_66536" data-name="Grupo 66536" transform="translate(-810.7 -4132.5)">
    <g id="Grupo_53427" data-name="Grupo 53427" transform="translate(-77.307 590.871)">
      <circle id="Elipse_3975" data-name="Elipse 3975" cx="184.164" cy="184.164" r="184.164" transform="translate(897.009 3544.129)" fill="#cee5f7" stroke="#aed3f2" stroke-miterlimit="10" stroke-width="5"/>
      <g id="freepik--background-complete--inject-49">
        <rect id="Rectángulo_5095" data-name="Rectángulo 5095" width="33.12" height="0.25" transform="translate(1258.187 3876.562)" fill="#ebebeb"/>
        <rect id="Rectángulo_5096" data-name="Rectángulo 5096" width="8.69" height="0.25" transform="translate(1163.937 3879.281)" fill="#ebebeb"/>
        <rect id="Rectángulo_5097" data-name="Rectángulo 5097" width="19.19" height="0.25" transform="translate(1237.997 3867.281)" fill="#ebebeb"/>
        <path id="Trazado_99404" data-name="Trazado 99404" d="M939.367,3682.792l44.71-115.42h21.1l-44.71,115.42Z" fill="#fff"/>
        <path id="Trazado_99405" data-name="Trazado 99405" d="M965.007,3682.792l44.71-115.42h8.22l-44.71,115.42Z" fill="#fff"/>
      </g>
      <g id="freepik--character-female--inject-49">
        <path id="Trazado_99406" data-name="Trazado 99406" d="M1044.437,3862.322l-6.4,4.12-11.6-13.49,6.4-4.12Z" fill="#ff8b7b"/>
        <path id="Trazado_99407" data-name="Trazado 99407" d="M1032.847,3848.832l-6.41,4.12,5.99,6.96,6.4-4.13Z" fill="#d9a171" opacity="0.2" style="isolation: isolate"/>
        <path id="Trazado_99408" data-name="Trazado 99408" d="M995.527,3884.322l-7.36.72-7.65-17.5,7.36-.72Z" fill="#ff8b7b"/>
        <path id="Trazado_99409" data-name="Trazado 99409" d="M980.527,3867.552l3.94,9.02h7.67l-4.26-9.74Z" fill="#d9a171" opacity="0.2" style="isolation: isolate"/>
        <path id="Trazado_99410" data-name="Trazado 99410" d="M939.637,3648.072c-3.7.33-3.8-5.95-10.3-3-8.26,3.76-5.47,9.59-11.92,9.35s-10.77,4.79-9.33,8.54,3.67,7.3-.89,8.81-7.66,2.84-7,6.62,3.89,5.3-1.55,7.71-4.89,12.83.44,12.84.22,5.2,5,10.48,12.05,6,15.08,3.4,6.41-4.75,12.11-.75,15.35,5,14.91-1.34-6-10.5-.76-13.8,12-4.93,9.88-11.35c-1.35-4-5.43-7.48-2.14-10.47,5.35-4.86,5.38-15.86-1.18-18.65C948.177,3654.852,951.847,3646.972,939.637,3648.072Z" fill="#344154"/>
        <path id="Trazado_99411" data-name="Trazado 99411" d="M932.517,3697.492c-.18,3-.56,5.67-1,8.48a81.277,81.277,0,0,1-1.81,8.3,61.467,61.467,0,0,1-2.71,8.16c-.54,1.34-1.16,2.67-1.82,4-.33.66-.69,1.31-1.06,1.95-.17.33-.38.65-.57,1l-.29.47a7.348,7.348,0,0,1-.66.89,5.913,5.913,0,0,1-2,1.47,6.385,6.385,0,0,1-2.16.55,8.566,8.566,0,0,1-3.24-.44,19.649,19.649,0,0,1-4.4-2.16,54.228,54.228,0,0,1-6.83-5.29,114.565,114.565,0,0,1-11.47-12.07l2.84-2.73c2,1.76,4,3.55,6.09,5.25s4.13,3.41,6.26,5a52.775,52.775,0,0,0,6.4,4.22,12.866,12.866,0,0,0,3,1.23,1.87,1.87,0,0,0,.78.07h-.2a1.4,1.4,0,0,0-.36.25l-.05.05h0l.22-.41c.14-.27.3-.53.43-.81q.42-.831.81-1.68c.5-1.14,1-2.3,1.4-3.51.84-2.4,1.54-4.88,2.16-7.4s1.09-5.09,1.51-7.68.74-5.24,1-7.7Z" fill="#ff8b7b"/>
        <path id="Trazado_99412" data-name="Trazado 99412" d="M938.327,3698.432c-.4,2.42-2.41,7-4,10.4-1.18,2.46-2.14,4.31-2.14,4.31l-1.4-.62-11.59-5.16c.88-6.25,2.31-13,9.2-16.07C932.7,3689.392,939.037,3694.072,938.327,3698.432Z" fill="#d9a171"/>
        <path id="Trazado_99413" data-name="Trazado 99413" d="M938.327,3698.432c-.4,2.42-2.41,7-4,10.4-1.18,2.46-2.14,4.31-2.14,4.31l-1.4-.62-11.59-5.16c.88-6.25,2.31-13,9.2-16.07C932.7,3689.392,939.037,3694.072,938.327,3698.432Z" fill="#d9a171" opacity="0.6" style="isolation: isolate"/>
        <path id="Trazado_99414" data-name="Trazado 99414" d="M934.3,3708.832c-1.18,2.46-2.14,4.31-2.14,4.31l-1.4-.62c.19-2.47.68-6.36,2-8.11A11.011,11.011,0,0,1,934.3,3708.832Z" fill="#d9a171" opacity="0.3" style="isolation: isolate"/>
        <path id="Trazado_99415" data-name="Trazado 99415" d="M895.777,3712.362l.92-6.73-7.55,2.44s1.2,4.07,3.89,5.74Z" fill="#ff8b7b"/>
        <path id="Trazado_99416" data-name="Trazado 99416" d="M893.277,3699.882l-5.27,2.89,1.14,5.34,7.55-2.48Z" fill="#ff8b7b"/>
        <path id="Trazado_99417" data-name="Trazado 99417" d="M1035.677,3864.422l6.95-5a.608.608,0,0,1,.8.07l4.73,4.93a1.22,1.22,0,0,1-.092,1.723,1.112,1.112,0,0,1-.108.087c-2.45,1.7-3.72,2.39-6.78,4.58-1.88,1.35-5.84,4.61-8.44,6.47s-4.57-.6-3.66-1.61c4.1-4.52,5.19-7.6,5.84-10.14A2,2,0,0,1,1035.677,3864.422Z" fill="#344154"/>
        <path id="Trazado_99418" data-name="Trazado 99418" d="M987.2,3882.772h9a.749.749,0,0,1,.71.55l2,7.14a1.12,1.12,0,0,1-.766,1.386,1.146,1.146,0,0,1-.334.044h-20.8c-3.3,0-4-3.34-2.63-3.64,6.12-1.35,9.65-3.22,11.54-5A1.855,1.855,0,0,1,987.2,3882.772Z" fill="#344154"/>
        <path id="Trazado_99419" data-name="Trazado 99419" d="M973.457,3725.532l-29.47,9.32c-20.4-40.38-17.49-42.52-17.49-42.52s4.71-2.69,9.61-4.93c.74-.34,1.49-.67,2.23-1a98.364,98.364,0,0,1,13.38-4.24c.67-.18,1.34-.34,2-.5a93.82,93.82,0,0,1,11-1.81c.44,5.59.88,10.32,1.36,14.43.62,5.36,1.29,9.65,2,13.36A116.623,116.623,0,0,0,973.457,3725.532Z" fill="#d9a171"/>
        <path id="Trazado_99420" data-name="Trazado 99420" d="M973.457,3725.532l-29.47,9.32c-20.4-40.38-17.49-42.52-17.49-42.52s4.71-2.69,9.61-4.93c.74-.34,1.49-.67,2.23-1a98.364,98.364,0,0,1,13.38-4.24c.67-.18,1.34-.34,2-.5a93.82,93.82,0,0,1,11-1.81c.44,5.59.88,10.32,1.36,14.43.62,5.36,1.29,9.65,2,13.36A116.623,116.623,0,0,0,973.457,3725.532Z" fill="#d9a171" opacity="0.6" style="isolation: isolate"/>
        <path id="Trazado_99421" data-name="Trazado 99421" d="M968.157,3707.662c-2.83-4-5.54-13.31-4.84-16.8l2.8,3.44C966.737,3699.662,967.407,3703.952,968.157,3707.662Z" fill="#d9a171" opacity="0.3" style="isolation: isolate"/>
        <path id="Trazado_99422" data-name="Trazado 99422" d="M945.037,3699.872s7.43-1.61,9.82,1.62c3.28-3.23,2.12-15.85.54-20.35a19.353,19.353,0,0,0-3.67,1l-5.25,8.12Z" fill="#fff"/>
        <path id="Trazado_99423" data-name="Trazado 99423" d="M945.037,3699.872s-5,1.12-5.53,5.21c-7-5.21-6.51-12.84-4.93-17.34a17.573,17.573,0,0,1,3.76-1.32l5.25,5.78Z" fill="#fff"/>
        <path id="Trazado_99424" data-name="Trazado 99424" d="M946.747,3673.662c1,3.68,2.52,7.32,5,8.52,0,0,2.31,6.62-6.69,17.69-9.42-6.71-6.7-13.45-6.7-13.45,4.44-2.67,3.19-6.19,1.3-9.27l2.61-4.19a2.48,2.48,0,0,1,4.48.7Z" fill="#ff8b7b"/>
        <path id="Trazado_99425" data-name="Trazado 99425" d="M946.747,3673.662a2.479,2.479,0,0,0-4.51-.7l-.84,1.34h0c.07.89.11,1.62.1,2-.08,2.6,3.57,2.48,6.54,1.23A26.263,26.263,0,0,1,946.747,3673.662Z" fill="#d9a171" opacity="0.2" style="isolation: isolate"/>
        <path id="Trazado_99426" data-name="Trazado 99426" d="M928.657,3663.612c2.6,7.09,3.54,10.15,8.3,12.77,7.15,3.95,15.29-.79,14.87-8.52-.38-6.95-4.56-17.39-12.49-18.16a10.31,10.31,0,0,0-10.68,13.91Z" fill="#ff8b7b"/>
        <path id="Trazado_99427" data-name="Trazado 99427" d="M947.047,3652.952c-2.44-2.35-5-5.08-9.9-4.55-5.42.59-7.56,3.87-7.56,3.87l-4.66,10.19s2.89,13.12,7.66,7c2.75-3.54,2.82-8.89,1.82-12.89a32.456,32.456,0,0,0,5.52-1.28c2.2.82,4.67.82,6.5-.86.4-.37.69-.66.9-.89l.17-.19C948.037,3652.662,947.587,3652.732,947.047,3652.952Zm-6.3,2.12a51.892,51.892,0,0,1,5.2-1.39A5.131,5.131,0,0,1,940.747,3655.072Z" fill="#344154"/>
        <path id="Trazado_99428" data-name="Trazado 99428" d="M929.017,3670.822a5.543,5.543,0,0,0,3.39,2.53c1.88.47,2.77-1.22,2.2-3-.51-1.57-2.1-3.71-4-3.41a2.489,2.489,0,0,0-1.59,3.88Z" fill="#ff8b7b"/>
        <path id="Trazado_99429" data-name="Trazado 99429" d="M943.987,3734.862s-1,60.39,6.89,82.21c7.6,20.92,30.27,56.88,30.27,56.88l13.14-.33s-20.88-45.55-24.29-63.55c-5.68-29.87-4.43-82-4.43-82Z" fill="#d9a171"/>
        <path id="Trazado_99430" data-name="Trazado 99430" d="M955.787,3740.072l3.53-10,6.25-2s-.57,23.73.8,48.34C960.7,3765.492,955.787,3745.492,955.787,3740.072Z" fill="#d9a171" opacity="0.3" style="isolation: isolate"/>
        <path id="Trazado_99431" data-name="Trazado 99431" d="M979.3,3874.632l16.23-.41-.94-4.99-17.72.84Z" fill="#344154"/>
        <path id="Trazado_99432" data-name="Trazado 99432" d="M950.407,3732.912s20.5,46.89,33.75,73.58c10.7,21.56,44,50.48,44,50.48l9.13-6.33s-25.06-34.26-32.45-48.88c-23.65-46.78-17.82-66.06-31.42-76.23Z" fill="#d9a171"/>
        <path id="Trazado_99433" data-name="Trazado 99433" d="M1028.7,3859.992l10.72-7.63-2.43-4.68-11.78,8.91Z" fill="#344154"/>
        <path id="Trazado_99434" data-name="Trazado 99434" d="M973.407,3723.662l2.16,2.22c.17.17,0,.46-.35.57l-30.91,9.77a.512.512,0,0,1-.59-.13l-1.1-2.56c-.08-.17.1-.4.39-.49l29.85-9.45A.558.558,0,0,1,973.407,3723.662Z" fill="#344154"/>
        <path id="Trazado_99435" data-name="Trazado 99435" d="M970.407,3728.272l.8-.25c.16,0,.26-.18.21-.27l-1.45-3.31a.308.308,0,0,0-.37-.09l-.8.26c-.16.05-.26.17-.21.27l1.46,3.3C970.077,3728.282,970.237,3728.322,970.407,3728.272Z" fill="#d9a171"/>
        <path id="Trazado_99436" data-name="Trazado 99436" d="M946.6,3735.8l.8-.25c.16-.05.25-.17.21-.27l-1.46-3.31c0-.1-.21-.13-.37-.08l-.8.25c-.15.05-.25.17-.21.27l1.46,3.31A.321.321,0,0,0,946.6,3735.8Z" fill="#d9a171"/>
        <path id="Trazado_99437" data-name="Trazado 99437" d="M958.5,3732.072l.8-.25c.16-.05.26-.17.21-.27l-1.46-3.31c0-.09-.2-.13-.36-.08l-.8.25a.213.213,0,0,0-.21.27l1.45,3.31C958.177,3732.072,958.337,3732.072,958.5,3732.072Z" fill="#d9a171"/>
        <path id="Trazado_99438" data-name="Trazado 99438" d="M941.1,3662.072c.18.59.63,1,1,.86a1,1,0,0,0,.37-1.27c-.18-.58-.62-1-1-.86S940.927,3661.462,941.1,3662.072Z" fill="#344154"/>
        <path id="Trazado_99439" data-name="Trazado 99439" d="M947.747,3660.072c.18.59.63,1,1,.86s.55-.68.38-1.27-.63-1-1-.86S947.577,3659.482,947.747,3660.072Z" fill="#344154"/>
        <path id="Trazado_99440" data-name="Trazado 99440" d="M947.967,3658.882l1.29-.83S948.867,3659.372,947.967,3658.882Z" fill="#344154"/>
        <path id="Trazado_99441" data-name="Trazado 99441" d="M946.087,3661.6a16.758,16.758,0,0,0,3.22,3.13,2.673,2.673,0,0,1-2,1Z" fill="#ff5652"/>
        <path id="Trazado_99442" data-name="Trazado 99442" d="M945.327,3668.972a.181.181,0,0,0,.06-.19.189.189,0,0,0-.22-.13,4.821,4.821,0,0,1-4.34-.69.184.184,0,0,0-.24.28,5.181,5.181,0,0,0,4.68.76Z" fill="#344154"/>
        <path id="Trazado_99443" data-name="Trazado 99443" d="M938.587,3660.442a.377.377,0,0,0,.1-.16,2.888,2.888,0,0,1,1.87-1.81.36.36,0,0,0-.075-.716.309.309,0,0,0-.075.016,3.539,3.539,0,0,0-2.39,2.3.36.36,0,0,0,.2.467l.008,0A.412.412,0,0,0,938.587,3660.442Z" fill="#344154"/>
        <path id="Trazado_99444" data-name="Trazado 99444" d="M949.777,3656.3a.208.208,0,0,1,0-.07.379.379,0,0,0-.29-.42,3.608,3.608,0,0,0-3.18.86.361.361,0,0,0,.52.5h0a2.855,2.855,0,0,1,2.52-.65A.371.371,0,0,0,949.777,3656.3Z" fill="#344154"/>
        <path id="Trazado_99445" data-name="Trazado 99445" d="M969.237,3686.932c1.19.89,2.19,1.72,3.23,2.62s2,1.8,3,2.74c1.95,1.88,3.83,3.84,5.61,5.9a66.519,66.519,0,0,1,5,6.53c.4.56.75,1.17,1.12,1.75s.74,1.17,1.07,1.79.68,1.17,1,1.86l.53,1.11.43,1.12a26.374,26.374,0,0,1,1.28,8.8,48.769,48.769,0,0,1-.89,8.26,73.173,73.173,0,0,1-2,7.84,76.692,76.692,0,0,1-2.82,7.55l-3.62-1.34c.62-2.4,1.21-4.92,1.65-7.41a71.079,71.079,0,0,0,1.07-7.46,48.485,48.485,0,0,0,.17-7.3,29.234,29.234,0,0,0-.42-3.44,19.862,19.862,0,0,0-.91-3.08l-.31-.69-.34-.63c-.27-.46-.64-1-1-1.51s-.66-1-1-1.51-.69-1-1.07-1.48c-1.46-2-3.11-3.82-4.75-5.67s-3.44-3.59-5.27-5.29c-.9-.86-1.83-1.7-2.76-2.52s-1.93-1.64-2.79-2.34Z" fill="#ff8b7b"/>
        <path id="Trazado_99446" data-name="Trazado 99446" d="M983.327,3741.072l-5.48,4,7,3.7s2.09-3.7,1.42-6.79Z" fill="#ff8b7b"/>
        <path id="Trazado_99447" data-name="Trazado 99447" d="M976.117,3751.562l5.73,1.77,3.05-4.54-7.05-3.7Z" fill="#ff8b7b"/>
        <path id="Trazado_99448" data-name="Trazado 99448" d="M964.757,3679.872c3.83-.17,11.36,9.24,11.36,9.24l-7.82,11.06s-8.78-7-9.46-11.87C958.267,3684.152,959.877,3680.072,964.757,3679.872Z" fill="#d9a171"/>
        <path id="Trazado_99449" data-name="Trazado 99449" d="M964.757,3679.872c3.83-.17,11.36,9.24,11.36,9.24l-7.82,11.06s-8.78-7-9.46-11.87C958.267,3684.152,959.877,3680.072,964.757,3679.872Z" fill="#d9a171" opacity="0.6" style="isolation: isolate"/>
        <path id="Trazado_99450" data-name="Trazado 99450" d="M1033.047,3867.552h-.12a1,1,0,0,1-.8-.61.639.639,0,0,1,0-.62c.49-.84,3.24-1,3.55-1a.189.189,0,0,1,.17.1.182.182,0,0,1,0,.2C1035.177,3866.362,1033.987,3867.552,1033.047,3867.552Zm2.2-1.83c-1.1.08-2.56.34-2.81.78a.238.238,0,0,0,0,.27.671.671,0,0,0,.52.42c.53.06,1.37-.49,2.29-1.47Z" fill="#d9a171"/>
        <path id="Trazado_99451" data-name="Trazado 99451" d="M1035.487,3865.7c-.92,0-2.73-.51-3.07-1.25a.648.648,0,0,1,.2-.76,1,1,0,0,1,.77-.25c1.09.12,2.38,1.89,2.43,2a.172.172,0,0,1,0,.18.192.192,0,0,1-.14.1Zm-2.22-1.9a.569.569,0,0,0-.4.16c-.17.15-.15.27-.12.35a3.671,3.671,0,0,0,2.57,1c-.46-.57-1.32-1.47-2-1.54Z" fill="#d9a171"/>
        <path id="Trazado_99452" data-name="Trazado 99452" d="M983.187,3884.262a3.01,3.01,0,0,1-1.76-.42,1.131,1.131,0,0,1-.46-.87.539.539,0,0,1,.23-.49c.82-.55,3.89.84,4.5,1.13a.169.169,0,0,1,.1.18.182.182,0,0,1-.14.16A12.529,12.529,0,0,1,983.187,3884.262Zm-1.43-1.56a.684.684,0,0,0-.36.08.177.177,0,0,0-.07.17.773.773,0,0,0,.32.6c.53.4,1.78.46,3.39.16A10.991,10.991,0,0,0,981.757,3882.7Z" fill="#d9a171"/>
        <path id="Trazado_99453" data-name="Trazado 99453" d="M985.617,3883.952h-.06c-1-.42-3.08-2.07-3-2.92,0-.18.15-.42.61-.47,1.8-.22,2.56,3,2.59,3.18a.194.194,0,0,1-.06.18A.167.167,0,0,1,985.617,3883.952Zm-2.21-3.05h-.12c-.19,0-.29.08-.31.17-.06.49,1.36,1.8,2.4,2.37C985.107,3882.652,984.457,3880.9,983.407,3880.9Z" fill="#d9a171"/>
        <path id="Trazado_99454" data-name="Trazado 99454" d="M941.317,3660.862l1.29-.83S942.217,3661.352,941.317,3660.862Z" fill="#344154"/>
      </g>
      <g id="freepik--Account--inject-49">
        <path id="Trazado_99455" data-name="Trazado 99455" d="M1130.037,3587.742H984.707a11.369,11.369,0,0,0-11.447,11.292q0,.354.017.708l13.63,282.57a12.771,12.771,0,0,0,12.58,12h145.33a11.361,11.361,0,0,0,11.438-11.282q0-.36-.018-.718l-13.62-282.57A12.77,12.77,0,0,0,1130.037,3587.742Z" fill="#d9a171"/>
        <path id="Trazado_99456" data-name="Trazado 99456" d="M1135.407,3587.742H990.037a11.359,11.359,0,0,0-11.438,11.281c0,.24,0,.479.018.719l13.62,282.57a12.771,12.771,0,0,0,12.58,12h145.33a11.361,11.361,0,0,0,11.438-11.282q0-.36-.018-.718l-13.62-282.57A12.77,12.77,0,0,0,1135.407,3587.742Z" fill="#344154"/>
        <path id="Trazado_99457" data-name="Trazado 99457" d="M1004.407,3886.312a4.31,4.31,0,0,1-4.19-4l-13.6-282.57a3.819,3.819,0,0,1,3.636-4c.058,0,.116,0,.174,0h145.33a4.289,4.289,0,0,1,4.19,4l13.62,282.57a3.82,3.82,0,0,1-3.636,3.995c-.055,0-.109,0-.164.005Z" fill="#aed3f2" stroke="#d9a171" stroke-miterlimit="10" stroke-width="1"/>
        <g id="Grupo_53425" data-name="Grupo 53425" opacity="0.3">
          <path id="Trazado_99458" data-name="Trazado 99458" d="M1048.2,3868.072h-28.79a3.12,3.12,0,0,1-3.08-2.94l-2.1-43.71a2.81,2.81,0,0,1,2.613-2.994c.072,0,.145-.007.217-.006h28.84a3.1,3.1,0,0,1,3.07,2.93l2.07,43.72a2.82,2.82,0,0,1-2.634,2.994c-.069,0-.138.006-.206.006Zm-31.18-48.63a1.857,1.857,0,0,0-1.34.56,1.887,1.887,0,0,0-.5,1.37l2.11,43.7a2.111,2.111,0,0,0,2.08,2h28.83a1.83,1.83,0,0,0,1.843-1.817c0-.041,0-.082,0-.123l-2.11-43.71a2.1,2.1,0,0,0-2.07-2Z" fill="#fafafa"/>
          <path id="Trazado_99459" data-name="Trazado 99459" d="M1045.477,3829.592h-27.07a.5.5,0,0,1,0-1h27.1a.5.5,0,0,1,0,1Z" fill="#fafafa"/>
          <path id="Trazado_99460" data-name="Trazado 99460" d="M1045.757,3835.242h-27.11a.51.51,0,0,1-.5-.5.5.5,0,0,1,.5-.5h27.11a.5.5,0,0,1,.5.5A.511.511,0,0,1,1045.757,3835.242Z" fill="#fafafa"/>
          <path id="Trazado_99461" data-name="Trazado 99461" d="M1046.027,3840.892h-27.11a.51.51,0,0,1-.5-.5.5.5,0,0,1,.5-.5h27.11a.5.5,0,0,1,0,1Z" fill="#fafafa"/>
          <path id="Trazado_99462" data-name="Trazado 99462" d="M1046.3,3846.542h-27.1a.5.5,0,0,1,0-1h27.1a.5.5,0,0,1,0,1Z" fill="#fafafa"/>
          <path id="Trazado_99463" data-name="Trazado 99463" d="M1046.567,3852.192h-27.1a.5.5,0,1,1,0-1h27.1a.5.5,0,0,1,0,1Z" fill="#fafafa"/>
          <path id="Trazado_99464" data-name="Trazado 99464" d="M1041.287,3857.842h-21.55a.5.5,0,1,1,0-1h21.55a.5.5,0,0,1,.5.5A.512.512,0,0,1,1041.287,3857.842Z" fill="#fafafa"/>
        </g>
        <g id="Grupo_53426" data-name="Grupo 53426" opacity="0.3">
          <path id="Trazado_99465" data-name="Trazado 99465" d="M1066.347,3707.7l-19.77,3.16a22.981,22.981,0,0,0-3-5.27,14.156,14.156,0,0,0-4.13-3l.74,15.5q16.49,4.34,22.19,9.16a22.261,22.261,0,0,1,8,16.45,21.824,21.824,0,0,1-1.97,10.74,24.389,24.389,0,0,1-6.25,8.15,25.08,25.08,0,0,1-8.37,4.74,41.315,41.315,0,0,1-11.1,1.74l.13,2.73a3.69,3.69,0,0,1-3.463,3.9c-.086,0-.172.007-.257.007h0a4.151,4.151,0,0,1-4.1-3.91l-.13-2.73a50.524,50.524,0,0,1-12.89-2.54,27.622,27.622,0,0,1-8.71-5.11,27.013,27.013,0,0,1-5.86-7.05,33.992,33.992,0,0,1-3.33-9.13l21.51-2.51q1.219,5.289,3,7.65a14.455,14.455,0,0,0,5.58,4.18l-.91-18.92a105.981,105.981,0,0,1-15.6-5.2,21.93,21.93,0,0,1-8.18-7.05,21.184,21.184,0,0,1-3.89-11.82,20.215,20.215,0,0,1,5.9-15.94q6.36-6.411,19.5-7.1l-.07-1.39a3.69,3.69,0,0,1,3.463-3.9c.085-.005.171-.007.257-.006h0a4.149,4.149,0,0,1,4.1,3.91l.07,1.39q12,.75,18.61,5.68A24.264,24.264,0,0,1,1066.347,3707.7Zm-34.7-5.35a9.407,9.407,0,0,0-4.63,2.79,5.878,5.878,0,0,0-1.15,3.93,6.862,6.862,0,0,0,1.56,4.12,10.711,10.711,0,0,0,4.89,2.93Zm10.37,52.72q4.5-1,6.5-3.36a7.241,7.241,0,0,0,1.86-5.24,7.431,7.431,0,0,0-2-4.65c-1.26-1.41-3.66-2.73-7.18-3.94Z" fill="#fafafa"/>
        </g>
        <path id="Trazado_99466" data-name="Trazado 99466" d="M1118.607,3624.632h-99l9.65,200.11a32.4,32.4,0,0,0,32,30.54h99l-9.64-200.11A32.38,32.38,0,0,0,1118.607,3624.632Z" fill="#5e6178" opacity="0.2" style="isolation: isolate"/>
        <path id="Trazado_99467" data-name="Trazado 99467" d="M1142.857,3624.632h-123.22a32.39,32.39,0,0,1,32,30.54l7.87,162.9a32.4,32.4,0,0,0,32,30.54h62.13a28.84,28.84,0,0,0,29.138-28.539q.01-1-.048-2l-7.86-162.9A32.38,32.38,0,0,0,1142.857,3624.632Z" fill="#fafafa"/>
        <path id="Trazado_99468" data-name="Trazado 99468" d="M1120.587,3818.072a28.83,28.83,0,0,1-27.068,30.49q-.995.06-1.992.05h123.21a28.841,28.841,0,0,0,29.119-28.559q.009-.991-.049-1.981Z" fill="#e6e6e6"/>
        <path id="Trazado_99469" data-name="Trazado 99469" d="M1160.207,3725.742h-87.08a2.41,2.41,0,0,1-2.38-2.27h0a2.149,2.149,0,0,1,2.026-2.267c.045,0,.089,0,.134,0h87.08a2.41,2.41,0,0,1,2.42,2.27h0a2.151,2.151,0,0,1-2.026,2.267Q1160.294,3725.743,1160.207,3725.742Z" fill="#d9a171"/>
        <path id="Trazado_99470" data-name="Trazado 99470" d="M1160.887,3739.912h-87.08a2.41,2.41,0,0,1-2.38-2.27h0a2.149,2.149,0,0,1,2.026-2.267c.045,0,.089,0,.134,0h87.09a2.409,2.409,0,0,1,2.37,2.27h0a2.15,2.15,0,0,1-2.027,2.266C1160.976,3739.911,1160.931,3739.912,1160.887,3739.912Z" fill="#d9a171"/>
        <path id="Trazado_99471" data-name="Trazado 99471" d="M1161.577,3754.072h-87.09a2.41,2.41,0,0,1-2.38-2.27h0a2.149,2.149,0,0,1,2.026-2.267c.045,0,.089,0,.134,0h87.14a2.41,2.41,0,0,1,2.38,2.27h0a2.15,2.15,0,0,1-2.026,2.267C1161.7,3754.073,1161.638,3754.073,1161.577,3754.072Z" fill="#d9a171"/>
        <path id="Trazado_99472" data-name="Trazado 99472" d="M1162.257,3768.262h-87.08a2.42,2.42,0,0,1-2.38-2.27h0a2.149,2.149,0,0,1,2.026-2.267c.045,0,.089,0,.134,0h87.08a2.41,2.41,0,0,1,2.38,2.27h0a2.15,2.15,0,0,1-2.027,2.266C1162.346,3768.261,1162.3,3768.262,1162.257,3768.262Z" fill="#d9a171"/>
        <path id="Trazado_99473" data-name="Trazado 99473" d="M1128.317,3782.432h-52.46a2.41,2.41,0,0,1-2.38-2.27h0a2.149,2.149,0,0,1,2.026-2.267c.045,0,.089,0,.134,0h52.46a2.41,2.41,0,0,1,2.38,2.27h0a2.15,2.15,0,0,1-2.027,2.266C1128.406,3782.431,1128.361,3782.432,1128.317,3782.432Z" fill="#d9a171"/>
        <path id="Trazado_99474" data-name="Trazado 99474" d="M1136.887,3676.772a21.914,21.914,0,0,1-2.21,10.76,21.272,21.272,0,0,1-19.27,11.82,23.861,23.861,0,0,1-20.42-11.82,23.227,23.227,0,0,1-3.25-10.76,21.319,21.319,0,0,1,20.021-22.544q.733-.044,1.469-.036A24,24,0,0,1,1136.887,3676.772Z" fill="#6595bf"/>
      </g>
      <g id="freepik--character-male--inject-49">
        <path id="Trazado_99475" data-name="Trazado 99475" d="M1198.167,3886.812h-7.34l-.74-17.02h7.35Z" fill="#b55b52"/>
        <path id="Trazado_99476" data-name="Trazado 99476" d="M1190.1,3869.8l.37,8.77h7.35l-.38-8.77Z" fill="#d9a171" opacity="0.2" style="isolation: isolate"/>
        <path id="Trazado_99477" data-name="Trazado 99477" d="M1260.7,3866.872l-6.98,2.28-8.79-15.03,6.99-2.28Z" fill="#b55b52"/>
        <path id="Trazado_99478" data-name="Trazado 99478" d="M1251.917,3851.842l-6.99,2.28,4.54,7.75,6.98-2.28Z" fill="#d9a171" opacity="0.2" style="isolation: isolate"/>
        <path id="Trazado_99479" data-name="Trazado 99479" d="M1223.007,3640.992c.91,1.11,1.68,2.1,2.47,3.19s1.54,2.13,2.29,3.21c1.48,2.17,2.9,4.39,4.23,6.68a74.9,74.9,0,0,1,6.73,14.71l.17.5.08.26.11.41.2.82.11.75a15.052,15.052,0,0,1,.11,2.71,27.389,27.389,0,0,1-.66,4.53,53.109,53.109,0,0,1-2.51,7.82,90.867,90.867,0,0,1-7.16,14l-5-2.39c1.5-4.69,3-9.49,4.1-14.16a56.779,56.779,0,0,0,1.3-6.84,17.388,17.388,0,0,0,.11-3,6,6,0,0,0-.14-1.06l-.05-.18a.866.866,0,0,1-.05-.1h0l-.08-.19-.16-.39-.67-1.57-.75-1.56c-.5-1-1.05-2.08-1.6-3.12-1.14-2.06-2.37-4.11-3.65-6.15s-2.64-4-4-6-2.85-4-4.2-5.81Z" fill="#b55b52"/>
        <path id="Trazado_99480" data-name="Trazado 99480" d="M1224.637,3696.952l-2.87,6.35h8.21s1.31-4.82-1.67-6.77Z" fill="#b55b52"/>
        <path id="Trazado_99481" data-name="Trazado 99481" d="M1222.727,3710.442l7.62-1.47-.37-5.67h-8.21Z" fill="#b55b52"/>
        <path id="Trazado_99482" data-name="Trazado 99482" d="M1186.627,3608.762c0,.6-.31,1.08-.7,1.08s-.7-.48-.7-1.08.32-1.07.7-1.07S1186.627,3608.172,1186.627,3608.762Z" fill="#344154"/>
        <path id="Trazado_99483" data-name="Trazado 99483" d="M1186.407,3609.842a21.014,21.014,0,0,1-2.83,5.06,3.432,3.432,0,0,0,2.83.54Z" fill="#a02724"/>
        <path id="Trazado_99484" data-name="Trazado 99484" d="M1188.727,3605.482a.31.31,0,0,1-.2-.07,2.8,2.8,0,0,0-2.47-.45.35.35,0,0,1-.25-.65,3.446,3.446,0,0,1,3.13.54.36.36,0,0,1,.08.49A.371.371,0,0,1,1188.727,3605.482Z" fill="#344154"/>
        <path id="Trazado_99485" data-name="Trazado 99485" d="M1205.757,3615.592c-1.06,5.38-2.11,15.23,1.65,18.81,0,0-1.47,5.45-11.45,5.45-11,0-5.25-5.45-5.25-5.45,6-1.43,5.84-5.87,4.79-10.05Z" fill="#b55b52"/>
        <path id="Trazado_99486" data-name="Trazado 99486" d="M1208.847,3636.272c.79-1.72,1.66-3.7-.14-4.32-2-.68-12.76-1.37-16.49-.09a3.84,3.84,0,0,0-2.676,4.725l.016.055Z" fill="#344154"/>
        <path id="Trazado_99487" data-name="Trazado 99487" d="M1252.207,3870.9c-.54.52-1.15.94-1.61.87a.719.719,0,0,1-.57-.6.8.8,0,0,1,.12-.67c.6-.93,3-1.33,3.13-1.34a.179.179,0,0,1,.17.07.173.173,0,0,1,0,.19A9.3,9.3,0,0,1,1252.207,3870.9Zm-1.63-.38a.984.984,0,0,0-.14.16.477.477,0,0,0-.07.4c.08.31.23.34.28.34.51.08,1.6-1,2.27-1.84a5.769,5.769,0,0,0-2.34.94Z" fill="#d9a171"/>
        <path id="Trazado_99488" data-name="Trazado 99488" d="M1253.407,3869.452l-.08.05c-.83.22-3,.08-3.46-.62a.59.59,0,0,1,.08-.72,1,1,0,0,1,.69-.35c1.1-.08,2.69,1.33,2.76,1.39a.161.161,0,0,1,.05.17A.125.125,0,0,1,1253.407,3869.452Zm-3.13-1.12-.06.06c-.14.17-.08.26-.06.3.27.41,1.79.64,2.73.53a4.307,4.307,0,0,0-2.22-1.06.587.587,0,0,0-.37.17Z" fill="#d9a171"/>
        <path id="Trazado_99489" data-name="Trazado 99489" d="M1187.867,3887.182c-.94,0-1.85-.13-2.15-.55a.639.639,0,0,1,0-.76.865.865,0,0,1,.55-.41c1.22-.33,3.79,1.13,3.9,1.2a.158.158,0,0,1,.08.18.171.171,0,0,1-.13.14A13.551,13.551,0,0,1,1187.867,3887.182Zm-1.16-1.42a1.221,1.221,0,0,0-.34,0,.508.508,0,0,0-.34.24c-.12.22-.08.33,0,.39.34.47,2.2.48,3.56.29a7.818,7.818,0,0,0-2.88-.92Z" fill="#d9a171"/>
        <path id="Trazado_99490" data-name="Trazado 99490" d="M1190.087,3886.982h-.07c-.88-.4-2.64-2-2.51-2.82,0-.2.17-.44.65-.49a1.325,1.325,0,0,1,1,.3c.93.77,1.13,2.75,1.14,2.83a.213.213,0,0,1-.08.16A.174.174,0,0,1,1190.087,3886.982Zm-1.79-3h-.1c-.32,0-.34.15-.34.19-.08.5,1.11,1.75,2,2.29a4.009,4.009,0,0,0-1-2.26.917.917,0,0,0-.56-.2Z" fill="#d9a171"/>
        <path id="Trazado_99491" data-name="Trazado 99491" d="M1253.107,3868.342l6-5.71a.628.628,0,0,1,.8-.07l5.56,3.72a1.072,1.072,0,0,1,.12,1.68c-2.11,2-3.24,2.81-5.86,5.31-1.62,1.55-6.44,6.8-8.67,8.94s-4.63.2-3.91-.87c3.24-4.81,5.26-9.42,5.44-11.85A1.834,1.834,0,0,1,1253.107,3868.342Z" fill="#344154"/>
        <path id="Trazado_99492" data-name="Trazado 99492" d="M1190.867,3885.962h8a.63.63,0,0,1,.62.5l1.45,6.53a1.063,1.063,0,0,1-1.05,1.3c-2.9,0-7.08-.21-10.72-.21-4.25,0-7.92.23-12.91.23-3,0-3.85-3.05-2.59-3.33,5.74-1.25,10.44-1.39,15.4-4.45A3.428,3.428,0,0,1,1190.867,3885.962Z" fill="#344154"/>
        <path id="Trazado_99493" data-name="Trazado 99493" d="M1180.407,3651.072c-2.92,4.3-5.93,8.32-9.17,12.29a138.4,138.4,0,0,1-10.41,11.48l-1.42,1.38-.36.34-.26.24-.38.27a9.813,9.813,0,0,1-1.51,1,13.479,13.479,0,0,1-5.45,1.53,30.717,30.717,0,0,1-8.66-.72,65.262,65.262,0,0,1-14.85-5.22l1.84-5.2a116.759,116.759,0,0,0,14.18,1.94,26.185,26.185,0,0,0,6.27-.26,4.014,4.014,0,0,0,1.66-.65c.05,0,0-.06,0-.06h0l.08-.08.29-.33,1.19-1.3c3.12-3.56,6.15-7.36,9.09-11.24s5.89-7.86,8.7-11.74Z" fill="#b55b52"/>
        <path id="Trazado_99494" data-name="Trazado 99494" d="M1220.567,3636.072c6.88,1.58,14.78,20.35,14.78,20.35l-13.83,9.48a115.99,115.99,0,0,1-9.11-15.54C1208.307,3641.772,1213.527,3634.452,1220.567,3636.072Z" fill="#d9a171"/>
        <path id="Trazado_99495" data-name="Trazado 99495" d="M1215.627,3648.072l6.54,17.41-.65.45s-2.83-4-5.89-9.33Z" fill="#d9a171" opacity="0.3" style="isolation: isolate"/>
        <path id="Trazado_99496" data-name="Trazado 99496" d="M1179.407,3636.442s-7.82,8.83-.43,63.5h39.29c.27-6-3.52-35.46,2.3-63.88a102.717,102.717,0,0,0-13.16-1.66,144.9,144.9,0,0,0-16.7,0A73.4,73.4,0,0,0,1179.407,3636.442Z" fill="#d9a171"/>
        <path id="Trazado_99497" data-name="Trazado 99497" d="M1183.767,3652.252a34.873,34.873,0,0,1-7.76,16.82c-.16-3.52-.22-6.68-.21-9.51Z" fill="#d9a171" opacity="0.3" style="isolation: isolate"/>
        <path id="Trazado_99498" data-name="Trazado 99498" d="M1187.157,3642.4c1,6.95-12.74,24.72-12.74,24.72l-13.77-9.48s3.82-9.79,10.25-16.21C1178.247,3634.072,1186.107,3634.832,1187.157,3642.4Z" fill="#d9a171"/>
        <path id="Trazado_99499" data-name="Trazado 99499" d="M1130.727,3669.072l-5.39-5.57-5.75,7.41s4.38,4.23,9.59,3Z" fill="#b55b52"/>
        <path id="Trazado_99500" data-name="Trazado 99500" d="M1117.937,3660.4l-2.47,7.78,4.12,2.7,5.75-7.41Z" fill="#b55b52"/>
        <path id="Trazado_99501" data-name="Trazado 99501" d="M1206.407,3607.512c-.45,7.27-.34,11.56-4,15.29-5.53,5.62-14.51,2.29-16.24-5-1.57-6.54-.57-17.34,6.55-20.23a9.94,9.94,0,0,1,13.69,9.94Z" fill="#b55b52"/>
        <path id="Trazado_99502" data-name="Trazado 99502" d="M1212.737,3592.322c2.24,2.06,1.29,4.36.12,4.79,3.63.75,4.16,3.64,2.25,9.74-1.82,5.84-6.23,13.67-11.74,14.15-8.28.72-10.7-7.91-10.76-16.47-4.68.29-2.66-3.86-8.41-2.9-5,.83-3.12-3.07-7.37-4.77-4.93-2-3.94-9.55.66-7.38,0,0-2.13,1.4.35,2.72s2.24-1.73,7.15-2.1,5.48,3.83,11.22,1.3C1203.407,3588.222,1208.137,3588.072,1212.737,3592.322Z" fill="#344154"/>
        <path id="Trazado_99503" data-name="Trazado 99503" d="M1209.977,3597.072a2.867,2.867,0,0,1,3.19-1.25c2.25.48,2.43,1.47,3.84,1.34s.9,1.37.9,1.37-.38-1.13-2.08-.5-2.81-.91-3.54-.22S1209.977,3597.072,1209.977,3597.072Z" fill="#344154"/>
        <path id="Trazado_99504" data-name="Trazado 99504" d="M1196.527,3609.492a8.159,8.159,0,0,1-2.57,4.62c-1.78,1.58-3.32.31-3.38-1.85,0-1.95.83-5.13,2.88-5.89S1196.9,3607.332,1196.527,3609.492Z" fill="#b55b52"/>
        <path id="Trazado_99505" data-name="Trazado 99505" d="M1192.907,3699.942s8.34,56.13,12.92,77.13c5,23,39.85,84.2,39.85,84.2l12.8-4.16s-27.75-55.14-30.61-77.95c-3.11-24.75-9.6-79.26-9.6-79.26Z" fill="#344154"/>
        <path id="Trazado_99506" data-name="Trazado 99506" d="M1242.1,3857.272c-.05,0,2.93,4.48,2.93,4.48l14.38-4.68-1.69-4.3Z" fill="#d9a171"/>
        <path id="Trazado_99507" data-name="Trazado 99507" d="M1198.177,3719.942c9.64,1.89,8.62,37.84,7.46,56.33-2.78-13.07-6.85-38.22-9.63-56.07A3.283,3.283,0,0,1,1198.177,3719.942Z" fill="#d9a171" opacity="0.3" style="isolation: isolate"/>
        <path id="Trazado_99508" data-name="Trazado 99508" d="M1178.977,3699.942s-1,54.93-.22,77.33c.83,23.3,9,99.6,9,99.6h12.45s.45-74.94,1-97.82c.6-25,3.61-79.11,3.61-79.11Z" fill="#344154"/>
        <path id="Trazado_99509" data-name="Trazado 99509" d="M1185.337,3871.912c-.06,0,.7,5.17.7,5.17h15.14l.41-4.61Z" fill="#d9a171"/>
      </g>
    </g>
  </g>
</svg>
