<svg xmlns="http://www.w3.org/2000/svg" width="84.526" height="86.168" viewBox="0 0 84.526 86.168">
  <g id="Grupo_59382" data-name="Grupo 59382" transform="translate(-1079.44 -6218.057)">
    <g id="Grupo_59380" data-name="Grupo 59380">
      <path id="Trazado_103282" data-name="Trazado 103282" d="M1153.968,6264.637l10-17.963-5.838-3.356,1.143-2.906-6.089-2.4,1.663-6.4-31.157-8.1-.787-.452-.124.215L1109,6219.7l-9.141,35.168a6.718,6.718,0,0,0-1.715,1.544,3.6,3.6,0,0,0-.86-.116h-12.6a3.612,3.612,0,0,0-3.6,3.6v39.6a4.742,4.742,0,0,0,3.809,4.631,4.382,4.382,0,0,0,.917.093h52.876a4.74,4.74,0,0,0,4.354-2.9,5.774,5.774,0,0,0,.753-1.64Z" fill="gray" opacity="0.7" style="mix-blend-mode: multiply;isolation: isolate"/>
      <g id="_2" data-name="2">
        <path id="Trazado_103283" data-name="Trazado 103283" d="M1136.367,6302.579h-52.2c-2.6,0-4.007-2.048-3.134-4.537l14.666-41.848a6.559,6.559,0,0,1,5.825-4.012h49.438c2.429,0,3.932,1.8,3.333,4.012l-12.145,41.848A6.312,6.312,0,0,1,1136.367,6302.579Z" fill="#5e6178"/>
        <rect id="Rectángulo_5540" data-name="Rectángulo 5540" width="66.569" height="47.365" transform="translate(1090.61 6282.484) rotate(-75.429)" fill="#bcbec0"/>
        <rect id="Rectángulo_5541" data-name="Rectángulo 5541" width="66.568" height="47.366" transform="translate(1089.173 6283.366) rotate(-68.52)" fill="#d1d3d4"/>
        <path id="Trazado_103284" data-name="Trazado 103284" d="M1130.8,6301.661l-42.72-22.527,33.176-57.712,41.065,23.606Z" fill="#e6e7e8"/>
        <g id="Grupo_59378" data-name="Grupo 59378">
          <rect id="Rectángulo_5542" data-name="Rectángulo 5542" width="2.026" height="40.015" transform="translate(1121.908 6228.81) rotate(-60.149)" fill="#bcbec0"/>
          <rect id="Rectángulo_5543" data-name="Rectángulo 5543" width="2.025" height="40.014" transform="translate(1119.438 6234.65) rotate(-60.171)" fill="#bcbec0"/>
          <rect id="Rectángulo_5544" data-name="Rectángulo 5544" width="2.025" height="40.015" transform="translate(1114.93 6240.484) rotate(-60.171)" fill="#bcbec0"/>
          <rect id="Rectángulo_5545" data-name="Rectángulo 5545" width="2.026" height="40.015" transform="translate(1111.885 6246.318) rotate(-60.172)" fill="#bcbec0"/>
          <rect id="Rectángulo_5546" data-name="Rectángulo 5546" width="2.025" height="40.015" transform="translate(1108.51 6252.152) rotate(-60.172)" fill="#bcbec0"/>
          <rect id="Rectángulo_5547" data-name="Rectángulo 5547" width="2.025" height="40.014" transform="translate(1104.444 6257.985) rotate(-60.172)" fill="#bcbec0"/>
        </g>
        <g id="Grupo_59379" data-name="Grupo 59379">
          <path id="Trazado_103285" data-name="Trazado 103285" d="M1099.241,6259.6v-1.35a3.611,3.611,0,0,0-3.6-3.6h-12.6a3.611,3.611,0,0,0-3.6,3.6v39.6a4.739,4.739,0,0,0,4.726,4.725h27.45V6259.6Z" fill="#aed3f2"/>
          <path id="Trazado_103286" data-name="Trazado 103286" d="M1137.042,6259.6h-25.426v42.976h25.426a4.738,4.738,0,0,0,4.724-4.725v-33.525A4.739,4.739,0,0,0,1137.042,6259.6Z" fill="#6595bf"/>
          <rect id="Rectángulo_5548" data-name="Rectángulo 5548" width="14.625" height="6.076" transform="translate(1081.691 6258.028)" fill="#fff"/>
        </g>
      </g>
    </g>
    <g id="Grupo_59381" data-name="Grupo 59381">
      <path id="Trazado_103287" data-name="Trazado 103287" d="M1091.384,6270.916h-2.763v7.669h-1.127v-7.669h-2.757v-.926h6.647Z" fill="#344154"/>
      <path id="Trazado_103288" data-name="Trazado 103288" d="M1095.811,6275.108h-2.019v3.477h-1.139v-8.595h2.846a3.367,3.367,0,0,1,2.234.661,2.38,2.38,0,0,1,.782,1.924,2.316,2.316,0,0,1-.434,1.4,2.593,2.593,0,0,1-1.207.892l2.019,3.648v.071h-1.216Zm-2.019-.927h1.742a1.963,1.963,0,0,0,1.343-.438,1.482,1.482,0,0,0,.5-1.171,1.557,1.557,0,0,0-.476-1.224,2.008,2.008,0,0,0-1.372-.432h-1.736Z" fill="#344154"/>
      <path id="Trazado_103289" data-name="Trazado 103289" d="M1100.1,6278.585v-8.595h2.426a3.912,3.912,0,0,1,1.984.495,3.361,3.361,0,0,1,1.331,1.411,4.594,4.594,0,0,1,.475,2.1v.549a4.608,4.608,0,0,1-.469,2.131,3.308,3.308,0,0,1-1.34,1.4,4.163,4.163,0,0,1-2.028.5Zm1.133-7.669v6.742h1.193a2.6,2.6,0,0,0,2.039-.815,3.371,3.371,0,0,0,.729-2.323v-.5a3.422,3.422,0,0,0-.687-2.277,2.448,2.448,0,0,0-1.951-.825Z" fill="#344154"/>
    </g>
  </g>
</svg>
