<svg xmlns="http://www.w3.org/2000/svg" width="380.641" height="305.132" viewBox="0 0 380.641 305.132">
  <g id="Grupo_59395" data-name="Grupo 59395" transform="translate(-208.927 -6415.882)">
    <g id="freepik--background-complete--inject-42" transform="translate(208.927 6424.645)">
      <path id="Trazado_103514" data-name="Trazado 103514" d="M251.531,6426.281a13.947,13.947,0,0,1,10.753,1.961,24.489,24.489,0,0,1,7.625,8.121c3.817,6.161,5.106,14.4,5.228,21.646-8.043-.4-14.814-6.788-18.108-10.239-5.159-5.473-11.084-18.482-5.5-21.489" transform="translate(-214.116 -6425.938)" fill="#f5f5f5"/>
      <path id="Trazado_103515" data-name="Trazado 103515" d="M293.115,6465.073a11.9,11.9,0,0,1-3.991-11.276,15.844,15.844,0,0,1,6.9-10.082c1.612-1.072,3.59-1.926,5.446-1.359a5.107,5.107,0,0,1,3.259,4,10.457,10.457,0,0,1-.671,5.324c-2.091,5.839-5.176,11.11-10.945,13.394" transform="translate(-219.213 -6428.026)" fill="#f5f5f5"/>
      <path id="Trazado_103516" data-name="Trazado 103516" d="M298.355,6484a23.586,23.586,0,0,1-2.274-4.217,21.763,21.763,0,0,1-1.6-4.984,48.277,48.277,0,0,1-1.037-6.292,23.983,23.983,0,0,1,1.813-11.442,17.606,17.606,0,0,1,1.743-3.05,5.174,5.174,0,0,1,.871-.95,25.325,25.325,0,0,0-2.135,4.226,25.586,25.586,0,0,0-1.534,11.154,56.306,56.306,0,0,0,.924,6.222,24.46,24.46,0,0,0,1.394,4.906A27.662,27.662,0,0,1,298.355,6484Z" transform="translate(-219.784 -6429.426)" fill="#e0e0e0"/>
      <path id="Trazado_103517" data-name="Trazado 103517" d="M258.084,6437.232a13.628,13.628,0,0,1,1.691,1.743c1.037,1.159,2.527,2.858,4.357,4.967,3.634,4.226,8.592,10.117,13.943,16.748s9.96,12.792,13.184,17.307c1.63,2.265,2.928,4.1,3.8,5.394a14.3,14.3,0,0,1,1.3,2.056,14.449,14.449,0,0,1-1.551-1.865l-4.008-5.229c-3.381-4.427-8.087-10.509-13.4-17.141l-13.716-16.905-4.148-5.124A15.246,15.246,0,0,1,258.084,6437.232Z" transform="translate(-215.249 -6427.391)" fill="#e0e0e0"/>
      <path id="Trazado_103518" data-name="Trazado 103518" d="M283.066,6476.724a27.886,27.886,0,0,0-25.271-3.189c-2.109.784-4.357,2.257-4.462,4.5s2.144,3.852,4.226,4.723a23.8,23.8,0,0,0,25.811-5.551" transform="translate(-214.637 -6431.843)" fill="#f5f5f5"/>
      <path id="Trazado_103519" data-name="Trazado 103519" d="M264.924,6477.527a4.1,4.1,0,0,1,1.211-.418c.784-.218,1.943-.47,3.381-.74a31.638,31.638,0,0,1,11.459-.1,19.8,19.8,0,0,1,5.943,2.274,19.069,19.069,0,0,1,6.2,5.986,4,4,0,0,1,.619,1.116c-.131.1-1.124-1.429-3.181-3.486a19.363,19.363,0,0,0-9.751-5.141,35.476,35.476,0,0,0-11.206-.131C266.728,6477.265,264.95,6477.614,264.924,6477.527Z" transform="translate(-216.128 -6432.35)" fill="#e0e0e0"/>
      <path id="Trazado_103520" data-name="Trazado 103520" d="M289.146,6654.664c25.985-12.618,36.12-42.1,39.527-69.5.575-4.575,1.839-9.289.305-13.629s-6.143-7.843-10.527-6.6c-3.625,1.046-5.725,4.749-8.13,7.694a27,27,0,0,1-12.3,8.5c-3.137,1.037-6.867,1.385-9.481-.646-3.581-2.788-3.181-8.287-2.431-12.809L290.3,6542.4c.749-4.522,1.5-9.141.776-13.664s-3.2-9-7.311-10.893-9.829-.253-11.442,4.026c-.68,1.786-.6,3.756-1.028,5.621s-1.63,3.791-3.486,4.035-3.486-1.325-4.636-2.867c-3.939-5.315-6.178-11.7-8.209-18.029s-3.947-12.775-7.4-18.43-8.714-10.544-15.1-11.947-13.943,1.508-16.609,7.608,0,13.184,3.259,19a102.206,102.206,0,0,0,17.846,23.389c1.264,1.246,2.614,2.614,2.911,4.357.505,3.172-2.832,5.717-5.969,6.23-3.547.584-7.154-.348-10.753-.487s-7.66.8-9.524,3.921c-2.614,4.357.505,9.794,3.808,13.576a87.462,87.462,0,0,0,23.24,18.849c3.128,1.743,6.466,3.372,8.775,6.143s3.285,7.094,1.159,10.021-6.457,3.285-9.838,2.083-6.2-3.6-9.333-5.341c-5.838-3.338-13.943-4.192-18.779.549-3.181,3.12-4.191,8-3.538,12.426s2.762,8.47,5.08,12.27c8.1,13.281,19.363,24.73,33,32.024s26.778,10.788,41.95,7.843" transform="translate(-208.927 -6432.878)" fill="#ebebeb"/>
      <path id="Trazado_103521" data-name="Trazado 103521" d="M287.589,6656.521c.732-10.954,1.22-5.272-.627-19.659a415.056,415.056,0,0,0-9.15-46.185l-3.024-12c-1-3.93-1.987-7.843-3.2-11.59a204.459,204.459,0,0,0-8.165-21.184c-2.919-6.614-5.934-12.783-8.8-18.526s-5.638-11.076-8.392-15.8a163.171,163.171,0,0,0-14.579-21.315c-1.908-2.37-3.486-4.157-4.514-5.359l-1.22-1.359a3.084,3.084,0,0,0-.436-.444,3.274,3.274,0,0,0,.375.506c.288.348.671.81,1.15,1.411,1.02,1.229,2.518,3.059,4.357,5.455a172.682,172.682,0,0,1,14.317,21.411c2.7,4.732,5.438,10.039,8.287,15.781s5.812,11.93,8.714,18.535a205.345,205.345,0,0,1,8.087,21.149c1.194,3.738,2.17,7.607,3.172,11.555s2,7.938,3.015,11.982a421.565,421.565,0,0,1,9.2,46.115c1.865,14.343,1.455,8.6.8,19.52" transform="translate(-211.056 -6433.289)" fill="#e0e0e0"/>
      <path id="Trazado_103522" data-name="Trazado 103522" d="M278.134,6572.18a9.838,9.838,0,0,0,.749-1.865c.436-1.211,1.011-2.98,1.682-5.185,1.359-4.409,3.024-10.553,4.836-17.332s3.564-12.9,4.984-17.263c.7-2.187,1.29-3.957,1.743-5.167a9.028,9.028,0,0,0,.566-1.926,9.588,9.588,0,0,0-.871,1.8c-.514,1.185-1.194,2.919-1.969,5.1-1.569,4.357-3.416,10.457-5.228,17.228s-3.372,12.758-4.6,17.428c-.558,2.083-1.037,3.843-1.42,5.229A8.325,8.325,0,0,0,278.134,6572.18Z" transform="translate(-217.827 -6438.477)" fill="#e0e0e0"/>
      <path id="Trazado_103523" data-name="Trazado 103523" d="M213.344,6556.262a12.332,12.332,0,0,0,2.283.654c1.464.366,3.6.871,6.213,1.621,5.228,1.429,12.4,3.642,20.2,6.44s14.744,5.655,19.711,7.842c2.492,1.089,4.488,2.021,5.865,2.614a12.1,12.1,0,0,0,2.187.923,12.827,12.827,0,0,0-2.039-1.22c-1.342-.724-3.3-1.743-5.769-2.9-4.915-2.344-11.851-5.29-19.668-8.1a207.794,207.794,0,0,0-20.339-6.222c-2.614-.653-4.8-1.1-6.3-1.368A13.326,13.326,0,0,0,213.344,6556.262Z" transform="translate(-209.495 -6442.697)" fill="#e0e0e0"/>
      <path id="Trazado_103524" data-name="Trazado 103524" d="M295.454,6647.915a5.394,5.394,0,0,0,.514-.645l1.333-1.943c1.142-1.7,2.736-4.191,4.671-7.3,3.869-6.221,8.941-14.979,14.4-24.721s10.457-18.535,14.187-24.827c1.83-3.05,3.329-5.568,4.444-7.433.479-.811.871-1.481,1.2-2.03a3.061,3.061,0,0,0,.366-.741,5.376,5.376,0,0,0-.514.645l-1.394,1.943c-1.15,1.7-2.745,4.191-4.679,7.3-3.843,6.239-8.915,14.953-14.378,24.722s-10.457,18.535-14.187,24.826c-1.83,3.05-3.329,5.568-4.444,7.434l-1.194,2.03A2.976,2.976,0,0,0,295.454,6647.915Z" transform="translate(-220.054 -6445.527)" fill="#e0e0e0"/>
      <path id="Trazado_103525" data-name="Trazado 103525" d="M211.234,6615.482a3.024,3.024,0,0,0,.715.436l2.091,1.107,7.843,4c6.631,3.381,15.738,8.157,25.785,13.446s19.171,9.978,25.916,13.228c3.346,1.621,6.1,2.9,7.973,3.756l2.2.967a.42.42,0,1,0,.07-.157l-2.126-1.107-7.843-4c-6.631-3.381-15.738-8.156-25.785-13.446s-19.171-9.986-25.907-13.228c-3.355-1.621-6.1-2.9-7.982-3.756l-2.161-.984A3.218,3.218,0,0,0,211.234,6615.482Z" transform="translate(-209.224 -6450.312)" fill="#e0e0e0"/>
    </g>
    <g id="freepik--Floor--inject-42" transform="translate(213.308 6720.561)">
      <path id="Trazado_103526" data-name="Trazado 103526" d="M582.437,6765.749c0,.122-82.5.227-184.233.227s-184.25-.1-184.25-.227,82.479-.227,184.25-.227S582.437,6765.627,582.437,6765.749Z" transform="translate(-213.954 -6765.522)" fill="#263238"/>
    </g>
    <g id="freepik--Plant--inject-42" transform="translate(230.649 6575.946)">
      <path id="Trazado_103527" data-name="Trazado 103527" d="M236.756,6600.094s6.013-4.061,13.524,10.344,10.387,22.727,10.387,22.727,1.978,3.015,4.043,1.011,4.862-7.651,8.418-6.667,4.932,5.1,4.287,11.128-1.569,19.293-1.647,20.487.61,2.9,2.231,1.743,10.936-11.7,15.685-6.972.2,21.219-.261,23.031-.1,2.614.758,3.024,3.66-3.407,6.431-6.3,6.492-5.777,9-2.824,3.425,15.293-8.139,35.458l-5.969,8.993-10.832-.5c-23.118-2.484-32.573-10.457-33.479-14.23s3.59-5.089,7.564-5.629,8.714-.549,8.88-1.507-.261-1.7-2-2.388-17.768-6.693-18.8-13.307,12.984-7.947,14.866-8.6.871-2.213-.122-2.841-12.3-7.677-17.55-10.7-7.843-6.422-6.492-10c1.29-3.486,7.5-2.4,10.344-2.893s1.551-3.869,1.551-3.869-5.054-7.207-12.3-21.785-.253-17.053-.253-17.053" transform="translate(-233.854 -6599.566)" fill="#d9a171"/>
      <path id="Trazado_103528" data-name="Trazado 103528" d="M244.934,6614.962a2.732,2.732,0,0,1,.148.253l.41.775,1.525,2.971,5.577,10.962c4.749,9.254,11.328,22,18.517,36.094s13.786,26.866,18.422,36.155c2.3,4.636,4.157,8.4,5.455,11.023l1.455,3.006.375.793c.078.174.113.27.113.27a2.073,2.073,0,0,1-.157-.253l-.4-.767c-.366-.706-.871-1.743-1.525-2.98-1.333-2.614-3.233-6.344-5.577-10.962-4.671-9.254-11.267-22.012-18.526-36.085s-13.777-26.875-18.387-36.163l-5.49-11.024c-.619-1.29-1.107-2.3-1.455-3.006-.157-.332-.279-.593-.366-.793A1.01,1.01,0,0,1,244.934,6614.962Z" transform="translate(-235.279 -6601.546)" fill="#263238"/>
      <path id="Trazado_103529" data-name="Trazado 103529" d="M274.106,6640.882a21.419,21.419,0,0,1-.6,2.841c-.418,1.856-.959,4.209-1.56,6.823s-1.168,5.063-1.621,6.806c-.235.872-.436,1.56-.593,2.039a2.6,2.6,0,0,1-.288.724,28,28,0,0,1,.593-2.841l1.508-6.832c.61-2.666,1.2-5.071,1.682-6.806.244-.871.453-1.56.61-2.03A2.665,2.665,0,0,1,274.106,6640.882Z" transform="translate(-238.431 -6604.879)" fill="#263238"/>
      <path id="Trazado_103530" data-name="Trazado 103530" d="M265.056,6662.3c0,.1-4.984-1.168-11.067-2.858s-10.98-3.137-10.945-3.25,4.976,1.168,11.058,2.85S265.082,6662.187,265.056,6662.3Z" transform="translate(-235.036 -6606.848)" fill="#263238"/>
      <path id="Trazado_103531" data-name="Trazado 103531" d="M281.365,6690.937a2.982,2.982,0,0,1-.793.113c-.505.052-1.246.1-2.161.148-1.83.087-4.357.148-7.163.07s-5.316-.279-7.137-.471c-.871-.1-1.647-.191-2.161-.27a2.83,2.83,0,0,1-.776-.166,23.7,23.7,0,0,1,2.954.14c1.83.122,4.357.27,7.137.348s5.307.07,7.137.053A23.162,23.162,0,0,1,281.365,6690.937Z" transform="translate(-237.367 -6611.242)" fill="#263238"/>
      <path id="Trazado_103532" data-name="Trazado 103532" d="M293.311,6672.123a17.722,17.722,0,0,1-1.211,2.457c-.8,1.49-1.926,3.538-3.189,5.786s-2.431,4.279-3.294,5.734a17.345,17.345,0,0,1-1.473,2.309,17.8,17.8,0,0,1,1.211-2.457c.8-1.49,1.926-3.538,3.189-5.786s2.431-4.279,3.294-5.725A18.061,18.061,0,0,1,293.311,6672.123Z" transform="translate(-240.321 -6608.897)" fill="#263238"/>
      <path id="Trazado_103533" data-name="Trazado 103533" d="M310.182,6694.882a3.8,3.8,0,0,1-.392.871l-1.229,2.257c-1.046,1.891-2.518,4.5-4.165,7.363s-3.163,5.455-4.279,7.311c-.523.872-.976,1.595-1.333,2.2a3.832,3.832,0,0,1-.54.767,4.075,4.075,0,0,1,.392-.872l1.229-2.257c1.046-1.9,2.518-4.5,4.165-7.372s3.163-5.446,4.279-7.3l1.333-2.2A4.78,4.78,0,0,1,310.182,6694.882Z" transform="translate(-242.134 -6611.824)" fill="#263238"/>
      <path id="Trazado_103534" data-name="Trazado 103534" d="M294.677,6717.829a4.019,4.019,0,0,1-1,.087c-.654,0-1.595.043-2.754.052-2.318,0-5.533,0-9.071-.235s-6.745-.5-9.045-.767c-1.159-.131-2.091-.261-2.728-.357a4.364,4.364,0,0,1-.993-.2,5.637,5.637,0,0,1,1.011,0l2.736.227c2.309.2,5.507.453,9.036.645s6.736.3,9.054.357l2.754.079A5.234,5.234,0,0,1,294.677,6717.829Z" transform="translate(-238.384 -6614.588)" fill="#263238"/>
    </g>
    <g id="freepik--Character--inject-42" transform="translate(288.135 6415.882)">
      <path id="Trazado_103535" data-name="Trazado 103535" d="M594.593,6579.81l-29.166,28.4-26.874,51.282-30.22,57.993L471.2,6700.055l-40.137-20.548,25.672-49.043,15.955-54.9c-11.276,7.477-32.242,17.664-57.251,12.348-27.136-5.751-14.108-108.054-14.108-108.054l29.82-.767,3,72.126,33.68-14.883.052.122c2.03-.872,3.808-1.743,4.749-2.222,18.639-10.169,30.874-11.4,50.873-4.261h0l28.852,9.585c7.416,3.486,34.752,16.949,42.237,40.25" transform="translate(-312.475 -6424.011)" fill="#d9a171"/>
      <path id="Trazado_103536" data-name="Trazado 103536" d="M503.421,6535.022s-.671.383-1.8,1.193a20.005,20.005,0,0,0-4.183,4.1,29.6,29.6,0,0,0-4.113,7.66,104.38,104.38,0,0,0-3.076,10.273l-5.124,18.849c-.671,2.361-1.211,4.3-1.612,5.69-.183.636-.34,1.15-.453,1.542a2.381,2.381,0,0,1-.192.532,2.184,2.184,0,0,1,.1-.55c.1-.409.218-.923.375-1.568.357-1.412.871-3.354,1.464-5.733,1.29-4.88,3.05-11.529,5-18.884a99.9,99.9,0,0,1,3.12-10.3,29.124,29.124,0,0,1,4.253-7.7,18.866,18.866,0,0,1,4.357-4.061,12.639,12.639,0,0,1,1.394-.819A3.837,3.837,0,0,1,503.421,6535.022Z" transform="translate(-323.362 -6431.203)" fill="#263238"/>
      <g id="Grupo_59389" data-name="Grupo 59389" transform="translate(124.603 118.276)" opacity="0.3">
        <path id="Trazado_103537" data-name="Trazado 103537" d="M487.387,6551.612c-8.339,22.578-23.336,35.2-44.572,46.507a78.2,78.2,0,0,0,35.022-12.827" transform="translate(-442.814 -6551.612)"/>
      </g>
      <g id="Grupo_59390" data-name="Grupo 59390" transform="translate(195.744 102.207)" opacity="0.3">
        <path id="Trazado_103538" data-name="Trazado 103538" d="M524.454,6533.172q5.3,84.858,10.6,169.707l-10.457,21.559Z" transform="translate(-524.454 -6533.172)"/>
      </g>
      <path id="Trazado_103539" data-name="Trazado 103539" d="M561.34,6598.8c-.122.052-1.185-2.614-2.675-5.83s-2.815-5.769-2.7-5.83A7.5,7.5,0,0,1,557,6588.72c.584,1.011,1.333,2.44,2.074,4.061s1.351,3.111,1.743,4.209A6.923,6.923,0,0,1,561.34,6598.8Z" transform="translate(-332.761 -6437.905)" fill="#fafafa"/>
      <path id="Trazado_103540" data-name="Trazado 103540" d="M587.666,6586.832a48.519,48.519,0,0,1-5.664,3.8,50.965,50.965,0,0,1-5.908,3.416,53.292,53.292,0,0,1,5.673-3.8A51.561,51.561,0,0,1,587.666,6586.832Z" transform="translate(-335.35 -6437.865)" fill="#fafafa"/>
      <path id="Trazado_103541" data-name="Trazado 103541" d="M577.468,6575.6a45.969,45.969,0,0,1-.471-9.29,23.084,23.084,0,0,1,.471,4.636A23.865,23.865,0,0,1,577.468,6575.6Z" transform="translate(-335.452 -6435.226)" fill="#fafafa"/>
      <path id="Trazado_103542" data-name="Trazado 103542" d="M603.517,6574.314a52.743,52.743,0,0,1-8.313-5.132,26.723,26.723,0,0,1,4.279,2.37A26.225,26.225,0,0,1,603.517,6574.314Z" transform="translate(-337.808 -6435.596)" fill="#fafafa"/>
      <path id="Trazado_103543" data-name="Trazado 103543" d="M563.174,6627.26a46.771,46.771,0,0,1,2.353-6.031,47.468,47.468,0,0,1,2.771-5.847,45.664,45.664,0,0,1-2.353,6.03A46.688,46.688,0,0,1,563.174,6627.26Z" transform="translate(-333.689 -6441.536)" fill="#fafafa"/>
      <path id="Trazado_103544" data-name="Trazado 103544" d="M550.493,6640.135a20.61,20.61,0,0,1-2.126-3.747,20.984,20.984,0,0,1-1.743-3.957,21.046,21.046,0,0,1,2.135,3.747A20.438,20.438,0,0,1,550.493,6640.135Z" transform="translate(-331.561 -6443.729)" fill="#fafafa"/>
      <path id="Trazado_103545" data-name="Trazado 103545" d="M559.852,6657.779a14.6,14.6,0,0,1-4.479,1.141,14.4,14.4,0,0,1-4.618.14c0-.131,2.048-.227,4.557-.584S559.817,6657.639,559.852,6657.779Z" transform="translate(-332.092 -6446.985)" fill="#fafafa"/>
      <path id="Trazado_103546" data-name="Trazado 103546" d="M574.184,6638.5a23.083,23.083,0,0,1,1.551-4.226,22.266,22.266,0,0,1,1.961-4.052,22.687,22.687,0,0,1-1.542,4.226A21.3,21.3,0,0,1,574.184,6638.5Z" transform="translate(-335.105 -6443.444)" fill="#fafafa"/>
      <path id="Trazado_103547" data-name="Trazado 103547" d="M541.651,6676.773c-.113.07-1.394-1.7-3.154-3.729s-3.329-3.555-3.233-3.651A23.8,23.8,0,0,1,541.651,6676.773Z" transform="translate(-330.099 -6448.481)" fill="#fafafa"/>
      <path id="Trazado_103548" data-name="Trazado 103548" d="M536.134,6636.852a25.625,25.625,0,0,1-2.274,4.357,26.637,26.637,0,0,1-2.675,4.148,27.549,27.549,0,0,1,2.283-4.357A26.879,26.879,0,0,1,536.134,6636.852Z" transform="translate(-329.575 -6444.297)" fill="#fafafa"/>
      <path id="Trazado_103549" data-name="Trazado 103549" d="M539.523,6622.415a28.223,28.223,0,0,1-4.871-1.029,27.286,27.286,0,0,1-4.758-1.464,27.474,27.474,0,0,1,4.871,1.028A26.913,26.913,0,0,1,539.523,6622.415Z" transform="translate(-329.409 -6442.12)" fill="#fafafa"/>
      <path id="Trazado_103550" data-name="Trazado 103550" d="M540.7,6593.782a29.885,29.885,0,0,1,2.614,3.556,29.457,29.457,0,0,1,2.422,3.659,17.073,17.073,0,0,1-2.788-3.407A16.608,16.608,0,0,1,540.7,6593.782Z" transform="translate(-330.799 -6438.758)" fill="#fafafa"/>
      <path id="Trazado_103551" data-name="Trazado 103551" d="M530.52,6592.332a38.534,38.534,0,0,1-6.326,5.507,19.283,19.283,0,0,1,3.015-2.928A19.912,19.912,0,0,1,530.52,6592.332Z" transform="translate(-328.676 -6438.572)" fill="#fafafa"/>
      <path id="Trazado_103552" data-name="Trazado 103552" d="M537.7,6575.911a28.3,28.3,0,0,1-7.215-8.479c.113-.069,1.542,1.97,3.538,4.3S537.8,6575.814,537.7,6575.911Z" transform="translate(-329.485 -6435.369)" fill="#fafafa"/>
      <path id="Trazado_103553" data-name="Trazado 103553" d="M562.882,6572.493a29.394,29.394,0,0,1-4.889,1.743,29.03,29.03,0,0,1-5.019,1.29,31.028,31.028,0,0,1,4.889-1.743A29.455,29.455,0,0,1,562.882,6572.493Z" transform="translate(-332.377 -6436.021)" fill="#fafafa"/>
      <path id="Trazado_103554" data-name="Trazado 103554" d="M528.168,6546.837c-.131,0-.07-2-.383-4.418s-.871-4.357-.715-4.357a16.1,16.1,0,0,1,1.1,8.8Z" transform="translate(-329.043 -6431.593)" fill="#fafafa"/>
      <path id="Trazado_103555" data-name="Trazado 103555" d="M503.558,6620.642a16.392,16.392,0,0,1-2.048,1.516c-1.29.872-3.05,2.17-4.932,3.651s-3.538,2.884-4.723,3.913a17.562,17.562,0,0,1-1.961,1.638,12.084,12.084,0,0,1,1.743-1.874,59.451,59.451,0,0,1,4.662-4.035q2.423-1.906,5.028-3.564A13.548,13.548,0,0,1,503.558,6620.642Z" transform="translate(-324.266 -6442.212)" fill="#fafafa"/>
      <path id="Trazado_103556" data-name="Trazado 103556" d="M503.181,6611.2c-.113.061-1.577-2.213-3.608-4.871s-3.825-4.679-3.73-4.775a6.1,6.1,0,0,1,1.316,1.211,42.677,42.677,0,0,1,2.78,3.285c1.011,1.342,1.856,2.614,2.423,3.555A6.459,6.459,0,0,1,503.181,6611.2Z" transform="translate(-325.03 -6439.758)" fill="#fafafa"/>
      <path id="Trazado_103557" data-name="Trazado 103557" d="M509.094,6581.012a52.62,52.62,0,0,1-8.54,4.714,26.712,26.712,0,0,1,4.165-2.553A25.9,25.9,0,0,1,509.094,6581.012Z" transform="translate(-325.636 -6437.116)" fill="#fafafa"/>
      <path id="Trazado_103558" data-name="Trazado 103558" d="M503.119,6565.745a6.8,6.8,0,0,1-1.49-1.176,30.925,30.925,0,0,1-3.146-3.329,31.811,31.811,0,0,1-2.658-3.747,6.848,6.848,0,0,1-.871-1.691c.122-.069,1.612,2.405,3.869,5.15S503.232,6565.64,503.119,6565.745Z" transform="translate(-324.916 -6433.875)" fill="#fafafa"/>
      <path id="Trazado_103559" data-name="Trazado 103559" d="M514.7,6565.827a37.82,37.82,0,0,1,3.616-7.424,37.82,37.82,0,0,1-3.616,7.424Z" transform="translate(-327.456 -6434.209)" fill="#fafafa"/>
      <path id="Trazado_103560" data-name="Trazado 103560" d="M511.66,6549.387c-.139,0,0-2.71-.505-5.978s-1.473-5.795-1.342-5.847a5.823,5.823,0,0,1,.741,1.621,22.879,22.879,0,0,1,1.054,4.157,24.168,24.168,0,0,1,.27,4.279A5.563,5.563,0,0,1,511.66,6549.387Z" transform="translate(-326.825 -6431.529)" fill="#fafafa"/>
      <path id="Trazado_103561" data-name="Trazado 103561" d="M514.386,6628.23a18.649,18.649,0,0,1,0-2.554c.061-1.569.1-3.738.044-6.1s-.218-4.558-.349-6.1a16.345,16.345,0,0,1-.157-2.544,13.09,13.09,0,0,1,.479,2.51,56.792,56.792,0,0,1,.479,6.152,56.116,56.116,0,0,1-.174,6.161A11.963,11.963,0,0,1,514.386,6628.23Z" transform="translate(-327.355 -6440.964)" fill="#fafafa"/>
      <path id="Trazado_103562" data-name="Trazado 103562" d="M511.75,6654.889a37.9,37.9,0,0,0-3.86-3.111,38.478,38.478,0,0,0-4.435-2.2,12.664,12.664,0,0,1,8.313,5.307Z" transform="translate(-326.009 -6445.935)" fill="#fafafa"/>
      <path id="Trazado_103563" data-name="Trazado 103563" d="M523.656,6671.072a51.454,51.454,0,0,1-5.987,3.355,50.239,50.239,0,0,1-6.2,2.945,53.563,53.563,0,0,1,5.987-3.346A51.515,51.515,0,0,1,523.656,6671.072Z" transform="translate(-327.041 -6448.697)" fill="#fafafa"/>
      <path id="Trazado_103564" data-name="Trazado 103564" d="M489.027,6676.207a54.541,54.541,0,0,1-4.409-5.6,56.111,56.111,0,0,1-4.043-5.882,56.946,56.946,0,0,1,4.409,5.612A57.9,57.9,0,0,1,489.027,6676.207Z" transform="translate(-323.067 -6447.881)" fill="#fafafa"/>
      <path id="Trazado_103565" data-name="Trazado 103565" d="M479.419,6647.655a6.393,6.393,0,0,1-.2-1.786c-.044-1.106-.061-2.614,0-4.357s.235-3.215.383-4.357a6.74,6.74,0,0,1,.357-1.743c.131,0-.131,2.736-.288,6.1S479.506,6647.655,479.419,6647.655Z" transform="translate(-322.888 -6444.112)" fill="#fafafa"/>
      <path id="Trazado_103566" data-name="Trazado 103566" d="M466.214,6696.8a46.5,46.5,0,0,1-5.089-3.938,45.854,45.854,0,0,1-4.8-4.288,46.567,46.567,0,0,1,5.089,3.939A45.852,45.852,0,0,1,466.214,6696.8Z" transform="translate(-319.949 -6450.948)" fill="#fafafa"/>
      <path id="Trazado_103567" data-name="Trazado 103567" d="M474.644,6694.5a51.586,51.586,0,0,1-.392-6.832,52.238,52.238,0,0,1,.07-6.84,51.749,51.749,0,0,1,.392,6.832A52.4,52.4,0,0,1,474.644,6694.5Z" transform="translate(-322.244 -6449.953)" fill="#fafafa"/>
      <path id="Trazado_103568" data-name="Trazado 103568" d="M485.669,6726.15c0,.07-1.089-.357-2.841-.924a40.81,40.81,0,0,0-14.134-1.926c-1.839.07-2.971.2-2.98.122a2.808,2.808,0,0,1,.784-.183c.505-.1,1.255-.182,2.179-.261a34.2,34.2,0,0,1,14.239,1.951,19.192,19.192,0,0,1,2.03.871A2.65,2.65,0,0,1,485.669,6726.15Z" transform="translate(-321.156 -6455.36)" fill="#fafafa"/>
      <path id="Trazado_103569" data-name="Trazado 103569" d="M500.064,6732.132a10.07,10.07,0,0,1,1.969,1.351,49.9,49.9,0,0,1,8.13,8.13,10.048,10.048,0,0,1,1.351,1.969,16.04,16.04,0,0,1-1.6-1.743c-.959-1.107-2.318-2.614-3.9-4.192s-3.085-2.928-4.191-3.895A16.216,16.216,0,0,1,500.064,6732.132Z" transform="translate(-325.573 -6456.549)" fill="#fafafa"/>
      <path id="Trazado_103570" data-name="Trazado 103570" d="M504.45,6678.511a35.081,35.081,0,0,1-2.257-5.08,34.447,34.447,0,0,1-1.839-5.229,35.424,35.424,0,0,1,2.257,5.08A34.522,34.522,0,0,1,504.45,6678.511Z" transform="translate(-325.611 -6448.329)" fill="#fafafa"/>
      <path id="Trazado_103571" data-name="Trazado 103571" d="M463.248,6578.682a6.747,6.747,0,0,1-1.333,1.455,29.543,29.543,0,0,1-3.73,2.945,28.82,28.82,0,0,1-4.165,2.318,6.947,6.947,0,0,1-1.856.671c-.052-.13,2.71-1.316,5.769-3.364S463.152,6578.577,463.248,6578.682Z" transform="translate(-319.414 -6436.817)" fill="#fafafa"/>
      <path id="Trazado_103572" data-name="Trazado 103572" d="M467.442,6566.938a33.357,33.357,0,0,1,.366-7.755A33.346,33.346,0,0,1,467.442,6566.938Z" transform="translate(-321.368 -6434.309)" fill="#fafafa"/>
      <path id="Trazado_103573" data-name="Trazado 103573" d="M446.194,6576.383a25.968,25.968,0,0,1-4.523-1.821,26.605,26.605,0,0,1-4.357-2.24,27.029,27.029,0,0,1,4.523,1.821A26.676,26.676,0,0,1,446.194,6576.383Z" transform="translate(-317.504 -6436)" fill="#fafafa"/>
      <path id="Trazado_103574" data-name="Trazado 103574" d="M483.086,6562.005a25.815,25.815,0,0,1,.148-4.819,24.78,24.78,0,0,1,.593-4.784,26.19,26.19,0,0,1-.139,4.819A25.477,25.477,0,0,1,483.086,6562.005Z" transform="translate(-323.384 -6433.438)" fill="#fafafa"/>
      <path id="Trazado_103575" data-name="Trazado 103575" d="M435.542,6597.364a16.4,16.4,0,0,1-4.967-2.178,15.925,15.925,0,0,1-4.261-3.364c.087-.1,1.943,1.456,4.488,2.98S435.594,6597.233,435.542,6597.364Z" transform="translate(-316.09 -6438.506)" fill="#fafafa"/>
      <path id="Trazado_103576" data-name="Trazado 103576" d="M420.93,6577.826a36.76,36.76,0,0,1-3.712,4.357,37.408,37.408,0,0,1-4.043,4.1,73.571,73.571,0,0,1,7.756-8.5Z" transform="translate(-314.4 -6436.702)" fill="#fafafa"/>
      <path id="Trazado_103577" data-name="Trazado 103577" d="M419.714,6558.785a12.761,12.761,0,0,1-4.069-2.274,13.177,13.177,0,0,1-3.32-3.259c.1-.1,1.56,1.377,3.6,2.893S419.775,6558.672,419.714,6558.785Z" transform="translate(-314.291 -6433.546)" fill="#fafafa"/>
      <path id="Trazado_103578" data-name="Trazado 103578" d="M410.855,6563.422a10.989,10.989,0,0,1-1.856,2.544,11.319,11.319,0,0,1-2.2,2.257A21.985,21.985,0,0,1,410.855,6563.422Z" transform="translate(-313.58 -6434.855)" fill="#fafafa"/>
      <path id="Trazado_103579" data-name="Trazado 103579" d="M430.4,6529.583a35.626,35.626,0,0,1-3.407,4.514,34.459,34.459,0,0,1-3.756,4.235,36.126,36.126,0,0,1,3.407-4.522A35.6,35.6,0,0,1,430.4,6529.583Z" transform="translate(-315.694 -6430.503)" fill="#fafafa"/>
      <path id="Trazado_103580" data-name="Trazado 103580" d="M413.28,6532.24a63.982,63.982,0,0,1-7.076-8.078,31.758,31.758,0,0,1,3.712,3.887A32.341,32.341,0,0,1,413.28,6532.24Z" transform="translate(-313.504 -6429.806)" fill="#fafafa"/>
      <path id="Trazado_103581" data-name="Trazado 103581" d="M422.193,6510.46a25.905,25.905,0,0,1-2.614-4.13,27.274,27.274,0,0,1-2.2-4.357,26.323,26.323,0,0,1,2.614,4.139A27.091,27.091,0,0,1,422.193,6510.46Z" transform="translate(-314.94 -6426.953)" fill="#fafafa"/>
      <path id="Trazado_103582" data-name="Trazado 103582" d="M422.453,6496.456c-.1-.087,1.2-1.743,2.24-4.087s1.412-4.409,1.551-4.357a13.427,13.427,0,0,1-3.791,8.47Z" transform="translate(-315.592 -6425.157)" fill="#fafafa"/>
      <path id="Trazado_103583" data-name="Trazado 103583" d="M405.96,6495.451a10.13,10.13,0,0,1,1.072-5.333,12.869,12.869,0,0,1,2.126-3.242,4.221,4.221,0,0,1,1.211-1.055,25.356,25.356,0,0,0-2.928,4.479A25,25,0,0,0,405.96,6495.451Z" transform="translate(-313.469 -6424.875)" fill="#fafafa"/>
      <path id="Trazado_103584" data-name="Trazado 103584" d="M550.094,6468.948a55.3,55.3,0,0,1-.131-10.875,18.556,18.556,0,0,1,4.008-9.96,11.252,11.252,0,0,1,9.638-4.061c2.231.288,4.357,1.386,6.579,1.325,2.614-.079,4.854-1.682,7.215-2.754a18.906,18.906,0,0,1,11.886-1.246,11.337,11.337,0,0,1,5.621,2.841,6.294,6.294,0,0,1,1.821,5.821,30.085,30.085,0,0,1,7.843.688,10.142,10.142,0,0,1,6.265,4.357c1.3,2.275,1.211,5.438-.654,7.276a5.021,5.021,0,0,1,5.542,3.782,6.466,6.466,0,0,1-2.614,6.483,12.078,12.078,0,0,1-8.148,1.639c-2.423-.462-5.228-1.142-7.172-2.614" transform="translate(-331.964 -6419.103)" fill="#263238"/>
      <path id="Trazado_103585" data-name="Trazado 103585" d="M545.879,6553.369h0a18.8,18.8,0,0,0,22.857-13.4c1.473-5.585,2.675-10.265,2.675-10.265s14.561,2.5,19.38-11.329,13.071-46.367,13.071-46.367h0a50.759,50.759,0,0,0-50.376-10.152l-2.614.871-18.5,67.386a18.8,18.8,0,0,0,13.093,23.148Q545.672,6553.316,545.879,6553.369Z" transform="translate(-329.639 -6421.437)" fill="#b78876"/>
      <path id="Trazado_103586" data-name="Trazado 103586" d="M574.966,6538.252a33.976,33.976,0,0,1-16.322-11.18s.924,11.389,15.154,14.814Z" transform="translate(-333.106 -6430.181)" fill="#aa6550"/>
      <path id="Trazado_103587" data-name="Trazado 103587" d="M548.432,6480.159c-.2-.183-8.566-6-11.433,3.564s7.32,10.457,7.416,10.2S548.432,6480.159,548.432,6480.159Z" transform="translate(-330.258 -6423.901)" fill="#b78876"/>
      <path id="Trazado_103588" data-name="Trazado 103588" d="M542.952,6489.87a2.964,2.964,0,0,1-.523.114,1.739,1.739,0,0,1-1.22-.366c-.871-.671-1.263-2.536-.793-4.271a5.714,5.714,0,0,1,1.176-2.248,2.025,2.025,0,0,1,1.638-.872.872.872,0,0,1,.871.75c.052.3-.07.479,0,.514s.253-.1.288-.523a1.1,1.1,0,0,0-.192-.706,1.3,1.3,0,0,0-.871-.522,2.432,2.432,0,0,0-2.187.958,5.832,5.832,0,0,0-1.377,2.493c-.523,1.943-.078,4.043,1.185,4.862a1.873,1.873,0,0,0,1.6.2C542.891,6490.1,543,6489.905,542.952,6489.87Z" transform="translate(-330.651 -6424.349)" fill="#aa6550"/>
      <path id="Trazado_103589" data-name="Trazado 103589" d="M600.455,6496.455a2.09,2.09,0,0,1-2.614,1.351,1.994,1.994,0,0,1-1.45-2.42l.012-.045a2.092,2.092,0,0,1,2.571-1.359,2.005,2.005,0,0,1,1.5,2.406C600.468,6496.409,600.461,6496.432,600.455,6496.455Z" transform="translate(-337.953 -6425.915)" fill="#263238"/>
      <path id="Trazado_103590" data-name="Trazado 103590" d="M602.876,6494.749c-.331.174-1.455-1.429-3.581-2.144s-4.052-.166-4.191-.505c-.078-.148.331-.532,1.176-.8a5.687,5.687,0,0,1,3.486.087,5.475,5.475,0,0,1,2.745,2.03C602.971,6494.138,603.032,6494.679,602.876,6494.749Z" transform="translate(-337.793 -6425.55)" fill="#263238"/>
      <path id="Trazado_103591" data-name="Trazado 103591" d="M576.462,6488.406a2.09,2.09,0,0,1-2.571,1.359,2,2,0,0,1-1.45-2.421l.012-.045a2.082,2.082,0,0,1,2.571-1.359,2,2,0,0,1,1.449,2.421Z" transform="translate(-334.873 -6424.88)" fill="#263238"/>
      <path id="Trazado_103592" data-name="Trazado 103592" d="M578.734,6487.15c-.331.183-1.464-1.429-3.59-2.144s-4.043-.166-4.191-.505c-.07-.148.331-.531,1.185-.792a5.723,5.723,0,0,1,3.486.078,5.544,5.544,0,0,1,2.754,2.03C578.822,6486.54,578.891,6487.08,578.734,6487.15Z" transform="translate(-334.688 -6424.574)" fill="#263238"/>
      <path id="Trazado_103593" data-name="Trazado 103593" d="M582.664,6506.116a14.945,14.945,0,0,1,3.66.532c.566.13,1.115.191,1.333-.148a2.957,2.957,0,0,0,.174-1.743c-.07-1.49-.139-3.05-.218-4.68-.253-6.631-.244-12.017,0-12.025s.688,5.368.941,12c.052,1.63.1,3.189.139,4.68a3.285,3.285,0,0,1-.427,2.223,1.436,1.436,0,0,1-1.159.5,3.552,3.552,0,0,1-.967-.183A15.46,15.46,0,0,1,582.664,6506.116Z" transform="translate(-336.195 -6425.163)" fill="#263238"/>
      <path id="Trazado_103594" data-name="Trazado 103594" d="M574.775,6508.051c.349.1-.418,2.405,1.011,4.706s3.965,2.875,3.878,3.2c0,.157-.706.27-1.743-.052a6.035,6.035,0,0,1-3.276-2.544,5.23,5.23,0,0,1-.7-3.9C574.173,6508.47,574.618,6507.982,574.775,6508.051Z" transform="translate(-335.059 -6427.734)" fill="#263238"/>
      <path id="Trazado_103595" data-name="Trazado 103595" d="M603.512,6490.151c-.532.357-1.83-.636-3.581-1.255s-3.364-.767-3.538-1.386c-.07-.3.331-.706,1.133-.941a5.5,5.5,0,0,1,5.743,2.127C603.721,6489.4,603.756,6489.968,603.512,6490.151Z" transform="translate(-337.96 -6424.952)" fill="#263238"/>
      <path id="Trazado_103596" data-name="Trazado 103596" d="M578.457,6477.113c-.322.174-.871-.113-1.49-.488a17.017,17.017,0,0,0-2.51-1.229,16.076,16.076,0,0,0-2.71-.714c-.741-.148-1.316-.262-1.446-.61s.288-.872,1.229-1.22a5.9,5.9,0,0,1,6.8,2.527C578.806,6476.293,578.762,6476.974,578.457,6477.113Z" transform="translate(-334.602 -6423.172)" fill="#263238"/>
      <path id="Trazado_103597" data-name="Trazado 103597" d="M605.179,6476.065a34.29,34.29,0,0,1-19.851-7.8c-6.257-5.124-14.091-8.714-16.226-7.7s-4.165,8.191-11.642,8.714c0,0-2.667,13.986-8.087,12.2s2.919-22.456,2.919-22.456l15.032-3.538,15.4.566,13.829,3.137,11.964,6.875Z" transform="translate(-331.679 -6420.974)" fill="#263238"/>
      <rect id="Rectángulo_5557" data-name="Rectángulo 5557" width="195.657" height="304.679" transform="translate(0.2 0.236)" fill="#fafafa"/>
      <path id="Trazado_103598" data-name="Trazado 103598" d="M495.682,6720.788c0-1.874-.087-125.614-.209-304.679l.209.209H300.051l.235-.227c0,115.27,0,221.407-.052,304.679l-.183-.184,195.657.184-195.657.174h-.174v-.157c0-83.271,0-189.409-.052-304.679v-.227H495.917v.209C495.769,6595.183,495.682,6718.923,495.682,6720.788Z" transform="translate(-299.824 -6415.882)" fill="#263238"/>
      <path id="Trazado_103599" data-name="Trazado 103599" d="M356.077,6487.975H331.041a3.136,3.136,0,0,1-3.137-3.128V6450.19a3.137,3.137,0,0,1,3.137-3.128h15.877l12.287,12.661v25.123A3.128,3.128,0,0,1,356.077,6487.975Z" transform="translate(-303.435 -6419.892)" fill="#d9a171"/>
      <path id="Trazado_103600" data-name="Trazado 103600" d="M349.724,6447.063v9.751a2.918,2.918,0,0,0,2.91,2.91h9.376Z" transform="translate(-306.241 -6419.892)" fill="#d9a171"/>
      <g id="Grupo_59391" data-name="Grupo 59391" transform="translate(43.614 37.776)" opacity="0.2">
        <path id="Trazado_103601" data-name="Trazado 103601" d="M349.874,6459.232a3.233,3.233,0,0,0,2.562,3.146l.314.07c1.22.218,9.28,1.647,9.28,1.464V6461.3h-9.376S350.318,6461.21,349.874,6459.232Z" transform="translate(-349.874 -6459.232)"/>
      </g>
      <g id="Grupo_59392" data-name="Grupo 59392" transform="translate(43.483 27.171)" opacity="0.3">
        <path id="Trazado_103602" data-name="Trazado 103602" d="M349.724,6447.063v9.751a2.918,2.918,0,0,0,2.91,2.91h9.376Z" transform="translate(-349.724 -6447.063)" fill="#fff"/>
      </g>
      <path id="Trazado_103603" data-name="Trazado 103603" d="M345.605,6457.745a74.27,74.27,0,0,1-11.581,0,73.951,73.951,0,0,1,11.581,0Z" transform="translate(-304.222 -6421.232)" fill="#fafafa"/>
      <path id="Trazado_103604" data-name="Trazado 103604" d="M353.082,6464.089c0,.122-4.261.226-9.525.226s-9.533-.1-9.533-.226,4.27-.227,9.533-.227S353.082,6463.958,353.082,6464.089Z" transform="translate(-304.222 -6422.052)" fill="#fafafa"/>
      <path id="Trazado_103605" data-name="Trazado 103605" d="M354.8,6469.368c0,.131-4.645.228-10.387.228s-10.387-.1-10.387-.228,4.653-.226,10.387-.226S354.8,6469.247,354.8,6469.368Z" transform="translate(-304.222 -6422.731)" fill="#fafafa"/>
      <path id="Trazado_103606" data-name="Trazado 103606" d="M354.8,6474.359c0,.122-4.645.227-10.387.227s-10.387-.1-10.387-.227,4.653-.227,10.387-.227S354.8,6474.229,354.8,6474.359Z" transform="translate(-304.222 -6423.373)" fill="#fafafa"/>
      <path id="Trazado_103607" data-name="Trazado 103607" d="M354.8,6479.339c0,.13-4.645.226-10.387.226s-10.387-.1-10.387-.226,4.653-.227,10.387-.227S354.8,6479.217,354.8,6479.339Z" transform="translate(-304.222 -6424.013)" fill="#fafafa"/>
      <path id="Trazado_103608" data-name="Trazado 103608" d="M354.8,6484.329c0,.122-4.645.227-10.387.227s-10.387-.1-10.387-.227,4.653-.227,10.387-.227S354.8,6484.2,354.8,6484.329Z" transform="translate(-304.222 -6424.654)" fill="#fafafa"/>
      <rect id="Rectángulo_5558" data-name="Rectángulo 5558" width="3.346" height="255.819" rx="1.33" transform="translate(181.113 18.988)" fill="#e0e0e0"/>
      <rect id="Rectángulo_5559" data-name="Rectángulo 5559" width="3.346" height="131.887" rx="1.33" transform="translate(181.113 18.988)" fill="#d9a171"/>
      <path id="Trazado_103609" data-name="Trazado 103609" d="M466.861,6548.139c0,.13-30.072.227-67.159.227s-67.168-.1-67.168-.227,30.072-.227,67.168-.227S466.861,6548.017,466.861,6548.139Z" transform="translate(-304.03 -6432.86)" fill="#263238"/>
      <path id="Trazado_103610" data-name="Trazado 103610" d="M466.861,6559.809c0,.122-30.072.227-67.159.227s-67.168-.1-67.168-.227,30.072-.226,67.168-.226S466.861,6559.678,466.861,6559.809Z" transform="translate(-304.03 -6434.361)" fill="#263238"/>
      <path id="Trazado_103611" data-name="Trazado 103611" d="M466.861,6571.469c0,.13-30.072.227-67.159.227s-67.168-.1-67.168-.227,30.072-.227,67.168-.227S466.861,6571.346,466.861,6571.469Z" transform="translate(-304.03 -6435.86)" fill="#263238"/>
      <path id="Trazado_103612" data-name="Trazado 103612" d="M466.861,6583.139c0,.122-30.072.227-67.159.227s-67.168-.1-67.168-.227,30.072-.226,67.168-.226S466.861,6583.008,466.861,6583.139Z" transform="translate(-304.03 -6437.361)" fill="#263238"/>
      <path id="Trazado_103613" data-name="Trazado 103613" d="M466.861,6594.8c0,.131-30.072.227-67.159.227s-67.168-.1-67.168-.227,30.072-.227,67.168-.227S466.861,6594.676,466.861,6594.8Z" transform="translate(-304.03 -6438.86)" fill="#263238"/>
      <path id="Trazado_103614" data-name="Trazado 103614" d="M466.861,6606.469c0,.122-30.072.227-67.159.227s-67.168-.1-67.168-.227,30.072-.227,67.168-.227S466.861,6606.338,466.861,6606.469Z" transform="translate(-304.03 -6440.361)" fill="#263238"/>
      <path id="Trazado_103615" data-name="Trazado 103615" d="M466.861,6650.749c0,.122-30.072.226-67.159.226s-67.168-.1-67.168-.226,30.072-.227,67.168-.227S466.861,6650.644,466.861,6650.749Z" transform="translate(-304.03 -6446.055)" fill="#263238"/>
      <path id="Trazado_103616" data-name="Trazado 103616" d="M466.861,6670.749c0,.122-30.072.227-67.159.227s-67.168-.1-67.168-.227,30.072-.227,67.168-.227S466.861,6670.609,466.861,6670.749Z" transform="translate(-304.03 -6448.627)" fill="#ebebeb"/>
      <path id="Trazado_103617" data-name="Trazado 103617" d="M442.79,6716.645H439.3l-.723,1.647h-.967l2.98-6.58h.924l2.989,6.58h-.985Zm-.331-.75-1.42-3.225-1.412,3.225Z" transform="translate(-317.543 -6453.923)" fill="#fff"/>
      <path id="Trazado_103618" data-name="Trazado 103618" d="M445.9,6716.027a2.493,2.493,0,0,1,2.445-2.539c.057,0,.112,0,.169,0a2.223,2.223,0,0,1,2.03,1.063l-.688.436a1.555,1.555,0,0,0-1.351-.714,1.743,1.743,0,0,0,0,3.486,1.55,1.55,0,0,0,1.351-.715l.688.427a2.23,2.23,0,0,1-2.03,1.072,2.492,2.492,0,0,1-2.612-2.367C445.9,6716.128,445.9,6716.078,445.9,6716.027Z" transform="translate(-318.609 -6454.152)" fill="#fff"/>
      <path id="Trazado_103619" data-name="Trazado 103619" d="M451.974,6716.027a2.493,2.493,0,0,1,2.445-2.539c.057,0,.112,0,.169,0a2.215,2.215,0,0,1,2.03,1.063l-.688.436a1.555,1.555,0,0,0-1.351-.714,1.743,1.743,0,0,0,0,3.486,1.55,1.55,0,0,0,1.351-.715l.688.427a2.22,2.22,0,0,1-2.03,1.072,2.492,2.492,0,0,1-2.612-2.367C451.974,6716.128,451.973,6716.078,451.974,6716.027Z" transform="translate(-319.389 -6454.152)" fill="#fff"/>
      <path id="Trazado_103620" data-name="Trazado 103620" d="M462.993,6716.363H458.95a1.69,1.69,0,0,0,1.8,1.455,1.865,1.865,0,0,0,1.438-.6l.5.584a2.517,2.517,0,0,1-1.969.8,2.492,2.492,0,0,1-2.669-2.3c-.006-.081-.008-.162-.006-.243a2.441,2.441,0,0,1,2.341-2.534c.053,0,.106,0,.159,0a2.4,2.4,0,0,1,2.47,2.319c0,.081,0,.162,0,.242C463.011,6716.136,463,6716.249,462.993,6716.363Zm-4.043-.654h3.189a1.6,1.6,0,0,0-3.189,0Z" transform="translate(-320.17 -6454.157)" fill="#fff"/>
      <path id="Trazado_103621" data-name="Trazado 103621" d="M470.337,6716.022a2.414,2.414,0,0,1-2.277,2.543,1.99,1.99,0,0,1-.241,0,2.139,2.139,0,0,1-1.743-.8v2.571H465.2v-6.806h.871v.793a2.109,2.109,0,0,1,1.743-.872,2.414,2.414,0,0,1,2.521,2.3A2.292,2.292,0,0,1,470.337,6716.022Zm-.915,0a1.682,1.682,0,1,0-1.682,1.743,1.646,1.646,0,0,0,1.684-1.608c0-.044,0-.089,0-.134Z" transform="translate(-321.091 -6454.147)" fill="#fff"/>
      <path id="Trazado_103622" data-name="Trazado 103622" d="M475.221,6718.069a1.735,1.735,0,0,1-1.1.349,1.419,1.419,0,0,1-1.576-1.246,1.4,1.4,0,0,1,0-.314v-2.736h-.871v-.741h.871v-1.089h.871v1.089h1.429v.741h-1.429v2.7a.731.731,0,0,0,.576.86.74.74,0,0,0,.2.012,1.125,1.125,0,0,0,.706-.235Z" transform="translate(-321.923 -6453.998)" fill="#fff"/>
      <path id="Trazado_103623" data-name="Trazado 103623" d="M521,6718.863l10.143-4.88-5.577-16.487-12.252-2.832c-1.142-.262-2.414-.566-3.826-.959a15.3,15.3,0,0,1-4.645-2.187,23.284,23.284,0,0,1-4.862-4.122c-1.159-1.577-3.616-.985-3.616.767s3.093,6.17,8.592,9.3-4.226,4.636-7.747,5.229-14.343,3.023-14.988,4.252c-.941,1.8.871,3.172,4.357,2.483s14.2-2.048,14.474-.183v.052a7.649,7.649,0,0,0,.462,8.888c1.969,2.466,4.923,5.56,7.093,5.089C512.682,6722.41,521,6718.863,521,6718.863Z" transform="translate(-323.247 -6450.679)" fill="#b78876"/>
      <path id="Trazado_103624" data-name="Trazado 103624" d="M526.044,6677.934l9.507,32.146,73.817-22.43a29.627,29.627,0,0,0,19.678-36.991c-.057-.187-.116-.372-.176-.558l-18.1-56.319-39.309,9.76,21.576,52.11Z" transform="translate(-328.914 -6438.758)" fill="#d9a171"/>
      <path id="Trazado_103625" data-name="Trazado 103625" d="M610.994,6690.1l-.357.131-1.063.34-4.13,1.281-15.467,4.74-53.731,16.3-.2.052-.07-.191c-3.285-9.83-6.475-20.635-10.161-31.737l-.07-.209.218-.079,1.856-.61,65.146-21.637-.1.235c-5.228-12.635-9.464-22.988-12.426-30.2-1.464-3.59-2.614-6.4-3.4-8.322-.375-.95-.671-1.682-.871-2.187s-.279-.75-.279-.75.122.244.331.732l.924,2.161c.8,1.917,1.978,4.714,3.486,8.287,3,7.2,7.3,17.533,12.566,30.151l.07.175-.183.061-65.146,21.725-1.856.619.139-.288c3.695,11.11,6.867,21.916,10.143,31.736l-.261-.139,53.775-16.138,15.529-4.627,4.148-1.211,1.081-.305Z" transform="translate(-328.876 -6441.778)" fill="#263238"/>
      <path id="Trazado_103626" data-name="Trazado 103626" d="M616.5,6674.148c-.07,0-.558-.811-1.542-2.039a19.969,19.969,0,0,0-10.065-6.675c-1.516-.436-2.492-.558-2.484-.637a2.014,2.014,0,0,1,.7,0,13.108,13.108,0,0,1,1.865.314,18.076,18.076,0,0,1,5.716,2.492,17.889,17.889,0,0,1,4.523,4.3,12.7,12.7,0,0,1,1.011,1.6A1.953,1.953,0,0,1,616.5,6674.148Z" transform="translate(-338.735 -6447.887)" fill="#263238"/>
      <path id="Trazado_103627" data-name="Trazado 103627" d="M598.016,6606.715a50.25,50.25,0,0,1,0-9.533A50.2,50.2,0,0,1,598.016,6606.715Z" transform="translate(-338.136 -6439.196)" fill="#fafafa"/>
      <path id="Trazado_103628" data-name="Trazado 103628" d="M614.655,6607.625a25.309,25.309,0,0,1-1.6-4.566,25.616,25.616,0,0,1-1.168-4.7A51.488,51.488,0,0,1,614.655,6607.625Z" transform="translate(-339.953 -6439.348)" fill="#fafafa"/>
      <path id="Trazado_103629" data-name="Trazado 103629" d="M603.242,6623.967a16.386,16.386,0,0,1-8.618-2.527c.061-.123,1.882.741,4.261,1.429S603.251,6623.836,603.242,6623.967Z" transform="translate(-337.733 -6442.313)" fill="#fafafa"/>
      <path id="Trazado_103630" data-name="Trazado 103630" d="M623.754,6631.45a23.056,23.056,0,0,1,.558-4.549,23.422,23.422,0,0,1,1-4.479,23.931,23.931,0,0,1-.558,4.558A23.007,23.007,0,0,1,623.754,6631.45Z" transform="translate(-341.479 -6442.441)" fill="#fafafa"/>
      <path id="Trazado_103631" data-name="Trazado 103631" d="M616.3,6645.3a48.075,48.075,0,0,1-3.913-8.557A49.08,49.08,0,0,1,616.3,6645.3Z" transform="translate(-340.017 -6444.283)" fill="#fafafa"/>
      <path id="Trazado_103632" data-name="Trazado 103632" d="M612.863,6658.046a22.019,22.019,0,0,1-4.139-1.743,21.679,21.679,0,0,1-3.93-2.161,23.74,23.74,0,0,1,4.13,1.743A22.055,22.055,0,0,1,612.863,6658.046Z" transform="translate(-339.041 -6446.521)" fill="#fafafa"/>
      <path id="Trazado_103633" data-name="Trazado 103633" d="M635.191,6655.412a210.273,210.273,0,0,1-3.407,7.956A22.939,22.939,0,0,1,635.191,6655.412Z" transform="translate(-342.512 -6446.684)" fill="#fafafa"/>
      <path id="Trazado_103634" data-name="Trazado 103634" d="M629.531,6683.018a52.254,52.254,0,0,1-.967-9.786,27.789,27.789,0,0,1,.706,4.871A27.042,27.042,0,0,1,629.531,6683.018Z" transform="translate(-342.098 -6448.975)" fill="#fafafa"/>
      <path id="Trazado_103635" data-name="Trazado 103635" d="M613.414,6692.734a21.929,21.929,0,0,1-3.486-2.875,22.531,22.531,0,0,1-3.155-3.207,22.023,22.023,0,0,1,3.486,2.876A22.63,22.63,0,0,1,613.414,6692.734Z" transform="translate(-339.296 -6450.701)" fill="#fafafa"/>
      <path id="Trazado_103636" data-name="Trazado 103636" d="M587.153,6696.262a50.572,50.572,0,0,1-5.7,7.773,24.9,24.9,0,0,1,2.667-4.018A25.714,25.714,0,0,1,587.153,6696.262Z" transform="translate(-336.04 -6451.937)" fill="#fafafa"/>
      <path id="Trazado_103637" data-name="Trazado 103637" d="M595.427,6682.881a15.957,15.957,0,0,1-3.529-3.1,15.474,15.474,0,0,1-2.823-3.747c.1-.079,1.4,1.559,3.155,3.442S595.505,6682.786,595.427,6682.881Z" transform="translate(-337.019 -6449.335)" fill="#fafafa"/>
      <path id="Trazado_103638" data-name="Trazado 103638" d="M575.441,6686.626a6.8,6.8,0,0,1-3.486.427,6.973,6.973,0,0,1-3.381-.924c.052-.131,1.525.34,3.407.471S575.441,6686.495,575.441,6686.626Z" transform="translate(-334.383 -6450.631)" fill="#fafafa"/>
      <path id="Trazado_103639" data-name="Trazado 103639" d="M563.652,6707.464a16.548,16.548,0,0,1-.871-3.747,16.1,16.1,0,0,1-.427-3.826A32.846,32.846,0,0,1,563.652,6707.464Z" transform="translate(-333.583 -6452.403)" fill="#fafafa"/>
      <path id="Trazado_103640" data-name="Trazado 103640" d="M547.7,6715.326a55.988,55.988,0,0,1-8.549-5.394,56.579,56.579,0,0,1,8.549,5.394Z" transform="translate(-330.6 -6453.694)" fill="#fafafa"/>
      <path id="Trazado_103641" data-name="Trazado 103641" d="M553.517,6689.5c.1.087-1.168,1.586-2.571,3.538a41.081,41.081,0,0,1-2.562,3.556,14.253,14.253,0,0,1,2.187-3.826A13.957,13.957,0,0,1,553.517,6689.5Z" transform="translate(-331.787 -6451.067)" fill="#fafafa"/>
      <path id="Trazado_103642" data-name="Trazado 103642" d="M542.053,6694.19a8.458,8.458,0,0,1-2.553-1.019,8.244,8.244,0,0,1-2.335-1.429,16.523,16.523,0,0,1,4.889,2.448Z" transform="translate(-330.344 -6451.355)" fill="#fafafa"/>
      <g id="Grupo_59393" data-name="Grupo 59393" transform="translate(263.505 214.933)" opacity="0.2">
        <path id="Trazado_103643" data-name="Trazado 103643" d="M602.214,6663.16c3.939.4,7.886.811,11.816,1.307a14.613,14.613,0,0,1,4.008.872,5.1,5.1,0,0,1,2.858,2.8,3.128,3.128,0,0,1-1.089,3.651,3.615,3.615,0,0,1-3.573-.156,19.084,19.084,0,0,1-2.945-2.31,16.444,16.444,0,0,0-6.048-3.163,10.382,10.382,0,0,1-2.893-1.011,2.508,2.508,0,0,1-1.255-2.614" transform="translate(-602.214 -6662.532)"/>
      </g>
      <g id="Grupo_59394" data-name="Grupo 59394" transform="translate(42.23 81.544)">
        <path id="Trazado_103644" data-name="Trazado 103644" d="M349.715,6519.759h5.109v1.162h-6.538v-10.782h1.429Z" transform="translate(-348.286 -6509.546)" fill="#344154"/>
        <path id="Trazado_103645" data-name="Trazado 103645" d="M360.678,6521.456a3.5,3.5,0,0,1-2.652-1.07,3.97,3.97,0,0,1-1.021-2.861v-.252a4.811,4.811,0,0,1,.455-2.129,3.559,3.559,0,0,1,1.274-1.467,3.2,3.2,0,0,1,1.773-.529,3,3,0,0,1,2.429,1.029,4.455,4.455,0,0,1,.867,2.947v.57h-5.428a2.845,2.845,0,0,0,.692,1.914,2.177,2.177,0,0,0,1.684.729,2.387,2.387,0,0,0,1.23-.3,3.1,3.1,0,0,0,.881-.785l.837.651A3.365,3.365,0,0,1,360.678,6521.456Zm-.171-7.183a1.829,1.829,0,0,0-1.392.6,2.935,2.935,0,0,0-.7,1.691h4.013v-.1a2.6,2.6,0,0,0-.562-1.617A1.722,1.722,0,0,0,360.507,6514.273Z" transform="translate(-349.407 -6509.934)" fill="#344154"/>
        <path id="Trazado_103646" data-name="Trazado 103646" d="M369.006,6519.323l1.866-6.006h1.467l-3.222,9.25q-.748,2-2.376,2l-.26-.022-.511-.1v-1.111l.37.03a1.826,1.826,0,0,0,1.085-.282,2.039,2.039,0,0,0,.64-1.029l.3-.815-2.858-7.924h1.5Z" transform="translate(-350.501 -6509.955)" fill="#344154"/>
        <path id="Trazado_103647" data-name="Trazado 103647" d="M379.56,6515.516l.548-5.376h5.525v1.266h-4.362l-.326,2.94a3.482,3.482,0,0,1,1.8-.466,2.976,2.976,0,0,1,2.341.973,3.814,3.814,0,0,1,.866,2.632,3.679,3.679,0,0,1-.9,2.625,3.28,3.28,0,0,1-2.514.959,3.406,3.406,0,0,1-2.332-.792,3.162,3.162,0,0,1-1.03-2.192h1.3a2.175,2.175,0,0,0,.659,1.4,2.047,2.047,0,0,0,1.406.471,1.848,1.848,0,0,0,1.5-.652,2.724,2.724,0,0,0,.545-1.8,2.5,2.5,0,0,0-.589-1.737,2,2,0,0,0-1.566-.655,2.255,2.255,0,0,0-1.407.394l-.363.3Z" transform="translate(-352.258 -6509.546)" fill="#344154"/>
        <path id="Trazado_103648" data-name="Trazado 103648" d="M393.894,6516.16a3.344,3.344,0,0,1-1.026.822,2.78,2.78,0,0,1-1.306.311,2.874,2.874,0,0,1-1.626-.459,3,3,0,0,1-1.07-1.292,4.4,4.4,0,0,1-.377-1.84,4.484,4.484,0,0,1,.411-1.948,3.012,3.012,0,0,1,1.166-1.325,3.326,3.326,0,0,1,1.763-.459,3.01,3.01,0,0,1,2.521,1.2,5.217,5.217,0,0,1,.922,3.262v.4a6.969,6.969,0,0,1-1.244,4.595,4.781,4.781,0,0,1-3.754,1.485h-.267v-1.163h.289a3.262,3.262,0,0,0,3.6-3.584Zm-2.11,0a2.115,2.115,0,0,0,1.27-.422,2.485,2.485,0,0,0,.848-1.043v-.548a3.77,3.77,0,0,0-.585-2.191,1.789,1.789,0,0,0-2.933-.153,2.859,2.859,0,0,0-.547,1.826,2.97,2.97,0,0,0,.529,1.818A1.677,1.677,0,0,0,391.785,6516.16Z" transform="translate(-353.456 -6509.525)" fill="#344154"/>
        <path id="Trazado_103649" data-name="Trazado 103649" d="M404.149,6517.3h1.5v1.118h-1.5v2.5h-1.378v-2.5h-4.91v-.808l4.828-7.471h1.459Zm-4.732,0h3.354v-5.288l-.163.3Z" transform="translate(-354.661 -6509.546)" fill="#344154"/>
        <path id="Trazado_103650" data-name="Trazado 103650" d="M412.3,6516.76a4.69,4.69,0,0,1,.874-2.965,2.972,2.972,0,0,1,4.516-.16v-4.177h1.37v11.375H417.8l-.067-.859a2.787,2.787,0,0,1-2.287,1.008,2.735,2.735,0,0,1-2.27-1.141,4.747,4.747,0,0,1-.878-2.977Zm1.37.156a3.55,3.55,0,0,0,.563,2.132,1.818,1.818,0,0,0,1.555.771,2,2,0,0,0,1.9-1.17v-3.68a2.013,2.013,0,0,0-1.888-1.133,1.826,1.826,0,0,0-1.569.777A3.913,3.913,0,0,0,413.67,6516.917Z" transform="translate(-356.518 -6509.459)" fill="#344154"/>
        <path id="Trazado_103651" data-name="Trazado 103651" d="M425.771,6521.456a3.5,3.5,0,0,1-2.651-1.07,3.971,3.971,0,0,1-1.022-2.861v-.252a4.8,4.8,0,0,1,.456-2.129,3.551,3.551,0,0,1,1.273-1.467,3.207,3.207,0,0,1,1.773-.529,3,3,0,0,1,2.429,1.029,4.455,4.455,0,0,1,.866,2.947v.57h-5.428a2.849,2.849,0,0,0,.693,1.914,2.175,2.175,0,0,0,1.684.729,2.386,2.386,0,0,0,1.229-.3,3.09,3.09,0,0,0,.882-.785l.837.651A3.363,3.363,0,0,1,425.771,6521.456Zm-.171-7.183a1.826,1.826,0,0,0-1.392.6,2.929,2.929,0,0,0-.7,1.691h4.014v-.1a2.6,2.6,0,0,0-.563-1.617A1.719,1.719,0,0,0,425.6,6514.273Z" transform="translate(-357.778 -6509.934)" fill="#344154"/>
        <path id="Trazado_103652" data-name="Trazado 103652" d="M433.224,6520.833h-1.371v-11.375h1.371Z" transform="translate(-359.032 -6509.459)" fill="#344154"/>
        <path id="Trazado_103653" data-name="Trazado 103653" d="M447.122,6520.9h-7.065v-.985l3.732-4.147a8.878,8.878,0,0,0,1.144-1.529,2.559,2.559,0,0,0,.315-1.218,1.936,1.936,0,0,0-.512-1.385,1.786,1.786,0,0,0-1.362-.54,2.113,2.113,0,0,0-1.589.582,2.223,2.223,0,0,0-.566,1.618h-1.37a3.182,3.182,0,0,1,.959-2.407,3.554,3.554,0,0,1,2.566-.918,3.419,3.419,0,0,1,2.377.788,2.693,2.693,0,0,1,.873,2.1q0,1.592-2.029,3.791l-2.888,3.133h5.413Z" transform="translate(-360.06 -6509.525)" fill="#344154"/>
        <path id="Trazado_103654" data-name="Trazado 103654" d="M456.615,6516.3a6.269,6.269,0,0,1-.822,3.576,3.415,3.415,0,0,1-5.125.026,5.951,5.951,0,0,1-.859-3.418v-1.829a6.124,6.124,0,0,1,.823-3.532,2.943,2.943,0,0,1,2.577-1.155,2.974,2.974,0,0,1,2.562,1.114,5.912,5.912,0,0,1,.844,3.439Zm-1.37-1.874a5.023,5.023,0,0,0-.489-2.537,1.682,1.682,0,0,0-1.548-.8,1.66,1.66,0,0,0-1.533.792,4.91,4.91,0,0,0-.5,2.437v2.191a5.093,5.093,0,0,0,.508,2.581,1.678,1.678,0,0,0,1.536.833,1.655,1.655,0,0,0,1.507-.785,4.913,4.913,0,0,0,.515-2.473Z" transform="translate(-361.341 -6509.525)" fill="#344154"/>
        <path id="Trazado_103655" data-name="Trazado 103655" d="M466.387,6516.3a6.262,6.262,0,0,1-.822,3.576,3.414,3.414,0,0,1-5.124.026,5.944,5.944,0,0,1-.859-3.418v-1.829a6.125,6.125,0,0,1,.822-3.532,3.477,3.477,0,0,1,5.14-.041,5.919,5.919,0,0,1,.844,3.439Zm-1.37-1.874a5.023,5.023,0,0,0-.489-2.537,1.682,1.682,0,0,0-1.548-.8,1.662,1.662,0,0,0-1.533.792,4.9,4.9,0,0,0-.5,2.437v2.191a5.1,5.1,0,0,0,.507,2.581,1.679,1.679,0,0,0,1.536.833,1.656,1.656,0,0,0,1.508-.785,4.923,4.923,0,0,0,.514-2.473Z" transform="translate(-362.598 -6509.525)" fill="#344154"/>
        <path id="Trazado_103656" data-name="Trazado 103656" d="M476.16,6516.3a6.269,6.269,0,0,1-.822,3.576,3.415,3.415,0,0,1-5.125.026,5.951,5.951,0,0,1-.859-3.418v-1.829a6.124,6.124,0,0,1,.823-3.532,2.943,2.943,0,0,1,2.577-1.155,2.973,2.973,0,0,1,2.562,1.114,5.911,5.911,0,0,1,.844,3.439Zm-1.37-1.874a5.023,5.023,0,0,0-.489-2.537,1.682,1.682,0,0,0-1.548-.8,1.66,1.66,0,0,0-1.533.792,4.91,4.91,0,0,0-.5,2.437v2.191a5.093,5.093,0,0,0,.508,2.581,1.678,1.678,0,0,0,1.536.833,1.655,1.655,0,0,0,1.507-.785,4.913,4.913,0,0,0,.515-2.473Z" transform="translate(-363.854 -6509.525)" fill="#344154"/>
      </g>
    </g>
  </g>
</svg>
