<svg xmlns="http://www.w3.org/2000/svg" width="360.41" height="252.554" viewBox="0 0 360.41 252.554">
  <g id="Grupo_66118" data-name="Grupo 66118" transform="translate(-701.597 -6507.662)">
    <g id="freepik--background-complete--inject-37" transform="translate(701.597 6523.538)">
      <rect id="Rectángulo_6004" data-name="Rectángulo 6004" width="39.364" height="30.446" transform="translate(197.156 31.797)" fill="#ebebeb"/>
      <path id="Trazado_105551" data-name="Trazado 105551" d="M1004.018,6612.955l10.89-16.683,8.9,10.665,5.415-5.667,8.05,11.685Z" transform="translate(-803.81 -6553.486)" fill="#aed3f2"/>
      <path id="Trazado_105552" data-name="Trazado 105552" d="M1033.958,6596.572a2.41,2.41,0,1,1-2.41-2.41,2.409,2.409,0,0,1,2.41,2.41Z" transform="translate(-812.3 -6552.773)" fill="#aed3f2"/>
      <path id="Trazado_105553" data-name="Trazado 105553" d="M944.41,6628.164l-22.621,8.884a105.945,105.945,0,0,0-10.4-31.519l20.688-8.9C939.987,6606.344,942.9,6616.976,944.41,6628.164Z" transform="translate(-772.502 -6553.607)" fill="#ebebeb"/>
      <path id="Trazado_105554" data-name="Trazado 105554" d="M753.586,6589.462l-51.988,1.073,1.4,67.791,52.015.238Z" transform="translate(-701.597 -6551.185)" fill="#ebebeb"/>
      <path id="Trazado_105555" data-name="Trazado 105555" d="M751.811,6593.212l-45.494.94,1.271,61.481,45.521.6Z" transform="translate(-703.193 -6552.452)" fill="#fafafa"/>
      <path id="Trazado_105556" data-name="Trazado 105556" d="M747.932,6610.065l-30.215-.523.887,42.972,30.188-.622Z" transform="translate(-707.046 -6557.971)" fill="#ebebeb"/>
      <path id="Trazado_105557" data-name="Trazado 105557" d="M718.6,6652.514l29.731-22.7-30.618-20.271Z" transform="translate(-707.046 -6557.971)" fill="#aed3f2"/>
      <path id="Trazado_105558" data-name="Trazado 105558" d="M1136.15,6531.643l-37.4.774,1.006,48.765,37.411.166Z" transform="translate(-835.828 -6531.643)" fill="#ebebeb"/>
      <path id="Trazado_105559" data-name="Trazado 105559" d="M1134.87,6534.342l-32.717.676.907,44.229,32.75.431Z" transform="translate(-836.977 -6532.555)" fill="#fafafa"/>
      <path id="Trazado_105560" data-name="Trazado 105560" d="M1132.077,6546.47l-21.734-.377.635,30.91,21.721-.443Z" transform="translate(-839.745 -6536.526)" fill="#ebebeb"/>
      <path id="Trazado_105561" data-name="Trazado 105561" d="M1110.978,6577l21.39-16.325-22.025-14.584Z" transform="translate(-839.745 -6536.526)" fill="#aed3f2"/>
      <path id="Trazado_105562" data-name="Trazado 105562" d="M900.155,6662.542l-37.4.769,1.006,48.764,37.411.166Z" transform="translate(-756.066 -6575.884)" fill="#ebebeb"/>
      <path id="Trazado_105563" data-name="Trazado 105563" d="M898.871,6665.232l-32.724.675.914,44.229,32.744.431Z" transform="translate(-757.212 -6576.793)" fill="#fafafa"/>
      <path id="Trazado_105564" data-name="Trazado 105564" d="M896.082,6677.36l-21.734-.377.635,30.91,21.714-.443Z" transform="translate(-759.984 -6580.765)" fill="#ebebeb"/>
      <path id="Trazado_105565" data-name="Trazado 105565" d="M874.983,6707.892l21.39-16.326-22.025-14.584Z" transform="translate(-759.984 -6580.765)" fill="#aed3f2"/>
      <path id="Trazado_105566" data-name="Trazado 105566" d="M1192.741,6725.482l-22.383.464.6,29.188,22.4.1Z" transform="translate(-860.029 -6597.157)" fill="#ebebeb"/>
      <path id="Trazado_105567" data-name="Trazado 105567" d="M1191.977,6727.1l-19.589.4.55,26.474,19.6.251Z" transform="translate(-860.715 -6597.704)" fill="#fafafa"/>
      <path id="Trazado_105568" data-name="Trazado 105568" d="M1190.306,6734.357l-13.009-.225.377,18.5,13-.271Z" transform="translate(-862.375 -6600.08)" fill="#ebebeb"/>
      <path id="Trazado_105569" data-name="Trazado 105569" d="M1177.675,6752.636l12.8-9.778-13.181-8.726Z" transform="translate(-862.375 -6600.08)" fill="#aed3f2"/>
      <path id="Trazado_105570" data-name="Trazado 105570" d="M841.963,6554.468a5.015,5.015,0,0,1-.662-.576c-.483-.43-1.092-.973-1.814-1.628s-1.688-1.5-2.734-2.363c-.523-.437-1.079-.881-1.668-1.324-.3-.218-.6-.431-.92-.662a2.673,2.673,0,0,0-.98-.424,2.215,2.215,0,0,0-.947.437c-.311.205-.609.431-.894.662-.576.463-1.106.933-1.609,1.39-1.006.914-1.887,1.768-2.648,2.482l-1.741,1.728a4.933,4.933,0,0,1-.662.609,3.854,3.854,0,0,1,.569-.7c.377-.43.947-1.04,1.662-1.788s1.582-1.615,2.575-2.542c.5-.47,1.033-.947,1.615-1.423a9.163,9.163,0,0,1,.914-.662,2.451,2.451,0,0,1,1.152-.49,2.87,2.87,0,0,1,1.145.477,8.543,8.543,0,0,1,.94.662c.6.444,1.152.9,1.675,1.324,1.039.887,1.94,1.721,2.688,2.43s1.324,1.324,1.748,1.708A4.715,4.715,0,0,1,841.963,6554.468Z" transform="translate(-743.198 -6536.898)" fill="#e0e0e0"/>
      <path id="Trazado_105571" data-name="Trazado 105571" d="M810.744,6557.927l.536,26.421,34.458-.7.126-26.435Z" transform="translate(-738.487 -6540.285)" fill="#ebebeb"/>
      <path id="Trazado_105572" data-name="Trazado 105572" d="M812.644,6560.548l.47,23.118,31.254-.636.311-23.137Z" transform="translate(-739.129 -6541.19)" fill="#fafafa"/>
      <path id="Trazado_105573" data-name="Trazado 105573" d="M821.205,6566.6l-.271,15.353,21.847-.444-.311-15.339Z" transform="translate(-741.931 -6543.313)" fill="#ebebeb"/>
      <path id="Trazado_105574" data-name="Trazado 105574" d="M840.911,6572.674c0,.1-3.376.172-7.547.172s-7.54-.073-7.54-.172,3.376-.172,7.54-.172S840.911,6572.6,840.911,6572.674Z" transform="translate(-743.584 -6545.452)" fill="#e0e0e0"/>
      <path id="Trazado_105575" data-name="Trazado 105575" d="M840.911,6576.314c0,.093-3.376.172-7.547.172s-7.54-.08-7.54-.172,3.376-.172,7.54-.172S840.911,6576.215,840.911,6576.314Z" transform="translate(-743.584 -6546.683)" fill="#e0e0e0"/>
      <path id="Trazado_105576" data-name="Trazado 105576" d="M840.911,6579.914c0,.093-3.376.172-7.547.172s-7.54-.079-7.54-.172,3.376-.172,7.54-.172S840.911,6579.821,840.911,6579.914Z" transform="translate(-743.584 -6547.899)" fill="#e0e0e0"/>
      <path id="Trazado_105577" data-name="Trazado 105577" d="M831.186,6583.514a20.881,20.881,0,0,1-5.362,0A21.058,21.058,0,0,1,831.186,6583.514Z" transform="translate(-743.584 -6549.116)" fill="#e0e0e0"/>
      <path id="Trazado_105578" data-name="Trazado 105578" d="M827.608,6569.807a1.8,1.8,0,0,0-.146-.589,2.492,2.492,0,0,0-.914-1.324,2.4,2.4,0,0,0-2.238-.3,2.344,2.344,0,0,0,0,4.39,2.4,2.4,0,0,0,2.238-.312,2.458,2.458,0,0,0,.914-1.291c.113-.371.113-.6.146-.6a1.335,1.335,0,0,1,0,.662,2.48,2.48,0,0,1-.9,1.457,2.636,2.636,0,1,1-2.489-4.575,2.6,2.6,0,0,1,2.489.411,2.465,2.465,0,0,1,.9,1.457A1.288,1.288,0,0,1,827.608,6569.807Z" transform="translate(-742.448 -6543.651)" fill="#e0e0e0"/>
      <path id="Trazado_105579" data-name="Trazado 105579" d="M847.931,6582.89a2.306,2.306,0,0,1-.238.5,2.2,2.2,0,0,1-1.145,1.006,1.237,1.237,0,0,1-1.1-.159.927.927,0,0,1-.238-1.258.793.793,0,0,1,.311-.258.485.485,0,0,1,.47.059.9.9,0,0,1,.278.742,2.174,2.174,0,0,1-.549,1.384,1.7,1.7,0,0,1-.662.457,1.045,1.045,0,0,1-.8,0,1.323,1.323,0,0,1-.775-1.178,2.263,2.263,0,0,1,.291-1.231.419.419,0,0,1,.324-.212.391.391,0,0,1,.331.192,1.225,1.225,0,0,1,.172.523,1.718,1.718,0,0,1-.53,1.43c-.278.251-.49.285-.49.265a2.624,2.624,0,0,0,.391-.357,1.616,1.616,0,0,0,.384-1.324,1.061,1.061,0,0,0-.146-.4c-.086-.093-.112-.093-.205,0a2.112,2.112,0,0,0-.205,1.045,1.031,1.031,0,0,0,.583.894.978.978,0,0,0,1.053-.384,1.813,1.813,0,0,0,.47-1.158.622.622,0,0,0-.139-.477c-.073-.066-.225,0-.324.125a.662.662,0,0,0,.152.841.991.991,0,0,0,.861.159,2.242,2.242,0,0,0,1.106-.854C847.8,6583.035,847.911,6582.876,847.931,6582.89Z" transform="translate(-749.551 -6548.895)" fill="#e0e0e0"/>
      <path id="Trazado_105580" data-name="Trazado 105580" d="M957.206,6576.273l-23.879,10.612-.569-18.2,23.853-11.274Z" transform="translate(-779.725 -6540.352)" fill="#ebebeb"/>
      <path id="Trazado_105581" data-name="Trazado 105581" d="M1212.515,6603.677a7.248,7.248,0,0,1-1.059-.88l-2.781-2.5c-1.185-1.046-2.589-2.3-4.191-3.628-.808-.662-1.655-1.324-2.562-1.985-.457-.331-.927-.662-1.417-.967a4.193,4.193,0,0,0-1.5-.662,3.373,3.373,0,0,0-1.456.662c-.477.317-.933.662-1.377,1.02-.874.708-1.695,1.437-2.469,2.132-1.542,1.4-2.893,2.714-4.018,3.813l-2.648,2.648a6.731,6.731,0,0,1-1.013.927,6.24,6.24,0,0,1,.867-1.065c.589-.662,1.456-1.6,2.549-2.741s2.43-2.482,3.972-3.912c.768-.715,1.589-1.45,2.476-2.178.444-.358.914-.716,1.4-1.054a3.709,3.709,0,0,1,1.768-.761,4.288,4.288,0,0,1,1.761.734c.5.318.98.662,1.443.993.92.662,1.768,1.384,2.569,2.065,1.6,1.324,2.979,2.648,4.131,3.728s2.059,1.986,2.648,2.648A6.562,6.562,0,0,1,1212.515,6603.677Z" transform="translate(-865.325 -6552.226)" fill="#e0e0e0"/>
      <path id="Trazado_105582" data-name="Trazado 105582" d="M1164.578,6608.975l.828,40.562,52.889-1.072.192-40.582Z" transform="translate(-858.076 -6557.41)" fill="#ebebeb"/>
      <path id="Trazado_105583" data-name="Trazado 105583" d="M1167.508,6613l.715,35.484,47.97-.973.477-35.511Z" transform="translate(-859.066 -6558.803)" fill="#fafafa"/>
      <path id="Trazado_105584" data-name="Trazado 105584" d="M1180.645,6622.294l-.417,23.568,33.531-.682-.483-23.548Z" transform="translate(-863.365 -6562.058)" fill="#ebebeb"/>
      <path id="Trazado_105585" data-name="Trazado 105585" d="M1210.9,6631.666c0,.146-5.184.266-11.579.266s-11.546-.1-11.546-.266,5.184-.265,11.579-.265S1210.9,6631.521,1210.9,6631.666Z" transform="translate(-865.917 -6565.359)" fill="#e0e0e0"/>
      <path id="Trazado_105586" data-name="Trazado 105586" d="M1210.885,6637.2c0,.146-5.184.266-11.579.266s-11.579-.12-11.579-.266,5.184-.265,11.579-.265S1210.885,6637.051,1210.885,6637.2Z" transform="translate(-865.9 -6567.228)" fill="#e0e0e0"/>
      <path id="Trazado_105587" data-name="Trazado 105587" d="M1210.9,6642.727c0,.146-5.184.266-11.579.266s-11.546-.14-11.546-.266,5.184-.265,11.579-.265S1210.9,6642.581,1210.9,6642.727Z" transform="translate(-865.917 -6569.097)" fill="#e0e0e0"/>
      <path id="Trazado_105588" data-name="Trazado 105588" d="M1195.964,6648.257a32.167,32.167,0,1,1-4.118-.265A16.264,16.264,0,0,1,1195.964,6648.257Z" transform="translate(-865.9 -6570.966)" fill="#e0e0e0"/>
      <path id="Trazado_105589" data-name="Trazado 105589" d="M1190.459,6627.214c-.053,0-.053-.338-.219-.907a3.85,3.85,0,0,0-1.41-1.986,3.6,3.6,0,1,0,0,5.793,3.856,3.856,0,0,0,1.41-1.986c.166-.569.166-.913.219-.913a2,2,0,0,1,0,.96,3.817,3.817,0,0,1-1.384,2.237,3.969,3.969,0,0,1-3.82.629,4.058,4.058,0,0,1,0-7.653,3.975,3.975,0,0,1,3.82.662,3.825,3.825,0,0,1,1.384,2.231A1.988,1.988,0,0,1,1190.459,6627.214Z" transform="translate(-864.149 -6562.574)" fill="#e0e0e0"/>
      <path id="Trazado_105590" data-name="Trazado 105590" d="M1221.688,6647.295a2.293,2.293,0,0,1-.364.768,3.355,3.355,0,0,1-1.761,1.549,1.938,1.938,0,0,1-1.695-.245,1.429,1.429,0,0,1-.357-1.933,1.108,1.108,0,0,1,.477-.391.735.735,0,0,1,.715.086,1.357,1.357,0,0,1,.43,1.138,3.308,3.308,0,0,1-.841,2.125,2.6,2.6,0,0,1-.98.7,1.577,1.577,0,0,1-1.225,0,2.065,2.065,0,0,1-1.192-1.808,3.575,3.575,0,0,1,.443-1.893.662.662,0,0,1,.5-.318.612.612,0,0,1,.51.291,1.921,1.921,0,0,1,.258.8,2.648,2.648,0,0,1-.808,2.2c-.424.384-.755.431-.755.411a3.67,3.67,0,0,0,.6-.556,2.5,2.5,0,0,0,.589-1.986,1.742,1.742,0,0,0-.218-.623c-.132-.146-.179-.139-.318.04a3.372,3.372,0,0,0-.324,1.608,1.6,1.6,0,0,0,.9,1.371,1.5,1.5,0,0,0,1.615-.583,2.825,2.825,0,0,0,.722-1.787.924.924,0,0,0-.218-.722c-.106-.113-.344,0-.49.186a.966.966,0,0,0,.225,1.324,1.547,1.547,0,0,0,1.324.238,3.422,3.422,0,0,0,1.695-1.324C1221.477,6647.52,1221.655,6647.275,1221.688,6647.295Z" transform="translate(-875.081 -6570.627)" fill="#e0e0e0"/>
    </g>
    <g id="freepik--Floor--inject-37" transform="translate(758.306 6759.872)">
      <path id="Trazado_105591" data-name="Trazado 105591" d="M1015.211,6888.8c0,.1-51.035.172-113.973.172s-113.98-.073-113.98-.172,51.022-.172,113.98-.172S1015.211,6888.711,1015.211,6888.8Z" transform="translate(-787.258 -6888.632)" fill="#344154"/>
    </g>
    <g id="freepik--Plant--inject-37" transform="translate(920.13 6648.677)">
      <path id="Trazado_105592" data-name="Trazado 105592" d="M1045.634,6796.466c-11.182-7.315-14.022-21.324-13.9-33.981,0-2.112-.265-4.337.7-6.21s3.31-3.2,5.256-2.357c1.6.7,2.344,2.51,3.27,3.973a12.492,12.492,0,0,0,5.131,4.634c1.377.662,3.072,1.053,4.4.285,1.821-1.046,1.986-3.568,1.907-5.667l-.358-11.737a19.379,19.379,0,0,1,.483-6.25,6.545,6.545,0,0,1,4.045-4.5c2.013-.608,4.535.483,5.018,2.529a19.062,19.062,0,0,1,.119,2.608,2.21,2.21,0,0,0,1.364,2.052,2.6,2.6,0,0,0,2.31-1.02,27.8,27.8,0,0,0,4.892-7.686,39.188,39.188,0,0,1,4.548-7.944,11.436,11.436,0,0,1,7.686-4.5c3.052-.245,6.336,1.536,7.176,4.469s-.834,5.958-2.648,8.428a47.449,47.449,0,0,1-9.679,9.533,3.841,3.841,0,0,0-1.615,1.794c-.424,1.41.953,2.768,2.363,3.2,1.6.477,3.31.278,4.978.431s3.482.827,4.144,2.363c.927,2.125-.841,4.416-2.6,5.958a40.67,40.67,0,0,1-11.87,7.15,13.655,13.655,0,0,0-4.416,2.25c-1.231,1.119-1.986,3.02-1.152,4.482s2.767,1.887,4.4,1.549a28.608,28.608,0,0,0,4.634-1.874c2.893-1.158,6.673-1.045,8.606,1.4a6.576,6.576,0,0,1,.861,5.859,15.238,15.238,0,0,1-3.1,5.3,40.854,40.854,0,0,1-17.166,12.525c-6.726,2.482-12.989,3.264-19.788.993" transform="translate(-1031.698 -6720.668)" fill="#d9a171"/>
      <path id="Trazado_105593" data-name="Trazado 105593" d="M1093.639,6723.242l-.205.205-.622.569c-.543.5-1.324,1.231-2.357,2.2a78.7,78.7,0,0,0-7.944,8.845c-1.536,1.986-3.131,4.224-4.8,6.66s-3.416,5.064-5.157,7.884a95.137,95.137,0,0,0-5.031,9.1c-.781,1.622-1.476,3.31-2.178,5.051l-2.158,5.263a191.133,191.133,0,0,0-7.084,20.383,92.435,92.435,0,0,0-3.111,17.319,67.822,67.822,0,0,0,.1,11.87c.152,1.39.285,2.476.4,3.2.053.357.093.628.126.834a2.1,2.1,0,0,1,.033.285,41.87,41.87,0,0,1-.662-4.31,64.908,64.908,0,0,1-.205-11.916,90.871,90.871,0,0,1,3.059-17.378,185.86,185.86,0,0,1,7.07-20.43l2.132-5.263c.7-1.728,1.4-3.437,2.185-5.065a93.924,93.924,0,0,1,5.065-9.123c1.754-2.827,3.522-5.442,5.2-7.878s3.31-4.674,4.833-6.653a74.848,74.848,0,0,1,8-8.792c1.026-.967,1.84-1.688,2.4-2.172l.662-.542Z" transform="translate(-1038.764 -6721.538)" fill="#344154"/>
      <path id="Trazado_105594" data-name="Trazado 105594" d="M1072.946,6764.827a5.986,5.986,0,0,1-.212-.895c-.126-.582-.271-1.423-.444-2.462-.351-2.086-.728-4.979-1.145-8.17s-.847-6.07-1.231-8.143c-.192-1.039-.358-1.873-.483-2.449a4.416,4.416,0,0,1-.152-.907,5.7,5.7,0,0,1,.271.874c.159.569.358,1.4.583,2.436.444,2.066.914,4.952,1.324,8.15s.768,6.024,1.046,8.176c.139,1,.258,1.827.344,2.476A4.663,4.663,0,0,1,1072.946,6764.827Z" transform="translate(-1044.399 -6727.811)" fill="#344154"/>
      <path id="Trazado_105595" data-name="Trazado 105595" d="M1102.047,6767.953a1.049,1.049,0,0,1-.285.053l-.808.086c-.7.073-1.715.179-2.966.351-2.5.318-5.958.888-9.7,1.675s-7.136,1.676-9.553,2.377c-1.212.344-2.185.662-2.86.86l-.781.232a1.142,1.142,0,0,1-.278.065,1.007,1.007,0,0,1,.258-.126l.761-.291c.662-.245,1.629-.582,2.833-.953,2.41-.761,5.786-1.668,9.553-2.469s7.229-1.324,9.738-1.6c1.258-.14,2.277-.212,2.986-.245l.814-.033A1,1,0,0,1,1102.047,6767.953Z" transform="translate(-1046.272 -6736.644)" fill="#344154"/>
      <path id="Trazado_105596" data-name="Trazado 105596" d="M1050.475,6804.872a1.518,1.518,0,0,1-.192-.324l-.483-.974c-.417-.841-.993-2.071-1.688-3.6-1.39-3.065-3.178-7.355-5.091-12.115s-3.668-9.057-5-12.135c-.662-1.51-1.2-2.747-1.6-3.647-.179-.4-.318-.735-.43-.993a2.591,2.591,0,0,1-.132-.352,1.571,1.571,0,0,1,.192.325l.483.966c.417.848.993,2.079,1.688,3.608,1.39,3.065,3.178,7.355,5.091,12.115s3.667,9.05,5,12.135c.662,1.509,1.2,2.747,1.6,3.647.179.4.318.734.43.993A2.344,2.344,0,0,1,1050.475,6804.872Z" transform="translate(-1033.104 -6737.588)" fill="#344154"/>
      <path id="Trazado_105597" data-name="Trazado 105597" d="M1094,6803.582a2.607,2.607,0,0,1-.364.146l-1.046.371-3.866,1.324c-3.264,1.125-7.746,2.734-12.7,4.521s-9.454,3.363-12.737,4.436c-1.642.537-2.973.96-3.9,1.231l-1.066.312a1.619,1.619,0,0,1-.377.086,2.031,2.031,0,0,1,.358-.146l1.053-.371,3.859-1.324c3.264-1.125,7.752-2.734,12.7-4.521s9.454-3.363,12.737-4.436c1.642-.536,2.973-.953,3.9-1.231l1.066-.312A1.59,1.59,0,0,1,1094,6803.582Z" transform="translate(-1040.567 -6748.691)" fill="#344154"/>
    </g>
    <g id="freepik--filing-cabinet--inject-37" transform="translate(846.328 6600.809)">
      <path id="Trazado_105598" data-name="Trazado 105598" d="M962.494,6648.362,961.078,6807.6h63.077V6650.534Z" transform="translate(-934.028 -6648.362)" fill="#455a64"/>
      <path id="Trazado_105599" data-name="Trazado 105599" d="M966.208,6688.333v22.323h29.877v-21.264Z" transform="translate(-935.761 -6661.872)" fill="#344154"/>
      <path id="Trazado_105600" data-name="Trazado 105600" d="M1014.26,6650.173l-.563,158.037h28.242V6651.146Z" transform="translate(-951.812 -6648.975)" fill="#344154"/>
      <path id="Trazado_105601" data-name="Trazado 105601" d="M966.208,6651.333v22.322h29.877v-21.271Z" transform="translate(-935.761 -6649.367)" fill="#344154"/>
      <path id="Trazado_105602" data-name="Trazado 105602" d="M981.768,6660.45v3.3h9.143v-3.595Z" transform="translate(-941.02 -6652.347)" fill="#344154"/>
      <rect id="Rectángulo_6005" data-name="Rectángulo 6005" width="9.44" height="1.351" transform="translate(40.747 14.174)" fill="#344154"/>
      <g id="Grupo_66112" data-name="Grupo 66112" transform="translate(40.747 7.805)" opacity="0.4">
        <path id="Trazado_105603" data-name="Trazado 105603" d="M981.768,6660.45v3.3h9.143v-3.595Z" transform="translate(-981.768 -6660.152)" fill="#344154"/>
        <rect id="Rectángulo_6006" data-name="Rectángulo 6006" width="9.44" height="1.351" transform="translate(0 6.369)" fill="#344154"/>
      </g>
      <path id="Trazado_105604" data-name="Trazado 105604" d="M966.208,6769.482V6791.8h29.877v-21.264Z" transform="translate(-935.761 -6689.298)" fill="#344154"/>
      <path id="Trazado_105605" data-name="Trazado 105605" d="M981.768,6778.6v3.3h9.143v-3.6Z" transform="translate(-941.02 -6692.279)" fill="#344154"/>
      <rect id="Rectángulo_6007" data-name="Rectángulo 6007" width="9.44" height="1.351" transform="translate(40.747 92.392)" fill="#344154"/>
      <g id="Grupo_66113" data-name="Grupo 66113" transform="translate(40.747 86.023)" opacity="0.4">
        <path id="Trazado_105606" data-name="Trazado 105606" d="M981.768,6778.6v3.3h9.143v-3.6Z" transform="translate(-981.768 -6778.302)" fill="#344154"/>
        <rect id="Rectángulo_6008" data-name="Rectángulo 6008" width="9.44" height="1.351" transform="translate(0 6.369)" fill="#344154"/>
      </g>
      <path id="Trazado_105607" data-name="Trazado 105607" d="M966.208,6807.482V6829.8h29.877v-21.264Z" transform="translate(-935.761 -6702.142)" fill="#344154"/>
      <path id="Trazado_105608" data-name="Trazado 105608" d="M981.768,6816.6v3.3h9.143v-3.6Z" transform="translate(-941.02 -6705.122)" fill="#344154"/>
      <rect id="Rectángulo_6009" data-name="Rectángulo 6009" width="9.44" height="1.351" transform="translate(40.747 117.548)" fill="#344154"/>
      <g id="Grupo_66114" data-name="Grupo 66114" transform="translate(40.747 111.18)" opacity="0.4">
        <path id="Trazado_105609" data-name="Trazado 105609" d="M981.768,6816.6v3.3h9.143v-3.6Z" transform="translate(-981.768 -6816.302)" fill="#344154"/>
        <rect id="Rectángulo_6010" data-name="Rectángulo 6010" width="9.44" height="1.351" transform="translate(0 6.369)" fill="#344154"/>
      </g>
      <path id="Trazado_105610" data-name="Trazado 105610" d="M965.728,6845.482V6867.8H995.6v-21.264Z" transform="translate(-935.599 -6714.985)" fill="#344154"/>
      <path id="Trazado_105611" data-name="Trazado 105611" d="M981.278,6854.6v3.3h9.142v-3.6Z" transform="translate(-940.855 -6717.965)" fill="#344154"/>
      <rect id="Rectángulo_6011" data-name="Rectángulo 6011" width="9.44" height="1.351" transform="translate(40.423 142.705)" fill="#344154"/>
      <g id="Grupo_66115" data-name="Grupo 66115" transform="translate(40.423 136.336)" opacity="0.4">
        <path id="Trazado_105612" data-name="Trazado 105612" d="M981.278,6854.6v3.3h9.142v-3.6Z" transform="translate(-981.278 -6854.302)" fill="#344154"/>
        <rect id="Rectángulo_6012" data-name="Rectángulo 6012" width="9.44" height="1.351" transform="translate(0 6.369)" fill="#344154"/>
      </g>
      <rect id="Rectángulo_6013" data-name="Rectángulo 6013" width="29.877" height="22.323" transform="translate(0 52.776)" fill="#455a64"/>
      <path id="Trazado_105613" data-name="Trazado 105613" d="M936.078,6743.13v3.1h8.593v-3.376Z" transform="translate(-925.578 -6680.298)" fill="#344154"/>
      <rect id="Rectángulo_6014" data-name="Rectángulo 6014" width="8.871" height="1.264" transform="translate(10.5 68.539)" fill="#344154"/>
      <g id="Grupo_66116" data-name="Grupo 66116" transform="translate(10.5 62.554)" opacity="0.4">
        <path id="Trazado_105614" data-name="Trazado 105614" d="M936.078,6743.13v3.1h8.593v-3.376Z" transform="translate(-936.078 -6742.853)" fill="#344154"/>
        <rect id="Rectángulo_6015" data-name="Rectángulo 6015" width="8.871" height="1.264" transform="translate(0 5.985)" fill="#344154"/>
      </g>
      <path id="Trazado_105615" data-name="Trazado 105615" d="M965.348,6727.971l29.453-.218-.536,22.535H965.348Z" transform="translate(-935.471 -6675.195)" fill="#344154"/>
      <path id="Trazado_105616" data-name="Trazado 105616" d="M965.348,6727.971l29.453-.218-.536,22.535H965.348Z" transform="translate(-935.471 -6675.195)" fill="#344154" opacity="0.4" style="isolation: isolate"/>
      <rect id="Rectángulo_6016" data-name="Rectángulo 6016" width="29.447" height="20.046" transform="translate(28.838 32.505)" fill="#fafafa"/>
      <path id="Trazado_105617" data-name="Trazado 105617" d="M952.988,6701.134l1.483,17.034,35.087-.179-2.079-16.663a1.987,1.987,0,0,0-2.224-1.695l-14.161,1.231-2.41-1.787a1.163,1.163,0,0,0-.755-.206l-13.982,1.231A1.012,1.012,0,0,0,952.988,6701.134Z" transform="translate(-931.293 -6665.432)" fill="#344154"/>
      <path id="Trazado_105618" data-name="Trazado 105618" d="M952.988,6701.134l1.483,17.034,35.087-.179-2.079-16.663a1.987,1.987,0,0,0-2.224-1.695l-14.161,1.231-2.41-1.787a1.163,1.163,0,0,0-.755-.206l-13.982,1.231A1.012,1.012,0,0,0,952.988,6701.134Z" transform="translate(-931.293 -6665.432)" fill="#d9a171"/>
      <path id="Trazado_105619" data-name="Trazado 105619" d="M937.4,6717.963l-.741-4.436,32.459-2.145,2.853,11.009-33.928-.172Z" transform="translate(-925.774 -6669.662)" fill="#fafafa"/>
      <path id="Trazado_105620" data-name="Trazado 105620" d="M931.518,6716.9l.576,6.62H966.81l-.821-6.441a1.986,1.986,0,0,0-2.218-1.694l-14.161,1.23-2.416-1.787a1.134,1.134,0,0,0-.748-.205l-13.982,1.238A1,1,0,0,0,931.518,6716.9Z" transform="translate(-924.037 -6670.755)" fill="#d9a171"/>
      <path id="Trazado_105621" data-name="Trazado 105621" d="M931.518,6716.9l.576,6.62H966.81l-.821-6.441a1.986,1.986,0,0,0-2.218-1.694l-14.161,1.23-2.416-1.787a1.134,1.134,0,0,0-.748-.205l-13.982,1.238A1,1,0,0,0,931.518,6716.9Z" transform="translate(-924.037 -6670.755)" fill="#fafafa" opacity="0.7" style="isolation: isolate"/>
      <path id="Trazado_105622" data-name="Trazado 105622" d="M986.858,6715.872h4.634a1.166,1.166,0,0,1,1.162,1.168,1.187,1.187,0,0,1-.03.262l-1.5,6.429h-2.165Z" transform="translate(-942.741 -6671.179)" fill="#344154"/>
    </g>
    <g id="freepik--Documents--inject-37" transform="translate(718.827 6507.662)">
      <path id="Trazado_105623" data-name="Trazado 105623" d="M1065.833,6573.414l-20.6,4.416a1.324,1.324,0,0,1-1.567-1.025c0-.016-.006-.031-.009-.047l-2.781-13.9a1.37,1.37,0,0,1,1.033-1.629l20.589-4.429a1.324,1.324,0,0,1,1.566,1.025c0,.016.007.032.009.047l2.787,13.9A1.39,1.39,0,0,1,1065.833,6573.414Z" transform="translate(-833.487 -6524.259)" fill="#6595bf"/>
      <path id="Trazado_105624" data-name="Trazado 105624" d="M1059.769,6569.725l3.151,1.093-2.489,2.283-2.489,2.284-.662-3.376-.662-3.377Z" transform="translate(-838.817 -6528.269)" fill="#fafafa"/>
      <path id="Trazado_105625" data-name="Trazado 105625" d="M1005.99,6549.535l.205-.271c.146-.172.351-.43.616-.781a19.161,19.161,0,0,0,1.986-3.271,18.059,18.059,0,0,0,.993-2.575c.285-.967.51-2.046.794-3.191.556-2.3,1.192-4.918,1.887-7.812s1.476-6.064,2.3-9.46a21.738,21.738,0,0,1,.728-2.588,14.49,14.49,0,0,1,1.218-2.5,13.955,13.955,0,0,1,1.761-2.264,12.749,12.749,0,0,1,1.066-1h.033c.139.542,0,.145.053.265h-.086l-.179-.047-.358-.086-.715-.172-12-2.926-6.349-1.556-3.244-.794-1.642-.4h-.079l-.192.073-.391.152c-.245.125-.51.225-.748.364a10.406,10.406,0,0,0-4.522,4.681,12.576,12.576,0,0,0-.98,3.1c-.245,1.06-.49,2.112-.728,3.158-.967,4.171-1.893,8.2-2.781,12.036l-.662,2.84a21.275,21.275,0,0,1-3.555,7.467c-.265.351-.536.662-.814,1.02l-.106.126-.053.066c-.139-.457,0-.125-.053-.225h.06l.311.079.616.152,2.41.6,4.542,1.125,13.677,3.4,3.72.947.96.251.331.1-.338-.066-.973-.219-3.727-.88-13.71-3.31-4.542-1.1-2.416-.589-.616-.146-.311-.08h-.06c-.04-.1.053.225-.093-.232l.053-.06.1-.125c.278-.325.543-.662.8-1.013a21.062,21.062,0,0,0,2.615-4.693,33.9,33.9,0,0,0,1.523-5.515c.88-3.839,1.807-7.864,2.761-12.042.245-1.046.483-2.1.728-3.158a12.811,12.811,0,0,1,1-3.165,10.745,10.745,0,0,1,4.634-4.958c.252-.146.523-.251.781-.371l.4-.159.2-.08h.278l1.635.4,3.244.867,6.349,1.556,11.989,2.946.715.179.357.086.179.046h.086c.033.125-.04-.271.079.278h-.033c-.364.312-.715.662-1.046.98a13.512,13.512,0,0,0-2.926,4.634,21.865,21.865,0,0,0-.722,2.549l-2.337,9.454-1.933,7.8c-.3,1.146-.536,2.218-.834,3.191a18.232,18.232,0,0,1-1.02,2.588,17.8,17.8,0,0,1-2.039,3.25A11.675,11.675,0,0,1,1005.99,6549.535Z" transform="translate(-812.664 -6507.662)" fill="#344154"/>
      <path id="Trazado_105626" data-name="Trazado 105626" d="M1016.9,6525.585a2.628,2.628,0,0,1-.741-.112c-.47-.093-1.152-.238-1.986-.424-1.675-.377-3.972-.92-6.528-1.569s-4.833-1.324-6.481-1.787c-.828-.245-1.49-.457-1.946-.609a2.8,2.8,0,0,1-.7-.271,3.633,3.633,0,0,1,.735.146l1.986.5,6.494,1.682,6.508,1.668,1.986.536A3.6,3.6,0,0,1,1016.9,6525.585Z" transform="translate(-819.18 -6512.106)" fill="#344154"/>
      <path id="Trazado_105627" data-name="Trazado 105627" d="M1016.223,6529.775a3.458,3.458,0,0,1-.741-.113c-.477-.093-1.152-.237-1.986-.43-1.675-.378-3.972-.92-6.534-1.569s-4.826-1.324-6.475-1.78c-.828-.252-1.49-.457-1.946-.609a3.126,3.126,0,0,1-.662-.271,3.356,3.356,0,0,1,.735.139l1.986.5,6.494,1.688,6.481,1.669,1.986.529A3.261,3.261,0,0,1,1016.223,6529.775Z" transform="translate(-818.964 -6513.522)" fill="#344154"/>
      <path id="Trazado_105628" data-name="Trazado 105628" d="M1015.206,6533.958a2.757,2.757,0,0,1-.741-.105c-.477-.093-1.152-.245-1.986-.431-1.675-.377-3.972-.92-6.534-1.568s-4.826-1.291-6.475-1.788c-.828-.244-1.49-.45-1.946-.6a3.5,3.5,0,0,1-.7-.271,2.9,2.9,0,0,1,.735.14l1.986.5,6.494,1.682,6.514,1.668,1.986.537A3.7,3.7,0,0,1,1015.206,6533.958Z" transform="translate(-818.609 -6514.938)" fill="#344154"/>
      <path id="Trazado_105629" data-name="Trazado 105629" d="M1014.336,6538.145a2.978,2.978,0,0,1-.741-.112c-.47-.093-1.152-.239-1.986-.424-1.675-.377-3.972-.92-6.528-1.576s-4.833-1.284-6.481-1.781c-.821-.245-1.483-.457-1.94-.609a2.911,2.911,0,0,1-.7-.271,3.56,3.56,0,0,1,.735.146l1.986.5,6.5,1.688,6.5,1.668,1.986.536A3.387,3.387,0,0,1,1014.336,6538.145Z" transform="translate(-818.315 -6516.352)" fill="#344154"/>
      <path id="Trazado_105630" data-name="Trazado 105630" d="M1012.979,6542.342a3.488,3.488,0,0,1-.741-.112c-.477-.093-1.152-.238-1.986-.431-1.675-.377-3.972-.92-6.534-1.569s-4.826-1.324-6.474-1.788c-.828-.245-1.49-.45-1.946-.6a3.131,3.131,0,0,1-.708-.258,2.856,2.856,0,0,1,.735.139l1.986.5,6.494,1.688,6.508,1.662,1.986.536A3.053,3.053,0,0,1,1012.979,6542.342Z" transform="translate(-817.852 -6517.774)" fill="#344154"/>
      <path id="Trazado_105631" data-name="Trazado 105631" d="M1012.006,6546.516a2.629,2.629,0,0,1-.741-.113c-.47-.093-1.152-.238-1.986-.424-1.675-.377-3.972-.92-6.527-1.569s-4.833-1.324-6.481-1.788c-.821-.245-1.49-.457-1.946-.609a2.8,2.8,0,0,1-.7-.271,3.668,3.668,0,0,1,.735.146l1.986.5,6.5,1.682,6.5,1.668,1.986.536A3.569,3.569,0,0,1,1012.006,6546.516Z" transform="translate(-817.527 -6519.181)" fill="#344154"/>
      <path id="Trazado_105632" data-name="Trazado 105632" d="M1010.783,6550.858a2.72,2.72,0,0,1-.741-.106c-.47-.092-1.152-.237-1.986-.43-1.675-.377-3.972-.92-6.534-1.569s-4.826-1.324-6.474-1.787c-.821-.245-1.49-.45-1.946-.6a3.178,3.178,0,0,1-.662-.271,2.9,2.9,0,0,1,.735.139l1.986.5,6.494,1.688,6.508,1.662,1.986.536A3.518,3.518,0,0,1,1010.783,6550.858Z" transform="translate(-817.125 -6520.65)" fill="#344154"/>
      <path id="Trazado_105633" data-name="Trazado 105633" d="M1013.807,6556.053a7.807,7.807,0,0,1-1.589-.259c-.973-.2-2.31-.5-3.78-.88s-2.78-.788-3.734-1.072a7.083,7.083,0,0,1-1.516-.55,8.4,8.4,0,0,1,1.582.312c.967.231,2.291.6,3.754.979s2.794.708,3.754.973A7.588,7.588,0,0,1,1013.807,6556.053Z" transform="translate(-820.758 -6523.084)" fill="#344154"/>
      <path id="Trazado_105634" data-name="Trazado 105634" d="M937.953,6641.459l-22.621,8.884a106.073,106.073,0,0,0-10.394-31.512l13.9-5.958a10.109,10.109,0,0,1,13.275,5.306q.124.29.23.585A110.58,110.58,0,0,1,937.953,6641.459Z" transform="translate(-787.552 -6542.944)" fill="#fafafa"/>
      <path id="Trazado_105635" data-name="Trazado 105635" d="M937.841,6641.37a1.156,1.156,0,0,0-.053-.284c-.053-.186-.079-.471-.132-.814-.119-.715-.291-1.781-.543-3.145a116.187,116.187,0,0,0-2.728-11.434c-.358-1.191-.735-2.442-1.165-3.727s-.861-2.648-1.43-3.973a9.946,9.946,0,0,0-2.648-3.542,10.352,10.352,0,0,0-4.21-2.1,9.924,9.924,0,0,0-4.925.14c-.417.105-.808.284-1.212.424l-1.2.522-2.456,1.053-10.228,4.4.086-.231c.179.357.371.748.569,1.139a110.853,110.853,0,0,1,6.4,15.889,102.248,102.248,0,0,1,3.409,14.564l-.185-.106,16.431-6.375,4.594-1.768,1.218-.457c.271-.105.424-.152.424-.152s-.126.066-.391.172l-1.178.483-4.548,1.8-16.451,6.534-.159.066v-.179a104.6,104.6,0,0,0-3.443-14.512,111.923,111.923,0,0,0-6.428-15.809l-.563-1.139-.086-.166.172-.066,10.228-4.4,2.456-1.059,1.2-.517c.424-.146.828-.324,1.251-.437a10.308,10.308,0,0,1,5.091-.125,10.6,10.6,0,0,1,4.33,2.171,10.121,10.121,0,0,1,2.728,3.661c.583,1.363.986,2.714,1.423,4s.794,2.542,1.145,3.734a108.516,108.516,0,0,1,2.648,11.479q.338,2.065.477,3.171c.04.351.073.622.1.827A1.424,1.424,0,0,1,937.841,6641.37Z" transform="translate(-787.44 -6542.855)" fill="#344154"/>
      <path id="Trazado_105636" data-name="Trazado 105636" d="M927.078,6612.586s3.376,6.925,3.078,7.17,8.381-3.237,8.487-3.31C938.67,6616.466,934.155,6610.441,927.078,6612.586Z" transform="translate(-795.035 -6542.968)" fill="#344154"/>
      <path id="Trazado_105637" data-name="Trazado 105637" d="M921.974,6626.922a16.543,16.543,0,0,1-3.065,1.483,17.35,17.35,0,0,1-3.191,1.164,16.2,16.2,0,0,1,3.059-1.482A17.309,17.309,0,0,1,921.974,6626.922Z" transform="translate(-791.195 -6547.97)" fill="#344154"/>
      <path id="Trazado_105638" data-name="Trazado 105638" d="M933.692,6625.42c.04.086-3.628,1.867-8.189,3.972s-8.3,3.741-8.335,3.655,3.628-1.86,8.189-3.972S933.652,6625.334,933.692,6625.42Z" transform="translate(-791.685 -6547.46)" fill="#344154"/>
      <path id="Trazado_105639" data-name="Trazado 105639" d="M935.992,6631.58c.04.086-3.628,1.86-8.189,3.972s-8.3,3.748-8.335,3.661,3.628-1.86,8.189-3.972S935.952,6631.487,935.992,6631.58Z" transform="translate(-792.462 -6549.542)" fill="#344154"/>
      <path id="Trazado_105640" data-name="Trazado 105640" d="M938.342,6637.69c.04.086-3.628,1.86-8.189,3.972s-8.3,3.741-8.335,3.654,3.628-1.86,8.189-3.972S938.3,6637.618,938.342,6637.69Z" transform="translate(-793.257 -6551.608)" fill="#344154"/>
      <path id="Trazado_105641" data-name="Trazado 105641" d="M934.774,6649.042a9.029,9.029,0,0,1-1.536.808c-.967.457-2.31,1.072-3.807,1.728-2.344,1.033-4.356,1.874-5.117,2.131l-.106.04v-.1c.053-.245.093-.357.113-.357a1.806,1.806,0,0,1,0,.378l-.079-.066c.7-.384,2.648-1.324,5.025-2.337,1.5-.662,2.86-1.237,3.853-1.642A8.166,8.166,0,0,1,934.774,6649.042Z" transform="translate(-794.065 -6555.446)" fill="#344154"/>
      <path id="Trazado_105642" data-name="Trazado 105642" d="M1085.628,6633.742l-25.11-10.857h0a21,21,0,0,0,6.025-8.136l7.328-17.6a10.529,10.529,0,0,1,7.878-6.19h0l23.29,10.089h0a13.612,13.612,0,0,0-5.66,6.369l-8.361,19.285A18.432,18.432,0,0,1,1085.628,6633.742Z" transform="translate(-840.135 -6535.816)" fill="#d9a171"/>
      <path id="Trazado_105643" data-name="Trazado 105643" d="M1085.628,6633.742l-25.11-10.857h0a21,21,0,0,0,6.025-8.136l7.328-17.6a10.529,10.529,0,0,1,7.878-6.19h0l23.29,10.089h0a13.612,13.612,0,0,0-5.66,6.369l-8.361,19.285A18.432,18.432,0,0,1,1085.628,6633.742Z" transform="translate(-840.135 -6535.816)" fill="#fafafa" opacity="0.7" style="isolation: isolate"/>
      <path id="Trazado_105644" data-name="Trazado 105644" d="M1102.807,6613.131c-.04.086-4.151-1.628-9.189-3.839s-9.089-4.065-9.05-4.151,4.151,1.628,9.189,3.839S1102.846,6613.045,1102.807,6613.131Z" transform="translate(-848.263 -6540.607)" fill="#344154"/>
      <path id="Trazado_105645" data-name="Trazado 105645" d="M1100.962,6618.223c-.04.086-4.29-1.7-9.5-3.973s-9.394-4.2-9.354-4.289,4.29,1.688,9.493,3.972S1100.962,6618.137,1100.962,6618.223Z" transform="translate(-847.432 -6542.236)" fill="#344154"/>
      <path id="Trazado_105646" data-name="Trazado 105646" d="M1098.962,6622.846c-.033.086-4.29-1.695-9.493-3.972s-9.394-4.2-9.361-4.283,4.29,1.688,9.5,3.972S1098.962,6622.753,1098.962,6622.846Z" transform="translate(-846.756 -6543.801)" fill="#344154"/>
      <path id="Trazado_105647" data-name="Trazado 105647" d="M1096.892,6627.462c-.04.086-4.29-1.694-9.5-3.972s-9.394-4.2-9.354-4.29,4.29,1.7,9.493,3.973S1096.939,6627.4,1096.892,6627.462Z" transform="translate(-846.056 -6545.358)" fill="#344154"/>
      <path id="Trazado_105648" data-name="Trazado 105648" d="M1094.866,6632.072c0,.093-4.29-1.688-9.493-3.973s-9.394-4.2-9.354-4.289,4.283,1.694,9.493,3.972S1094.932,6631.986,1094.866,6632.072Z" transform="translate(-845.373 -6546.917)" fill="#344154"/>
      <path id="Trazado_105649" data-name="Trazado 105649" d="M1083.779,6632.722a6.617,6.617,0,0,1-1.483-.517c-.9-.358-2.132-.874-3.482-1.47s-2.569-1.145-3.443-1.562a6.76,6.76,0,0,1-1.384-.741,7.637,7.637,0,0,1,1.483.516c.9.364,2.132.88,3.482,1.47s2.569,1.152,3.443,1.569A7.294,7.294,0,0,1,1083.779,6632.722Z" transform="translate(-844.687 -6548.48)" fill="#344154"/>
      <path id="Trazado_105650" data-name="Trazado 105650" d="M1095.49,6643.51c-.033,0,.073-.238.132-.662a2.865,2.865,0,0,0-.357-1.761,2.648,2.648,0,1,0-1.721,3.926,2.809,2.809,0,0,0,1.536-.934c.278-.337.384-.569.41-.556a1.436,1.436,0,0,1-.3.662,2.762,2.762,0,0,1-1.582,1.086,2.926,2.926,0,0,1-2.741-.7,2.966,2.966,0,0,1,2.244-5.118,2.922,2.922,0,0,1,2.37,1.542,2.807,2.807,0,0,1,.271,1.9A1.463,1.463,0,0,1,1095.49,6643.51Z" transform="translate(-850.075 -6552.204)" fill="#344154"/>
      <rect id="Rectángulo_6017" data-name="Rectángulo 6017" width="1.145" height="7.944" transform="translate(237.36 62.142) rotate(-66.34)" fill="#344154"/>
      <path id="Trazado_105651" data-name="Trazado 105651" d="M1062.657,6695.413l-27.11-.636,10.089-13.5h26.448Z" transform="translate(-831.695 -6566.339)" fill="#d9a171"/>
      <path id="Trazado_105652" data-name="Trazado 105652" d="M1041.628,6694.688l21.443.655-2.979-4.383-4.217,1.808-3.337-5.767Z" transform="translate(-833.75 -6568.275)" fill="#d9a171"/>
      <path id="Trazado_105653" data-name="Trazado 105653" d="M1067.239,6686.232a1.39,1.39,0,1,1-1.39-1.39,1.39,1.39,0,0,1,1.39,1.39Z" transform="translate(-841.466 -6567.545)" fill="#d9a171"/>
      <g id="Grupo_66117" data-name="Grupo 66117" transform="translate(207.877 117.296)" opacity="0.7">
        <path id="Trazado_105654" data-name="Trazado 105654" d="M1041.628,6694.688l21.443.655-2.979-4.383-4.217,1.808-3.337-5.767Z" transform="translate(-1041.628 -6685.572)" fill="#fafafa"/>
        <path id="Trazado_105655" data-name="Trazado 105655" d="M1067.239,6686.232a1.39,1.39,0,1,1-1.39-1.39,1.39,1.39,0,0,1,1.39,1.39Z" transform="translate(-1049.344 -6684.842)" fill="#fafafa"/>
      </g>
      <path id="Trazado_105656" data-name="Trazado 105656" d="M795.149,6764.34l-33.44,14.852-.8-25.477,33.4-15.788Z" transform="translate(-738.874 -6585.487)" fill="#d9a171"/>
      <path id="Trazado_105657" data-name="Trazado 105657" d="M795.149,6764.34l-33.44,14.852-.8-25.477,33.4-15.788Z" transform="translate(-738.874 -6585.487)" fill="#fafafa" opacity="0.7" style="isolation: isolate"/>
      <path id="Trazado_105658" data-name="Trazado 105658" d="M764.357,6783.347,794.7,6769.2l-9.864-5.729-3.792,6.675-11.134-5.35Z" transform="translate(-740.038 -6594.12)" fill="#d9a171"/>
      <path id="Trazado_105659" data-name="Trazado 105659" d="M788.645,6762.633a1.641,1.641,0,1,1-1.641-1.641h.009a1.631,1.631,0,0,1,1.632,1.631Z" transform="translate(-747.138 -6593.283)" fill="#d9a171"/>
      <path id="Trazado_105660" data-name="Trazado 105660" d="M768.4,6754.893a22.843,22.843,0,0,0-.454-2.781,11.591,11.591,0,0,0-4.228-6.276,11.422,11.422,0,0,0-10.782-1.595,10.719,10.719,0,0,0-2.874,1.548,10.83,10.83,0,0,0-2.4,2.42,11.337,11.337,0,0,0,0,13.415,10.809,10.809,0,0,0,2.4,2.42,10.664,10.664,0,0,0,2.874,1.548,11.484,11.484,0,0,0,5.97.51,11.359,11.359,0,0,0,4.812-2.113,11.565,11.565,0,0,0,4.228-6.268,22.57,22.57,0,0,0,.454-2.78,11.951,11.951,0,0,1-.065,1.668,7.717,7.717,0,0,1-.222,1.215,11.433,11.433,0,0,1-15.278,8.13,11.792,11.792,0,0,1-5.507-18.087,11.247,11.247,0,0,1,2.512-2.5,11.1,11.1,0,0,1,2.994-1.595,11.674,11.674,0,0,1,11.125,1.789,11.506,11.506,0,0,1,4.2,6.49,7.475,7.475,0,0,1,.222,1.214,9.529,9.529,0,0,1,.056,1.632Z" transform="translate(-733.502 -6587.229)" fill="#344154"/>
      <path id="Trazado_105661" data-name="Trazado 105661" d="M743.245,6773.859c.093.1-3.337,3.283-7.648,7.1s-7.889,6.842-7.973,6.75,3.337-3.281,7.648-7.111S743.171,6773.758,743.245,6773.859Z" transform="translate(-727.623 -6597.631)" fill="#344154"/>
    </g>
    <g id="freepik--Character--inject-37" transform="translate(777.141 6574.433)">
      <path id="Trazado_105662" data-name="Trazado 105662" d="M835.975,6627.721a5.667,5.667,0,0,0-7.077,1.708,8.093,8.093,0,0,0-.88,5.13c.179,1.761.622,3.489.662,5.257a6.755,6.755,0,0,1-.377,2.813,3.556,3.556,0,0,1-1.893,2.032c-1.357.543-3.052,0-4.263.841a2.549,2.549,0,0,0-.411,3.582l.027.033a3.156,3.156,0,0,0,3.754.662,3.279,3.279,0,0,0,.252,4.634,4.792,4.792,0,0,0,4.912.662,9.27,9.27,0,0,0,3.919-3.343,20.878,20.878,0,0,0,3.707-12.241,27.985,27.985,0,0,0-2.608-11.817" transform="translate(-817.558 -6614.811)" fill="#344154"/>
      <path id="Trazado_105663" data-name="Trazado 105663" d="M929.912,6682.52c-.761-1.231-6.044,1.715-6.514,1.927s-.788-.451-.357-.623c.616-.245,7.057-3.012,6.316-4.224-.41-.662-1.556.172-1.556.172s-5.832,3.032-6.163,2.442,3.032-2.489,4.21-3.045,1.377-1.324.7-1.642c-.457-.218-4.111,1.41-5.263,1.986s-4.29,2.231-3.4.159.788-3.972.4-4.5a.7.7,0,0,0-1.211.556,8.266,8.266,0,0,1-.483,2.218,5.3,5.3,0,0,1-.841,1.609c-.437.569-.828,1.026-1.172,1.41-3.363,1.178-12.969,4.157-21.946,3.31-.324-.033-.794-.662-1.324-1.662l-12.175,3.919c.457.94.953,1.986,1.49,3.025,6.792,13.571,38.278-.51,38.278-.51v-.033a66.32,66.32,0,0,0,6.991-1.735c3.151-1.132,3.052-1.417,2.86-1.761-.523-.927-5.621,1.788-4.866.57S930.5,6683.466,929.912,6682.52Z" transform="translate(-837.143 -6630.974)" fill="#eb996e"/>
      <path id="Trazado_105664" data-name="Trazado 105664" d="M891.138,6690.925l22.045-8.593,13.6,8.024-24.1,8.606Z" transform="translate(-841.202 -6633.468)" fill="#6595bf"/>
      <path id="Trazado_105665" data-name="Trazado 105665" d="M925.378,6682.6l2.1-.563a53.238,53.238,0,0,1,10.884,8.216l-.616-.364Z" transform="translate(-852.774 -6633.37)" fill="#fafafa"/>
      <path id="Trazado_105666" data-name="Trazado 105666" d="M939.327,6690.251a13.007,13.007,0,0,1-1.589-1.238c-.973-.788-2.33-1.86-3.86-3s-2.946-2.131-3.972-2.827a14.835,14.835,0,0,1-1.668-1.165,9.168,9.168,0,0,1,1.794.96,48.568,48.568,0,0,1,4.058,2.754c1.536,1.145,2.873,2.257,3.813,3.091A10.2,10.2,0,0,1,939.327,6690.251Z" transform="translate(-853.741 -6633.363)" fill="#6595bf"/>
      <path id="Trazado_105667" data-name="Trazado 105667" d="M867.867,6698.89l-.96-19.861-.073-.834,10.519-4.865-3.35-8.2a18.407,18.407,0,0,0-16.882-14.048l-10.056-.986-4.535.986s-8.4,1.45-8.719,13.426a46.84,46.84,0,0,0,4.541,21.119l3.078-1.609a9.766,9.766,0,0,1-1.7,5.462,17.707,17.707,0,0,0-2.708,6.217Z" transform="translate(-821.824 -6622.571)" fill="#d9a171"/>
      <path id="Trazado_105668" data-name="Trazado 105668" d="M850.63,6668c.053,0,.132.979.364,2.556a39.437,39.437,0,0,0,3.7,11.8c.708,1.423,1.2,2.277,1.158,2.3a2.56,2.56,0,0,1-.41-.563c-.252-.37-.583-.927-.967-1.628a32.817,32.817,0,0,1-3.721-11.883c-.093-.795-.139-1.443-.146-1.894A2.4,2.4,0,0,1,850.63,6668Z" transform="translate(-827.499 -6628.625)" fill="#344154"/>
      <path id="Trazado_105669" data-name="Trazado 105669" d="M880.677,6680.26a5.352,5.352,0,0,0,1.847-1.324,3.448,3.448,0,0,0,.808-2.237,2.969,2.969,0,0,0-1.324-2.5,2.81,2.81,0,0,0-2.138-.417l-.165.04-.033-.165c-.324-1.6-.589-2.973-.768-3.973a10.006,10.006,0,0,1-.225-1.569,8.954,8.954,0,0,1,.43,1.523c.232.966.536,2.337.887,3.926l-.205-.126a3.092,3.092,0,0,1,2.4.443,3.265,3.265,0,0,1,1.43,2.794,3.616,3.616,0,0,1-.94,2.4,4.041,4.041,0,0,1-1.423,1A1.417,1.417,0,0,1,880.677,6680.26Z" transform="translate(-836.991 -6628.661)" fill="#344154"/>
      <path id="Trazado_105670" data-name="Trazado 105670" d="M883.772,6694.593a22.126,22.126,0,0,1-.536-4.2c-.179-2.323-.47-4.184-.377-4.2a15.706,15.706,0,0,1,.722,4.172A32.583,32.583,0,0,1,883.772,6694.593Z" transform="translate(-838.398 -6634.772)" fill="#344154"/>
      <path id="Trazado_105671" data-name="Trazado 105671" d="M894.261,6685.313a7.787,7.787,0,0,1-1.463.86c-.927.483-2.224,1.125-3.687,1.78s-2.794,1.205-3.773,1.576a7.529,7.529,0,0,1-1.609.529,8.437,8.437,0,0,1,1.516-.755l3.727-1.668,3.721-1.682A9.264,9.264,0,0,1,894.261,6685.313Z" transform="translate(-838.697 -6634.475)" fill="#344154"/>
      <path id="Trazado_105672" data-name="Trazado 105672" d="M840.374,6669.187a4.955,4.955,0,0,1,0-1.848,5.1,5.1,0,0,1,.318-1.826,4.986,4.986,0,0,1,0,1.854A5.1,5.1,0,0,1,840.374,6669.187Z" transform="translate(-824.015 -6627.783)" fill="#fafafa"/>
      <path id="Trazado_105673" data-name="Trazado 105673" d="M840.482,6676.684a3.46,3.46,0,0,1-1.47-.41,3.572,3.572,0,0,1-1.324-.722,3.413,3.413,0,0,1,1.476.4C839.919,6676.267,840.521,6676.591,840.482,6676.684Z" transform="translate(-823.137 -6631.176)" fill="#fafafa"/>
      <path id="Trazado_105674" data-name="Trazado 105674" d="M847.369,6672.93a2.111,2.111,0,0,1-.139-1.363,2.352,2.352,0,0,1,.424-1.324,4.12,4.12,0,0,1-.079,1.324A4.506,4.506,0,0,1,847.369,6672.93Z" transform="translate(-826.343 -6629.381)" fill="#fafafa"/>
      <path id="Trazado_105675" data-name="Trazado 105675" d="M846.567,6683.223a2.2,2.2,0,0,1,.265-1.549c.364-.808.94-1.271,1-1.2s-.351.6-.662,1.324A9.208,9.208,0,0,1,846.567,6683.223Z" transform="translate(-826.123 -6632.836)" fill="#fafafa"/>
      <path id="Trazado_105676" data-name="Trazado 105676" d="M843.11,6689.439a7.276,7.276,0,0,1-1.463-.827c-.794-.477-1.47-.808-1.43-.9a3.191,3.191,0,0,1,1.6.6C842.653,6688.8,843.19,6689.374,843.11,6689.439Z" transform="translate(-823.991 -6635.286)" fill="#fafafa"/>
      <path id="Trazado_105677" data-name="Trazado 105677" d="M852.413,6689.152a7.886,7.886,0,0,1-.549,1.675,7.643,7.643,0,0,1-.616,1.648,3.3,3.3,0,0,1,.291-1.761A3.4,3.4,0,0,1,852.413,6689.152Z" transform="translate(-827.713 -6635.773)" fill="#fafafa"/>
      <path id="Trazado_105678" data-name="Trazado 105678" d="M843.235,6696.274a2.865,2.865,0,0,1-1.37-.218c-.735-.212-1.324-.457-1.278-.549a2.89,2.89,0,0,1,1.37.218A3.145,3.145,0,0,1,843.235,6696.274Z" transform="translate(-824.116 -6637.917)" fill="#fafafa"/>
      <path id="Trazado_105679" data-name="Trazado 105679" d="M850.29,6660.762a4.321,4.321,0,0,1-1.476.867,4.407,4.407,0,0,1-1.615.557A8.452,8.452,0,0,1,850.29,6660.762Z" transform="translate(-826.351 -6626.177)" fill="#fafafa"/>
      <path id="Trazado_105680" data-name="Trazado 105680" d="M844.556,6653.778c.073.073-.47.662-1.066,1.456a8.259,8.259,0,0,1-1.112,1.417,3.453,3.453,0,0,1,.841-1.628C843.841,6654.209,844.5,6653.705,844.556,6653.778Z" transform="translate(-824.722 -6623.815)" fill="#fafafa"/>
      <path id="Trazado_105681" data-name="Trazado 105681" d="M860.262,6668.348a3.866,3.866,0,0,1-1.6-1.033,3.76,3.76,0,0,1-1.172-1.5,9.643,9.643,0,0,1,1.4,1.245C859.646,6667.752,860.315,6668.262,860.262,6668.348Z" transform="translate(-829.829 -6627.884)" fill="#fafafa"/>
      <path id="Trazado_105682" data-name="Trazado 105682" d="M870.079,6660.09a8.2,8.2,0,0,1-1.086,1.648,7.776,7.776,0,0,1-1.165,1.542,4.347,4.347,0,0,1,.887-1.741C869.357,6660.619,870.013,6660.023,870.079,6660.09Z" transform="translate(-833.324 -6625.949)" fill="#fafafa"/>
      <path id="Trazado_105683" data-name="Trazado 105683" d="M863.5,6677.954a7.759,7.759,0,0,1-3.25,0A7.759,7.759,0,0,1,863.5,6677.954Z" transform="translate(-830.762 -6631.93)" fill="#fafafa"/>
      <path id="Trazado_105684" data-name="Trazado 105684" d="M873.922,6672.747a3.362,3.362,0,0,1-.477-1.774,3.306,3.306,0,0,1,.212-1.821,9.326,9.326,0,0,1,.132,1.795A8.96,8.96,0,0,1,873.922,6672.747Z" transform="translate(-835.207 -6629.013)" fill="#fafafa"/>
      <path id="Trazado_105685" data-name="Trazado 105685" d="M874.875,6685.419a5.165,5.165,0,0,1-1.7-.714.925.925,0,1,1,.165-.3A4.929,4.929,0,0,1,874.875,6685.419Z" transform="translate(-834.611 -6633.927)" fill="#fafafa"/>
      <path id="Trazado_105686" data-name="Trazado 105686" d="M882.006,6680.34c.046.086-.338.377-.854.662s-.98.443-1.026.357.338-.378.861-.662S881.966,6680.254,882.006,6680.34Z" transform="translate(-837.479 -6632.787)" fill="#fafafa"/>
      <path id="Trazado_105687" data-name="Trazado 105687" d="M862.687,6689.463a4.091,4.091,0,0,1,.45-1.986,3.893,3.893,0,0,1,1.106-1.694,12.725,12.725,0,0,1-.788,1.827A11.661,11.661,0,0,1,862.687,6689.463Z" transform="translate(-831.585 -6634.634)" fill="#fafafa"/>
      <path id="Trazado_105688" data-name="Trazado 105688" d="M872.545,6694.161a6.963,6.963,0,0,1-1.437-4.349,21.028,21.028,0,0,1,.662,2.191A21.351,21.351,0,0,1,872.545,6694.161Z" transform="translate(-834.425 -6635.996)" fill="#fafafa"/>
      <path id="Trazado_105689" data-name="Trazado 105689" d="M880.236,6692.778c.079.06-.172.477-.371,1.019s-.285,1.02-.384,1.02-.166-.529.06-1.139S880.183,6692.712,880.236,6692.778Z" transform="translate(-837.231 -6636.996)" fill="#fafafa"/>
      <path id="Trazado_105690" data-name="Trazado 105690" d="M890.073,6684.012a7.846,7.846,0,0,1-3.085,1.105,4.094,4.094,0,0,1,1.483-.715A4.175,4.175,0,0,1,890.073,6684.012Z" transform="translate(-839.799 -6634.035)" fill="#fafafa"/>
      <path id="Trazado_105691" data-name="Trazado 105691" d="M891.108,6675.892a3.088,3.088,0,0,1,.159-1.734,3.054,3.054,0,0,1,.8-1.576,8.8,8.8,0,0,1-.49,1.635A8.392,8.392,0,0,1,891.108,6675.892Z" transform="translate(-841.172 -6630.172)" fill="#fafafa"/>
      <path id="Trazado_105692" data-name="Trazado 105692" d="M886.237,6671.875a4.552,4.552,0,0,1-3.509-.443,10.778,10.778,0,0,1,1.754.232A10.094,10.094,0,0,1,886.237,6671.875Z" transform="translate(-838.359 -6629.784)" fill="#fafafa"/>
      <path id="Trazado_105693" data-name="Trazado 105693" d="M884.408,6664.453a2.78,2.78,0,0,1,.867-1.39c.622-.662,1.284-1.026,1.324-.947s-.483.543-1.079,1.186S884.527,6664.507,884.408,6664.453Z" transform="translate(-838.927 -6626.631)" fill="#fafafa"/>
      <path id="Trazado_105694" data-name="Trazado 105694" d="M877.286,6659.3a7.276,7.276,0,0,1-.708-3.072A7.291,7.291,0,0,1,877.286,6659.3Z" transform="translate(-836.281 -6624.646)" fill="#fafafa"/>
      <path id="Trazado_105695" data-name="Trazado 105695" d="M843.924,6711.093c.053.073-.185.364-.536.662s-.662.45-.748.377.179-.364.53-.662S843.884,6711.02,843.924,6711.093Z" transform="translate(-824.805 -6643.182)" fill="#fafafa"/>
      <path id="Trazado_105696" data-name="Trazado 105696" d="M880.95,6716.944a11.373,11.373,0,0,1-3.972-.179,12.065,12.065,0,0,1,4.018.179Z" transform="translate(-836.416 -6645.075)" fill="#fafafa"/>
      <path id="Trazado_105697" data-name="Trazado 105697" d="M852.518,6692.88a68.736,68.736,0,0,1-6.064,3.76c-3.416,1.993-6.19,3.535-6.236,3.456s2.648-1.761,6.064-3.754S852.465,6692.8,852.518,6692.88Z" transform="translate(-823.992 -6637.032)" fill="#344154"/>
      <path id="Trazado_105698" data-name="Trazado 105698" d="M838.281,6716.861c-.318,0-3.827,10.354-.47,17.213.338.662,1.509,2.238,2.973,4.481,6.951,10.666,24.574,34.551,25.1,38.226.662,4.448,12.016,50.976,12.016,50.976h9.268l-7.792-53.087-11.612-50.36Z" transform="translate(-822.691 -6645.138)" fill="#ffbe9d"/>
      <path id="Trazado_105699" data-name="Trazado 105699" d="M882.84,6815.043a6.021,6.021,0,0,0,1.94-4.767c-.079-3.19-1.946-10.8-1.946-10.8l-2.986,1.827s2.35,6.25,2.463,8.209a5.878,5.878,0,0,1-.278,2.907Z" transform="translate(-837.386 -6673.059)" fill="#eb996e"/>
      <path id="Trazado_105700" data-name="Trazado 105700" d="M837.205,6755.7l9.8,36.411-30.632,31.85,6.441,7.653s37.629-30.851,38.311-35.286c.781-5.064-8.394-41.045-8.394-41.045Z" transform="translate(-815.934 -6658.124)" fill="#ffbe9d"/>
      <path id="Trazado_105701" data-name="Trazado 105701" d="M824.4,6865.009h0l-6.878-8.137-1.814,1.715,2.324,3.157c1.6,2.105,7.117,9.09,8.672,10.09C828.439,6872.945,824.4,6865.009,824.4,6865.009Z" transform="translate(-815.708 -6692.459)" fill="#d9a171"/>
      <path id="Trazado_105702" data-name="Trazado 105702" d="M827.257,6872.522c.066-.06-2.43-3.065-5.574-6.72s-5.76-6.561-5.826-6.5,2.43,3.065,5.574,6.72S827.191,6872.581,827.257,6872.522Z" transform="translate(-815.758 -6693.279)" fill="#344154"/>
      <path id="Trazado_105703" data-name="Trazado 105703" d="M818.18,6860.893c.04,0,.126-.166.225-.464a3.5,3.5,0,0,0,.152-1.245,1.93,1.93,0,0,0-.5-1.178c-.238-.238-.45-.291-.463-.259s.126.166.285.4a2.354,2.354,0,0,1,.351,1.06,6.313,6.313,0,0,1-.06,1.172C818.14,6860.687,818.134,6860.886,818.18,6860.893Z" transform="translate(-816.346 -6692.751)" fill="#344154"/>
      <path id="Trazado_105704" data-name="Trazado 105704" d="M828.531,6869.993c0,.1-.351.106-.748.1s-.722-.033-.735-.126.311-.231.742-.225S828.551,6869.9,828.531,6869.993Z" transform="translate(-819.54 -6696.809)" fill="#344154"/>
      <path id="Trazado_105705" data-name="Trazado 105705" d="M829.153,6871.173c0,.1-.331.166-.715.159s-.662-.1-.7-.2.311-.166.715-.152S829.16,6871.08,829.153,6871.173Z" transform="translate(-819.772 -6697.227)" fill="#344154"/>
      <path id="Trazado_105706" data-name="Trazado 105706" d="M829.762,6872.227c0,.1-.245.179-.543.226s-.556.039-.583-.054.205-.238.53-.284S829.762,6872.134,829.762,6872.227Z" transform="translate(-820.077 -6697.604)" fill="#344154"/>
      <path id="Trazado_105707" data-name="Trazado 105707" d="M829.141,6869.063a2.359,2.359,0,0,1,.483-.993,3.317,3.317,0,0,1,.861-.874,2.591,2.591,0,0,1,.662-.331,1.572,1.572,0,0,1,.417-.073.585.585,0,0,1,.311,1.1,3.753,3.753,0,0,1-.616.391,6.637,6.637,0,0,1-1.112.47,2.6,2.6,0,0,1-1.079.212,5.232,5.232,0,0,1,.993-.443A9.22,9.22,0,0,0,831.1,6868a5.241,5.241,0,0,0,.549-.371c.159-.126.205-.331.126-.417a.538.538,0,0,0-.53,0,2.529,2.529,0,0,0-.589.271,3.768,3.768,0,0,0-.834.762C829.412,6868.732,829.187,6869.089,829.141,6869.063Z" transform="translate(-820.223 -6695.812)" fill="#344154"/>
      <path id="Trazado_105708" data-name="Trazado 105708" d="M829.288,6869.789a2.5,2.5,0,0,1,1.086-.258,4.665,4.665,0,0,1,1.231.04,3.113,3.113,0,0,1,.715.205,1.258,1.258,0,0,1,.364.2.5.5,0,0,1,.172.205.365.365,0,0,1,0,.331,1.019,1.019,0,0,1-.775.45,2.078,2.078,0,0,1-.761,0,4.716,4.716,0,0,1-1.165-.4c-.662-.3-.9-.7-.861-.722a8.61,8.61,0,0,0,.96.5,6.646,6.646,0,0,0,1.119.318,2.387,2.387,0,0,0,.662,0,.814.814,0,0,0,.516-.258c.066,0-.146-.212-.358-.285a3.517,3.517,0,0,0-.662-.205,5.4,5.4,0,0,0-1.159-.106A6.155,6.155,0,0,1,829.288,6869.789Z" transform="translate(-820.298 -6696.729)" fill="#344154"/>
      <path id="Trazado_105709" data-name="Trazado 105709" d="M825.2,6864.842a25.084,25.084,0,0,1-3.621-3.8,27.851,27.851,0,0,1-3.118-4.171,40.724,40.724,0,0,1,3.456,3.919A45.653,45.653,0,0,1,825.2,6864.842Z" transform="translate(-816.635 -6692.458)" fill="#344154"/>
      <path id="Trazado_105710" data-name="Trazado 105710" d="M908.666,6884.328h0l-9.758-.106.113,3.065h.662c2.833.046,14.406.04,16.272-.562C918.014,6886.063,908.666,6884.328,908.666,6884.328Z" transform="translate(-843.828 -6701.702)" fill="#d9a171"/>
      <path id="Trazado_105711" data-name="Trazado 105711" d="M916.221,6887.283c0-.093-3.84,0-8.567.192s-8.547.437-8.547.522,3.84,0,8.567-.191S916.221,6887.369,916.221,6887.283Z" transform="translate(-843.896 -6702.725)" fill="#344154"/>
      <path id="Trazado_105712" data-name="Trazado 105712" d="M902.219,6887.274c.04-.033-.053-.205-.245-.471a3.414,3.414,0,0,0-.94-.887,2.191,2.191,0,0,0-1.324-.338c-.358.033-.543.172-.523.205a2.346,2.346,0,0,0,.53,0,2.568,2.568,0,0,1,1.125.378,5.791,5.791,0,0,1,.94.768C902.021,6887.175,902.18,6887.3,902.219,6887.274Z" transform="translate(-843.922 -6702.16)" fill="#344154"/>
      <path id="Trazado_105713" data-name="Trazado 105713" d="M914.217,6884.578c.066.08-.146.337-.41.662s-.5.549-.6.5,0-.391.311-.728S914.157,6884.531,914.217,6884.578Z" transform="translate(-848.65 -6701.82)" fill="#344154"/>
      <path id="Trazado_105714" data-name="Trazado 105714" d="M915.6,6884.865c.073.066-.079.357-.338.662s-.543.483-.629.43.066-.344.344-.662S915.529,6884.8,915.6,6884.865Z" transform="translate(-849.135 -6701.915)" fill="#344154"/>
      <path id="Trazado_105715" data-name="Trazado 105715" d="M916.937,6885.136c.086.053,0,.3-.166.563s-.338.464-.43.424-.066-.312.106-.6S916.858,6885.076,916.937,6885.136Z" transform="translate(-849.702 -6702.007)" fill="#344154"/>
      <path id="Trazado_105716" data-name="Trazado 105716" d="M914.408,6882.954a2.468,2.468,0,0,1-.51-.993,3.367,3.367,0,0,1-.172-1.219,2.506,2.506,0,0,1,.166-.728,1.429,1.429,0,0,1,.212-.371.634.634,0,0,1,1.139.41,3.95,3.95,0,0,1-.079.729,6.721,6.721,0,0,1-.338,1.165,2.591,2.591,0,0,1-.536.979,4.264,4.264,0,0,1,.285-1.059,8.978,8.978,0,0,0,.252-1.132,4.509,4.509,0,0,0,.053-.662c0-.2-.146-.364-.271-.352s-.278.18-.364.4a2.208,2.208,0,0,0-.165.629,3.358,3.358,0,0,0,.086,1.126A5.1,5.1,0,0,1,914.408,6882.954Z" transform="translate(-848.835 -6700.07)" fill="#344154"/>
      <path id="Trazado_105717" data-name="Trazado 105717" d="M914.588,6883.208a2.449,2.449,0,0,1,.5-1.02,4.834,4.834,0,0,1,.821-.92,3.837,3.837,0,0,1,.662-.43,1.71,1.71,0,0,1,.417-.166.573.573,0,0,1,.285,0,.413.413,0,0,1,.285.2.988.988,0,0,1-.132.894,2.464,2.464,0,0,1-.523.582,5.624,5.624,0,0,1-1.112.662,1.734,1.734,0,0,1-1.178.232,7.692,7.692,0,0,0,1.059-.45,6.137,6.137,0,0,0,1-.662,2.1,2.1,0,0,0,.43-.51.741.741,0,0,0,.126-.562c0-.066-.278,0-.477.106a3.406,3.406,0,0,0-.6.377,5.8,5.8,0,0,0-.861.841A6.617,6.617,0,0,1,914.588,6883.208Z" transform="translate(-849.128 -6700.497)" fill="#344154"/>
      <path id="Trazado_105718" data-name="Trazado 105718" d="M908.512,6884.312a24.558,24.558,0,0,1-4.687.245,26.877,26.877,0,0,1-4.687-.265,37.63,37.63,0,0,1,4.687-.08A45.489,45.489,0,0,1,908.512,6884.312Z" transform="translate(-843.906 -6701.686)" fill="#344154"/>
      <path id="Trazado_105719" data-name="Trazado 105719" d="M863.792,6638.06c-.046-2.085-.073-3.972-.073-3.972s4.085-.431,4.33-4.476,0-13.386,0-13.386l-7.435-3.635-8.176,6.2.477,19.5a5.441,5.441,0,0,0,5.435,5.3h0a5.442,5.442,0,0,0,5.442-5.441C863.792,6638.113,863.792,6638.087,863.792,6638.06Z" transform="translate(-828.122 -6609.897)" fill="#ffbe9d"/>
      <path id="Trazado_105720" data-name="Trazado 105720" d="M849.936,6620.557s6.68-.662,7.858-6.687l7.282,6.687a7.812,7.812,0,0,0-1.814-8.653c-4.018-4.17-6.772-3.31-8.348-3.31a12.959,12.959,0,0,0-11.1,10.017c-.159.616-.291,2.132-.391,2.82Z" transform="translate(-825.077 -6608.521)" fill="#344154"/>
      <path id="Trazado_105721" data-name="Trazado 105721" d="M874.151,6628.139a.516.516,0,1,1-.516-.517h0A.517.517,0,0,1,874.151,6628.139Z" transform="translate(-835.111 -6614.977)" fill="#344154"/>
      <path id="Trazado_105722" data-name="Trazado 105722" d="M874.389,6627.26c-.066.066-.45-.259-1.006-.291s-.98.238-1.033.165.04-.159.218-.285a1.4,1.4,0,0,1,.834-.218,1.381,1.381,0,0,1,.8.317C874.37,6627.074,874.423,6627.207,874.389,6627.26Z" transform="translate(-834.847 -6614.641)" fill="#344154"/>
      <path id="Trazado_105723" data-name="Trazado 105723" d="M865.061,6628.139a.516.516,0,1,1-.516-.517h0A.516.516,0,0,1,865.061,6628.139Z" transform="translate(-832.039 -6614.977)" fill="#344154"/>
      <path id="Trazado_105724" data-name="Trazado 105724" d="M865.045,6627.26c-.066.066-.45-.259-1.006-.291s-.98.238-1.039.165.046-.159.225-.285a1.385,1.385,0,0,1,1.635.1C865.025,6627.074,865.078,6627.207,865.045,6627.26Z" transform="translate(-831.686 -6614.641)" fill="#344154"/>
      <path id="Trazado_105725" data-name="Trazado 105725" d="M869.084,6632.178a3.947,3.947,0,0,1,.914-.113c.139,0,.278,0,.311-.132a.82.82,0,0,0-.079-.45l-.384-1.159c-.265-.821-.49-1.569-.662-2.112a4.074,4.074,0,0,1-.205-.9,3.657,3.657,0,0,1,.4.841c.192.536.444,1.278.708,2.1.132.4.252.794.371,1.159a.909.909,0,0,1,.053.583.331.331,0,0,1-.238.205,1.024,1.024,0,0,1-.238,0A3.6,3.6,0,0,1,869.084,6632.178Z" transform="translate(-833.712 -6614.872)" fill="#344154"/>
      <path id="Trazado_105726" data-name="Trazado 105726" d="M866.334,6635.462a21.936,21.936,0,0,0,2.694.927,1.541,1.541,0,0,1-1.847.53C865.99,6636.415,866.334,6635.462,866.334,6635.462Z" transform="translate(-832.803 -6617.626)" fill="#fafafa"/>
      <path id="Trazado_105727" data-name="Trazado 105727" d="M866.73,6644.179a10.081,10.081,0,0,1-5.362-1.807,5.447,5.447,0,0,0,5.362,2.813Z" transform="translate(-831.14 -6619.962)" fill="#eb996e"/>
      <path id="Trazado_105728" data-name="Trazado 105728" d="M864.828,6615.777s1.483,2.866.847,5.024l6.494,1.675S873.646,6614.261,864.828,6615.777Z" transform="translate(-832.31 -6610.911)" fill="#344154"/>
      <path id="Trazado_105729" data-name="Trazado 105729" d="M843.348,6627.572s-1.145,8.692,6.733,10.374l-.192-11.255Z" transform="translate(-825.03 -6614.662)" fill="#344154"/>
      <path id="Trazado_105730" data-name="Trazado 105730" d="M865.7,6611.86a4.651,4.651,0,0,1,1.986.238,8.967,8.967,0,0,1,6.382,6.853,4.636,4.636,0,0,1,.093,1.986c-.079,0-.086-.769-.4-1.94a9.481,9.481,0,0,0-6.157-6.62C866.453,6612,865.691,6611.934,865.7,6611.86Z" transform="translate(-832.604 -6609.642)" fill="#344154"/>
      <path id="Trazado_105731" data-name="Trazado 105731" d="M865.286,6626.354a2.968,2.968,0,0,0-.146-.769,3.17,3.17,0,0,0-1.159-1.694,3.065,3.065,0,1,0,0,4.919,3.168,3.168,0,0,0,1.159-1.7c.132-.483.119-.768.146-.761a.9.9,0,0,1,0,.2,2.438,2.438,0,0,1-.066.583,3.2,3.2,0,0,1-2.516,2.423,3.269,3.269,0,1,1,1.37-5.793,3.166,3.166,0,0,1,1.145,1.8,2.467,2.467,0,0,1,.066.582A1.076,1.076,0,0,1,865.286,6626.354Z" transform="translate(-830.279 -6613.443)" fill="#344154"/>
      <path id="Trazado_105732" data-name="Trazado 105732" d="M876.366,6626.358a3.093,3.093,0,0,0-.139-.768,3.172,3.172,0,0,0-1.159-1.7,3.091,3.091,0,0,0-4.326.64l-.017.022a3.092,3.092,0,0,0,4.363,4.271,3.168,3.168,0,0,0,1.159-1.7c.126-.483.112-.768.139-.761a.658.658,0,0,1,0,.2,2.432,2.432,0,0,1-.066.583,3.25,3.25,0,1,1-5.76-2.728,3.164,3.164,0,0,1,1.529-1.133,3.2,3.2,0,0,1,1.715-.132,3.248,3.248,0,0,1,1.364.622,3.184,3.184,0,0,1,1.152,1.8,2.469,2.469,0,0,1,.066.583A.707.707,0,0,1,876.366,6626.358Z" transform="translate(-834.03 -6613.449)" fill="#344154"/>
      <path id="Trazado_105733" data-name="Trazado 105733" d="M869.483,6628.114c0,.06-.265.112-.583.112s-.583-.053-.583-.112.265-.112.583-.112S869.483,6628.048,869.483,6628.114Z" transform="translate(-833.489 -6615.105)" fill="#344154"/>
      <path id="Trazado_105734" data-name="Trazado 105734" d="M856.329,6629.022a18.422,18.422,0,0,1-2.794.661,17.842,17.842,0,0,1-2.827.444,18.188,18.188,0,0,1,2.787-.662A18.757,18.757,0,0,1,856.329,6629.022Z" transform="translate(-827.537 -6615.45)" fill="#344154"/>
      <path id="Trazado_105735" data-name="Trazado 105735" d="M851.2,6634.267a1.687,1.687,0,0,1-2.112-.285,2.48,2.48,0,0,1-.543-2.178,1.858,1.858,0,0,1,.662-1.191,1.921,1.921,0,0,1,1.814.112Z" transform="translate(-826.785 -6615.928)" fill="#ffbe9d"/>
      <path id="Trazado_105736" data-name="Trazado 105736" d="M850.587,6634.032c0-.053-.205-.086-.444-.258a1.071,1.071,0,0,1-.443-.959,1.039,1.039,0,0,1,.616-.861c.265-.132.477-.126.477-.179s-.205-.146-.563-.053a1.224,1.224,0,0,0-.212,2.264C850.356,6634.138,850.587,6634.079,850.587,6634.032Z" transform="translate(-827.079 -6616.349)" fill="#eb996e"/>
      <path id="Trazado_105737" data-name="Trazado 105737" d="M837.427,6713.772s-7.1,7.375-5.641,23.171,3.383,36.947,3.383,36.947,9.136-8.242,13.777-4.72,9.268,6.4,15.326,2.582c8.262-5.23,17.318-1.774,17.318-1.774l-14.564-52.227Z" transform="translate(-821.075 -6644.094)" fill="#344154"/>
      <path id="Trazado_105738" data-name="Trazado 105738" d="M850.373,6716.582a3.554,3.554,0,0,1-.3,1.562,6.651,6.651,0,0,1-2.3,3.065,6.573,6.573,0,0,1-3.615,1.245,3.475,3.475,0,0,1-1.576-.2c0-.06.6.053,1.556-.04a6.838,6.838,0,0,0,5.707-4.165C850.228,6717.191,850.314,6716.582,850.373,6716.582Z" transform="translate(-824.793 -6645.043)" fill="#455a64"/>
      <path id="Trazado_105739" data-name="Trazado 105739" d="M844.744,6716.11c-.093-.033-.046-.4.106-.84s.338-.755.43-.729.04.411-.106.841S844.83,6716.137,844.744,6716.11Z" transform="translate(-825.505 -6644.353)" fill="#455a64"/>
      <path id="Trazado_105740" data-name="Trazado 105740" d="M842.387,6724.72a3.831,3.831,0,0,1,.172-1.608,3.877,3.877,0,0,1,.51-1.529,3.934,3.934,0,0,1-.172,1.6A3.865,3.865,0,0,1,842.387,6724.72Z" transform="translate(-824.718 -6646.733)" fill="#455a64"/>
      <path id="Trazado_105741" data-name="Trazado 105741" d="M841.142,6734.319a7.543,7.543,0,0,1,.318-3.2,3.973,3.973,0,0,1,0,1.615A3.811,3.811,0,0,1,841.142,6734.319Z" transform="translate(-824.287 -6649.958)" fill="#455a64"/>
      <path id="Trazado_105742" data-name="Trazado 105742" d="M840.832,6744.02a3.866,3.866,0,0,1-.166-1.609,3.8,3.8,0,0,1,.172-1.608,3.975,3.975,0,0,1,.172,1.608A3.771,3.771,0,0,1,840.832,6744.02Z" transform="translate(-824.136 -6653.229)" fill="#455a64"/>
      <path id="Trazado_105743" data-name="Trazado 105743" d="M841.341,6753.726a3.965,3.965,0,0,1-.3-1.589,3.778,3.778,0,0,1,.04-1.615,3.864,3.864,0,0,1,.3,1.583A3.97,3.97,0,0,1,841.341,6753.726Z" transform="translate(-824.247 -6656.514)" fill="#455a64"/>
      <path id="Trazado_105744" data-name="Trazado 105744" d="M842.5,6763.373a3.819,3.819,0,0,1-.4-1.575,3.875,3.875,0,0,1-.053-1.615,3.975,3.975,0,0,1,.4,1.568A4.069,4.069,0,0,1,842.5,6763.373Z" transform="translate(-824.59 -6659.78)" fill="#455a64"/>
      <path id="Trazado_105745" data-name="Trazado 105745" d="M844.19,6772.973a3.78,3.78,0,0,1-.49-1.542,3.974,3.974,0,0,1-.146-1.609,7.747,7.747,0,0,1,.662,3.151Z" transform="translate(-825.111 -6663.037)" fill="#455a64"/>
      <path id="Trazado_105746" data-name="Trazado 105746" d="M846.336,6782.407a3.885,3.885,0,0,1-.543-1.522,3.841,3.841,0,0,1-.212-1.6,3.9,3.9,0,0,1,.543,1.522A3.846,3.846,0,0,1,846.336,6782.407Z" transform="translate(-825.801 -6666.235)" fill="#455a64"/>
      <path id="Trazado_105747" data-name="Trazado 105747" d="M848.288,6790.313c-.093,0-.258-.318-.371-.761s-.132-.821-.04-.841.258.318.371.761S848.381,6790.293,848.288,6790.313Z" transform="translate(-826.561 -6669.421)" fill="#455a64"/>
      <path id="Trazado_105748" data-name="Trazado 105748" d="M872.939,6731.64a12.38,12.38,0,0,1-.265-1.986c-.126-1.23-.291-2.926-.424-4.806s-.2-3.582-.2-4.819a10.776,10.776,0,0,1,.093-1.986,12.1,12.1,0,0,1,.152,1.986c.06,1.23.159,2.926.3,4.806s.258,3.575.318,4.807A10.958,10.958,0,0,1,872.939,6731.64Z" transform="translate(-834.747 -6645.537)" fill="#455a64"/>
      <path id="Trazado_105749" data-name="Trazado 105749" d="M874.5,6718.512a12.494,12.494,0,0,1,.232,2.052c.106,1.265.219,3.013.324,4.952.046.96.093,1.88.132,2.728a5.307,5.307,0,0,1-.245,2.258,2.232,2.232,0,0,1-1,1.171c-.331.166-.543.159-.543.139s.192-.066.477-.251a2.324,2.324,0,0,0,.841-1.146,5.537,5.537,0,0,0,.152-2.151c-.046-.854-.106-1.768-.159-2.728-.106-1.94-.185-3.694-.219-4.958A12.441,12.441,0,0,1,874.5,6718.512Z" transform="translate(-835.206 -6645.696)" fill="#455a64"/>
      <path id="Trazado_105750" data-name="Trazado 105750" d="M885.09,6725.255a2.348,2.348,0,0,1-1.139-.278,5.886,5.886,0,0,1-2.251-1.715,5.945,5.945,0,0,1-1.2-2.568,2.5,2.5,0,0,1,0-1.172,9.72,9.72,0,0,1,.271,1.119,6.618,6.618,0,0,0,3.31,4.118C884.427,6724.908,884.763,6725.074,885.09,6725.255Z" transform="translate(-837.584 -6646.037)" fill="#455a64"/>
      <path id="Trazado_105751" data-name="Trazado 105751" d="M882.88,6792.4a2.979,2.979,0,0,1-.5-.06l-1.423-.218a43.427,43.427,0,0,0-5.3-.457,25.35,25.35,0,0,0-7.719.98c-1.41.4-2.8,1.079-4.31,1.675a11.672,11.672,0,0,1-2.39.662,6.066,6.066,0,0,1-2.575-.133,20.593,20.593,0,0,1-4.462-2.271,14.334,14.334,0,0,0-4.3-1.529,15.913,15.913,0,0,0-4.144-.211,17.646,17.646,0,0,0-3.548.721,15.509,15.509,0,0,0-4.634,2.443,11.2,11.2,0,0,0-1.092.927,3.254,3.254,0,0,1-.384.331,2.393,2.393,0,0,1,.338-.377,9.083,9.083,0,0,1,1.053-.986,14.97,14.97,0,0,1,4.634-2.568,17.432,17.432,0,0,1,3.595-.775,16.452,16.452,0,0,1,4.224.179,14.488,14.488,0,0,1,4.409,1.556,21.053,21.053,0,0,0,4.389,2.23,7.625,7.625,0,0,0,4.753-.536c1.443-.57,2.9-1.258,4.343-1.662a24.991,24.991,0,0,1,7.812-.92,38.42,38.42,0,0,1,5.3.569c.616.112,1.092.205,1.417.285A2.132,2.132,0,0,1,882.88,6792.4Z" transform="translate(-822.603 -6670.022)" fill="#455a64"/>
      <path id="Trazado_105752" data-name="Trazado 105752" d="M888.637,6698.9c1.582-.344,4.594-1.582,4.634-1.986.126-.754-2.648.133-3.423.285a32.892,32.892,0,0,1-4.906-.6h0c-1.013-.562-1.986-1.152-2.794-1.629a2.687,2.687,0,0,1-.662-2.794,3.879,3.879,0,0,0,.219-2.521.708.708,0,0,0-1.284.357,8.2,8.2,0,0,1-.828,2.118,5.586,5.586,0,0,1-1.119,1.489c-.5.471-.953.854-1.324,1.172-3.509.629-13.465,2.053-22.2-.179a6.888,6.888,0,0,1-2.747-2.211l-9.831,5.918c4.561,14.473,37.735,5.124,37.735,5.124l9.089-3.078s5.058-1.237,5.058-1.668C894.277,6698.021,890.536,6698.875,888.637,6698.9Z" transform="translate(-824.719 -6635.843)" fill="#ffbe9d"/>
      <path id="Trazado_105753" data-name="Trazado 105753" d="M863.992,6651.218a1.983,1.983,0,0,1,0,.662,6.127,6.127,0,0,1-.556,1.821,5.846,5.846,0,0,1-1.787,2.178,5.011,5.011,0,0,1-3.31.967,5.107,5.107,0,0,1-3.171-1.324,6,6,0,0,1-1.556-2.357,6.183,6.183,0,0,1-.377-1.86,2.1,2.1,0,0,1,.046-.662,9.9,9.9,0,0,0,.563,2.463,6,6,0,0,0,1.536,2.212,4.9,4.9,0,0,0,2.986,1.244,4.835,4.835,0,0,0,3.1-.874,5.907,5.907,0,0,0,1.754-2.039A9.144,9.144,0,0,0,863.992,6651.218Z" transform="translate(-828.388 -6622.757)" fill="#344154"/>
    </g>
  </g>
</svg>
