<svg xmlns="http://www.w3.org/2000/svg" width="352.111" height="350.57" viewBox="0 0 352.111 350.57">
  <g id="Grupo_66124" data-name="Grupo 66124" transform="translate(-1491.622 -6659.461)">
    <g id="freepik--background-simple--inject-2" transform="translate(1491.622 6670.524)">
      <path id="Trazado_105754" data-name="Trazado 105754" d="M1823.36,6950.351c17.442-24.513,22.495-58.5,19.612-87.331-1.426-14.286-4.218-29.262-12.655-41.234-12.291-17.449-32.577-26.614-48.039-40.7-22.76-20.727-32.388-50.991-51.749-74.35-25.271-30.431-65.087-34.277-102.338-32.479-27.995,1.374-73,1.9-79.585,37.031-6.828,36.416,6.07,70.557-21.243,88.006s-41.727,53.866-33.382,84.972c7.041,26.235,40.786,30.878,47.8,57.659,8.345,31.865,56.9,74.35,103.938,71.315s74.35-34.14,94.076-32.623c22.859,1.753,47.212,1.684,66.43-12.6A78.858,78.858,0,0,0,1823.36,6950.351Z" transform="translate(-1491.622 -6673.885)" fill="#d9a171"/>
      <path id="Trazado_105755" data-name="Trazado 105755" d="M1823.36,6950.351c17.442-24.513,22.495-58.5,19.612-87.331-1.426-14.286-4.218-29.262-12.655-41.234-12.291-17.449-32.577-26.614-48.039-40.7-22.76-20.727-32.388-50.991-51.749-74.35-25.271-30.431-65.087-34.277-102.338-32.479-27.995,1.374-73,1.9-79.585,37.031-6.828,36.416,6.07,70.557-21.243,88.006s-41.727,53.866-33.382,84.972c7.041,26.235,40.786,30.878,47.8,57.659,8.345,31.865,56.9,74.35,103.938,71.315s74.35-34.14,94.076-32.623c22.859,1.753,47.212,1.684,66.43-12.6A78.858,78.858,0,0,0,1823.36,6950.351Z" transform="translate(-1491.622 -6673.885)" fill="#fff" opacity="0.7" style="isolation: isolate"/>
    </g>
    <g id="freepik--Plant--inject-2" transform="translate(1699.684 6728.72)">
      <path id="Trazado_105756" data-name="Trazado 105756" d="M1878.28,6768.679s-14.483-8.05-15.553,10.188-3.755,136.759-3.755,136.759" transform="translate(-1788.335 -6754.53)" fill="none" stroke="#263238" stroke-linecap="round" stroke-linejoin="round" stroke-width="2"/>
      <path id="Trazado_105757" data-name="Trazado 105757" d="M1854.012,6784.791s11.813,26.281,6.449,133.527" transform="translate(-1787.138 -6758.845)" fill="none" stroke="#263238" stroke-linecap="round" stroke-linejoin="round" stroke-width="2"/>
      <path id="Trazado_105758" data-name="Trazado 105758" d="M1855.86,6768.893s-5.538,3.551-8.687-.508,2.132-11.5-2.526-14.687-12.7,1.676-12.7,1.676,6.2,1.821,5.994,5.2-3.179,4.658-3.573,3.179-3.353-8.914-8.383-5.818a12.477,12.477,0,0,0-5.8,7.89s11.722-1.244,12.412,3.156-4.795-.759-9.628-1.055-9.226.425-8.914,3.354a38.157,38.157,0,0,1-.455,7.724,14.375,14.375,0,0,1,9.4-3.323c5.311.311,5.114,3.694.281,3.414s-8.975,4.3-8.975,4.3,4.4,7.525,10,11.243,7.587,2.39,8.262-.478-.85-10.228,2.526-10.03-5.591,12.754-1.275,13.489,7.776-.508,8.914-3.346l1.138-2.838s-1.517-7.358-.85-10.227,1.449.084,2.215,3.521,1.244,11.706,2.724,11.3,6.191-6.418,7.3-8.77-6.214-9.574-6.13-11.023,5.736,1.3,6.616,2.814a36.882,36.882,0,0,1,1.73,3.49s3.528-2.216,3.444-9S1855.86,6768.893,1855.86,6768.893Z" transform="translate(-1777.386 -6751.08)" fill="#d9a171"/>
      <path id="Trazado_105759" data-name="Trazado 105759" d="M1855.86,6768.893s-5.538,3.551-8.687-.508,2.132-11.5-2.526-14.687-12.7,1.676-12.7,1.676,6.2,1.821,5.994,5.2-3.179,4.658-3.573,3.179-3.353-8.914-8.383-5.818a12.477,12.477,0,0,0-5.8,7.89s11.722-1.244,12.412,3.156-4.795-.759-9.628-1.055-9.226.425-8.914,3.354a38.157,38.157,0,0,1-.455,7.724,14.375,14.375,0,0,1,9.4-3.323c5.311.311,5.114,3.694.281,3.414s-8.975,4.3-8.975,4.3,4.4,7.525,10,11.243,7.587,2.39,8.262-.478-.85-10.228,2.526-10.03-5.591,12.754-1.275,13.489,7.776-.508,8.914-3.346l1.138-2.838s-1.517-7.358-.85-10.227,1.449.084,2.215,3.521,1.244,11.706,2.724,11.3,6.191-6.418,7.3-8.77-6.214-9.574-6.13-11.023,5.736,1.3,6.616,2.814a36.882,36.882,0,0,1,1.73,3.49s3.528-2.216,3.444-9S1855.86,6768.893,1855.86,6768.893Z" transform="translate(-1777.386 -6751.08)" fill="#344154" opacity="0.3" style="isolation: isolate"/>
      <path id="Trazado_105760" data-name="Trazado 105760" d="M1832.292,6790.792c3.611-4.461,8.937-10.507,13.4-13.391" transform="translate(-1781.896 -6757.061)" fill="none" stroke="#263238" stroke-linecap="round" stroke-linejoin="round" stroke-width="1"/>
      <path id="Trazado_105761" data-name="Trazado 105761" d="M1826.732,6801.156s.926-1.29,2.428-3.224" transform="translate(-1780.555 -6762.016)" fill="none" stroke="#263238" stroke-linecap="round" stroke-linejoin="round" stroke-width="1"/>
      <path id="Trazado_105762" data-name="Trazado 105762" d="M1853.052,6778.861s5.371,7.586,6.365,15.4" transform="translate(-1786.906 -6757.414)" fill="none" stroke="#263238" stroke-linecap="round" stroke-linejoin="round" stroke-width="1"/>
      <path id="Trazado_105763" data-name="Trazado 105763" d="M1845.042,6784.774s1.517-.88.941,8.778" transform="translate(-1784.973 -6758.835)" fill="none" stroke="#263238" stroke-linecap="round" stroke-linejoin="round" stroke-width="1"/>
      <path id="Trazado_105764" data-name="Trazado 105764" d="M1850.212,6770.357s3.035-2.724,1.449-8.156" transform="translate(-1786.221 -6753.394)" fill="none" stroke="#263238" stroke-linecap="round" stroke-linejoin="round" stroke-width="1"/>
      <line id="Línea_262" data-name="Línea 262" x1="2.185" y1="4.006" transform="translate(57.656 17.555)" fill="none" stroke="#263238" stroke-linecap="round" stroke-linejoin="round" stroke-width="1"/>
      <path id="Trazado_105765" data-name="Trazado 105765" d="M1835.136,6782.649s-6.957-5.258-11.3-5.508" transform="translate(-1779.855 -6756.999)" fill="none" stroke="#263238" stroke-linecap="round" stroke-linejoin="round" stroke-width="1"/>
      <path id="Trazado_105766" data-name="Trazado 105766" d="M1885.348,6754.074s-.22,7.966-6.434,8.346-10.06-9.977-16.425-7.481-6.972,13.854-6.972,13.854,6.069-4.962,9.286-2.458,2.5,6.366.759,5.751-11.213-2.724-11.539,4.423a15.1,15.1,0,0,0,3.953,11.183s6.729-12.572,11.615-10.28-4.036,4.286-7.587,8.922-5.865,9.537-2.724,11.213a45.983,45.983,0,0,1,7.427,5.72s-.85-6.57,3.08-11.676,7.185-2.594,3.6,2.041-1.8,11.926-1.8,11.926,10.538.759,18.079-2.336,7.587-5.994,5.151-8.6-10.819-6.115-8.345-9.37,8.952,14.3,12.632,10.478,4.795-8.133,2.731-11.213l-2.071-3.035s-8.391-3.5-10.819-6.115,1.077-1.4,5.038.182,12.564,6.729,13.178,4.977-2.208-10.576-3.793-13.292-13.823-.3-15.219-1.365,5.22-4.856,7.329-4.711a45.525,45.525,0,0,1,4.681.645s.182-5.03-6.676-9.574S1885.348,6754.074,1885.348,6754.074Z" transform="translate(-1787.133 -6750.592)" fill="#d9a171"/>
      <path id="Trazado_105767" data-name="Trazado 105767" d="M1885.348,6754.074s-.22,7.966-6.434,8.346-10.06-9.977-16.425-7.481-6.972,13.854-6.972,13.854,6.069-4.962,9.286-2.458,2.5,6.366.759,5.751-11.213-2.724-11.539,4.423a15.1,15.1,0,0,0,3.953,11.183s6.729-12.572,11.615-10.28-4.036,4.286-7.587,8.922-5.865,9.537-2.724,11.213a45.983,45.983,0,0,1,7.427,5.72s-.85-6.57,3.08-11.676,7.185-2.594,3.6,2.041-1.8,11.926-1.8,11.926,10.538.759,18.079-2.336,7.587-5.994,5.151-8.6-10.819-6.115-8.345-9.37,8.952,14.3,12.632,10.478,4.795-8.133,2.731-11.213l-2.071-3.035s-8.391-3.5-10.819-6.115,1.077-1.4,5.038.182,12.564,6.729,13.178,4.977-2.208-10.576-3.793-13.292-13.823-.3-15.219-1.365,5.22-4.856,7.329-4.711a45.525,45.525,0,0,1,4.681.645s.182-5.03-6.676-9.574S1885.348,6754.074,1885.348,6754.074Z" transform="translate(-1787.133 -6750.592)" fill="#344154" opacity="0.2" style="isolation: isolate"/>
      <path id="Trazado_105768" data-name="Trazado 105768" d="M1889.739,6799.4c-2.01-6.661-4.431-16.107-4.279-22.541" transform="translate(-1794.726 -6756.931)" fill="none" stroke="#263238" stroke-linecap="round" stroke-linejoin="round" stroke-width="1"/>
      <path id="Trazado_105769" data-name="Trazado 105769" d="M1894.012,6815.509s-.66-1.806-1.57-4.628" transform="translate(-1796.412 -6765.141)" fill="none" stroke="#263238" stroke-linecap="round" stroke-linejoin="round" stroke-width="1"/>
      <path id="Trazado_105770" data-name="Trazado 105770" d="M1889.042,6774.741s11.251-.2,19.726,4.127" transform="translate(-1795.592 -6756.419)" fill="none" stroke="#263238" stroke-linecap="round" stroke-linejoin="round" stroke-width="1"/>
      <path id="Trazado_105771" data-name="Trazado 105771" d="M1889.5,6786.709s.144-2.109,9.43,5.045" transform="translate(-1795.703 -6759.238)" fill="none" stroke="#263238" stroke-linecap="round" stroke-linejoin="round" stroke-width="1"/>
      <path id="Trazado_105772" data-name="Trazado 105772" d="M1878.9,6771.331s-.637-4.931-7.169-7.01" transform="translate(-1791.415 -6753.905)" fill="none" stroke="#263238" stroke-linecap="round" stroke-linejoin="round" stroke-width="1"/>
      <line id="Línea_263" data-name="Línea 263" x1="5.5" y1="0.546" transform="translate(83.77 24.171)" fill="none" stroke="#263238" stroke-linecap="round" stroke-linejoin="round" stroke-width="1"/>
      <path id="Trazado_105773" data-name="Trazado 105773" d="M1880.586,6792.912s-10.007,3.383-13.224,7.586" transform="translate(-1790.36 -6760.805)" fill="none" stroke="#263238" stroke-linecap="round" stroke-linejoin="round" stroke-width="1"/>
      <path id="Trazado_105774" data-name="Trazado 105774" d="M1807.372,6825.081s31.644,20.917,31.106,101.9" transform="translate(-1775.883 -6768.567)" fill="none" stroke="#263238" stroke-linecap="round" stroke-linejoin="round" stroke-width="2"/>
      <path id="Trazado_105775" data-name="Trazado 105775" d="M1846.555,6816.618s-1.009,9.173-8.216,9.029-10.667-12.458-18.246-10.182-9.354,15.325-9.354,15.325,7.435-5.151,10.948-1.958,2.276,7.587.319,6.707-12.67-4.218-13.732,4.005a17.45,17.45,0,0,0,3.505,13.285s8.945-13.869,14.377-10.766-5.068,4.552-9.635,9.582-7.67,10.439-4.2,12.678,8.027,7.306,8.027,7.306-.387-7.685,4.658-13.186,8.535-2.322,3.968,2.693-3.194,13.6-3.194,13.6,12.086,1.829,21.076-.994,9.309-6.2,6.752-9.445-11.9-8.08-8.7-11.585,8.975,17.336,13.588,13.277,6.3-8.937,4.2-12.677l-2.1-3.74s-9.347-4.84-11.9-8.088,1.373-1.517,5.8.69,13.869,8.945,14.734,6.988-1.517-12.412-3.141-15.7-15.932-1.646-17.45-3.035,6.479-5.106,8.9-4.742a53.515,53.515,0,0,1,5.311,1.191s.69-5.8-6.79-11.684S1846.555,6816.618,1846.555,6816.618Z" transform="translate(-1776.055 -6765.628)" fill="#d9a171"/>
      <path id="Trazado_105776" data-name="Trazado 105776" d="M1846.555,6816.618s-1.009,9.173-8.216,9.029-10.667-12.458-18.246-10.182-9.354,15.325-9.354,15.325,7.435-5.151,10.948-1.958,2.276,7.587.319,6.707-12.67-4.218-13.732,4.005a17.45,17.45,0,0,0,3.505,13.285s8.945-13.869,14.377-10.766-5.068,4.552-9.635,9.582-7.67,10.439-4.2,12.678,8.027,7.306,8.027,7.306-.387-7.685,4.658-13.186,8.535-2.322,3.968,2.693-3.194,13.6-3.194,13.6,12.086,1.829,21.076-.994,9.309-6.2,6.752-9.445-11.9-8.08-8.7-11.585,8.975,17.336,13.588,13.277,6.3-8.937,4.2-12.677l-2.1-3.74s-9.347-4.84-11.9-8.088,1.373-1.517,5.8.69,13.869,8.945,14.734,6.988-1.517-12.412-3.141-15.7-15.932-1.646-17.45-3.035,6.479-5.106,8.9-4.742a53.515,53.515,0,0,1,5.311,1.191s.69-5.8-6.79-11.684S1846.555,6816.618,1846.555,6816.618Z" transform="translate(-1776.055 -6765.628)" fill="#344154" opacity="0.3" style="isolation: isolate"/>
      <path id="Trazado_105777" data-name="Trazado 105777" d="M1848.122,6868.261c-1.692-7.875-3.589-18.967-2.807-26.409" transform="translate(-1784.995 -6772.615)" fill="none" stroke="#263238" stroke-linecap="round" stroke-linejoin="round" stroke-width="1"/>
      <path id="Trazado_105778" data-name="Trazado 105778" d="M1851.6,6887.254s-.592-2.147-1.373-5.492" transform="translate(-1786.224 -6782.247)" fill="none" stroke="#263238" stroke-linecap="round" stroke-linejoin="round" stroke-width="1"/>
      <path id="Trazado_105779" data-name="Trazado 105779" d="M1849.732,6839.742s13,.827,22.4,6.63" transform="translate(-1786.105 -6772.106)" fill="none" stroke="#263238" stroke-linecap="round" stroke-linejoin="round" stroke-width="1"/>
      <path id="Trazado_105780" data-name="Trazado 105780" d="M1849.092,6853.609s.372-2.42,10.4,6.707" transform="translate(-1785.951 -6775.382)" fill="none" stroke="#263238" stroke-linecap="round" stroke-linejoin="round" stroke-width="1"/>
      <path id="Trazado_105781" data-name="Trazado 105781" d="M1838.319,6834.854s-.266-5.751-7.587-8.763" transform="translate(-1781.52 -6768.811)" fill="none" stroke="#263238" stroke-linecap="round" stroke-linejoin="round" stroke-width="1"/>
      <line id="Línea_264" data-name="Línea 264" x1="6.297" y1="1.146" transform="translate(51.875 73.47)" fill="none" stroke="#263238" stroke-linecap="round" stroke-linejoin="round" stroke-width="1"/>
      <path id="Trazado_105782" data-name="Trazado 105782" d="M1838,6860.311s-11.866,2.937-15.97,7.488" transform="translate(-1779.421 -6777.069)" fill="none" stroke="#263238" stroke-linecap="round" stroke-linejoin="round" stroke-width="1"/>
      <path id="Trazado_105783" data-name="Trazado 105783" d="M1823.632,6896.9s20.378,15.553,22.525,38.617l-4.294-77.226" transform="translate(-1779.807 -6776.583)" fill="none" stroke="#263238" stroke-linecap="round" stroke-linejoin="round" stroke-width="2"/>
      <path id="Trazado_105784" data-name="Trazado 105784" d="M1856.737,6923.4s-15.553-113.156,29.5-113.156" transform="translate(-1787.169 -6764.987)" fill="none" stroke="#263238" stroke-linecap="round" stroke-linejoin="round" stroke-width="2"/>
      <path id="Trazado_105785" data-name="Trazado 105785" d="M1914.381,6825.98c-4.984-2.951-10.492-3.035-13.193-6.13s2.6-4.681,5.44-3.505,9.415,4.552,10.659,5.311.387-10.037-1.927-14.1-8.634-6.418-11.79-3.1c-6.661,7-17.048-2.178-16.334-7.64s-4.393-11.38-15.348-7.906-6.874,5.364-6.874,5.364,7.784,4.765,12.769,7.716,13.239,5.478,11.471,7.625-6.555.834-10.545-2.367-15.477-10.842-16.638-8-5.311,10.622-5.311,10.622a116.389,116.389,0,0,1,15.014,3.331c6.669,2.094,8.034,5.758,2.822,6.069s-14.673-3.626-17.624,1.358-.926,17.783-.926,17.783,9.544-6.472,14.415-6.449,1.752,2.723-3.687,6.229a74.7,74.7,0,0,0-6.828,4.711l4.962,12.731s8.186-1.047,11.418-.82l3.232.228s0-13.307,3.793-17.252,4.507,5.182,5.311,7.511-1.624,9.3-1.624,9.3,9.453-5.174,12.518-7.23l3.035-2.056s-3.535-9.666-5.94-12.427-5.675-2.352-2.906-4.75,6.889-1.138,9.248,2.276a73.848,73.848,0,0,1,5.174,10.045s3.528.569,8.118-4.621S1919.373,6828.924,1914.381,6825.98Zm-43.328,14.65c-3.664-1.829,5.075-5.485,5.075-5.485C1879.292,6834.682,1874.717,6842.466,1871.053,6840.63Zm6.168-17.093c-1.563-.759,3.126-2.337,3.126-2.337C1887.106,6822.5,1878.784,6824.319,1877.221,6823.537Z" transform="translate(-1787.466 -6759.589)" fill="#d9a171"/>
      <path id="Trazado_105786" data-name="Trazado 105786" d="M1874.978,6869.711q-1.419,1.517-2.936,2.928" transform="translate(-1791.489 -6779.338)" fill="none" stroke="#263238" stroke-linecap="round" stroke-linejoin="round" stroke-width="1"/>
      <path id="Trazado_105787" data-name="Trazado 105787" d="M1895.715,6832.181a121.231,121.231,0,0,1-15.773,25.1" transform="translate(-1793.396 -6770.281)" fill="none" stroke="#263238" stroke-linecap="round" stroke-linejoin="round" stroke-width="1"/>
      <path id="Trazado_105788" data-name="Trazado 105788" d="M1902.912,6824.739c2.2-4.909,3.323-8.148,3.323-8.148a13.553,13.553,0,0,0,8.05.9,15.3,15.3,0,0,1,7.154-.144" transform="translate(-1798.939 -6766.519)" fill="none" stroke="#263238" stroke-linecap="round" stroke-linejoin="round" stroke-width="1"/>
      <path id="Trazado_105789" data-name="Trazado 105789" d="M1892.906,6822.938c1.039-.9-14.953-8.847-14.953-8.847" transform="translate(-1792.915 -6765.916)" fill="none" stroke="#263238" stroke-linecap="round" stroke-linejoin="round" stroke-width="1"/>
      <path id="Trazado_105790" data-name="Trazado 105790" d="M1908.732,6832.1s7.587,3.125,11.774,7.966" transform="translate(-1800.344 -6770.262)" fill="none" stroke="#263238" stroke-linecap="round" stroke-linejoin="round" stroke-width="1"/>
      <path id="Trazado_105791" data-name="Trazado 105791" d="M1887.689,6838.579a63.414,63.414,0,0,0-12.268-.865,39.382,39.382,0,0,0-12.139,2.063" transform="translate(-1789.375 -6771.611)" fill="none" stroke="#263238" stroke-linecap="round" stroke-linejoin="round" stroke-width="1"/>
      <path id="Trazado_105792" data-name="Trazado 105792" d="M1897.982,6845.452s8.383,5.462,8.224,12.268" transform="translate(-1797.749 -6773.484)" fill="none" stroke="#263238" stroke-linecap="round" stroke-linejoin="round" stroke-width="1"/>
      <path id="Trazado_105793" data-name="Trazado 105793" d="M1805.284,6817.432s-5.038,3.665-8.247,0,1.35-10.986-3.2-13.732-11.9,2.276-11.9,2.276,5.948,1.373,5.948,4.552-2.746,4.552-3.2,3.209-3.664-8.247-8.239-5.038a11.767,11.767,0,0,0-5.038,7.784s10.986-1.836,11.9,2.276-4.552-.456-9.157-.456-8.7.918-8.247,3.665a35.655,35.655,0,0,1,0,7.321,13.623,13.623,0,0,1,8.7-3.657c5.038,0,5.038,3.2.455,3.2s-8.239,4.552-8.239,4.552,4.552,6.866,10.075,10.068,7.321,1.836,7.784-.91-1.373-9.62,1.828-9.62-4.552,12.366-.455,12.821,7.321-.918,8.239-3.665l.918-2.746s-1.836-6.828-1.373-9.612,1.373,0,2.276,3.2,1.828,10.993,3.2,10.53,5.493-6.411,6.411-8.694-6.411-8.7-6.411-10.075,5.493.918,6.411,2.276a34.586,34.586,0,0,1,1.828,3.2s3.209-2.276,2.746-8.7S1805.284,6817.432,1805.284,6817.432Z" transform="translate(-1765.866 -6763.209)" fill="#d9a171"/>
      <path id="Trazado_105794" data-name="Trazado 105794" d="M1784.012,6839.689c3.164-4.423,7.86-10.424,11.911-13.4" transform="translate(-1770.245 -6768.859)" fill="none" stroke="#263238" stroke-linecap="round" stroke-linejoin="round" stroke-width="1"/>
      <path id="Trazado_105795" data-name="Trazado 105795" d="M1779.192,6850.02s.8-1.267,2.117-3.179" transform="translate(-1769.082 -6773.819)" fill="none" stroke="#263238" stroke-linecap="round" stroke-linejoin="round" stroke-width="1"/>
      <path id="Trazado_105796" data-name="Trazado 105796" d="M1802.732,6827.491s5.493,6.873,6.866,14.195" transform="translate(-1774.763 -6769.149)" fill="none" stroke="#263238" stroke-linecap="round" stroke-linejoin="round" stroke-width="1"/>
      <path id="Trazado_105797" data-name="Trazado 105797" d="M1795.492,6833.523s1.373-.918,1.373,8.239" transform="translate(-1773.016 -6770.599)" fill="none" stroke="#263238" stroke-linecap="round" stroke-linejoin="round" stroke-width="1"/>
      <path id="Trazado_105798" data-name="Trazado 105798" d="M1799.732,6819.585s2.746-2.746.918-7.784" transform="translate(-1774.039 -6765.363)" fill="none" stroke="#263238" stroke-linecap="round" stroke-linejoin="round" stroke-width="1"/>
      <line id="Línea_265" data-name="Línea 265" x1="2.284" y1="3.664" transform="translate(19.73 55.14)" fill="none" stroke="#263238" stroke-linecap="round" stroke-linejoin="round" stroke-width="1"/>
      <path id="Trazado_105799" data-name="Trazado 105799" d="M1785.958,6832.083s-6.866-4.552-10.986-4.552" transform="translate(-1768.064 -6769.159)" fill="none" stroke="#263238" stroke-linecap="round" stroke-linejoin="round" stroke-width="1"/>
      <path id="Trazado_105800" data-name="Trazado 105800" d="M1824.032,6897.52s14.483-8.042,15.553,10.188c.668,11.267,1.942,60.815,2.822,97.042" transform="translate(-1779.903 -6785.623)" fill="none" stroke="#263238" stroke-linecap="round" stroke-linejoin="round" stroke-width="2"/>
      <path id="Trazado_105801" data-name="Trazado 105801" d="M1851.958,6913.631s-8.892,19.848-7.739,95.427" transform="translate(-1784.75 -6789.937)" fill="none" stroke="#263238" stroke-linecap="round" stroke-linejoin="round" stroke-width="2"/>
      <path id="Trazado_105802" data-name="Trazado 105802" d="M1837.535,6897.744s5.538,3.551,8.695-.508-2.132-11.509,2.526-14.688,12.693,1.677,12.693,1.677-6.191,1.813-5.994,5.2,3.187,4.658,3.581,3.179,3.346-8.922,8.345-5.827a12.45,12.45,0,0,1,5.8,7.9s-11.7-1.245-12.412,3.156,4.8-.759,9.628-1.054,9.233.425,8.922,3.353a38.161,38.161,0,0,0,.455,7.724,14.378,14.378,0,0,0-9.4-3.323c-5.311.311-5.113,3.695-.288,3.406s8.975,4.317,8.975,4.317-4.4,7.526-9.992,11.251-7.587,2.382-8.27-.486.857-10.219-2.526-10.022,5.6,12.753,1.282,13.489-7.784-.508-8.922-3.346l-1.138-2.845s1.517-7.352.857-10.219-1.449.083-2.215,3.52-1.252,11.7-2.731,11.3-6.191-6.418-7.3-8.777,6.221-9.575,6.138-11.016-5.743,1.3-6.623,2.807a37.7,37.7,0,0,0-1.73,3.5s-3.52-2.215-3.437-9.006S1837.535,6897.744,1837.535,6897.744Z" transform="translate(-1781.935 -6782.175)" fill="#d9a171"/>
      <path id="Trazado_105803" data-name="Trazado 105803" d="M1837.535,6897.744s5.538,3.551,8.695-.508-2.132-11.509,2.526-14.688,12.693,1.677,12.693,1.677-6.191,1.813-5.994,5.2,3.187,4.658,3.581,3.179,3.346-8.922,8.345-5.827a12.45,12.45,0,0,1,5.8,7.9s-11.7-1.245-12.412,3.156,4.8-.759,9.628-1.054,9.233.425,8.922,3.353a38.161,38.161,0,0,0,.455,7.724,14.378,14.378,0,0,0-9.4-3.323c-5.311.311-5.113,3.695-.288,3.406s8.975,4.317,8.975,4.317-4.4,7.526-9.992,11.251-7.587,2.382-8.27-.486.857-10.219-2.526-10.022,5.6,12.753,1.282,13.489-7.784-.508-8.922-3.346l-1.138-2.845s1.517-7.352.857-10.219-1.449.083-2.215,3.52-1.252,11.7-2.731,11.3-6.191-6.418-7.3-8.777,6.221-9.575,6.138-11.016-5.743,1.3-6.623,2.807a37.7,37.7,0,0,0-1.73,3.5s-3.52-2.215-3.437-9.006S1837.535,6897.744,1837.535,6897.744Z" transform="translate(-1781.935 -6782.175)" fill="#344154" opacity="0.3" style="isolation: isolate"/>
      <path id="Trazado_105804" data-name="Trazado 105804" d="M1871.9,6919.642c-3.611-4.468-8.929-10.508-13.391-13.391" transform="translate(-1788.224 -6788.156)" fill="none" stroke="#263238" stroke-linecap="round" stroke-linejoin="round" stroke-width="1"/>
      <path id="Trazado_105805" data-name="Trazado 105805" d="M1880.96,6930.045s-.926-1.289-2.428-3.224" transform="translate(-1793.056 -6793.121)" fill="none" stroke="#263238" stroke-linecap="round" stroke-linejoin="round" stroke-width="1"/>
      <path id="Trazado_105806" data-name="Trazado 105806" d="M1853.38,6907.711s-5.364,7.586-6.358,15.394" transform="translate(-1785.451 -6788.509)" fill="none" stroke="#263238" stroke-linecap="round" stroke-linejoin="round" stroke-width="1"/>
      <path id="Trazado_105807" data-name="Trazado 105807" d="M1863.073,6913.615s-1.517-.88-.933,8.777" transform="translate(-1789.067 -6789.928)" fill="none" stroke="#263238" stroke-linecap="round" stroke-linejoin="round" stroke-width="1"/>
      <path id="Trazado_105808" data-name="Trazado 105808" d="M1857.635,6899.2s-3.035-2.723-1.449-8.148" transform="translate(-1787.552 -6784.488)" fill="none" stroke="#263238" stroke-linecap="round" stroke-linejoin="round" stroke-width="1"/>
      <line id="Línea_266" data-name="Línea 266" y1="4.006" x2="2.185" transform="translate(74.233 115.31)" fill="none" stroke="#263238" stroke-linecap="round" stroke-linejoin="round" stroke-width="1"/>
      <path id="Trazado_105809" data-name="Trazado 105809" d="M1869.782,6911.5s6.957-5.258,11.3-5.516" transform="translate(-1790.944 -6788.091)" fill="none" stroke="#263238" stroke-linecap="round" stroke-linejoin="round" stroke-width="1"/>
      <path id="Trazado_105810" data-name="Trazado 105810" d="M1806.172,6882.941s.22,7.966,6.434,8.346,10.068-9.977,16.425-7.48,6.98,13.853,6.98,13.853-6.069-4.962-9.286-2.458-2.5,6.358-.759,5.75,11.213-2.724,11.547,4.416a15.072,15.072,0,0,1-3.96,11.183s-6.722-12.564-11.615-10.272,4.044,4.279,7.587,8.922,5.933,9.56,2.761,11.221a43.522,43.522,0,0,0-7.42,5.72s.85-6.57-3.088-11.676-7.177-2.6-3.6,2.041,1.8,11.927,1.8,11.927-10.538.72-18.072-2.337-7.587-5.994-5.151-8.6,10.811-6.123,8.307-9.37-8.952,14.293-12.632,10.478-4.764-8.141-2.723-11.221l2.063-3.073s8.391-3.5,10.819-6.115-1.07-1.4-5.038.182-12.563,6.722-13.17,4.977,2.2-10.576,3.793-13.292,13.823-.3,15.211-1.373-5.219-4.848-7.321-4.7a45.529,45.529,0,0,0-4.681.645s-.182-5.038,6.669-9.582S1806.172,6882.941,1806.172,6882.941Z" transform="translate(-1770.313 -6781.681)" fill="#d9a171"/>
      <path id="Trazado_105811" data-name="Trazado 105811" d="M1806.172,6882.941s.22,7.966,6.434,8.346,10.068-9.977,16.425-7.48,6.98,13.853,6.98,13.853-6.069-4.962-9.286-2.458-2.5,6.358-.759,5.75,11.213-2.724,11.547,4.416a15.072,15.072,0,0,1-3.96,11.183s-6.722-12.564-11.615-10.272,4.044,4.279,7.587,8.922,5.933,9.56,2.761,11.221a43.522,43.522,0,0,0-7.42,5.72s.85-6.57-3.088-11.676-7.177-2.6-3.6,2.041,1.8,11.927,1.8,11.927-10.538.72-18.072-2.337-7.587-5.994-5.151-8.6,10.811-6.123,8.307-9.37-8.952,14.293-12.632,10.478-4.764-8.141-2.723-11.221l2.063-3.073s8.391-3.5,10.819-6.115-1.07-1.4-5.038.182-12.563,6.722-13.17,4.977,2.2-10.576,3.793-13.292,13.823-.3,15.211-1.373-5.219-4.848-7.321-4.7a45.529,45.529,0,0,0-4.681.645s-.182-5.038,6.669-9.582S1806.172,6882.941,1806.172,6882.941Z" transform="translate(-1770.313 -6781.681)" fill="#344154" opacity="0.2" style="isolation: isolate"/>
      <path id="Trazado_105812" data-name="Trazado 105812" d="M1817.352,6928.251c2.01-6.661,4.431-16.114,4.279-22.54" transform="translate(-1778.291 -6788.025)" fill="none" stroke="#263238" stroke-linecap="round" stroke-linejoin="round" stroke-width="1"/>
      <path id="Trazado_105813" data-name="Trazado 105813" d="M1813.942,6944.356s.66-1.813,1.57-4.635" transform="translate(-1777.468 -6796.233)" fill="none" stroke="#263238" stroke-linecap="round" stroke-linejoin="round" stroke-width="1"/>
      <path id="Trazado_105814" data-name="Trazado 105814" d="M1813.138,6903.591s-11.251-.205-19.726,4.127" transform="translate(-1772.514 -6787.514)" fill="none" stroke="#263238" stroke-linecap="round" stroke-linejoin="round" stroke-width="1"/>
      <path id="Trazado_105815" data-name="Trazado 105815" d="M1815.955,6915.549s-.144-2.1-9.423,5.045" transform="translate(-1775.68 -6790.331)" fill="none" stroke="#263238" stroke-linecap="round" stroke-linejoin="round" stroke-width="1"/>
      <path id="Trazado_105816" data-name="Trazado 105816" d="M1827.272,6900.182s.637-4.932,7.177-7.011" transform="translate(-1780.685 -6785)" fill="none" stroke="#263238" stroke-linecap="round" stroke-linejoin="round" stroke-width="1"/>
      <line id="Línea_267" data-name="Línea 267" y1="0.539" x2="5.5" transform="translate(44.812 121.926)" fill="none" stroke="#263238" stroke-linecap="round" stroke-linejoin="round" stroke-width="1"/>
      <path id="Trazado_105817" data-name="Trazado 105817" d="M1823.662,6921.762s10.007,3.383,13.224,7.586" transform="translate(-1779.814 -6791.899)" fill="none" stroke="#263238" stroke-linecap="round" stroke-linejoin="round" stroke-width="1"/>
      <path id="Trazado_105818" data-name="Trazado 105818" d="M1891.939,6953.931s-21.516,14.232-28.777,64.677" transform="translate(-1789.346 -6799.663)" fill="none" stroke="#263238" stroke-linecap="round" stroke-linejoin="round" stroke-width="2"/>
      <path id="Trazado_105819" data-name="Trazado 105819" d="M1842.395,6945.474s1.009,9.165,8.216,9.028,10.675-12.465,18.246-10.182,9.362,15.326,9.362,15.326-7.443-5.151-10.955-1.958-2.276,7.587-.311,6.707,12.677-4.2,13.732,4.006a17.451,17.451,0,0,1-3.505,13.277s-8.937-13.861-14.377-10.766,5.068,4.552,9.628,9.574,7.67,10.447,4.2,12.686-8.027,7.329-8.027,7.329.364-7.663-4.658-13.178-8.535-2.329-3.968,2.693,3.2,13.6,3.2,13.6-12.093,1.829-21.076-1-9.317-6.2-6.76-9.437,11.9-8.08,8.71-11.593-8.983,17.343-13.588,13.284-6.3-8.937-4.2-12.685l2.094-3.74s9.354-4.84,11.9-8.08-1.366-1.517-5.8.69-13.861,8.945-14.734,6.987,1.517-12.412,3.141-15.7,15.932-1.653,17.45-3.035-6.479-5.106-8.892-4.742a51.7,51.7,0,0,0-5.311,1.191s-.69-5.8,6.79-11.684S1842.395,6945.474,1842.395,6945.474Z" transform="translate(-1778.821 -6796.729)" fill="#d9a171"/>
      <path id="Trazado_105820" data-name="Trazado 105820" d="M1842.395,6945.474s1.009,9.165,8.216,9.028,10.675-12.465,18.246-10.182,9.362,15.326,9.362,15.326-7.443-5.151-10.955-1.958-2.276,7.587-.311,6.707,12.677-4.2,13.732,4.006a17.451,17.451,0,0,1-3.505,13.277s-8.937-13.861-14.377-10.766,5.068,4.552,9.628,9.574,7.67,10.447,4.2,12.686-8.027,7.329-8.027,7.329.364-7.663-4.658-13.178-8.535-2.329-3.968,2.693,3.2,13.6,3.2,13.6-12.093,1.829-21.076-1-9.317-6.2-6.76-9.437,11.9-8.08,8.71-11.593-8.983,17.343-13.588,13.284-6.3-8.937-4.2-12.685l2.094-3.74s9.354-4.84,11.9-8.08-1.366-1.517-5.8.69-13.861,8.945-14.734,6.987,1.517-12.412,3.141-15.7,15.932-1.653,17.45-3.035-6.479-5.106-8.892-4.742a51.7,51.7,0,0,0-5.311,1.191s-.69-5.8,6.79-11.684S1842.395,6945.474,1842.395,6945.474Z" transform="translate(-1778.821 -6796.729)" fill="#344154" opacity="0.3" style="isolation: isolate"/>
      <path id="Trazado_105821" data-name="Trazado 105821" d="M1859.382,6997.108c1.692-7.875,3.6-19,2.807-26.417" transform="translate(-1788.434 -6803.708)" fill="none" stroke="#263238" stroke-linecap="round" stroke-linejoin="round" stroke-width="1"/>
      <path id="Trazado_105822" data-name="Trazado 105822" d="M1856.432,7016.1s.592-2.147,1.373-5.485" transform="translate(-1787.722 -6813.341)" fill="none" stroke="#263238" stroke-linecap="round" stroke-linejoin="round" stroke-width="1"/>
      <path id="Trazado_105823" data-name="Trazado 105823" d="M1851.608,6968.591s-13,.827-22.4,6.623" transform="translate(-1781.153 -6803.2)" fill="none" stroke="#263238" stroke-linecap="round" stroke-linejoin="round" stroke-width="1"/>
      <path id="Trazado_105824" data-name="Trazado 105824" d="M1856.053,6982.449s-.364-2.42-10.4,6.714" transform="translate(-1785.121 -6806.475)" fill="none" stroke="#263238" stroke-linecap="round" stroke-linejoin="round" stroke-width="1"/>
      <path id="Trazado_105825" data-name="Trazado 105825" d="M1867.732,6963.693s.273-5.75,7.587-8.762" transform="translate(-1790.449 -6799.904)" fill="none" stroke="#263238" stroke-linecap="round" stroke-linejoin="round" stroke-width="1"/>
      <line id="Línea_268" data-name="Línea 268" y1="1.146" x2="6.297" transform="translate(75.902 171.225)" fill="none" stroke="#263238" stroke-linecap="round" stroke-linejoin="round" stroke-width="1"/>
      <path id="Trazado_105826" data-name="Trazado 105826" d="M1865.382,6989.181s11.858,2.966,15.97,7.48" transform="translate(-1789.882 -6808.169)" fill="none" stroke="#263238" stroke-linecap="round" stroke-linejoin="round" stroke-width="1"/>
      <line id="Línea_269" data-name="Línea 269" y1="39.223" x2="2.177" transform="translate(69.84 179.472)" fill="none" stroke="#263238" stroke-linecap="round" stroke-linejoin="round" stroke-width="2"/>
      <path id="Trazado_105827" data-name="Trazado 105827" d="M1844.084,7015.207c.463-33-4.256-76.125-32.062-76.125" transform="translate(-1777.005 -6796.079)" fill="none" stroke="#263238" stroke-linecap="round" stroke-linejoin="round" stroke-width="2"/>
      <path id="Trazado_105828" data-name="Trazado 105828" d="M1773.844,6954.825c4.984-2.943,10.5-3.035,13.2-6.122s-2.6-4.681-5.44-3.513-9.415,4.552-10.667,5.311-.379-10.03,1.927-14.089,8.634-6.418,11.79-3.1c6.661,6.995,17.048-2.178,16.342-7.648s4.393-11.342,15.348-7.9,6.866,5.356,6.866,5.356-7.776,4.772-12.761,7.716-13.247,5.478-11.471,7.625,6.547.842,10.545-2.367,15.462-10.826,16.638-7.989,5.311,10.659,5.311,10.659a116.861,116.861,0,0,0-15.022,3.338c-6.669,2.094-8.034,5.759-2.822,6.07s14.68-3.634,17.624,1.351.933,17.783.933,17.783-9.544-6.464-14.415-6.441-1.752,2.716,3.687,6.229a76.281,76.281,0,0,1,6.828,4.711l-4.954,12.686s-8.186-1.047-11.38-.82l-3.232.228s0-13.307-3.793-17.26-4.5,5.189-5.311,7.518,1.631,9.294,1.631,9.294-9.453-5.174-12.518-7.23l-3.035-2.056s3.535-9.658,5.933-12.427,5.675-2.344,2.914-4.749-6.9-1.131-9.256,2.276a70.658,70.658,0,0,0-5.129,10.1s-3.528.576-8.11-4.621S1768.859,6957.777,1773.844,6954.825Zm43.328,14.658c3.664-1.828-5.03-5.493-5.03-5.493-3.209-.463,1.373,7.321,5.03,5.493ZM1811,6952.39c1.563-.759-3.118-2.344-3.118-2.344-6.767,1.3,1.563,3.125,3.118,2.344Z" transform="translate(-1766.685 -6790.687)" fill="#d9a171"/>
      <path id="Trazado_105829" data-name="Trazado 105829" d="M1832.542,6998.551q1.434,1.518,2.936,2.937" transform="translate(-1781.957 -6810.43)" fill="none" stroke="#263238" stroke-linecap="round" stroke-linejoin="round" stroke-width="1"/>
      <path id="Trazado_105830" data-name="Trazado 105830" d="M1807.782,6961a121.072,121.072,0,0,0,15.773,25.1" transform="translate(-1775.982 -6801.369)" fill="none" stroke="#263238" stroke-linecap="round" stroke-linejoin="round" stroke-width="1"/>
      <path id="Trazado_105831" data-name="Trazado 105831" d="M1799.651,6953.589c-2.193-4.909-3.323-8.148-3.323-8.148a13.538,13.538,0,0,1-8.05.9,15.168,15.168,0,0,0-7.147-.144" transform="translate(-1769.55 -6797.613)" fill="none" stroke="#263238" stroke-linecap="round" stroke-linejoin="round" stroke-width="1"/>
      <path id="Trazado_105832" data-name="Trazado 105832" d="M1810.777,6951.787c-1.032-.9,14.953-8.846,14.953-8.846" transform="translate(-1776.693 -6797.011)" fill="none" stroke="#263238" stroke-linecap="round" stroke-linejoin="round" stroke-width="1"/>
      <path id="Trazado_105833" data-name="Trazado 105833" d="M1795.987,6960.941s-7.587,3.133-11.775,7.974" transform="translate(-1770.294 -6801.354)" fill="none" stroke="#263238" stroke-linecap="round" stroke-linejoin="round" stroke-width="1"/>
      <path id="Trazado_105834" data-name="Trazado 105834" d="M1813,6967.419a63.5,63.5,0,0,1,12.275-.865,39.425,39.425,0,0,1,12.139,2.063" transform="translate(-1777.241 -6802.704)" fill="none" stroke="#263238" stroke-linecap="round" stroke-linejoin="round" stroke-width="1"/>
      <path id="Trazado_105835" data-name="Trazado 105835" d="M1807.856,6974.3s-8.345,5.462-8.224,12.268" transform="translate(-1774.014 -6804.579)" fill="none" stroke="#263238" stroke-linecap="round" stroke-linejoin="round" stroke-width="1"/>
      <path id="Trazado_105836" data-name="Trazado 105836" d="M1889.03,6946.279s5.038,3.664,8.239,0-1.343-10.986,3.209-13.74,11.9,2.276,11.9,2.276-5.956,1.373-5.956,4.552,2.746,4.552,3.209,3.2,3.657-8.239,8.239-5.038a11.821,11.821,0,0,1,5.038,7.784s-10.993-1.829-11.9,2.276,4.552-.456,9.157-.456,8.694.911,8.239,3.657a36.274,36.274,0,0,0,0,7.329,13.611,13.611,0,0,0-8.7-3.665c-5.038,0-5.038,3.209-.455,3.209s8.239,4.552,8.239,4.552-4.552,6.828-10.068,10.075-7.329,1.828-7.784-.918,1.373-9.613-1.836-9.613,4.552,12.359.463,12.822-7.329-.918-8.247-3.665l-.91-2.747s1.828-6.79,1.373-9.552-1.373,0-2.276,3.209-1.836,10.985-3.209,10.53-5.493-6.411-6.4-8.7,6.4-8.694,6.4-10.068-5.493.911-6.4,2.276a35.173,35.173,0,0,0-1.836,3.209s-3.2-2.276-2.746-8.7S1889.03,6946.279,1889.03,6946.279Z" transform="translate(-1794.366 -6794.301)" fill="#d9a171"/>
      <path id="Trazado_105837" data-name="Trazado 105837" d="M1920.661,6968.537c-3.164-4.423-7.86-10.432-11.919-13.406" transform="translate(-1800.346 -6799.952)" fill="none" stroke="#263238" stroke-linecap="round" stroke-linejoin="round" stroke-width="1"/>
      <path id="Trazado_105838" data-name="Trazado 105838" d="M1928.589,6978.87s-.8-1.274-2.117-3.179" transform="translate(-1804.625 -6804.914)" fill="none" stroke="#263238" stroke-linecap="round" stroke-linejoin="round" stroke-width="1"/>
      <path id="Trazado_105839" data-name="Trazado 105839" d="M1903.546,6956.341s-5.5,6.828-6.874,14.195" transform="translate(-1797.433 -6800.244)" fill="none" stroke="#263238" stroke-linecap="round" stroke-linejoin="round" stroke-width="1"/>
      <path id="Trazado_105840" data-name="Trazado 105840" d="M1912.535,6962.373s-1.373-.918-1.373,8.239" transform="translate(-1800.93 -6801.694)" fill="none" stroke="#263238" stroke-linecap="round" stroke-linejoin="round" stroke-width="1"/>
      <path id="Trazado_105841" data-name="Trazado 105841" d="M1908.241,6948.436s-2.747-2.747-.911-7.784" transform="translate(-1799.853 -6796.458)" fill="none" stroke="#263238" stroke-linecap="round" stroke-linejoin="round" stroke-width="1"/>
      <line id="Línea_270" data-name="Línea 270" y1="3.657" x2="2.291" transform="translate(112.061 152.895)" fill="none" stroke="#263238" stroke-linecap="round" stroke-linejoin="round" stroke-width="1"/>
      <path id="Trazado_105842" data-name="Trazado 105842" d="M1919,6960.933s6.874-4.552,10.993-4.552" transform="translate(-1802.822 -6800.253)" fill="none" stroke="#263238" stroke-linecap="round" stroke-linejoin="round" stroke-width="1"/>
    </g>
    <g id="freepik--Form--inject-2" transform="translate(1516.742 6659.961)">
      <rect id="Rectángulo_6026" data-name="Rectángulo 6026" width="168.426" height="221.791" transform="translate(5.311 6.069)" opacity="0.2" style="isolation: isolate"/>
      <rect id="Rectángulo_6027" data-name="Rectángulo 6027" width="168.426" height="221.791" fill="#fff" stroke="#263238" stroke-linecap="round" stroke-linejoin="round" stroke-width="1"/>
      <path id="Trazado_105843" data-name="Trazado 105843" d="M1651.747,6739.549H1536.732V6713.7h149.246v25.848h-31.455" transform="translate(-1527.628 -6672.93)" fill="none" stroke="#263238" stroke-linecap="round" stroke-linejoin="round" stroke-width="1"/>
      <path id="Trazado_105844" data-name="Trazado 105844" d="M1546.049,6783.821h-9.317v-13.36H1618.2" transform="translate(-1527.628 -6686.627)" fill="none" stroke="#263238" stroke-linecap="round" stroke-linejoin="round" stroke-width="1"/>
      <path id="Trazado_105845" data-name="Trazado 105845" d="M1625.5,6770.461h64.245v13.36h-137.4" transform="translate(-1531.395 -6686.627)" fill="none" stroke="#263238" stroke-linecap="round" stroke-linejoin="round" stroke-width="1"/>
      <path id="Trazado_105846" data-name="Trazado 105846" d="M1662.6,6819.461H1536.732V6806.1h149.246v13.36h-20.606" transform="translate(-1527.628 -6695.228)" fill="none" stroke="#263238" stroke-linecap="round" stroke-linejoin="round" stroke-width="1"/>
      <path id="Trazado_105847" data-name="Trazado 105847" d="M1575.318,6908.579h-38.586v-68.038h149.246v68.038H1579.1" transform="translate(-1527.628 -6703.54)" fill="none" stroke="#263238" stroke-linecap="round" stroke-linejoin="round" stroke-width="1"/>
      <rect id="Rectángulo_6028" data-name="Rectángulo 6028" width="149.246" height="11.888" transform="translate(9.104 137.001)" fill="#d1d1d1" stroke="#263238" stroke-linecap="round" stroke-linejoin="round" stroke-width="1"/>
      <path id="Trazado_105848" data-name="Trazado 105848" d="M1607.676,6748.271v16.737h-70.944v-17.237" transform="translate(-1527.628 -6681.152)" fill="none" stroke="#263238" stroke-linecap="round" stroke-linejoin="round" stroke-width="1"/>
      <rect id="Rectángulo_6029" data-name="Rectángulo 6029" width="149.246" height="7.503" transform="translate(9.104 49.943)" fill="#d1d1d1" stroke="#263238" stroke-linecap="round" stroke-linejoin="round" stroke-width="1"/>
      <line id="Línea_271" data-name="Línea 271" y2="8.512" transform="translate(108.802 41.469)" fill="none" stroke="#263238" stroke-linecap="round" stroke-linejoin="round" stroke-width="1"/>
      <rect id="Rectángulo_6030" data-name="Rectángulo 6030" width="10.166" height="4.969" transform="translate(117.822 42.895)" fill="#d1d1d1" stroke="#263238" stroke-linecap="round" stroke-linejoin="round" stroke-width="1"/>
      <line id="Línea_272" data-name="Línea 272" y2="9.021" transform="translate(85.047 57.682)" fill="none" stroke="#263238" stroke-linecap="round" stroke-linejoin="round" stroke-width="1"/>
      <line id="Línea_273" data-name="Línea 273" y2="9.021" transform="translate(116.252 57.682)" fill="none" stroke="#263238" stroke-linecap="round" stroke-linejoin="round" stroke-width="1"/>
      <line id="Línea_274" data-name="Línea 274" y1="17.116" transform="translate(36.561 66.74)" fill="none" stroke="#263238" stroke-linecap="round" stroke-linejoin="round" stroke-width="1"/>
      <line id="Línea_275" data-name="Línea 275" y1="17.116" transform="translate(53.934 66.74)" fill="none" stroke="#263238" stroke-linecap="round" stroke-linejoin="round" stroke-width="1"/>
      <line id="Línea_276" data-name="Línea 276" y2="13.019" transform="translate(72.878 83.939)" fill="none" stroke="#263238" stroke-linecap="round" stroke-linejoin="round" stroke-width="1"/>
      <line id="Línea_277" data-name="Línea 277" y2="40.248" transform="translate(108.46 83.758)" fill="none" stroke="#263238" stroke-linecap="round" stroke-linejoin="round" stroke-width="1"/>
      <path id="Trazado_105849" data-name="Trazado 105849" d="M1536.732,6788.071v13.693h99.409" transform="translate(-1527.628 -6690.877)" fill="none" stroke="#263238" stroke-linecap="round" stroke-linejoin="round" stroke-width="1"/>
      <line id="Línea_278" data-name="Línea 278" y2="13.171" transform="translate(46.545 97.292)" fill="none" stroke="#263238" stroke-linecap="round" stroke-linejoin="round" stroke-width="1"/>
      <line id="Línea_279" data-name="Línea 279" x2="8.823" transform="translate(149.603 159.966)" fill="none" stroke="#263238" stroke-linecap="round" stroke-linejoin="round" stroke-width="1"/>
      <line id="Línea_280" data-name="Línea 280" x2="137.009" transform="translate(9.309 159.966)" fill="none" stroke="#263238" stroke-linecap="round" stroke-linejoin="round" stroke-width="1"/>
      <line id="Línea_281" data-name="Línea 281" x2="149.118" transform="translate(9.309 170.709)" fill="none" stroke="#263238" stroke-linecap="round" stroke-linejoin="round" stroke-width="1"/>
      <line id="Línea_282" data-name="Línea 282" x2="103.172" transform="translate(55.254 181.407)" fill="none" stroke="#263238" stroke-linecap="round" stroke-linejoin="round" stroke-width="1"/>
      <line id="Línea_283" data-name="Línea 283" x2="42.16" transform="translate(9.309 181.407)" fill="none" stroke="#263238" stroke-linecap="round" stroke-linejoin="round" stroke-width="1"/>
      <rect id="Rectángulo_6031" data-name="Rectángulo 6031" width="5.045" height="5.045" transform="translate(32.661 162.925)" fill="#d1d1d1" stroke="#263238" stroke-linecap="round" stroke-linejoin="round" stroke-width="1"/>
      <rect id="Rectángulo_6032" data-name="Rectángulo 6032" width="5.045" height="5.045" transform="translate(61.604 162.925)" fill="#d1d1d1" stroke="#263238" stroke-linecap="round" stroke-linejoin="round" stroke-width="1"/>
      <rect id="Rectángulo_6033" data-name="Rectángulo 6033" width="5.045" height="5.045" transform="translate(41.613 173.22)" fill="#d1d1d1" stroke="#263238" stroke-linecap="round" stroke-linejoin="round" stroke-width="1"/>
      <rect id="Rectángulo_6034" data-name="Rectángulo 6034" width="5.045" height="5.045" transform="translate(69.282 173.22)" fill="#d1d1d1" stroke="#263238" stroke-linecap="round" stroke-linejoin="round" stroke-width="1"/>
      <rect id="Rectángulo_6035" data-name="Rectángulo 6035" width="5.045" height="5.045" transform="translate(95.73 173.22)" fill="#d1d1d1" stroke="#263238" stroke-linecap="round" stroke-linejoin="round" stroke-width="1"/>
      <rect id="Rectángulo_6036" data-name="Rectángulo 6036" width="5.045" height="5.045" transform="translate(122.587 173.22)" fill="#d1d1d1" stroke="#263238" stroke-linecap="round" stroke-linejoin="round" stroke-width="1"/>
      <line id="Línea_284" data-name="Línea 284" y2="10.705" transform="translate(39.277 170.8)" fill="none" stroke="#263238" stroke-linecap="round" stroke-linejoin="round" stroke-width="1"/>
      <line id="Línea_285" data-name="Línea 285" y2="10.705" transform="translate(66.339 170.8)" fill="none" stroke="#263238" stroke-linecap="round" stroke-linejoin="round" stroke-width="1"/>
      <line id="Línea_286" data-name="Línea 286" y2="10.705" transform="translate(93.393 170.8)" fill="none" stroke="#263238" stroke-linecap="round" stroke-linejoin="round" stroke-width="1"/>
      <line id="Línea_287" data-name="Línea 287" y2="10.705" transform="translate(120.447 170.8)" fill="none" stroke="#263238" stroke-linecap="round" stroke-linejoin="round" stroke-width="1"/>
      <line id="Línea_288" data-name="Línea 288" x2="149.118" transform="translate(9.309 192.316)" fill="none" stroke="#263238" stroke-linecap="round" stroke-linejoin="round" stroke-width="1"/>
      <rect id="Rectángulo_6037" data-name="Rectángulo 6037" width="5.045" height="5.045" transform="translate(23.102 184.13)" fill="#d1d1d1" stroke="#263238" stroke-linecap="round" stroke-linejoin="round" stroke-width="1"/>
      <rect id="Rectángulo_6038" data-name="Rectángulo 6038" width="5.045" height="5.045" transform="translate(69.282 184.13)" fill="#d1d1d1" stroke="#263238" stroke-linecap="round" stroke-linejoin="round" stroke-width="1"/>
      <rect id="Rectángulo_6039" data-name="Rectángulo 6039" width="5.045" height="5.045" transform="translate(95.73 184.13)" fill="#d1d1d1" stroke="#263238" stroke-linecap="round" stroke-linejoin="round" stroke-width="1"/>
      <rect id="Rectángulo_6040" data-name="Rectángulo 6040" width="5.045" height="5.045" transform="translate(129.809 184.13)" fill="#d1d1d1" stroke="#263238" stroke-linecap="round" stroke-linejoin="round" stroke-width="1"/>
      <line id="Línea_289" data-name="Línea 289" y2="10.591" transform="translate(20.765 181.71)" fill="none" stroke="#263238" stroke-linecap="round" stroke-linejoin="round" stroke-width="1"/>
      <line id="Línea_290" data-name="Línea 290" y2="10.591" transform="translate(66.339 181.71)" fill="none" stroke="#263238" stroke-linecap="round" stroke-linejoin="round" stroke-width="1"/>
      <line id="Línea_291" data-name="Línea 291" y2="10.591" transform="translate(93.393 181.71)" fill="none" stroke="#263238" stroke-linecap="round" stroke-linejoin="round" stroke-width="1"/>
      <line id="Línea_292" data-name="Línea 292" y2="10.591" transform="translate(127.67 181.71)" fill="none" stroke="#263238" stroke-linecap="round" stroke-linejoin="round" stroke-width="1"/>
      <line id="Línea_293" data-name="Línea 293" x2="16.433" transform="translate(54.496 36.469)" fill="none" stroke="#263238" stroke-miterlimit="10" stroke-width="1"/>
      <line id="Línea_294" data-name="Línea 294" x2="42.061" transform="translate(9.666 36.469)" fill="none" stroke="#263238" stroke-miterlimit="10" stroke-width="1"/>
      <line id="Línea_295" data-name="Línea 295" x2="36.219" transform="translate(83.902 36.469)" fill="none" stroke="#263238" stroke-miterlimit="10" stroke-width="1"/>
      <line id="Línea_296" data-name="Línea 296" x2="28.617" transform="translate(129.961 36.469)" fill="none" stroke="#263238" stroke-miterlimit="10" stroke-width="1"/>
      <text id="Registro" transform="translate(34.601 9.516)" fill="#344154" font-size="22" font-family="MyriadPro-Regular, Myriad Pro"><tspan x="15.597" y="17">Registro</tspan></text>
    </g>
    <g id="freepik--Character--inject-2" transform="translate(1498.533 6777.556)">
      <path id="Trazado_105850" data-name="Trazado 105850" d="M1704.672,7044.995l56.309-2.314,30.749,37.373-75.936,6.615Z" transform="translate(-1549.948 -6869.916)" fill="#fff" stroke="#263238" stroke-linecap="round" stroke-linejoin="round" stroke-width="1"/>
      <path id="Trazado_105851" data-name="Trazado 105851" d="M1719.662,7078.3l60.869-4.241,4.013,5.053-63.19,4.8Z" transform="translate(-1553.565 -6877.488)" fill="none" stroke="#263238" stroke-linecap="round" stroke-linejoin="round" stroke-width="0.5"/>
      <path id="Trazado_105852" data-name="Trazado 105852" d="M1717.252,7070.483l58.334-3.672,1.859,2.345-59.412,3.915Z" transform="translate(-1552.984 -6875.739)" fill="none" stroke="#263238" stroke-linecap="round" stroke-linejoin="round" stroke-width="0.5"/>
      <path id="Trazado_105853" data-name="Trazado 105853" d="M1715.3,7064.15l56.263-3.24,1.722,2.17-57.272,3.444Z" transform="translate(-1552.513 -6874.315)" fill="none" stroke="#263238" stroke-linecap="round" stroke-linejoin="round" stroke-width="0.5"/>
      <path id="Trazado_105854" data-name="Trazado 105854" d="M1710.292,7047.847l50.862-2.216,7.617,9.6-55.338,3.042Z" transform="translate(-1551.304 -6870.627)" fill="none" stroke="#263238" stroke-linecap="round" stroke-linejoin="round" stroke-width="0.5"/>
      <path id="Trazado_105855" data-name="Trazado 105855" d="M1713.652,7058.784l54.5-2.883,1.434,1.806-55.338,3.042Z" transform="translate(-1552.115 -6873.106)" fill="#d1d1d1" stroke="#263238" stroke-linecap="round" stroke-linejoin="round" stroke-width="0.5"/>
      <path id="Trazado_105856" data-name="Trazado 105856" d="M1762.485,7074.9l-1.813-3.209,27.252-1.79,2.5,3.155" transform="translate(-1563.462 -6876.485)" fill="none" stroke="#263238" stroke-linecap="round" stroke-linejoin="round" stroke-width="0.5"/>
      <path id="Trazado_105857" data-name="Trazado 105857" d="M1720.432,7080.792l61.673-4.431,1.168,1.464-62.348,4.6Z" transform="translate(-1553.751 -6878.043)" fill="#d1d1d1" stroke="#263238" stroke-linecap="round" stroke-linejoin="round" stroke-width="0.5"/>
      <line id="Línea_297" data-name="Línea 297" x1="0.857" y1="1.828" transform="translate(188.857 202.771)" fill="none" stroke="#263238" stroke-linecap="round" stroke-linejoin="round" stroke-width="0.5"/>
      <path id="Trazado_105858" data-name="Trazado 105858" d="M1738.992,7083.537l4.423-.326.47,1.069-4.453.341Z" transform="translate(-1558.23 -6879.697)" fill="#d1d1d1" stroke="#263238" stroke-linecap="round" stroke-linejoin="round" stroke-width="0.5"/>
      <line id="Línea_298" data-name="Línea 298" x1="0.994" y1="1.806" transform="translate(197.035 198.643)" fill="none" stroke="#263238" stroke-linecap="round" stroke-linejoin="round" stroke-width="0.5"/>
      <line id="Línea_299" data-name="Línea 299" x1="0.819" y1="1.851" transform="translate(184.123 199.539)" fill="none" stroke="#263238" stroke-linecap="round" stroke-linejoin="round" stroke-width="0.5"/>
      <line id="Línea_300" data-name="Línea 300" x2="2.253" y2="3.194" transform="translate(214.121 194.091)" fill="none" stroke="#263238" stroke-linecap="round" stroke-linejoin="round" stroke-width="0.5"/>
      <line id="Línea_301" data-name="Línea 301" x2="2.094" y2="3.232" transform="translate(207.444 194.532)" fill="none" stroke="#263238" stroke-linecap="round" stroke-linejoin="round" stroke-width="0.5"/>
      <line id="Línea_302" data-name="Línea 302" x1="1.404" y1="2.375" transform="translate(198.636 192.627)" fill="none" stroke="#263238" stroke-linecap="round" stroke-linejoin="round" stroke-width="0.5"/>
      <line id="Línea_303" data-name="Línea 303" x1="3.399" y1="7.23" transform="translate(182.416 188.743)" fill="none" stroke="#263238" stroke-linecap="round" stroke-linejoin="round" stroke-width="0.5"/>
      <path id="Trazado_105859" data-name="Trazado 105859" d="M1781.69,7066.077l-1.828-2.306-37.319,2.246" transform="translate(-1559.087 -6875.005)" fill="none" stroke="#263238" stroke-linecap="round" stroke-linejoin="round" stroke-width="0.5"/>
      <line id="Línea_304" data-name="Línea 304" x1="1.533" y1="2.276" transform="translate(207.133 189.661)" fill="none" stroke="#263238" stroke-linecap="round" stroke-linejoin="round" stroke-width="0.5"/>
      <line id="Línea_305" data-name="Línea 305" x1="53.699" y2="2.739" transform="translate(160.976 181.171)" fill="none" stroke="#263238" stroke-linecap="round" stroke-linejoin="round" stroke-width="0.5"/>
      <line id="Línea_306" data-name="Línea 306" x1="52.986" y2="2.602" transform="translate(160.467 179.639)" fill="none" stroke="#263238" stroke-linecap="round" stroke-linejoin="round" stroke-width="0.5"/>
      <line id="Línea_307" data-name="Línea 307" x1="52.295" y2="2.473" transform="translate(159.982 178.152)" fill="none" stroke="#263238" stroke-linecap="round" stroke-linejoin="round" stroke-width="0.5"/>
      <path id="Trazado_105860" data-name="Trazado 105860" d="M1769.782,7052.854l1.722-.084.523.729-1.737.083Z" transform="translate(-1565.661 -6872.351)" fill="#d1d1d1" stroke="#263238" stroke-linecap="round" stroke-linejoin="round" stroke-width="0.5"/>
      <path id="Trazado_105861" data-name="Trazado 105861" d="M1756.522,7053.512l1.768-.091.463.743-1.775.091Z" transform="translate(-1562.461 -6872.507)" fill="#d1d1d1" stroke="#263238" stroke-linecap="round" stroke-linejoin="round" stroke-width="0.5"/>
      <path id="Trazado_105862" data-name="Trazado 105862" d="M1764.4,7051.114l1.722-.083.493.713-1.73.083Z" transform="translate(-1564.362 -6871.931)" fill="#d1d1d1" stroke="#263238" stroke-linecap="round" stroke-linejoin="round" stroke-width="0.5"/>
      <path id="Trazado_105863" data-name="Trazado 105863" d="M1751.812,7051.714l1.76-.083.432.729-1.768.083Z" transform="translate(-1561.324 -6872.075)" fill="#d1d1d1" stroke="#263238" stroke-linecap="round" stroke-linejoin="round" stroke-width="0.5"/>
      <path id="Trazado_105864" data-name="Trazado 105864" d="M1739.512,7052.3l1.8-.083.372.736-1.806.083Z" transform="translate(-1558.356 -6872.218)" fill="#d1d1d1" stroke="#263238" stroke-linecap="round" stroke-linejoin="round" stroke-width="0.5"/>
      <path id="Trazado_105865" data-name="Trazado 105865" d="M1726.762,7052.915l1.828-.083.318.743-1.844.091Z" transform="translate(-1555.279 -6872.365)" fill="#d1d1d1" stroke="#263238" stroke-linecap="round" stroke-linejoin="round" stroke-width="0.5"/>
      <line id="Línea_308" data-name="Línea 308" x1="1.055" y1="1.51" transform="translate(202.24 178.615)" fill="none" stroke="#263238" stroke-linecap="round" stroke-linejoin="round" stroke-width="0.5"/>
      <line id="Línea_309" data-name="Línea 309" x1="0.941" y1="1.533" transform="translate(192.984 179.047)" fill="none" stroke="#263238" stroke-linecap="round" stroke-linejoin="round" stroke-width="0.5"/>
      <line id="Línea_310" data-name="Línea 310" x1="0.812" y1="1.555" transform="translate(183.539 179.495)" fill="none" stroke="#263238" stroke-linecap="round" stroke-linejoin="round" stroke-width="0.5"/>
      <line id="Línea_311" data-name="Línea 311" x1="0.683" y1="1.586" transform="translate(173.881 179.95)" fill="none" stroke="#263238" stroke-linecap="round" stroke-linejoin="round" stroke-width="0.5"/>
      <line id="Línea_312" data-name="Línea 312" x1="51.605" y2="2.344" transform="translate(159.504 176.68)" fill="none" stroke="#263238" stroke-linecap="round" stroke-linejoin="round" stroke-width="0.5"/>
      <path id="Trazado_105866" data-name="Trazado 105866" d="M1771.232,7048.747l1.677-.076.508.683-1.677.083Z" transform="translate(-1566.011 -6871.361)" fill="#d1d1d1" stroke="#263238" stroke-linecap="round" stroke-linejoin="round" stroke-width="0.5"/>
      <path id="Trazado_105867" data-name="Trazado 105867" d="M1750.632,7049.694l1.73-.083.425.705-1.745.084Z" transform="translate(-1561.039 -6871.588)" fill="#d1d1d1" stroke="#263238" stroke-linecap="round" stroke-linejoin="round" stroke-width="0.5"/>
      <path id="Trazado_105868" data-name="Trazado 105868" d="M1738.492,7050.247l1.768-.076.372.713-1.783.083Z" transform="translate(-1558.11 -6871.723)" fill="#d1d1d1" stroke="#263238" stroke-linecap="round" stroke-linejoin="round" stroke-width="0.5"/>
      <path id="Trazado_105869" data-name="Trazado 105869" d="M1722.482,7050.984l1.821-.083.288.729-1.828.083Z" transform="translate(-1554.246 -6871.899)" fill="#d1d1d1" stroke="#263238" stroke-linecap="round" stroke-linejoin="round" stroke-width="0.5"/>
      <line id="Línea_313" data-name="Línea 313" x1="1.085" y1="1.441" transform="translate(207.353 176.847)" fill="none" stroke="#263238" stroke-linecap="round" stroke-linejoin="round" stroke-width="0.5"/>
      <line id="Línea_314" data-name="Línea 314" x1="0.895" y1="1.479" transform="translate(192.074 177.545)" fill="none" stroke="#263238" stroke-linecap="round" stroke-linejoin="round" stroke-width="0.5"/>
      <line id="Línea_315" data-name="Línea 315" x1="0.781" y1="1.495" transform="translate(182.742 177.97)" fill="none" stroke="#263238" stroke-linecap="round" stroke-linejoin="round" stroke-width="0.5"/>
      <line id="Línea_316" data-name="Línea 316" x1="0.622" y1="1.525" transform="translate(170.641 178.523)" fill="none" stroke="#263238" stroke-linecap="round" stroke-linejoin="round" stroke-width="0.5"/>
      <line id="Línea_317" data-name="Línea 317" x1="25.014" y2="1.927" transform="translate(206.443 202.521)" fill="none" stroke="#263238" stroke-miterlimit="10" stroke-width="0.5"/>
      <line id="Línea_318" data-name="Línea 318" x1="15.689" y2="1.206" transform="translate(185.268 204.873)" fill="none" stroke="#263238" stroke-miterlimit="10" stroke-width="0.5"/>
      <line id="Línea_319" data-name="Línea 319" x1="12.928" y2="0.994" transform="translate(167.978 206.42)" fill="none" stroke="#263238" stroke-miterlimit="10" stroke-width="0.5"/>
      <path id="Trazado_105870" data-name="Trazado 105870" d="M1743,6888.512a103.165,103.165,0,0,0-15.682,6.069c-8.345,4.051-24.778,10.12-32.623,13.155s-12.64,10.872-14.157,14.665-8.095,19.976-8.095,19.976-13.907,21.752-17.45,27.063-8.345,12.646-8.6,19.475,3.535,10.622,12.389,10.622,12.647-3.035,16.941-7.587,18.208-26.812,20.234-29.338,7.587-12.139,7.587-12.139,2.784,25.036,2.784,32.873v18.466h79.661s3.793-27.82,4.552-30.1,6.57-18.716,6.57-18.716,20.993,33.89,24.5,38.441,13.512,14.142,23.314,10.3,7.792-14.354,2.481-26.993-14.635-34.141-14.635-35.165-3.793-15.932-19.217-27.57-30.6-14.414-34.14-16.183S1764.494,6888.512,1743,6888.512Z" transform="translate(-1535.882 -6832.711)" fill="#aed3f2" stroke="#263238" stroke-linecap="round" stroke-linejoin="round" stroke-width="1"/>
      <path id="Trazado_105871" data-name="Trazado 105871" d="M1707.355,6948.512l9.863,15.431s-8.1-8.345-13.156-9.612" transform="translate(-1549.801 -6847.19)" fill="none" stroke="#263238" stroke-linecap="round" stroke-linejoin="round" stroke-width="1"/>
      <path id="Trazado_105872" data-name="Trazado 105872" d="M1716.494,6967.546l-5.819-2.025s-5.311-3.034-9.612-1.768" transform="translate(-1549.077 -6850.794)" fill="none" stroke="#263238" stroke-linecap="round" stroke-linejoin="round" stroke-width="1"/>
      <path id="Trazado_105873" data-name="Trazado 105873" d="M1761.272,6920.181c.569,4.165,1.881,9.339,4.9,12.9" transform="translate(-1563.607 -6840.353)" fill="none" stroke="#263238" stroke-linecap="round" stroke-linejoin="round" stroke-width="1"/>
      <path id="Trazado_105874" data-name="Trazado 105874" d="M1760.729,6911.182s-.053,1.449.083,3.634" transform="translate(-1563.473 -6838.182)" fill="none" stroke="#263238" stroke-linecap="round" stroke-linejoin="round" stroke-width="1"/>
      <path id="Trazado_105875" data-name="Trazado 105875" d="M1764.382,6941.182a22.855,22.855,0,0,0,2.276,2.033" transform="translate(-1564.357 -6845.421)" fill="none" stroke="#263238" stroke-linecap="round" stroke-linejoin="round" stroke-width="1"/>
      <path id="Trazado_105876" data-name="Trazado 105876" d="M1755.062,6926.181a33.6,33.6,0,0,0,6.016,10.242" transform="translate(-1562.108 -6841.801)" fill="none" stroke="#263238" stroke-linecap="round" stroke-linejoin="round" stroke-width="1"/>
      <path id="Trazado_105877" data-name="Trazado 105877" d="M1819.413,7000.661a29.327,29.327,0,0,1-4.681,6.214" transform="translate(-1576.508 -6859.775)" fill="none" stroke="#263238" stroke-linecap="round" stroke-linejoin="round" stroke-width="1"/>
      <path id="Trazado_105878" data-name="Trazado 105878" d="M1834.112,6967.511s-5.88,13.292-11.38,22.76" transform="translate(-1578.439 -6851.775)" fill="none" stroke="#263238" stroke-linecap="round" stroke-linejoin="round" stroke-width="1"/>
      <path id="Trazado_105879" data-name="Trazado 105879" d="M1803.109,7011.631c-.759.918-1.343,1.685-1.707,2.186" transform="translate(-1573.292 -6862.422)" fill="none" stroke="#263238" stroke-linecap="round" stroke-linejoin="round" stroke-width="1"/>
      <path id="Trazado_105880" data-name="Trazado 105880" d="M1813.827,6996.511s-4.658,5.417-8.1,9.613" transform="translate(-1574.336 -6858.773)" fill="none" stroke="#263238" stroke-linecap="round" stroke-linejoin="round" stroke-width="1"/>
      <path id="Trazado_105881" data-name="Trazado 105881" d="M1845.062,6967.4s11.13-17.7,11.638-19.217" transform="translate(-1583.828 -6847.111)" fill="none" stroke="#263238" stroke-linecap="round" stroke-linejoin="round" stroke-width="1"/>
      <path id="Trazado_105882" data-name="Trazado 105882" d="M1856.282,6962.267c3.308-2.678,8.277-6.069,13.239-7.086" transform="translate(-1586.535 -6848.8)" fill="none" stroke="#263238" stroke-linecap="round" stroke-linejoin="round" stroke-width="1"/>
      <path id="Trazado_105883" data-name="Trazado 105883" d="M1851.062,6968.458s.9-.933,2.42-2.276" transform="translate(-1585.276 -6851.455)" fill="none" stroke="#263238" stroke-linecap="round" stroke-linejoin="round" stroke-width="1"/>
      <path id="Trazado_105884" data-name="Trazado 105884" d="M1866.506,6951.511a61.428,61.428,0,0,0-9.1,5.819" transform="translate(-1586.806 -6847.914)" fill="none" stroke="#263238" stroke-linecap="round" stroke-linejoin="round" stroke-width="1"/>
      <path id="Trazado_105885" data-name="Trazado 105885" d="M1875.4,7000.412a14.293,14.293,0,0,1,13.656.758" transform="translate(-1591.149 -6859.381)" fill="none" stroke="#263238" stroke-linecap="round" stroke-linejoin="round" stroke-width="1"/>
      <path id="Trazado_105886" data-name="Trazado 105886" d="M1878.4,6996.389s8.846-1.768,15.424,2.276" transform="translate(-1591.874 -6858.651)" fill="none" stroke="#263238" stroke-linecap="round" stroke-linejoin="round" stroke-width="1"/>
      <path id="Trazado_105887" data-name="Trazado 105887" d="M1659.732,6999.347a14.132,14.132,0,0,1,11.38-3.536" transform="translate(-1539.103 -6858.574)" fill="none" stroke="#263238" stroke-linecap="round" stroke-linejoin="round" stroke-width="1"/>
      <path id="Trazado_105888" data-name="Trazado 105888" d="M1680.372,6996.631a21.549,21.549,0,0,1,1.791,1.427" transform="translate(-1544.084 -6858.803)" fill="none" stroke="#263238" stroke-linecap="round" stroke-linejoin="round" stroke-width="1"/>
      <path id="Trazado_105889" data-name="Trazado 105889" d="M1671.4,6992.851a12.319,12.319,0,0,1,4.15,1.29" transform="translate(-1541.919 -6857.89)" fill="none" stroke="#263238" stroke-linecap="round" stroke-linejoin="round" stroke-width="1"/>
      <path id="Trazado_105890" data-name="Trazado 105890" d="M1770.87,6894.343s-2.276,9.612-1.517,16.691,8.6,17.958,15.173,20.484,18.709-4.8,23.011-9.1,4.552-17.958,4.552-17.958-6.555-14.157-20.484-18.208S1770.87,6894.343,1770.87,6894.343Z" transform="translate(-1565.52 -6831.965)" fill="#ffbf9d" stroke="#263238" stroke-linecap="round" stroke-linejoin="round" stroke-width="1"/>
      <path id="Trazado_105891" data-name="Trazado 105891" d="M1837.088,6894.1a12.42,12.42,0,0,1-1.221,8.953c-2.542,5-7.45,9.225-8.77,8.793s4.1-18.527,4.1-18.527S1834.8,6891.291,1837.088,6894.1Z" transform="translate(-1579.442 -6833.7)" fill="#ffbf9d" stroke="#263238" stroke-linecap="round" stroke-linejoin="round" stroke-width="1"/>
      <path id="Trazado_105892" data-name="Trazado 105892" d="M1766.208,6875.325a12.453,12.453,0,0,0-1.669,8.885c.827,5.554,4.165,11.1,5.553,11.1s1.942-18.868,1.942-18.868S1769.258,6873.384,1766.208,6875.325Z" transform="translate(-1564.355 -6829.373)" fill="#ffbf9d" stroke="#263238" stroke-linecap="round" stroke-linejoin="round" stroke-width="1"/>
      <path id="Trazado_105893" data-name="Trazado 105893" d="M1772.031,6876.387s-1.942,16.934.273,23.875,6.661,17.76,13.6,20.537,22.76-9.157,25.256-13.876,9.438-24.7,9.438-24.7a18.146,18.146,0,0,0,2.5-17.214c-3.611-9.992-23.041-16.1-31.106-15.818s-16.1,6.942-16.653,12.215S1772.031,6876.387,1772.031,6876.387Z" transform="translate(-1566.013 -6823.219)" fill="#ffbf9d" stroke="#263238" stroke-linecap="round" stroke-linejoin="round" stroke-width="1"/>
      <path id="Trazado_105894" data-name="Trazado 105894" d="M1792.353,6896.831s-6.107-7.5-11.661-4.992" transform="translate(-1568.293 -6833.39)" fill="none" stroke="#263238" stroke-linecap="round" stroke-linejoin="round" stroke-width="2"/>
      <path id="Trazado_105895" data-name="Trazado 105895" d="M1808.862,6902.805s8.345-1.942,12.215,1.669" transform="translate(-1575.092 -6836.034)" fill="none" stroke="#263238" stroke-linecap="round" stroke-linejoin="round" stroke-width="2"/>
      <path id="Trazado_105896" data-name="Trazado 105896" d="M1781.792,6900.781s1.783,5.311,9.021,4.7" transform="translate(-1568.559 -6835.672)" fill="none" stroke="#263238" stroke-linecap="round" stroke-linejoin="round" stroke-width="1"/>
      <path id="Trazado_105897" data-name="Trazado 105897" d="M1808.132,6910.651s1.669,3.611,9.438,2.223" transform="translate(-1574.915 -6838.054)" fill="none" stroke="#263238" stroke-linecap="round" stroke-linejoin="round" stroke-width="1"/>
      <path id="Trazado_105898" data-name="Trazado 105898" d="M1790.066,6917.312a4.859,4.859,0,0,0,.455,3.315c.9,1.357,3.164,3.314,4.825,3.314s5.129-.6,6.031-1.517a10.812,10.812,0,0,0,1.517-1.965" transform="translate(-1570.529 -6839.661)" fill="none" stroke="#263238" stroke-linecap="round" stroke-linejoin="round" stroke-width="1"/>
      <path id="Trazado_105899" data-name="Trazado 105899" d="M1785.132,6923.871s3.793,4.37,6.942,5.425,9.043-.759,10.7-1.358" transform="translate(-1569.365 -6841.244)" fill="none" stroke="#263238" stroke-linecap="round" stroke-linejoin="round" stroke-width="1"/>
      <path id="Trazado_105900" data-name="Trazado 105900" d="M1833.775,6849.025c-.258-1.82,1.039-4.423,1.3-5.979s-1.821-4.423-3.634-6.76a10.454,10.454,0,0,1-2.086-6.494c0-1.562-1.813-2.859-3.376-3.9a29,29,0,0,1-5.2-4.423c-1.039-1.3-5.455-1.04-6.236-1.04s-4.157-2.852-6.236-3.892-6.236.759-6.236.759-4.939-2.337-5.978-2.337-5.462,1.821-5.462,1.821a23.2,23.2,0,0,1-4.552,1.418,4.8,4.8,0,0,0-.865-.144c-.584-.759-5.781,2.359-5.781,2.359l-4.673.759-1.737,2.814c-1.661.183-5.553.8-5.827,2.709-.349,2.428,0,3.467-1.039,4.848s-4.848,1.039-3.793,4.157,3.459,5.546.341,7.283-4.848,4.849-3.118,6.578,3.118,4.157,2.777,5.546-.7,4.506.69,5.2a24.567,24.567,0,0,1,3.467,2.429l1.73,3.793,1.039,2.428s1.73-5.546,3.118-6.236,0,2.428,2.777,2.428,5.538-13.171,7.587-13.52,8.345,11.44,14.559,11.44,13.891-5.454,17.017-5.454.69,13.162.69,15.932.69,5.538.69,6.585,3.467-4.855,5.895-6.243c.668-.38,1.472-.843,2.314-1.374a.421.421,0,0,1-.038.19s8.581-5.463,9.62-7.276.258-3.383.258-4.938,1.039-2.86,1.3-5.2S1834.033,6850.839,1833.775,6849.025Z" transform="translate(-1563.034 -6814.961)" fill="#344154" stroke="#263238" stroke-linecap="round" stroke-linejoin="round" stroke-width="1"/>
      <line id="Línea_320" data-name="Línea 320" x1="334.264" transform="translate(0 169.04)" fill="none" stroke="#263238" stroke-linecap="round" stroke-linejoin="round" stroke-width="1"/>
      <path id="Trazado_105901" data-name="Trazado 105901" d="M1859.647,7008.049s-9.476-3.482-16.289-.759-22.806,9.2-33.693,11.236a142.073,142.073,0,0,1-30.962,2.041c-9.2-.342-14.3,1.023-16.342,2.723s-9.529,11.229-8.854,12.253,1.434,1.411,4.772.683c1.328-.3,5.106-4.423,5.106-4.423l6.828-3.034s-7.147,7.829-6.13,8.846,2.724-.342,4.089-1.358,4.082-3.406,4.082-3.406l6.13-2.724s-6.509,4.393-6.509,6.419,1.586.834,4.286-.243a31.079,31.079,0,0,0,3.649-2.693l5.121-1.441a22.507,22.507,0,0,0,10.72,2.549,16.413,16.413,0,0,0,10.621-3.96s23.83,3.406,35.741,2.382,26.887.342,33.018-4.081-1.7-16-2.382-17.024" transform="translate(-1561.723 -6861.124)" fill="#ffbf9d" stroke="#263238" stroke-linecap="round" stroke-linejoin="round" stroke-width="1"/>
      <path id="Trazado_105902" data-name="Trazado 105902" d="M1755.6,7041.967a23.539,23.539,0,0,1,2.534-5.234c1.267-1.586,7.132-5.387,9.2-6.495a23.245,23.245,0,0,1,2.534-1.267" transform="translate(-1562.239 -6866.607)" fill="none" stroke="#263238" stroke-linecap="round" stroke-linejoin="round" stroke-width="1"/>
      <line id="Línea_321" data-name="Línea 321" y1="3.983" x2="5.986" transform="translate(208.453 163.631)" fill="none" stroke="#263238" stroke-linecap="round" stroke-linejoin="round" stroke-width="1"/>
      <line id="Línea_322" data-name="Línea 322" y1="2.807" x2="5.584" transform="translate(216.624 166.165)" fill="none" stroke="#263238" stroke-linecap="round" stroke-linejoin="round" stroke-width="1"/>
      <path id="Trazado_105903" data-name="Trazado 105903" d="M1878.745,7008.126c-5.06-1.207-12.207-2.39-16.289-.758-6.069,2.42-19.331,7.784-29.854,10.386a9.393,9.393,0,0,1,2.435,5.971,23.212,23.212,0,0,1-1.123,8.193c8.019.9,19.854,1.95,27.183,1.32,11.911-1.024,26.887.341,33.017-4.082s-1.7-16-2.382-17.024" transform="translate(-1580.821 -6861.201)" fill="#d9a171" stroke="#263238" stroke-linecap="round" stroke-linejoin="round" stroke-width="1"/>
      <path id="Trazado_105904" data-name="Trazado 105904" d="M1654.054,7005.7c.637-1.722,5.311-5.842,11.6-4.742s13.428,8.087,17.51,13.459,7.336,6.828,7.336,6.828l-4.81,14.7s-2.959-.713-8.512-2.125-17.981-3.247-23.694-5.022-8.148-7.92-6.9-13.656a34.22,34.22,0,0,1,3.224-9.149" transform="translate(-1535.853 -6859.804)" fill="#d9a171" stroke="#263238" stroke-linecap="round" stroke-linejoin="round" stroke-width="1"/>
      <path id="Trazado_105905" data-name="Trazado 105905" d="M1690.442,7018.211c-.432-.562-.9-1.138-1.381-1.729-3.558,1.419-8.072,4.036-10.462,8.648a16.652,16.652,0,0,0-1.942,10.85c3.035.576,5.834,1.122,7.784,1.615,5.554,1.411,8.512,2.124,8.512,2.124l4.81-14.694S1694.516,7023.59,1690.442,7018.211Z" transform="translate(-1543.13 -6863.593)" fill="#ffbf9d" stroke="#263238" stroke-linecap="round" stroke-linejoin="round" stroke-width="1"/>
      <path id="Trazado_105906" data-name="Trazado 105906" d="M1692.22,7034.663c-.319,2.276-1.017,4.878,2.276,6.32s6.57,5,8.641,5.834a31.2,31.2,0,0,0,7.792,1.882c2.109.136,4.711.827,8.846-.327s4.021-2.215,4.021-2.215a10.552,10.552,0,0,0,3.854-.531c1.275-.629.379-2.208-1.168-2.83s-3.444-1.457-3.444-1.457,2.352-2.17,1.76-2.708l-.584-.539s2.716.318,2.951-.546-1.472-4.689-2.155-7.905-2.117-2.784-4.734-3.3-6.183.144-10.887-.857-11.517.683-14.21,1.4" transform="translate(-1546.874 -6865.69)" fill="#ffbf9d" stroke="#263238" stroke-linecap="round" stroke-linejoin="round" stroke-width="1"/>
      <path id="Trazado_105907" data-name="Trazado 105907" d="M1716.5,7008.272l4.294,15.173,3.429,1.631-5.083-17.57a1.365,1.365,0,0,0-1.688-.938,1.232,1.232,0,0,0-.163.059h0A1.373,1.373,0,0,0,1716.5,7008.272Z" transform="translate(-1552.791 -6861.188)" fill="#344154"/>
      <path id="Trazado_105908" data-name="Trazado 105908" d="M1718.861,7027.3s7.511,4.006,8.027,4.211c.357.144,3.7,5.736,4.765,8.421.493,1.229-.061,1.935-1.214,2.572l-1.555-.629-9.339-5.88-3.422-1.631" transform="translate(-1552.711 -6866.204)" fill="#ffbf9d" stroke="#263238" stroke-linecap="round" stroke-linejoin="round" stroke-width="1"/>
      <path id="Trazado_105909" data-name="Trazado 105909" d="M1712.822,7044.551s7.314,4.348,8.854,5.145,7.162,1.16,7.162,1.16" transform="translate(-1551.915 -6870.367)" fill="none" stroke="#263238" stroke-linecap="round" stroke-linejoin="round" stroke-width="1"/>
      <path id="Trazado_105910" data-name="Trazado 105910" d="M1709.212,7050.181s6.138,3.384,7.344,3.793,3.793,1.123,3.793,1.123" transform="translate(-1551.044 -6871.726)" fill="none" stroke="#263238" stroke-linecap="round" stroke-linejoin="round" stroke-width="1"/>
    </g>
    <g id="freepik--Device--inject-2" transform="translate(1515.983 6911.856)">
      <path id="Trazado_105911" data-name="Trazado 105911" d="M1635.852,7077.889l28.01-25.765-61.711-3.983Z" transform="translate(-1542.657 -7005.534)" fill="#ccc" stroke="#263238" stroke-linecap="round" stroke-linejoin="round" stroke-width="1"/>
      <path id="Trazado_105912" data-name="Trazado 105912" d="M1644.377,7076.43l12.609-11.949-14.6-.88Z" transform="translate(-1552.365 -7009.265)" fill="#344154" stroke="#263238" stroke-linecap="round" stroke-linejoin="round" stroke-width="1"/>
      <path id="Trazado_105913" data-name="Trazado 105913" d="M1529.862,6991.981l92.384,4.089-5.318,68.266-93.2-4.5Z" transform="translate(-1523.732 -6991.981)" fill="#a6a6a6" stroke="#263238" stroke-linecap="round" stroke-linejoin="round" stroke-width="1"/>
      <path id="Trazado_105914" data-name="Trazado 105914" d="M1524.272,7055.293c5.463-.8,14.68-2.952,30.248-7.989,37.061-11.995,41.727-45.521,67.856-51.233l-92.384-4.089Z" transform="translate(-1523.862 -6991.981)" fill="#344154" stroke="#263238" stroke-linecap="round" stroke-linejoin="round" stroke-width="1"/>
      <ellipse id="Elipse_4066" data-name="Elipse 4066" cx="7.086" cy="5.447" rx="7.086" ry="5.447" transform="translate(41.56 29.163)" fill="#fff" stroke="#263238" stroke-linecap="round" stroke-linejoin="round" stroke-width="1"/>
    </g>
  </g>
</svg>
