<svg xmlns="http://www.w3.org/2000/svg" width="358.058" height="348.513" viewBox="0 0 358.058 348.513">
  <g id="Grupo_59417" data-name="Grupo 59417" transform="translate(-63.421 -1204.116)">
    <g id="freepik--background-simple--inject-279" transform="translate(69.956 1236.827)">
      <path id="Trazado_103657" data-name="Trazado 103657" d="M349.252,1305.135c-13.13-19.368-24.024-43.591-45.256-55.562-30.2-17.024-59.223,6.122-83.67,22.458-12.84,8.574-26.509,17.5-42.067,19.99-22.251,3.562-44.85-6.288-66.911-.257-37.279,10.19-47.476,55.5-34.942,87.7,17.4,44.734,56.332,92.782,63.788,129.232s42.249,62.131,101.895,45.563,56.332-54.675,109.351-62.959,78.7-46.391,69.587-94.439c-4.482-23.651-19.012-41.006-37.908-54.94C369.6,1331.984,358.646,1318.986,349.252,1305.135Z" transform="translate(-71.31 -1243.603)" fill="#d9a171"/>
      <g id="Grupo_59416" data-name="Grupo 59416" opacity="0.7">
        <path id="Trazado_103658" data-name="Trazado 103658" d="M349.252,1305.135c-13.13-19.368-24.024-43.591-45.256-55.562-30.2-17.024-59.223,6.122-83.67,22.458-12.84,8.574-26.509,17.5-42.067,19.99-22.251,3.562-44.85-6.288-66.911-.257-37.279,10.19-47.476,55.5-34.942,87.7,17.4,44.734,56.332,92.782,63.788,129.232s42.249,62.131,101.895,45.563,56.332-54.675,109.351-62.959,78.7-46.391,69.587-94.439c-4.482-23.651-19.012-41.006-37.908-54.94C369.6,1331.984,358.646,1318.986,349.252,1305.135Z" transform="translate(-71.31 -1243.603)" fill="#fff"/>
      </g>
    </g>
    <g id="freepik--Plants--inject-279" transform="translate(73.375 1204.116)">
      <path id="Trazado_103659" data-name="Trazado 103659" d="M152.462,1223.359s4.4-3.471,5.526-5.7c.961-1.9,1.657-4.581.663-6.627a3.771,3.771,0,0,0-5.343-1.69c-2.709,1.657-3,7.456-2.311,10.189C151.053,1219.772,152.42,1223.425,152.462,1223.359Z" transform="translate(-88.348 -1204.923)" fill="#6595bf"/>
      <path id="Trazado_103660" data-name="Trazado 103660" d="M102.925,1258.84c.174.166,3.314,2.435,3.314,2.377s1.781-5.318,1.483-7.8c-.249-2.113-1.152-4.739-3.09-5.874a3.777,3.777,0,0,0-5.213,1.167,3.883,3.883,0,0,0-.2.349C97.9,1251.964,100.821,1256.909,102.925,1258.84Z" transform="translate(-79.461 -1211.467)" fill="#6595bf"/>
      <path id="Trazado_103661" data-name="Trazado 103661" d="M211.664,1232.72s-16.1,16.618-16.013,37.055,16.336,36.889,16.336,36.889,16.1-16.618,16-37.03S211.664,1232.72,211.664,1232.72Z" transform="translate(-96.064 -1209.024)" fill="#aed3f2"/>
      <path id="Trazado_103662" data-name="Trazado 103662" d="M168.082,1277.069a6.139,6.139,0,0,0,.588-.737c1.168-1.773,2.17-4.357,1.417-6.478a3.778,3.778,0,0,0-4.743-2.458c-.124.04-.248.086-.368.138-2.187,1.036-3.264,4.54-3.5,7.406-.828-.2-1.657-.356-2.328-.464-.29-.654-.58-1.309-.878-1.963s-.538-1.367-.828-2.055c-.389-1.019-.737-2.087-1.085-3.156,1.276-.572,4.97-2.3,6.362-3.836s2.808-3.976,2.386-6.188a3.773,3.773,0,0,0-4.705-3.065c-3.057.9-4.854,6.371-4.912,9.212a10.021,10.021,0,0,0,.108,1.417c-.307-1.06-.621-2.1-.895-3.181-.787-3.057-1.491-6.2-2.212-9.336-.149-.655-.307-1.309-.464-1.964,1.077-.472,5.111-2.319,6.561-3.918s2.8-3.976,2.378-6.188a3.761,3.761,0,0,0-4.282-3.155,3.689,3.689,0,0,0-.423.089c-3.049.9-4.846,6.37-4.912,9.212,0,.108.058.828.133,1.657-.414-1.707-.828-3.4-1.334-5.062a66.376,66.376,0,0,0-3.007-8.384c.381-.166,5.153-2.228,6.76-4.01,1.425-1.582,2.808-3.985,2.386-6.2a3.777,3.777,0,0,0-4.317-3.147,3.887,3.887,0,0,0-.389.082c-3.057.911-4.854,6.37-4.912,9.22,0,.2.232,2.8.348,3.728v-.1a49.474,49.474,0,0,0-4.382-7.572,66.676,66.676,0,0,0-4.838-6.139c-1.582-1.831-3.148-3.4-4.548-4.788-.754-.746-1.466-1.408-2.137-2.021h.066c.058,0-1.491-3.554-1.607-3.769-1.433-2.485-5.642-6.387-8.756-5.708a3.78,3.78,0,0,0-2.643,4.97c.7,2.137,3.065,3.587,5.078,4.275s6.561.373,7.671.273c.688.646,1.408,1.35,2.187,2.146,1.359,1.417,2.883,3.015,4.424,4.871.414.5.828,1.044,1.251,1.566-.886-.737-2.121-1.723-2.253-1.806-2.4-1.533-7.944-3.073-10.4-1.036a3.777,3.777,0,0,0-.058,5.617c1.6,1.574,4.366,1.765,6.47,1.458s6.122-2.775,6.967-3.314c.911,1.176,1.822,2.4,2.692,3.736a48.443,48.443,0,0,1,4.142,7.563c.066.157.116.323.174.472-.373-.439-2.609-2.7-2.792-2.842-2.22-1.781-7.555-3.918-10.214-2.162a3.769,3.769,0,0,0-.935,5.248,3.892,3.892,0,0,0,.256.327c1.417,1.74,4.142,2.237,6.271,2.154,2.485-.083,7.273-2.485,7.456-2.609a65.568,65.568,0,0,1,2.725,8.177c.547,2.054,1.019,4.142,1.475,6.279-.5-.563-2.585-2.659-2.75-2.8-2.22-1.781-7.555-3.918-10.223-2.162a3.781,3.781,0,0,0-.679,5.575c1.425,1.74,4.142,2.237,6.279,2.154,2.386-.083,7.025-2.394,7.456-2.593.207.961.414,1.922.613,2.891.654,3.148,1.292,6.313,2.013,9.411.257,1.077.538,2.129.828,3.181-.779-.828-2.228-2.278-2.361-2.386-2.22-1.789-7.563-3.927-10.223-2.17a3.769,3.769,0,0,0-.935,5.248,3.878,3.878,0,0,0,.256.327c1.417,1.748,4.142,2.237,6.271,2.162s6.072-1.938,7.174-2.485c.489,1.748,1,3.471,1.6,5.145.273.712.5,1.458.828,2.129l.456,1.069-.621-.058s0,1,.058,2.618c-2.344-1.657-5.724-3.107-7.92-2.1a3.778,3.778,0,0,0-1.712,5.061,3.985,3.985,0,0,0,.2.349,4.418,4.418,0,0,0,.489.671,14.661,14.661,0,0,0,3.032,6.751c.116.133,1.707,1.607,2.543,2.336-.828-.431-1.607-.828-2.436-1.334-1.193-.663-2.436-1.4-3.645-2.112l-1.93-1.234c-.638-.389-1.2-.828-1.814-1.259-.886-.638-1.765-1.334-2.643-2.038.746-1.176,2.883-4.664,3.2-6.7s.141-4.871-1.433-6.478a3.778,3.778,0,0,0-5.335-.282,3.939,3.939,0,0,0-.282.282c-2.046,2.485-.53,7.994.986,10.4.05.075.422.555.828,1.11-.828-.7-1.657-1.408-2.485-2.154-2.336-2.121-4.656-4.349-6.992-6.569l-1.425-1.35c.638-.986,2.982-4.747,3.314-6.876s.141-4.871-1.425-6.487a3.777,3.777,0,0,0-5.335-.282,3.965,3.965,0,0,0-.282.282c-2.046,2.485-.53,7.986.986,10.4.05.091.5.654,1,1.284-1.284-1.185-2.576-2.361-3.9-3.479a66.448,66.448,0,0,0-7.133-5.335c.224-.348,3.065-4.705,3.43-7.075.315-2.1.141-4.871-1.433-6.478a3.769,3.769,0,0,0-5.323-.286,3.887,3.887,0,0,0-.286.286c-2.054,2.485-.538,7.994.978,10.4.108.166,1.748,2.212,2.353,2.916l-.091-.058a48.864,48.864,0,0,0-7.828-3.9A67.766,67.766,0,0,0,99.589,1253c-2.336-.654-4.507-1.1-6.428-1.491-1.052-.2-2-.356-2.908-.505h.058c.041,0-3.206-2.146-3.43-2.253-2.543-1.267-8.218-2.212-10.446.066a3.78,3.78,0,0,0,.53,5.592c1.765,1.4,4.531,1.3,6.627.771s5.675-3.314,6.544-4.01c.928.166,1.922.356,3.015.588,1.914.422,4.068.92,6.37,1.657.621.19,1.276.414,1.914.613-1.152-.116-2.725-.265-2.883-.265-2.841.058-8.284,1.823-9.237,4.879a3.761,3.761,0,0,0,2.628,4.624,3.7,3.7,0,0,0,.413.089c2.212.431,4.623-.936,6.2-2.353s3.57-5.691,3.985-6.627a44.231,44.231,0,0,1,4.3,1.657,48.829,48.829,0,0,1,7.646,4.018c.141.091.273.207.414.3-.555-.157-3.67-.828-3.894-.828-2.833-.265-8.466.895-9.717,3.827a3.761,3.761,0,0,0,2.1,4.888,3.652,3.652,0,0,0,.389.132c2.154.671,4.7-.422,6.428-1.657,2-1.425,4.672-6.122,4.772-6.3a65.975,65.975,0,0,1,6.785,5.318c1.591,1.417,3.148,2.908,4.7,4.424-.729-.191-3.62-.828-3.836-.828-2.833-.265-8.466.895-9.717,3.827a3.778,3.778,0,0,0,2.118,4.9,3.625,3.625,0,0,0,.367.124c2.154.671,4.7-.422,6.428-1.657,1.947-1.392,4.531-5.873,4.755-6.255l2.1,2.071c2.278,2.27,4.556,4.556,6.876,6.743.828.754,1.657,1.475,2.436,2.2-1.1-.249-3.115-.671-3.314-.688-2.841-.257-8.466.9-9.726,3.836a3.769,3.769,0,0,0,2.112,4.894c.122.048.247.09.373.126,2.146.671,4.7-.422,6.428-1.657s3.993-4.97,4.614-6.023c1.367,1.185,2.75,2.336,4.142,3.4.621.447,1.226.944,1.847,1.342l1.831,1.226c1.276.828,2.485,1.532,3.678,2.237.6.365,1.185.688,1.781,1.036-1.077-.422-2.792-1.06-2.957-1.1-2.759-.688-8.508-.4-10.189,2.311a3.77,3.77,0,0,0,1.356,5.155,3.944,3.944,0,0,0,.367.188c2.021.994,4.705.3,6.627-.663,2.088-1.06,5.236-4.97,5.617-5.434,1.466.828,2.9,1.657,4.25,2.353,3.612,1.938,6.768,3.479,9.212,4.623,7.953,6.876,19.145,7.638,19.145,7.638s.588-13.4-7.3-22.226A27.625,27.625,0,0,0,168.082,1277.069Zm-14.191,13.064c.249-.547,2.154-4.8,2.286-7.207.439-.083.886-.174,1.317-.273a30.971,30.971,0,0,0,4.97,11.8c-1.45-.688-3.015-1.45-4.672-2.295Q155.879,1291.219,153.891,1290.133Z" transform="translate(-75.437 -1204.116)" fill="#6595bf"/>
      <path id="Trazado_103663" data-name="Trazado 103663" d="M251.9,1289.08s-13.412.414-21.622,8.939-8.1,21.945-8.1,21.945,13.412-.414,21.613-8.939S251.9,1289.08,251.9,1289.08Z" transform="translate(-100.617 -1218.694)" fill="#aed3f2"/>
      <path id="Trazado_103664" data-name="Trazado 103664" d="M212.849,1288.05l13.172-11.838-.563-.63-12.617,11.341-.066-15.525.075.05,11.134-16.287-.7-.48-10.513,15.375-.166-37.337h-.845l.108,25.349-8.384-7.257-.547.638,8.939,7.738.075,18.126-12.708-11.25-.555.638,13.271,11.739.066,16.5-9.552-7.5-.514.671,10.074,7.9.05,10.62h.845l-.083-18.59Z" transform="translate(-96.586 -1209.024)" fill="#fff"/>
      <path id="Trazado_103665" data-name="Trazado 103665" d="M196.322,1302.161l-.837-.1-1.06,9.378-5.658-6.321h.017l-1.441-11.349-.837.108,1.284,10.148-14.058-15.715-.63.563,9.543,10.662-6.039.074.008.845,6.776-.083,6.685,7.481-9.444.008v.845l10.2-.008,6.081,6.793-6.66.406.058.837,7.323-.439,4.051,4.531.63-.563-7.133-7.978Z" transform="translate(-92.195 -1218.562)" fill="#fff"/>
      <path id="Trazado_103666" data-name="Trazado 103666" d="M236.507,1305.572l11.217-2.27-.174-.828-10.024,2.03,14.613-15.185-.6-.588-9.916,10.306-.53-6.014-.837.074.588,6.752-6.959,7.224-.712-9.419-.845.066.77,10.173-6.321,6.569-.895-6.611-.845.108.994,7.282-4.217,4.374.6.58,7.423-7.7,10.181.389.033-.845-9.427-.356,5.882-6.114Z" transform="translate(-100.553 -1218.634)" fill="#fff"/>
    </g>
    <g id="freepik--Document--inject-279" transform="translate(63.421 1266.259)">
      <path id="Trazado_103667" data-name="Trazado 103667" d="M230.255,1560.882,131.591,1380.76l-68.17,23.071,22.11,42.995-1.4-2.4-4.142,1.375a3.018,3.018,0,0,0-1.723,4.241l10.9,21.2a7.174,7.174,0,0,0,7.572,3.8l3.024-.505,53.1,103.262Z" transform="translate(-63.421 -1296.568)" fill="#344154"/>
      <path id="Trazado_103668" data-name="Trazado 103668" d="M308.113,1285.55h0a4.565,4.565,0,0,1-6.188-1.806l-2.527-4.614-153.687,84.192,98.664,180.122,153.7-84.183L344.356,1361.2a4.557,4.557,0,0,1,1.806-6.18h0a4.557,4.557,0,0,0,1.808-6.185l0,0-33.675-61.476A4.556,4.556,0,0,0,308.113,1285.55Z" transform="translate(-77.541 -1279.13)" fill="#d9a171" stroke="#2e353a" stroke-linecap="round" stroke-linejoin="round" stroke-width="1"/>
      <rect id="Rectángulo_5560" data-name="Rectángulo 5560" width="132.513" height="177.487" transform="translate(113.398 57.561) rotate(-19.62)" fill="#fff" stroke="#2e353a" stroke-linecap="round" stroke-linejoin="round" stroke-width="1"/>
      <rect id="Rectángulo_5561" data-name="Rectángulo 5561" width="132.513" height="65.387" transform="translate(113.405 57.567) rotate(-19.62)" fill="#fff" stroke="#2e353a" stroke-linecap="round" stroke-linejoin="round" stroke-width="1"/>
      <circle id="Elipse_4030" data-name="Elipse 4030" cx="19.99" cy="19.99" r="19.99" transform="translate(197.86 39.482)" fill="#344154" stroke="#2e353a" stroke-linecap="round" stroke-linejoin="round" stroke-width="1"/>
      <path id="Trazado_103669" data-name="Trazado 103669" d="M330.857,1369.136a19.947,19.947,0,0,0,12.07-11.987c-3.471-7.771-11.954-11.821-19.592-9.113s-11.639,11.233-9.411,19.443A19.958,19.958,0,0,0,330.857,1369.136Z" transform="translate(-106.299 -1290.809)" fill="#fff" stroke="#2e353a" stroke-linecap="round" stroke-linejoin="round" stroke-width="1"/>
      <circle id="Elipse_4031" data-name="Elipse 4031" cx="10.131" cy="10.131" r="10.131" transform="matrix(0.749, -0.662, 0.662, 0.749, 202.21, 54.875)" fill="#fff" stroke="#2e353a" stroke-linecap="round" stroke-linejoin="round" stroke-width="1"/>
      <rect id="Rectángulo_5562" data-name="Rectángulo 5562" width="46.375" height="5.327" transform="translate(132.195 75.576) rotate(-19.62)" fill="#fff" stroke="#2e353a" stroke-linecap="round" stroke-linejoin="round" stroke-width="1"/>
      <rect id="Rectángulo_5563" data-name="Rectángulo 5563" width="46.375" height="5.327" transform="translate(136.498 87.632) rotate(-19.62)" fill="#fff" stroke="#2e353a" stroke-linecap="round" stroke-linejoin="round" stroke-width="1"/>
      <rect id="Rectángulo_5564" data-name="Rectángulo 5564" width="46.375" height="2.667" transform="translate(140.069 97.665) rotate(-19.62)" fill="#344154"/>
      <rect id="Rectángulo_5565" data-name="Rectángulo 5565" width="46.375" height="2.667" transform="translate(142.218 103.694) rotate(-19.62)" fill="#344154"/>
      <rect id="Rectángulo_5566" data-name="Rectángulo 5566" width="46.375" height="2.667" transform="translate(153.136 134.322) rotate(-19.62)" fill="#344154"/>
      <rect id="Rectángulo_5567" data-name="Rectángulo 5567" width="46.375" height="2.667" transform="translate(155.101 139.85) rotate(-19.62)" fill="#344154"/>
      <rect id="Rectángulo_5568" data-name="Rectángulo 5568" width="46.375" height="2.667" transform="translate(157.073 145.37) rotate(-19.62)" fill="#344154"/>
      <rect id="Rectángulo_5569" data-name="Rectángulo 5569" width="46.375" height="2.667" transform="translate(212.382 113.199) rotate(-19.62)" fill="#344154"/>
      <rect id="Rectángulo_5570" data-name="Rectángulo 5570" width="46.375" height="2.667" transform="translate(214.355 118.727) rotate(-19.62)" fill="#344154"/>
      <rect id="Rectángulo_5571" data-name="Rectángulo 5571" width="46.375" height="2.667" transform="translate(216.32 124.25) rotate(-19.62)" fill="#344154"/>
      <line id="Línea_248" data-name="Línea 248" y1="37.577" x2="105.449" transform="translate(150.332 92.103)" fill="none" stroke="#2e353a" stroke-linecap="round" stroke-linejoin="round" stroke-width="1"/>
      <rect id="Rectángulo_5572" data-name="Rectángulo 5572" width="46.375" height="2.667" transform="translate(163.339 162.941) rotate(-19.62)" fill="#344154"/>
      <rect id="Rectángulo_5573" data-name="Rectángulo 5573" width="46.375" height="2.667" transform="translate(165.304 168.472) rotate(-19.62)" fill="#344154"/>
      <rect id="Rectángulo_5574" data-name="Rectángulo 5574" width="46.375" height="2.667" transform="translate(167.277 173.993) rotate(-19.62)" fill="#344154"/>
      <rect id="Rectángulo_5575" data-name="Rectángulo 5575" width="46.375" height="2.667" transform="translate(222.585 141.821) rotate(-19.62)" fill="#344154"/>
      <rect id="Rectángulo_5576" data-name="Rectángulo 5576" width="46.375" height="2.667" transform="translate(224.558 147.349) rotate(-19.62)" fill="#344154"/>
      <rect id="Rectángulo_5577" data-name="Rectángulo 5577" width="46.375" height="2.667" transform="translate(226.523 152.872) rotate(-19.62)" fill="#344154"/>
      <line id="Línea_249" data-name="Línea 249" y1="37.577" x2="105.449" transform="translate(160.53 120.725)" fill="none" stroke="#2e353a" stroke-linecap="round" stroke-linejoin="round" stroke-width="1"/>
      <rect id="Rectángulo_5578" data-name="Rectángulo 5578" width="109.814" height="26.65" transform="translate(170.703 185.211) rotate(-19.62)" fill="#344154" stroke="#2e353a" stroke-linecap="round" stroke-linejoin="round" stroke-width="1"/>
      <rect id="Rectángulo_5579" data-name="Rectángulo 5579" width="132.513" height="177.487" transform="translate(100.091 75.637) rotate(-23.21)" fill="#fff" stroke="#2e353a" stroke-linecap="round" stroke-linejoin="round" stroke-width="1"/>
      <rect id="Rectángulo_5580" data-name="Rectángulo 5580" width="132.513" height="65.387" transform="translate(100.098 75.64) rotate(-23.21)" fill="#fff" stroke="#2e353a" stroke-linecap="round" stroke-linejoin="round" stroke-width="1"/>
      <circle id="Elipse_4032" data-name="Elipse 4032" cx="19.99" cy="19.99" r="19.99" transform="translate(184.459 51.033)" fill="#344154" stroke="#2e353a" stroke-linecap="round" stroke-linejoin="round" stroke-width="1"/>
      <path id="Trazado_103670" data-name="Trazado 103670" d="M316.017,1382.543a19.948,19.948,0,0,0,11.291-12.724c-3.943-7.53-12.666-11.051-20.114-7.853s-10.91,11.938-8.176,19.99A19.964,19.964,0,0,0,316.017,1382.543Z" transform="translate(-103.687 -1293.141)" fill="#fff" stroke="#2e353a" stroke-linecap="round" stroke-linejoin="round" stroke-width="1"/>
      <circle id="Elipse_4033" data-name="Elipse 4033" cx="10.131" cy="10.131" r="10.131" transform="matrix(0.731, -0.682, 0.682, 0.731, 188.562, 66.865)" fill="#fff" stroke="#2e353a" stroke-linecap="round" stroke-linejoin="round" stroke-width="1"/>
      <rect id="Rectángulo_5581" data-name="Rectángulo 5581" width="46.375" height="5.327" transform="translate(119.976 92.446) rotate(-23.21)" fill="#fff" stroke="#2e353a" stroke-linecap="round" stroke-linejoin="round" stroke-width="1"/>
      <rect id="Rectángulo_5582" data-name="Rectángulo 5582" width="46.375" height="5.327" transform="translate(125.02 104.202) rotate(-23.21)" fill="#fff" stroke="#2e353a" stroke-linecap="round" stroke-linejoin="round" stroke-width="1"/>
      <rect id="Rectángulo_5583" data-name="Rectángulo 5583" width="46.375" height="2.667" transform="translate(129.224 113.996) rotate(-23.21)" fill="#344154"/>
      <rect id="Rectángulo_5584" data-name="Rectángulo 5584" width="46.375" height="2.667" transform="translate(131.744 119.876) rotate(-23.21)" fill="#344154"/>
      <rect id="Rectángulo_5585" data-name="Rectángulo 5585" width="46.375" height="2.667" transform="translate(144.562 149.76) rotate(-23.21)" fill="#344154"/>
      <rect id="Rectángulo_5586" data-name="Rectángulo 5586" width="46.375" height="2.667" transform="translate(146.873 155.147) rotate(-23.21)" fill="#344154"/>
      <rect id="Rectángulo_5587" data-name="Rectángulo 5587" width="46.375" height="2.667" transform="translate(149.177 160.547) rotate(-23.21)" fill="#344154"/>
      <rect id="Rectángulo_5588" data-name="Rectángulo 5588" width="46.375" height="2.667" transform="translate(202.365 124.982) rotate(-23.21)" fill="#344154"/>
      <rect id="Rectángulo_5589" data-name="Rectángulo 5589" width="46.375" height="2.667" transform="translate(204.672 130.362) rotate(-23.21)" fill="#344154"/>
      <rect id="Rectángulo_5590" data-name="Rectángulo 5590" width="46.375" height="2.667" transform="translate(206.992 135.758) rotate(-23.21)" fill="#344154"/>
      <line id="Línea_250" data-name="Línea 250" y1="44.113" x2="102.889" transform="translate(141.468 101.191)" fill="none" stroke="#2e353a" stroke-linecap="round" stroke-linejoin="round" stroke-width="1"/>
      <rect id="Rectángulo_5591" data-name="Rectángulo 5591" width="46.375" height="2.667" transform="translate(156.533 177.691) rotate(-23.21)" fill="#344154"/>
      <rect id="Rectángulo_5592" data-name="Rectángulo 5592" width="46.375" height="2.667" transform="translate(158.849 183.071) rotate(-23.21)" fill="#344154"/>
      <rect id="Rectángulo_5593" data-name="Rectángulo 5593" width="46.375" height="2.667" transform="translate(161.16 188.467) rotate(-23.21)" fill="#344154"/>
      <rect id="Rectángulo_5594" data-name="Rectángulo 5594" width="46.375" height="2.667" transform="translate(214.347 152.902) rotate(-23.21)" fill="#344154"/>
      <rect id="Rectángulo_5595" data-name="Rectángulo 5595" width="46.375" height="2.667" transform="translate(216.655 158.282) rotate(-23.21)" fill="#344154"/>
      <rect id="Rectángulo_5596" data-name="Rectángulo 5596" width="46.375" height="2.667" transform="translate(218.959 163.681) rotate(-23.21)" fill="#344154"/>
      <line id="Línea_251" data-name="Línea 251" y1="44.113" x2="102.889" transform="translate(153.439 129.116)" fill="none" stroke="#2e353a" stroke-linecap="round" stroke-linejoin="round" stroke-width="1"/>
      <rect id="Rectángulo_5597" data-name="Rectángulo 5597" width="109.814" height="26.65" transform="translate(165.28 199.453) rotate(-23.21)" fill="#344154" stroke="#2e353a" stroke-linecap="round" stroke-linejoin="round" stroke-width="1"/>
      <rect id="Rectángulo_5598" data-name="Rectángulo 5598" width="132.513" height="177.487" transform="matrix(0.839, -0.544, 0.544, 0.839, 82.882, 94.487)" fill="#fff" stroke="#2e353a" stroke-linecap="round" stroke-linejoin="round" stroke-width="1"/>
      <rect id="Rectángulo_5599" data-name="Rectángulo 5599" width="132.513" height="65.387" transform="matrix(0.839, -0.544, 0.544, 0.839, 82.887, 94.494)" fill="#fff" stroke="#2e353a" stroke-linecap="round" stroke-linejoin="round" stroke-width="1"/>
      <circle id="Elipse_4034" data-name="Elipse 4034" cx="19.99" cy="19.99" r="19.99" transform="translate(164.94 52.204)" fill="#344154" stroke="#2e353a" stroke-linecap="round" stroke-linejoin="round" stroke-width="1"/>
      <rect id="Rectángulo_5600" data-name="Rectángulo 5600" width="46.375" height="5.327" transform="matrix(0.839, -0.544, 0.544, 0.839, 105.328, 107.672)" fill="#fff" stroke="#2e353a" stroke-linecap="round" stroke-linejoin="round" stroke-width="1"/>
      <rect id="Rectángulo_5601" data-name="Rectángulo 5601" width="46.375" height="5.327" transform="matrix(0.839, -0.544, 0.544, 0.839, 112.291, 118.402)" fill="#fff" stroke="#2e353a" stroke-linecap="round" stroke-linejoin="round" stroke-width="1"/>
      <rect id="Rectángulo_5602" data-name="Rectángulo 5602" width="46.31" height="2.664" transform="matrix(0.841, -0.541, 0.541, 0.841, 117.343, 128.237)" fill="#344154"/>
      <rect id="Rectángulo_5603" data-name="Rectángulo 5603" width="46.375" height="2.667" transform="matrix(0.839, -0.544, 0.544, 0.839, 121.584, 132.704)" fill="#344154"/>
      <rect id="Rectángulo_5604" data-name="Rectángulo 5604" width="46.375" height="2.667" transform="matrix(0.839, -0.544, 0.544, 0.839, 139.294, 159.976)" fill="#344154"/>
      <rect id="Rectángulo_5605" data-name="Rectángulo 5605" width="46.375" height="2.667" transform="matrix(0.839, -0.544, 0.544, 0.839, 142.486, 164.902)" fill="#344154"/>
      <rect id="Rectángulo_5606" data-name="Rectángulo 5606" width="46.375" height="2.667" transform="matrix(0.839, -0.544, 0.544, 0.839, 145.678, 169.827)" fill="#344154"/>
      <rect id="Rectángulo_5607" data-name="Rectángulo 5607" width="46.375" height="2.667" transform="matrix(0.839, -0.544, 0.544, 0.839, 192.054, 125.724)" fill="#344154"/>
      <rect id="Rectángulo_5608" data-name="Rectángulo 5608" width="46.375" height="2.667" transform="matrix(0.839, -0.544, 0.544, 0.839, 195.253, 130.645)" fill="#344154"/>
      <rect id="Rectángulo_5609" data-name="Rectángulo 5609" width="46.375" height="2.667" transform="matrix(0.839, -0.544, 0.544, 0.839, 198.445, 135.571)" fill="#344154"/>
      <line id="Línea_252" data-name="Línea 252" y1="60.963" x2="93.892" transform="translate(135.504 95.11)" fill="none" stroke="#2e353a" stroke-linecap="round" stroke-linejoin="round" stroke-width="1"/>
      <rect id="Rectángulo_5610" data-name="Rectángulo 5610" width="46.375" height="2.667" transform="matrix(0.839, -0.544, 0.544, 0.839, 155.841, 185.471)" fill="#344154"/>
      <rect id="Rectángulo_5611" data-name="Rectángulo 5611" width="46.375" height="2.667" transform="matrix(0.839, -0.544, 0.544, 0.839, 159.028, 190.389)" fill="#344154"/>
      <rect id="Rectángulo_5612" data-name="Rectángulo 5612" width="46.375" height="2.667" transform="matrix(0.839, -0.544, 0.544, 0.839, 162.228, 195.302)" fill="#344154"/>
      <rect id="Rectángulo_5613" data-name="Rectángulo 5613" width="46.375" height="2.667" transform="matrix(0.839, -0.544, 0.544, 0.839, 208.6, 151.219)" fill="#344154"/>
      <rect id="Rectángulo_5614" data-name="Rectángulo 5614" width="46.375" height="2.667" transform="matrix(0.839, -0.544, 0.544, 0.839, 211.795, 156.133)" fill="#344154"/>
      <rect id="Rectángulo_5615" data-name="Rectángulo 5615" width="46.375" height="2.667" transform="matrix(0.839, -0.544, 0.544, 0.839, 214.979, 161.059)" fill="#344154"/>
      <line id="Línea_253" data-name="Línea 253" y1="60.955" x2="93.892" transform="translate(152.047 120.6)" fill="none" stroke="#2e353a" stroke-linecap="round" stroke-linejoin="round" stroke-width="1"/>
      <rect id="Rectángulo_5616" data-name="Rectángulo 5616" width="109.814" height="26.65" transform="matrix(0.839, -0.544, 0.544, 0.839, 168.168, 205.435)" fill="#344154" stroke="#2e353a" stroke-linecap="round" stroke-linejoin="round" stroke-width="1"/>
      <path id="Trazado_103671" data-name="Trazado 103671" d="M133.508,1371.313,74.591,1325.7l35.058,65.768c.828,1.591-1.367,1.889-3.6.481h0c-2.262-1.417-4.49-1.1-3.6.505l18.184,33.054a4.136,4.136,0,0,0,1.118,1.2l8.881,6.694a3.953,3.953,0,0,1,1.135,1.234l36.79,69.877,63.63,46.921Z" transform="translate(-65.338 -1287.121)" fill="#d9a171" stroke="#2e353a" stroke-linecap="round" stroke-linejoin="round" stroke-width="1"/>
      <path id="Trazado_103672" data-name="Trazado 103672" d="M133.508,1371.313,74.591,1325.7l35.058,65.768c.828,1.591-1.367,1.889-3.6.481h0c-2.262-1.417-4.49-1.1-3.6.505l18.184,33.054a4.136,4.136,0,0,0,1.118,1.2l8.881,6.694a3.953,3.953,0,0,1,1.135,1.234l36.79,69.877,63.63,46.921Z" transform="translate(-65.338 -1287.121)" fill="#344154" stroke="#2e353a" stroke-linecap="round" stroke-linejoin="round" stroke-width="1" opacity="0.25" style="isolation: isolate"/>
    </g>
    <g id="freepik--Character--inject-279" transform="translate(299.925 1278.195)">
      <path id="Trazado_103673" data-name="Trazado 103673" d="M431.529,1501.9a.124.124,0,0,0-.066-.066c-.969-.423-9.113-.348-9.328.133,0,.058.041.132.166.215a3.587,3.587,0,0,0,.547.282c.232.1.514.207.828.315s.613.215.936.315l1.383.431.729.215.48.133-8.433,8.16a63.9,63.9,0,0,1-5.526,4.507l-.381-.381a18.514,18.514,0,0,0-1.748-1.491v-.215a18.145,18.145,0,0,1-2.228,1.209c-2.883,1.45-10.968,5.078-13.851,10.894a90.8,90.8,0,0,1-4.8,8.6v.381H390c-2.792-.24-8.11,1.615-12.02,3.546a88.066,88.066,0,0,0-9.626,6.172h0l-3.032,1.069c-1.1.157-3.123.414-3.4.754s-2.245,0-3.115.216-.621.828-.621.828l1.657.157-10.927,3.8,8.789,6.975,11.921-4.424.638.157a5.1,5.1,0,0,0,3.827-.34,12.629,12.629,0,0,0,1.234-.539c2.2-.29,8.905-1.764,11.233-2.278,1.748,2.369,6.735,6.354,7.588,8.077a1.892,1.892,0,0,1,.1.282v.066a.451.451,0,0,1,0,.215,12.346,12.346,0,0,1-1.533,2.709,22.3,22.3,0,0,0-3.5-1.118c-4.531-1.044-7.008,3.662-7.8,3.894s-1.748.928-.828,1.59-.472,1.276-1.035,2.17a7.612,7.612,0,0,0-.7,2.245c-2.991.257-5.55,1.491-6.213,3.314-.828,2.328,6.718,4.034,6.718,4.034s10.446,4.084,18.416,1.524,7.663-6.826,8.284-9.113,7.124-7.911,14.423-11.83,10.471-7.456,3.529-12.766c-4.556-3.488-8.566-5.161-11.871-5.293h0c.083-.2.174-.4.265-.588l.166-.365c.1-.207.215-.406.323-.613l.166-.3c.174-.3.356-.588.555-.878a10.24,10.24,0,0,0,.9-1.558,8.284,8.284,0,0,0,.6-5.409,6.753,6.753,0,0,1-.232-1.607c.166-1.085,1.972-5.351,2.436-7.249a1.522,1.522,0,0,0,0-.4,4.206,4.206,0,0,0-.5-1.524c1.864-1.11,5.617-3.131,7.34-5.045s5.492-8.731,6.9-12.227h0c.058-.141.108-.282.157-.414h0c.05-.124.091-.257.133-.373h0q.05-.174.1-.323v-.042a1.216,1.216,0,0,1,.066-.248.071.071,0,0,1,0-.042v-.257a.707.707,0,0,0,0-.133v-.066S431.537,1501.924,431.529,1501.9Zm-44.014,46.631c-2.56.712-8.458,2.576-11.6,3.62l-5.8-5.31c1.408-.729,4.531-2.088,8.077-3.612a49.11,49.11,0,0,1,10.173-2.61,4.957,4.957,0,0,1,.555,1.715,19.625,19.625,0,0,0,1.243,2.982A10.778,10.778,0,0,1,387.515,1548.53Z" transform="translate(-348.911 -1329.232)" fill="#344154"/>
      <path id="Trazado_103674" data-name="Trazado 103674" d="M436.661,1451.9a155.8,155.8,0,0,1,4.349,16.088c1.168,6.4,3.612,19.733,3.612,19.733s-6.147.348-6.255,1.35,8.11,4.97,9.336,4.581,1.93-25.4,1.193-31.082-4.664-13.255-4.97-14.961-.978-5.029-.978-5.029Z" transform="translate(-363.968 -1319.112)" fill="#ffbf9d" stroke="#2e353a" stroke-linecap="round" stroke-linejoin="round" stroke-width="1"/>
      <path id="Trazado_103675" data-name="Trazado 103675" d="M448.055,1503c.307-.091.58-1.657.828-4.142a3.079,3.079,0,0,1-4.142,0l.224-1.773s-6.147.348-6.255,1.35S446.829,1503.386,448.055,1503Z" transform="translate(-364.319 -1328.465)" fill="#d9a171" stroke="#2e353a" stroke-linecap="round" stroke-linejoin="round" stroke-width="1"/>
      <path id="Trazado_103676" data-name="Trazado 103676" d="M429.581,1361.112s-9.759-10.057-11.208-10.769-1.955.828-1.541,1.7,10.339,14.025,12.02,15.74S429.581,1361.112,429.581,1361.112Z" transform="translate(-360.541 -1303.254)" fill="#ffbf9d" stroke="#2e353a" stroke-linecap="round" stroke-linejoin="round" stroke-width="1"/>
      <path id="Trazado_103677" data-name="Trazado 103677" d="M398.982,1328.99l-13.081,9.427,15.475,22.326,11.962-10.065Z" transform="translate(-355.258 -1299.622)" fill="#344154" stroke="#2e353a" stroke-linecap="round" stroke-linejoin="round" stroke-width="1"/>
      <path id="Trazado_103678" data-name="Trazado 103678" d="M399.509,1331.92l-11.068,7.978,13.1,18.9,10.123-8.516Z" transform="translate(-355.694 -1300.124)" fill="#d9a171" stroke="#2e353a" stroke-linecap="round" stroke-linejoin="round" stroke-width="1"/>
      <path id="Trazado_103679" data-name="Trazado 103679" d="M417.991,1351.34a18.06,18.06,0,0,0-1.557-3c-1.077-1.657-1.765-2.543-3.662-2.436a20.7,20.7,0,0,1-4.208-.307c-1.085-.116-1.1,1.45-.53,1.988s3.728.406,3.728.406c-.323-.422-.083.265,2,3.14.588.828,2.651.969,3.115,1.019" transform="translate(-358.992 -1302.47)" fill="#ffbf9d" stroke="#2e353a" stroke-linecap="round" stroke-linejoin="round" stroke-width="1"/>
      <path id="Trazado_103680" data-name="Trazado 103680" d="M436.606,1308.807a37.879,37.879,0,0,0-.969,6.23c0,1.988,1.077,3.844-.265,4.689s-.779,2.651-.124,3.463.315,11.092,5.526,11.167,10.223-2.609,11.283-5.476,3.686-11.026.381-14.87S439.654,1303.671,436.606,1308.807Z" transform="translate(-363.606 -1295.833)" fill="#ffbf9d" stroke="#2e353a" stroke-linecap="round" stroke-linejoin="round" stroke-width="1"/>
      <path id="Trazado_103681" data-name="Trazado 103681" d="M437.235,1320.69l.82,1.508-.994.033" transform="translate(-364.036 -1298.198)" fill="none" stroke="#2e353a" stroke-linecap="round" stroke-linejoin="round" stroke-width="1"/>
      <path id="Trazado_103682" data-name="Trazado 103682" d="M437.071,1317.77s1.557,0,1.657,2.585" transform="translate(-364.038 -1297.696)" fill="none" stroke="#2e353a" stroke-linecap="round" stroke-linejoin="round" stroke-width="1"/>
      <path id="Trazado_103683" data-name="Trazado 103683" d="M446.97,1336.663a40.845,40.845,0,0,1,0,6.958,2.436,2.436,0,0,1-.439,1.044,41.981,41.981,0,0,1,8.284-4.415l.828-.315a87.769,87.769,0,0,1-.63-10.6Z" transform="translate(-365.661 -1299.682)" fill="#fff" stroke="#2e353a" stroke-linecap="round" stroke-linejoin="round" stroke-width="1"/>
      <path id="Trazado_103684" data-name="Trazado 103684" d="M419.091,1456.434s-.447,11.225.5,15.061,4.432,35.564,4.283,38.43-.265,4.043-.265,4.043-8.624,1.259-9.5,1.508-1.168,1.4,3.6,2.767,8.442,3.463,9.46,1.88,2.4-7.456,2.808-11.739c.953-9.941,2.585-21.108,1.607-26.128s-3.521-11.267-3.173-12.923,5.733-19.882,5.733-19.882Z" transform="translate(-360.009 -1320.291)" fill="#ffbf9d" stroke="#2e353a" stroke-linecap="round" stroke-linejoin="round" stroke-width="1"/>
      <path id="Trazado_103685" data-name="Trazado 103685" d="M427.168,1533.485a12.183,12.183,0,0,0,1.069-3.455c-2.527,1.334-5.633-.555-5.633-.555l1-2.146s-8.624,1.259-9.5,1.508-1.168,1.4,3.6,2.767S426.149,1535.068,427.168,1533.485Z" transform="translate(-360.009 -1333.654)" fill="#d9a171" stroke="#2e353a" stroke-linecap="round" stroke-linejoin="round" stroke-width="1"/>
      <path id="Trazado_103686" data-name="Trazado 103686" d="M442.025,1336.663a40.839,40.839,0,0,1,0,6.958c-.348,3.189-14.787,12.542-14.423,16.063s2.063,8.425,1.11,12.542-6.238,18.449-7.29,23.552-5.053,43.906-3.247,45.612,9.113.986,12.791-1.094,11.275-9.941,11.946-13.843,1.425-13.014,1.914-15.2,4.291-7.456,3.869-17.214,3.1-21.539,3.927-29.135,0-17.894-1.317-22.011-1.251-13.553-1.251-13.553Z" transform="translate(-360.717 -1299.682)" fill="#6595bf" stroke="#2e353a" stroke-linecap="round" stroke-linejoin="round" stroke-width="1"/>
      <path id="Trazado_103687" data-name="Trazado 103687" d="M442.892,1436.36c.679-3.9,1.425-13.014,1.914-15.2s4.291-7.456,3.869-17.214c-.24-5.351.721-11.316,1.773-16.875-2.759,2.618-9.941,8.715-17.6,9.427-5.542.522-7.348-1.094-7.87-2.6-1.533,4.623-3.057,9.3-3.57,11.788-1.06,5.1-5.053,43.906-3.247,45.612s9.113.986,12.791-1.094S442.221,1440.262,442.892,1436.36Z" transform="translate(-360.713 -1309.587)" fill="#344154" stroke="#2e353a" stroke-linecap="round" stroke-linejoin="round" stroke-width="1"/>
      <line id="Línea_254" data-name="Línea 254" x1="11.184" y2="19.484" transform="translate(69.429 115.457)" fill="none" stroke="#fff" stroke-linecap="round" stroke-linejoin="round" stroke-width="0.5"/>
      <line id="Línea_255" data-name="Línea 255" x1="5.111" y2="10.223" transform="translate(70.39 127.916)" fill="none" stroke="#fff" stroke-linecap="round" stroke-linejoin="round" stroke-width="0.5"/>
      <path id="Trazado_103688" data-name="Trazado 103688" d="M480.406,1344.338c-2.162-9.369-8.284-12.608-13.685-15.848a7.429,7.429,0,0,1-3.43-6.337l-.273,2.485a15.4,15.4,0,0,1,0-3.537c.091-.547.207-1.135.34-1.773a14.558,14.558,0,0,0-.083,2.792l.555-5.186v.058c.828-4.647,1.2-10.836-3.67-17.322-6.5-8.665-19.509-5.608-19.509-5.608s-8.673-.207-9.212,4.705a9.642,9.642,0,0,0,7.058,10.463s.886,1.889,1.9,4.714a4.14,4.14,0,0,0-1.035,1.549s1.441.721,2.162,5.4-6.487,13.329-5.8,19.054,6.843,5.8,6.478,9-4.681,2.485-4.316,6.478c.257,2.842,5.153,6.428,8.284,9.03a65.963,65.963,0,0,0-.058,8.284,19.143,19.143,0,0,0-2.841,10.438c.215,5.335,5.144,7.232,9.825,5.981a22.332,22.332,0,0,0,3.744-1.392c4.407,1.773,15.127.406,20.28-8.185,5.4-9,.356-11.888,0-18.366S482.568,1353.7,480.406,1344.338Z" transform="translate(-363.062 -1293.539)" fill="#a66d58" stroke="#2e353a" stroke-linecap="round" stroke-linejoin="round" stroke-width="1"/>
      <path id="Trazado_103689" data-name="Trazado 103689" d="M439.2,1303.66a38.948,38.948,0,0,0,9.419,8.938c6.843,4.324,2.162,17.289-3.239,23.047s-4.324,11.167,1.8,14.042,16.924,6.122,10.769,16.568-6.843,18.722,2.162,21.249" transform="translate(-364.404 -1295.275)" fill="none" stroke="#fff" stroke-linecap="round" stroke-linejoin="round" stroke-width="0.5"/>
      <path id="Trazado_103690" data-name="Trazado 103690" d="M436.661,1300.09s.5.828,1.408,2.03" transform="translate(-363.968 -1294.663)" fill="none" stroke="#fff" stroke-linecap="round" stroke-linejoin="round" stroke-width="0.5"/>
      <path id="Trazado_103691" data-name="Trazado 103691" d="M473.731,1403.258a4.556,4.556,0,0,0,3.5-.588" transform="translate(-370.329 -1312.264)" fill="none" stroke="#fff" stroke-linecap="round" stroke-linejoin="round" stroke-width="0.5"/>
      <path id="Trazado_103692" data-name="Trazado 103692" d="M465.751,1355.67c5.583,2,11.6,3.695,12.269,9.411,1.085,9.361-11.523,13.685-11.523,21.24a9.417,9.417,0,0,0,3.115,7.522" transform="translate(-368.959 -1304.2)" fill="none" stroke="#fff" stroke-linecap="round" stroke-linejoin="round" stroke-width="0.5"/>
      <path id="Trazado_103693" data-name="Trazado 103693" d="M450.571,1314.45s8.64,3.239,10.769,8.64-11.159,13.329-6.843,20.172c1.334,2.1,3.72,3.421,6.428,4.515" transform="translate(-366.355 -1297.127)" fill="none" stroke="#fff" stroke-linecap="round" stroke-linejoin="round" stroke-width="0.5"/>
      <path id="Trazado_103694" data-name="Trazado 103694" d="M465.111,1305.27s7.456,7.613,4.051,16.1-4.97,12.327-2.485,14.564,15.665,3.2,18.88,13.387" transform="translate(-368.849 -1295.552)" fill="none" stroke="#fff" stroke-linecap="round" stroke-linejoin="round" stroke-width="0.5"/>
      <path id="Trazado_103695" data-name="Trazado 103695" d="M422.621,1384.912s-7.539-5.567-11.1-11.73-6.561-11.4-6.486-12.07.439-4.026-.6-5.327-4.606-2.883-5.07-3.272-1.433.7-.356,1.657,2.146,2.1,2.146,2.1l-6.926-1.773a1.658,1.658,0,0,0,.133,1.88c.762.762,2.941.994,3.015,1.856s2.278,2.485,3.214,3.231a3.25,3.25,0,0,0,1.433.828s3.968,13.329,6.76,18.9,7.042,11.6,10,12.426,6.586-4.374,6.586-4.374Z" transform="translate(-356.646 -1303.644)" fill="#ffbf9d" stroke="#2e353a" stroke-linecap="round" stroke-linejoin="round" stroke-width="1"/>
      <path id="Trazado_103696" data-name="Trazado 103696" d="M441.127,1359.292s-4.034,2.783-5.294,6.545-7.688,12.9-8.615,15.176a13.3,13.3,0,0,1-1.707,3.189s.828,4.97,4.258,7.588,4.49,2.361,4.49,2.361,12.426-20.2,14.431-24.894S446.47,1356.989,441.127,1359.292Z" transform="translate(-362.055 -1304.748)" fill="#aed3f2" stroke="#2e353a" stroke-linecap="round" stroke-linejoin="round" stroke-width="1"/>
    </g>
  </g>
</svg>
