<svg xmlns="http://www.w3.org/2000/svg" width="498.408" height="319.225" viewBox="0 0 498.408 319.225">
  <g id="Grupo_53286" data-name="Grupo 53286" transform="translate(-821.954 -580.926)">
    <path id="Trazado_99079" data-name="Trazado 99079" d="M942.058,587.326h82.331a10.9,10.9,0,0,1,10.873,10.873v76.7a1.214,1.214,0,0,1-2.071.859l-18.528-18.528h-72.6a10.905,10.905,0,0,1-10.874-10.873V598.2A10.905,10.905,0,0,1,942.058,587.326Z" transform="translate(15.482 0.907)" fill="#d3ebfa" fill-rule="evenodd"/>
    <path id="Trazado_99080" data-name="Trazado 99080" d="M877.79,877.217s-40.421-48.2,6.736-89.941c0,0-42.345-47.185-15.4-100.721s78.916-49,120.3-38.11,95.276,5.444,136.657-37.2,89.5-33.574,107.789-13.611,23.1,60.8,2.886,101.629-8.661,67.147,8.661,87.109,19.249,75.53-22.135,90.848Zm12.172,17.075S846.77,868.3,857.247,823.427c0,0,.306-1.15-.7-1.335s-22.465,34.336,7.523,65.937Z" transform="translate(3.717)" fill="#c1d5e5" fill-rule="evenodd"/>
    <g id="Grupo_53261" data-name="Grupo 53261" transform="translate(1004.054 772.205)">
      <path id="Trazado_99081" data-name="Trazado 99081" d="M1099.883,748.759c49.818-4.7,40.533,46.789,8.408,79.245-5.888,5.948-15.276,14.088-26.828,23.716H981.447C1020.142,797.409,1065.668,751.986,1099.883,748.759Z" transform="translate(-981.447 -748.459)" fill="#839eb6" fill-rule="evenodd"/>
      <path id="Trazado_99082" data-name="Trazado 99082" d="M1014.483,849.045c49.022-48.809,93.465-81.122,93.738-81.322a2.014,2.014,0,1,1,2.38,3.25c-.266.194-42.828,31.136-90.45,78.071Z" transform="translate(-976.764 -745.784)" fill="#89bbe6" fill-rule="evenodd"/>
    </g>
    <g id="Grupo_53262" data-name="Grupo 53262" transform="translate(1029.52 654.076)">
      <path id="Trazado_99083" data-name="Trazado 99083" d="M1062.323,646.128c20.448-6.439,21.178,15.962,10.635,32.44-10,15.626-53.883,64.13-63.82,89.076l-5.387-2.868C1006.662,727.551,1036.148,654.371,1062.323,646.128Z" transform="translate(-1003.752 -644.995)" fill="#839eb6" fill-rule="evenodd"/>
      <path id="Trazado_99084" data-name="Trazado 99084" d="M1005.487,764.746c12.53-54.443,63.813-111.612,63.987-111.807a.863.863,0,0,1,1.29,1.147c-.174.194-51.519,57.428-63.718,111.49Z" transform="translate(-1003.506 -643.91)" fill="#89bbe6" fill-rule="evenodd"/>
    </g>
    <g id="Grupo_53263" data-name="Grupo 53263" transform="translate(1027.088 688.788)">
      <path id="Trazado_99085" data-name="Trazado 99085" d="M1073.989,675.613c20.265-2.577,17.159,18.553,4.48,32.224-10.505,11.327-49.55,41.83-68.261,63.831l-8.586-3.238C1014.156,733,1050.067,678.654,1073.989,675.613Z" transform="translate(-1001.622 -675.397)" fill="#b6daf4" fill-rule="evenodd"/>
      <path id="Trazado_99086" data-name="Trazado 99086" d="M1004.369,768.534c23.524-45.444,74.646-85.2,74.831-85.344a.822.822,0,0,1,1.014,1.295c-.183.144-50.975,39.642-74.319,84.625Z" transform="translate(-1001.233 -674.318)" fill="#839eb6" fill-rule="evenodd"/>
    </g>
    <path id="Trazado_99087" data-name="Trazado 99087" d="M837.967,838.9H1297.9a5.5,5.5,0,0,1,5.485,5.485h0a5.5,5.5,0,0,1-5.485,5.486h-18.508a3.057,3.057,0,0,0-3.048,3.046h0a3.057,3.057,0,0,0,3.048,3.048h6.771a3.821,3.821,0,0,1,3.81,3.809h0a3.822,3.822,0,0,1-3.81,3.81H850.309a3.82,3.82,0,0,1-3.809-3.81h0a3.82,3.82,0,0,1,3.809-3.809h5.333a3.056,3.056,0,0,0,3.047-3.048h0a3.056,3.056,0,0,0-3.047-3.046H837.967a5.5,5.5,0,0,1-5.485-5.486h0a5.5,5.5,0,0,1,5.485-5.485Zm2.858,24.684a3.667,3.667,0,0,0,3.656-3.657v-.3a3.667,3.667,0,0,0-3.656-3.657h0a3.668,3.668,0,0,0-3.658,3.657v.3a3.668,3.668,0,0,0,3.658,3.657Z" transform="translate(1.492 36.566)" fill="#5e6178" fill-rule="evenodd"/>
    <path id="Trazado_99088" data-name="Trazado 99088" d="M1202.12,734.737Zm4.5-17.116a8.648,8.648,0,1,1-2.532,6.115,8.623,8.623,0,0,1,2.532-6.115Zm1.868-8.571a15.257,15.257,0,0,0-6.362,3.684.53.53,0,0,1-.634.076l-4.018-2.319-.022-.014a1.005,1.005,0,0,0-1.339.379l-.016.026-2.827,4.9a1.006,1.006,0,0,0,.365,1.362l.027.017,3.985,2.3a.527.527,0,0,1,.25.586h0a15.046,15.046,0,0,0-.337,1.827,15.327,15.327,0,0,0,.337,5.551.532.532,0,0,1-.281.6l-3.984,2.3h0a1,1,0,0,0-.365,1.361l2.843,4.924h0a1,1,0,0,0,1.36.365l.031-.015,3.99-2.305a.535.535,0,0,1,.631.076,15.26,15.26,0,0,0,6.385,3.691.531.531,0,0,1,.386.51v4.635a1,1,0,0,0,.994,1h5.688a1,1,0,0,0,.993-1v-4.635a.533.533,0,0,1,.41-.517,15.255,15.255,0,0,0,6.362-3.684.53.53,0,0,1,.66-.059l3.99,2.3a1,1,0,0,0,1.361-.365l.017-.026,2.827-4.9h0a1.006,1.006,0,0,0-.363-1.36l-4.015-2.318a.533.533,0,0,1-.251-.587h0a15.012,15.012,0,0,0,.336-1.826,15.581,15.581,0,0,0,0-3.727,15.09,15.09,0,0,0-.336-1.826.531.531,0,0,1,.281-.6l3.986-2.3a1.006,1.006,0,0,0,.363-1.36l-.016-.03-2.828-4.9h0a1,1,0,0,0-1.36-.366h0l-4.018,2.319a.531.531,0,0,1-.645-.088,15.283,15.283,0,0,0-6.373-3.68.531.531,0,0,1-.387-.51V703.9a1,1,0,0,0-.993-.993h-5.688a1,1,0,0,0-.994.993v4.635A.531.531,0,0,1,1208.482,709.05Z" transform="translate(52.612 17.289)" fill="#d3ebfa" fill-rule="evenodd"/>
    <path id="Trazado_99089" data-name="Trazado 99089" d="M1228.022,658.432a12.86,12.86,0,1,1-2.792,4.18,12.88,12.88,0,0,1,2.792-4.18Zm4.63-1.693a11.74,11.74,0,1,0,4.467-.883,11.664,11.664,0,0,0-4.467.883Zm-1.423-9.467a21.025,21.025,0,0,0-4.647,1.983,21.516,21.516,0,0,0-2.145,1.421,21.3,21.3,0,0,0-1.959,1.673,1.341,1.341,0,0,1-1.608.2c-1.891-1.091-3.876-2.17-5.727-3.307a.786.786,0,0,0-.277-.086.864.864,0,0,0-.316.024.807.807,0,0,0-.5.378c-1.378,2.085-2.76,4.776-4.035,6.986a.78.78,0,0,0-.1.3.874.874,0,0,0,.165.614.8.8,0,0,0,.239.209c1.7,1.123,3.889,2.247,5.689,3.288a1.327,1.327,0,0,1,.567.637,1.306,1.306,0,0,1,.086.281l.118.039-.133.531q-.154.627-.271,1.25-.109.606-.191,1.27c-.052.429-.093.857-.116,1.279s-.039.844-.039,1.294.013.881.039,1.292.064.851.116,1.281.119.864.191,1.268.169.833.271,1.251a1.34,1.34,0,0,1-.694,1.52l-5.039,2.91h0l-.6.345a.8.8,0,0,0-.378.5.806.806,0,0,0-.025.324.78.78,0,0,0,.1.3l3.731,6.465h0l.3.523a.789.789,0,0,0,.209.236.83.83,0,0,0,.289.142.868.868,0,0,0,.324.024.809.809,0,0,0,.295-.1c1.8-1.135,3.842-2.216,5.7-3.292a1.344,1.344,0,0,1,1.6.193l0,0a20.975,20.975,0,0,0,8.811,5.092,1.347,1.347,0,0,1,.977,1.3l0,6.575a.8.8,0,0,0,.241.574.769.769,0,0,0,.265.18.812.812,0,0,0,.309.061h8.069a.819.819,0,0,0,.311-.061.808.808,0,0,0,.265-.178.864.864,0,0,0,.179-.267.8.8,0,0,0,.061-.309V689.1a1.344,1.344,0,0,1,.292-.835,1.359,1.359,0,0,1,.746-.479,20.252,20.252,0,0,0,2.37-.844,20.652,20.652,0,0,0,2.278-1.138,21.28,21.28,0,0,0,4.1-3.093,1.349,1.349,0,0,1,1.676-.153l5.63,3.249a.782.782,0,0,0,.3.1.852.852,0,0,0,.325-.024.84.84,0,0,0,.289-.142.807.807,0,0,0,.208-.236c1.338-2.333,2.7-4.655,4.036-6.987a.791.791,0,0,0,.1-.3.84.84,0,0,0-.024-.323.825.825,0,0,0-.139-.291.763.763,0,0,0-.234-.208l-5.7-3.288a1.323,1.323,0,0,1-.566-.637,1.111,1.111,0,0,1-.072-.216l-.15-.031.15-.6c.1-.417.194-.835.271-1.25s.138-.828.192-1.268.091-.86.116-1.282.038-.843.038-1.292-.011-.88-.038-1.292-.064-.848-.116-1.279c-.055-.446-.12-.872-.192-1.273s-.168-.831-.271-1.248a1.344,1.344,0,0,1,.691-1.52l5.64-3.256a.8.8,0,0,0,.237-.208.827.827,0,0,0,.139-.29.847.847,0,0,0,.024-.324.8.8,0,0,0-.1-.3c-1.377-2.047-2.759-4.784-4.036-6.986a.8.8,0,0,0-.5-.378.852.852,0,0,0-.325-.024.789.789,0,0,0-.3.1l-5.7,3.289a1.337,1.337,0,0,1-.855.17,1.36,1.36,0,0,1-.771-.38,20.926,20.926,0,0,0-8.792-5.075,1.353,1.353,0,0,1-.979-1.3l0-6.576a.806.806,0,0,0-.061-.308.831.831,0,0,0-.179-.266.8.8,0,0,0-.575-.241h-8.069a.819.819,0,0,0-.815.815v6.576a1.349,1.349,0,0,1-1.039,1.312Zm-2.836-.248a22.257,22.257,0,0,0-6.739,4.469.156.156,0,0,1-.091.041.159.159,0,0,1-.1-.018q-2.874-1.659-5.749-3.32a1.954,1.954,0,0,0-.719-.225,2,2,0,0,0-.755.056,2.018,2.018,0,0,0-.7.346,1.981,1.981,0,0,0-.514.587c-1.39,2.249-2.707,4.685-4.037,6.985a2.022,2.022,0,0,0,.15,2.229,1.966,1.966,0,0,0,.587.515c1.833,1.133,3.82,2.207,5.7,3.289a.165.165,0,0,1,.065.074.158.158,0,0,1,.008.1l-.13.532.008,0c-.058.258-.111.521-.161.788-.082.454-.152.9-.206,1.343s-.094.887-.121,1.35-.042.92-.042,1.363.014.9.042,1.362.069.914.121,1.351.124.888.207,1.344.178.893.283,1.321a.161.161,0,0,1-.009.1.167.167,0,0,1-.071.075c-2.094,1.118-4.218,2.433-6.286,3.628l.073.092-.063.079a2.022,2.022,0,0,0-.4,1.485,1.976,1.976,0,0,0,.25.742l4.336,7.509.081-.048c.042.039.087.077.132.112a2.025,2.025,0,0,0,2.208.16c1.9-1.007,3.849-2.222,5.72-3.3a.165.165,0,0,1,.1-.016.161.161,0,0,1,.093.042,22.171,22.171,0,0,0,9.306,5.378.159.159,0,0,1,.082.057.147.147,0,0,1,.032.1v6.575a2.02,2.02,0,0,0,1.242,1.853,1.973,1.973,0,0,0,.765.154h8.069a1.987,1.987,0,0,0,.766-.154,2.079,2.079,0,0,0,.652-.435,2.039,2.039,0,0,0,.435-.652,2,2,0,0,0,.154-.766V689.1a.162.162,0,0,1,.032-.1.159.159,0,0,1,.089-.055l.026-.009a22.322,22.322,0,0,0,2.535-.9,22.268,22.268,0,0,0,4.673-2.7,22.17,22.17,0,0,0,2.068-1.765.16.16,0,0,1,.093-.044.168.168,0,0,1,.1.026l5.7,3.287a1.978,1.978,0,0,0,.74.25,2.062,2.062,0,0,0,.781-.053,2.016,2.016,0,0,0,1.209-.916c1.5-2.406,2.91-5.042,4.337-7.513l-.076-.044c.012-.064.025-.127.032-.191a2,2,0,0,0-.4-1.483,1.981,1.981,0,0,0-.586-.516l-5.7-3.288a.162.162,0,0,1-.065-.073.18.18,0,0,1-.008-.1l.148-.6-.008,0c.05-.234.1-.473.142-.714q.125-.683.207-1.345c.052-.436.095-.887.122-1.351s.042-.918.042-1.362-.015-.9-.042-1.361-.07-.916-.122-1.355-.122-.884-.207-1.343-.178-.892-.283-1.318a.166.166,0,0,1,.01-.105.17.17,0,0,1,.073-.074l5.689-3.285a1.966,1.966,0,0,0,.585-.516,2,2,0,0,0,.4-1.483,1.943,1.943,0,0,0-.24-.725c-1.355-2.512-2.909-5.043-4.343-7.528l-.082.048c-.043-.039-.088-.076-.135-.112a2,2,0,0,0-.7-.346,2.061,2.061,0,0,0-.781-.052,1.968,1.968,0,0,0-.739.247l-.421.242v0l-5.283,3.048a.16.16,0,0,1-.1.019.145.145,0,0,1-.089-.045l-.014-.014a22.424,22.424,0,0,0-4.317-3.25,22.07,22.07,0,0,0-4.976-2.113.168.168,0,0,1-.082-.056.151.151,0,0,1-.032-.1v-6.576a2.009,2.009,0,0,0-.591-1.417,2.057,2.057,0,0,0-.65-.435,1.986,1.986,0,0,0-.766-.154h-8.069a1.972,1.972,0,0,0-.765.154,2.072,2.072,0,0,0-.653.435,2,2,0,0,0-.589,1.417v6.576a.174.174,0,0,1-.032.1.157.157,0,0,1-.089.054l-.025.009A22.3,22.3,0,0,0,1228.393,647.023Z" transform="translate(54.821 8.001)" fill="#d3ebfa" fill-rule="evenodd"/>
    <g id="Grupo_53267" data-name="Grupo 53267" transform="translate(952.17 584.04)">
      <path id="Trazado_99090" data-name="Trazado 99090" d="M946.877,583.653h82.332a10.9,10.9,0,0,1,10.872,10.874v76.7a1.213,1.213,0,0,1-2.072.859l-18.527-18.528h-72.6A10.9,10.9,0,0,1,936,642.683V594.527A10.906,10.906,0,0,1,946.877,583.653Z" transform="translate(-936.004 -583.653)" fill="#f2e9e4" fill-rule="evenodd"/>
      <g id="Grupo_53266" data-name="Grupo 53266" transform="translate(16.007 8.903)">
        <path id="Trazado_99091" data-name="Trazado 99091" d="M953.562,638.075h42.709a3.548,3.548,0,0,0,3.538-3.537V602.112a3.548,3.548,0,0,0-3.538-3.537h-1.735v-1.646a.976.976,0,0,0-.974-.974h-12.9a.977.977,0,0,0-.974.974v1.646H953.562a3.548,3.548,0,0,0-3.538,3.537v32.425A3.548,3.548,0,0,0,953.562,638.075Z" transform="translate(-950.024 -590.813)" fill="#f9b532" fill-rule="evenodd"/>
        <path id="Rectángulo_5025" data-name="Rectángulo 5025" d="M2.525,0h27.7a2.525,2.525,0,0,1,2.525,2.525V30.786a2.524,2.524,0,0,1-2.524,2.524H2.524A2.524,2.524,0,0,1,0,30.786V2.525A2.525,2.525,0,0,1,2.525,0Z" transform="translate(3.472 13.952)" fill="#fff"/>
        <path id="Trazado_99092" data-name="Trazado 99092" d="M957.137,637.566h39.435a6.231,6.231,0,0,0,5.113-3.537l12.431-27.905c.867-1.946-.017-3.537-1.963-3.537h-2.072l.78-1.751c.317-.71,0-1.292-.715-1.292H995.752a2.276,2.276,0,0,0-1.867,1.292l-.78,1.751H972.719a6.233,6.233,0,0,0-5.114,3.537l-12.43,27.905C954.309,635.975,955.191,637.566,957.137,637.566Z" transform="translate(-949.341 -590.304)" fill="#fcc749" fill-rule="evenodd"/>
        <g id="Grupo_53265" data-name="Grupo 53265" transform="translate(23.777 16.56)">
          <g id="Grupo_53264" data-name="Grupo 53264">
            <path id="Trazado_99093" data-name="Trazado 99093" d="M974.872,609.978a13.738,13.738,0,1,1-4.023,9.714,13.7,13.7,0,0,1,4.023-9.714Zm9.714-2.056a11.769,11.769,0,1,0,8.323,3.447A11.734,11.734,0,0,0,984.586,607.922Z" transform="translate(-970.849 -605.955)" fill="#344154" fill-rule="evenodd"/>
            <path id="Trazado_99094" data-name="Trazado 99094" d="M990.207,626.7a.983.983,0,0,1,1.391-1.391l3.252,3.251a.984.984,0,0,1-1.392,1.392Z" transform="translate(-968.146 -603.252)" fill="#344154" fill-rule="evenodd"/>
            <path id="Trazado_99095" data-name="Trazado 99095" d="M993.206,631.1a1.968,1.968,0,0,1,2.782-2.784l10.479,10.48a1.967,1.967,0,0,1-2.782,2.782Z" transform="translate(-967.762 -602.868)" fill="#344154" fill-rule="evenodd"/>
          </g>
          <path id="Trazado_99096" data-name="Trazado 99096" d="M991.023,612.179a.65.65,0,0,1,.919-.919,10.87,10.87,0,0,1,3.189,7.708h0a10.938,10.938,0,0,1-.425,3.019.65.65,0,0,1-1.25-.356,9.571,9.571,0,0,0,.376-2.663h0a9.564,9.564,0,0,0-2.814-6.789Zm1.294,11.977a.648.648,0,1,1,1.09.7,10.638,10.638,0,0,1-.683.945,10.865,10.865,0,0,1-.782.872.649.649,0,0,1-.919-.918,9.61,9.61,0,0,0,.691-.766,9.481,9.481,0,0,0,.6-.835Zm-14.871,1.6a.649.649,0,0,1-.919.918,10.9,10.9,0,0,1-2.463-11.626.647.647,0,0,1,1.208.462,9.583,9.583,0,0,0,2.174,10.246Zm-1.007-12.4a.647.647,0,1,1-1.05-.756c.173-.241.354-.473.542-.693l.031-.034c.2-.228.385-.434.565-.614a.65.65,0,0,1,.919.919q-.288.288-.5.535l-.03.035C976.743,612.952,976.584,613.155,976.438,613.357Z" transform="translate(-970.497 -605.23)" fill="#fff" fill-rule="evenodd"/>
        </g>
        <path id="Trazado_99097" data-name="Trazado 99097" d="M989.315,591.451h31.051a.723.723,0,0,1,.72.72h0a.723.723,0,0,1-.72.72H989.315a.723.723,0,0,1-.72-.72h0A.723.723,0,0,1,989.315,591.451Z" transform="translate(-944.557 -591.451)" fill="#efeef8" fill-rule="evenodd"/>
        <path id="Trazado_99098" data-name="Trazado 99098" d="M989.315,595.41h31.051a.722.722,0,0,1,.72.719h0a.723.723,0,0,1-.72.72H989.315a.723.723,0,0,1-.72-.72h0A.722.722,0,0,1,989.315,595.41Z" transform="translate(-944.557 -590.89)" fill="#efeef8" fill-rule="evenodd"/>
        <path id="Trazado_99099" data-name="Trazado 99099" d="M1011.376,599.77h5.863a.723.723,0,0,1,.72.72h0a.723.723,0,0,1-.72.72h-5.863a.723.723,0,0,1-.72-.72h0A.723.723,0,0,1,1011.376,599.77Z" transform="translate(-941.43 -590.272)" fill="#efeef8" fill-rule="evenodd"/>
        <path id="Trazado_99100" data-name="Trazado 99100" d="M1011.376,604.245h5.863a.723.723,0,0,1,.72.72h0a.723.723,0,0,1-.72.72h-5.863a.723.723,0,0,1-.72-.72h0A.723.723,0,0,1,1011.376,604.245Z" transform="translate(-941.43 -589.638)" fill="#efeef8" fill-rule="evenodd"/>
        <path id="Trazado_99101" data-name="Trazado 99101" d="M1011.376,608.72h5.863a.723.723,0,0,1,.72.72h0a.723.723,0,0,1-.72.72h-5.863a.723.723,0,0,1-.72-.72h0A.723.723,0,0,1,1011.376,608.72Z" transform="translate(-941.43 -589.003)" fill="#efeef8" fill-rule="evenodd"/>
        <path id="Trazado_99102" data-name="Trazado 99102" d="M1011.376,613.2h5.863a.724.724,0,0,1,.72.722h0a.722.722,0,0,1-.72.719h-5.863a.722.722,0,0,1-.72-.719h0A.724.724,0,0,1,1011.376,613.2Z" transform="translate(-941.43 -588.369)" fill="#efeef8" fill-rule="evenodd"/>
        <path id="Trazado_99103" data-name="Trazado 99103" d="M1011.376,617.671h5.863a.723.723,0,0,1,.72.72h0a.722.722,0,0,1-.72.719h-5.863a.722.722,0,0,1-.72-.719h0A.723.723,0,0,1,1011.376,617.671Z" transform="translate(-941.43 -587.734)" fill="#efeef8" fill-rule="evenodd"/>
        <path id="Trazado_99104" data-name="Trazado 99104" d="M1011.376,622.146h5.863a.722.722,0,0,1,.72.72h0a.723.723,0,0,1-.72.72h-5.863a.723.723,0,0,1-.72-.72h0A.722.722,0,0,1,1011.376,622.146Z" transform="translate(-941.43 -587.1)" fill="#efeef8" fill-rule="evenodd"/>
        <rect id="Rectángulo_5026" data-name="Rectángulo 5026" width="16.312" height="1.441" rx="0.631" transform="translate(60.218 40.155)" fill="#efeef8"/>
        <path id="Trazado_99105" data-name="Trazado 99105" d="M1004.777,622.146h4.389a.722.722,0,0,1,.722.72h0a.723.723,0,0,1-.722.72h-4.389a.723.723,0,0,1-.72-.72h0A.722.722,0,0,1,1004.777,622.146Z" transform="translate(-942.365 -587.1)" fill="#efeef8" fill-rule="evenodd"/>
        <path id="Trazado_99106" data-name="Trazado 99106" d="M1006.5,617.671h2.212a.723.723,0,0,1,.72.72h0a.722.722,0,0,1-.72.719H1006.5a.722.722,0,0,1-.72-.719h0A.723.723,0,0,1,1006.5,617.671Z" transform="translate(-942.121 -587.734)" fill="#efeef8" fill-rule="evenodd"/>
        <path id="Trazado_99107" data-name="Trazado 99107" d="M1007.849,613.2h1.618a.724.724,0,0,1,.722.722h0a.722.722,0,0,1-.722.719h-1.618a.721.721,0,0,1-.72-.719h0A.723.723,0,0,1,1007.849,613.2Z" transform="translate(-941.93 -588.369)" fill="#efeef8" fill-rule="evenodd"/>
      </g>
    </g>
    <g id="Grupo_53268" data-name="Grupo 53268" transform="translate(971.995 673.052)">
      <path id="Rectángulo_5027" data-name="Rectángulo 5027" d="M1.013,0H4.775A1.013,1.013,0,0,1,5.789,1.013V4.775A1.014,1.014,0,0,1,4.775,5.789H1.014A1.014,1.014,0,0,1,0,4.775V1.013A1.013,1.013,0,0,1,1.013,0Z" fill="#80bbe7"/>
      <path id="Rectángulo_5028" data-name="Rectángulo 5028" d="M1.013,0H4.774A1.013,1.013,0,0,1,5.788,1.013V4.775A1.014,1.014,0,0,1,4.774,5.789H1.013A1.013,1.013,0,0,1,0,4.776V1.013A1.013,1.013,0,0,1,1.013,0Z" transform="translate(11.866)" fill="#fff"/>
      <path id="Rectángulo_5029" data-name="Rectángulo 5029" d="M1.013,0H4.775A1.013,1.013,0,0,1,5.788,1.013V4.775A1.014,1.014,0,0,1,4.775,5.789H1.014A1.014,1.014,0,0,1,0,4.775V1.013A1.013,1.013,0,0,1,1.013,0Z" transform="translate(23.731)" fill="#80bbe7"/>
      <path id="Rectángulo_5030" data-name="Rectángulo 5030" d="M1.013,0H4.776A1.013,1.013,0,0,1,5.788,1.013V4.775A1.014,1.014,0,0,1,4.775,5.789H1.014A1.014,1.014,0,0,1,0,4.775V1.013A1.013,1.013,0,0,1,1.013,0Z" transform="translate(35.597)" fill="#80bbe7"/>
    </g>
    <path id="Trazado_99108" data-name="Trazado 99108" d="M875.006,617.161c-.438,0-.795-.508-.795-1.134s.356-1.134.795-1.134h37.181c.438,0,.793.508.793,1.134s-.355,1.134-.793,1.134Zm-5.041-2.268c.438,0,.794.508.794,1.134s-.355,1.134-.794,1.134h-3.1c-.438,0-.794-.508-.794-1.134s.355-1.134.794-1.134Z" transform="translate(6.254 4.815)" fill="#80bbe7" fill-rule="evenodd"/>
    <path id="Trazado_99109" data-name="Trazado 99109" d="M913.418,654.31a.479.479,0,0,1,.959,0v2.158a.479.479,0,0,1-.959,0V654.31Zm-3.269,1.751a.48.48,0,0,1,.678-.678l1.525,1.525a.48.48,0,1,1-.679.678l-1.524-1.525Zm-1.073,3.55a.48.48,0,0,1,0-.959h2.158a.48.48,0,0,1,0,.959Zm1.751,3.269a.48.48,0,0,1-.678-.678l1.524-1.525a.48.48,0,0,1,.679.678l-1.525,1.525Zm3.55,1.072a.479.479,0,1,1-.959,0V661.8a.479.479,0,1,1,.959,0v2.157Zm3.268-1.75a.48.48,0,0,1-.678.678l-1.524-1.525a.479.479,0,0,1,.677-.678l1.525,1.525Zm1.073-3.55a.48.48,0,0,1,0,.959h-2.157a.48.48,0,0,1,0-.959Zm-1.751-3.269a.48.48,0,0,1,.678.678l-1.525,1.525a.479.479,0,0,1-.677-.678Z" transform="translate(12.281 10.334)" fill="#80bbe7" fill-rule="evenodd"/>
    <path id="Trazado_99110" data-name="Trazado 99110" d="M1160.741,603.885a.48.48,0,0,1,.959,0v2.157a.48.48,0,0,1-.959,0v-2.157Zm-3.269,1.751a.48.48,0,0,1,.678-.678l1.525,1.525a.48.48,0,0,1-.679.678l-1.524-1.525Zm-1.072,3.549a.479.479,0,1,1,0-.958h2.157a.479.479,0,1,1,0,.958Zm1.75,3.269a.479.479,0,0,1-.678-.677L1159,610.25a.48.48,0,0,1,.679.679l-1.525,1.524Zm3.55,1.073a.48.48,0,0,1-.959,0v-2.158a.48.48,0,0,1,.959,0v2.158Zm3.269-1.75a.48.48,0,0,1-.679.677l-1.525-1.524a.48.48,0,1,1,.679-.679l1.525,1.526Zm1.072-3.55a.479.479,0,1,1,0,.958h-2.157a.479.479,0,1,1,0-.958Zm-1.752-3.269a.48.48,0,0,1,.679.678l-1.525,1.525a.48.48,0,0,1-.679-.678Z" transform="translate(47.337 3.186)" fill="#80bbe7" fill-rule="evenodd"/>
    <path id="Trazado_99111" data-name="Trazado 99111" d="M1192.87,795.742a.48.48,0,0,1,.959,0V797.9a.48.48,0,1,1-.959,0v-2.157Zm-3.269,1.751a.48.48,0,1,1,.678-.679l1.525,1.525a.479.479,0,0,1-.677.678l-1.526-1.524Zm-1.072,3.549a.48.48,0,1,1,0-.959h2.156a.48.48,0,0,1,0,.959Zm1.75,3.269a.48.48,0,0,1-.678-.679l1.526-1.524a.479.479,0,0,1,.677.678l-1.525,1.525Zm3.55,1.072a.48.48,0,0,1-.959,0v-2.157a.48.48,0,0,1,.959,0v2.157Zm3.268-1.751a.48.48,0,0,1-.678.679l-1.524-1.525a.48.48,0,1,1,.678-.678l1.524,1.524Zm1.073-3.549a.48.48,0,1,1,0,.959h-2.157a.48.48,0,1,1,0-.959Zm-1.751-3.269a.48.48,0,1,1,.678.679l-1.524,1.524a.48.48,0,0,1-.678-.678Z" transform="translate(51.891 30.38)" fill="#80bbe7" fill-rule="evenodd"/>
    <path id="Trazado_99112" data-name="Trazado 99112" d="M832.091,729.041a.48.48,0,1,1,.959,0V731.2a.48.48,0,0,1-.959,0v-2.156Zm-3.269,1.75a.48.48,0,0,1,.678-.679l1.525,1.525a.48.48,0,0,1-.678.678l-1.525-1.524Zm-1.073,3.55a.48.48,0,0,1,0-.96h2.157a.48.48,0,1,1,0,.96Zm1.751,3.268a.48.48,0,0,1-.678-.678l1.525-1.524a.479.479,0,0,1,.678.677l-1.525,1.525Zm3.55,1.073a.48.48,0,0,1-.959,0v-2.158a.48.48,0,0,1,.959,0v2.158Zm3.268-1.751a.479.479,0,0,1-.677.678l-1.527-1.525a.479.479,0,0,1,.678-.677l1.525,1.524Zm1.073-3.55a.48.48,0,0,1,0,.96h-2.157a.48.48,0,0,1,0-.96Zm-1.75-3.269a.48.48,0,0,1,.677.679l-1.525,1.524a.48.48,0,0,1-.678-.678Z" transform="translate(0.753 20.926)" fill="#80bbe7" fill-rule="evenodd"/>
    <path id="Trazado_99113" data-name="Trazado 99113" d="M1246.482,768.624a.479.479,0,1,1,.958,0v2.157a.479.479,0,1,1-.958,0v-2.157Zm-3.269,1.751a.479.479,0,0,1,.677-.678l1.526,1.524a.48.48,0,0,1-.678.679l-1.525-1.525Zm-1.073,3.548a.479.479,0,1,1,0-.959h2.157a.479.479,0,0,1,0,.959Zm1.75,3.269a.479.479,0,0,1-.677-.678l1.525-1.525a.48.48,0,0,1,.678.678l-1.526,1.525Zm3.55,1.072a.479.479,0,1,1-.958,0v-2.156a.479.479,0,1,1,.958,0v2.156Zm3.269-1.75a.479.479,0,0,1-.677.678l-1.526-1.525a.48.48,0,0,1,.678-.678l1.525,1.525Zm1.073-3.55a.479.479,0,0,1,0,.959h-2.157a.479.479,0,1,1,0-.959Zm-1.75-3.268a.479.479,0,0,1,.677.678l-1.525,1.525a.48.48,0,0,1-.678-.679Z" transform="translate(59.49 26.536)" fill="#80bbe7" fill-rule="evenodd"/>
    <g id="Grupo_53269" data-name="Grupo 53269" transform="translate(1273.135 608.071)">
      <rect id="Rectángulo_5031" data-name="Rectángulo 5031" width="5.788" height="5.788" rx="1.013" fill="#80bbe7"/>
      <rect id="Rectángulo_5032" data-name="Rectángulo 5032" width="5.788" height="5.788" rx="1.013" transform="translate(11.865)" fill="#fff"/>
      <rect id="Rectángulo_5033" data-name="Rectángulo 5033" width="5.788" height="5.788" rx="1.013" transform="translate(23.732)" fill="#80bbe7"/>
      <rect id="Rectángulo_5034" data-name="Rectángulo 5034" width="5.788" height="5.788" rx="1.013" transform="translate(35.597)" fill="#80bbe7"/>
    </g>
    <path id="Trazado_99114" data-name="Trazado 99114" d="M830.94,654.331Zm4.5-17.117a8.646,8.646,0,1,1-2.534,6.115,8.621,8.621,0,0,1,2.534-6.115Zm1.868-8.571a15.249,15.249,0,0,0-6.363,3.684.531.531,0,0,1-.634.078l-4.018-2.321-.022-.013a1,1,0,0,0-1.338.379l-.017.027-2.827,4.9a1,1,0,0,0,.365,1.362l.027.017,3.986,2.3a.53.53,0,0,1,.25.586h0a15.048,15.048,0,0,0-.336,1.827,15.414,15.414,0,0,0,0,3.727,15.07,15.07,0,0,0,.336,1.826.531.531,0,0,1-.28.6l-3.986,2.3h0a1,1,0,0,0-.365,1.361l2.843,4.924h0a1,1,0,0,0,1.36.365l.03-.016,3.99-2.3a.531.531,0,0,1,.631.076,15.393,15.393,0,0,0,2.973,2.241,15.214,15.214,0,0,0,3.411,1.449.532.532,0,0,1,.386.511v4.635a1,1,0,0,0,.994.995h5.687a1,1,0,0,0,1-.995v-4.635a.532.532,0,0,1,.408-.517,15.184,15.184,0,0,0,3.39-1.443,15.357,15.357,0,0,0,2.973-2.241.532.532,0,0,1,.66-.06l3.991,2.3a1,1,0,0,0,1.36-.365l.017-.027,2.828-4.9h0a1,1,0,0,0-.363-1.36l-4.014-2.319a.528.528,0,0,1-.251-.585h0a15.1,15.1,0,0,0,.336-1.827,15.414,15.414,0,0,0,0-3.727,15.025,15.025,0,0,0-.336-1.827.533.533,0,0,1,.281-.6l3.986-2.3a1,1,0,0,0,.363-1.36l-.016-.03-2.827-4.9h0a.989.989,0,0,0-.605-.462,1,1,0,0,0-.755.1h0l-4.019,2.321a.531.531,0,0,1-.645-.089,15.384,15.384,0,0,0-2.962-2.23,15.167,15.167,0,0,0-3.411-1.449.532.532,0,0,1-.386-.511v-4.634a1,1,0,0,0-1-.994h-5.687a1,1,0,0,0-.994.994v4.634A.531.531,0,0,1,837.3,628.643Z" transform="translate(0 5.892)" fill="#d3ebfa" fill-rule="evenodd"/>
    <g id="Grupo_53270" data-name="Grupo 53270" transform="translate(1069.757 584.132)">
      <path id="Trazado_99115" data-name="Trazado 99115" d="M1070.32,704.363c-5.05,4.6-5.839,5.147-5.839,5.147s-3.335,6.332-2.052,6.326a3.579,3.579,0,0,0,2.306-1.163s1.25,1.595,2.375.931a15.887,15.887,0,0,1,1.715-.915s1.288,1.279,2.351.445,6.14-6.313,6.14-6.313l6.709-4.4-2.675-2.409Z" transform="translate(-1035.713 -566.968)" fill="#e98daf" fill-rule="evenodd"/>
      <path id="Trazado_99116" data-name="Trazado 99116" d="M1142.842,822.786c-.1.708-.93,4.271-.916,4.36.146,1.05.4,3.154.4,3.154s-2.053,2.361-3.959,2.7-10.555.73-10.665.257,2.162-4.207,2.162-4.207,2.456-2.061,2.786-6.825S1142.842,822.786,1142.842,822.786Z" transform="translate(-1026.42 -550.21)" fill="#f3c6d4" fill-rule="evenodd"/>
      <path id="Trazado_99117" data-name="Trazado 99117" d="M1131.688,829.206l1.06-.379a7.336,7.336,0,0,0,5.421.233c3.02-1.032,3.839-2.728,3.839-2.728a.571.571,0,0,1,.473-.344h.711a1.526,1.526,0,0,1,1.4.9c.324.774,1.006,5.494.078,8.109s-2.226,2.271-2.226,2.271-5.161-1.522-8.642-.295-6.669,2.506-6.669,2.506S1127.294,832.548,1131.688,829.206Z" transform="translate(-1026.501 -549.396)" fill="#0e0226" fill-rule="evenodd"/>
      <path id="Trazado_99118" data-name="Trazado 99118" d="M1110.587,838.782l-.383-1.127v-1.368c0-.513.214-2.054,1.7-2.054h5.7c1.323,0,8.474-3.635,13.969-8.106a.756.756,0,0,1,.965-.123c.576.332,2.328,1.733,2.506,1.879a1.13,1.13,0,0,1,.095.959c-.106.208-5.192,10.28-5.192,10.28S1114.98,841.089,1110.587,838.782Z" transform="translate(-1028.899 -549.411)" fill="#1a0f44" fill-rule="evenodd"/>
      <path id="Trazado_99119" data-name="Trazado 99119" d="M1110.247,836.522a.942.942,0,0,0-.337.59v1.1a2.149,2.149,0,0,0,2.137,1.4h15.833a13.53,13.53,0,0,0,5.652-1.232,32.68,32.68,0,0,1,4.077-1.492s.378-.128.378.521v1.258c0,.314-.193,1.169,1.1,1.169h7.7c.586,0,1.258-.334,1.258-1.533v-3.085c0-.747-.453-1.337-.941-1.337h-5.921c-2.484,0-4.464.609-7.552,2.063a20.2,20.2,0,0,1-9.127,1.887h-8.858C1114.085,837.826,1111.3,837.472,1110.247,836.522Z" transform="translate(-1028.941 -548.278)" fill="#0e0226" fill-rule="evenodd"/>
      <path id="Trazado_99120" data-name="Trazado 99120" d="M1172.251,822.786c-.1.708-.929,4.271-.916,4.36.146,1.05.4,3.154.4,3.154s-2.053,2.361-3.959,2.7-10.554.73-10.665.257,2.162-4.207,2.162-4.207,2.456-2.061,2.786-6.825S1172.251,822.786,1172.251,822.786Z" transform="translate(-1022.251 -550.21)" fill="#f3c6d4" fill-rule="evenodd"/>
      <path id="Trazado_99121" data-name="Trazado 99121" d="M1161.1,829.206l1.06-.379a7.336,7.336,0,0,0,5.421.233c3.021-1.032,3.837-2.728,3.837-2.728a.574.574,0,0,1,.473-.344h.712a1.525,1.525,0,0,1,1.4.9c.325.774,1.006,5.494.078,8.109s-2.228,2.271-2.228,2.271-5.158-1.522-8.639-.295-6.67,2.506-6.67,2.506S1156.7,832.548,1161.1,829.206Z" transform="translate(-1022.332 -549.396)" fill="#0e0226" fill-rule="evenodd"/>
      <path id="Trazado_99122" data-name="Trazado 99122" d="M1140,838.782l-.384-1.127v-1.368c0-.513.215-2.054,1.7-2.054h5.705c1.321,0,8.473-3.635,13.968-8.106a.754.754,0,0,1,.964-.123c.578.332,2.329,1.733,2.507,1.879a1.133,1.133,0,0,1,.095.959l-5.19,10.28S1144.39,841.089,1140,838.782Z" transform="translate(-1024.731 -549.411)" fill="#1a0f44" fill-rule="evenodd"/>
      <path id="Trazado_99123" data-name="Trazado 99123" d="M1139.655,836.522a.943.943,0,0,0-.335.59v1.1a2.148,2.148,0,0,0,2.137,1.4h15.83a13.532,13.532,0,0,0,5.653-1.232,32.747,32.747,0,0,1,4.077-1.492s.378-.128.378.521v1.258c0,.314-.193,1.169,1.1,1.169h7.7c.586,0,1.257-.334,1.257-1.533v-3.085c0-.747-.452-1.337-.94-1.337h-5.922c-2.482,0-4.462.609-7.55,2.063a20.2,20.2,0,0,1-9.126,1.887h-8.86C1143.5,837.826,1140.709,837.472,1139.655,836.522Z" transform="translate(-1024.773 -548.278)" fill="#0e0226" fill-rule="evenodd"/>
      <path id="Trazado_99124" data-name="Trazado 99124" d="M1088.34,634.052s-3.569,5.988-1.329,19.6,17.691,66.6,7.2,94.255a2.5,2.5,0,0,0,1.155,2.94c1.8,1.045,27.291,5.468,45.924-2.47S1127.194,638.09,1088.34,634.052Z" transform="translate(-1032.292 -576.601)" fill="#4c708f" fill-rule="evenodd"/>
      <path id="Trazado_99125" data-name="Trazado 99125" d="M1133.3,847.578s4.174,2.535,11.235,1a3.726,3.726,0,0,0,2.2-2.53c.4-1.867,13.594-112.918,15.191-132.634s-10.447-31.752-28.9-44.407-3.009-1.971-4.439-2.781a168.347,168.347,0,0,1-9.947,27.832l-.042,8.35a6.832,6.832,0,0,0,.421,1.653c5.623,22.351,6.286,40.186,7.131,62.669.034.656-.33-16.877.077,1.964s4.676,73.02,4.943,75.152S1132.37,847.377,1133.3,847.578Z" transform="translate(-1027.709 -572.529)" fill="#344154" fill-rule="evenodd"/>
      <path id="Trazado_99126" data-name="Trazado 99126" d="M1091.218,655.982l5.333,8.656s22.6,38.823,25.733,44.352,16.526,4.744,16.526,4.744l-28.61-83.158s-9.994-1.581-13.869-1.5-6.365,6.015-6.365,6.015Z" transform="translate(-1031.768 -577.307)" fill="#344154" fill-rule="evenodd"/>
      <path id="Trazado_99127" data-name="Trazado 99127" d="M1088.34,634.052s-3.569,5.988-1.329,19.6c1.731,10.522,11.35,44.563,10.787,72.251l0,0c4.921-50.4-4.148-82.277-7.314-91.522C1089.775,634.246,1089.058,634.126,1088.34,634.052Z" transform="translate(-1032.292 -576.601)" fill="#428fcd" fill-rule="evenodd"/>
      <path id="Trazado_99128" data-name="Trazado 99128" d="M1165.947,847.82s3.877,2.168,10.937.637a3.726,3.726,0,0,0,2.2-2.53c.4-1.867,5.68-39.1,7.277-58.815s15-93.678-20.373-117.936-43,17.6-43,17.6,33,13.889,33.8,50.921,6.761,104.266,7.027,106.4S1165.013,847.62,1165.947,847.82Z" transform="translate(-1027.087 -572.695)" fill="#5d6776" fill-rule="evenodd"/>
      <path id="Trazado_99129" data-name="Trazado 99129" d="M1164.869,844.713a20.466,20.466,0,0,0,8.032-.272,3.726,3.726,0,0,0,2.2-2.53c.4-1.866,5.68-39.1,7.277-58.815,1.214-14.957,9.213-61.14-2.444-93.154-.16.112-18.367,12.872-28.846,30.771a57.888,57.888,0,0,1,1.718,12.963c.135,6.25.419,13.359.795,20.871,4.495-4.824,10.469-11.317,13.5-14.957,5.241-6.287,11.136-4.061,13.233-1.047s-5.9,78.868-6.944,88.563C1172.65,833.93,1167.725,841.078,1164.869,844.713Z" transform="translate(-1023.105 -568.679)" fill="#858d98" fill-rule="evenodd"/>
      <path id="Trazado_99130" data-name="Trazado 99130" d="M1088.047,617.272c.055-.007.21.648.861,1.745l-3.212,3.38a28.486,28.486,0,0,0,2,2.219,6.936,6.936,0,0,0-3.511,2.546s-3.447,10.618-2.446,11.648c-.035.043-.071.087-.108.13-6.208,7.329-10.018,4.9-10.793,4.245s-4.59-4.154-5-4.235-1.883,1.658-2.876.816-5.815-6.737-11.063-15.022-2.286-17.831-2.286-17.831c12.8-10.388,23.427,9.175,24.714,5.891s4.957-3.586,6.993.057C1081.6,613.371,1087.972,616.728,1088.047,617.272Z" transform="translate(-1037.607 -580.883)" fill="#f3c6d4" fill-rule="evenodd"/>
      <path id="Trazado_99131" data-name="Trazado 99131" d="M1088.047,617.238c.055-.007.21.648.861,1.745l-3.212,3.38a28.486,28.486,0,0,0,2,2.219,8.093,8.093,0,0,0-1.039.44,2.606,2.606,0,0,0-.325-1.258c-.872-1.006-2.611-3.165-2.611-3.165a1.933,1.933,0,0,1-2.891-1.553c-.459-2.684-2.522-5.306-4.684-4.88s-.92,3.239-.92,3.239l5.113,7.373-.851,8.778s-7.992,1.441-6.353-1.964-2.556-6.028-7.4-11.53-7.533-4.913-8.779-4.061c-.776.531-4.382,2.949-6.984,4.693a23.614,23.614,0,0,1-1.042-10.134,63.25,63.25,0,0,1,10.953-6.477c7.839,1.724,13.527,11.035,14.448,8.69,1.287-3.283,4.957-3.586,6.993.057C1081.6,613.337,1087.972,616.694,1088.047,617.238Z" transform="translate(-1037.607 -580.849)" fill="#e98daf" fill-rule="evenodd"/>
      <path id="Trazado_99132" data-name="Trazado 99132" d="M1085.755,615.595s2.491.166,4.389.248S1093.6,627,1093.6,627l-3.234,4.915-.753,1.146-2.448,3.722-.232-1.149s-2.562-1.985-4.175.249-5.653-3.751-5.653-3.751S1076.373,619.006,1085.755,615.595Z" transform="translate(-1033.593 -579.217)" fill="#f3c6d4" fill-rule="evenodd"/>
      <path id="Trazado_99133" data-name="Trazado 99133" d="M1085.352,615.595s2.491.166,4.389.248S1093.2,627,1093.2,627l-3.234,4.915-.753,1.146-2.448,3.722-.232-1.149s-2.562-1.985-4.175.249a1.185,1.185,0,0,1-1.555.36l1.109-4.61s.872-8.492,0-9.5c-.531-.613-1.383-1.652-1.968-2.371A11.252,11.252,0,0,1,1085.352,615.595Z" transform="translate(-1033.189 -579.217)" fill="#e98daf" fill-rule="evenodd"/>
      <path id="Trazado_99134" data-name="Trazado 99134" d="M1071.257,620.083c-.007,0-5.848,2.853-10.471-5.919,0,0-5.987,6.346-9.889,7.933a2.524,2.524,0,0,1-.243.082l.243-.082a8.824,8.824,0,0,1-3.5-.747,12.479,12.479,0,0,1-7.128-6.265c-3.406-6.813.655-10.285,4.324-9.826,0,0,5.5-11.988,8.58-15.525s10.285-2.03,10.285-2.03-1.048-3.079.2-3.8,7.99.613,10.611,8.429c0,0,5.241-.856,8,1.813s8.858,25.842,8.89,25.964c.132,1.479-.453,2.969-1.943,3.022a7.611,7.611,0,0,1-6.444-3.011s-1.937-6.917-5.346-5.871c0,0-2.9.027-1.541,4.9a15.14,15.14,0,0,0,2.781,3.516,27.712,27.712,0,0,1,9.075,11.484c3.061,7.153-3.407,11.674-5.184,13.771s-4.758,3.73-6.9,1.915-6.977-5.91-7.711-6.528-.9-1.3-.725-1.5c0,0,3.119-3.309,5.486-5.583s4.216-3.751,4.218-6.35-.06-4.65-2.447-7.311A11.368,11.368,0,0,0,1071.257,620.083Z" transform="translate(-1038.993 -583.734)" fill="#344154" fill-rule="evenodd"/>
      <path id="Trazado_99135" data-name="Trazado 99135" d="M1060.786,614.164s-5.987,6.346-9.889,7.933a2.524,2.524,0,0,1-.243.082l.243-.082a8.824,8.824,0,0,1-3.5-.747,12.479,12.479,0,0,1-7.128-6.265c-3.406-6.813.655-10.285,4.324-9.826,0,0,5.5-11.988,8.58-15.525s10.285-2.03,10.285-2.03-1.048-3.079.2-3.8,7.99.613,10.611,8.429C1074.27,592.334,1074.291,600.142,1060.786,614.164Z" transform="translate(-1038.993 -583.734)" fill="#27313f" fill-rule="evenodd"/>
      <path id="Trazado_99136" data-name="Trazado 99136" d="M1039.551,613.217c-1.978-5.684,1.7-8.542,5.046-8.124,0,0,21.225,5,24.108-20.193a11.7,11.7,0,0,1,.977.655C1069.963,595.978,1066.855,615.262,1039.551,613.217Z" transform="translate(-1038.993 -583.568)" fill="#344154" fill-rule="evenodd"/>
      <path id="Trazado_99137" data-name="Trazado 99137" d="M1060.267,625.779h0a1.36,1.36,0,0,1,1.912.159l1.142,1.351a1.36,1.36,0,0,1-.16,1.912h0a1.359,1.359,0,0,1-1.91-.16l-1.143-1.352A1.359,1.359,0,0,1,1060.267,625.779Z" transform="translate(-1036.045 -577.819)" fill="#344154" fill-rule="evenodd"/>
      <path id="Trazado_99138" data-name="Trazado 99138" d="M1063.915,628.876a2.005,2.005,0,1,1-.236,2.826A2,2,0,0,1,1063.915,628.876Z" transform="translate(-1035.561 -577.402)" fill="#ed7792" fill-rule="evenodd"/>
      <path id="Trazado_99139" data-name="Trazado 99139" d="M1060.915,623.513a.411.411,0,1,0-.178-.8,5.1,5.1,0,0,0-3.586,2.937.412.412,0,0,0,.774.281A4.256,4.256,0,0,1,1060.915,623.513Z" transform="translate(-1036.423 -578.21)" fill="#344154" fill-rule="evenodd"/>
      <path id="Trazado_99140" data-name="Trazado 99140" d="M1098.8,702.458s-17.291,6.451-19.1,7.323-3.793-6.332-3.961-7.5,1.07-2.548,3.415-3.891,15.377-8.9,15.377-8.9Z" transform="translate(-1033.787 -568.744)" fill="#fff" fill-rule="evenodd"/>
      <path id="Trazado_99141" data-name="Trazado 99141" d="M1101.256,707.74c-6.325,2.375-17.287,6.515-18.846,7.267-2.21,1.065-4.632-7.732-4.839-9.165s1.307-3.111,4.172-4.751c1.619-.927,7.41-4.279,12.138-7.017a13.326,13.326,0,0,0,4.855-9.4c.634-6.47,2.86-36.151,2.86-36.151l17.324,7.706,3.074,4.53s-6.5,28.1-9.044,34.635S1106.864,705.628,1101.256,707.74Z" transform="translate(-1033.527 -574.551)" fill="#344154" fill-rule="evenodd"/>
      <path id="Trazado_99142" data-name="Trazado 99142" d="M1187.574,671.229s12.314,21.3,14.638,53.206a1.506,1.506,0,0,1-1.032,1.605c-1.233.525-11.545.03-23.663,14.9s-31.482,28.24-42.586,26.5c0,0-1.2-.007-1.349-1.951s-2.474-89.224-38.143-120.764a10.187,10.187,0,0,1-3.335-7.677C1092.231,632.214,1147.987,612.432,1187.574,671.229Z" transform="translate(-1031.466 -577.182)" fill="#6595bf" fill-rule="evenodd"/>
      <path id="Trazado_99143" data-name="Trazado 99143" d="M1172.437,690.729l-2.583,8.648s-5.5.268-19.77-28.36c0,0-5.679-11.029-22.07-14.4l7.3-10.39s31.158,5.5,31,8.162S1172.437,690.729,1172.437,690.729Z" transform="translate(-1026.375 -574.876)" fill="#4c708f" fill-rule="evenodd"/>
      <path id="Trazado_99144" data-name="Trazado 99144" d="M1103.2,666.168l10.284-6.906a2.719,2.719,0,0,1,3.415.435l17.973,19.861a1.917,1.917,0,0,1-.345,2.959l-10.284,6.905a2.718,2.718,0,0,1-3.415-.434l-17.973-19.862A1.916,1.916,0,0,1,1103.2,666.168Z" transform="translate(-1030.019 -573.087)" fill="#344154" fill-rule="evenodd"/>
      <path id="Trazado_99145" data-name="Trazado 99145" d="M1101.888,667.046l10.285-6.906a2.716,2.716,0,0,1,3.414.435l17.974,19.861a1.919,1.919,0,0,1-.345,2.959l-10.285,6.905a2.721,2.721,0,0,1-3.416-.434l-17.972-19.861A1.917,1.917,0,0,1,1101.888,667.046Z" transform="translate(-1030.204 -572.963)" fill="#1a212a" fill-rule="evenodd"/>
      <path id="Trazado_99146" data-name="Trazado 99146" d="M1103.078,668.411l1.657-1.112a.438.438,0,0,1,.549.071l4.449,4.914a.309.309,0,0,1-.055.477l-1.656,1.111a.437.437,0,0,1-.55-.07l-4.451-4.915A.309.309,0,0,1,1103.078,668.411Z" transform="translate(-1029.93 -571.898)" fill="#674f9b" fill-rule="evenodd"/>
      <path id="Trazado_99147" data-name="Trazado 99147" d="M1104.328,668.289a1.092,1.092,0,0,1,1.408.2.829.829,0,0,1-.168,1.256,1.09,1.09,0,0,1-1.407-.2A.827.827,0,0,1,1104.328,668.289Z" transform="translate(-1029.787 -571.773)" fill="#d3ebfa" fill-rule="evenodd"/>
      <path id="Trazado_99148" data-name="Trazado 99148" d="M1105.82,669.958a1.092,1.092,0,0,1,1.407.2.828.828,0,0,1-.169,1.256,1.091,1.091,0,0,1-1.407-.2A.828.828,0,0,1,1105.82,669.958Z" transform="translate(-1029.575 -571.536)" fill="#d3ebfa" fill-rule="evenodd"/>
      <path id="Trazado_99149" data-name="Trazado 99149" d="M1106.033,670.225a.62.62,0,0,1,.8.112.47.47,0,0,1-.1.712.619.619,0,0,1-.8-.112A.471.471,0,0,1,1106.033,670.225Z" transform="translate(-1029.521 -571.488)" fill="#fff" fill-rule="evenodd"/>
      <path id="Trazado_99150" data-name="Trazado 99150" d="M1104.525,668.534a.661.661,0,0,1,.848.119.5.5,0,0,1-.1.757.658.658,0,0,1-.847-.12A.5.5,0,0,1,1104.525,668.534Z" transform="translate(-1029.737 -571.729)" fill="#fff" fill-rule="evenodd"/>
      <path id="Trazado_99151" data-name="Trazado 99151" d="M1107.223,671.541a.657.657,0,0,1,.846.12.5.5,0,0,1-.1.756.658.658,0,0,1-.847-.12A.5.5,0,0,1,1107.223,671.541Z" transform="translate(-1029.355 -571.302)" fill="#d3ebfa" fill-rule="evenodd"/>
      <path id="Trazado_99152" data-name="Trazado 99152" d="M1094.1,609.16c-.209.121-4.48,1.229-5.2,1.552s-.947,1.844-1.105,4.437-2.264,21.814-2.365,22.909a1.748,1.748,0,0,0,1.24,2.078c.949.325,11.885,4.261,11.885,4.261Z" transform="translate(-1032.413 -580.13)" fill="#344154" fill-rule="evenodd"/>
      <path id="Trazado_99153" data-name="Trazado 99153" d="M1147.209,656.591s-16.527,10.952-18.428,11.972,3.107,7.3,4.02,8.183,2.891.679,5.54-.51,17.441-7.746,17.441-7.746Z" transform="translate(-1026.327 -573.407)" fill="#fff" fill-rule="evenodd"/>
      <path id="Trazado_99154" data-name="Trazado 99154" d="M1154.391,650.978s-21.612,14.324-24.1,15.659,4.063,9.542,5.258,10.7,3.78.887,7.243-.669,22.814-10.13,22.814-10.13Z" transform="translate(-1026.131 -574.202)" fill="#1a212a" fill-rule="evenodd"/>
      <path id="Trazado_99155" data-name="Trazado 99155" d="M1113.348,659.223a144.152,144.152,0,0,0,22.3,3.2c12.1.738,37.221,2.4,38.776,42.533,0,0,.188.212.836-.016s18.142-15.742,20.6-23.2-11.751-34.88-19.542-38.425-22.3-6.43-38.141-22.343-37.644-14.007-37.644-14.007l-4.743,17.561S1097.951,654.681,1113.348,659.223Z" transform="translate(-1030.943 -580.451)" fill="#84aacc" fill-rule="evenodd"/>
      <path id="Trazado_99156" data-name="Trazado 99156" d="M1166.9,681.188c2.428,5.631,4.051,12.854,4.411,22.136,0,0,.188.212.836-.016s18.142-15.742,20.6-23.2c.984-2.986-.7-9.172-3.582-15.743-.011,4.808-.644,10.133-3.046,12.786-3.37,3.721-13.2,4.15-19.217,4.036Zm7.6-38.737a8.111,8.111,0,0,0-1.295-.767c-7.792-3.544-22.3-6.43-38.141-22.343-.328-.33-.66-.65-.992-.964.118.265,10.23,23.173-15.04,28.252,0,0-1.637.328-1.178,1.7S1164.3,635.961,1174.493,642.451Z" transform="translate(-1027.828 -578.823)" fill="#6595bf" fill-rule="evenodd"/>
      <path id="Trazado_99157" data-name="Trazado 99157" d="M1101.208,606.911c-.588.021-.909.048-.909.048l-2.9,10.727,4.2,29.324,3.691,1.52s-.612-4.107-.286-4.4,8.058-4.094,9.041-4.618a1.4,1.4,0,0,0,.787-1.473C1114.083,636.463,1103.534,612.251,1101.208,606.911Z" transform="translate(-1030.714 -580.448)" fill="#1b7fc2" fill-rule="evenodd"/>
      <path id="Trazado_99158" data-name="Trazado 99158" d="M1093.316,606.213a2.416,2.416,0,0,0-1.3,1.555c-.3,1.15.134,25.164.237,27.839s10.881,16.345,13.556,19.511,6.632,3.94,8.083,4.229a.156.156,0,0,0,.142-.134c.016-.123-4.2-1.864-5.482-3.812s-3.51-10.289-3.769-11.506c0,0,7.408-3.568,8.685-4.292s1.481-1.311,1-2.14-12.525-29.323-13.394-30.377S1097.053,605.774,1093.316,606.213Z" transform="translate(-1031.492 -580.576)" fill="#d3ebfa" fill-rule="evenodd"/>
      <path id="Trazado_99159" data-name="Trazado 99159" d="M1064.1,587.812a.371.371,0,1,1-.427.606c-.011-.008-4.068-2.923-10.594-1.707a.37.37,0,0,1-.132-.728C1059.78,584.71,1064.085,587.8,1064.1,587.812Z" transform="translate(-1037.059 -583.458)" fill="#201049" fill-rule="evenodd"/>
      <path id="Trazado_99160" data-name="Trazado 99160" d="M1050.423,616.649a.371.371,0,0,1,.329.664c-.021.01-6.958,3.562-11.321-4.551a.371.371,0,0,1,.654-.352C1044.1,619.887,1050.4,616.658,1050.423,616.649Z" transform="translate(-1038.937 -579.696)" fill="#201049" fill-rule="evenodd"/>
      <path id="Trazado_99161" data-name="Trazado 99161" d="M1130.823,667.984c-1.093-.39-3.367-1.628-3.969-1.928-.678-.339-6.351-1.61-6.351-1.61l3.048,3.388s-9.314,4.065-11.347,5.673-.762,2.37,1.017,2.37H1115s-.339,3.048,1.948,3.133a12.225,12.225,0,0,0,2.454,0s.847,2.54,2.712,2.287a25.059,25.059,0,0,0,8.805-3.133c3.012-1.712,3.81-2.593,4.005-2.867C1133.7,673.912,1130.44,669.648,1130.823,667.984Z" transform="translate(-1028.764 -572.293)" fill="#f2bbc9" fill-rule="evenodd"/>
      <path id="Trazado_99162" data-name="Trazado 99162" d="M1130.823,667.606c-.309-.11-.711-.288-1.143-.492-.194,3.354,2.407,6.022-1.734,8.234-4.558,2.436-7.546,1.808-12.734-3.144-.241-.164-.474-.319-.7-.468a17.554,17.554,0,0,0-2.3,1.393c-2.032,1.609-.762,2.37,1.017,2.37H1115s-.339,3.048,1.948,3.133a12.225,12.225,0,0,0,2.454,0s.847,2.54,2.712,2.287a25.059,25.059,0,0,0,8.805-3.133c3.012-1.712,3.81-2.593,4.005-2.867C1133.7,673.534,1130.44,669.27,1130.823,667.606Z" transform="translate(-1028.764 -571.915)" fill="#e98daf" fill-rule="evenodd"/>
    </g>
    <g id="Grupo_53279" data-name="Grupo 53279" transform="translate(908.095 691.636)">
      <path id="Trazado_99163" data-name="Trazado 99163" d="M1025.74,677.892H908.06c-5.863,0-10.659,4.012-10.659,8.914V861.723h139V686.806C1036.4,681.9,1031.6,677.892,1025.74,677.892Z" transform="translate(-897.401 -677.892)" fill="#6595bf" fill-rule="evenodd"/>
      <path id="Trazado_99164" data-name="Trazado 99164" d="M1040.077,677.892H941.492c-4.913,0-8.932,3.36-8.932,7.467V861.723h116.447V685.359C1049.007,681.252,1044.99,677.892,1040.077,677.892Z" transform="translate(-892.418 -677.892)" fill="#80bbe7" fill-rule="evenodd"/>
      <path id="Trazado_99165" data-name="Trazado 99165" d="M1039.211,681.921H940.626a1.825,1.825,0,0,0-1.958,1.637V861.151h102.5V683.558A1.824,1.824,0,0,0,1039.211,681.921Z" transform="translate(-891.552 -677.321)" fill="#fff" fill-rule="evenodd"/>
      <path id="Trazado_99166" data-name="Trazado 99166" d="M972.068,681.921h26.879a2.124,2.124,0,0,1,2.28,1.906v0a2.124,2.124,0,0,1-2.28,1.907H972.068a2.125,2.125,0,0,1-2.28-1.907v0A2.125,2.125,0,0,1,972.068,681.921Z" transform="translate(-887.141 -677.321)" fill="#1a212a" fill-rule="evenodd"/>
      <path id="Trazado_99167" data-name="Trazado 99167" d="M940.626,681.921h98.585a1.824,1.824,0,0,1,1.958,1.637v.27h-102.5v-.27A1.825,1.825,0,0,1,940.626,681.921Z" transform="translate(-891.552 -677.321)" fill="#1a212a" fill-rule="evenodd"/>
      <path id="Trazado_99168" data-name="Trazado 99168" d="M972.068,800.846h26.879a2.124,2.124,0,0,1,2.28,1.906v0a2.125,2.125,0,0,1-2.28,1.907H972.068a2.125,2.125,0,0,1-2.28-1.907v0A2.125,2.125,0,0,1,972.068,800.846Z" transform="translate(-887.141 -660.464)" fill="#1a212a" fill-rule="evenodd"/>
      <path id="Trazado_99169" data-name="Trazado 99169" d="M940.626,800.846h98.585a1.824,1.824,0,0,1,1.958,1.635v.272h-102.5v-.272A1.825,1.825,0,0,1,940.626,800.846Z" transform="translate(-891.552 -660.464)" fill="#1a212a" fill-rule="evenodd"/>
      <g id="Grupo_53271" data-name="Grupo 53271" transform="translate(47.116 33.276)">
        <rect id="Rectángulo_5035" data-name="Rectángulo 5035" width="23.366" height="36.715" transform="translate(0)" fill="#f9b532"/>
        <rect id="Rectángulo_5036" data-name="Rectángulo 5036" width="23.366" height="31.281" transform="translate(0 5.434)" fill="#f59f3a"/>
        <rect id="Rectángulo_5037" data-name="Rectángulo 5037" width="23.366" height="27.971" transform="translate(0 8.745)" fill="#fff"/>
        <rect id="Rectángulo_5038" data-name="Rectángulo 5038" width="23.366" height="27.971" transform="translate(0 8.745)" fill="#fff2d1"/>
        <path id="Trazado_99170" data-name="Trazado 99170" d="M962.035,712.63H944.742a6.886,6.886,0,0,0-6.074,4.422v25.907h23.367Z" transform="translate(-938.668 -706.244)" fill="#fcc749" fill-rule="evenodd"/>
      </g>
      <g id="Grupo_53272" data-name="Grupo 53272" transform="translate(54.501 33.276)">
        <rect id="Rectángulo_5039" data-name="Rectángulo 5039" width="15.982" height="32.457" fill="#f18d3d"/>
        <rect id="Rectángulo_5040" data-name="Rectángulo 5040" width="15.982" height="27.023" transform="translate(0 5.434)" fill="#ee7e40"/>
        <rect id="Rectángulo_5041" data-name="Rectángulo 5041" width="15.982" height="23.713" transform="translate(0 8.745)" fill="#f2bcc2"/>
        <rect id="Rectángulo_5042" data-name="Rectángulo 5042" width="15.982" height="23.713" transform="translate(0 8.745)" fill="#f2b2a5"/>
        <rect id="Rectángulo_5043" data-name="Rectángulo 5043" width="15.982" height="26.071" transform="translate(0 6.386)" fill="#f39a4c"/>
      </g>
      <g id="Grupo_53273" data-name="Grupo 53273" transform="translate(60.559 33.276)">
        <path id="Trazado_99171" data-name="Trazado 99171" d="M991.152,707.037H955.439a5.013,5.013,0,0,0-5,5v31.718h40.71Z" transform="translate(-950.442 -707.037)" fill="#f9b532" fill-rule="evenodd"/>
        <path id="Trazado_99172" data-name="Trazado 99172" d="M990.807,711.8H957.871a5.012,5.012,0,0,0-5,5v26.283h37.933Z" transform="translate(-950.097 -706.362)" fill="#f59f3a" fill-rule="evenodd"/>
        <path id="Trazado_99173" data-name="Trazado 99173" d="M954.738,742.666v-23.9a4.084,4.084,0,0,1,4.072-4.073h31.734v27.97Z" transform="translate(-949.833 -705.951)" fill="#fff" fill-rule="evenodd"/>
        <path id="Trazado_99174" data-name="Trazado 99174" d="M956.914,742.666l6.357-25.332a6.424,6.424,0,0,1,1.422-2.639h25.542v27.97Z" transform="translate(-949.525 -705.951)" fill="#fff2d1" fill-rule="evenodd"/>
        <path id="Trazado_99175" data-name="Trazado 99175" d="M989.81,712.63H972.518a6.864,6.864,0,0,0-6.252,5l-6.358,25.332h29.9Z" transform="translate(-949.1 -706.244)" fill="#fcc749" fill-rule="evenodd"/>
      </g>
      <g id="Grupo_53274" data-name="Grupo 53274" transform="translate(85.287 33.276)">
        <rect id="Rectángulo_5044" data-name="Rectángulo 5044" width="15.982" height="32.457" fill="#f18d3d"/>
        <rect id="Rectángulo_5045" data-name="Rectángulo 5045" width="15.982" height="27.023" transform="translate(0 5.434)" fill="#ee7e40"/>
        <rect id="Rectángulo_5046" data-name="Rectángulo 5046" width="15.982" height="23.713" transform="translate(0 8.745)" fill="#f2bcc2"/>
        <rect id="Rectángulo_5047" data-name="Rectángulo 5047" width="15.982" height="23.713" transform="translate(0 8.745)" fill="#f2b2a5"/>
        <rect id="Rectángulo_5048" data-name="Rectángulo 5048" width="15.982" height="26.071" transform="translate(0 6.386)" fill="#f39a4c"/>
      </g>
      <g id="Grupo_53275" data-name="Grupo 53275" transform="translate(91.345 33.276)">
        <path id="Trazado_99176" data-name="Trazado 99176" d="M1018.117,707.037H982.4a5.013,5.013,0,0,0-5,5v31.718h40.711Z" transform="translate(-977.406 -707.037)" fill="#f9b532" fill-rule="evenodd"/>
        <path id="Trazado_99177" data-name="Trazado 99177" d="M1017.772,711.8H984.835a5.013,5.013,0,0,0-5,5v26.283h37.934Z" transform="translate(-977.061 -706.362)" fill="#f59f3a" fill-rule="evenodd"/>
        <path id="Trazado_99178" data-name="Trazado 99178" d="M981.7,742.666v-23.9a4.084,4.084,0,0,1,4.073-4.073h31.734v27.97Z" transform="translate(-976.797 -705.951)" fill="#fff" fill-rule="evenodd"/>
        <path id="Trazado_99179" data-name="Trazado 99179" d="M983.878,742.666l6.358-25.332a6.407,6.407,0,0,1,1.42-2.639H1017.2v27.97Z" transform="translate(-976.489 -705.951)" fill="#fff2d1" fill-rule="evenodd"/>
        <path id="Trazado_99180" data-name="Trazado 99180" d="M1016.775,712.63H999.482a6.864,6.864,0,0,0-6.252,5l-6.357,25.332h29.9Z" transform="translate(-976.064 -706.244)" fill="#fcc749" fill-rule="evenodd"/>
      </g>
      <g id="Grupo_53276" data-name="Grupo 53276" transform="translate(116.074 33.276)">
        <rect id="Rectángulo_5049" data-name="Rectángulo 5049" width="15.982" height="32.457" fill="#f18d3d"/>
        <rect id="Rectángulo_5050" data-name="Rectángulo 5050" width="15.982" height="27.023" transform="translate(0 5.434)" fill="#ee7e40"/>
        <rect id="Rectángulo_5051" data-name="Rectángulo 5051" width="15.982" height="23.713" transform="translate(0 8.745)" fill="#f2bcc2"/>
        <rect id="Rectángulo_5052" data-name="Rectángulo 5052" width="15.982" height="23.713" transform="translate(0 8.745)" fill="#f2b2a5"/>
        <rect id="Rectángulo_5053" data-name="Rectángulo 5053" width="15.982" height="26.071" transform="translate(0 6.386)" fill="#f39a4c"/>
      </g>
      <g id="Grupo_53277" data-name="Grupo 53277" transform="translate(121.216 29.573)">
        <path id="Trazado_99181" data-name="Trazado 99181" d="M1008.568,763.307h60.347a5.013,5.013,0,0,0,5-5V712.494a5.011,5.011,0,0,0-5-5h-2.454V705.17a1.379,1.379,0,0,0-1.376-1.376h-18.232a1.379,1.379,0,0,0-1.375,1.376V707.5h-36.91a5.013,5.013,0,0,0-5,5v45.815A5.014,5.014,0,0,0,1008.568,763.307Z" transform="translate(-1003.569 -703.794)" fill="#f9b532" fill-rule="evenodd"/>
        <path id="Trazado_99182" data-name="Trazado 99182" d="M1008.223,762.633h60.347a5.013,5.013,0,0,0,5-5V712.78a4.957,4.957,0,0,0-2.221-.524h-2.454V709.93a1.379,1.379,0,0,0-1.375-1.376h-18.232a1.379,1.379,0,0,0-1.376,1.376v2.326H1011a5.013,5.013,0,0,0-5,5v44.854A4.947,4.947,0,0,0,1008.223,762.633Z" transform="translate(-1003.224 -703.119)" fill="#f59f3a" fill-rule="evenodd"/>
        <rect id="Rectángulo_5054" data-name="Rectángulo 5054" width="46.279" height="47.066" rx="3.567" transform="translate(4.906 12.447)" fill="#fff"/>
        <path id="Trazado_99183" data-name="Trazado 99183" d="M1050.072,761.762h-38.133a4.084,4.084,0,0,1-4.073-4.073v-5.124l8.842-35.231a6.4,6.4,0,0,1,1.422-2.639h31.942a4.085,4.085,0,0,1,4.073,4.073v38.921A4.085,4.085,0,0,1,1050.072,761.762Z" transform="translate(-1002.96 -702.249)" fill="#fff2d1" fill-rule="evenodd"/>
        <path id="Trazado_99184" data-name="Trazado 99184" d="M1013.7,762.589h55.719a6.865,6.865,0,0,0,6.252-5l9.9-39.429a3.779,3.779,0,0,0-3.745-5h-2.928l.622-2.475a1.38,1.38,0,0,0-1.368-1.824h-20.337a2.508,2.508,0,0,0-2.283,1.824l-.62,2.475h-28.8a6.867,6.867,0,0,0-6.253,5l-9.9,39.429A3.78,3.78,0,0,0,1013.7,762.589Z" transform="translate(-1002.686 -703.075)" fill="#fcc749" fill-rule="evenodd"/>
        <path id="Trazado_99185" data-name="Trazado 99185" d="M1073.028,720.34l-7.908,31.512a6.868,6.868,0,0,1-6.253,5h-48.725l-.186.74a3.78,3.78,0,0,0,3.744,5h55.719a6.865,6.865,0,0,0,6.252-5l9.9-39.429a3.778,3.778,0,0,0-3.744-5h-2.928l.622-2.475a1.38,1.38,0,0,0-1.368-1.824h-3.738a4.109,4.109,0,0,1,.605,3.559Z" transform="translate(-1002.686 -703.075)" fill="#f9b532" fill-rule="evenodd"/>
      </g>
      <rect id="Rectángulo_5055" data-name="Rectángulo 5055" width="102.499" height="43.354" transform="translate(115.822 51.767)" fill="#fff"/>
      <g id="Grupo_53278" data-name="Grupo 53278" transform="translate(47.116 95.12)">
        <path id="Trazado_99186" data-name="Trazado 99186" d="M972.068,761.2h26.879a2.125,2.125,0,0,1,2.28,1.907v0a2.123,2.123,0,0,1-2.28,1.906H972.068a2.124,2.124,0,0,1-2.28-1.906v0A2.125,2.125,0,0,1,972.068,761.2Z" transform="translate(-934.257 -761.203)" fill="#1a212a" fill-rule="evenodd"/>
        <path id="Trazado_99187" data-name="Trazado 99187" d="M940.626,761.2h98.585a1.824,1.824,0,0,1,1.958,1.636v.272h-102.5v-.272A1.825,1.825,0,0,1,940.626,761.2Z" transform="translate(-938.668 -761.203)" fill="#1a212a" fill-rule="evenodd"/>
      </g>
      <path id="Trazado_99188" data-name="Trazado 99188" d="M1000.8,721.562h98.585a1.824,1.824,0,0,1,1.957,1.636v.271h-35.53a2.126,2.126,0,0,1-2.281,1.907h-26.878a2.125,2.125,0,0,1-2.279-1.907H998.844V723.2A1.825,1.825,0,0,1,1000.8,721.562Z" transform="translate(-883.022 -671.702)" fill="#1a212a" fill-rule="evenodd"/>
      <path id="Trazado_99189" data-name="Trazado 99189" d="M1007.373,766.586V723.232H938.668v44.99a1.825,1.825,0,0,1,1.958-1.636h66.747Z" transform="translate(-891.552 -671.465)" fill="#d3ebfa" fill-rule="evenodd"/>
    </g>
    <g id="Grupo_53285" data-name="Grupo 53285" transform="translate(868.859 734.475)">
      <g id="Grupo_53283" data-name="Grupo 53283">
        <g id="Grupo_53280" data-name="Grupo 53280" transform="translate(22.417)">
          <path id="Trazado_99190" data-name="Trazado 99190" d="M902.031,720.091c-11.736-13-20.467,3.514-19.248,20.1,1.155,15.722,13.608,69.667,11.3,92.361h4.768C910.514,803.448,917.055,736.74,902.031,720.091Z" transform="translate(-882.669 -715.412)" fill="#d9a171" fill-rule="evenodd"/>
          <path id="Trazado_99191" data-name="Trazado 99191" d="M895.852,831.67c11.353-45.868-3.019-109.274-3.068-109.488a.672.672,0,0,0-.813-.541.74.74,0,0,0-.5.886c.048.217,14.437,63.692,3,109.144Z" transform="translate(-881.424 -714.533)" fill="#d8364b" fill-rule="evenodd"/>
        </g>
        <g id="Grupo_53281" data-name="Grupo 53281" transform="translate(0 31.544)">
          <path id="Trazado_99192" data-name="Trazado 99192" d="M875.861,744.836c-12.369-7.131-15.487,8.428-10.665,21.3,3.995,10.668,21.647,42.224,28.321,62.5H899.8C900.338,800.616,890.459,753.253,875.861,744.836Z" transform="translate(-863.036 -743.041)" fill="#80bbe7" fill-rule="evenodd"/>
          <path id="Trazado_99193" data-name="Trazado 99193" d="M896.751,827.881c-4.091-37.893-27.247-79.084-27.33-79.232a.538.538,0,0,0-.774-.207.646.646,0,0,0-.19.843c.083.148,23.089,41.071,27.176,78.6Z" transform="translate(-862.279 -742.288)" fill="#428fcd" fill-rule="evenodd"/>
        </g>
        <g id="Grupo_53282" data-name="Grupo 53282" transform="translate(38.344 50.059)">
          <path id="Trazado_99194" data-name="Trazado 99194" d="M923.37,760.522c11.986-5.7,13.886,9.04,8.561,20.667-3.6,7.868-16.587,28.011-25.332,45.147h-9.98C900.031,800.412,910.98,766.413,923.37,760.522Z" transform="translate(-896.619 -759.257)" fill="#fcc749" fill-rule="evenodd"/>
          <path id="Trazado_99195" data-name="Trazado 99195" d="M899.741,825.626c8.509-31.407,28.109-61,28.186-61.123a.5.5,0,0,1,.735-.133.606.606,0,0,1,.122.8c-.078.119-19.47,29.408-27.96,60.456Z" transform="translate(-896.176 -758.548)" fill="#f9b532" fill-rule="evenodd"/>
        </g>
      </g>
      <g id="Grupo_53284" data-name="Grupo 53284" transform="translate(21.076 106.768)">
        <path id="Trazado_99196" data-name="Trazado 99196" d="M883.405,808.926h35.119a2,2,0,0,1,1.909,2.079v9.437a2,2,0,0,1-1.909,2.078H883.405a2,2,0,0,1-1.91-2.078v-9.437A2,2,0,0,1,883.405,808.926Z" transform="translate(-881.495 -808.926)" fill="#28256c" fill-rule="evenodd"/>
        <path id="Trazado_99197" data-name="Trazado 99197" d="M889.191,815.65h23.072l6.023,5.916-4.92,20.63H888.089l-4.921-20.63Z" transform="translate(-881.258 -807.973)" fill="#28256c" fill-rule="evenodd"/>
        <path id="Trazado_99198" data-name="Trazado 99198" d="M918.286,820.832l-1.011,4.241h-33.1l-1.012-4.241Z" transform="translate(-881.258 -807.238)" fill="#1a212a" fill-rule="evenodd"/>
      </g>
    </g>
    <path id="Trazado_99199" data-name="Trazado 99199" d="M1077.674,700.378c-.628.462-.968.766-.968.766s-5.5-.5-7.173,1.418-5.338,6.589-6.921,7.339.166,2.086,3.5.918a31.9,31.9,0,0,0,7.089-4,9.223,9.223,0,0,0,6.17-.806,26.373,26.373,0,0,1-1.69-5.276A1.474,1.474,0,0,1,1077.674,700.378Z" transform="translate(34.028 16.931)" fill="#f2bbc9" fill-rule="evenodd"/>
  </g>
</svg>
