<svg xmlns="http://www.w3.org/2000/svg" xmlns:xlink="http://www.w3.org/1999/xlink" width="386.065" height="403.38" viewBox="0 0 386.065 403.38">
  <defs>
    <clipPath id="clip-path">
      <path id="Trazado_99950" data-name="Trazado 99950" d="M1129.153,1276.3a2.334,2.334,0,0,1-.49.83c-3.54,3.35-18.65,7.07-31.63,9.75-10.75,2.23-20,3.74-20,3.74s-7.12-59.17-7.12-65.39-11.48-106.92-11.48-106.92l27.52-1.19,36.51-1.58s.22,2.69.59,7.39C1125.463,1152.866,1133.743,1264.486,1129.153,1276.3Z" fill="none"/>
    </clipPath>
    <clipPath id="clip-path-2">
      <path id="Trazado_99985" data-name="Trazado 99985" d="M1112.143,1102.866l73.32,19.34s-25.77,78.21-31,87.91l-8.74,68.18s-46.84-2.06-68.38-8.57c0,0,13.62-71,14.35-80.47S1112.143,1102.866,1112.143,1102.866Z" fill="none"/>
    </clipPath>
  </defs>
  <g id="Grupo_66539" data-name="Grupo 66539" transform="translate(-171.631 -7546.951)">
    <g id="Grupo_54073" data-name="Grupo 54073" transform="translate(-683.909 6496.953)">
      <circle id="Elipse_3978" data-name="Elipse 3978" cx="184.164" cy="184.164" r="184.164" transform="translate(870.777 1060.83)" fill="#cee5f7" stroke="#aed3f2" stroke-miterlimit="10" stroke-width="5"/>
      <g id="freepik--hand-1--inject-2">
        <path id="Trazado_99853" data-name="Trazado 99853" d="M1001.041,1207.871s-22.94-25.26-24.52-26.81-2.77-28.49-7.13-40.35-6.47-81.5-6.47-81.5-4.15-5.14-15.85-2.37-23.17-2.38-36.22,5.14,12.26,115.08,12.26,115.08l25.69,81.87Z" fill="rgba(0,0,0,0.7)" opacity="0.2" style="isolation: isolate"/>
        <path id="Trazado_99854" data-name="Trazado 99854" d="M1016.8,1208.061s-10.28,65.67-21,74.37c-6.19,5-15.84,7.3-24.4,7-6.2-.22-11.84-1.78-15.16-4.61-7.91-6.73-19-10.29-24.52-14.64s-5.54-19.78-9.1-32.84-8.71-13.45-9.89-26.5-5.94-53-14.54-64.09-8.8-19.78-12.36-31.06-29.6-52.09-29.6-52.09l63.48-13s6.24,25.83,12.92,46.9c3.17,10,6.44,18.94,9.18,23.52a196.734,196.734,0,0,1,13.63,27.69c7.18,7.52,11.11,24.18,12.3,38.77h0l17,9.48C997.811,1200.531,1016.8,1208.061,1016.8,1208.061Z" fill="#ffbf9d"/>
        <path id="Trazado_99855" data-name="Trazado 99855" d="M1016.8,1208.061s-10.28,65.67-21,74.37c-6.19,5-15.84,7.3-24.4,7-20.3-5-25.76-16.32-28.51-19.06-3.66-3.65-8.47-25.89-5.83-38.83s.74-17.73-1.44-24.05c-4.83-14,9.9-21.54,11.42-26.84s1-34.94-5.63-44.58c-3.52-5.13-12.59-31.57-8.77-38.55,3.17,10,6.44,18.94,9.18,23.52a196.746,196.746,0,0,1,13.63,27.69c7.18,7.52,11.11,24.18,12.3,38.77h0l17,9.48C997.811,1200.531,1016.8,1208.061,1016.8,1208.061Z" fill="#d9a171" opacity="0.4" style="isolation: isolate"/>
        <path id="Trazado_99856" data-name="Trazado 99856" d="M939.281,1203.441s-3.58,4.21-6.74,4.21" fill="none" stroke="#263238" stroke-linecap="round" stroke-linejoin="round" stroke-width="1"/>
        <path id="Trazado_99857" data-name="Trazado 99857" d="M947.071,1217.671s-3.85,8.18-10,10" fill="none" stroke="#263238" stroke-linecap="round" stroke-linejoin="round" stroke-width="1"/>
        <path id="Trazado_99858" data-name="Trazado 99858" d="M940.231,1265.611s8.71-3.76,10.09-10.09" fill="none" stroke="#263238" stroke-linecap="round" stroke-linejoin="round" stroke-width="1"/>
        <path id="Trazado_99859" data-name="Trazado 99859" d="M984.761,1196.971s-2.18,2.77-2.18,5" fill="none" stroke="#263238" stroke-linecap="round" stroke-linejoin="round" stroke-width="1"/>
        <path id="Trazado_99860" data-name="Trazado 99860" d="M919.751,1050.6s13.58,56.17,22.1,70.46a196.752,196.752,0,0,1,13.63,27.69c7.18,7.52,11.11,24.19,12.3,38.78h0l17,9.48c13.05,3.56,32,11.08,32,11.08s-10.28,65.67-21,74.37-31.55,9.06-39.55,2.34-19-10.29-24.52-14.64-5.54-19.78-9.1-32.84-8.71-13.45-9.89-26.5-5.94-53-14.54-64.09-8.8-19.78-12.36-31.06-29.59-52.07-29.59-52.07" fill="none" stroke="#263238" stroke-linecap="round" stroke-linejoin="round" stroke-width="1"/>
        <path id="Trazado_99861" data-name="Trazado 99861" d="M1040.851,1203.791l-9.7,164.75-95.29-3.13,7.52-126.24,2.34-39.2,41.52,1.67Z" fill="none" stroke="#263238" stroke-linecap="round" stroke-linejoin="round" stroke-width="1"/>
        <g id="Grupo_54066" data-name="Grupo 54066">
          <g id="Grupo_54043" data-name="Grupo 54043">
            <g id="Grupo_54040" data-name="Grupo 54040">
              <path id="Trazado_99862" data-name="Trazado 99862" d="M920.395,1205.774l23.807,247.38,184.186-17.35-26.561-247.2Z" fill="#fff"/>
            </g>
            <g id="Grupo_54042" data-name="Grupo 54042">
              <g id="Grupo_54041" data-name="Grupo 54041">
                <path id="Trazado_99863" data-name="Trazado 99863" d="M920.4,1205.774l181.414-17.348.182-.018.019.182c7.469,69.394,16.667,154.867,26.6,247.19l.025.229-.229.021-1.305.123-182.883,17.206-.2.019-.02-.2c-13.974-146.475-23.431-245.6-23.6-247.4l24.011,247.361-.223-.185,182.878-17.248,1.306-.123-.2.25-26.52-247.2.2.164Z" fill="#344154"/>
              </g>
            </g>
          </g>
          <g id="Grupo_54052" data-name="Grupo 54052">
            <g id="Grupo_54045" data-name="Grupo 54045">
              <g id="Grupo_54044" data-name="Grupo 54044">
                <path id="Trazado_99864" data-name="Trazado 99864" d="M1061.649,1393.393a27.148,27.148,0,1,1,27.085,27.211A27.18,27.18,0,0,1,1061.649,1393.393Zm53.8.126a26.649,26.649,0,1,0-26.711,26.586A26.68,26.68,0,0,0,1115.446,1393.519Z" fill="#e1e1e1"/>
              </g>
            </g>
            <g id="Grupo_54047" data-name="Grupo 54047">
              <g id="Grupo_54046" data-name="Grupo 54046">
                <path id="Trazado_99865" data-name="Trazado 99865" d="M1064.745,1393.4a23.678,23.678,0,1,1,23.622,23.733A23.7,23.7,0,0,1,1064.745,1393.4Zm43.862.1a20.185,20.185,0,1,0-20.232,20.137A20.207,20.207,0,0,0,1108.607,1393.5Z" fill="#e1e1e1"/>
              </g>
            </g>
            <g id="Grupo_54049" data-name="Grupo 54049">
              <g id="Grupo_54048" data-name="Grupo 54048">
                <path id="Trazado_99866" data-name="Trazado 99866" d="M1070.572,1393.747a17.341,17.341,0,0,1,1.876-7.854l3.117,1.577a13.877,13.877,0,0,0-1.5,6.286,14.027,14.027,0,0,0,21.33,12.005l1.823,2.979a17.518,17.518,0,0,1-26.645-14.993Z" fill="#e1e1e1"/>
              </g>
            </g>
            <g id="Grupo_54051" data-name="Grupo 54051">
              <g id="Grupo_54050" data-name="Grupo 54050">
                <path id="Trazado_99867" data-name="Trazado 99867" d="M1080,1378.245a17.52,17.52,0,0,1,22.909,24.876l-2.954-1.863a14.028,14.028,0,0,0-18.341-19.915Z" fill="#e1e1e1"/>
              </g>
            </g>
          </g>
          <g id="Grupo_54054" data-name="Grupo 54054">
            <g id="Grupo_54053" data-name="Grupo 54053">
              <path id="Trazado_99868" data-name="Trazado 99868" d="M1013.2,1250.305c.012.125-16.028,1.741-35.821,3.61s-35.856,3.284-35.868,3.159,16.025-1.741,35.825-3.61S1013.185,1250.181,1013.2,1250.305Z" fill="#344154"/>
            </g>
          </g>
          <g id="Grupo_54056" data-name="Grupo 54056">
            <g id="Grupo_54055" data-name="Grupo 54055">
              <path id="Trazado_99869" data-name="Trazado 99869" d="M1016.542,1415.425c.01.125-12.592,1.3-28.146,2.617s-28.176,2.291-28.186,2.166,12.589-1.3,28.148-2.617S1016.531,1415.3,1016.542,1415.425Z" fill="#d9a171"/>
            </g>
          </g>
          <g id="Grupo_54058" data-name="Grupo 54058">
            <g id="Grupo_54057" data-name="Grupo 54057">
              <path id="Trazado_99870" data-name="Trazado 99870" d="M992.335,1425.049c.011.125-7.059.827-15.79,1.568s-15.819,1.242-15.83,1.117,7.059-.827,15.792-1.568S992.325,1424.924,992.335,1425.049Z" fill="#d9a171"/>
            </g>
          </g>
          <g id="Grupo_54060" data-name="Grupo 54060">
            <g id="Grupo_54059" data-name="Grupo 54059">
              <path id="Trazado_99871" data-name="Trazado 99871" d="M990.4,1354.11c.013.124-8.306,1.046-18.578,2.058s-18.612,1.732-18.625,1.608,8.3-1.046,18.581-2.059S990.383,1353.985,990.4,1354.11Z" fill="#d9a171"/>
            </g>
          </g>
          <g id="Grupo_54061" data-name="Grupo 54061" opacity="0.3">
            <path id="Trazado_99872" data-name="Trazado 99872" d="M940.407,1411.3l16.907-3.268,9.455-14.253-26.944,8.849Z"/>
          </g>
          <g id="Grupo_54063" data-name="Grupo 54063">
            <g id="Grupo_54062" data-name="Grupo 54062">
              <path id="Trazado_99873" data-name="Trazado 99873" d="M1037.5,1394.615a1.59,1.59,0,0,1,.155.051,2.18,2.18,0,0,1,.44.207,6.3,6.3,0,0,1,1.452,1.229,20.787,20.787,0,0,1,3.658,6.308,26.424,26.424,0,0,1,1.9,11.358,17.149,17.149,0,0,1-.616,3.461,23.022,23.022,0,0,1-1.388,3.476,23.274,23.274,0,0,1-4.821,6.512,24.093,24.093,0,0,1-7.458,4.879,20.421,20.421,0,0,1-9.526,1.5,20.9,20.9,0,0,1-16.726-11.945,17.068,17.068,0,0,1-1.514-5.53,12.987,12.987,0,0,1,.609-5.834,9.381,9.381,0,0,1,3.475-4.869,6.747,6.747,0,0,1,2.9-1.083,6.928,6.928,0,0,1,3.1.363,9.142,9.142,0,0,1,4.773,3.959,14.674,14.674,0,0,1,1.893,6.031,26.336,26.336,0,0,1-1.858,12.665,24.9,24.9,0,0,1-7.652,10.25,22.973,22.973,0,0,1-11.517,4.633,21.584,21.584,0,0,1-11.822-1.924,20.189,20.189,0,0,1-8.409-7.813,19.588,19.588,0,0,1-2.845-10.55,14.291,14.291,0,0,1,1.014-5.192,10.3,10.3,0,0,1,2.975-4.177,6.151,6.151,0,0,1,4.719-1.4,7.068,7.068,0,0,1,4.161,2.316,8.875,8.875,0,0,1,2.088,4.085,11.507,11.507,0,0,1-.007,4.389,22.792,22.792,0,0,1-3.1,7.488,36.036,36.036,0,0,1-4.347,5.78,39.381,39.381,0,0,1-4.627,4.264,39.892,39.892,0,0,1-4.405,2.928,33.908,33.908,0,0,1-6.683,2.949c-1.593.508-2.455.683-2.455.683s.207-.075.617-.2,1.028-.278,1.809-.571a35.2,35.2,0,0,0,6.625-3.016,40.22,40.22,0,0,0,4.359-2.946,39.538,39.538,0,0,0,4.573-4.264,35.942,35.942,0,0,0,4.287-5.757,22.54,22.54,0,0,0,3.028-7.4,11.183,11.183,0,0,0-.007-4.264,8.516,8.516,0,0,0-2.018-3.917,6.71,6.71,0,0,0-3.951-2.192,5.783,5.783,0,0,0-4.435,1.329,9.931,9.931,0,0,0-2.851,4.03,13.907,13.907,0,0,0-.975,5.057,19.2,19.2,0,0,0,2.8,10.325,19.78,19.78,0,0,0,8.239,7.637,21.162,21.162,0,0,0,11.584,1.873,22.536,22.536,0,0,0,11.29-4.548,24.483,24.483,0,0,0,7.51-10.065,25.914,25.914,0,0,0,1.829-12.444,14.229,14.229,0,0,0-1.828-5.848,8.693,8.693,0,0,0-4.535-3.772,6.492,6.492,0,0,0-2.9-.345,6.323,6.323,0,0,0-2.7,1.009,8.953,8.953,0,0,0-3.31,4.646,12.56,12.56,0,0,0-.595,5.65,16.649,16.649,0,0,0,1.47,5.4,20.522,20.522,0,0,0,16.38,11.744,20.084,20.084,0,0,0,9.36-1.448,23.793,23.793,0,0,0,7.369-4.787,22.862,22.862,0,0,0,6.17-9.832,16.833,16.833,0,0,0,.623-3.4,26.383,26.383,0,0,0-1.808-11.274,21.164,21.164,0,0,0-3.562-6.311,6.579,6.579,0,0,0-1.408-1.25C1037.714,1394.682,1037.493,1394.636,1037.5,1394.615Z" fill="#d9a171"/>
            </g>
          </g>
          <g id="Grupo_54064" data-name="Grupo 54064">
            <rect id="Rectángulo_5131" data-name="Rectángulo 5131" width="131.205" height="10.092" transform="translate(954.366 1295.878) rotate(-5.512)" fill="#fff"/>
            <rect id="Rectángulo_5132" data-name="Rectángulo 5132" width="131.205" height="10.092" transform="translate(953.396 1285.832) rotate(-5.512)" fill="#d9a171"/>
            <rect id="Rectángulo_5133" data-name="Rectángulo 5133" width="131.205" height="10.092" transform="translate(955.334 1305.913) rotate(-5.512)" fill="#dbdbdb"/>
            <rect id="Rectángulo_5134" data-name="Rectángulo 5134" width="131.205" height="10.092" transform="translate(956.304 1315.958) rotate(-5.512)" fill="#fff"/>
            <rect id="Rectángulo_5135" data-name="Rectángulo 5135" width="131.205" height="10.092" transform="translate(957.273 1326.003) rotate(-5.512)" fill="#dbdbdb"/>
            <rect id="Rectángulo_5136" data-name="Rectángulo 5136" width="131.205" height="10.092" transform="translate(958.242 1336.038) rotate(-5.512)" fill="#fff"/>
            <rect id="Rectángulo_5137" data-name="Rectángulo 5137" width="131.205" height="10.092" transform="translate(959.211 1346.083) rotate(-5.512)" fill="#dbdbdb"/>
            <rect id="Rectángulo_5138" data-name="Rectángulo 5138" width="91.868" height="10.092" transform="translate(999.335 1352.35) rotate(-5.512)" fill="#d9a171"/>
            <rect id="Rectángulo_5139" data-name="Rectángulo 5139" width="39.337" height="70.623" transform="translate(953.396 1285.832) rotate(-5.512)" fill="#c7c7c7"/>
            <path id="Trazado_99874" data-name="Trazado 99874" d="M955.334,1305.913l65.287-6.423,65.311-6.18-65.286,6.434Z" fill="#344154"/>
            <path id="Trazado_99875" data-name="Trazado 99875" d="M956.3,1315.958l65.287-6.423,65.311-6.18-65.286,6.434Z" fill="#344154"/>
            <path id="Trazado_99876" data-name="Trazado 99876" d="M957.273,1326l65.286-6.434,65.312-6.169-65.287,6.423Z" fill="#344154"/>
            <path id="Trazado_99877" data-name="Trazado 99877" d="M958.241,1336.038l65.287-6.423,65.311-6.18-65.286,6.434Z" fill="#344154"/>
            <path id="Trazado_99878" data-name="Trazado 99878" d="M959.211,1346.083l65.287-6.423,65.311-6.18-65.286,6.434Z" fill="#344154"/>
            <path id="Trazado_99879" data-name="Trazado 99879" d="M960.18,1356.129l65.286-6.434,65.312-6.169-65.287,6.423Z" fill="#344154"/>
            <path id="Trazado_99880" data-name="Trazado 99880" d="M960.877,1290.154c4.145-.605,8.317-1.028,12.479-1.46s8.338-.8,12.537-.954c-4.153.616-8.317,1.028-12.488,1.462S965.064,1289.986,960.877,1290.154Z" fill="#344154"/>
            <path id="Trazado_99881" data-name="Trazado 99881" d="M961.848,1300.22c3.128-.517,6.286-.832,9.432-1.167s6.307-.608,9.491-.659c-3.139.518-6.286.832-9.442,1.167S965.017,1300.129,961.848,1300.22Z" fill="#344154"/>
            <path id="Trazado_99882" data-name="Trazado 99882" d="M962.818,1310.265c4.143-.615,8.317-1.028,12.478-1.46s8.339-.805,12.538-.954c-4.154.616-8.317,1.028-12.489,1.461S967,1310.066,962.818,1310.265Z" fill="#344154"/>
            <path id="Trazado_99883" data-name="Trazado 99883" d="M963.786,1320.3c3.4-.533,6.834-.885,10.265-1.247s6.866-.662,10.323-.74c-3.412.545-6.844.886-10.274,1.248S967.229,1320.183,963.786,1320.3Z" fill="#344154"/>
            <path id="Trazado_99884" data-name="Trazado 99884" d="M964.755,1330.345c4.144-.615,8.318-1.028,12.479-1.46s8.339-.805,12.538-.954c-4.154.616-8.317,1.028-12.489,1.462S968.94,1330.157,964.755,1330.345Z" fill="#344154"/>
            <path id="Trazado_99885" data-name="Trazado 99885" d="M965.725,1340.391c4.144-.616,8.317-1.029,12.479-1.461s8.338-.805,12.537-.954c-4.154.616-8.317,1.029-12.488,1.462S969.909,1340.192,965.725,1340.391Z" fill="#344154"/>
            <path id="Trazado_99886" data-name="Trazado 99886" d="M966.693,1350.426c2.511-.437,5.055-.734,7.563-.987s5.084-.429,7.622-.479c-2.51.447-5.055.734-7.573.987S969.242,1350.385,966.693,1350.426Z" fill="#344154"/>
            <path id="Trazado_99887" data-name="Trazado 99887" d="M1002.185,1286.168c3.109-.505,6.245-.828,9.371-1.161s6.277-.6,9.43-.653c-3.108.515-6.246.828-9.381,1.161S1005.356,1286.1,1002.185,1286.168Z" fill="#344154"/>
            <path id="Trazado_99888" data-name="Trazado 99888" d="M1003.156,1296.233c3.108-.515,6.246-.828,9.371-1.16s6.277-.606,9.43-.654c-3.108.515-6.245.828-9.381,1.162S1006.326,1296.143,1003.156,1296.233Z" fill="#344154"/>
            <path id="Trazado_99889" data-name="Trazado 99889" d="M1004.126,1306.279c3.108-.516,6.245-.829,9.371-1.161s6.277-.606,9.429-.654c-3.107.516-6.245.829-9.38,1.162S1007.294,1306.178,1004.126,1306.279Z" fill="#344154"/>
            <path id="Trazado_99890" data-name="Trazado 99890" d="M1005.094,1316.314c3.109-.505,6.246-.829,9.371-1.161s6.277-.606,9.43-.654c-3.108.516-6.245.829-9.381,1.162S1008.264,1316.223,1005.094,1316.314Z" fill="#344154"/>
            <path id="Trazado_99891" data-name="Trazado 99891" d="M1006.064,1326.359c3.107-.515,6.245-.828,9.37-1.161s6.277-.6,9.43-.653c-3.108.515-6.245.828-9.381,1.161S1009.233,1326.268,1006.064,1326.359Z" fill="#344154"/>
            <path id="Trazado_99892" data-name="Trazado 99892" d="M1007.033,1336.4c3.108-.515,6.245-.828,9.371-1.16s6.277-.606,9.43-.654c-3.108.515-6.246.828-9.381,1.161S1010.2,1336.3,1007.033,1336.4Z" fill="#344154"/>
            <path id="Trazado_99893" data-name="Trazado 99893" d="M1008,1346.439c3.109-.505,6.246-.828,9.371-1.16s6.277-.606,9.43-.654c-3.108.515-6.245.828-9.381,1.161S1011.171,1346.349,1008,1346.439Z" fill="#344154"/>
            <path id="Trazado_99894" data-name="Trazado 99894" d="M1029.355,1283.546c3.119-.506,6.245-.828,9.381-1.162s6.267-.6,9.419-.652c-3.107.515-6.245.828-9.37,1.16S1032.516,1283.477,1029.355,1283.546Z" fill="#344154"/>
            <path id="Trazado_99895" data-name="Trazado 99895" d="M1041.621,1343.195a17.954,17.954,0,0,1,6-.579A17.951,17.951,0,0,1,1041.621,1343.195Z" fill="#344154"/>
            <path id="Trazado_99896" data-name="Trazado 99896" d="M1040.653,1333.16a17.946,17.946,0,0,1,6-.58A17.923,17.923,0,0,1,1040.653,1333.16Z" fill="#344154"/>
            <path id="Trazado_99897" data-name="Trazado 99897" d="M1039.683,1323.115a16.687,16.687,0,0,1,3.023-.548,15.72,15.72,0,0,1,3.021-.036,17.955,17.955,0,0,1-6,.58Z" fill="#344154"/>
            <path id="Trazado_99898" data-name="Trazado 99898" d="M1038.714,1313.069a17.951,17.951,0,0,1,6-.579A17.954,17.954,0,0,1,1038.714,1313.069Z" fill="#344154"/>
            <path id="Trazado_99899" data-name="Trazado 99899" d="M1037.745,1303.034a17.954,17.954,0,0,1,6-.579A17.952,17.952,0,0,1,1037.745,1303.034Z" fill="#344154"/>
            <path id="Trazado_99900" data-name="Trazado 99900" d="M1036.776,1292.989a16.757,16.757,0,0,1,3.023-.548,15.79,15.79,0,0,1,3.02-.035,15.861,15.861,0,0,1-2.971.543A16.771,16.771,0,0,1,1036.776,1292.989Z" fill="#344154"/>
            <path id="Trazado_99901" data-name="Trazado 99901" d="M1044.327,1353.072a51.833,51.833,0,0,1,5.278-.765,49.018,49.018,0,0,1,5.336-.259A55.849,55.849,0,0,1,1044.327,1353.072Z" fill="#344154"/>
            <path id="Trazado_99902" data-name="Trazado 99902" d="M1056.525,1280.924c3.119-.506,6.245-.828,9.381-1.162s6.266-.6,9.419-.652c-3.107.515-6.245.828-9.37,1.16S1059.686,1280.855,1056.525,1280.924Z" fill="#344154"/>
            <path id="Trazado_99903" data-name="Trazado 99903" d="M1057.5,1290.989c3.118-.516,6.245-.828,9.381-1.161s6.267-.6,9.42-.653c-3.108.515-6.246.828-9.371,1.161S1060.655,1290.9,1057.5,1290.989Z" fill="#344154"/>
            <path id="Trazado_99904" data-name="Trazado 99904" d="M1058.466,1301.035c3.117-.516,6.245-.829,9.38-1.162s6.267-.605,9.42-.653c-3.108.516-6.245.829-9.371,1.161S1061.624,1300.935,1058.466,1301.035Z" fill="#344154"/>
            <path id="Trazado_99905" data-name="Trazado 99905" d="M1059.434,1311.07c3.119-.506,6.245-.828,9.381-1.162s6.267-.6,9.419-.653c-3.107.516-6.245.829-9.37,1.161S1062.593,1310.98,1059.434,1311.07Z" fill="#344154"/>
            <path id="Trazado_99906" data-name="Trazado 99906" d="M1060.4,1321.115c3.118-.516,6.246-.828,9.381-1.162s6.267-.6,9.42-.652c-3.108.515-6.245.828-9.371,1.16S1063.562,1321.025,1060.4,1321.115Z" fill="#344154"/>
            <path id="Trazado_99907" data-name="Trazado 99907" d="M1061.373,1331.16c3.118-.516,6.245-.828,9.381-1.161s6.266-.6,9.419-.653c-3.108.515-6.245.828-9.37,1.16S1064.531,1331.06,1061.373,1331.16Z" fill="#344154"/>
            <path id="Trazado_99908" data-name="Trazado 99908" d="M1062.341,1341.195c3.119-.506,6.245-.828,9.381-1.161s6.267-.605,9.42-.653c-3.108.515-6.246.828-9.371,1.161S1065.5,1341.106,1062.341,1341.195Z" fill="#344154"/>
            <path id="Trazado_99909" data-name="Trazado 99909" d="M1063.311,1351.24c3.117-.516,6.245-.828,9.38-1.161s6.267-.6,9.42-.653c-3.108.515-6.245.828-9.371,1.161S1066.47,1351.151,1063.311,1351.24Z" fill="#344154"/>
            <path id="Trazado_99910" data-name="Trazado 99910" d="M951.687,1268.119c3.59-.511,7.179-.929,10.779-1.338s7.211-.7,10.809-1.125,7.2-.695,10.815-.962,7.214-.562,10.835-.748c-3.59.511-7.179.929-10.778,1.338s-7.212.695-10.8,1.124-7.211.7-10.825.962S955.307,1267.923,951.687,1268.119Z" fill="#344154"/>
            <path id="Trazado_99911" data-name="Trazado 99911" d="M952.1,1272.4c2.24-.37,4.5-.67,6.746-.949s4.52-.436,6.777-.736,4.52-.436,6.782-.572,4.534-.294,6.814-.36c-2.25.381-4.5.669-6.757.949s-4.514.5-6.766.745-4.519.436-6.793.564S954.369,1272.33,952.1,1272.4Z" fill="#344154"/>
            <path id="Trazado_99912" data-name="Trazado 99912" d="M952.512,1276.671c3.134-.456,6.266-.83,9.409-1.2s6.281-.668,9.427-1,6.3-.608,9.444-.819,6.31-.476,9.464-.626c-3.123.465-6.265.84-9.408,1.2s-6.281.667-9.427,1-6.287.606-9.444.819S955.677,1276.53,952.512,1276.671Z" fill="#344154"/>
            <path id="Trazado_99913" data-name="Trazado 99913" d="M961.9,1373.924c2.3-.386,4.6-.68,6.908-.964s4.626-.508,6.929-.761,4.631-.447,6.956-.579,4.634-.314,6.965-.375c-2.3.376-4.609.68-6.908.964s-4.627.5-6.94.751-4.621.446-6.946.578S964.232,1373.893,961.9,1373.924Z" fill="#344154"/>
            <path id="Trazado_99914" data-name="Trazado 99914" d="M962.308,1378.179c2.656-.42,5.33-.75,8-1.069s5.342-.515,8.015-.865,5.343-.516,8.033-.683,5.355-.384,8.052-.48c-2.666.421-5.33.75-7.995,1.069s-5.348.567-8.017.855-5.352.517-8.031.694S965.027,1378.091,962.308,1378.179Z" fill="#344154"/>
          </g>
          <g id="Grupo_54065" data-name="Grupo 54065">
            <path id="Trazado_99915" data-name="Trazado 99915" d="M970.665,1228.459a5.032,5.032,0,0,1-1.392,3.74,5.95,5.95,0,0,1-3.907,1.645,5.354,5.354,0,0,1-4.438-1.482,7.547,7.547,0,0,1-1.976-4.908l-.072-.867a8.521,8.521,0,0,1,.424-3.66,5.418,5.418,0,0,1,1.862-2.559,6.454,6.454,0,0,1,7.1-.1,5.409,5.409,0,0,1,2.036,3.546l-2.92.24a2.969,2.969,0,0,0-.928-1.927,2.841,2.841,0,0,0-2.051-.454,2.491,2.491,0,0,0-2.1,1.227,5.879,5.879,0,0,0-.477,3.307l.088,1.07a6.3,6.3,0,0,0,.972,3.3,2.443,2.443,0,0,0,2.282.88,2.891,2.891,0,0,0,1.969-.784,2.8,2.8,0,0,0,.607-1.975Z" fill="#344154"/>
            <path id="Trazado_99916" data-name="Trazado 99916" d="M971.907,1227.71a6.248,6.248,0,0,1,.374-2.842,4.432,4.432,0,0,1,1.581-2.041,5.082,5.082,0,0,1,2.577-.888,4.813,4.813,0,0,1,3.587,1.017,5.253,5.253,0,0,1,1.795,3.419l.079.719a5.526,5.526,0,0,1-1.033,4,5.261,5.261,0,0,1-7.265.6,5.622,5.622,0,0,1-1.685-3.859Zm2.829-.031a3.953,3.953,0,0,0,.754,2.249,2.035,2.035,0,0,0,3.212-.255,4.316,4.316,0,0,0,.368-2.557,3.916,3.916,0,0,0-.762-2.234,1.875,1.875,0,0,0-1.682-.676,1.843,1.843,0,0,0-1.53.936A4.4,4.4,0,0,0,974.736,1227.679Z" fill="#344154"/>
            <path id="Trazado_99917" data-name="Trazado 99917" d="M985.828,1221.362l.184,1.17a3.716,3.716,0,0,1,2.914-1.621,2.82,2.82,0,0,1,2.926,1.376,3.629,3.629,0,0,1,3.031-1.866,3.152,3.152,0,0,1,2.632.788,4.6,4.6,0,0,1,1.084,2.934l.553,6.725-2.822.232-.553-6.716a2.015,2.015,0,0,0-.458-1.28,1.562,1.562,0,0,0-1.27-.312,1.763,1.763,0,0,0-1.653,1.351l.6,7.231-2.813.231-.551-6.7a2,2,0,0,0-.469-1.3,1.576,1.576,0,0,0-1.26-.307,1.828,1.828,0,0,0-1.651,1.135l.612,7.445-2.812.232-.867-10.531Z" fill="#344154"/>
            <path id="Trazado_99918" data-name="Trazado 99918" d="M1010.367,1224.742a6.335,6.335,0,0,1-.784,3.989,3.553,3.553,0,0,1-2.862,1.71,3.29,3.29,0,0,1-2.671-.9l.409,4.963-2.813.232-1.2-14.58,2.609-.214.182,1.023a3.317,3.317,0,0,1,2.566-1.445,3.576,3.576,0,0,1,3.145,1.191,6.5,6.5,0,0,1,1.407,3.882Zm-2.829.027a4.163,4.163,0,0,0-.708-2.225,1.7,1.7,0,0,0-1.579-.673,1.846,1.846,0,0,0-1.736,1.162l.354,4.311a1.88,1.88,0,0,0,1.926.89Q1007.81,1228.069,1007.538,1224.769Z" fill="#344154"/>
            <path id="Trazado_99919" data-name="Trazado 99919" d="M1017.8,1221.387a7.6,7.6,0,0,0-1.019.005,2.066,2.066,0,0,0-2,1.253l.566,6.89-2.812.232-.867-10.531,2.657-.219.181,1.249a2.617,2.617,0,0,1,2.227-1.643,2.972,2.972,0,0,1,.886.055Z" fill="#344154"/>
            <path id="Trazado_99920" data-name="Trazado 99920" d="M1018.576,1223.871a6.265,6.265,0,0,1,.373-2.843,4.431,4.431,0,0,1,1.581-2.041,5.082,5.082,0,0,1,2.578-.888,4.808,4.808,0,0,1,3.586,1.018,5.249,5.249,0,0,1,1.8,3.419l.078.718a5.521,5.521,0,0,1-1.033,4,5.263,5.263,0,0,1-7.265.6,5.624,5.624,0,0,1-1.684-3.86Zm2.829-.032a3.943,3.943,0,0,0,.753,2.249,2.035,2.035,0,0,0,3.213-.254,4.328,4.328,0,0,0,.367-2.558,3.9,3.9,0,0,0-.762-2.233,1.87,1.87,0,0,0-1.682-.676,1.84,1.84,0,0,0-1.53.935A4.393,4.393,0,0,0,1021.405,1223.839Z" fill="#344154"/>
            <path id="Trazado_99921" data-name="Trazado 99921" d="M1039.789,1222.321a6.4,6.4,0,0,1-.755,4.036,3.592,3.592,0,0,1-2.9,1.664,3.3,3.3,0,0,1-2.843-1.089l-.034,1.13-2.531.208-1.23-14.949,2.813-.232.441,5.363a3.212,3.212,0,0,1,2.466-1.349,3.62,3.62,0,0,1,3.139,1.167,6.413,6.413,0,0,1,1.423,3.9Zm-2.829.027a4.2,4.2,0,0,0-.7-2.289,1.718,1.718,0,0,0-1.569-.611,1.863,1.863,0,0,0-1.759,1.252l.342,4.156a1.887,1.887,0,0,0,1.96.956,1.743,1.743,0,0,0,1.68-1.491A6.951,6.951,0,0,0,1036.96,1222.348Z" fill="#344154"/>
            <path id="Trazado_99922" data-name="Trazado 99922" d="M1048.049,1226.845a3.148,3.148,0,0,1-.359-.921,3.414,3.414,0,0,1-2.564,1.357,3.752,3.752,0,0,1-2.638-.684,2.89,2.89,0,0,1-1.2-2.174,2.985,2.985,0,0,1,1.03-2.672,6.141,6.141,0,0,1,3.512-1.2l1.294-.107-.05-.6a1.743,1.743,0,0,0-.47-1.137,1.479,1.479,0,0,0-1.219-.341,1.679,1.679,0,0,0-1.086.432,1.16,1.16,0,0,0-.327.968l-2.813.231a2.836,2.836,0,0,1,.425-1.74,3.751,3.751,0,0,1,1.5-1.352,5.84,5.84,0,0,1,2.28-.634,4.611,4.611,0,0,1,3.17.724,3.435,3.435,0,0,1,1.37,2.656l.376,4.564a5.033,5.033,0,0,0,.605,2.233l.013.166Zm-2.487-1.765a2.423,2.423,0,0,0,1.126-.372,1.827,1.827,0,0,0,.717-.809l-.149-1.81-1.051.087q-2.112.172-2.128,1.644l0,.167a1.132,1.132,0,0,0,.441.836A1.445,1.445,0,0,0,1045.562,1225.08Z" fill="#344154"/>
            <path id="Trazado_99923" data-name="Trazado 99923" d="M1054.356,1215.724l.188,1.209a3.69,3.69,0,0,1,2.911-1.66,3.064,3.064,0,0,1,2.572.778,4.606,4.606,0,0,1,1.079,2.87l.56,6.8-2.813.232-.554-6.735a1.828,1.828,0,0,0-.5-1.267,1.749,1.749,0,0,0-1.327-.3,1.942,1.942,0,0,0-1.7,1.159l.611,7.426-2.813.231-.866-10.53Z" fill="#344154"/>
            <path id="Trazado_99924" data-name="Trazado 99924" d="M1066.085,1212.152l.213,2.589,1.8-.148.169,2.063-1.8.149.432,5.255a1.259,1.259,0,0,0,.293.819,1.128,1.128,0,0,0,.877.182,4.38,4.38,0,0,0,.822-.136l.175,2.132a5.8,5.8,0,0,1-1.682.393q-2.96.243-3.263-2.74l-.467-5.674-1.538.127-.169-2.064,1.537-.126-.213-2.589Z" fill="#344154"/>
            <path id="Trazado_99925" data-name="Trazado 99925" d="M1075.4,1224.791a5.186,5.186,0,0,1-3.888-1.111,5.067,5.067,0,0,1-1.767-3.666l-.022-.273a6.382,6.382,0,0,1,.379-2.887,4.527,4.527,0,0,1,1.579-2.07,4.892,4.892,0,0,1,2.509-.888,4.388,4.388,0,0,1,3.514,1.083,5.561,5.561,0,0,1,1.559,3.762l.094,1.148-6.706.552a2.625,2.625,0,0,0,.959,1.587,2.49,2.49,0,0,0,1.788.48,3.046,3.046,0,0,0,2.444-1.387l1.509,1.434a4.24,4.24,0,0,1-1.6,1.538A5.646,5.646,0,0,1,1075.4,1224.791Zm-1.033-8.626a1.762,1.762,0,0,0-1.311.679,2.942,2.942,0,0,0-.533,1.677l3.912-.322-.018-.224a2.1,2.1,0,0,0-.626-1.411A1.82,1.82,0,0,0,1074.362,1216.165Z" fill="#344154"/>
            <path id="Trazado_99926" data-name="Trazado 99926" d="M989.658,1250.351a6.372,6.372,0,0,1,.782-4.014,3.6,3.6,0,0,1,2.9-1.708,3.241,3.241,0,0,1,2.635.939l-.442-5.372,2.822-.232,1.23,14.949-2.54.209-.228-1.108a3.323,3.323,0,0,1-2.6,1.537,3.588,3.588,0,0,1-3.1-1.22A6.573,6.573,0,0,1,989.658,1250.351Zm2.83-.022a4.176,4.176,0,0,0,.7,2.228,1.684,1.684,0,0,0,1.564.667,1.89,1.89,0,0,0,1.749-1.253l-.343-4.162a1.861,1.861,0,0,0-1.91-.952Q992.215,1247.023,992.488,1250.329Z" fill="#344154"/>
            <path id="Trazado_99927" data-name="Trazado 99927" d="M1006.63,1254.53a5.185,5.185,0,0,1-3.888-1.111,5.069,5.069,0,0,1-1.767-3.666l-.022-.273a6.383,6.383,0,0,1,.38-2.887,4.5,4.5,0,0,1,1.579-2.07,4.887,4.887,0,0,1,2.508-.888,4.388,4.388,0,0,1,3.514,1.083,5.553,5.553,0,0,1,1.559,3.762l.094,1.148-6.7.552a2.624,2.624,0,0,0,.958,1.587,2.5,2.5,0,0,0,1.789.48,3.047,3.047,0,0,0,2.443-1.387l1.509,1.434a4.223,4.223,0,0,1-1.6,1.537A5.628,5.628,0,0,1,1006.63,1254.53Zm-1.033-8.626a1.762,1.762,0,0,0-1.311.679,2.939,2.939,0,0,0-.533,1.677l3.913-.322-.019-.225a2.108,2.108,0,0,0-.625-1.41A1.824,1.824,0,0,0,1005.6,1245.9Z" fill="#344154"/>
            <path id="Trazado_99928" data-name="Trazado 99928" d="M1021.714,1251.006a1.849,1.849,0,0,0,1.23-.533,1.5,1.5,0,0,0,.413-1.18l2.637-.217a3.613,3.613,0,0,1-.422,2.009,3.865,3.865,0,0,1-1.458,1.511,4.931,4.931,0,0,1-2.164.673,4.59,4.59,0,0,1-3.681-1.142,5.7,5.7,0,0,1-1.63-3.859l-.015-.185a5.63,5.63,0,0,1,.975-3.99,4.531,4.531,0,0,1,3.433-1.742,4.44,4.44,0,0,1,3.26.863,3.991,3.991,0,0,1,1.458,2.893l-2.637.217a1.948,1.948,0,0,0-.616-1.294,1.888,1.888,0,0,0-2.753.431,4.166,4.166,0,0,0-.31,2.366l.024.293a4.222,4.222,0,0,0,.689,2.3A1.723,1.723,0,0,0,1021.714,1251.006Z" fill="#344154"/>
            <path id="Trazado_99929" data-name="Trazado 99929" d="M1034,1252.082a3.158,3.158,0,0,1-.36-.921,3.416,3.416,0,0,1-2.563,1.357,3.75,3.75,0,0,1-2.638-.684,2.888,2.888,0,0,1-1.2-2.175,2.985,2.985,0,0,1,1.029-2.671,6.145,6.145,0,0,1,3.512-1.2l1.295-.107-.05-.6a1.738,1.738,0,0,0-.471-1.137,1.476,1.476,0,0,0-1.218-.341,1.68,1.68,0,0,0-1.086.432,1.164,1.164,0,0,0-.328.968l-2.812.231a2.834,2.834,0,0,1,.425-1.74,3.736,3.736,0,0,1,1.5-1.352,5.838,5.838,0,0,1,2.28-.634,4.611,4.611,0,0,1,3.17.724,3.433,3.433,0,0,1,1.37,2.655l.376,4.565a5.034,5.034,0,0,0,.605,2.233l.013.166Zm-2.487-1.765a2.427,2.427,0,0,0,1.126-.372,1.827,1.827,0,0,0,.717-.809l-.149-1.81-1.051.086q-2.112.174-2.128,1.645l0,.167a1.128,1.128,0,0,0,.441.835A1.441,1.441,0,0,0,1031.515,1250.317Z" fill="#344154"/>
            <path id="Trazado_99930" data-name="Trazado 99930" d="M1040.7,1240.929l.914,11.105a3.782,3.782,0,0,1-.7,2.786,3.521,3.521,0,0,1-2.587,1.188,5.744,5.744,0,0,1-1.405-.051l-.184-2.229a5.245,5.245,0,0,0,.893.015q1.275-.105,1.164-1.458l-.915-11.124Zm-3.27-2.475a1.387,1.387,0,0,1,.337-1.076,1.837,1.837,0,0,1,2.307-.19,1.5,1.5,0,0,1,.162,2.093,1.811,1.811,0,0,1-2.287.189A1.387,1.387,0,0,1,1037.428,1238.454Z" fill="#344154"/>
            <path id="Trazado_99931" data-name="Trazado 99931" d="M1049.867,1250.776a3.107,3.107,0,0,1-.36-.92,3.418,3.418,0,0,1-2.564,1.357,3.747,3.747,0,0,1-2.638-.685,2.889,2.889,0,0,1-1.2-2.174,2.985,2.985,0,0,1,1.03-2.671,6.15,6.15,0,0,1,3.512-1.2l1.294-.106-.049-.6a1.748,1.748,0,0,0-.471-1.137,1.478,1.478,0,0,0-1.219-.34,1.681,1.681,0,0,0-1.086.432,1.159,1.159,0,0,0-.327.968l-2.813.231a2.84,2.84,0,0,1,.425-1.74,3.747,3.747,0,0,1,1.5-1.353,5.839,5.839,0,0,1,2.28-.633,4.607,4.607,0,0,1,3.17.724,3.432,3.432,0,0,1,1.37,2.655l.376,4.565a5.036,5.036,0,0,0,.6,2.233l.014.166Zm-2.487-1.765a2.433,2.433,0,0,0,1.125-.371,1.841,1.841,0,0,0,.718-.809l-.149-1.81-1.052.086q-2.112.174-2.128,1.645l0,.166a1.131,1.131,0,0,0,.441.836A1.438,1.438,0,0,0,1047.38,1249.011Z" fill="#344154"/>
          </g>
        </g>
        <path id="Trazado_99932" data-name="Trazado 99932" d="M981.991,1262.431a9.373,9.373,0,0,1-8.54.13,12.254,12.254,0,0,1-5.31-5.46c-3.95-7.12-14.64-23.34-16.61-28s-6.33-17.84-10.68-23.37-6.73-13.85-6.73-13.85l-1.58-80.7c2.37,11.67,8.9,24.92,8.9,24.92a37.351,37.351,0,0,1,14,12.66,23.284,23.284,0,0,1,2.73,3.53c6.46,10,9.59,28,9.93,42,.4,15.83,5.54,23,13.85,36.79S987.391,1259.361,981.991,1262.431Z" fill="#ffbf9d"/>
        <path id="Trazado_99933" data-name="Trazado 99933" d="M981.991,1262.431a9.594,9.594,0,0,1-8.54.13c4.54-1.24,10.5-3.57,9.13-7-2.15-5.48-8.44,2.65-11.6,0s-14.64-17.85-7.35-24.54,5-17.91,0-21.07-1.75-10.69-.17-22.54c1-7.17-2.43-23.41-5.25-35.13,6.46,10,9.59,28,9.93,42,.4,15.83,5.54,23,13.85,36.79S987.391,1259.551,981.991,1262.431Z" fill="#d9a171" opacity="0.4" style="isolation: isolate"/>
        <path id="Trazado_99934" data-name="Trazado 99934" d="M932.541,1111.131c2.37,11.67,8.9,24.92,8.9,24.92a37.351,37.351,0,0,1,14,12.66c8.31,8.7,12.27,29.67,12.66,45.49s5.54,23,13.85,36.79,6,28.17,0,31.44c-4.18,2.29-9.89,1.79-13.85-5.33s-14.64-23.34-16.61-28-6.33-17.84-10.68-23.37-6.73-13.85-6.73-13.85" fill="none" stroke="#263238" stroke-linecap="round" stroke-linejoin="round" stroke-width="1"/>
        <path id="Trazado_99935" data-name="Trazado 99935" d="M958.231,1227.631s6.46-.58,9.42-3" fill="none" stroke="#263238" stroke-linecap="round" stroke-linejoin="round" stroke-width="1"/>
        <path id="Trazado_99936" data-name="Trazado 99936" d="M931.751,1193.471s-1.26,3,5.34,6" fill="none" stroke="#263238" stroke-linecap="round" stroke-linejoin="round" stroke-width="1"/>
      </g>
      <g id="freepik--hand-2--inject-2">
        <path id="Trazado_99937" data-name="Trazado 99937" d="M1107.053,1255.576s-3.56,43.08,1.59,53.53,7.73,81.85,5.42,90.831c0,0,16.58,4.179,23.14-1.761s16.65-.22,33.27-6,4.63-134.07,4.63-134.07l.51-46.669-27.41-24.421Z" fill="rgba(0,0,0,0.7)" opacity="0.2" style="isolation: isolate"/>
        <path id="Trazado_99938" data-name="Trazado 99938" d="M1129.153,1276.3a2.334,2.334,0,0,1-.49.83c-3.54,3.35-18.65,7.07-31.63,9.75-10.75,2.23-20,3.74-20,3.74s-7.12-59.17-7.12-65.39-11.48-106.92-11.48-106.92l27.52-1.19,36.51-1.58s.22,2.69.59,7.39C1125.463,1152.866,1133.743,1264.486,1129.153,1276.3Z" fill="#d9a171"/>
        <g id="Grupo_54069" data-name="Grupo 54069">
          <g id="Grupo_54068" data-name="Grupo 54068" clip-path="url(#clip-path)">
            <g id="Grupo_54067" data-name="Grupo 54067">
              <path id="Trazado_99939" data-name="Trazado 99939" d="M1129.153,1276.3l-32.12,6.57-12.13,2.49c-3.29-3.23-5.8-3.29-5.8-3.29l-1-9.05-1.57-14.81-13.82-130.3c3-2.07,4.48-6.6,4.48-6.6l18.5-.67,32.05-1.17,5.29,3.42C1125.463,1152.866,1133.743,1264.486,1129.153,1276.3Z" fill="rgba(0,0,0,0.7)" opacity="0.2" style="isolation: isolate"/>
              <path id="Trazado_99940" data-name="Trazado 99940" d="M1129.153,1276.3l-32.12,6.57-12.13,2.49c-3.29-3.23-5.8-3.29-5.8-3.29l-1-9.05-1.57-14.81-13.82-130.3c3-2.07,4.48-6.6,4.48-6.6l18.5-.67,32.05-1.17,5.29,3.42C1125.463,1152.866,1133.743,1264.486,1129.153,1276.3Z" fill="none" stroke="#263238" stroke-linecap="round" stroke-linejoin="round" stroke-width="1"/>
              <path id="Trazado_99941" data-name="Trazado 99941" d="M1080.8,1237.937l10.72-.02.01,3.35-2.98,1.06-6.87.75Z" fill="#d9a171" stroke="#263238" stroke-linecap="round" stroke-linejoin="round" stroke-width="1"/>
              <path id="Trazado_99942" data-name="Trazado 99942" d="M1081.463,1244.837l7.88-.27,2.02.96-.1,4.45-9.2.1Z" fill="#d9a171" stroke="#263238" stroke-linecap="round" stroke-linejoin="round" stroke-width="1"/>
              <path id="Trazado_99943" data-name="Trazado 99943" d="M1082.723,1251.947l9-.65-.1,3.37-4.35,1.54-4.6-.26Z" fill="#d9a171" stroke="#263238" stroke-linecap="round" stroke-linejoin="round" stroke-width="1"/>
              <path id="Trazado_99944" data-name="Trazado 99944" d="M1083.263,1257.626l7.27.37.66,1.86-1.06,2.05-6.5.42-1.12-3.17Z" fill="#d9a171" stroke="#263238" stroke-linecap="round" stroke-linejoin="round" stroke-width="1"/>
              <path id="Trazado_99945" data-name="Trazado 99945" d="M1091.643,1264.136l1,2.91a2.179,2.179,0,0,1,0,2,1.648,1.648,0,0,1-1.52.54c-.56-.049-1.11-.239-1.67-.269-1.69-.071-3.24,1.32-4.9,1-.65-1.8-2.29-4.44-.07-5.25C1084.893,1264.937,1091.883,1264.8,1091.643,1264.136Z" fill="#d9a171" stroke="#263238" stroke-linecap="round" stroke-linejoin="round" stroke-width="1"/>
              <path id="Trazado_99946" data-name="Trazado 99946" d="M1091.613,1272.326a16.581,16.581,0,0,1,.34,2.1,2.683,2.683,0,0,1-.74,2.511,3,3,0,0,1-1.39.369l-5.78.52a26.4,26.4,0,0,1-.05-3.28c.34-1.3.1-1.19,1.33-1.72C1087.273,1272,1089.613,1273.317,1091.613,1272.326Z" fill="#d9a171" stroke="#263238" stroke-linecap="round" stroke-linejoin="round" stroke-width="1"/>
              <path id="Trazado_99947" data-name="Trazado 99947" d="M1070.593,1130.866s2.18,21.071,2.28,25.24" fill="none" stroke="#263238" stroke-linecap="round" stroke-linejoin="round" stroke-width="1"/>
              <line id="Línea_161" data-name="Línea 161" x2="1.02" y2="11.61" transform="translate(1075.293 1131.096)" fill="none" stroke="#263238" stroke-linecap="round" stroke-linejoin="round" stroke-width="1"/>
              <path id="Trazado_99948" data-name="Trazado 99948" d="M1091.583,1126.707l1.32,13.61,1.85.18-.6-13.66Z" fill="#d9a171" stroke="#263238" stroke-linecap="round" stroke-linejoin="round" stroke-width="1"/>
              <path id="Trazado_99949" data-name="Trazado 99949" d="M1129.153,1276.3a2.334,2.334,0,0,1-.49.83c-3.54,3.35-18.65,7.07-31.63,9.75v-9l-18.89-4.84-2.85-.73,1.28-14.08,4.89-53.8,4.27-83.75.18-3.56,36.55-1.58s.22,2.69.59,7.39C1125.463,1152.866,1133.743,1264.486,1129.153,1276.3Z" fill="rgba(0,0,0,0.7)" opacity="0.2" style="isolation: isolate"/>
            </g>
          </g>
        </g>
        <path id="Trazado_99951" data-name="Trazado 99951" d="M1129.153,1276.3a2.334,2.334,0,0,1-.49.83c-3.54,3.35-18.65,7.07-31.63,9.75-10.75,2.23-20,3.74-20,3.74s-7.12-59.17-7.12-65.39-11.48-106.92-11.48-106.92l27.52-1.19,36.51-1.58s.22,2.69.59,7.39C1125.463,1152.866,1133.743,1264.486,1129.153,1276.3Z" fill="none" stroke="#263238" stroke-linecap="round" stroke-linejoin="round" stroke-width="1"/>
        <path id="Trazado_99952" data-name="Trazado 99952" d="M1148.523,1410.567c.23-2.11-3.09-32.38-3.15-35.67-.16-9-2.71-20.81-2.71-20.81-3.56-9.1-6.33-30.07-15.83-43.52s-9.49-29.271-11.07-42.7-1.19-12.269-.79-24.19a175.575,175.575,0,0,0-1.19-26.81c-.79-7.92-2.37-21.85,0-28.34s8.57-8,15.36-1.5,9.56,33.15,9.56,36.44,0,13.571,2.38,17.53c0,0,13.45-6.88,13.45-8.78s-.4-18.69,1.58-19.589l-7.91-25.6,15-5.33a39.055,39.055,0,0,1,7.24,8.7,46.986,46.986,0,0,1,4.23,8.49c6.33,16.79,16.5,28.5,18.6,33.33s0,43.19,0,50.32-4.6,40-4.48,45.53c.09,4,2.79,18.88,5.48,30.29,1,4.4,7.07,36.28,8,38.81Z" fill="#ffbf9d"/>
        <path id="Trazado_99953" data-name="Trazado 99953" d="M1160.363,1210.937c-.1,2.149,2.47,19.29,2.47,19.29,1.78,4.269-7.94,18.829-7.94,18.829-2.1,1.18-3,8.5-3,8.5-6.58-1.459-21.65-16.609-21.65-16.609s-1.78,6.21-3.78,21.579,10.68,51.881,16.08,77.09,2.83,35.25,2.83,35.25c-.16-9-2.71-20.81-2.71-20.81-3.56-9.1-6.33-30.07-15.83-43.519s-9.49-29.241-11.07-42.671-1.19-12.269-.79-24.19a175.575,175.575,0,0,0-1.19-26.81c-.79-7.92-2.37-21.85,0-28.34s8.57-8,15.36-1.5,9.56,33.15,9.56,36.44,0,13.571,2.38,17.53c0,0,13.45-6.88,13.45-8.78s-.4-18.69,1.58-19.589l-7.91-25.6,15-5.33a39.055,39.055,0,0,1,7.24,8.7C1165.593,1200.1,1160.463,1209.6,1160.363,1210.937Z" fill="#d9a171" opacity="0.4" style="isolation: isolate"/>
        <path id="Trazado_99954" data-name="Trazado 99954" d="M1185.583,1330.716c.66-6,2.63-20.26,3.88-29.16-1.53,6.951-4,10.47-4,10.47s4.26-51,4.68-54.11,4.72-17.09,3.14-25.75c2.1,4.82,0,43.19,0,50.32s-4.6,40-4.48,45.53c.09,4,4.38,29.49,7.07,40.9C1190.093,1360.516,1184.923,1336.746,1185.583,1330.716Z" fill="#d9a171" opacity="0.4" style="isolation: isolate"/>
        <path id="Trazado_99955" data-name="Trazado 99955" d="M1202.253,1397.116c-3.16-9.1-13.31-63.6-13.43-69.1s4.48-38.41,4.48-45.53,2.1-45.5,0-50.32-12.27-16.54-18.6-33.33a43.668,43.668,0,0,0-11.47-17.19l-15,5.33,7.91,25.6c-2,.9-1.58,17.69-1.58,19.59s-13.45,8.78-13.45,8.78c-2.38-4-2.38-14.24-2.38-17.53s-2.77-29.95-9.56-36.44-13-5-15.36,1.5-.79,20.42,0,28.34a175.466,175.466,0,0,1,1.19,26.84c-.4,11.92-.8,10.74.79,24.19s1.58,29.27,11.07,42.72,12.27,34.42,15.83,43.52c0,0,6.72,48.57,5.86,56.48" fill="none" stroke="#263238" stroke-linecap="round" stroke-linejoin="round" stroke-width="1"/>
        <path id="Trazado_99956" data-name="Trazado 99956" d="M1141.083,1240.946s2.37,11.07,7.71,16.61" fill="none" stroke="#263238" stroke-linecap="round" stroke-linejoin="round" stroke-width="1"/>
        <path id="Trazado_99957" data-name="Trazado 99957" d="M1142.523,1246s10,3.06,14.18,3.25" fill="none" stroke="#263238" stroke-linecap="round" stroke-linejoin="round" stroke-width="1"/>
        <path id="Trazado_99958" data-name="Trazado 99958" d="M1154.533,1232.166s7.12-3.29,11.67-1.31" fill="none" stroke="#263238" stroke-linecap="round" stroke-linejoin="round" stroke-width="1"/>
        <path id="Trazado_99959" data-name="Trazado 99959" d="M1156.113,1212.576s5.54-.51,6.72-3.28" fill="none" stroke="#263238" stroke-linecap="round" stroke-linejoin="round" stroke-width="1"/>
        <path id="Trazado_99960" data-name="Trazado 99960" d="M1128.663,1313.386s10.64,13.21,13.8,19.93" fill="none" stroke="#263238" stroke-linecap="round" stroke-linejoin="round" stroke-width="1"/>
        <path id="Trazado_99961" data-name="Trazado 99961" d="M1190.533,1255.576c-1.78,10.49-4.16,39.17-4.95,44.31" fill="none" stroke="#263238" stroke-linecap="round" stroke-linejoin="round" stroke-width="1"/>
        <path id="Trazado_99962" data-name="Trazado 99962" d="M1193.933,1235.8c.3,9.5-2,14.44-2,14.44" fill="none" stroke="#263238" stroke-linecap="round" stroke-linejoin="round" stroke-width="1"/>
        <path id="Trazado_99963" data-name="Trazado 99963" d="M1112.143,1102.866l73.32,19.34s-25.77,78.21-31,87.91l-8.74,68.18s-46.84-2.06-68.38-8.57c0,0,13.62-71,14.35-80.47S1112.143,1102.866,1112.143,1102.866Z" fill="#d9a171"/>
        <g id="Grupo_54072" data-name="Grupo 54072">
          <g id="Grupo_54071" data-name="Grupo 54071" clip-path="url(#clip-path-2)">
            <g id="Grupo_54070" data-name="Grupo 54070">
              <path id="Trazado_99964" data-name="Trazado 99964" d="M1096.373,1185.056l16.16-69.09s6.95-3.449,9.64-6.6l52.53,14.94s.16,5.15,3.17,8.45l-26.51,76.39-6.43,56.31s-8.55.68-9.37,7c0,0-27.72,1.5-46.31-3.4,0,0-2.19-6.829-5.54-11.149Z" fill="rgba(0,0,0,0.7)" opacity="0.2" style="isolation: isolate"/>
              <path id="Trazado_99965" data-name="Trazado 99965" d="M1096.373,1185.056l16.16-69.09s6.95-3.449,9.64-6.6l52.53,14.94s.16,5.15,3.17,8.45l-26.51,76.39-6.43,56.31s-8.55.68-9.37,7c0,0-27.72,1.5-46.31-3.4,0,0-2.19-6.829-5.54-11.149Z" fill="none" stroke="#263238" stroke-linecap="round" stroke-linejoin="round" stroke-width="1"/>
              <path id="Trazado_99966" data-name="Trazado 99966" d="M1109.823,1188.646s4.77-18,21.57-14.77,7.31,25.41,7.31,25.41.1,17.9-13.53,15.43C1113.353,1212.576,1107.053,1206.086,1109.823,1188.646Z" fill="#d9a171" stroke="#263238" stroke-linecap="round" stroke-linejoin="round" stroke-width="1"/>
              <path id="Trazado_99967" data-name="Trazado 99967" d="M1118.923,1122.536s-5.08,20.57-6.39,24.53" fill="none" stroke="#263238" stroke-linecap="round" stroke-linejoin="round" stroke-width="1"/>
              <line id="Línea_162" data-name="Línea 162" x1="2.96" y2="11.28" transform="translate(1120.313 1124.317)" fill="none" stroke="#263238" stroke-linecap="round" stroke-linejoin="round" stroke-width="1"/>
              <path id="Trazado_99968" data-name="Trazado 99968" d="M1160.363,1132.226l10.11,3.56-1.11,3.17h-3.16l-6.73-1.58Z" fill="#d9a171" stroke="#263238" stroke-linecap="round" stroke-linejoin="round" stroke-width="1"/>
              <path id="Trazado_99969" data-name="Trazado 99969" d="M1158.683,1138.957l7.52,2.37,1.58,1.58-1.58,4.16-8.71-2.97Z" fill="#d9a171" stroke="#263238" stroke-linecap="round" stroke-linejoin="round" stroke-width="1"/>
              <path id="Trazado_99970" data-name="Trazado 99970" d="M1157.493,1146.077l8.71,2.4-1.23,3.14h-4.61l-4.25-1.78Z" fill="#d9a171" stroke="#263238" stroke-linecap="round" stroke-linejoin="round" stroke-width="1"/>
              <path id="Trazado_99971" data-name="Trazado 99971" d="M1156.113,1151.616l6.72,2.77v1.97l-1.68,1.59-6.26-1.78v-3.37Z" fill="#d9a171" stroke="#263238" stroke-linecap="round" stroke-linejoin="round" stroke-width="1"/>
              <path id="Trazado_99972" data-name="Trazado 99972" d="M1161.843,1160.546v3.08a2.2,2.2,0,0,1-.61,1.88,1.688,1.688,0,0,1-1.62,0c-.51-.24-1-.6-1.48-.81-1.57-.63-3.5.16-5-.679,0-1.911-.67-4.941,1.69-5C1155.213,1159.046,1161.843,1161.246,1161.843,1160.546Z" fill="#d9a171" stroke="#263238" stroke-linecap="round" stroke-linejoin="round" stroke-width="1"/>
              <path id="Trazado_99973" data-name="Trazado 99973" d="M1159.073,1168.256a14.658,14.658,0,0,1-.38,2.09c-.22.89-.65,1.88-1.54,2.12a2.9,2.9,0,0,1-1.43-.12l-5.62-1.48a27.427,27.427,0,0,1,1-3.1c.76-1.11.5-1.09,1.83-1.18C1155.093,1166.5,1156.853,1168.526,1159.073,1168.256Z" fill="#d9a171" stroke="#263238" stroke-linecap="round" stroke-linejoin="round" stroke-width="1"/>
              <path id="Trazado_99974" data-name="Trazado 99974" d="M1140.093,1125.707l-3.37,13.25,1.68.79,4.06-13.06Z" fill="#d9a171" stroke="#263238" stroke-linecap="round" stroke-linejoin="round" stroke-width="1"/>
              <path id="Trazado_99975" data-name="Trazado 99975" d="M1097.863,1214.687l10.38,2.69-.84,3.24-3.15.28-6.84-1.01Z" fill="#d9a171" stroke="#263238" stroke-linecap="round" stroke-linejoin="round" stroke-width="1"/>
              <path id="Trazado_99976" data-name="Trazado 99976" d="M1096.763,1221.536l7.69,1.72,1.72,1.44-1.22,4.28-8.93-2.22Z" fill="#d9a171" stroke="#263238" stroke-linecap="round" stroke-linejoin="round" stroke-width="1"/>
              <path id="Trazado_99977" data-name="Trazado 99977" d="M1096.193,1228.736l8.88,1.64-.96,3.23-4.59.4-4.39-1.41Z" fill="#d9a171" stroke="#263238" stroke-linecap="round" stroke-linejoin="round" stroke-width="1"/>
              <path id="Trazado_99978" data-name="Trazado 99978" d="M1095.283,1234.366l6.94,2.19.17,1.97-1.54,1.72-6.39-1.24-.29-3.35Z" fill="#d9a171" stroke="#263238" stroke-linecap="round" stroke-linejoin="round" stroke-width="1"/>
              <path id="Trazado_99979" data-name="Trazado 99979" d="M1101.753,1242.776l.27,3.071a2.189,2.189,0,0,1-.45,1.929,1.669,1.669,0,0,1-1.61.131c-.53-.191-1-.511-1.55-.671-1.61-.5-3.47.451-5-.26-.18-1.9-1.09-4.86,1.25-5.09C1095.023,1241.866,1101.813,1243.476,1101.753,1242.776Z" fill="#d9a171" stroke="#263238" stroke-linecap="round" stroke-linejoin="round" stroke-width="1"/>
              <path id="Trazado_99980" data-name="Trazado 99980" d="M1099.663,1250.7a15,15,0,0,1-.2,2.17c-.15.9-.49,1.93-1.35,2.24a2.9,2.9,0,0,1-1.44,0l-5.72-1a26.961,26.961,0,0,1,.77-3.18c.66-1.17.4-1.13,1.72-1.329C1095.543,1249.287,1097.463,1251.157,1099.663,1250.7Z" fill="#d9a171" stroke="#263238" stroke-linecap="round" stroke-linejoin="round" stroke-width="1"/>
              <path id="Trazado_99981" data-name="Trazado 99981" d="M1141.083,1260.407s2.38-26.541,2.38-29.211" fill="none" stroke="#263238" stroke-linecap="round" stroke-linejoin="round" stroke-width="1"/>
              <path id="Trazado_99982" data-name="Trazado 99982" d="M1136.333,1259.216s1-13.8,1.18-16.2" fill="none" stroke="#263238" stroke-linecap="round" stroke-linejoin="round" stroke-width="1"/>
              <path id="Trazado_99983" data-name="Trazado 99983" d="M1117.783,1249.246l-3.21,15.71h3.21l2.33-15.71Z" fill="#d9a171" stroke="#263238" stroke-linecap="round" stroke-linejoin="round" stroke-width="1"/>
              <path id="Trazado_99984" data-name="Trazado 99984" d="M1154.633,1209.726c-6.94-1.45-13.13-3.58-17.71-6.65,0,0,3.32,9.54,15.09,25.8l-6.33,49.42s-30.57-1.34-53.67-5.29c7.1-20,20-57.9,18.47-65.41-2.07-10.31,5.24-22.48,5.24-22.48,23.11-4.16,45.52-21.63,60.9-36.4C1168.793,1171.866,1158.1,1202.866,1154.633,1209.726Z" fill="rgba(0,0,0,0.7)" opacity="0.2" style="isolation: isolate"/>
            </g>
          </g>
        </g>
        <path id="Trazado_99986" data-name="Trazado 99986" d="M1112.143,1102.866l73.32,19.34s-25.77,78.21-31,87.91l-8.74,68.18s-46.84-2.06-68.38-8.57c0,0,13.62-71,14.35-80.47S1112.143,1102.866,1112.143,1102.866Z" fill="none" stroke="#263238" stroke-linecap="round" stroke-linejoin="round" stroke-width="1"/>
        <path id="Trazado_99987" data-name="Trazado 99987" d="M1152.793,1258.556l-10.33,74.761c-2.3-4.891-8.57-13.231-11.81-17.4-1.2-1.56-2-2.53-2-2.53l-1.83-2.82c-9.49-13.451-9.49-29.27-11.07-42.72s-1.19-12.27-.79-24.19a175.434,175.434,0,0,0-1.18-26.791c-.79-7.92-2.37-21.85,0-28.34,1.16-3.179,3.25-5.16,5.87-5.58s6,.78,9.49,4.08c6.79,6.49,9.56,33.15,9.56,36.44s0,13.571,2.38,17.53C1141.083,1240.946,1147.463,1253.016,1152.793,1258.556Z" fill="#ffbf9d"/>
        <path id="Trazado_99988" data-name="Trazado 99988" d="M1126.043,1305.236c2.16,2.76,3.63,6.74,4.61,10.68-1.2-1.56-2-2.53-2-2.53l-1.83-2.82c-9.49-13.45-9.49-29.27-11.07-42.72s-1.19-12.27-.79-24.19a175.427,175.427,0,0,0-1.18-26.79c-.79-7.92-2.37-21.85,0-28.34,1.16-3.179,3.25-5.16,5.87-5.58,5,1.42,10,6.51,11.74,15.22,3,14.62-10.53,2.81-13.66,15.2s1.42,15.731,3.29,18.85-.52,10-3.29,19.24S1120.113,1297.646,1126.043,1305.236Z" fill="#d9a171" opacity="0.4" style="isolation: isolate"/>
        <path id="Trazado_99989" data-name="Trazado 99989" d="M1152.793,1258.556c-5.34-5.54-11.71-17.609-11.71-17.609-2.38-4-2.38-14.24-2.38-17.53s-2.77-29.951-9.56-36.44-13-5-15.36,1.5-.79,20.42,0,28.34a175.455,175.455,0,0,1,1.19,26.84c-.4,11.92-.8,10.739.79,24.19s1.58,29.269,11.07,42.72l1.83,2.82s10.64,13.21,13.8,19.93" fill="none" stroke="#263238" stroke-linecap="round" stroke-linejoin="round" stroke-width="1"/>
        <path id="Trazado_99990" data-name="Trazado 99990" d="M1117.783,1226.916s9.07-4.69,13.61-4.29" fill="none" stroke="#263238" stroke-linecap="round" stroke-linejoin="round" stroke-width="1"/>
      </g>
    </g>
  </g>
</svg>
