<svg xmlns="http://www.w3.org/2000/svg" width="368.719" height="344.436" viewBox="0 0 368.719 344.436">
  <g id="Grupo_59239" data-name="Grupo 59239" transform="translate(-1772.959 -4373.754)">
    <g id="Grupo_58907" data-name="Grupo 58907" transform="translate(1773.686 4560.321)">
      <g id="Grupo_58906" data-name="Grupo 58906" transform="translate(0 0)">
        <path id="Trazado_102742" data-name="Trazado 102742" d="M1777.758,4754.116V4775.3h4.892a29.67,29.67,0,0,1,0-6.717c.468-2.5,5.779-8.937,5.623-14.465Z" transform="translate(-1774.431 -4619.3)" fill="#ececec"/>
        <path id="Trazado_102743" data-name="Trazado 102743" d="M1824.075,4754.116V4775.3h4.892a29.732,29.732,0,0,1,0-6.717c.469-2.5,5.779-8.937,5.623-14.465Z" transform="translate(-1781.612 -4619.3)" fill="#e1e1e1"/>
        <path id="Trazado_102744" data-name="Trazado 102744" d="M1867.477,4754.116V4775.3h-4.892a29.67,29.67,0,0,0,0-6.717c-.468-2.5-5.78-8.937-5.623-14.465Z" transform="translate(-1786.711 -4619.3)" fill="#ececec"/>
        <path id="Trazado_102745" data-name="Trazado 102745" d="M1907.57,4754.116V4775.3h-4.892a29.67,29.67,0,0,0,0-6.717c-.468-2.5-5.779-8.937-5.623-14.465Z" transform="translate(-1792.928 -4619.3)" fill="#e1e1e1"/>
        <rect id="Rectángulo_5476" data-name="Rectángulo 5476" width="117.207" height="105.255" transform="translate(0 30.245)" fill="#aed3f2"/>
        <path id="Trazado_102746" data-name="Trazado 102746" d="M1875.165,4630.354l.872,105.255h30.7V4630.351Z" transform="translate(-1789.534 -4600.109)" fill="#e1e1e1"/>
        <rect id="Rectángulo_5477" data-name="Rectángulo 5477" width="75.25" height="26.782" transform="translate(5.274 37.988)" fill="#ececec"/>
        <rect id="Rectángulo_5478" data-name="Rectángulo 5478" width="75.25" height="26.782" transform="translate(5.274 70.11)" fill="#ececec"/>
        <rect id="Rectángulo_5479" data-name="Rectángulo 5479" width="75.25" height="26.782" transform="translate(5.274 102.232)" fill="#ececec"/>
        <g id="Grupo_58905" data-name="Grupo 58905" transform="translate(30.875)">
          <g id="Grupo_58900" data-name="Grupo 58900">
            <g id="Grupo_58899" data-name="Grupo 58899">
              <path id="Trazado_102747" data-name="Trazado 102747" d="M1813.606,4594.559l-3.246,30.121h41.587l3.449-30.121Z" transform="translate(-1810.36 -4594.559)" fill="#e1e1e1"/>
            </g>
          </g>
          <g id="Grupo_58902" data-name="Grupo 58902" transform="translate(1.798 2.164)">
            <g id="Grupo_58901" data-name="Grupo 58901">
              <path id="Trazado_102748" data-name="Trazado 102748" d="M1815.646,4597.12l-3.158,26.357h37.531l3.037-26.357Z" transform="translate(-1812.488 -4597.12)" fill="#fff"/>
            </g>
          </g>
          <g id="Grupo_58904" data-name="Grupo 58904" transform="translate(9.328 6.597)">
            <g id="Grupo_58903" data-name="Grupo 58903">
              <path id="Trazado_102749" data-name="Trazado 102749" d="M1823.344,4602.367l-1.943,17.491h23.685l1.215-17.491Z" transform="translate(-1821.401 -4602.367)" fill="#ececec"/>
            </g>
          </g>
        </g>
        <path id="Trazado_102750" data-name="Trazado 102750" d="M1861.542,4609.912l8.59,17.27-10.554-.121,1.964-17.149" transform="translate(-1787.117 -4596.939)" fill="#ececec"/>
      </g>
      <path id="Trazado_102751" data-name="Trazado 102751" d="M1826.84,4656.52a2.753,2.753,0,1,1-2.753-2.752A2.753,2.753,0,0,1,1826.84,4656.52Z" transform="translate(-1781.187 -4603.74)" fill="#e1e1e1"/>
      <path id="Trazado_102752" data-name="Trazado 102752" d="M1826.84,4694.913a2.753,2.753,0,1,1-2.753-2.752A2.752,2.752,0,0,1,1826.84,4694.913Z" transform="translate(-1781.187 -4609.693)" fill="#e1e1e1"/>
      <path id="Trazado_102753" data-name="Trazado 102753" d="M1826.84,4733.306a2.753,2.753,0,1,1-2.753-2.752A2.753,2.753,0,0,1,1826.84,4733.306Z" transform="translate(-1781.187 -4615.646)" fill="#e1e1e1"/>
    </g>
    <g id="Grupo_58916" data-name="Grupo 58916" transform="translate(1787.635 4418.818)">
      <g id="Grupo_58909" data-name="Grupo 58909" transform="translate(0 0)">
        <g id="Grupo_58908" data-name="Grupo 58908">
          <path id="Trazado_102754" data-name="Trazado 102754" d="M1856.787,4427.734l-66.459-.646,1.856,86.609,66.45.244Z" transform="translate(-1790.328 -4427.088)" fill="#e1e1e1"/>
        </g>
      </g>
      <g id="Grupo_58911" data-name="Grupo 58911" transform="translate(3.995 2.998)">
        <g id="Grupo_58910" data-name="Grupo 58910">
          <path id="Trazado_102755" data-name="Trazado 102755" d="M1853.232,4432.147l-58.176-1.512,1.683,78.55,58.159.715Z" transform="translate(-1795.057 -4430.636)" fill="#fafafa"/>
        </g>
      </g>
      <g id="Grupo_58913" data-name="Grupo 58913" transform="translate(13.642 15.602)">
        <g id="Grupo_58912" data-name="Grupo 58912">
          <path id="Trazado_102756" data-name="Trazado 102756" d="M1845.073,4446.194l-38.6-.642,1.177,54.9,38.567-.826Z" transform="translate(-1806.474 -4445.553)" fill="#ececec"/>
        </g>
      </g>
      <g id="Grupo_58915" data-name="Grupo 58915" transform="translate(13.642 15.602)">
        <g id="Grupo_58914" data-name="Grupo 58914">
          <path id="Trazado_102757" data-name="Trazado 102757" d="M1807.651,4500.455l37.962-29.032-39.139-25.87Z" transform="translate(-1806.474 -4445.553)" fill="#aed3f2"/>
        </g>
      </g>
    </g>
    <g id="Grupo_58925" data-name="Grupo 58925" transform="translate(2081.755 4373.754)">
      <g id="Grupo_58918" data-name="Grupo 58918">
        <g id="Grupo_58917" data-name="Grupo 58917">
          <path id="Trazado_102758" data-name="Trazado 102758" d="M2196.726,4374.321l-58.3-.567,1.628,75.979,58.294.214Z" transform="translate(-2138.425 -4373.754)" fill="#e1e1e1"/>
        </g>
      </g>
      <g id="Grupo_58920" data-name="Grupo 58920" transform="translate(3.505 2.63)">
        <g id="Grupo_58919" data-name="Grupo 58919">
          <path id="Trazado_102759" data-name="Trazado 102759" d="M2193.608,4378.193l-51.036-1.326,1.477,68.91,51.021.628Z" transform="translate(-2142.573 -4376.867)" fill="#fafafa"/>
        </g>
      </g>
      <g id="Grupo_58922" data-name="Grupo 58922" transform="translate(11.968 13.687)">
        <g id="Grupo_58921" data-name="Grupo 58921">
          <path id="Trazado_102760" data-name="Trazado 102760" d="M2186.45,4390.516l-33.861-.562,1.032,48.164,33.833-.725Z" transform="translate(-2152.589 -4389.953)" fill="#ececec"/>
        </g>
      </g>
      <g id="Grupo_58924" data-name="Grupo 58924" transform="translate(11.968 13.687)">
        <g id="Grupo_58923" data-name="Grupo 58923">
          <path id="Trazado_102761" data-name="Trazado 102761" d="M2153.621,4438.117l33.3-25.469-34.335-22.695Z" transform="translate(-2152.589 -4389.953)" fill="#aed3f2"/>
        </g>
      </g>
    </g>
    <g id="Grupo_58932" data-name="Grupo 58932" transform="translate(2074.743 4641.325)">
      <g id="Grupo_58926" data-name="Grupo 58926" transform="translate(0 18.667)">
        <path id="Trazado_102762" data-name="Trazado 102762" d="M2130.13,4712.521c-.249.746,8.449,33.8,8.449,33.8l5.964-1.243-8.2-32.556Z" transform="translate(-2130.125 -4712.521)" fill="#ececec"/>
      </g>
      <g id="Grupo_58927" data-name="Grupo 58927" transform="translate(34.301 13.945)">
        <path id="Trazado_102763" data-name="Trazado 102763" d="M2182.65,4706.933l-11.929,38.521h6.958l11.432-35.787Z" transform="translate(-2170.721 -4706.933)" fill="#aed3f2"/>
      </g>
      <g id="Grupo_58928" data-name="Grupo 58928" transform="translate(43.496 7.981)">
        <path id="Trazado_102764" data-name="Trazado 102764" d="M2195.272,4699.874l-13.669,44.485h6.959l13.172-41.751Z" transform="translate(-2181.603 -4699.874)" fill="#ececec"/>
      </g>
      <g id="Grupo_58929" data-name="Grupo 58929" transform="translate(4.23 49.733)">
        <path id="Trazado_102765" data-name="Trazado 102765" d="M2135.131,4749.288l6.958,24.107h35.042l6.461-24.107Z" transform="translate(-2135.131 -4749.288)" fill="#e1e1e1"/>
      </g>
      <g id="Grupo_58931" data-name="Grupo 58931" transform="translate(4.901)">
        <g id="Grupo_58930" data-name="Grupo 58930">
          <path id="Trazado_102766" data-name="Trazado 102766" d="M2153.33,4740.161a1.285,1.285,0,0,1-.077-.248l-.186-.737c-.16-.678-.385-1.631-.672-2.847-.574-2.507-1.394-6.093-2.408-10.527-2-8.944-4.773-21.306-7.865-35.106l.215.172H2136.2l.214-.268c3.111,13.812,5.9,26.185,7.913,35.136.981,4.447,1.774,8.043,2.329,10.558.26,1.224.465,2.183.61,2.864.061.309.11.555.148.746a1.267,1.267,0,0,1,.036.258,1.149,1.149,0,0,1-.079-.248c-.049-.188-.111-.431-.189-.737-.164-.678-.395-1.631-.688-2.847-.586-2.506-1.426-6.092-2.462-10.527l-8.046-35.105-.061-.269h6.588l.038.172c3.039,13.812,5.761,26.184,7.731,35.135.957,4.447,1.732,8.043,2.274,10.558.254,1.224.454,2.183.595,2.864l.144.746A1.169,1.169,0,0,1,2153.33,4740.161Z" transform="translate(-2135.925 -4690.428)" fill="#e1e1e1"/>
        </g>
      </g>
    </g>
    <g id="Grupo_58934" data-name="Grupo 58934" transform="translate(1772.959 4715.951)">
      <g id="Grupo_58933" data-name="Grupo 58933" transform="translate(0 0)">
        <path id="Trazado_102767" data-name="Trazado 102767" d="M2131.29,4778.971c0,.12-80.222.22-179.157.22-98.97,0-179.174-.1-179.174-.22s80.2-.221,179.174-.221C2051.068,4778.75,2131.29,4778.849,2131.29,4778.971Z" transform="translate(-1772.959 -4778.75)" fill="#344154"/>
      </g>
    </g>
    <g id="Grupo_58951" data-name="Grupo 58951" transform="translate(2051.859 4485.223)">
      <g id="Grupo_58936" data-name="Grupo 58936" transform="translate(0)">
        <g id="Grupo_58935" data-name="Grupo 58935">
          <path id="Trazado_102768" data-name="Trazado 102768" d="M2159.406,4506.008a3.253,3.253,0,0,0-.6-.184,4.178,4.178,0,0,0-1.833.027,6.623,6.623,0,0,0-2.664,1.367,14.182,14.182,0,0,0-2.7,3.151c-1.728,2.651-3.094,6.318-4.682,10.595a155.35,155.35,0,0,0-4.766,14.9l0,.019-.006.012a4.378,4.378,0,0,1-.985,1.219,1.944,1.944,0,0,1-1.537.49,2.836,2.836,0,0,1-1.415-.816c-.395-.366-.765-.755-1.137-1.148a26.23,26.23,0,0,0-2.342-2.284,4.319,4.319,0,0,0-2.961-1.21,4,4,0,0,0-2.715,1.809,6.809,6.809,0,0,0-.935,3.356c-.145,2.418.553,4.855.978,7.386l1.447,7.762q.37,1.986.748,4.016.189,1.015.379,2.041a2.648,2.648,0,0,1-.242,2.164,1.067,1.067,0,0,1-1.128.384,2.866,2.866,0,0,1-1-.521l-1.715-1.283a38.028,38.028,0,0,0-3.58-2.411,13.611,13.611,0,0,0-4-1.667,4.7,4.7,0,0,0-2.132.013,3.154,3.154,0,0,0-1.736,1.167,7.166,7.166,0,0,0-1.138,4.222,23.689,23.689,0,0,0,.443,4.58,58.373,58.373,0,0,0,2.576,9.106,12.08,12.08,0,0,1,.738,2.35,1.709,1.709,0,0,1-.312,1.3,1.544,1.544,0,0,1-.244.246.826.826,0,0,1-.329.193,1.016,1.016,0,0,1-.736-.162,12.6,12.6,0,0,1-1.954-1.555l-1.811-1.679a26.793,26.793,0,0,0-3.842-3.094,8.079,8.079,0,0,0-2.217-1.009,2.749,2.749,0,0,0-2.259.281,3.273,3.273,0,0,0-1.278,1.957,9.957,9.957,0,0,0-.3,2.472,20.877,20.877,0,0,0,.637,5.047,43.837,43.837,0,0,0,3.669,9.711,73.52,73.52,0,0,0,5.468,9.086,51.884,51.884,0,0,0,3.293,4.249l3.429,4.2.04.048-.2-.079,5.371-.78a49.669,49.669,0,0,0,5.3-.914,73.65,73.65,0,0,0,10.162-3.048,43.958,43.958,0,0,0,9.25-4.722,20.9,20.9,0,0,0,3.866-3.308,10,10,0,0,0,1.441-2.033,3.285,3.285,0,0,0,.373-2.309,2.746,2.746,0,0,0-1.483-1.728,8.056,8.056,0,0,0-2.32-.745,26.922,26.922,0,0,0-4.926-.293l-2.47.025a12.668,12.668,0,0,1-2.492-.163,1.014,1.014,0,0,1-.654-.376.81.81,0,0,1-.112-.364,1.519,1.519,0,0,1-.016-.347,1.716,1.716,0,0,1,.646-1.175,12.048,12.048,0,0,1,2.127-1.242,58.539,58.539,0,0,0,8.031-5.011,23.682,23.682,0,0,0,3.407-3.094,7.157,7.157,0,0,0,1.994-3.892,3.157,3.157,0,0,0-.505-2.029,4.71,4.71,0,0,0-1.571-1.442,13.675,13.675,0,0,0-4.086-1.457,38.36,38.36,0,0,0-4.271-.622l-2.133-.2a2.848,2.848,0,0,1-1.09-.29,1.067,1.067,0,0,1-.569-1.048,2.668,2.668,0,0,1,1.281-1.76q.832-.629,1.653-1.255l3.253-2.469,6.289-4.772c2.017-1.588,4.17-2.922,5.689-4.81a6.8,6.8,0,0,0,1.562-3.113,4,4,0,0,0-.8-3.163,2.908,2.908,0,0,0-1.383-.826,6.646,6.646,0,0,0-1.623-.267,26.133,26.133,0,0,0-3.268.117c-.539.04-1.076.079-1.613.084a2.839,2.839,0,0,1-1.6-.348,1.94,1.94,0,0,1-.806-1.4,4.344,4.344,0,0,1,.09-1.564l0-.013.009-.018a155.2,155.2,0,0,0,6.478-14.2c1.7-4.226,3.149-7.851,3.672-10.965a14.339,14.339,0,0,0,.167-4.142,6.708,6.708,0,0,0-.984-2.824,4.039,4.039,0,0,0-1.308-1.276,3.07,3.07,0,0,0-.562-.273,2.213,2.213,0,0,1,.58.241,3.971,3.971,0,0,1,1.351,1.268,6.721,6.721,0,0,1,1.03,2.85,14.3,14.3,0,0,1-.134,4.18c-.505,3.141-1.943,6.787-3.622,11.019a153.047,153.047,0,0,1-6.437,14.258l.012-.031a4.1,4.1,0,0,0-.079,1.456,1.67,1.67,0,0,0,.69,1.206,2.576,2.576,0,0,0,1.441.3c.523-.007,1.055-.047,1.593-.088a26.332,26.332,0,0,1,3.306-.127,6.966,6.966,0,0,1,1.7.276,3.215,3.215,0,0,1,1.518.906,4.3,4.3,0,0,1,.881,3.418,7.108,7.108,0,0,1-1.622,3.266c-1.56,1.944-3.737,3.294-5.739,4.88l-6.274,4.781-3.246,2.474-1.65,1.257a3.835,3.835,0,0,0-.75.661,1.688,1.688,0,0,0-.389.845.689.689,0,0,0,.384.693,2.5,2.5,0,0,0,.951.243l2.127.2a38.863,38.863,0,0,1,4.314.623,13.993,13.993,0,0,1,4.206,1.5,5.09,5.09,0,0,1,1.7,1.562,3.55,3.55,0,0,1,.57,2.271,7.518,7.518,0,0,1-2.085,4.125,24.088,24.088,0,0,1-3.462,3.151,58.75,58.75,0,0,1-8.083,5.055,11.987,11.987,0,0,0-2.045,1.188,1.3,1.3,0,0,0-.506.891,1.149,1.149,0,0,0,.012.261c.011.067.035.227.06.213a.72.72,0,0,0,.393.181,12.389,12.389,0,0,0,2.393.149l2.466-.027a27.254,27.254,0,0,1,5.006.3,8.462,8.462,0,0,1,2.446.787,3.174,3.174,0,0,1,1.695,2,3.7,3.7,0,0,1-.4,2.6,10.37,10.37,0,0,1-1.5,2.127,21.307,21.307,0,0,1-3.943,3.378,44.319,44.319,0,0,1-9.34,4.773,73.848,73.848,0,0,1-10.226,3.07,49.527,49.527,0,0,1-5.32.917l-5.38.783-.123.018-.079-.1-.04-.049-3.435-4.209a52.335,52.335,0,0,1-3.3-4.265,73.868,73.868,0,0,1-5.5-9.145,44.306,44.306,0,0,1-3.7-9.81,21.252,21.252,0,0,1-.645-5.149,10.34,10.34,0,0,1,.318-2.584,3.7,3.7,0,0,1,1.453-2.2,3.179,3.179,0,0,1,2.6-.338,8.448,8.448,0,0,1,2.339,1.063,27.269,27.269,0,0,1,3.9,3.145l1.806,1.678a12.414,12.414,0,0,0,1.872,1.5.722.722,0,0,0,.413.131c.009.027.134-.073.187-.117a1.088,1.088,0,0,0,.184-.185,1.3,1.3,0,0,0,.226-1,11.916,11.916,0,0,0-.714-2.253,58.869,58.869,0,0,1-2.584-9.175,24.044,24.044,0,0,1-.444-4.66,7.521,7.521,0,0,1,1.227-4.456,3.543,3.543,0,0,1,1.945-1.3,5.1,5.1,0,0,1,2.308-.017,14.007,14.007,0,0,1,4.121,1.718,38.662,38.662,0,0,1,3.612,2.439l1.708,1.283a2.493,2.493,0,0,0,.867.462.685.685,0,0,0,.752-.249,1.667,1.667,0,0,0,.284-.884,3.813,3.813,0,0,0-.109-.994q-.19-1.025-.377-2.04-.374-2.027-.739-4.013-.731-3.97-1.43-7.759c-.416-2.52-1.12-4.983-.968-7.471a7.125,7.125,0,0,1,.993-3.51,4.3,4.3,0,0,1,2.949-1.941,3.208,3.208,0,0,1,1.734.349,6.97,6.97,0,0,1,1.442.935,26.359,26.359,0,0,1,2.363,2.317c.37.393.737.78,1.12,1.138a2.586,2.586,0,0,0,1.266.75,1.668,1.668,0,0,0,1.323-.427,4.091,4.091,0,0,0,.921-1.132l-.012.03a153.442,153.442,0,0,1,4.831-14.907c1.607-4.268,3-7.943,4.757-10.6a14.142,14.142,0,0,1,2.755-3.158,6.643,6.643,0,0,1,2.717-1.354,4.1,4.1,0,0,1,1.856.01A2.308,2.308,0,0,1,2159.406,4506.008Z" transform="translate(-2103.042 -4505.679)" fill="#344154"/>
        </g>
      </g>
      <g id="Grupo_58938" data-name="Grupo 58938" transform="translate(11.781 11.824)">
        <g id="Grupo_58937" data-name="Grupo 58937">
          <path id="Trazado_102769" data-name="Trazado 102769" d="M2157.135,4519.673a1.335,1.335,0,0,1-.085.275l-.291.794c-.276.721-.664,1.739-1.159,3.039-1.026,2.661-2.492,6.466-4.3,11.158-3.6,9.458-8.557,22.483-14.033,36.87-5.462,14.412-10.456,27.438-14.158,36.833-1.849,4.7-3.362,8.494-4.429,11.108l-1.236,3.007-.332.778a1.433,1.433,0,0,1-.127.26,1.353,1.353,0,0,1,.085-.276c.074-.2.169-.463.291-.794.276-.721.664-1.739,1.159-3.038,1.025-2.661,2.492-6.465,4.3-11.157l14.036-36.876c5.459-14.406,10.454-27.432,14.154-36.828,1.849-4.7,3.362-8.494,4.43-11.108.529-1.286.943-2.294,1.236-3.007l.332-.778A1.392,1.392,0,0,1,2157.135,4519.673Z" transform="translate(-2116.985 -4519.673)" fill="#344154"/>
        </g>
      </g>
      <g id="Grupo_58940" data-name="Grupo 58940" transform="translate(37.617 40.976)">
        <g id="Grupo_58939" data-name="Grupo 58939">
          <path id="Trazado_102770" data-name="Trazado 102770" d="M2162.332,4554.18a14.924,14.924,0,0,1-2.114,1.255l-5.175,2.879c-2.023,1.125-3.865,2.126-5.224,2.807a11.265,11.265,0,0,1-2.257.984,17.3,17.3,0,0,1,2.11-1.258l5.158-2.917c2.023-1.125,3.88-2.1,5.244-2.771A12.566,12.566,0,0,1,2162.332,4554.18Z" transform="translate(-2147.561 -4554.175)" fill="#344154"/>
        </g>
      </g>
      <g id="Grupo_58942" data-name="Grupo 58942" transform="translate(28.346 31.073)">
        <g id="Grupo_58941" data-name="Grupo 58941">
          <path id="Trazado_102771" data-name="Trazado 102771" d="M2145.175,4559.778c-.109.054-2.118-3.78-4.488-8.563s-4.2-8.706-4.093-8.759,2.117,3.779,4.487,8.564S2145.283,4559.724,2145.175,4559.778Z" transform="translate(-2136.59 -4542.455)" fill="#344154"/>
        </g>
      </g>
      <g id="Grupo_58944" data-name="Grupo 58944" transform="translate(18.496 57.847)">
        <g id="Grupo_58943" data-name="Grupo 58943">
          <path id="Trazado_102772" data-name="Trazado 102772" d="M2135.979,4587.2a12.962,12.962,0,0,1-1.857-1.692c-1.1-1.1-2.569-2.658-4.1-4.468s-2.83-3.516-3.729-4.781a12.727,12.727,0,0,1-1.361-2.112,15.943,15.943,0,0,1,1.61,1.926c.96,1.213,2.291,2.884,3.816,4.683s2.951,3.389,3.986,4.539A15.665,15.665,0,0,1,2135.979,4587.2Z" transform="translate(-2124.932 -4574.141)" fill="#344154"/>
        </g>
      </g>
      <g id="Grupo_58946" data-name="Grupo 58946" transform="translate(29.559 67.258)">
        <g id="Grupo_58945" data-name="Grupo 58945">
          <path id="Trazado_102773" data-name="Trazado 102773" d="M2153.465,4585.293a12.145,12.145,0,0,1-2.227.652c-1.389.349-3.314.8-5.445,1.272s-4.068.875-5.473,1.146a1.163,1.163,0,1,1-.068-.3c1.388-.349,3.313-.8,5.446-1.272s4.067-.875,5.473-1.146A12.033,12.033,0,0,1,2153.465,4585.293Z" transform="translate(-2138.025 -4585.279)" fill="#344154"/>
        </g>
      </g>
      <g id="Grupo_58948" data-name="Grupo 58948" transform="translate(21.169 87.956)">
        <g id="Grupo_58947" data-name="Grupo 58947">
          <path id="Trazado_102774" data-name="Trazado 102774" d="M2147.927,4609.788a19.928,19.928,0,0,1-2.872.766c-1.786.418-4.26.966-7,1.545s-5.223,1.079-7.026,1.419a1.488,1.488,0,1,1-.064-.3c1.786-.418,4.26-.967,7-1.545s5.221-1.08,7.024-1.419A19.93,19.93,0,0,1,2147.927,4609.788Z" transform="translate(-2128.096 -4609.777)" fill="#344154"/>
        </g>
      </g>
      <g id="Grupo_58950" data-name="Grupo 58950" transform="translate(8.053 74.985)">
        <g id="Grupo_58949" data-name="Grupo 58949">
          <path id="Trazado_102775" data-name="Trazado 102775" d="M2126.135,4611.366a3.246,3.246,0,0,1-.635-.577c-.389-.389-.934-.969-1.6-1.694-1.325-1.453-3.112-3.5-4.986-5.847s-3.489-4.534-4.614-6.146c-.564-.806-1.007-1.467-1.3-1.931a3.191,3.191,0,0,1-.423-.746,3.225,3.225,0,0,1,.563.646l1.415,1.847c1.187,1.563,2.834,3.717,4.706,6.055s3.613,4.414,4.876,5.917A25.365,25.365,0,0,1,2126.135,4611.366Z" transform="translate(-2112.573 -4594.425)" fill="#344154"/>
        </g>
      </g>
    </g>
    <g id="Grupo_58971" data-name="Grupo 58971" transform="translate(2049.506 4531.175)">
      <g id="Grupo_58953" data-name="Grupo 58953">
        <g id="Grupo_58952" data-name="Grupo 58952">
          <path id="Trazado_102776" data-name="Trazado 102776" d="M2115.773,4662.638c-14.671-11.824-16.8-32.047-14.954-49.97.306-2.992.194-6.175,1.8-8.708s5.059-4.1,7.657-2.655c2.155,1.2,2.947,3.858,4.046,6.085a17.585,17.585,0,0,0,6.572,7.2c1.841,1.121,4.162,1.889,6.118.979,2.685-1.25,3.234-4.8,3.42-7.786q.52-8.342,1.04-16.683a27.873,27.873,0,0,1,1.508-8.8c1.122-2.767,3.352-5.256,6.243-5.855s6.288,1.275,6.687,4.236a27.615,27.615,0,0,1-.17,3.719c0,1.244.481,2.653,1.632,3.079,1.167.431,2.418-.333,3.37-1.144,3.284-2.8,5.639-6.537,7.856-10.26s4.383-7.543,7.4-10.636,7.06-5.431,11.348-5.379,8.657,3,9.449,7.267-1.952,8.376-4.854,11.6a66.759,66.759,0,0,1-14.767,12.261,5.494,5.494,0,0,0-2.489,2.334c-.785,1.944.964,4.048,2.882,4.836,2.172.893,4.6.827,6.906,1.26s4.755,1.632,5.484,3.89c1.012,3.132-1.756,6.152-4.408,8.073a57.2,57.2,0,0,1-17.546,8.585c-2.249.651-4.606,1.2-6.48,2.617s-3.126,4.027-2.2,6.2,3.622,3.037,5.95,2.768,4.469-1.375,6.716-2.051c4.2-1.266,9.478-.62,11.86,3.1a9.461,9.461,0,0,1,.432,8.415,21.793,21.793,0,0,1-5.027,7.061,57.481,57.481,0,0,1-25.667,15.528c-9.733,2.645-18.6,2.932-27.815-1.171" transform="translate(-2100.257 -4560.063)" fill="#d9a171"/>
        </g>
      </g>
      <g id="Grupo_58955" data-name="Grupo 58955" opacity="0.1">
        <g id="Grupo_58954" data-name="Grupo 58954">
          <path id="Trazado_102777" data-name="Trazado 102777" d="M2115.773,4662.638c-14.671-11.824-16.8-32.047-14.954-49.97.306-2.992.194-6.175,1.8-8.708s5.059-4.1,7.657-2.655c2.155,1.2,2.947,3.858,4.046,6.085a17.585,17.585,0,0,0,6.572,7.2c1.841,1.121,4.162,1.889,6.118.979,2.685-1.25,3.234-4.8,3.42-7.786q.52-8.342,1.04-16.683a27.873,27.873,0,0,1,1.508-8.8c1.122-2.767,3.352-5.256,6.243-5.855s6.288,1.275,6.687,4.236a27.615,27.615,0,0,1-.17,3.719c0,1.244.481,2.653,1.632,3.079,1.167.431,2.418-.333,3.37-1.144,3.284-2.8,5.639-6.537,7.856-10.26s4.383-7.543,7.4-10.636,7.06-5.431,11.348-5.379,8.657,3,9.449,7.267-1.952,8.376-4.854,11.6a66.759,66.759,0,0,1-14.767,12.261,5.494,5.494,0,0,0-2.489,2.334c-.785,1.944.964,4.048,2.882,4.836,2.172.893,4.6.827,6.906,1.26s4.755,1.632,5.484,3.89c1.012,3.132-1.756,6.152-4.408,8.073a57.2,57.2,0,0,1-17.546,8.585c-2.249.651-4.606,1.2-6.48,2.617s-3.126,4.027-2.2,6.2,3.622,3.037,5.95,2.768,4.469-1.375,6.716-2.051c4.2-1.266,9.478-.62,11.86,3.1a9.461,9.461,0,0,1,.432,8.415,21.793,21.793,0,0,1-5.027,7.061,57.481,57.481,0,0,1-25.667,15.528c-9.733,2.645-18.6,2.932-27.815-1.171" transform="translate(-2100.257 -4560.063)" fill="#d9a171"/>
        </g>
      </g>
      <g id="Grupo_58958" data-name="Grupo 58958" transform="translate(14.367 2.881)">
        <g id="Grupo_58957" data-name="Grupo 58957">
          <g id="Grupo_58956" data-name="Grupo 58956">
            <path id="Trazado_102778" data-name="Trazado 102778" d="M2117.261,4676.469a131.2,131.2,0,0,1,6.559-24.246,267.876,267.876,0,0,1,12.581-28.043q1.862-3.636,3.676-7.181c1.212-2.354,2.413-4.689,3.729-6.9a133.741,133.741,0,0,1,8.292-12.271c2.826-3.776,5.646-7.255,8.307-10.49s5.212-6.194,7.645-8.8a106.136,106.136,0,0,1,12.387-11.415c1.562-1.229,2.805-2.142,3.656-2.749l.972-.686a2.14,2.14,0,0,1,.342-.217,2.256,2.256,0,0,1-.309.264l-.94.728c-.828.637-2.05,1.577-3.59,2.829a112.409,112.409,0,0,0-12.235,11.514c-2.409,2.612-4.929,5.583-7.578,8.822s-5.446,6.729-8.254,10.5a135.346,135.346,0,0,0-8.232,12.241c-1.306,2.2-2.5,4.517-3.708,6.877s-2.432,4.755-3.672,7.179a274.512,274.512,0,0,0-12.6,27.97,133.458,133.458,0,0,0-6.65,24.13" transform="translate(-2117.261 -4563.474)" fill="#344154"/>
          </g>
        </g>
      </g>
      <g id="Grupo_58961" data-name="Grupo 58961" transform="translate(38.952 16.385)">
        <g id="Grupo_58960" data-name="Grupo 58960">
          <g id="Grupo_58959" data-name="Grupo 58959">
            <path id="Trazado_102779" data-name="Trazado 102779" d="M2148.477,4612.566a6,6,0,0,1-.2-1.292c-.1-.835-.2-2.047-.313-3.547-.218-3-.378-7.15-.536-11.726s-.377-8.716-.64-11.7c-.128-1.494-.242-2.7-.333-3.535a6.05,6.05,0,0,1-.078-1.306,5.891,5.891,0,0,1,.289,1.275c.156.827.33,2.032.507,3.525.364,2.987.645,7.139.8,11.722.145,4.518.275,8.6.376,11.726.054,1.41.1,2.6.138,3.553A6.03,6.03,0,0,1,2148.477,4612.566Z" transform="translate(-2146.357 -4579.456)" fill="#344154"/>
          </g>
        </g>
      </g>
      <g id="Grupo_58964" data-name="Grupo 58964" transform="translate(41.071 44.757)">
        <g id="Grupo_58963" data-name="Grupo 58963">
          <g id="Grupo_58962" data-name="Grupo 58962">
            <path id="Trazado_102780" data-name="Trazado 102780" d="M2187.7,4613.237a8.284,8.284,0,0,1-1.542.078c-.99.021-2.422.042-4.191.125-3.538.138-8.418.5-13.785,1.135s-10.2,1.436-13.679,2.108c-1.742.323-3.145.623-4.117.825a8.28,8.28,0,0,1-1.521.265,8.142,8.142,0,0,1,1.472-.476c.958-.266,2.353-.625,4.09-1,3.469-.773,8.309-1.627,13.692-2.275a135.751,135.751,0,0,1,13.838-.975c1.775-.033,3.212.005,4.2.053A8.135,8.135,0,0,1,2187.7,4613.237Z" transform="translate(-2148.866 -4613.034)" fill="#344154"/>
          </g>
        </g>
      </g>
      <g id="Grupo_58967" data-name="Grupo 58967" transform="translate(5.496 40.661)">
        <g id="Grupo_58966" data-name="Grupo 58966">
          <g id="Grupo_58965" data-name="Grupo 58965">
            <path id="Trazado_102781" data-name="Trazado 102781" d="M2122.712,4658.483a1.986,1.986,0,0,1-.231-.485c-.152-.387-.337-.86-.561-1.433-.481-1.245-1.13-3.067-1.9-5.327-1.549-4.519-3.491-10.83-5.541-17.821s-3.932-13.314-5.384-17.859l-1.735-5.379c-.186-.586-.339-1.07-.464-1.467a1.942,1.942,0,0,1-.127-.525,2.079,2.079,0,0,1,.23.487c.152.387.336.859.561,1.431.48,1.246,1.13,3.067,1.9,5.327,1.549,4.52,3.491,10.83,5.542,17.825s3.931,13.312,5.383,17.858c.714,2.209,1.3,4.027,1.736,5.378.186.586.339,1.07.464,1.467A2.026,2.026,0,0,1,2122.712,4658.483Z" transform="translate(-2106.762 -4608.187)" fill="#344154"/>
          </g>
        </g>
      </g>
      <g id="Grupo_58970" data-name="Grupo 58970" transform="translate(21.446 78.025)">
        <g id="Grupo_58969" data-name="Grupo 58969">
          <g id="Grupo_58968" data-name="Grupo 58968">
            <path id="Trazado_102782" data-name="Trazado 102782" d="M2177.718,4652.414a2.013,2.013,0,0,1-.52.174l-1.514.395-5.577,1.393c-4.71,1.179-11.195,2.881-18.359,4.77s-13.675,3.535-18.41,4.616c-2.367.54-4.287.959-5.619,1.221-.616.117-1.124.213-1.537.293a.275.275,0,1,1-.024-.11l1.514-.394,5.577-1.394c4.71-1.178,11.2-2.88,18.362-4.771s13.67-3.534,18.405-4.615c2.367-.542,4.287-.96,5.621-1.222l1.537-.292A2,2,0,0,1,2177.718,4652.414Z" transform="translate(-2125.639 -4652.407)" fill="#344154"/>
          </g>
        </g>
      </g>
    </g>
    <g id="Grupo_59030" data-name="Grupo 59030" transform="translate(1863.531 4378.22)">
      <g id="Grupo_58972" data-name="Grupo 58972" transform="translate(0 22.283)">
        <rect id="Rectángulo_5480" data-name="Rectángulo 5480" width="204.904" height="280.776" fill="#5e6178"/>
      </g>
      <g id="Grupo_58973" data-name="Grupo 58973" transform="translate(17.062 33.631)">
        <path id="Trazado_102783" data-name="Trazado 102783" d="M2080.088,4671.571H1900.346V4418.842h179.743v252.729Z" transform="translate(-1900.346 -4418.842)" fill="#e1e1e1"/>
      </g>
      <g id="Grupo_58974" data-name="Grupo 58974" transform="translate(15.842 30.289)">
        <path id="Trazado_102784" data-name="Trazado 102784" d="M2077.025,4666.269H1898.9V4414.887h178.123v251.382Z" transform="translate(-1898.902 -4414.887)" fill="#ececec"/>
      </g>
      <g id="Grupo_58978" data-name="Grupo 58978" transform="translate(12.297 30.707)">
        <g id="Grupo_58975" data-name="Grupo 58975" transform="translate(0.22 0.22)">
          <path id="Trazado_102785" data-name="Trazado 102785" d="M2057.275,4646.823l-20.516,16.706H1894.966V4415.642h179.743V4632.69Z" transform="translate(-1894.966 -4415.642)" fill="#fafafa"/>
        </g>
        <g id="Grupo_58977" data-name="Grupo 58977">
          <g id="Grupo_58976" data-name="Grupo 58976">
            <path id="Trazado_102786" data-name="Trazado 102786" d="M2057.234,4646.783s.363-.31,1.1-.912l3.287-2.687,13.008-10.589-.025.054c-.021-35.653-.069-114.875-.129-217.048l.2.2-178.174.021h-1.569l.22-.219c-.016,93.192-.031,179.165-.043,247.887l-.177-.176,141.793.1-.047.017,15.406-12.5q2.571-2.076,3.861-3.119c.86-.692,1.3-1.03,1.3-1.03s-.42.359-1.271,1.061l-3.836,3.149-15.361,12.554-.02.017h-.027l-141.793.1h-.176v-.176c-.012-68.722-.027-154.694-.043-247.887v-.221h1.789l178.174.021h.2v.2c-.061,102.172-.107,181.4-.128,217.048v.034l-.026.021-13.051,10.536-3.309,2.66C2057.613,4646.491,2057.234,4646.783,2057.234,4646.783Z" transform="translate(-1894.706 -4415.381)" fill="#344154"/>
          </g>
        </g>
      </g>
      <g id="Grupo_58979" data-name="Grupo 58979" transform="translate(65.67 13.603)">
        <path id="Rectángulo_5481" data-name="Rectángulo 5481" d="M14.757,0H59.409A14.154,14.154,0,0,1,73.564,14.154V25.219a0,0,0,0,1,0,0H0a0,0,0,0,1,0,0V14.757A14.757,14.757,0,0,1,14.757,0Z" fill="#d9a171"/>
      </g>
      <g id="Grupo_58980" data-name="Grupo 58980" transform="translate(80.998 0)">
        <path id="Trazado_102787" data-name="Trazado 102787" d="M1978.7,4392.642l-2.689-13.6h42.356l-2.353,13.6Z" transform="translate(-1976.016 -4379.039)" fill="#d9a171"/>
      </g>
      <g id="Grupo_58990" data-name="Grupo 58990" transform="translate(31.316 70.42)">
        <g id="Grupo_58981" data-name="Grupo 58981">
          <path id="Trazado_102788" data-name="Trazado 102788" d="M1947.5,4492.664h-30.282v-30.282H1947.5Zm-29.437-.845h28.592v-28.592h-28.592Z" transform="translate(-1917.216 -4462.382)" fill="#d9a171"/>
        </g>
        <g id="Grupo_58983" data-name="Grupo 58983" transform="translate(43.135 7.092)">
          <g id="Grupo_58982" data-name="Grupo 58982">
            <path id="Trazado_102789" data-name="Trazado 102789" d="M2062.419,4471c0,.121-21.078.219-47.073.219s-47.078-.1-47.078-.219,21.074-.221,47.078-.221S2062.419,4470.875,2062.419,4471Z" transform="translate(-1968.267 -4470.776)" fill="#344154"/>
          </g>
        </g>
        <g id="Grupo_58985" data-name="Grupo 58985" transform="translate(43.135 13.386)">
          <g id="Grupo_58984" data-name="Grupo 58984">
            <path id="Trazado_102790" data-name="Trazado 102790" d="M2062.419,4478.444c0,.122-21.078.22-47.073.22s-47.078-.1-47.078-.22,21.074-.22,47.078-.22S2062.419,4478.322,2062.419,4478.444Z" transform="translate(-1968.267 -4478.224)" fill="#344154"/>
          </g>
        </g>
        <g id="Grupo_58987" data-name="Grupo 58987" transform="translate(43.135 19.678)">
          <g id="Grupo_58986" data-name="Grupo 58986">
            <path id="Trazado_102791" data-name="Trazado 102791" d="M2062.419,4485.891c0,.122-21.078.221-47.073.221s-47.078-.1-47.078-.221,21.074-.22,47.078-.22S2062.419,4485.769,2062.419,4485.891Z" transform="translate(-1968.267 -4485.671)" fill="#344154"/>
          </g>
        </g>
        <g id="Grupo_58989" data-name="Grupo 58989" transform="translate(43.135 25.97)">
          <g id="Grupo_58988" data-name="Grupo 58988">
            <path id="Trazado_102792" data-name="Trazado 102792" d="M2062.419,4493.337c0,.122-21.078.221-47.073.221s-47.078-.1-47.078-.221,21.074-.219,47.078-.219S2062.419,4493.217,2062.419,4493.337Z" transform="translate(-1968.267 -4493.118)" fill="#344154"/>
          </g>
        </g>
      </g>
      <g id="Grupo_59001" data-name="Grupo 59001" transform="translate(31.316 117.089)">
        <g id="Grupo_58991" data-name="Grupo 58991">
          <path id="Trazado_102793" data-name="Trazado 102793" d="M1947.5,4547.9h-30.282v-30.282H1947.5Zm-29.437-.845h28.592V4518.46h-28.592Z" transform="translate(-1917.216 -4517.615)" fill="#d9a171"/>
        </g>
        <g id="Grupo_58992" data-name="Grupo 58992" transform="translate(6.022 1.918)">
          <path id="Trazado_102794" data-name="Trazado 102794" d="M1924.343,4533.731l4.02-4.318,6.7,5.36,15.335-14.889,3.674,4.33-19.307,19.045Z" transform="translate(-1924.343 -4519.885)" fill="#d9a171"/>
        </g>
        <g id="Grupo_58994" data-name="Grupo 58994" transform="translate(43.135 7.093)">
          <g id="Grupo_58993" data-name="Grupo 58993">
            <path id="Trazado_102795" data-name="Trazado 102795" d="M2062.419,4526.229c0,.122-21.078.22-47.073.22s-47.078-.1-47.078-.22,21.074-.22,47.078-.22S2062.419,4526.108,2062.419,4526.229Z" transform="translate(-1968.267 -4526.01)" fill="#344154"/>
          </g>
        </g>
        <g id="Grupo_58996" data-name="Grupo 58996" transform="translate(43.135 13.385)">
          <g id="Grupo_58995" data-name="Grupo 58995">
            <path id="Trazado_102796" data-name="Trazado 102796" d="M2062.419,4533.677c0,.121-21.078.221-47.073.221s-47.078-.1-47.078-.221,21.074-.22,47.078-.22S2062.419,4533.555,2062.419,4533.677Z" transform="translate(-1968.267 -4533.457)" fill="#344154"/>
          </g>
        </g>
        <g id="Grupo_58998" data-name="Grupo 58998" transform="translate(43.135 19.677)">
          <g id="Grupo_58997" data-name="Grupo 58997">
            <path id="Trazado_102797" data-name="Trazado 102797" d="M2062.419,4541.125c0,.121-21.078.219-47.073.219s-47.078-.1-47.078-.219,21.074-.221,47.078-.221S2062.419,4541,2062.419,4541.125Z" transform="translate(-1968.267 -4540.904)" fill="#344154"/>
          </g>
        </g>
        <g id="Grupo_59000" data-name="Grupo 59000" transform="translate(43.135 25.97)">
          <g id="Grupo_58999" data-name="Grupo 58999">
            <path id="Trazado_102798" data-name="Trazado 102798" d="M2062.419,4548.571c0,.122-21.078.22-47.073.22s-47.078-.1-47.078-.22,21.074-.22,47.078-.22S2062.419,4548.45,2062.419,4548.571Z" transform="translate(-1968.267 -4548.351)" fill="#344154"/>
          </g>
        </g>
      </g>
      <g id="Grupo_59012" data-name="Grupo 59012" transform="translate(31.316 162.249)">
        <g id="Grupo_59002" data-name="Grupo 59002">
          <path id="Trazado_102799" data-name="Trazado 102799" d="M1947.5,4601.345h-30.282v-30.282H1947.5Zm-29.437-.845h28.592v-28.592h-28.592Z" transform="translate(-1917.216 -4571.063)" fill="#d9a171"/>
        </g>
        <g id="Grupo_59003" data-name="Grupo 59003" transform="translate(6.022 1.918)">
          <path id="Trazado_102800" data-name="Trazado 102800" d="M1924.343,4587.179l4.02-4.318,6.7,5.36,15.335-14.889,3.674,4.331-19.307,19.045Z" transform="translate(-1924.343 -4573.333)" fill="#d9a171"/>
        </g>
        <g id="Grupo_59005" data-name="Grupo 59005" transform="translate(43.135 7.093)">
          <g id="Grupo_59004" data-name="Grupo 59004">
            <path id="Trazado_102801" data-name="Trazado 102801" d="M2062.419,4579.677c0,.122-21.078.22-47.073.22s-47.078-.1-47.078-.22,21.074-.219,47.078-.219S2062.419,4579.556,2062.419,4579.677Z" transform="translate(-1968.267 -4579.458)" fill="#344154"/>
          </g>
        </g>
        <g id="Grupo_59007" data-name="Grupo 59007" transform="translate(43.135 13.385)">
          <g id="Grupo_59006" data-name="Grupo 59006">
            <path id="Trazado_102802" data-name="Trazado 102802" d="M2062.419,4587.125c0,.122-21.078.22-47.073.22s-47.078-.1-47.078-.22,21.074-.22,47.078-.22S2062.419,4587,2062.419,4587.125Z" transform="translate(-1968.267 -4586.905)" fill="#344154"/>
          </g>
        </g>
        <g id="Grupo_59009" data-name="Grupo 59009" transform="translate(43.135 19.678)">
          <g id="Grupo_59008" data-name="Grupo 59008">
            <path id="Trazado_102803" data-name="Trazado 102803" d="M2062.419,4594.572c0,.121-21.078.22-47.073.22s-47.078-.1-47.078-.22,21.074-.22,47.078-.22S2062.419,4594.451,2062.419,4594.572Z" transform="translate(-1968.267 -4594.352)" fill="#344154"/>
          </g>
        </g>
        <g id="Grupo_59011" data-name="Grupo 59011" transform="translate(43.135 25.971)">
          <g id="Grupo_59010" data-name="Grupo 59010">
            <path id="Trazado_102804" data-name="Trazado 102804" d="M2062.419,4602.02c0,.122-21.078.22-47.073.22s-47.078-.1-47.078-.22,21.074-.22,47.078-.22S2062.419,4601.9,2062.419,4602.02Z" transform="translate(-1968.267 -4601.8)" fill="#344154"/>
          </g>
        </g>
      </g>
      <g id="Grupo_59023" data-name="Grupo 59023" transform="translate(31.316 205.853)">
        <g id="Grupo_59013" data-name="Grupo 59013">
          <path id="Trazado_102805" data-name="Trazado 102805" d="M1947.5,4652.95h-30.282v-30.281H1947.5Zm-29.437-.845h28.592v-28.591h-28.592Z" transform="translate(-1917.216 -4622.669)" fill="#d9a171"/>
        </g>
        <g id="Grupo_59014" data-name="Grupo 59014" transform="translate(6.022 1.918)">
          <path id="Trazado_102806" data-name="Trazado 102806" d="M1924.343,4638.785l4.02-4.318,6.7,5.36,15.335-14.889,3.674,4.33-19.307,19.045Z" transform="translate(-1924.343 -4624.938)" fill="#d9a171"/>
        </g>
        <g id="Grupo_59016" data-name="Grupo 59016" transform="translate(43.135 7.092)">
          <g id="Grupo_59015" data-name="Grupo 59015">
            <path id="Trazado_102807" data-name="Trazado 102807" d="M2062.419,4631.284c0,.121-21.078.22-47.073.22s-47.078-.1-47.078-.22,21.074-.221,47.078-.221S2062.419,4631.162,2062.419,4631.284Z" transform="translate(-1968.267 -4631.063)" fill="#344154"/>
          </g>
        </g>
        <g id="Grupo_59018" data-name="Grupo 59018" transform="translate(43.135 13.385)">
          <g id="Grupo_59017" data-name="Grupo 59017">
            <path id="Trazado_102808" data-name="Trazado 102808" d="M2062.419,4638.73c0,.122-21.078.219-47.073.219s-47.078-.1-47.078-.219,21.074-.221,47.078-.221S2062.419,4638.609,2062.419,4638.73Z" transform="translate(-1968.267 -4638.51)" fill="#344154"/>
          </g>
        </g>
        <g id="Grupo_59020" data-name="Grupo 59020" transform="translate(43.135 19.678)">
          <g id="Grupo_59019" data-name="Grupo 59019">
            <path id="Trazado_102809" data-name="Trazado 102809" d="M2062.419,4646.178c0,.122-21.078.221-47.073.221s-47.078-.1-47.078-.221,21.074-.22,47.078-.22S2062.419,4646.056,2062.419,4646.178Z" transform="translate(-1968.267 -4645.958)" fill="#344154"/>
          </g>
        </g>
        <g id="Grupo_59022" data-name="Grupo 59022" transform="translate(43.135 25.97)">
          <g id="Grupo_59021" data-name="Grupo 59021">
            <path id="Trazado_102810" data-name="Trazado 102810" d="M2062.419,4653.625c0,.121-21.078.22-47.073.22s-47.078-.1-47.078-.22,21.074-.22,47.078-.22S2062.419,4653.5,2062.419,4653.625Z" transform="translate(-1968.267 -4653.405)" fill="#344154"/>
          </g>
        </g>
      </g>
      <g id="Grupo_59024" data-name="Grupo 59024" transform="translate(140.239 237.773)">
        <path id="Trazado_102811" data-name="Trazado 102811" d="M2065.834,4660.447l-19.706,40.811H2060.2Z" transform="translate(-2046.128 -4660.447)" fill="#e1e1e1"/>
      </g>
      <g id="Grupo_59028" data-name="Grupo 59028" transform="translate(154.308 237.733)">
        <g id="Grupo_59025" data-name="Grupo 59025" transform="translate(0.001 0.27)">
          <path id="Trazado_102812" data-name="Trazado 102812" d="M2062.78,4701.53l5.636-40.811,32.314,9.973Z" transform="translate(-2062.78 -4660.719)" fill="#fafafa"/>
        </g>
        <g id="Grupo_59027" data-name="Grupo 59027">
          <g id="Grupo_59026" data-name="Grupo 59026">
            <path id="Trazado_102813" data-name="Trazado 102813" d="M2062.78,4701.481l10.866-8.944,26.949-22.061.073.372L2088.19,4667c-6.994-2.164-13.7-4.239-19.836-6.135l.266-.17c-1.688,11.854-3.136,22.009-4.164,29.228-1.019,7.018-1.544,10.64-1.677,11.555a1.56,1.56,0,0,1,.018-.181l.072-.564c.069-.529.166-1.272.291-2.223.261-1.982.637-4.832,1.109-8.413l3.941-29.458.032-.242.234.072,19.844,6.11,12.473,3.854.386.12-.314.253-27.275,22-7.964,6.4-2.124,1.7-.544.433A2.218,2.218,0,0,1,2062.78,4701.481Z" transform="translate(-2062.779 -4660.4)" fill="#344154"/>
          </g>
        </g>
      </g>
      <g id="Grupo_59029" data-name="Grupo 59029" transform="translate(118.093 0)" opacity="0.3">
        <path id="Trazado_102814" data-name="Trazado 102814" d="M2022.253,4379.039l-2.336,13.6h2.909l2.353-13.6h-3.7" transform="translate(-2019.918 -4379.039)" fill="#d9a171"/>
      </g>
    </g>
    <g id="Grupo_59238" data-name="Grupo 59238" transform="translate(1819.723 4458.45)">
      <g id="Grupo_59045" data-name="Grupo 59045" transform="translate(20.685 6.79)">
        <g id="Grupo_59036" data-name="Grupo 59036" transform="translate(13.08 11.212)">
          <g id="Grupo_59035" data-name="Grupo 59035">
            <g id="Grupo_59034" data-name="Grupo 59034">
              <g id="Grupo_59033" data-name="Grupo 59033">
                <g id="Grupo_59032" data-name="Grupo 59032">
                  <g id="Grupo_59031" data-name="Grupo 59031">
                    <path id="Trazado_102815" data-name="Trazado 102815" d="M1874.672,4540.542h0a7.6,7.6,0,0,0,8.176-7.288c.16-4.138.3-8.32.3-8.32s6.27-.587,6.724-6.792.248-20.529.248-20.529h0a21.621,21.621,0,0,0-21.851,1.4l.386,21.837V4532.6C1868.694,4536.543,1870.743,4540.239,1874.672,4540.542Z" transform="translate(-1868.267 -4495.299)" fill="#ffbf9d"/>
                  </g>
                </g>
              </g>
            </g>
          </g>
        </g>
        <g id="Grupo_59037" data-name="Grupo 59037" transform="translate(9.857 6.009)">
          <path id="Trazado_102816" data-name="Trazado 102816" d="M1883.095,4509.611a3.18,3.18,0,0,0-4.24-.926,3.607,3.607,0,0,0-1.2,4.509,4.747,4.747,0,0,0,3.044,2.3,2.384,2.384,0,0,1,1.865,2.566,7.942,7.942,0,0,1-2.178,4.321,11.454,11.454,0,0,1-7.183,3.4c-2.642.313-5.669-.238-7.207-2.41-1.119-1.581-1.2-3.646-1.24-5.583q-.142-6.862-.284-13.725a19.663,19.663,0,0,1,.313-4.924,6.611,6.611,0,0,1,2.6-4.073c1.509-.993,3.421-1.078,5.141-1.633,2.149-.7,3.974-2.121,5.985-3.149s4.475-1.643,6.493-.63c1.449.728,2.421,2.173,3.829,2.974,2.007,1.142,4.738.882,5.712,3.832a5,5,0,0,1-.034,3.155c-1.36,4.014-6.332,5.633-9.913,3.9-.07.68.6,2.193-.117,4.341-.229.686-.31,1.733-1.383,1.752" transform="translate(-1864.453 -4489.141)" fill="#344154"/>
        </g>
        <g id="Grupo_59038" data-name="Grupo 59038" transform="translate(0.839)">
          <path id="Trazado_102817" data-name="Trazado 102817" d="M1864.317,4495.735a21.128,21.128,0,0,0,1.994-6.233,7.143,7.143,0,0,0-1.956-6.023,5.874,5.874,0,0,0-4.091-1.447,6.917,6.917,0,0,0-6.235,4.94,7.45,7.45,0,0,0,2.508,7.634,8.076,8.076,0,0,0,8.039,1.048" transform="translate(-1853.779 -4482.029)" fill="#344154"/>
        </g>
        <g id="Grupo_59040" data-name="Grupo 59040" transform="translate(9.655 11.443)">
          <g id="Grupo_59039" data-name="Grupo 59039">
            <path id="Trazado_102818" data-name="Trazado 102818" d="M1867.154,4495.573a3.056,3.056,0,0,1-2.94,2.872c-.03-.125.908-.375,1.718-1.182C1866.759,4496.473,1867.029,4495.54,1867.154,4495.573Z" transform="translate(-1864.213 -4495.572)" fill="#d9a171"/>
          </g>
        </g>
        <g id="Grupo_59042" data-name="Grupo 59042" transform="translate(3.49 7.317)">
          <g id="Grupo_59041" data-name="Grupo 59041">
            <path id="Trazado_102819" data-name="Trazado 102819" d="M1863.982,4496.332a5.832,5.832,0,0,1-1.685,1.233,4.868,4.868,0,0,1-2.221.628,3.09,3.09,0,0,1-2.59-1.162,3.449,3.449,0,0,1-.459-2.806,5.456,5.456,0,0,1,1.043-2.054,6.418,6.418,0,0,1,1.469-1.48,19.911,19.911,0,0,1-1.218,1.664,5.58,5.58,0,0,0-.9,1.958,3.133,3.133,0,0,0,.418,2.458,2.741,2.741,0,0,0,2.234,1.016,4.874,4.874,0,0,0,2.083-.5C1863.289,4496.739,1863.94,4496.267,1863.982,4496.332Z" transform="translate(-1856.917 -4490.689)" fill="#344154"/>
          </g>
        </g>
        <g id="Grupo_59044" data-name="Grupo 59044" transform="translate(0 13.688)">
          <g id="Grupo_59043" data-name="Grupo 59043">
            <path id="Trazado_102820" data-name="Trazado 102820" d="M1852.795,4504.509a2.723,2.723,0,0,1,.3.688,7.094,7.094,0,0,0,.914,1.768,2.564,2.564,0,0,0,2.43,1.118,3.334,3.334,0,0,0,2.338-2.355,24.267,24.267,0,0,0,.635-3.6,5.568,5.568,0,0,1,1.185-2.842,3.051,3.051,0,0,1,1.807-1.03,1.193,1.193,0,0,1,.76.064c0,.043-.275-.012-.727.1a3.074,3.074,0,0,0-1.6,1.064,5.488,5.488,0,0,0-1.021,2.706,21.55,21.55,0,0,1-.619,3.682,3.693,3.693,0,0,1-2.684,2.611,2.475,2.475,0,0,1-1.682-.325,3.5,3.5,0,0,1-1.069-1.006,6.094,6.094,0,0,1-.826-1.9A2.32,2.32,0,0,1,1852.795,4504.509Z" transform="translate(-1852.786 -4498.229)" fill="#344154"/>
          </g>
        </g>
      </g>
      <g id="Grupo_59046" data-name="Grupo 59046" transform="translate(16.238 78.886)">
        <path id="Trazado_102821" data-name="Trazado 102821" d="M1848.929,4567.355s-3.163,23.168,0,26.1,6.208,1.962,6.208,1.962l6.022-5.036,1.185-23.031Z" transform="translate(-1847.523 -4567.355)" fill="#ffbf9d"/>
      </g>
      <g id="Grupo_59049" data-name="Grupo 59049" transform="translate(67.712 0)">
        <g id="Grupo_59047" data-name="Grupo 59047" transform="translate(15.378)">
          <path id="Trazado_102822" data-name="Trazado 102822" d="M1926.643,4487.839l4.02-4.318,6.7,5.36,15.335-14.889,3.674,4.33-19.307,19.045Z" transform="translate(-1926.643 -4473.993)" fill="#d9a171"/>
        </g>
        <g id="Grupo_59048" data-name="Grupo 59048" transform="translate(0 15.022)">
          <path id="Trazado_102823" data-name="Trazado 102823" d="M1942.711,4491.772l-5.83,3.742c-.264-2.3-2.023-4.589-1.932-3.432s.011,7.164.011,7.164l-10.4,21.877a10.361,10.361,0,0,1-6.415,6.159l-9.705,2.885,3.794,12.831,13.489-4.472a11.632,11.632,0,0,0,7.392-7.414l9.3-28.325a43.927,43.927,0,0,0,1.5-5.581C1944.316,4494.844,1942.711,4491.772,1942.711,4491.772Z" transform="translate(-1908.443 -4491.771)" fill="#ffbf9d"/>
        </g>
      </g>
      <g id="Grupo_59121" data-name="Grupo 59121" transform="translate(41.85 247.8)">
        <g id="Grupo_59120" data-name="Grupo 59120">
          <g id="Grupo_59056" data-name="Grupo 59056" transform="translate(0.064)">
            <g id="Grupo_59052" data-name="Grupo 59052">
              <g id="Grupo_59051" data-name="Grupo 59051">
                <g id="Grupo_59050" data-name="Grupo 59050">
                  <path id="Trazado_102824" data-name="Trazado 102824" d="M1890.209,4773.755l-.145-6.487-12.153.194.111,9.493.755.036c3.356.133,17.075.438,19.307-.278C1900.572,4775.915,1890.209,4773.755,1890.209,4773.755Z" transform="translate(-1877.911 -4767.268)" fill="#d9a171"/>
                </g>
              </g>
            </g>
            <g id="Grupo_59055" data-name="Grupo 59055" transform="translate(0.069 6.099)" opacity="0.5">
              <g id="Grupo_59054" data-name="Grupo 59054">
                <g id="Grupo_59053" data-name="Grupo 59053">
                  <path id="Trazado_102825" data-name="Trazado 102825" d="M1882.44,4777.909a4.215,4.215,0,0,0-1.592-2.567,4.1,4.1,0,0,0-2.855-.838l.051,3.4Z" transform="translate(-1877.993 -4774.486)" fill="#fff"/>
                </g>
              </g>
            </g>
          </g>
          <g id="Grupo_59059" data-name="Grupo 59059" transform="translate(0.176 7.723)" opacity="0.4">
            <g id="Grupo_59058" data-name="Grupo 59058">
              <g id="Grupo_59057" data-name="Grupo 59057">
                <path id="Trazado_102826" data-name="Trazado 102826" d="M1895.3,4776.408s3.636.986,3.194,1.589-14.318.816-20.447.375l.015-.272,16.187-.111S1894.589,4776.449,1895.3,4776.408Z" transform="translate(-1878.043 -4776.408)" fill="#fff"/>
              </g>
            </g>
          </g>
          <g id="Grupo_59063" data-name="Grupo 59063" transform="translate(0 9.104)">
            <g id="Grupo_59062" data-name="Grupo 59062">
              <g id="Grupo_59061" data-name="Grupo 59061">
                <g id="Grupo_59060" data-name="Grupo 59060">
                  <path id="Trazado_102827" data-name="Trazado 102827" d="M1877.835,4778.35a1.087,1.087,0,0,0,.209.02l.6.027,2.21.061c1.867.039,4.447.057,7.3.016s5.428-.136,7.293-.229l2.207-.125.6-.045a.105.105,0,1,0,0-.03l-.6.017-2.209.079c-1.865.066-4.443.145-7.29.187s-5.426.039-7.292.027l-2.21-.014h-.6A1.11,1.11,0,0,0,1877.835,4778.35Z" transform="translate(-1877.835 -4778.042)" fill="#344154"/>
                </g>
              </g>
            </g>
          </g>
          <g id="Grupo_59067" data-name="Grupo 59067" transform="translate(16.354 7.572)">
            <g id="Grupo_59066" data-name="Grupo 59066">
              <g id="Grupo_59065" data-name="Grupo 59065">
                <g id="Grupo_59064" data-name="Grupo 59064">
                  <path id="Trazado_102828" data-name="Trazado 102828" d="M1897.214,4778.15a3.215,3.215,0,0,1,1.136-1.917,1.964,1.964,0,0,0-1.136,1.917Z" transform="translate(-1897.19 -4776.229)" fill="#344154"/>
                </g>
              </g>
            </g>
          </g>
          <g id="Grupo_59071" data-name="Grupo 59071" transform="translate(12.757 6.706)">
            <g id="Grupo_59070" data-name="Grupo 59070">
              <g id="Grupo_59069" data-name="Grupo 59069">
                <g id="Grupo_59068" data-name="Grupo 59068">
                  <path id="Trazado_102829" data-name="Trazado 102829" d="M1892.94,4776.228c.035.021.2-.19.376-.472s.285-.528.251-.549-.2.19-.376.473S1892.905,4776.207,1892.94,4776.228Z" transform="translate(-1892.934 -4775.205)" fill="#344154"/>
                </g>
              </g>
            </g>
          </g>
          <g id="Grupo_59075" data-name="Grupo 59075" transform="translate(11.769 6.527)">
            <g id="Grupo_59074" data-name="Grupo 59074">
              <g id="Grupo_59073" data-name="Grupo 59073">
                <g id="Grupo_59072" data-name="Grupo 59072">
                  <path id="Trazado_102830" data-name="Trazado 102830" d="M1891.766,4775.69c.028.03.218-.1.424-.292s.352-.371.324-.4-.217.1-.423.292S1891.739,4775.66,1891.766,4775.69Z" transform="translate(-1891.763 -4774.993)" fill="#344154"/>
                </g>
              </g>
            </g>
          </g>
          <g id="Grupo_59079" data-name="Grupo 59079" transform="translate(11.132 6.01)">
            <g id="Grupo_59078" data-name="Grupo 59078">
              <g id="Grupo_59077" data-name="Grupo 59077">
                <g id="Grupo_59076" data-name="Grupo 59076">
                  <path id="Trazado_102831" data-name="Trazado 102831" d="M1891.01,4774.457a2.736,2.736,0,0,0,1.27,0,1.416,1.416,0,0,0-.635-.071A1.436,1.436,0,0,0,1891.01,4774.457Z" transform="translate(-1891.01 -4774.381)" fill="#344154"/>
                </g>
              </g>
            </g>
          </g>
          <g id="Grupo_59083" data-name="Grupo 59083" transform="translate(10.906 5.268)">
            <g id="Grupo_59082" data-name="Grupo 59082">
              <g id="Grupo_59081" data-name="Grupo 59081">
                <g id="Grupo_59080" data-name="Grupo 59080">
                  <path id="Trazado_102832" data-name="Trazado 102832" d="M1890.743,4773.516a1.228,1.228,0,0,0,.711.2,1.243,1.243,0,0,0,.729-.109,3.822,3.822,0,0,0-.721-.038A3.9,3.9,0,0,0,1890.743,4773.516Z" transform="translate(-1890.743 -4773.503)" fill="#344154"/>
                </g>
              </g>
            </g>
          </g>
          <g id="Grupo_59087" data-name="Grupo 59087" transform="translate(13.16 5.546)">
            <g id="Grupo_59086" data-name="Grupo 59086">
              <g id="Grupo_59085" data-name="Grupo 59085">
                <g id="Grupo_59084" data-name="Grupo 59084">
                  <path id="Trazado_102833" data-name="Trazado 102833" d="M1893.41,4774.948a2.237,2.237,0,0,0,.781-.017,4.505,4.505,0,0,0,.829-.2,2.279,2.279,0,0,0,.473-.2.421.421,0,0,0,.189-.245.307.307,0,0,0-.123-.31,1.431,1.431,0,0,0-1.764.446,1.4,1.4,0,0,0-.247.525c-.03.134-.026.21-.017.211a2.169,2.169,0,0,1,.345-.671,1.41,1.41,0,0,1,.661-.443,1.209,1.209,0,0,1,.932.049c.125.089.079.236-.057.321a2.316,2.316,0,0,1-.436.194,5.416,5.416,0,0,1-.8.222C1893.707,4774.919,1893.409,4774.924,1893.41,4774.948Z" transform="translate(-1893.41 -4773.832)" fill="#344154"/>
                </g>
              </g>
            </g>
          </g>
          <g id="Grupo_59091" data-name="Grupo 59091" transform="translate(12.325 5.198)">
            <g id="Grupo_59090" data-name="Grupo 59090">
              <g id="Grupo_59089" data-name="Grupo 59089">
                <g id="Grupo_59088" data-name="Grupo 59088">
                  <path id="Trazado_102834" data-name="Trazado 102834" d="M1893.459,4774.919a.769.769,0,0,0,.082-.543,1.282,1.282,0,0,0-.222-.567.786.786,0,0,0-.656-.388.312.312,0,0,0-.235.365.856.856,0,0,0,.138.347,2.394,2.394,0,0,0,.377.467,1.135,1.135,0,0,0,.451.309c.014-.019-.157-.138-.377-.382a2.709,2.709,0,0,1-.334-.464c-.11-.163-.187-.458.008-.5.2-.022.4.169.52.324a1.281,1.281,0,0,1,.228.5A2.8,2.8,0,0,1,1893.459,4774.919Z" transform="translate(-1892.422 -4773.42)" fill="#344154"/>
                </g>
              </g>
            </g>
          </g>
          <g id="Grupo_59095" data-name="Grupo 59095" transform="translate(0.197 5.99)">
            <g id="Grupo_59094" data-name="Grupo 59094">
              <g id="Grupo_59093" data-name="Grupo 59093">
                <g id="Grupo_59092" data-name="Grupo 59092">
                  <path id="Trazado_102835" data-name="Trazado 102835" d="M1878.068,4774.449c0,.027.347-.039.9.018a3.807,3.807,0,0,1,3.222,2.488c.193.518.217.868.244.864a.7.7,0,0,0,0-.246,3.193,3.193,0,0,0-.143-.653,3.7,3.7,0,0,0-3.311-2.558,3.321,3.321,0,0,0-.668.027A.692.692,0,0,0,1878.068,4774.449Z" transform="translate(-1878.068 -4774.357)" fill="#344154"/>
                </g>
              </g>
            </g>
          </g>
          <g id="Grupo_59099" data-name="Grupo 59099" transform="translate(1.312 1.005)">
            <g id="Grupo_59098" data-name="Grupo 59098">
              <g id="Grupo_59097" data-name="Grupo 59097">
                <g id="Grupo_59096" data-name="Grupo 59096">
                  <path id="Trazado_102836" data-name="Trazado 102836" d="M1879.455,4768.457a42.5,42.5,0,0,0,.014,5,42.495,42.495,0,0,0-.014-5Z" transform="translate(-1879.388 -4768.457)" fill="#344154"/>
                </g>
              </g>
            </g>
          </g>
          <g id="Grupo_59103" data-name="Grupo 59103" transform="translate(6.092 8.277)">
            <g id="Grupo_59102" data-name="Grupo 59102">
              <g id="Grupo_59101" data-name="Grupo 59101">
                <g id="Grupo_59100" data-name="Grupo 59100">
                  <path id="Trazado_102837" data-name="Trazado 102837" d="M1885.045,4777.1a9.973,9.973,0,0,0,3.552-.021c-.005-.043-.8.018-1.776.022S1885.049,4777.058,1885.045,4777.1Z" transform="translate(-1885.045 -4777.064)" fill="#344154"/>
                </g>
              </g>
            </g>
          </g>
          <g id="Grupo_59107" data-name="Grupo 59107" transform="translate(3.705 8.341)">
            <g id="Grupo_59106" data-name="Grupo 59106">
              <g id="Grupo_59105" data-name="Grupo 59105">
                <g id="Grupo_59104" data-name="Grupo 59104">
                  <path id="Trazado_102838" data-name="Trazado 102838" d="M1882.225,4777.145c-.03.03.068.167.151.348s.13.341.172.338.059-.192-.039-.4S1882.25,4777.115,1882.225,4777.145Z" transform="translate(-1882.22 -4777.14)" fill="#344154"/>
                </g>
              </g>
            </g>
          </g>
          <g id="Grupo_59111" data-name="Grupo 59111" transform="translate(2.789 7.237)">
            <g id="Grupo_59110" data-name="Grupo 59110">
              <g id="Grupo_59109" data-name="Grupo 59109">
                <g id="Grupo_59108" data-name="Grupo 59108">
                  <path id="Trazado_102839" data-name="Trazado 102839" d="M1881.142,4775.839c-.029.029.052.155.179.28s.254.2.283.175-.052-.155-.179-.28S1881.171,4775.811,1881.142,4775.839Z" transform="translate(-1881.136 -4775.833)" fill="#344154"/>
                </g>
              </g>
            </g>
          </g>
          <g id="Grupo_59115" data-name="Grupo 59115" transform="translate(1.502 6.679)">
            <g id="Grupo_59114" data-name="Grupo 59114">
              <g id="Grupo_59113" data-name="Grupo 59113">
                <g id="Grupo_59112" data-name="Grupo 59112">
                  <path id="Trazado_102840" data-name="Trazado 102840" d="M1879.613,4775.246c.009.042.171.038.351.1s.309.154.341.125-.073-.194-.3-.265S1879.6,4775.208,1879.613,4775.246Z" transform="translate(-1879.612 -4775.173)" fill="#344154"/>
                </g>
              </g>
            </g>
          </g>
          <g id="Grupo_59119" data-name="Grupo 59119" transform="translate(0.583 6.496)">
            <g id="Grupo_59118" data-name="Grupo 59118">
              <g id="Grupo_59117" data-name="Grupo 59117">
                <g id="Grupo_59116" data-name="Grupo 59116">
                  <path id="Trazado_102841" data-name="Trazado 102841" d="M1878.527,4774.986c-.014.038.057.1.158.137s.2.037.21,0-.057-.1-.159-.138S1878.541,4774.947,1878.527,4774.986Z" transform="translate(-1878.525 -4774.957)" fill="#344154"/>
                </g>
              </g>
            </g>
          </g>
        </g>
      </g>
      <g id="Grupo_59193" data-name="Grupo 59193" transform="translate(0 239.421)">
        <g id="Grupo_59192" data-name="Grupo 59192">
          <g id="Grupo_59128" data-name="Grupo 59128">
            <g id="Grupo_59124" data-name="Grupo 59124">
              <g id="Grupo_59123" data-name="Grupo 59123">
                <g id="Grupo_59122" data-name="Grupo 59122">
                  <path id="Trazado_102842" data-name="Trazado 102842" d="M1839.63,4770.143l4.121-5.012-9.34-7.779-6.106,7.27.548.519c2.458,2.29,12.659,11.469,14.817,12.382C1846.077,4778.539,1839.63,4770.143,1839.63,4770.143Z" transform="translate(-1828.305 -4757.351)" fill="#d9a171"/>
                </g>
              </g>
            </g>
            <g id="Grupo_59127" data-name="Grupo 59127" transform="translate(0.121 4.536)" opacity="0.5">
              <g id="Grupo_59126" data-name="Grupo 59126">
                <g id="Grupo_59125" data-name="Grupo 59125">
                  <path id="Trazado_102843" data-name="Trazado 102843" d="M1831.775,4768.2a4.219,4.219,0,0,0,.467-2.984,4.1,4.1,0,0,0-1.618-2.5l-2.176,2.608Z" transform="translate(-1828.448 -4762.719)" fill="#fff"/>
                </g>
              </g>
            </g>
          </g>
          <g id="Grupo_59131" data-name="Grupo 59131" transform="translate(0 7.073)" opacity="0.4">
            <g id="Grupo_59130" data-name="Grupo 59130">
              <g id="Grupo_59129" data-name="Grupo 59129">
                <path id="Trazado_102844" data-name="Trazado 102844" d="M1842.666,4775.681s2.112,3.119,1.384,3.288-11.386-8.719-15.745-13.05l.189-.2,12.343,10.473S1842.1,4775.251,1842.666,4775.681Z" transform="translate(-1828.305 -4765.722)" fill="#fff"/>
              </g>
            </g>
          </g>
          <g id="Grupo_59135" data-name="Grupo 59135" transform="translate(0.047 6.945)">
            <g id="Grupo_59134" data-name="Grupo 59134">
              <g id="Grupo_59133" data-name="Grupo 59133">
                <g id="Grupo_59132" data-name="Grupo 59132">
                  <path id="Trazado_102845" data-name="Trazado 102845" d="M1828.361,4765.571a1.125,1.125,0,0,0,.146.151l.438.412,1.636,1.488c1.39,1.246,3.333,2.943,5.519,4.77s4.2,3.437,5.678,4.582q1.038.795,1.755,1.345l.484.357a1.4,1.4,0,0,0,.174.117,1,1,0,0,0-.156-.141l-.466-.379c-.469-.375-1.045-.837-1.726-1.38-1.457-1.167-3.461-2.789-5.648-4.614s-4.138-3.509-5.545-4.735l-1.666-1.452-.456-.391A1.1,1.1,0,0,0,1828.361,4765.571Z" transform="translate(-1828.361 -4765.57)" fill="#344154"/>
                </g>
              </g>
            </g>
          </g>
          <g id="Grupo_59139" data-name="Grupo 59139" transform="translate(12.406 16.89)">
            <g id="Grupo_59138" data-name="Grupo 59138">
              <g id="Grupo_59137" data-name="Grupo 59137">
                <g id="Grupo_59136" data-name="Grupo 59136">
                  <path id="Trazado_102846" data-name="Trazado 102846" d="M1842.99,4778.14a3.217,3.217,0,0,1,2.112-.713,1.967,1.967,0,0,0-2.112.713Z" transform="translate(-1842.988 -4777.34)" fill="#344154"/>
                </g>
              </g>
            </g>
          </g>
          <g id="Grupo_59143" data-name="Grupo 59143" transform="translate(10.82 13.616)">
            <g id="Grupo_59142" data-name="Grupo 59142">
              <g id="Grupo_59141" data-name="Grupo 59141">
                <g id="Grupo_59140" data-name="Grupo 59140">
                  <path id="Trazado_102847" data-name="Trazado 102847" d="M1841.111,4773.844a1.278,1.278,0,0,0,.592-.112c.315-.1.561-.215.548-.253a1.288,1.288,0,0,0-.593.113C1841.343,4773.692,1841.1,4773.806,1841.111,4773.844Z" transform="translate(-1841.11 -4773.466)" fill="#344154"/>
                </g>
              </g>
            </g>
          </g>
          <g id="Grupo_59147" data-name="Grupo 59147" transform="translate(10.397 12.87)">
            <g id="Grupo_59146" data-name="Grupo 59146">
              <g id="Grupo_59145" data-name="Grupo 59145">
                <g id="Grupo_59144" data-name="Grupo 59144">
                  <path id="Trazado_102848" data-name="Trazado 102848" d="M1840.61,4772.678c0,.041.232.065.513.055s.508-.051.506-.092-.231-.065-.512-.055S1840.609,4772.637,1840.61,4772.678Z" transform="translate(-1840.61 -4772.583)" fill="#344154"/>
                </g>
              </g>
            </g>
          </g>
          <g id="Grupo_59151" data-name="Grupo 59151" transform="translate(10.652 11.681)">
            <g id="Grupo_59150" data-name="Grupo 59150">
              <g id="Grupo_59149" data-name="Grupo 59149">
                <g id="Grupo_59148" data-name="Grupo 59148">
                  <path id="Trazado_102849" data-name="Trazado 102849" d="M1840.915,4771.18c-.027.031.168.241.435.468s.5.387.531.356-.168-.24-.435-.468S1840.941,4771.149,1840.915,4771.18Z" transform="translate(-1840.912 -4771.176)" fill="#344154"/>
                </g>
              </g>
            </g>
          </g>
          <g id="Grupo_59155" data-name="Grupo 59155" transform="translate(11.004 10.926)">
            <g id="Grupo_59154" data-name="Grupo 59154">
              <g id="Grupo_59153" data-name="Grupo 59153">
                <g id="Grupo_59152" data-name="Grupo 59152">
                  <path id="Trazado_102850" data-name="Trazado 102850" d="M1841.333,4770.284a1.786,1.786,0,0,0,1.035,1c.021-.036-.241-.224-.521-.5S1841.369,4770.261,1841.333,4770.284Z" transform="translate(-1841.328 -4770.282)" fill="#344154"/>
                </g>
              </g>
            </g>
          </g>
          <g id="Grupo_59159" data-name="Grupo 59159" transform="translate(11.769 13.26)">
            <g id="Grupo_59158" data-name="Grupo 59158">
              <g id="Grupo_59157" data-name="Grupo 59157">
                <g id="Grupo_59156" data-name="Grupo 59156">
                  <path id="Trazado_102851" data-name="Trazado 102851" d="M1842.281,4773.229a2.277,2.277,0,0,0,.6.5,4.608,4.608,0,0,0,.755.391,2.333,2.333,0,0,0,.492.155.426.426,0,0,0,.3-.063.308.308,0,0,0,.109-.316,1.432,1.432,0,0,0-1.628-.812,1.4,1.4,0,0,0-.53.237c-.109.083-.156.143-.15.148a2.247,2.247,0,0,1,.7-.283,1.411,1.411,0,0,1,.79.094,1.209,1.209,0,0,1,.674.645c.037.151-.094.231-.253.207a2.338,2.338,0,0,1-.457-.137,5.4,5.4,0,0,1-.752-.354C1842.525,4773.4,1842.3,4773.211,1842.281,4773.229Z" transform="translate(-1842.234 -4773.045)" fill="#344154"/>
                </g>
              </g>
            </g>
          </g>
          <g id="Grupo_59163" data-name="Grupo 59163" transform="translate(11.753 11.909)">
            <g id="Grupo_59162" data-name="Grupo 59162">
              <g id="Grupo_59161" data-name="Grupo 59161">
                <g id="Grupo_59160" data-name="Grupo 59160">
                  <path id="Trazado_102852" data-name="Trazado 102852" d="M1842.408,4773.141c0,.013.219-.066.417-.359a1.288,1.288,0,0,0,.2-.574.784.784,0,0,0-.244-.723.311.311,0,0,0-.416.123.85.85,0,0,0-.122.353,2.371,2.371,0,0,0-.019.6,1.116,1.116,0,0,0,.141.529c.022-.006-.03-.207-.037-.535a2.739,2.739,0,0,1,.049-.569c.024-.195.157-.47.33-.372a.7.7,0,0,1,.182.584,1.271,1.271,0,0,1-.155.531A3.038,3.038,0,0,1,1842.408,4773.141Z" transform="translate(-1842.214 -4771.445)" fill="#344154"/>
                </g>
              </g>
            </g>
          </g>
          <g id="Grupo_59167" data-name="Grupo 59167" transform="translate(2.367 4.549)">
            <g id="Grupo_59166" data-name="Grupo 59166">
              <g id="Grupo_59165" data-name="Grupo 59165">
                <g id="Grupo_59164" data-name="Grupo 59164">
                  <path id="Trazado_102853" data-name="Trazado 102853" d="M1831.107,4762.736c-.015.023.289.2.669.6a3.806,3.806,0,0,1,.82,3.988c-.191.519-.4.8-.378.813.008.006.067-.058.158-.188a3.245,3.245,0,0,0,.318-.588,3.7,3.7,0,0,0-.842-4.1,3.186,3.186,0,0,0-.525-.416A.69.69,0,0,0,1831.107,4762.736Z" transform="translate(-1831.106 -4762.735)" fill="#344154"/>
                </g>
              </g>
            </g>
          </g>
          <g id="Grupo_59171" data-name="Grupo 59171" transform="translate(3.326 1.472)">
            <g id="Grupo_59170" data-name="Grupo 59170">
              <g id="Grupo_59169" data-name="Grupo 59169">
                <g id="Grupo_59168" data-name="Grupo 59168">
                  <path id="Trazado_102854" data-name="Trazado 102854" d="M1835.49,4759.094a20.987,20.987,0,0,0-1.68,1.85,21.5,21.5,0,0,0-1.568,1.945,42.282,42.282,0,0,0,3.248-3.795Z" transform="translate(-1832.241 -4759.094)" fill="#344154"/>
                </g>
              </g>
            </g>
          </g>
          <g id="Grupo_59175" data-name="Grupo 59175" transform="translate(5.38 10.085)">
            <g id="Grupo_59174" data-name="Grupo 59174">
              <g id="Grupo_59173" data-name="Grupo 59173">
                <g id="Grupo_59172" data-name="Grupo 59172">
                  <path id="Trazado_102855" data-name="Trazado 102855" d="M1834.674,4769.288a9.965,9.965,0,0,0,2.706,2.3c.024-.036-.617-.506-1.361-1.142S1834.7,4769.258,1834.674,4769.288Z" transform="translate(-1834.673 -4769.287)" fill="#344154"/>
                </g>
              </g>
            </g>
          </g>
          <g id="Grupo_59179" data-name="Grupo 59179" transform="translate(3.343 8.557)">
            <g id="Grupo_59178" data-name="Grupo 59178">
              <g id="Grupo_59177" data-name="Grupo 59177">
                <g id="Grupo_59176" data-name="Grupo 59176">
                  <path id="Trazado_102856" data-name="Trazado 102856" d="M1832.472,4767.479c-.041,0-.057.171-.112.363s-.123.343-.09.369.172-.108.232-.33S1832.511,4767.473,1832.472,4767.479Z" transform="translate(-1832.262 -4767.479)" fill="#344154"/>
                </g>
              </g>
            </g>
          </g>
          <g id="Grupo_59183" data-name="Grupo 59183" transform="translate(3.529 7.125)">
            <g id="Grupo_59182" data-name="Grupo 59182">
              <g id="Grupo_59181" data-name="Grupo 59181">
                <g id="Grupo_59180" data-name="Grupo 59180">
                  <path id="Trazado_102857" data-name="Trazado 102857" d="M1832.533,4765.783c-.041,0-.062.151-.046.329s.06.32.1.317.062-.151.047-.329S1832.573,4765.779,1832.533,4765.783Z" transform="translate(-1832.481 -4765.783)" fill="#344154"/>
                </g>
              </g>
            </g>
          </g>
          <g id="Grupo_59187" data-name="Grupo 59187" transform="translate(2.918 5.9)">
            <g id="Grupo_59186" data-name="Grupo 59186">
              <g id="Grupo_59185" data-name="Grupo 59185">
                <g id="Grupo_59184" data-name="Grupo 59184">
                  <path id="Trazado_102858" data-name="Trazado 102858" d="M1831.761,4764.343c-.019.037.106.139.2.3s.135.318.177.317.071-.194-.052-.394S1831.776,4764.307,1831.761,4764.343Z" transform="translate(-1831.759 -4764.333)" fill="#344154"/>
                </g>
              </g>
            </g>
          </g>
          <g id="Grupo_59191" data-name="Grupo 59191" transform="translate(2.353 5.135)">
            <g id="Grupo_59190" data-name="Grupo 59190">
              <g id="Grupo_59189" data-name="Grupo 59189">
                <g id="Grupo_59188" data-name="Grupo 59188">
                  <path id="Trazado_102859" data-name="Trazado 102859" d="M1831.109,4763.433c-.036.02-.022.112.03.207s.123.155.159.136.022-.112-.03-.207S1831.145,4763.413,1831.109,4763.433Z" transform="translate(-1831.09 -4763.429)" fill="#344154"/>
                </g>
              </g>
            </g>
          </g>
        </g>
      </g>
      <g id="Grupo_59206" data-name="Grupo 59206" transform="translate(1.023 109.465)">
        <g id="Grupo_59194" data-name="Grupo 59194" transform="translate(0 6.222)">
          <path id="Trazado_102860" data-name="Trazado 102860" d="M1865.11,4611.669s-4.046,17.121-2.9,20.508,8.558,5.345,8.558,5.345l-.251,46.883-41,50.679,15.141,12.387s44.385-50.774,48.3-59.968-2.494-76.593-2.494-76.593Z" transform="translate(-1829.516 -4610.91)" fill="#344154"/>
        </g>
        <g id="Grupo_59195" data-name="Grupo 59195" transform="translate(22.28)">
          <path id="Trazado_102861" data-name="Trazado 102861" d="M1890.14,4603.546l2.007,142.4-20.858.105-10.467-115.972h0c-2.213-2.113-5.325-5.729-4.9-13.8l.509-9.372Z" transform="translate(-1855.885 -4603.546)" fill="#344154"/>
        </g>
        <g id="Grupo_59197" data-name="Grupo 59197" transform="translate(34.542 28.819)">
          <g id="Grupo_59196" data-name="Grupo 59196">
            <path id="Trazado_102862" data-name="Trazado 102862" d="M1870.4,4696.479a.82.82,0,0,1,.12-.211l.4-.584,1.55-2.193,5.659-7.833-.035.107c-.454-4.941-1-10.936-1.6-17.4-.756-8.469-1.37-16.143-1.731-21.7-.184-2.78-.306-5.032-.372-6.588-.025-.745-.046-1.34-.061-1.793a.314.314,0,1,1,.088,0c.036.452.084,1.046.145,1.788.124,1.6.3,3.836.511,6.577.44,5.552,1.1,13.219,1.859,21.687.569,6.485,1.148,12.469,1.523,17.436l0,.055-.04.052-5.783,7.742-1.63,2.135-.439.552C1870.461,4696.424,1870.405,4696.484,1870.4,4696.479Z" transform="translate(-1870.397 -4637.654)" fill="#5e6178"/>
          </g>
        </g>
        <g id="Grupo_59199" data-name="Grupo 59199" transform="translate(30.036 26.511)">
          <g id="Grupo_59198" data-name="Grupo 59198">
            <path id="Trazado_102863" data-name="Trazado 102863" d="M1875.973,4637.23a47.119,47.119,0,0,1-10.909-2.292,142.848,142.848,0,0,1,10.909,2.292Z" transform="translate(-1865.064 -4634.921)" fill="#5e6178"/>
          </g>
        </g>
        <g id="Grupo_59201" data-name="Grupo 59201" transform="translate(43.804 75.491)">
          <g id="Grupo_59200" data-name="Grupo 59200">
            <path id="Trazado_102864" data-name="Trazado 102864" d="M1892.786,4694.835a16.645,16.645,0,0,0-11.427-.905,4.754,4.754,0,0,1,1.626-.637,12.812,12.812,0,0,1,8.3.658A4.766,4.766,0,0,1,1892.786,4694.835Z" transform="translate(-1881.359 -4692.891)" fill="#5e6178"/>
          </g>
        </g>
        <g id="Grupo_59203" data-name="Grupo 59203" transform="translate(36.03 84.034)">
          <g id="Grupo_59202" data-name="Grupo 59202">
            <path id="Trazado_102865" data-name="Trazado 102865" d="M1898.716,4703c.1.073-5.771,7.948-13.1,17.586s-13.358,17.4-13.454,17.322,5.769-7.946,13.1-17.588S1898.619,4702.929,1898.716,4703Z" transform="translate(-1872.158 -4703.001)" fill="#5e6178"/>
          </g>
        </g>
        <g id="Grupo_59205" data-name="Grupo 59205" transform="translate(49.256 9.47)">
          <g id="Grupo_59204" data-name="Grupo 59204">
            <path id="Trazado_102866" data-name="Trazado 102866" d="M1898.318,4615.862a3.5,3.5,0,0,1-1.174,1.549,5.81,5.81,0,0,1-8.5-.9,3.5,3.5,0,0,1-.825-1.76,18.224,18.224,0,0,0,1.066,1.563,5.792,5.792,0,0,0,8.064.851A18.365,18.365,0,0,0,1898.318,4615.862Z" transform="translate(-1887.811 -4614.753)" fill="#5e6178"/>
          </g>
        </g>
      </g>
      <g id="Grupo_59207" data-name="Grupo 59207" transform="translate(26.623 21.41)">
        <path id="Trazado_102867" data-name="Trazado 102867" d="M1865.478,4524.7a18.189,18.189,0,0,1-.987-25.368" transform="translate(-1859.813 -4499.332)" fill="#344154"/>
      </g>
      <g id="Grupo_59237" data-name="Grupo 59237" transform="translate(15.102 50.438)">
        <g id="Grupo_59218" data-name="Grupo 59218">
          <g id="Grupo_59208" data-name="Grupo 59208" transform="translate(0 9.623)">
            <path id="Trazado_102868" data-name="Trazado 102868" d="M1851.649,4545.076s-4.531,5.117-5.47,24.7c0,0,12.9,2.448,13.141,1.744S1851.649,4545.076,1851.649,4545.076Z" transform="translate(-1846.179 -4545.076)" fill="#d9a171"/>
          </g>
          <g id="Grupo_59209" data-name="Grupo 59209" transform="translate(0 9.623)" opacity="0.3">
            <path id="Trazado_102869" data-name="Trazado 102869" d="M1851.649,4545.076s-4.531,5.117-5.47,24.7c0,0,12.9,2.448,13.141,1.744S1851.649,4545.076,1851.649,4545.076Z" transform="translate(-1846.179 -4545.076)" fill="#d9a171"/>
          </g>
          <g id="Grupo_59215" data-name="Grupo 59215" transform="translate(4.053)">
            <g id="Grupo_59214" data-name="Grupo 59214">
              <g id="Grupo_59213" data-name="Grupo 59213">
                <g id="Grupo_59210" data-name="Grupo 59210" transform="translate(5.066 34.321)">
                  <path id="Trazado_102870" data-name="Trazado 102870" d="M1856.971,4574.306" transform="translate(-1856.971 -4574.306)" fill="#5e6178"/>
                </g>
                <g id="Grupo_59211" data-name="Grupo 59211">
                  <path id="Trazado_102871" data-name="Trazado 102871" d="M1854.483,4600.33H1894.1l-.64-6.188s-4.527-23.546-4.494-23.856l.713-1.5a14.935,14.935,0,0,0,.174-12.459h0l19.4-6.634-4.749-16.006c-8.8,1.486-22.109,3.144-22.109,3.144l-1.981.167s-13.735.716-14.029.751c-5.746.694-12.432,1.135-14.875,7.285-1.306,3.289-.065,8.225,2.068,13.313l5.079,15.629c2.028,8.59-1.208,8.183-2.984,16.829C1855.4,4592.111,1854.457,4599.13,1854.483,4600.33Z" transform="translate(-1850.975 -4533.687)" fill="#d9a171"/>
                </g>
                <g id="Grupo_59212" data-name="Grupo 59212" opacity="0.3">
                  <path id="Trazado_102872" data-name="Trazado 102872" d="M1854.483,4600.33H1894.1l-.64-6.188s-4.527-23.546-4.494-23.856l.713-1.5a14.935,14.935,0,0,0,.174-12.459h0l19.4-6.634-4.749-16.006c-8.8,1.486-22.109,3.144-22.109,3.144l-1.981.167s-13.735.716-14.029.751c-5.746.694-12.432,1.135-14.875,7.285-1.306,3.289-.065,8.225,2.068,13.313l5.079,15.629c2.028,8.59-1.208,8.183-2.984,16.829C1855.4,4592.111,1854.457,4599.13,1854.483,4600.33Z" transform="translate(-1850.975 -4533.687)" fill="#d9a171"/>
                </g>
              </g>
            </g>
          </g>
          <g id="Grupo_59217" data-name="Grupo 59217" transform="translate(39.877 16.26)">
            <g id="Grupo_59216" data-name="Grupo 59216">
              <path id="Trazado_102873" data-name="Trazado 102873" d="M1915.646,4552.937a3.821,3.821,0,0,1-.861.362c-.563.206-1.381.49-2.4.831-2.029.686-4.845,1.593-7.954,2.587s-5.89,1.983-7.864,2.8c-.99.4-1.778.756-2.328.991a3.783,3.783,0,0,1-.868.341,3.874,3.874,0,0,1,.792-.495c.529-.283,1.3-.685,2.281-1.123a74.963,74.963,0,0,1,7.851-2.931c3.114-1,5.942-1.856,8-2.465,1.027-.3,1.86-.542,2.438-.7A3.819,3.819,0,0,1,1915.646,4552.937Z" transform="translate(-1893.374 -4552.931)" fill="#344154"/>
            </g>
          </g>
        </g>
        <g id="Grupo_59220" data-name="Grupo 59220" transform="translate(7.525 7.524)">
          <g id="Grupo_59219" data-name="Grupo 59219">
            <path id="Trazado_102874" data-name="Trazado 102874" d="M1907.406,4542.812c0,.122-11.714.22-26.159.22s-26.162-.1-26.162-.22,11.711-.22,26.162-.22S1907.406,4542.69,1907.406,4542.812Z" transform="translate(-1855.085 -4542.592)" fill="#fafafa"/>
          </g>
        </g>
        <g id="Grupo_59222" data-name="Grupo 59222" transform="translate(2.83 15.305)">
          <g id="Grupo_59221" data-name="Grupo 59221">
            <path id="Trazado_102875" data-name="Trazado 102875" d="M1907.752,4552.021c0,.122-13.035.22-29.111.22s-29.114-.1-29.114-.22,13.032-.22,29.114-.22S1907.752,4551.9,1907.752,4552.021Z" transform="translate(-1849.528 -4551.801)" fill="#fafafa"/>
          </g>
        </g>
        <g id="Grupo_59224" data-name="Grupo 59224" transform="translate(1.22 24.159)">
          <g id="Grupo_59223" data-name="Grupo 59223">
            <path id="Trazado_102876" data-name="Trazado 102876" d="M1852.475,4562.5a13.5,13.5,0,1,1-2.426-.22A6.851,6.851,0,0,1,1852.475,4562.5Z" transform="translate(-1847.623 -4562.28)" fill="#fafafa"/>
          </g>
        </g>
        <g id="Grupo_59226" data-name="Grupo 59226" transform="translate(6.072 24.427)">
          <g id="Grupo_59225" data-name="Grupo 59225">
            <path id="Trazado_102877" data-name="Trazado 102877" d="M1891.443,4562.817c0,.121-8.525.22-19.038.22s-19.04-.1-19.04-.22,8.523-.22,19.04-.22S1891.443,4562.7,1891.443,4562.817Z" transform="translate(-1853.365 -4562.597)" fill="#fafafa"/>
          </g>
        </g>
        <g id="Grupo_59228" data-name="Grupo 59228" transform="translate(9.136 33.55)">
          <g id="Grupo_59227" data-name="Grupo 59227">
            <path id="Trazado_102878" data-name="Trazado 102878" d="M1891.166,4573.613c0,.122-7.651.221-17.087.221s-17.088-.1-17.088-.221,7.649-.219,17.088-.219S1891.166,4573.493,1891.166,4573.613Z" transform="translate(-1856.991 -4573.394)" fill="#fafafa"/>
          </g>
        </g>
        <g id="Grupo_59230" data-name="Grupo 59230" transform="translate(12.087 42.002)">
          <g id="Grupo_59229" data-name="Grupo 59229">
            <path id="Trazado_102879" data-name="Trazado 102879" d="M1891.46,4583.617c0,.122-6.935.221-15.488.221s-15.489-.1-15.489-.221,6.933-.22,15.489-.22S1891.46,4583.5,1891.46,4583.617Z" transform="translate(-1860.484 -4583.397)" fill="#fafafa"/>
          </g>
        </g>
        <g id="Grupo_59232" data-name="Grupo 59232" transform="translate(11.282 48.844)">
          <g id="Grupo_59231" data-name="Grupo 59231">
            <path id="Trazado_102880" data-name="Trazado 102880" d="M1892.668,4591.714c0,.122-7.419.22-16.568.22s-16.569-.1-16.569-.22,7.417-.22,16.569-.22S1892.668,4591.593,1892.668,4591.714Z" transform="translate(-1859.531 -4591.494)" fill="#fafafa"/>
          </g>
        </g>
        <g id="Grupo_59234" data-name="Grupo 59234" transform="translate(8.867 57.564)">
          <g id="Grupo_59233" data-name="Grupo 59233">
            <path id="Trazado_102881" data-name="Trazado 102881" d="M1894.371,4602.035c0,.121-8.439.22-18.848.22s-18.85-.1-18.85-.22,8.438-.22,18.85-.22S1894.371,4601.913,1894.371,4602.035Z" transform="translate(-1856.673 -4601.815)" fill="#fafafa"/>
          </g>
        </g>
        <g id="Grupo_59236" data-name="Grupo 59236" transform="translate(4.49 19.097)">
          <g id="Grupo_59235" data-name="Grupo 59235">
            <path id="Trazado_102882" data-name="Trazado 102882" d="M1858.5,4576.749a3.206,3.206,0,0,1-.35-.778q-.348-.905-.833-2.163c-.7-1.828-1.679-4.346-2.7-7.155s-1.867-5.385-2.4-7.271c-.265-.945-.464-1.713-.577-2.25a3.169,3.169,0,0,1-.138-.843,31.093,31.093,0,0,1,1.013,3c.607,1.858,1.492,4.408,2.516,7.212s1.955,5.342,2.578,7.2c.314.929.552,1.685.7,2.213A3.236,3.236,0,0,1,1858.5,4576.749Z" transform="translate(-1851.493 -4556.289)" fill="#344154"/>
          </g>
        </g>
      </g>
    </g>
  </g>
</svg>
