<svg xmlns="http://www.w3.org/2000/svg" width="364" height="270.823" viewBox="0 0 364 270.823">
  <g id="Grupo_59429" data-name="Grupo 59429" transform="translate(-169.245 -1769.335)">
    <g id="freepik--background-complete--inject-493" transform="translate(169.245 1769.335)">
      <rect id="Rectángulo_5638" data-name="Rectángulo 5638" width="24.111" height="0.182" transform="translate(303.416 250.061)" fill="#ebebeb"/>
      <rect id="Rectángulo_5639" data-name="Rectángulo 5639" width="6.326" height="0.182" transform="translate(234.802 252.041)" fill="#ebebeb"/>
      <rect id="Rectángulo_5640" data-name="Rectángulo 5640" width="13.97" height="0.182" transform="translate(288.718 243.305)" fill="#ebebeb"/>
      <rect id="Rectángulo_5641" data-name="Rectángulo 5641" width="31.442" height="0.182" transform="translate(38.191 244.528)" fill="#ebebeb"/>
      <rect id="Rectángulo_5642" data-name="Rectángulo 5642" width="4.608" height="0.182" transform="translate(76.12 244.528)" fill="#ebebeb"/>
      <rect id="Rectángulo_5643" data-name="Rectángulo 5643" width="68.199" height="0.182" transform="translate(95.71 247.6)" fill="#ebebeb"/>
      <rect id="Rectángulo_5644" data-name="Rectángulo 5644" width="364" height="0.182" transform="translate(0 238.347)" fill="#ebebeb"/>
      <path id="Trazado_103769" data-name="Trazado 103769" d="M352.174,1975.214H211.6a4.158,4.158,0,0,1-4.15-4.157v-197.6a4.157,4.157,0,0,1,4.15-4.121h140.57a4.156,4.156,0,0,1,4.157,4.157h0v197.565A4.157,4.157,0,0,1,352.174,1975.214ZM211.6,1769.481a3.975,3.975,0,0,0-3.968,3.975v197.6a3.976,3.976,0,0,0,3.968,3.975H354.358c2.184,0,1.784-1.784,1.784-3.975v-197.6a3.981,3.981,0,0,0-3.968-3.975Z" transform="translate(-179.638 -1769.335)" fill="#ebebeb"/>
      <path id="Trazado_103770" data-name="Trazado 103770" d="M568.479,1975.214H427.9a4.165,4.165,0,0,1-4.157-4.157v-197.6a4.164,4.164,0,0,1,4.157-4.121H568.479a4.156,4.156,0,0,1,4.142,4.121v197.6A4.157,4.157,0,0,1,568.479,1975.214ZM427.9,1769.481a3.982,3.982,0,0,0-3.975,3.975v197.6a3.983,3.983,0,0,0,3.975,3.975H568.479a3.982,3.982,0,0,0,3.975-3.975v-197.6a3.981,3.981,0,0,0-3.975-3.975Z" transform="translate(-238.469 -1769.335)" fill="#ebebeb"/>
      <g id="freepik--freepik--Checklist--inject-38--inject-493" transform="translate(37.514 4.259)">
        <path id="Trazado_103771" data-name="Trazado 103771" d="M226.715,1980.407H367.467l9.26-191.683H240.955Z" transform="translate(-222.391 -1778.868)" opacity="0.2" style="isolation: isolate"/>
        <path id="Trazado_103772" data-name="Trazado 103772" d="M220.775,1980.407H364.541l9.267-191.683H239.339Z" transform="translate(-220.775 -1778.868)" fill="#aed3f2"/>
        <path id="Trazado_103773" data-name="Trazado 103773" d="M229.155,1979.252H360.792l8.86-181.68-124.335-.007Z" transform="translate(-223.055 -1781.272)" opacity="0.1" style="isolation: isolate"/>
        <path id="Trazado_103774" data-name="Trazado 103774" d="M369.595,1797.565a1439.405,1439.405,0,0,1-15.739,178.819H258.96c-10.483-.313-30.015-.764-30.015-.764s14.96-125.173,16.314-178.055Z" transform="translate(-222.997 -1781.272)" fill="#fafafa"/>
        <path id="Trazado_103775" data-name="Trazado 103775" d="M371.784,1816.955h0q-.415,11.75-1.019,23.493h23.5q.611-11.75,1.019-23.493Zm20.537,21.447h-19.4q.5-9.712.844-19.4h19.4Q392.81,1828.7,392.321,1838.4Z" transform="translate(-261.572 -1786.546)" fill="#aed3f2"/>
        <path id="Trazado_103776" data-name="Trazado 103776" d="M366.394,1869.185h0q-.407,11.75-1.019,23.5h23.493q.611-11.758,1.026-23.5Zm20.537,21.454h-19.4q.48-9.7.845-19.409h19.4q-.364,9.711-.844,19.409Z" transform="translate(-260.106 -1800.753)" fill="#aed3f2"/>
        <path id="Trazado_103777" data-name="Trazado 103777" d="M361.734,1919.675h0q-.407,11.742-1.019,23.492h23.507q.6-11.75,1.019-23.492Zm20.537,21.447h-19.4q.481-9.712.845-19.4h19.4q-.356,9.689-.844,19.4Z" transform="translate(-258.839 -1814.486)" fill="#aed3f2"/>
        <path id="Trazado_103778" data-name="Trazado 103778" d="M354.584,1973.445h0q-.407,11.75-1.019,23.5h23.5q.6-11.758,1.019-23.5Zm20.537,21.454h-19.4q.48-9.7.845-19.408h19.4Q375.6,1985.188,375.121,1994.9Z" transform="translate(-256.894 -1829.111)" fill="#aed3f2"/>
        <path id="Trazado_103779" data-name="Trazado 103779" d="M263.91,1835.925h66.445q-.08,2.184-.167,4.368H263.735Z" transform="translate(-232.46 -1791.706)" fill="#e6e6e6"/>
        <path id="Trazado_103780" data-name="Trazado 103780" d="M284.656,1826.335h51.987c-.058,1.456-.131,2.912-.2,4.368h-52C284.518,1829.247,284.583,1827.791,284.656,1826.335Z" transform="translate(-238.093 -1789.098)" fill="#e6e6e6"/>
        <path id="Trazado_103781" data-name="Trazado 103781" d="M255.54,1889.885h66.437q-.076,2.184-.167,4.368H255.365C255.423,1892.812,255.489,1891.341,255.54,1889.885Z" transform="translate(-230.184 -1806.383)" fill="#e6e6e6"/>
        <path id="Trazado_103782" data-name="Trazado 103782" d="M276.289,1880.265h51.994c-.065,1.456-.138,2.912-.2,4.368H276.085C276.151,1883.184,276.2,1881.721,276.289,1880.265Z" transform="translate(-235.819 -1803.766)" fill="#e6e6e6"/>
        <path id="Trazado_103783" data-name="Trazado 103783" d="M249.177,1990.555h66.437c-.058,1.456-.109,2.912-.175,4.368H248.995Q249.1,1992.753,249.177,1990.555Z" transform="translate(-228.451 -1833.765)" fill="#e6e6e6"/>
        <path id="Trazado_103784" data-name="Trazado 103784" d="M269.926,1980.935h51.987c-.058,1.456-.131,2.912-.2,4.368h-52C269.788,1983.854,269.853,1982.4,269.926,1980.935Z" transform="translate(-234.087 -1831.149)" fill="#e6e6e6"/>
        <path id="Trazado_103785" data-name="Trazado 103785" d="M255.087,1937.6h66.437c-.058,1.456-.109,2.912-.175,4.368H254.9Q255.008,1939.8,255.087,1937.6Z" transform="translate(-230.059 -1819.363)" fill="#e6e6e6"/>
        <path id="Trazado_103786" data-name="Trazado 103786" d="M275.829,1927.985h51.994c-.058,1.456-.131,2.912-.2,4.368H275.625C275.691,1930.9,275.763,1929.448,275.829,1927.985Z" transform="translate(-235.694 -1816.746)" fill="#e6e6e6"/>
        <path id="Trazado_103787" data-name="Trazado 103787" d="M290.585,1794.892h69.641l-.612-2.184c-1.572-5.475-2.3-9.1-7.4-9.1,0,0-17.079-.968-17.552-2.446a8.67,8.67,0,0,0-8.321-5.977,9.784,9.784,0,0,0-8.9,5.977c-.612,1.456-19.212,2.446-19.212,2.446-5.132,0-4.768,3.64-6.836,9.1Z" transform="translate(-239.764 -1775.184)" fill="#e0e0e0"/>
      </g>
      <path id="Trazado_103788" data-name="Trazado 103788" d="M375.936,1830.7a2.862,2.862,0,0,0,.728,2.119,2.747,2.747,0,0,0,2.046.466c2.912-.24,5.511-1.9,7.848-3.64a65.8,65.8,0,0,0,12.012-11.75q-6.646,4.484-13.628,8.459a20.8,20.8,0,0,1-4.514,2.075c-.641.182-1.514.2-1.769-.415-.313-.728.626-1.828,0-2.323s-1.951.626-2.25,1.128C375.827,1827.767,375.9,1829.616,375.936,1830.7Z" transform="translate(-225.459 -1782.543)" fill="#6595bf"/>
      <path id="Trazado_103789" data-name="Trazado 103789" d="M368.786,1882.551a2.862,2.862,0,0,0,.728,2.118,2.745,2.745,0,0,0,2.046.466c2.912-.247,5.511-1.9,7.848-3.64a66.056,66.056,0,0,0,12.012-11.75q-6.654,4.484-13.628,8.452a20.44,20.44,0,0,1-4.514,2.082c-.641.182-1.514.2-1.769-.422-.313-.728.626-1.82,0-2.315s-1.951.626-2.249,1.121C368.677,1879.58,368.75,1881.422,368.786,1882.551Z" transform="translate(-223.514 -1796.646)" fill="#6595bf"/>
      <path id="Trazado_103790" data-name="Trazado 103790" d="M365.466,1934.293a2.917,2.917,0,0,0,.728,2.126,2.728,2.728,0,0,0,2.038.466c2.912-.247,5.511-1.9,7.848-3.64a66.054,66.054,0,0,0,12.012-11.75q-6.639,4.491-13.628,8.452a20.534,20.534,0,0,1-4.506,2.082c-.641.182-1.522.2-1.776-.422-.313-.728.626-1.827,0-2.315s-1.951.619-2.25,1.121C365.357,1931.359,365.43,1933.208,365.466,1934.293Z" transform="translate(-222.611 -1810.722)" fill="#6595bf"/>
      <path id="Trazado_103791" data-name="Trazado 103791" d="M526.4,2027.158a3.933,3.933,0,0,1,1.223,3.087,2.542,2.542,0,0,1-2.912,1.842,3.759,3.759,0,0,1-2.723-2.41c-.291-.728-.393-1.529-.677-2.264-.823-2.126-2.912-3.429-4.892-4.579-.124,2.184,1.128,4.273,2.606,5.919a57.082,57.082,0,0,1,4.528,4.863c1.281,1.813,2.024,4.215,1.143,6.253a.806.806,0,0,1-1.041.546c-2.315-.313-3.895-2.482-4.914-4.594s-1.864-4.448-3.735-5.824c.823,2.781,3.058,4.921,4.237,7.571a11,11,0,0,1-1.07,10.636,1.135,1.135,0,0,1-.728.553c-.451.051-.779-.407-.968-.822-1.893-4.128-.5-9.711-3.778-12.856-.51,1.106-1.012,2.184-1.521,3.3a5.264,5.264,0,0,1-1.187,1.856,1.805,1.805,0,0,1-2.053.3c-.975-.626-.728-2.1-.291-3.174a48.963,48.963,0,0,1,3.989-8.044c-1.1-.517-2.184.611-3.007,1.529s-2.337,1.725-3.079.728a1.819,1.819,0,0,1-.3-1.114c0-1.922,1.318-3.582,2.715-4.907s2.985-2.5,3.917-4.179a6.075,6.075,0,0,1-3.225.08,2.121,2.121,0,0,1-1.456-2.533,29.523,29.523,0,0,1,4.091-3.829c1.667-.524,3.3,1.012,4.557,1.937A53.753,53.753,0,0,1,526.4,2027.158Z" transform="translate(-260.638 -1836.153)" fill="#ebebeb"/>
      <path id="Trazado_103792" data-name="Trazado 103792" d="M520.278,2045.046v-1.653c-.182-15.681-2.912-21.534-3.64-21.7l-.073-.728a.8.8,0,0,1,.655.24c1.456,1.252,3.64,8.19,3.822,22.175v1.645Z" transform="translate(-263.716 -1837.777)" fill="#e0e0e0"/>
      <path id="Trazado_103793" data-name="Trazado 103793" d="M521.645,2052.188v-10.636c0-15.011,2.286-22.466,3.822-23.813a.843.843,0,0,1,.67-.255l-.095.728c-.764.175-3.64,6.465-3.64,23.34v10.629Z" transform="translate(-265.098 -1836.83)" fill="#e0e0e0"/>
      <path id="Trazado_103794" data-name="Trazado 103794" d="M527.718,2089.63H508.047l-1.922-23.645H529.64Z" transform="translate(-260.876 -1850.023)" fill="#f0f0f0"/>
      <path id="Trazado_103795" data-name="Trazado 103795" d="M530.34,2066.479H503.586l-.481-3.145h27.722Z" transform="translate(-260.055 -1849.303)" fill="#fafafa"/>
      <path id="Trazado_103796" data-name="Trazado 103796" d="M480.81,2013.675c-1.354,0-2.912.043-3.8,1.041a3.029,3.029,0,0,0,.313,4.063,4.488,4.488,0,0,0,4.23.859c.9-.255,1.733-.728,2.628-.975,2.606-.728,5.344.32,7.841,1.368-2.009,1.7-4.863,1.98-7.484,1.755s-5.205-.9-7.833-.83-5.445,1.1-6.749,3.385a1.245,1.245,0,0,0-.2.612,1.219,1.219,0,0,0,.415.771c1.958,1.973,5.147,1.915,7.87,1.383s5.547-1.456,8.212-.641c-3.225,1.2-6.851.611-10.192,1.391a13.016,13.016,0,0,0-9.311,8.6,1.328,1.328,0,0,0,0,1.077c.277.459.946.444,1.456.328,5.263-1.15,9.559-6.45,14.88-5.591l-2.053,3.8a6.22,6.22,0,0,0-.9,2.453,2.12,2.12,0,0,0,1.179,2.184c1.281.481,2.5-.823,3.218-1.988a58.2,58.2,0,0,0,4.776-9.522c1.274.67,1,2.533.728,3.946s0,3.443,1.456,3.458a2.1,2.1,0,0,0,1.267-.517c1.805-1.383,2.453-3.8,2.708-6.064s.247-4.615,1.179-6.7a7.182,7.182,0,0,0,2.184,3.108c1.077.728,2.774.67,3.429-.444a34.256,34.256,0,0,0,.728-6.61c-.692-1.958-3.312-2.4-5.1-2.948A64.018,64.018,0,0,0,480.81,2013.675Z" transform="translate(-250.136 -1835.795)" fill="#f5f5f5"/>
      <path id="Trazado_103797" data-name="Trazado 103797" d="M531.111,2039.087c.612,1.208,1.391,2.519,2.708,2.868a3.022,3.022,0,0,0,3.436-2.184,4.454,4.454,0,0,0-1.223-4.135c-.648-.677-1.456-1.194-2.1-1.871-1.878-1.958-2.22-4.87-2.468-7.564,2.446.983,4.033,3.364,5.06,5.788s1.645,5.023,2.948,7.28,3.516,4.3,6.144,4.368a1.248,1.248,0,0,0,.633-.116,1.226,1.226,0,0,0,.488-.728c.823-2.65-.728-5.438-2.468-7.593s-3.851-4.237-4.412-6.959c2.577,2.286,3.749,5.766,6.013,8.372a13.053,13.053,0,0,0,11.968,4.193,1.364,1.364,0,0,0,.954-.5c.284-.466-.044-1.048-.393-1.456-3.487-4.106-10.192-5.416-11.925-10.52H550.8a6.193,6.193,0,0,0,2.584-.349,2.119,2.119,0,0,0,1.354-2.053c-.182-1.361-1.893-1.82-3.269-1.915a58.35,58.35,0,0,0-10.643.248c0-1.456,1.769-2.067,3.152-2.461s3.021-1.645,2.366-2.912a2.1,2.1,0,0,0-1.048-.874c-2.075-.947-4.514-.386-6.632.451s-4.193,1.951-6.465,2.1a7.21,7.21,0,0,0,1.7-3.422c.131-1.281-.728-2.759-2-2.817a34.817,34.817,0,0,0-6.173,2.475c-1.405,1.522-.568,4.048-.211,5.875A64.271,64.271,0,0,0,531.111,2039.087Z" transform="translate(-265.996 -1835.975)" fill="#f0f0f0"/>
      <path id="Trazado_103798" data-name="Trazado 103798" d="M530.949,1809.5v19.656H505.061l-1.376-1.31,1.376-18.346a12.944,12.944,0,0,1,25.888-.012v.012Z" transform="translate(-260.213 -1776.737)" opacity="0.2" style="isolation: isolate"/>
      <path id="Trazado_103799" data-name="Trazado 103799" d="M529.573,1807.737v19.569H503.685v-19.569a12.944,12.944,0,0,1,25.888-.012Z" transform="translate(-260.213 -1776.258)" fill="#f5f5f5"/>
      <circle id="Elipse_4035" data-name="Elipse 4035" cx="9.071" cy="9.071" r="9.071" transform="translate(246.466 39.281) rotate(-80.78)" fill="#e0e0e0"/>
      <circle id="Elipse_4036" data-name="Elipse 4036" cx="9.071" cy="9.071" r="9.071" transform="translate(246.741 22.546)" fill="#fff"/>
      <path id="Trazado_103800" data-name="Trazado 103800" d="M520.921,1813.323a.728.728,0,1,1-.728-.728A.728.728,0,0,1,520.921,1813.323Z" transform="translate(-264.505 -1781.102)" fill="#e0e0e0"/>
      <path id="Trazado_103801" data-name="Trazado 103801" d="M519.166,1812.061l-3.13-2.948.306-.328,2.839,2.672,5.089-4.492.291.335Z" transform="translate(-263.572 -1779.57)" fill="#e0e0e0"/>
    </g>
    <g id="freepik--Shadow--inject-493" transform="translate(210.093 2023.676)">
      <ellipse id="freepik--path--inject-493" cx="141.152" cy="8.241" rx="141.152" ry="8.241" transform="translate(0 0)" fill="#f5f5f5"/>
    </g>
    <g id="freepik--Desk--inject-493" transform="translate(330.971 1866.843)">
      <g id="freepik--Group--inject-493" transform="translate(0 53.333)">
        <path id="Trazado_103802" data-name="Trazado 103802" d="M415.675,1980.215v89.064h2.315l2.912-89.064Z" transform="translate(-397.999 -1977.536)" fill="#d9a171"/>
        <path id="Trazado_103803" data-name="Trazado 103803" d="M453.215,1984.214v82.512h2.315l2.912-82.512Z" transform="translate(-408.21 -1978.624)" fill="#d9a171"/>
        <path id="Trazado_103804" data-name="Trazado 103804" d="M453.215,1984.214v82.512h2.315l2.912-82.512Z" transform="translate(-408.21 -1978.624)" opacity="0.5" style="isolation: isolate"/>
        <path id="Trazado_103805" data-name="Trazado 103805" d="M604.412,1980.215v85.424H602.1l-2.912-85.424Z" transform="translate(-447.914 -1977.536)" fill="#d9a171"/>
        <path id="Trazado_103806" data-name="Trazado 103806" d="M604.412,1980.215v85.424H602.1l-2.912-85.424Z" transform="translate(-447.914 -1977.536)" opacity="0.5" style="isolation: isolate"/>
        <path id="Trazado_103807" data-name="Trazado 103807" d="M566.872,1984.214v85.606h-2.315l-2.912-85.606Z" transform="translate(-437.703 -1978.624)" fill="#d9a171"/>
        <rect id="Rectángulo_5645" data-name="Rectángulo 5645" width="172.492" height="3.735" fill="#d9a171"/>
        <path id="Trazado_103808" data-name="Trazado 103808" d="M554.852,1985.654H405.918l-6.042-3.99H560.894Z" transform="translate(-393.702 -1977.93)" fill="#d9a171"/>
        <path id="Trazado_103809" data-name="Trazado 103809" d="M554.852,1985.654H405.918l-6.042-3.99H560.894Z" transform="translate(-393.702 -1977.93)" opacity="0.5" style="isolation: isolate"/>
      </g>
      <rect id="Rectángulo_5646" data-name="Rectángulo 5646" width="36.371" height="9.042" transform="translate(29.506 35.053)" fill="#d9a171"/>
      <rect id="Rectángulo_5647" data-name="Rectángulo 5647" width="36.371" height="9.042" transform="translate(29.622 35.09)" fill="#fff" opacity="0.6" style="isolation: isolate"/>
      <rect id="Rectángulo_5648" data-name="Rectángulo 5648" width="27.912" height="9.042" transform="translate(29.513 35.09)" fill="#fff" opacity="0.6" style="isolation: isolate"/>
      <path id="Trazado_103810" data-name="Trazado 103810" d="M432.167,1962.167l36.189,1.128-.036-.917-36.174-.473Z" transform="translate(-402.479 -1919.222)" fill="#d9a171"/>
      <path id="Trazado_103811" data-name="Trazado 103811" d="M468.386,1955.766l-36.131-2.031v.3l36.131,2.417Z" transform="translate(-402.509 -1917)" fill="#d9a171"/>
      <path id="Trazado_103812" data-name="Trazado 103812" d="M468.386,1952.775l-36.131.823v.3l36.131-.437Z" transform="translate(-402.509 -1916.739)" fill="#d9a171"/>
      <path id="Trazado_103813" data-name="Trazado 103813" d="M468.523,1958.739l-36.138,1.762v-.269l36.138-2.1Z" transform="translate(-402.544 -1918.197)" fill="#d9a171"/>
      <rect id="Rectángulo_5649" data-name="Rectángulo 5649" width="36.371" height="9.042" transform="translate(32.039 44.452)" fill="#d9a171"/>
      <rect id="Rectángulo_5650" data-name="Rectángulo 5650" width="36.371" height="9.042" transform="translate(32.163 44.495)" fill="#fff" opacity="0.6" style="isolation: isolate"/>
      <rect id="Rectángulo_5651" data-name="Rectángulo 5651" width="27.912" height="9.042" transform="translate(32.127 44.488)" fill="#fff" opacity="0.6" style="isolation: isolate"/>
      <path id="Trazado_103814" data-name="Trazado 103814" d="M471.626,1974.815l-36.167.466-.044.917,36.189-1.121Z" transform="translate(-403.369 -1922.734)" fill="#d9a171"/>
      <path id="Trazado_103815" data-name="Trazado 103815" d="M435.735,1964.495l36.138.029v.3H435.735Z" transform="translate(-403.456 -1919.927)" fill="#d9a171"/>
      <path id="Trazado_103816" data-name="Trazado 103816" d="M435.415,1969.357l36.138-2.417v-.306l-36.138,2.031Z" transform="translate(-403.369 -1920.508)" fill="#d9a171"/>
      <path id="Trazado_103817" data-name="Trazado 103817" d="M471.873,1965.675l-36.138.83v.3l36.138-.437Z" transform="translate(-403.456 -1920.247)" fill="#d9a171"/>
      <path id="Trazado_103818" data-name="Trazado 103818" d="M472.01,1971.649l-36.145,1.755v-.262l36.145-2.1Z" transform="translate(-403.491 -1921.708)" fill="#d9a171"/>
      <path id="Trazado_103819" data-name="Trazado 103819" d="M464.093,1903.275l-36.349.182-.058,8.86h36.407Z" transform="translate(-401.266 -1903.275)" fill="#d9a171"/>
      <rect id="Rectángulo_5652" data-name="Rectángulo 5652" width="36.371" height="9.042" transform="translate(26.456)" fill="#fff" opacity="0.6" style="isolation: isolate"/>
      <rect id="Rectángulo_5653" data-name="Rectángulo 5653" width="27.912" height="9.042" transform="translate(26.419)" fill="#fff" opacity="0.6" style="isolation: isolate"/>
      <path id="Trazado_103820" data-name="Trazado 103820" d="M456.718,1903.525H427.765v.917H456.1Z" transform="translate(-401.288 -1903.343)" fill="#d9a171"/>
      <path id="Trazado_103821" data-name="Trazado 103821" d="M463.9,1908.615l-36.138.335v.269H463.9Z" transform="translate(-401.288 -1904.727)" fill="#d9a171"/>
      <path id="Trazado_103822" data-name="Trazado 103822" d="M427.765,1913.706l36.138-1.762v.262l-36.138,2.1Z" transform="translate(-401.288 -1905.633)" fill="#d9a171"/>
      <path id="Trazado_103823" data-name="Trazado 103823" d="M427.765,1909.695l36.138.721v.255l-36.138-.379Z" transform="translate(-401.288 -1905.021)" fill="#d9a171"/>
      <rect id="Rectángulo_5654" data-name="Rectángulo 5654" width="36.138" height="2.191" transform="translate(26.536 33.058)" fill="#d9a171"/>
      <rect id="Rectángulo_5655" data-name="Rectángulo 5655" width="36.138" height="2.177" transform="translate(26.536 33.08)" fill="#fff" opacity="0.6" style="isolation: isolate"/>
      <rect id="Rectángulo_5656" data-name="Rectángulo 5656" width="28.8" height="2.315" transform="translate(26.536 32.942)" fill="#fff" opacity="0.6" style="isolation: isolate"/>
      <path id="Trazado_103824" data-name="Trazado 103824" d="M427.873,1950.045l36.145.444-.007.138-36.145-.269Z" transform="translate(-401.315 -1915.996)" fill="#d9a171"/>
      <path id="Trazado_103825" data-name="Trazado 103825" d="M427.875,1949.465l36.138.371v.138l-36.138-.2Z" transform="translate(-401.318 -1915.838)" fill="#d9a171"/>
      <path id="Trazado_103826" data-name="Trazado 103826" d="M475.537,1915.905v5.751a.553.553,0,1,1,0,1.107h-6.552v-8.008h6.552a.575.575,0,1,1,0,1.15Z" transform="translate(-412.5 -1906.397)" fill="#d9a171"/>
      <path id="Trazado_103827" data-name="Trazado 103827" d="M475.537,1915.905v5.751a.553.553,0,1,1,0,1.107h-6.552v-8.008h6.552a.575.575,0,1,1,0,1.15Z" transform="translate(-412.5 -1906.397)" fill="#fff" opacity="0.3" style="isolation: isolate"/>
      <rect id="Rectángulo_5657" data-name="Rectángulo 5657" width="5.111" height="5.744" transform="translate(57.927 9.53)" fill="#d9a171"/>
      <rect id="Rectángulo_5658" data-name="Rectángulo 5658" width="5.111" height="5.744" transform="translate(57.927 9.53)" fill="#fff" opacity="0.6" style="isolation: isolate"/>
      <path id="Trazado_103828" data-name="Trazado 103828" d="M461.074,1915.595H432.849c-1.223,0-2.184,1.536-2.184,3.429s.983,3.429,2.184,3.429h28.225Z" transform="translate(-402.077 -1906.626)" fill="#d9a171"/>
      <path id="Trazado_103829" data-name="Trazado 103829" d="M461.074,1915.595H432.849c-1.223,0-2.184,1.536-2.184,3.429s.983,3.429,2.184,3.429h28.225Z" transform="translate(-402.077 -1906.626)" fill="#fff" opacity="0.9" style="isolation: isolate"/>
      <path id="Trazado_103830" data-name="Trazado 103830" d="M460.846,1922.771c-5.824,0-22.117.1-27.919,0-3.975-.073-4.186-7.695-.291-7.957,2.723-.189,5.518,0,8.241,0h19.969a.553.553,0,0,1,0,1.1h-27c-1.274,0-2.184,0-2.672,1.514-.43,1.3-.291,3.953,1.456,4.237a3.25,3.25,0,0,0,.6,0h27.628a.553.553,0,1,1,0,1.106Z" transform="translate(-401.849 -1906.39)" fill="#d9a171"/>
      <g id="Grupo_59420" data-name="Grupo 59420" transform="translate(27.978 8.339)" opacity="0.2">
        <path id="Trazado_103831" data-name="Trazado 103831" d="M460.846,1922.771c-5.824,0-22.117.1-27.919,0-3.975-.073-4.186-7.695-.291-7.957,2.723-.189,5.518,0,8.241,0h19.969a.553.553,0,0,1,0,1.1h-27c-1.274,0-2.184,0-2.672,1.514-.43,1.3-.291,3.953,1.456,4.237a3.25,3.25,0,0,0,.6,0h27.628a.553.553,0,1,1,0,1.106Z" transform="translate(-429.827 -1914.729)" fill="#fff"/>
      </g>
      <path id="Trazado_103832" data-name="Trazado 103832" d="M467.358,1926.644v5.322a.51.51,0,0,1,0,1.019h-6.093v-7.36h6.093a.51.51,0,0,1,0,1.019Z" transform="translate(-410.4 -1909.354)" fill="#d9a171"/>
      <path id="Trazado_103833" data-name="Trazado 103833" d="M467.358,1926.644v5.322a.51.51,0,0,1,0,1.019h-6.093v-7.36h6.093a.51.51,0,0,1,0,1.019Z" transform="translate(-410.4 -1909.354)" fill="#fff" opacity="0.3" style="isolation: isolate"/>
      <rect id="Rectángulo_5659" data-name="Rectángulo 5659" width="4.732" height="5.322" transform="translate(52.227 17.297)" fill="#d9a171"/>
      <rect id="Rectángulo_5660" data-name="Rectángulo 5660" width="4.732" height="5.322" transform="translate(52.227 17.297)" fill="#fff" opacity="0.6" style="isolation: isolate"/>
      <path id="Trazado_103834" data-name="Trazado 103834" d="M453.966,1926.335H427.831c-1.128,0-2.046,1.42-2.046,3.174s.917,3.174,2.046,3.174h26.135Z" transform="translate(-400.749 -1909.547)" fill="#d9a171"/>
      <path id="Trazado_103835" data-name="Trazado 103835" d="M453.966,1926.335H427.831c-1.128,0-2.046,1.42-2.046,3.174s.917,3.174,2.046,3.174h26.135Z" transform="translate(-400.749 -1909.547)" fill="#fff" opacity="0.9" style="isolation: isolate"/>
      <path id="Trazado_103836" data-name="Trazado 103836" d="M453.763,1932.963c-5.373,0-20.479.095-25.851,0-3.684-.066-3.88-7.12-.269-7.367,2.519-.175,5.1,0,7.629,0h18.491a.51.51,0,0,1,0,1.019H428.756c-1.179,0-2.017,0-2.475,1.405-.393,1.2-.269,3.64,1.347,3.924a3.426,3.426,0,0,0,.546,0h25.589a.51.51,0,0,1,0,1.019Z" transform="translate(-400.546 -1909.325)" fill="#aed3f2"/>
      <path id="Trazado_103837" data-name="Trazado 103837" d="M478.1,1936.867v6.341a.611.611,0,0,1,0,1.216h-7.28v-8.809h7.28a.626.626,0,0,1,0,1.252Z" transform="translate(-412.997 -1912.071)" fill="#d9a171"/>
      <path id="Trazado_103838" data-name="Trazado 103838" d="M478.1,1936.867v6.341a.611.611,0,0,1,0,1.216h-7.28v-8.809h7.28a.626.626,0,0,1,0,1.252Z" transform="translate(-412.997 -1912.071)" fill="#fff" opacity="0.3" style="isolation: isolate"/>
      <rect id="Rectángulo_5661" data-name="Rectángulo 5661" width="5.635" height="6.334" transform="translate(59.463 24.767)" fill="#d9a171"/>
      <rect id="Rectángulo_5662" data-name="Rectángulo 5662" width="5.635" height="6.334" transform="translate(59.463 24.767)" fill="#fff" opacity="0.6" style="isolation: isolate"/>
      <path id="Trazado_103839" data-name="Trazado 103839" d="M462.164,1936.455H431.057c-1.347,0-2.432,1.689-2.432,3.778s1.085,3.778,2.432,3.778h31.107Z" transform="translate(-401.522 -1912.3)" fill="#d9a171"/>
      <path id="Trazado_103840" data-name="Trazado 103840" d="M462.164,1936.455H431.057c-1.347,0-2.432,1.689-2.432,3.778s1.085,3.778,2.432,3.778h31.107Z" transform="translate(-401.522 -1912.3)" fill="#fff" opacity="0.9" style="isolation: isolate"/>
      <path id="Trazado_103841" data-name="Trazado 103841" d="M461.923,1944.354c-6.4,0-24.373.116-30.773,0-4.368-.08-4.615-8.474-.32-8.773,3-.2,6.079,0,9.078,0h22.015a.612.612,0,0,1,0,1.216H432.162c-1.4,0-2.4,0-2.948,1.674-.466,1.456-.32,4.368,1.6,4.666a3.94,3.94,0,0,0,.655,0h30.452a.612.612,0,0,1,0,1.216Z" transform="translate(-401.28 -1912.037)" fill="#d9a171"/>
      <g id="Grupo_59421" data-name="Grupo 59421" transform="translate(26.457 23.453)" opacity="0.2">
        <path id="Trazado_103842" data-name="Trazado 103842" d="M461.923,1944.354c-6.4,0-24.373.116-30.773,0-4.368-.08-4.615-8.474-.32-8.773,3-.2,6.079,0,9.078,0h22.015a.612.612,0,0,1,0,1.216H432.162c-1.4,0-2.4,0-2.948,1.674-.466,1.456-.32,4.368,1.6,4.666a3.94,3.94,0,0,0,.655,0h30.452a.612.612,0,0,1,0,1.216Z" transform="translate(-427.738 -1935.491)"/>
      </g>
      <path id="Trazado_103843" data-name="Trazado 103843" d="M530.94,1962.061l-42.282.189a1.958,1.958,0,0,1-2-1.916,1.931,1.931,0,0,1,.012-.268l2.242-27.038a2.416,2.416,0,0,1,2.351-2.184l42.282-.189a1.958,1.958,0,0,1,2,1.916,2.063,2.063,0,0,1-.013.269l-2.242,27.038A2.417,2.417,0,0,1,530.94,1962.061Z" transform="translate(-417.306 -1910.722)" fill="#344154"/>
      <g id="freepik--monitor-screen--inject-493" transform="translate(68.658 19.904)">
        <g id="freepik--PC--inject-493">
          <path id="Trazado_103844" data-name="Trazado 103844" d="M531.3,1960.7l-42.908.2,2.257-27.213,42.908-.189Z" transform="translate(-486.438 -1931.398)" fill="#d9a171"/>
          <path id="Trazado_103845" data-name="Trazado 103845" d="M529.99,1962.061l-42.282.189a1.952,1.952,0,0,1-2-1.9,2.041,2.041,0,0,1,.013-.284l2.242-27.038a2.416,2.416,0,0,1,2.351-2.184l42.282-.189a1.955,1.955,0,0,1,1.987,2.184l-2.242,27.038A2.417,2.417,0,0,1,529.99,1962.061Z" transform="translate(-485.706 -1930.625)" fill="#5e6178"/>
          <g id="Grupo_59422" data-name="Grupo 59422" transform="translate(1.645 1.784)" opacity="0.7">
            <path id="Trazado_103846" data-name="Trazado 103846" d="M530.866,1960.27l-42.9.189,2.257-27.205,42.908-.189Z" transform="translate(-487.965 -1933.065)" fill="#d9a171"/>
            <path id="Trazado_103847" data-name="Trazado 103847" d="M529,1960.28l-38.671.175a2.112,2.112,0,0,1-2.118-2.1c0-.061,0-.122.007-.182l1.907-22.983a2.111,2.111,0,0,1,2.1-1.936l38.664-.175a2.1,2.1,0,0,1,2.119,2.089,1.954,1.954,0,0,1-.008.2l-1.907,22.99A2.1,2.1,0,0,1,529,1960.28Z" transform="translate(-488.033 -1933.068)" fill="#344154" opacity="0.9" style="isolation: isolate"/>
          </g>
          <path id="Trazado_103848" data-name="Trazado 103848" d="M534.436,1930.679l-8.241,31.377,2.817-.015,8.154-31.377Z" transform="translate(-496.719 -1930.628)" fill="#fff" opacity="0.1" style="isolation: isolate"/>
          <path id="Trazado_103849" data-name="Trazado 103849" d="M540.416,1930.644l-8.241,31.377,5.591-.022,8.146-31.384Z" transform="translate(-498.346 -1930.615)" fill="#fff" opacity="0.1" style="isolation: isolate"/>
        </g>
      </g>
      <path id="Trazado_103850" data-name="Trazado 103850" d="M512.6,1973.585l14.269.124c.189,1.66-.546,2.257-1.456,2.25l-52.234-.08a2.083,2.083,0,0,1-2.075-2.082h0Z" transform="translate(-413.076 -1922.399)" fill="#d9a171"/>
      <path id="Trazado_103851" data-name="Trazado 103851" d="M512.6,1973.585l14.269.124c.189,1.66-.546,2.257-1.456,2.25l-52.234-.08a2.083,2.083,0,0,1-2.075-2.082h0Z" transform="translate(-413.076 -1922.399)" fill="#fff" opacity="0.2" style="isolation: isolate"/>
      <path id="Trazado_103852" data-name="Trazado 103852" d="M541.748,1973.72c.189,1.66-.546,2.257-1.456,2.25H525.8c1.187,0,2.7-1.15,2.7-2.344Z" transform="translate(-427.955 -1922.41)" fill="#fff" opacity="0.2" style="isolation: isolate"/>
      <path id="Trazado_103853" data-name="Trazado 103853" d="M551.645,1935.974a5.657,5.657,0,0,1,3.764-1.245,8.832,8.832,0,0,1,3.873,1.063q.168-2.621.313-5.241c.08-1.274-5.911-1.405-6.647-1.114C551.012,1930.187,551.965,1934.169,551.645,1935.974Z" transform="translate(-434.983 -1910.355)" fill="#d9a171"/>
      <path id="Trazado_103854" data-name="Trazado 103854" d="M551.645,1935.974a5.657,5.657,0,0,1,3.764-1.245,8.832,8.832,0,0,1,3.873,1.063q.168-2.621.313-5.241c.08-1.274-5.911-1.405-6.647-1.114C551.012,1930.187,551.965,1934.169,551.645,1935.974Z" transform="translate(-434.983 -1910.355)" fill="#fff" opacity="0.9" style="isolation: isolate"/>
      <path id="Trazado_103855" data-name="Trazado 103855" d="M550.645,1942.591a9.692,9.692,0,0,1,3.764-.648,15.758,15.758,0,0,1,3.873.553c.109-.9.211-1.813.313-2.723.08-.663-5.911-.728-6.647-.582C550.012,1939.584,550.965,1941.652,550.645,1942.591Z" transform="translate(-434.711 -1913.026)" fill="#d9a171"/>
      <path id="Trazado_103856" data-name="Trazado 103856" d="M550.645,1942.591a9.692,9.692,0,0,1,3.764-.648,15.758,15.758,0,0,1,3.873.553c.109-.9.211-1.813.313-2.723.08-.663-5.911-.728-6.647-.582C550.012,1939.584,550.965,1941.652,550.645,1942.591Z" transform="translate(-434.711 -1913.026)" fill="#fff" opacity="0.9" style="isolation: isolate"/>
      <path id="Trazado_103857" data-name="Trazado 103857" d="M550.245,1949.091a9.574,9.574,0,0,1,3.771-.648,15.793,15.793,0,0,1,3.873.553c.1-.91.2-1.813.313-2.723.073-.663-5.911-.728-6.654-.583C549.619,1946.084,550.573,1948.152,550.245,1949.091Z" transform="translate(-434.602 -1914.794)" fill="#d9a171"/>
      <path id="Trazado_103858" data-name="Trazado 103858" d="M550.245,1949.091a9.574,9.574,0,0,1,3.771-.648,15.793,15.793,0,0,1,3.873.553c.1-.91.2-1.813.313-2.723.073-.663-5.911-.728-6.654-.583C549.619,1946.084,550.573,1948.152,550.245,1949.091Z" transform="translate(-434.602 -1914.794)" fill="#fff" opacity="0.9" style="isolation: isolate"/>
      <path id="Trazado_103859" data-name="Trazado 103859" d="M540.3,1923.4a.611.611,0,0,1,.124-.2.516.516,0,0,1,.364-.095l4.768-.073A16.951,16.951,0,0,0,544,1930c-1.172-.051-5.242,0-5.242,0C537.976,1928.75,539.789,1924.622,540.3,1923.4Z" transform="translate(-431.426 -1908.65)" fill="#d9a171"/>
      <path id="Trazado_103860" data-name="Trazado 103860" d="M540.3,1923.4a.611.611,0,0,1,.124-.2.516.516,0,0,1,.364-.095l4.768-.073A16.951,16.951,0,0,0,544,1930c-1.172-.051-5.242,0-5.242,0C537.976,1928.75,539.789,1924.622,540.3,1923.4Z" transform="translate(-431.426 -1908.65)" fill="#fff" opacity="0.9" style="isolation: isolate"/>
      <path id="Trazado_103861" data-name="Trazado 103861" d="M529.108,1922.6a.535.535,0,0,1,.124-.2.551.551,0,0,1,.357-.095l4.776-.073a16.951,16.951,0,0,0-1.551,6.967c-1.172-.051-5.242,0-5.242,0C526.786,1927.947,528.6,1923.819,529.108,1922.6Z" transform="translate(-428.382 -1908.429)" fill="#d9a171"/>
      <path id="Trazado_103862" data-name="Trazado 103862" d="M529.108,1922.6a.535.535,0,0,1,.124-.2.551.551,0,0,1,.357-.095l4.776-.073a16.951,16.951,0,0,0-1.551,6.967c-1.172-.051-5.242,0-5.242,0C526.786,1927.947,528.6,1923.819,529.108,1922.6Z" transform="translate(-428.382 -1908.429)" fill="#fff" opacity="0.9" style="isolation: isolate"/>
      <path id="Trazado_103863" data-name="Trazado 103863" d="M520.109,1922.6a.759.759,0,0,1,.08-.2.274.274,0,0,1,.233-.095h3.007a25.582,25.582,0,0,0-1.1,6.945c-.728-.065-3.305,0-3.305,0C518.551,1927.917,519.767,1923.782,520.109,1922.6Z" transform="translate(-426.081 -1908.45)" fill="#d9a171"/>
      <path id="Trazado_103864" data-name="Trazado 103864" d="M520.109,1922.6a.759.759,0,0,1,.08-.2.274.274,0,0,1,.233-.095h3.007a25.582,25.582,0,0,0-1.1,6.945c-.728-.065-3.305,0-3.305,0C518.551,1927.917,519.767,1923.782,520.109,1922.6Z" transform="translate(-426.081 -1908.45)" fill="#fff" opacity="0.9" style="isolation: isolate"/>
      <g id="Grupo_59423" data-name="Grupo 59423" transform="translate(70.361 19.525)" opacity="0.2">
        <path id="Trazado_103865" data-name="Trazado 103865" d="M490.724,1930.867a7.494,7.494,0,0,1-.83,2.817,20.053,20.053,0,0,1-1.849,3.138,72.088,72.088,0,0,0,7.637.044,9.165,9.165,0,0,0,1.6-6.77c-2.118.626-4.7.131-6.887.662Z" transform="translate(-488.045 -1930.095)"/>
      </g>
      <path id="Trazado_103866" data-name="Trazado 103866" d="M490.474,1930.035a8.211,8.211,0,0,1-1.223,2.745,21.514,21.514,0,0,1-2.286,2.977,45.812,45.812,0,0,0,7.673.095,7.576,7.576,0,0,0,2.351-5.773C494.449,1930.079,490.474,1930.035,490.474,1930.035Z" transform="translate(-417.39 -1910.553)" fill="#d9a171"/>
      <g id="Grupo_59424" data-name="Grupo 59424" transform="translate(69.575 19.482)" opacity="0.9">
        <path id="Trazado_103867" data-name="Trazado 103867" d="M490.474,1930.035a8.211,8.211,0,0,1-1.223,2.745,21.514,21.514,0,0,1-2.286,2.977,45.812,45.812,0,0,0,7.673.095,7.576,7.576,0,0,0,2.351-5.773C494.449,1930.079,490.474,1930.035,490.474,1930.035Z" transform="translate(-486.965 -1930.035)" fill="#fff"/>
      </g>
      <g id="Grupo_59425" data-name="Grupo 59425" transform="translate(80.204 18.775)" opacity="0.2">
        <path id="Trazado_103868" data-name="Trazado 103868" d="M504.244,1929.931a9.194,9.194,0,0,1-.83,3.152,23.6,23.6,0,0,1-1.849,3.516,66.531,66.531,0,0,0,7.637.043,11.226,11.226,0,0,0,1.6-7.578c-2.118.728-4.7.146-6.88.728Z" transform="translate(-501.565 -1929.065)"/>
      </g>
      <path id="Trazado_103869" data-name="Trazado 103869" d="M503.937,1929a9.547,9.547,0,0,1-1.223,3.065,24.639,24.639,0,0,1-2.279,3.342,41.546,41.546,0,0,0,7.666.1,9.025,9.025,0,0,0,2.351-6.465C507.926,1929.049,503.937,1929,503.937,1929Z" transform="translate(-421.054 -1910.273)" fill="#d9a171"/>
      <g id="Grupo_59426" data-name="Grupo 59426" transform="translate(79.381 18.732)" opacity="0.9">
        <path id="Trazado_103870" data-name="Trazado 103870" d="M503.937,1929a9.547,9.547,0,0,1-1.223,3.065,24.639,24.639,0,0,1-2.279,3.342,41.546,41.546,0,0,0,7.666.1,9.025,9.025,0,0,0,2.351-6.465C507.926,1929.049,503.937,1929,503.937,1929Z" transform="translate(-500.435 -1929.005)" fill="#fff"/>
      </g>
      <path id="Trazado_103871" data-name="Trazado 103871" d="M595.594,1971.6H583.735l3.72-11.968.539-1.755h2.686Z" transform="translate(-443.712 -1918.126)" fill="#344154"/>
      <path id="Trazado_103872" data-name="Trazado 103872" d="M582.377,1957.875l-.539,1.755-3.72,11.968-10.964-.16-3.524-11.808-.546-1.755Z" transform="translate(-438.095 -1918.126)" fill="#e0e0e0"/>
      <path id="Trazado_103873" data-name="Trazado 103873" d="M579.581,1957.875l-.539,1.755-3.72,11.968-22.517-.328,4.8-13.4Z" transform="translate(-435.299 -1918.126)" fill="#d9a171"/>
      <path id="Trazado_103874" data-name="Trazado 103874" d="M579.581,1957.875l-.539,1.755-3.72,11.968-22.517-.328,4.8-13.4Z" transform="translate(-435.299 -1918.126)" fill="#fff" opacity="0.8" style="isolation: isolate"/>
      <path id="Trazado_103875" data-name="Trazado 103875" d="M581.142,1957.875l-.539,1.755H558.545l.619-1.755Z" transform="translate(-436.86 -1918.126)" fill="#6595bf"/>
      <path id="Trazado_103876" data-name="Trazado 103876" d="M561.4,1966.275h-4.943l1.725-4.87,4.732.051Zm-4.368-.4h4.077l1.259-4.019-3.9-.044Z" transform="translate(-436.291 -1919.086)" fill="#d9a171"/>
      <path id="Trazado_103877" data-name="Trazado 103877" d="M568.948,1966.275h-4.943l1.725-4.87,4.732.051Zm-4.368-.4h4.077l1.252-4.019-3.895-.044Z" transform="translate(-438.345 -1919.086)" fill="#d9a171"/>
      <path id="Trazado_103878" data-name="Trazado 103878" d="M576.548,1966.275H571.6l1.725-4.87,4.725.051Zm-4.368-.4h4.077l1.259-4.019-3.895-.044Z" transform="translate(-440.412 -1919.086)" fill="#d9a171"/>
      <path id="Trazado_103879" data-name="Trazado 103879" d="M584.159,1966.275h-4.914l1.725-4.87,4.725.051Zm-4.368-.4h4.077l1.259-4.019-3.895-.044Z" transform="translate(-442.49 -1919.086)" fill="#d9a171"/>
      <path id="Trazado_103880" data-name="Trazado 103880" d="M558.985,1973.375h-4.95l1.725-4.87,4.732.051Zm-4.368-.4h4.077l1.259-4.019-3.9-.044Z" transform="translate(-435.633 -1921.017)" fill="#d9a171"/>
      <path id="Trazado_103881" data-name="Trazado 103881" d="M566.578,1973.375h-4.943l1.725-4.87,4.732.051Zm-4.368-.4h4.077l1.252-4.019-3.895-.044Z" transform="translate(-437.7 -1921.017)" fill="#d9a171"/>
      <path id="Trazado_103882" data-name="Trazado 103882" d="M574.181,1973.375h-4.936l1.725-4.87,4.725.051Zm-4.368-.4h4.077l1.259-4.019-3.895-.044Z" transform="translate(-439.77 -1921.017)" fill="#d9a171"/>
      <path id="Trazado_103883" data-name="Trazado 103883" d="M581.778,1973.375h-4.943l1.725-4.87,4.725.051Zm-4.368-.4H581.5l1.259-4.019-3.895-.044Z" transform="translate(-441.835 -1921.017)" fill="#d9a171"/>
      <path id="Trazado_103884" data-name="Trazado 103884" d="M561.713,1966.126a13.73,13.73,0,0,0-.619-2.483c-.16-.415-1.791-2.963-2.111-1.4-.095.459.874,1.572,1.136,1.944A17.07,17.07,0,0,0,561.713,1966.126Z" transform="translate(-436.977 -1919.177)" fill="#d9a171"/>
      <path id="Trazado_103885" data-name="Trazado 103885" d="M557.845,1965.314c-.051.153-.036.386.124.393a.276.276,0,0,0,.16-.058,29.46,29.46,0,0,1,2.81-2.184,2.969,2.969,0,0,0,1.332-.874,1.6,1.6,0,0,0-.859.138C560.044,1963.239,558.377,1963.8,557.845,1965.314Z" transform="translate(-436.662 -1919.406)" fill="#d9a171"/>
      <path id="Trazado_103886" data-name="Trazado 103886" d="M576.873,1966.286a13.111,13.111,0,0,0-.619-2.482c-.16-.415-1.784-2.963-2.111-1.405-.095.459.874,1.573,1.136,1.944A17.059,17.059,0,0,0,576.873,1966.286Z" transform="translate(-441.101 -1919.221)" fill="#d9a171"/>
      <path id="Trazado_103887" data-name="Trazado 103887" d="M573.008,1965.513c-.051.153,0,.386.124.393a.275.275,0,0,0,.16-.058,29.412,29.412,0,0,1,2.81-2.184,3.034,3.034,0,0,0,1.332-.874,1.533,1.533,0,0,0-.859.138C575.206,1963.409,573.539,1963.97,573.008,1965.513Z" transform="translate(-440.788 -1919.46)" fill="#d9a171"/>
      <path id="Trazado_103888" data-name="Trazado 103888" d="M567.153,1963.711a5.575,5.575,0,0,1,2.344,2.3,10.314,10.314,0,0,0-1.456-3.64C566.949,1960.726,565.726,1962.91,567.153,1963.711Z" transform="translate(-439.025 -1919.186)" fill="#d9a171"/>
      <path id="Trazado_103889" data-name="Trazado 103889" d="M581.493,1963.711a5.574,5.574,0,0,1,2.344,2.3,10.311,10.311,0,0,0-1.456-3.64C581.289,1960.726,580.066,1962.91,581.493,1963.711Z" transform="translate(-442.926 -1919.186)" fill="#d9a171"/>
      <path id="Trazado_103890" data-name="Trazado 103890" d="M567.719,1963.509a3.486,3.486,0,0,0-1.682,1.456c-.131.226-.2.553,0,.728s.575-.044.793-.262c.5-.495,2.621-1.718,2.606-2.337A3.256,3.256,0,0,0,567.719,1963.509Z" transform="translate(-438.863 -1919.545)" fill="#d9a171"/>
      <path id="Trazado_103891" data-name="Trazado 103891" d="M583.12,1963.509a3.487,3.487,0,0,0-1.682,1.456c-.124.226-.2.553,0,.728s.568-.044.786-.262c.495-.495,2.621-1.718,2.606-2.337A3.275,3.275,0,0,0,583.12,1963.509Z" transform="translate(-443.053 -1919.545)" fill="#d9a171"/>
      <path id="Trazado_103892" data-name="Trazado 103892" d="M559.861,1970.419c-.386-2.432-3.283-2.562-4.492-.67a3.583,3.583,0,0,0-.5,1.572,2.479,2.479,0,0,0,.087,1.056,2,2,0,0,0,2.046,1.2,3.414,3.414,0,0,0,2.184-1.187,2.376,2.376,0,0,0,.662-1.2A2.1,2.1,0,0,0,559.861,1970.419Zm-.881,1.689a2.133,2.133,0,0,1-.728.677,2.318,2.318,0,0,1-1.74.4,1.843,1.843,0,0,1-1.39-1.354,2.607,2.607,0,0,1,2.25-2.81C559.395,1969.021,559.752,1970.827,558.98,1972.108Z" transform="translate(-435.853 -1921.002)" fill="#344154"/>
    </g>
    <g id="freepik--Chair--inject-493" transform="translate(325.498 1897.397)">
      <path id="Trazado_103893" data-name="Trazado 103893" d="M416.064,1948.222l18.2,55.5h-39.8l-6.88-58.473h24.374A4.316,4.316,0,0,1,416.064,1948.222Z" transform="translate(-384.886 -1945.245)" fill="#344154"/>
      <path id="Trazado_103894" data-name="Trazado 103894" d="M426.174,2016.085H465.6c1.82,0,3.291,1.886,3.291,4.215v2.912c0,2.33-1.456,4.215-3.291,4.215H405.062l-3.167-10.993Z" transform="translate(-388.779 -1964.513)" fill="#344154"/>
      <g id="Grupo_59427" data-name="Grupo 59427" transform="translate(13.116 51.572)" opacity="0.2">
        <path id="Trazado_103895" data-name="Trazado 103895" d="M426.174,2016.085H465.6c1.82,0,3.291,1.886,3.291,4.215v2.912c0,2.33-1.456,4.215-3.291,4.215H405.062l-3.167-10.993Z" transform="translate(-401.895 -2016.085)" fill="#fff"/>
      </g>
      <path id="Trazado_103896" data-name="Trazado 103896" d="M389.9,1948.512l5.1,44.583a7,7,0,0,0,6.96,6.2h27.46a3.3,3.3,0,0,1,3.3,3.3v2.3a3.3,3.3,0,0,1-3.3,3.3H396.194a7,7,0,0,1-6.967-6.312l-5.336-54a2.374,2.374,0,0,1,2.121-2.6,2.334,2.334,0,0,1,.245-.012h0A3.64,3.64,0,0,1,389.9,1948.512Z" transform="translate(-383.878 -1945.25)" fill="#344154"/>
      <path id="Trazado_103897" data-name="Trazado 103897" d="M389.9,1948.512l5.1,44.583a7,7,0,0,0,6.96,6.2h27.46a3.3,3.3,0,0,1,3.3,3.3v2.3a3.3,3.3,0,0,1-3.3,3.3H396.194a7,7,0,0,1-6.967-6.312l-5.336-54a2.374,2.374,0,0,1,2.121-2.6,2.334,2.334,0,0,1,.245-.012h0A3.64,3.64,0,0,1,389.9,1948.512Z" transform="translate(-383.878 -1945.25)" fill="#fff" opacity="0.3" style="isolation: isolate"/>
      <path id="Trazado_103898" data-name="Trazado 103898" d="M403.879,2103.271a3.167,3.167,0,1,1-3.167-3.167,3.166,3.166,0,0,1,3.167,3.167Z" transform="translate(-387.595 -1987.367)" fill="#d9a171"/>
      <path id="Trazado_103899" data-name="Trazado 103899" d="M471.135,2103.271a3.167,3.167,0,1,0,3.167-3.167,3.167,3.167,0,0,0-3.167,3.167Z" transform="translate(-407.612 -1987.367)" fill="#d9a171"/>
      <path id="Trazado_103900" data-name="Trazado 103900" d="M434.455,2101.882a3.167,3.167,0,1,0,3.167-3.167,3.167,3.167,0,0,0-3.167,3.167Z" transform="translate(-397.635 -1986.989)" fill="#d9a171"/>
      <path id="Trazado_103901" data-name="Trazado 103901" d="M457.868,2094.954a1.455,1.455,0,0,1-1.412,1.274l-29.994-.466-28.079.728a1.456,1.456,0,0,1-1.412-1.274,1.58,1.58,0,0,1,1.1-1.856l15.339-3.385a23.308,23.308,0,0,1,4.819-.51h16.482a23.371,23.371,0,0,1,4.819.51l17.232,3.131A1.586,1.586,0,0,1,457.868,2094.954Z" transform="translate(-387.429 -1984.473)" fill="#344154"/>
      <g id="Grupo_59428" data-name="Grupo 59428" transform="translate(9.505 104.992)" opacity="0.3">
        <path id="Trazado_103902" data-name="Trazado 103902" d="M457.868,2094.954a1.455,1.455,0,0,1-1.412,1.274l-29.994-.466-28.079.728a1.456,1.456,0,0,1-1.412-1.274,1.58,1.58,0,0,1,1.1-1.856l15.339-3.385a23.308,23.308,0,0,1,4.819-.51h16.482a23.371,23.371,0,0,1,4.819.51l17.232,3.131A1.586,1.586,0,0,1,457.868,2094.954Z" transform="translate(-396.934 -2089.465)" fill="#fff"/>
      </g>
      <rect id="Rectángulo_5663" data-name="Rectángulo 5663" width="10.199" height="28.873" transform="translate(33.93 76.12)" fill="#344154"/>
      <rect id="Rectángulo_5664" data-name="Rectángulo 5664" width="7.273" height="13.432" transform="translate(35.401 62.681)" fill="#344154"/>
      <path id="Trazado_103903" data-name="Trazado 103903" d="M432.505,2035.29l7.273,2.075v-6.021h-7.273Z" transform="translate(-397.105 -1968.664)" opacity="0.3" style="isolation: isolate"/>
      <path id="Trazado_103904" data-name="Trazado 103904" d="M403.879,2103.271a3.167,3.167,0,1,1-3.167-3.167,3.166,3.166,0,0,1,3.167,3.167Z" transform="translate(-387.595 -1987.367)" fill="#344154"/>
      <path id="Trazado_103905" data-name="Trazado 103905" d="M471.135,2103.271a3.167,3.167,0,1,0,3.167-3.167,3.167,3.167,0,0,0-3.167,3.167Z" transform="translate(-407.612 -1987.367)" fill="#344154"/>
      <path id="Trazado_103906" data-name="Trazado 103906" d="M434.455,2101.882a3.167,3.167,0,1,0,3.167-3.167,3.167,3.167,0,0,0-3.167,3.167Z" transform="translate(-397.635 -1986.989)" fill="#344154"/>
    </g>
    <g id="freepik--Character--inject-493" transform="translate(202.549 1809.055)">
      <path id="Trazado_103907" data-name="Trazado 103907" d="M261.409,1959.4s-5.737,7.28-4.812,19.722,25.611,5.395,25.611,5.395,10.731-15.572,17.392-17.29l-5.919-6.144C289.554,1961.324,286.489,1956.876,261.409,1959.4Z" transform="translate(-226.281 -1860.54)" fill="#d9a171"/>
      <g id="freepik--Character--inject-217--inject-493" transform="translate(0 17.256)">
        <path id="Trazado_103908" data-name="Trazado 103908" d="M295.415,1894.262c1.653,3.9,3.378,7.673,5.22,11.466s3.72,7.535,5.824,11.3l.844,1.456a8.024,8.024,0,0,0,2.082,2.359,10.333,10.333,0,0,0,4.572,1.9,22.457,22.457,0,0,0,7.418-.138,51.542,51.542,0,0,0,12.609-3.975l-1.456-4.368-2.978.473c-1,.153-2.009.24-3,.386a56.5,56.5,0,0,1-5.86.422,17.671,17.671,0,0,1-5.06-.509,2.351,2.351,0,0,1-1.1-.568c0-.051.066,0,.066,0l-.612-1.289c-1.674-3.684-3.349-7.52-5.009-11.284s-3.371-7.6-5.1-11.357Z" transform="translate(-236.867 -1859.277)" fill="#ffb573"/>
        <path id="Trazado_103909" data-name="Trazado 103909" d="M352.572,1925.157a4.014,4.014,0,0,0,1.456-.648c1.565-1.456.641-3.917-.83-5.474h0c-.058-.066-1.7-1.58-1.769-1.645-1.58-1.456-2.453.109-3.9,1.689l-2.912,3.152,1.784,3.778a23.2,23.2,0,0,0,4.856-.531C351.626,1925.4,352.084,1925.295,352.572,1925.157Z" transform="translate(-250.249 -1866.424)" fill="#ffb573"/>
        <path id="Trazado_103910" data-name="Trazado 103910" d="M307.192,1892.055c3.363,5.191,2.781,12.063,2.781,12.063l-8.1,1.755s-9.013-9.406-7.367-13.985C296.337,1886.835,303.632,1886.551,307.192,1892.055Z" transform="translate(-236.566 -1858.591)" fill="#6595bf"/>
        <path id="Trazado_103911" data-name="Trazado 103911" d="M301.923,1906.471l5.147-1.114a47.149,47.149,0,0,0-4.885-10.134c-3.05-4.521-5.234-5.824-7.659-4.543C293.762,1896.956,301.923,1906.471,301.923,1906.471Z" transform="translate(-236.611 -1859.19)" opacity="0.2" style="isolation: isolate"/>
        <path id="Trazado_103912" data-name="Trazado 103912" d="M270.972,1886.542c-.83.08-9.187,2.111-7.083,10.017,8.736,31,3.138,28.392-.633,42.952l32.272,1.682s-2.184-22.255-.772-26.208c2.417-6.647,2.148-11.495-.313-18.163a98.176,98.176,0,0,0-3.764-9.355C287.607,1886.79,277.276,1884.176,270.972,1886.542Z" transform="translate(-228.119 -1857.927)" fill="#6595bf"/>
        <path id="Trazado_103913" data-name="Trazado 103913" d="M273.57,1912.073c-.451-3.917-6.967-18.76-5.678-20.573,1-.531,5.562.066,8.1,2.912C281.782,1907.967,273.57,1912.073,273.57,1912.073Z" transform="translate(-229.335 -1859.492)" opacity="0.2" style="isolation: isolate"/>
        <path id="Trazado_103914" data-name="Trazado 103914" d="M245.658,2091.683l-16.577,12.449c-.677-.321-5.576-5.7-5.576-5.7l14.371-12.187Z" transform="translate(-217.307 -1912.51)" fill="#e29471"/>
        <path id="Trazado_103915" data-name="Trazado 103915" d="M232.633,2112.839a.227.227,0,0,1,0-.233.217.217,0,0,1,.233-.066c.138.044,3.458,1.15,4.128,2.5a1.032,1.032,0,0,1,.087.815.78.78,0,0,1-.662.612c-.6.087-1.456-.612-2.184-1.456A14.9,14.9,0,0,1,232.633,2112.839Zm3.815,2.068a9.167,9.167,0,0,0-3.1-1.791c.9,1.347,2.388,2.985,3.079,2.912.095,0,.218-.058.313-.342a.629.629,0,0,0-.051-.488,2.023,2.023,0,0,0-.233-.328Z" transform="translate(-219.781 -1919.66)" fill="#d9a171"/>
        <path id="Trazado_103916" data-name="Trazado 103916" d="M232.645,2112.231a.219.219,0,0,1,.116-.175c.087-.051,1.98-1.456,3.407-1.23a1.543,1.543,0,0,1,.99.662.727.727,0,0,1,.073.969c-.619.779-3.407.488-4.463,0l-.073-.051Zm3.436-.968a4.8,4.8,0,0,0-2.766.932c1.208.364,3.3.458,3.64,0,0-.044.124-.153-.087-.451l-.109-.073A1.046,1.046,0,0,0,236.081,2111.263Z" transform="translate(-219.793 -1919.19)" fill="#d9a171"/>
        <path id="Trazado_103917" data-name="Trazado 103917" d="M228.149,2107.548l-1.456-.684a6.165,6.165,0,0,1-3.283-3.887l-.568-1.995a.727.727,0,0,0-.932-.182l-6.479,3.094c-.626.35-.415,1.915-.364,1.973,2.846,4.325,9.624,13.1,11.983,15.907s5.431.844,4.717-.517c-3.189-6.087-3.261-9.333-3.16-12.209A2.181,2.181,0,0,0,228.149,2107.548Z" transform="translate(-214.992 -1916.443)" fill="#344154"/>
        <path id="Trazado_103918" data-name="Trazado 103918" d="M250.06,1982.432a19.31,19.31,0,0,0-.1,4.579c.626,8.066,5.737,34.573,7.12,44.809a6.064,6.064,0,0,1-2.33,5.417c-4.674,4.026-12.944,9.464-22.313,22.779.116,5.824.684,6.552,5.97,8.656,0,0,26.565-20.042,30.693-25.917,6.079-8.663,6.217-45.362,6.552-54.927.2-5.431.364-11.9-3.742-15.4C269.621,1970.463,251.6,1967.551,250.06,1982.432Z" transform="translate(-219.736 -1881.111)" fill="#d9a171"/>
        <path id="Trazado_103919" data-name="Trazado 103919" d="M389.2,2068.376l7.411,19.408c-.5.546-6.283,5.489-7.069,3.64-2.417-5.584-13.162-23.849-13.162-23.849Z" transform="translate(-258.888 -1907.432)" fill="#e29471"/>
        <path id="Trazado_103920" data-name="Trazado 103920" d="M405.47,2092.469a.238.238,0,0,1-.24,0,.262.262,0,0,1-.058-.24c.058-.138,1.259-3.422,2.628-4.048a1.025,1.025,0,0,1,.815-.058.764.764,0,0,1,.59.677c.073.6-.655,1.412-1.521,2.126A14.309,14.309,0,0,1,405.47,2092.469Zm2.184-3.742a9.1,9.1,0,0,0-1.856,3.043c1.369-.866,3.058-2.3,3.007-2.992,0-.088-.058-.219-.335-.32a.63.63,0,0,0-.488.036,2.1,2.1,0,0,0-.342.226Z" transform="translate(-266.718 -1913.005)" fill="#d9a171"/>
        <path id="Trazado_103921" data-name="Trazado 103921" d="M404.9,2092.343a.211.211,0,0,1-.175-.124c-.051-.088-1.383-2.024-1.121-3.443a1.535,1.535,0,0,1,.692-.968.728.728,0,0,1,.968-.044c.728.641.379,3.422-.124,4.463l-.051.073Zm-.837-3.48a4.759,4.759,0,0,0,.844,2.788c.4-1.187.561-3.276.087-3.64-.044,0-.153-.124-.459.073l-.073.109A1.024,1.024,0,0,0,404.061,2088.864Z" transform="translate(-266.284 -1912.879)" fill="#d9a171"/>
        <path id="Trazado_103922" data-name="Trazado 103922" d="M400.948,2093.274l-7.826,3.138a.728.728,0,0,0-.444.837l1.063,7.1c.153.728,1.711.954,1.784.925,4.972-1.456,15.346-5.38,18.717-6.807s2.388-4.95.881-4.667c-6.756,1.267-9.879.393-12.6-.546A2.1,2.1,0,0,0,400.948,2093.274Z" transform="translate(-263.317 -1914.377)" fill="#344154"/>
        <path id="Trazado_103923" data-name="Trazado 103923" d="M318.924,2008.018c1.893,1.318,3.684,2.584,5.307,3.771,14.662,10.745,23.012,30.168,28.96,40.768,5.409,2.643,12.929-2.606,15.215-4.222,0,0-16.016-33.976-21.381-41.365-13-17.807-25.924-29.484-45.864-40.659a16.742,16.742,0,0,0-16.955.313,29.355,29.355,0,0,0-5.642,4.244c-.728.786-2.053,5.293,4.077,11.422,5.5,5.5,23.376,16.8,36.254,25.75" transform="translate(-232.107 -1879.303)" fill="#d9a171"/>
        <path id="Trazado_103924" data-name="Trazado 103924" d="M291.657,1990.456c-1.281-2.279.59-9.981.59-9.981s25,24.184,26.208,29.12l-21.476-14.56Z" transform="translate(-235.723 -1883.741)" opacity="0.1" style="isolation: isolate"/>
        <path id="Trazado_103925" data-name="Trazado 103925" d="M359.908,2056.292a.381.381,0,0,1-.306-.16c-.728-1.15-1.5-2.264-2.242-3.312a.366.366,0,1,1,.6-.422c.728,1.063,1.507,2.184,2.257,3.334a.356.356,0,0,1-.1.494l-.012.008A.314.314,0,0,1,359.908,2056.292Z" transform="translate(-253.697 -1903.262)" fill="#d9a171"/>
        <path id="Trazado_103926" data-name="Trazado 103926" d="M348.021,2042.762a.366.366,0,0,1-.291-.138,59.006,59.006,0,0,0-11.648-11.648c-1.522-1.114-3.254-2.344-5.3-3.764a.364.364,0,0,1,.415-.6c2.053,1.456,3.786,2.657,5.314,3.778a59.627,59.627,0,0,1,11.779,11.75.357.357,0,0,1-.284.59Z" transform="translate(-246.448 -1896.276)" fill="#d9a171"/>
        <path id="Trazado_103927" data-name="Trazado 103927" d="M289.779,2066.024h-.109a.372.372,0,0,1-.24-.459c.211-.648.408-1.369.6-2.133a.365.365,0,0,1,.443-.263h0a.356.356,0,0,1,.264.429l0,.007c-.2.779-.4,1.514-.612,2.184A.373.373,0,0,1,289.779,2066.024Z" transform="translate(-235.234 -1906.231)" fill="#d9a171"/>
        <path id="Trazado_103928" data-name="Trazado 103928" d="M271.4,2083.2a.365.365,0,0,1-.233-.648c6.173-5.132,9.966-8.692,11.291-10.57a10.049,10.049,0,0,0,.728-1.172.371.371,0,0,1,.5-.153.363.363,0,0,1,.153.488,10.491,10.491,0,0,1-.728,1.26c-1.354,1.929-5.2,5.533-11.415,10.709A.372.372,0,0,1,271.4,2083.2Z" transform="translate(-230.235 -1908.26)" fill="#d9a171"/>
        <path id="Trazado_103929" data-name="Trazado 103929" d="M286.381,1869.8c.568,2.337,2.694,3.939,4.739,5.2a9.707,9.707,0,0,0,5.212,1.842,5.454,5.454,0,0,0,4.98-5.888c-.008-.09-.017-.181-.03-.271a3.429,3.429,0,0,0,4.769.879,3.489,3.489,0,0,0,.29-.224c1.383-1.339,1.347-3.552,1-5.445a27.569,27.569,0,0,0-8.889-15.558c-1.063,1.391-3.174,1.129-4.135.874a4.3,4.3,0,0,1-.983-.364h0a4.446,4.446,0,0,0-2.788.371h0c-1.347,1.754-1.835,4.04-2.279,6.232q-.815,4.018-1.631,8.044A10.316,10.316,0,0,0,286.381,1869.8Z" transform="translate(-234.377 -1848.343)" fill="#344154"/>
        <path id="Trazado_103930" data-name="Trazado 103930" d="M283.123,1871.2c.146,3.873,0,9.464-3,11.6,0,0-.459,3.873,9.559,9.682,4.7-4.914,2.184-7.848,2.184-7.848-4.062-1.66-3.64-3.356-2.5-6.173Z" transform="translate(-232.707 -1854.017)" fill="#ffb573"/>
        <path id="Trazado_103931" data-name="Trazado 103931" d="M287.387,1875.215l3.64,4.368a11.835,11.835,0,0,0-.684,2.024c-1.58-.481-3.895-2.242-3.968-4.041A5.1,5.1,0,0,1,287.387,1875.215Z" transform="translate(-234.408 -1855.11)" opacity="0.2" style="isolation: isolate"/>
        <path id="Trazado_103932" data-name="Trazado 103932" d="M278.878,1857.548c.728,6.435.9,9.173,4.368,12.311,5.169,4.732,12.915,2.417,14.123-4.106,1.077-5.875-.306-15.448-6.763-17.647a8.831,8.831,0,0,0-11.7,9.464Z" transform="translate(-232.357 -1847.599)" fill="#ffb573"/>
        <path id="Trazado_103933" data-name="Trazado 103933" d="M297.675,1871.856c0,.538.262.975.612.99s.641-.43.655-.961-.262-.983-.612-.99S297.675,1871.317,297.675,1871.856Z" transform="translate(-237.481 -1853.935)" fill="#344154"/>
        <path id="Trazado_103934" data-name="Trazado 103934" d="M293.145,1862.475c0,.524.335.939.677.925s.6-.466.575-.99-.335-.939-.67-.924S293.152,1861.973,293.145,1862.475Z" transform="translate(-236.249 -1851.376)" fill="#344154"/>
        <path id="Trazado_103935" data-name="Trazado 103935" d="M301.3,1862.068c0,.531.335.939.67.924s.6-.466.582-.99-.335-.939-.677-.917S301.26,1861.543,301.3,1862.068Z" transform="translate(-238.467 -1851.267)" fill="#344154"/>
        <path id="Trazado_103936" data-name="Trazado 103936" d="M301.895,1860.975l1.238-.429S302.543,1861.572,301.895,1860.975Z" transform="translate(-238.629 -1851.12)" fill="#344154"/>
        <path id="Trazado_103937" data-name="Trazado 103937" d="M298.855,1863.875a14.547,14.547,0,0,0,2.06,3.261,2.309,2.309,0,0,1-1.864.444Z" transform="translate(-237.802 -1852.026)" fill="#ed893e"/>
        <path id="Trazado_103938" data-name="Trazado 103938" d="M290.443,1859.015a.32.32,0,0,0,.364,0,3.638,3.638,0,0,1,2.868-.575.313.313,0,0,0,.371-.233.306.306,0,0,0-.223-.371h0a4.177,4.177,0,0,0-3.429.728.307.307,0,0,0,0,.43h0Z" transform="translate(-235.477 -1850.355)" fill="#344154"/>
        <path id="Trazado_103939" data-name="Trazado 103939" d="M302.515,1858.09a.321.321,0,0,0,.291-.131.306.306,0,0,0-.063-.428l0,0a3,3,0,0,0-2.81-.51.283.283,0,0,0-.187.355l.005.017h0a.3.3,0,0,0,.38.184l.006,0h0a2.464,2.464,0,0,1,2.184.437A.4.4,0,0,0,302.515,1858.09Z" transform="translate(-238.04 -1850.121)" fill="#344154"/>
        <path id="Trazado_103940" data-name="Trazado 103940" d="M293.725,1861.452l1.245-.437S294.38,1861.976,293.725,1861.452Z" transform="translate(-236.407 -1851.248)" fill="#344154"/>
      </g>
      <path id="Trazado_103941" data-name="Trazado 103941" d="M292.576,1850.027a6.025,6.025,0,0,1-5.576-.619c-.313-.182-.677-.211-.976-.371h0a4.459,4.459,0,0,0-2.8.371h0c-.218.124-2.832,1.187-3.16,5.824-.531,7.455-3.9,5.606-4.368,5.446-1.136-.415-1.74-1.311-2.912-1.157a1.894,1.894,0,0,1-.641,0c.728,2.14,1.507,4.179,2.439,4.637,6.792,3.283,4.783,9.1,2.985,10.025-1.289.669-6.7,1.2-10.687-3.218-1.223,1.114-3.211.852-4.7.08h0a5.314,5.314,0,0,1-2.482-6.552,12.436,12.436,0,0,1,4.521-5.948c1.456-1,3.138-1.725,4.186-3.138a5.657,5.657,0,0,0,.728-1.347c.284-.728.626-1.492.961-2.228a1.773,1.773,0,0,0,.1-.35,10.322,10.322,0,0,1,2.723-4.317c1.864-1.82,5.911-3.233,9.253-3.312C286.016,1843.722,291.061,1846.474,292.576,1850.027Z" transform="translate(-227.06 -1829.323)" fill="#344154"/>
      <path id="Trazado_103942" data-name="Trazado 103942" d="M273.655,1858.824c.051-.531.073-.99.08-1.179A9.381,9.381,0,0,0,273.655,1858.824Z" transform="translate(-230.948 -1833.075)" fill="#344154"/>
      <path id="Trazado_103943" data-name="Trazado 103943" d="M276.742,1867.075a4.662,4.662,0,0,0,2.49,2.519c1.514.612,2.461-.728,2.184-2.228-.248-1.376-1.318-3.356-2.912-3.342a2.09,2.09,0,0,0-2.01,2.166v.018A1.992,1.992,0,0,0,276.742,1867.075Z" transform="translate(-231.72 -1834.81)" fill="#ffb573"/>
      <path id="Trazado_103944" data-name="Trazado 103944" d="M302.015,1875.973a6.846,6.846,0,0,0,4.725-2.686c2.912-4.543-1.944-16.293-7.826-22.372l-.24.306c5.824,5.984,10.622,17.472,7.782,21.92-1.958,3.05-7.469,2.912-9.246,2.577l-.066.357A15.281,15.281,0,0,0,302.015,1875.973Z" transform="translate(-237.337 -1831.245)" fill="#344154"/>
      <path id="Trazado_103945" data-name="Trazado 103945" d="M273.929,1855.639l.357-.066a9.269,9.269,0,0,1,2.344-7.447c2.111-2.585,5.176-4.368,7.622-4.368,2.81-.051,6.843.961,9.071,3.305l.262-.248c-2.3-2.432-6.45-3.473-9.34-3.422-2.548.044-5.722,1.864-7.892,4.521A9.512,9.512,0,0,0,273.929,1855.639Z" transform="translate(-230.989 -1829.198)" fill="#344154"/>
      <path id="Trazado_103946" data-name="Trazado 103946" d="M259.505,1875.386a45.708,45.708,0,0,0,5.824,4.186,12.873,12.873,0,0,0,6.29,2.184,7.439,7.439,0,0,0,1.565-.117,6.146,6.146,0,0,0,4.273-2.766,4.737,4.737,0,0,0,.43-3.64,3.777,3.777,0,0,0-1.842-2.388l-.16.313a3.469,3.469,0,0,1,1.667,2.184,4.365,4.365,0,0,1-.4,3.364,6.167,6.167,0,0,1-5.46,2.722,12.555,12.555,0,0,1-6.115-2.125,45.674,45.674,0,0,1-5.962-4.273Z" transform="translate(-227.099 -1837.209)" fill="#344154"/>
      <path id="Trazado_103947" data-name="Trazado 103947" d="M265.645,1893.411c.641,4.812,5.97,25.422,7.054,27.773.153.32.306.648.488.975s.357.663.582,1.012l.335.539c.16.226.32.466.488.662a12.475,12.475,0,0,0,1.019,1.121,14.814,14.814,0,0,0,4.135,2.665,31.975,31.975,0,0,0,7.673,2.22,64.505,64.505,0,0,0,14.691.728l.255-5.1-3.327-.728c-1.114-.247-2.22-.531-3.32-.786-2.184-.546-4.368-1.121-6.421-1.813a43.352,43.352,0,0,1-6.843-2.417,6.33,6.33,0,0,1-1.631-1.31,1.288,1.288,0,0,1-.131-.2.2.2,0,0,1,0-.058l-.109-.211c-.087-.175-.167-.357-.24-.539s-5.453-22.051-6.188-26.5Z" transform="translate(-228.769 -1842.269)" fill="#ffb573"/>
      <path id="Trazado_103948" data-name="Trazado 103948" d="M314.865,1937.806a21.24,21.24,0,0,1,3.538-3.509,4.281,4.281,0,0,1,2.053-.917c2.359-.364,4.848-.728,4.936,3.6h0c0,.109.553,1.944.561,2.046.2,2.381-2.082,2.745-4.463,2.948l-6.355.437Z" transform="translate(-242.157 -1853.62)" fill="#ffb573"/>
      <path id="Trazado_103949" data-name="Trazado 103949" d="M276.814,1892.284c2.242,7.316-.459,7.229-.189,11.692l-8.947,2.228s-4.914-4.135-5.657-9.369a8.342,8.342,0,0,1,9.8-9.231A6.267,6.267,0,0,1,276.814,1892.284Z" transform="translate(-227.766 -1841.186)" fill="#6595bf"/>
      <rect id="Rectángulo_5665" data-name="Rectángulo 5665" width="2.803" height="0.808" transform="matrix(0.975, -0.221, 0.221, 0.975, 44.809, 61.494)" fill="#d9a171"/>
      <rect id="Rectángulo_5666" data-name="Rectángulo 5666" width="3.028" height="0.808" transform="translate(40.4 62.906) rotate(-18.49)" fill="#d9a171"/>
      <rect id="Rectángulo_5667" data-name="Rectángulo 5667" width="2.519" height="0.728" transform="translate(71.488 62.212) rotate(-12.46)" fill="#d9a171"/>
      <path id="Trazado_103950" data-name="Trazado 103950" d="M339.321,1924.438a6.254,6.254,0,0,0-.182,7.957l.182.233v1.267H298.655v-10.92h40.666Z" transform="translate(-237.748 -1850.845)" fill="#d9a171"/>
      <path id="Trazado_103951" data-name="Trazado 103951" d="M347.854,1924.438a6.254,6.254,0,0,0-.182,7.957l.182.233v1.267H330.025v-10.92h17.829Z" transform="translate(-246.281 -1850.845)" opacity="0.1" style="isolation: isolate"/>
      <path id="Trazado_103952" data-name="Trazado 103952" d="M348.378,1932.942l.182.233H332.675v-8.19h15.9a6.254,6.254,0,0,0-.182,7.957Z" transform="translate(-247.001 -1851.392)" fill="#344154"/>
      <path id="Trazado_103953" data-name="Trazado 103953" d="M348.378,1932.942l.182.233H332.675v-8.19h15.9a6.254,6.254,0,0,0-.182,7.957Z" transform="translate(-247.001 -1851.392)" fill="#fff" opacity="0.9" style="isolation: isolate"/>
      <path id="Trazado_103954" data-name="Trazado 103954" d="M326.423,1930.049a2.184,2.184,0,1,1-2.184-2.184h0A2.184,2.184,0,0,1,326.423,1930.049Z" transform="translate(-244.113 -1852.175)" fill="#fff"/>
      <path id="Trazado_103955" data-name="Trazado 103955" d="M326.1,1930.226a1.711,1.711,0,1,1-1.711-1.711,1.711,1.711,0,0,1,1.711,1.711Z" transform="translate(-244.281 -1852.352)" fill="#344154"/>
      <rect id="Rectángulo_5668" data-name="Rectángulo 5668" width="9.486" height="6.05" transform="translate(62.007 74.54)" fill="#fff"/>
      <rect id="Rectángulo_5669" data-name="Rectángulo 5669" width="4.084" height="6.05" transform="translate(71.936 74.54)" fill="#fff"/>
      <path id="Trazado_103956" data-name="Trazado 103956" d="M332.675,1932.667v-.728a2.184,2.184,0,1,0,0-4.324v-.728a2.912,2.912,0,1,1,0,5.78Z" transform="translate(-247.001 -1851.903)" fill="#344154"/>
      <rect id="Rectángulo_5670" data-name="Rectángulo 5670" width="14.567" height="0.364" transform="translate(85.674 75.981)" fill="#fff"/>
      <rect id="Rectángulo_5671" data-name="Rectángulo 5671" width="14.567" height="0.364" transform="translate(85.674 76.411)" fill="#fff"/>
      <rect id="Rectángulo_5672" data-name="Rectángulo 5672" width="14.567" height="0.364" transform="translate(85.674 76.833)" fill="#fff"/>
      <rect id="Rectángulo_5673" data-name="Rectángulo 5673" width="14.567" height="0.364" transform="translate(85.674 77.262)" fill="#fff"/>
      <rect id="Rectángulo_5674" data-name="Rectángulo 5674" width="14.567" height="0.364" transform="translate(85.674 77.692)" fill="#fff"/>
      <rect id="Rectángulo_5675" data-name="Rectángulo 5675" width="14.567" height="0.364" transform="translate(85.674 78.121)" fill="#fff"/>
      <rect id="Rectángulo_5676" data-name="Rectángulo 5676" width="14.567" height="0.364" transform="translate(85.674 78.551)" fill="#fff"/>
      <rect id="Rectángulo_5677" data-name="Rectángulo 5677" width="14.567" height="0.364" transform="translate(85.674 78.981)" fill="#fff"/>
      <rect id="Rectángulo_5678" data-name="Rectángulo 5678" width="14.567" height="0.364" transform="translate(85.674 79.403)" fill="#fff"/>
      <path id="Trazado_103957" data-name="Trazado 103957" d="M345.411,1909.155a6.254,6.254,0,0,0-.182,7.957l.182.233v1.267H304.745v-10.957h40.666Z" transform="translate(-239.404 -1846.678)" fill="#6595bf"/>
      <path id="Trazado_103958" data-name="Trazado 103958" d="M353.944,1909.155a6.254,6.254,0,0,0-.182,7.957l.182.233v1.267H336.115v-10.957h17.829Z" transform="translate(-247.937 -1846.678)" opacity="0.1" style="isolation: isolate"/>
      <path id="Trazado_103959" data-name="Trazado 103959" d="M354.483,1917.672l.182.233h-15.9v-8.19h15.9A6.254,6.254,0,0,0,354.483,1917.672Z" transform="translate(-248.658 -1847.238)" fill="#344154"/>
      <path id="Trazado_103960" data-name="Trazado 103960" d="M354.483,1917.672l.182.233h-15.9v-8.19h15.9A6.254,6.254,0,0,0,354.483,1917.672Z" transform="translate(-248.658 -1847.238)" fill="#fff" opacity="0.9" style="isolation: isolate"/>
      <path id="Trazado_103961" data-name="Trazado 103961" d="M332.513,1914.779a2.184,2.184,0,1,1-2.184-2.184A2.184,2.184,0,0,1,332.513,1914.779Z" transform="translate(-245.769 -1848.021)" fill="#fff"/>
      <path id="Trazado_103962" data-name="Trazado 103962" d="M332.187,1914.956a1.711,1.711,0,1,1-1.711-1.711,1.711,1.711,0,0,1,1.711,1.711Z" transform="translate(-245.938 -1848.198)" fill="#344154"/>
      <rect id="Rectángulo_5679" data-name="Rectángulo 5679" width="9.486" height="6.05" transform="translate(66.44 63.416)" fill="#fff"/>
      <rect id="Rectángulo_5680" data-name="Rectángulo 5680" width="4.084" height="6.05" transform="translate(76.37 63.416)" fill="#fff"/>
      <path id="Trazado_103963" data-name="Trazado 103963" d="M338.765,1917.405v-.728a2.184,2.184,0,0,0,0-4.324v-.728a2.912,2.912,0,0,1,0,5.78Z" transform="translate(-248.658 -1847.757)" fill="#344154"/>
      <rect id="Rectángulo_5681" data-name="Rectángulo 5681" width="14.567" height="0.364" transform="translate(90.107 64.865)" fill="#fff"/>
      <rect id="Rectángulo_5682" data-name="Rectángulo 5682" width="14.567" height="0.364" transform="translate(90.107 65.294)" fill="#fff"/>
      <rect id="Rectángulo_5683" data-name="Rectángulo 5683" width="14.567" height="0.364" transform="translate(90.107 65.716)" fill="#fff"/>
      <rect id="Rectángulo_5684" data-name="Rectángulo 5684" width="14.567" height="0.364" transform="translate(90.107 66.146)" fill="#fff"/>
      <rect id="Rectángulo_5685" data-name="Rectángulo 5685" width="14.567" height="0.364" transform="translate(90.107 66.575)" fill="#fff"/>
      <rect id="Rectángulo_5686" data-name="Rectángulo 5686" width="14.567" height="0.364" transform="translate(90.107 67.005)" fill="#fff"/>
      <rect id="Rectángulo_5687" data-name="Rectángulo 5687" width="14.567" height="0.364" transform="translate(90.107 67.434)" fill="#fff"/>
      <rect id="Rectángulo_5688" data-name="Rectángulo 5688" width="14.567" height="0.364" transform="translate(90.107 67.857)" fill="#fff"/>
      <rect id="Rectángulo_5689" data-name="Rectángulo 5689" width="14.567" height="0.364" transform="translate(90.107 68.286)" fill="#fff"/>
      <path id="Trazado_103964" data-name="Trazado 103964" d="M332.735,1834.174a88.819,88.819,0,0,0,25.116-.146,1.705,1.705,0,0,0,1.281-.611c.379-.626-.153-1.383-.59-1.966a9.626,9.626,0,0,1-1.711-7.557,40.13,40.13,0,0,1-22.379,10.192Z" transform="translate(-247.018 -1823.895)" fill="#d9a171"/>
      <path id="Trazado_103965" data-name="Trazado 103965" d="M332.735,1834.174a88.819,88.819,0,0,0,25.116-.146,1.705,1.705,0,0,0,1.281-.611c.379-.626-.153-1.383-.59-1.966a9.626,9.626,0,0,1-1.711-7.557,40.13,40.13,0,0,1-22.379,10.192Z" transform="translate(-247.018 -1823.895)" fill="#fff" opacity="0.4" style="isolation: isolate"/>
      <rect id="Rectángulo_5690" data-name="Rectángulo 5690" width="36.371" height="9.042" transform="translate(66.877 51.972)" fill="#d9a171"/>
      <rect id="Rectángulo_5691" data-name="Rectángulo 5691" width="36.371" height="9.042" transform="translate(67.001 52.008)" fill="#fff" opacity="0.6" style="isolation: isolate"/>
      <rect id="Rectángulo_5692" data-name="Rectángulo 5692" width="27.912" height="9.042" transform="translate(66.884 52.008)" fill="#fff" opacity="0.6" style="isolation: isolate"/>
      <path id="Trazado_103966" data-name="Trazado 103966" d="M307.1,1906.017l36.2,1.128-.044-.917-36.167-.473Z" transform="translate(-240.041 -1846.161)" fill="#d9a171"/>
      <path id="Trazado_103967" data-name="Trazado 103967" d="M343.323,1899.616l-36.138-2.031v.306l36.138,2.417Z" transform="translate(-240.068 -1843.938)" fill="#d9a171"/>
      <path id="Trazado_103968" data-name="Trazado 103968" d="M343.323,1896.625l-36.138.83v.291l36.138-.437Z" transform="translate(-240.068 -1843.678)" fill="#d9a171"/>
      <path id="Trazado_103969" data-name="Trazado 103969" d="M343.461,1902.589l-36.145,1.762v-.269l36.145-2.1Z" transform="translate(-240.104 -1845.135)" fill="#d9a171"/>
      <path id="Trazado_103970" data-name="Trazado 103970" d="M306.985,1895.445l36.138.029v.3H306.985Z" transform="translate(-240.014 -1843.357)" fill="#d9a171"/>
      <rect id="Rectángulo_5693" data-name="Rectángulo 5693" width="36.371" height="9.042" transform="translate(69.49 25.036)" fill="#d9a171"/>
      <rect id="Rectángulo_5694" data-name="Rectángulo 5694" width="36.371" height="9.042" transform="translate(69.607 25.079)" fill="#fff" opacity="0.6" style="isolation: isolate"/>
      <rect id="Rectángulo_5695" data-name="Rectángulo 5695" width="27.912" height="9.042" transform="translate(69.498 25.079)" fill="#fff" opacity="0.6" style="isolation: isolate"/>
      <path id="Trazado_103971" data-name="Trazado 103971" d="M310.68,1869.027l36.2,1.121-.044-.917-36.167-.466Z" transform="translate(-241.015 -1836.1)" fill="#d9a171"/>
      <path id="Trazado_103972" data-name="Trazado 103972" d="M346.9,1862.623l-36.138-2.039v.306l36.138,2.417Z" transform="translate(-241.042 -1833.875)" fill="#d9a171"/>
      <path id="Trazado_103973" data-name="Trazado 103973" d="M346.9,1859.625l-36.138.83v.3l36.138-.437Z" transform="translate(-241.042 -1833.613)" fill="#d9a171"/>
      <path id="Trazado_103974" data-name="Trazado 103974" d="M347.041,1865.6l-36.145,1.754v-.262l36.145-2.1Z" transform="translate(-241.077 -1835.074)" fill="#d9a171"/>
      <rect id="Rectángulo_5696" data-name="Rectángulo 5696" width="36.371" height="9.042" transform="translate(69.039 42.799)" fill="#d9a171"/>
      <rect id="Rectángulo_5697" data-name="Rectángulo 5697" width="36.371" height="9.042" transform="translate(69.156 42.835)" fill="#fff" opacity="0.6" style="isolation: isolate"/>
      <rect id="Rectángulo_5698" data-name="Rectángulo 5698" width="27.912" height="9.042" transform="translate(69.119 42.843)" fill="#fff" opacity="0.6" style="isolation: isolate"/>
      <path id="Trazado_103975" data-name="Trazado 103975" d="M346.036,1893.165l-36.167.473-.044.917,36.189-1.128Z" transform="translate(-240.786 -1842.736)" fill="#d9a171"/>
      <path id="Trazado_103976" data-name="Trazado 103976" d="M310.145,1882.845l36.138.029v.3H310.145Z" transform="translate(-240.873 -1839.929)" fill="#d9a171"/>
      <path id="Trazado_103977" data-name="Trazado 103977" d="M309.825,1887.71l36.138-2.417v-.3l-36.138,2.031Z" transform="translate(-240.786 -1840.514)" fill="#d9a171"/>
      <path id="Trazado_103978" data-name="Trazado 103978" d="M346.283,1884.035l-36.138.823v.3l36.138-.437Z" transform="translate(-240.873 -1840.253)" fill="#d9a171"/>
      <path id="Trazado_103979" data-name="Trazado 103979" d="M346.421,1890l-36.145,1.762v-.269l36.145-2.1Z" transform="translate(-240.909 -1841.711)" fill="#d9a171"/>
      <path id="Trazado_103980" data-name="Trazado 103980" d="M344.453,1870.975l-36.356.182-.051,8.86h36.407Z" transform="translate(-240.302 -1836.701)" fill="#d9a171"/>
      <rect id="Rectángulo_5699" data-name="Rectángulo 5699" width="36.371" height="9.042" transform="translate(67.78 34.274)" fill="#fff" opacity="0.6" style="isolation: isolate"/>
      <rect id="Rectángulo_5700" data-name="Rectángulo 5700" width="27.912" height="9.042" transform="translate(67.743 34.274)" fill="#fff" opacity="0.6" style="isolation: isolate"/>
      <path id="Trazado_103981" data-name="Trazado 103981" d="M337.075,1871.225h-28.96v.925h28.334Z" transform="translate(-240.321 -1836.769)" fill="#d9a171"/>
      <path id="Trazado_103982" data-name="Trazado 103982" d="M344.26,1876.314l-36.145.335v.269H344.26Z" transform="translate(-240.321 -1838.153)" fill="#d9a171"/>
      <path id="Trazado_103983" data-name="Trazado 103983" d="M308.115,1881.406l36.145-1.762v.262l-36.145,2.1Z" transform="translate(-240.321 -1839.059)" fill="#d9a171"/>
      <path id="Trazado_103984" data-name="Trazado 103984" d="M308.115,1877.395l36.145.721v.255l-36.145-.379Z" transform="translate(-240.321 -1838.447)" fill="#d9a171"/>
      <rect id="Rectángulo_5701" data-name="Rectángulo 5701" width="36.138" height="4.55" transform="translate(77.295 14.603)" fill="#d9a171"/>
      <rect id="Rectángulo_5702" data-name="Rectángulo 5702" width="36.138" height="4.55" transform="translate(77.295 14.603)" fill="#fff" opacity="0.6" style="isolation: isolate"/>
      <rect id="Rectángulo_5703" data-name="Rectángulo 5703" width="28.792" height="4.55" transform="translate(77.295 14.603)" fill="#fff" opacity="0.6" style="isolation: isolate"/>
      <path id="Trazado_103985" data-name="Trazado 103985" d="M357.333,1848.395l-36.138.175v.138h36.138Z" transform="translate(-243.879 -1830.559)" fill="#d9a171"/>
      <path id="Trazado_103986" data-name="Trazado 103986" d="M321.2,1845.712l36.138-.917v.138l-36.138,1.092Z" transform="translate(-243.879 -1829.58)" fill="#d9a171"/>
      <path id="Trazado_103987" data-name="Trazado 103987" d="M321.035,1845.715l36.138.371v.138l-36.138-.2Z" transform="translate(-243.835 -1829.83)" fill="#d9a171"/>
      <rect id="Rectángulo_5704" data-name="Rectángulo 5704" width="36.138" height="2.191" transform="translate(72.242 12.601)" fill="#d9a171"/>
      <rect id="Rectángulo_5705" data-name="Rectángulo 5705" width="36.138" height="2.177" transform="translate(72.242 12.616)" fill="#fff" opacity="0.6" style="isolation: isolate"/>
      <rect id="Rectángulo_5706" data-name="Rectángulo 5706" width="28.8" height="2.315" transform="translate(72.242 12.485)" fill="#fff" opacity="0.6" style="isolation: isolate"/>
      <path id="Trazado_103988" data-name="Trazado 103988" d="M314.245,1843.152l36.138-.917v.138l-36.138,1.092Z" transform="translate(-241.988 -1828.883)" fill="#d9a171"/>
      <path id="Trazado_103989" data-name="Trazado 103989" d="M314.245,1841.985l36.138.371v.138l-36.138-.2Z" transform="translate(-241.988 -1828.816)" fill="#d9a171"/>
      <rect id="Rectángulo_5707" data-name="Rectángulo 5707" width="36.138" height="2.191" transform="translate(75.606 10.359)" fill="#d9a171"/>
      <rect id="Rectángulo_5708" data-name="Rectángulo 5708" width="36.138" height="2.177" transform="translate(75.606 10.374)" fill="#fff" opacity="0.6" style="isolation: isolate"/>
      <rect id="Rectángulo_5709" data-name="Rectángulo 5709" width="28.792" height="2.315" transform="translate(75.606 10.243)" fill="#fff" opacity="0.6" style="isolation: isolate"/>
      <path id="Trazado_103990" data-name="Trazado 103990" d="M318.87,1839.485l36.145.437-.007.146-36.152-.269Z" transform="translate(-243.242 -1828.135)" fill="#d9a171"/>
      <path id="Trazado_103991" data-name="Trazado 103991" d="M318.875,1838.9l36.131.371v.138l-36.131-.2Z" transform="translate(-243.248 -1827.978)" fill="#d9a171"/>
      <rect id="Rectángulo_5710" data-name="Rectángulo 5710" width="36.138" height="5.86" transform="translate(74.856 19.161)" fill="#d9a171"/>
      <rect id="Rectángulo_5711" data-name="Rectángulo 5711" width="36.138" height="5.86" transform="translate(74.856 19.161)" fill="#fff" opacity="0.6" style="isolation: isolate"/>
      <rect id="Rectángulo_5712" data-name="Rectángulo 5712" width="27.882" height="5.86" transform="translate(74.856 19.161)" fill="#fff" opacity="0.6" style="isolation: isolate"/>
      <path id="Trazado_103992" data-name="Trazado 103992" d="M353.633,1852.579l-36.138-.2v-.16h36.138Z" transform="translate(-242.872 -1831.598)" fill="#d9a171"/>
      <path id="Trazado_103993" data-name="Trazado 103993" d="M317.835,1853.751l36.138,1.055v-.16l-36.138-1.252Z" transform="translate(-242.965 -1831.919)" fill="#d9a171"/>
      <path id="Trazado_103994" data-name="Trazado 103994" d="M354.74,1850.215H320.655l.757.728H354.74Z" transform="translate(-243.732 -1831.054)" fill="#d9a171"/>
      <path id="Trazado_103995" data-name="Trazado 103995" d="M318.005,1856.8l36.138-.437v-.153l-36.138.226Z" transform="translate(-243.011 -1832.686)" fill="#d9a171"/>
    </g>
  </g>
</svg>
