<svg xmlns="http://www.w3.org/2000/svg" xmlns:xlink="http://www.w3.org/1999/xlink" width="471.751" height="328.986" viewBox="0 0 471.751 328.986">
  <defs>
    <clipPath id="clip-path">
      <rect id="Rectángulo_5726" data-name="Rectángulo 5726" width="303.162" height="223.565" fill="none"/>
    </clipPath>
  </defs>
  <g id="Grupo_59717" data-name="Grupo 59717" transform="translate(1469.962 -2421.139)">
    <g id="Grupo_59467" data-name="Grupo 59467" transform="translate(-1060.222 2559.433)">
      <g id="Grupo_59445" data-name="Grupo 59445">
        <g id="Grupo_59430" data-name="Grupo 59430">
          <path id="Trazado_103996" data-name="Trazado 103996" d="M-936.618,2592.264s-6.831-.491-6.2,14.834,2.192,23.487,2.192,23.487-.2,3.4-2.832,2.731-7.582-3.974-10.027-1.5c-2.535,2.564-1.634,6.5,1.73,11.127s10.36,15.05,10.989,15.994c.617.927.866,2.666-1,2.5s-14.457-4.434-16.125,1.662,9.823,17.459,11.055,18.726,1.3,2.066.8,2.832-4.6-1.068-8.228-2.135-8.028-1.667-8.7,1.93,4.394,14.127,23.347,25.193l9.118,4.552,8.63-5.505c17.752-12.906,21.734-23.888,20.71-27.4s-5.339-2.476-8.845-1.051-7.4,3.659-7.973,2.947-.588-1.515.512-2.9,11.4-13.839,9.127-19.738-14.371-.394-16.21-.04-1.767-1.4-1.245-2.386c.531-1,6.451-12.068,9.335-17.013s3.387-8.947.607-11.244c-2.679-2.215-7.274,1.57-9.827,2.5s-3.091-2.435-3.091-2.435.739-8.278-.168-23.589-7.819-14.075-7.819-14.075" transform="translate(963.02 -2592.24)" fill="#375a64"/>
        </g>
        <g id="Grupo_59432" data-name="Grupo 59432" transform="translate(26.94 13.75)">
          <g id="Grupo_59431" data-name="Grupo 59431">
            <path id="Trazado_103997" data-name="Trazado 103997" d="M-929.687,2609.252s.018.108.036.32l.073.94c.057.844.14,2.061.246,3.619.209,3.143.478,7.693.788,13.317.626,11.247,1.355,26.791,2.105,43.96s1.442,32.721,2,43.97c.285,5.613.516,10.16.677,13.321.078,1.561.138,2.778.18,3.623q.024.6.038.942c.006.213,0,.322,0,.322s-.018-.108-.036-.319c-.018-.227-.041-.539-.073-.941-.057-.844-.14-2.059-.245-3.619-.209-3.142-.478-7.692-.789-13.316-.625-11.247-1.355-26.792-2.105-43.968s-1.442-32.713-2-43.962c-.285-5.613-.517-10.161-.677-13.322l-.18-3.623c-.016-.4-.029-.716-.038-.943S-929.687,2609.252-929.687,2609.252Z" transform="translate(929.689 -2609.252)" fill="#e1e1e1"/>
          </g>
        </g>
        <g id="Grupo_59434" data-name="Grupo 59434" transform="translate(16.271 44.478)">
          <g id="Grupo_59433" data-name="Grupo 59433">
            <path id="Trazado_103998" data-name="Trazado 103998" d="M-942.888,2647.271a3,3,0,0,1,.567.472c.351.319.843.8,1.446,1.39,1.2,1.191,2.822,2.881,4.572,4.78l4.459,4.879,1.358,1.472a2.982,2.982,0,0,1,.474.564,3.061,3.061,0,0,1-.571-.468c-.35-.32-.843-.8-1.44-1.4-1.191-1.2-2.787-2.915-4.537-4.813l-4.493-4.845-1.365-1.465A2.981,2.981,0,0,1-942.888,2647.271Z" transform="translate(942.889 -2647.27)" fill="#e1e1e1"/>
          </g>
        </g>
        <g id="Grupo_59436" data-name="Grupo 59436" transform="translate(30.053 42.381)">
          <g id="Grupo_59435" data-name="Grupo 59435">
            <path id="Trazado_103999" data-name="Trazado 103999" d="M-925.836,2660.031c-.069-.068,3.265-3.561,7.446-7.8s7.628-7.622,7.7-7.555-3.265,3.56-7.447,7.8S-925.768,2660.1-925.836,2660.031Z" transform="translate(925.837 -2644.676)" fill="#e1e1e1"/>
          </g>
        </g>
        <g id="Grupo_59438" data-name="Grupo 59438" transform="translate(30.016 74.187)">
          <g id="Grupo_59437" data-name="Grupo 59437">
            <path id="Trazado_104000" data-name="Trazado 104000" d="M-925.883,2694a3.185,3.185,0,0,1,.635-.4l1.784-1c1.5-.845,3.579-2.02,5.821-3.4s4.237-2.686,5.671-3.646l1.7-1.135a3.138,3.138,0,0,1,.648-.384,3.094,3.094,0,0,1-.569.494c-.38.3-.938.722-1.639,1.227-1.4,1.014-3.376,2.364-5.629,3.742s-4.349,2.526-5.887,3.319c-.77.393-1.4.7-1.838.9A3.114,3.114,0,0,1-925.883,2694Z" transform="translate(925.883 -2684.027)" fill="#e1e1e1"/>
          </g>
        </g>
        <g id="Grupo_59440" data-name="Grupo 59440" transform="translate(14.91 74.909)">
          <g id="Grupo_59439" data-name="Grupo 59439">
            <path id="Trazado_104001" data-name="Trazado 104001" d="M-944.572,2684.922a2.665,2.665,0,0,1,.631.3c.394.21.959.524,1.653.918,1.388.789,3.293,1.9,5.386,3.144s3.98,2.389,5.335,3.232c.678.422,1.224.768,1.6,1.015a2.694,2.694,0,0,1,.561.412,2.687,2.687,0,0,1-.63-.3c-.394-.21-.959-.524-1.653-.918-1.388-.789-3.294-1.9-5.387-3.145s-3.979-2.389-5.334-3.231c-.678-.422-1.224-.768-1.6-1.015A2.717,2.717,0,0,1-944.572,2684.922Z" transform="translate(944.573 -2684.92)" fill="#e1e1e1"/>
          </g>
        </g>
        <g id="Grupo_59442" data-name="Grupo 59442" transform="translate(11.914 98.231)">
          <g id="Grupo_59441" data-name="Grupo 59441">
            <path id="Trazado_104002" data-name="Trazado 104002" d="M-948.279,2713.777a4.427,4.427,0,0,1,.8.389l2.122,1.17c1.784,1,4.237,2.406,6.935,3.976s5.133,3.008,6.885,4.065l2.066,1.267a4.422,4.422,0,0,1,.734.5,4.279,4.279,0,0,1-.8-.388l-2.122-1.171c-1.784-1-4.237-2.406-6.936-3.976s-5.132-3.008-6.884-4.064l-2.066-1.267A4.324,4.324,0,0,1-948.279,2713.777Z" transform="translate(948.28 -2713.775)" fill="#e1e1e1"/>
          </g>
        </g>
        <g id="Grupo_59444" data-name="Grupo 59444" transform="translate(31.067 95.992)">
          <g id="Grupo_59443" data-name="Grupo 59443">
            <path id="Trazado_104003" data-name="Trazado 104003" d="M-924.583,2724.213a5.15,5.15,0,0,1,.793-.531l2.216-1.349c1.87-1.14,4.449-2.723,7.247-4.548s5.295-3.536,7.092-4.789l2.131-1.48a4.951,4.951,0,0,1,.806-.511,5,5,0,0,1-.725.62c-.481.382-1.186.921-2.068,1.572-1.763,1.3-4.239,3.054-7.046,4.88s-5.407,3.381-7.312,4.468c-.954.541-1.73.971-2.274,1.255A4.934,4.934,0,0,1-924.583,2724.213Z" transform="translate(924.583 -2711.004)" fill="#e1e1e1"/>
          </g>
        </g>
      </g>
      <g id="Grupo_59466" data-name="Grupo 59466" transform="translate(19.546 124.937)">
        <g id="Grupo_59447" data-name="Grupo 59447">
          <g id="Grupo_59446" data-name="Grupo 59446">
            <path id="Trazado_104004" data-name="Trazado 104004" d="M-913.612,2746.816h-25.225l8.233,62.323h8.759Z" transform="translate(938.837 -2746.816)" fill="#e1e1e1"/>
          </g>
        </g>
        <g id="Grupo_59450" data-name="Grupo 59450" transform="translate(1.307 5.092)">
          <g id="Grupo_59449" data-name="Grupo 59449">
            <g id="Grupo_59448" data-name="Grupo 59448">
              <path id="Trazado_104005" data-name="Trazado 104005" d="M-937.218,2755.685c-.01.006.028.088.135.222a1.588,1.588,0,0,0,.609.435,3.051,3.051,0,0,0,2.664-.326c1.018-.562,1.906-1.666,3.271-2.153a7.153,7.153,0,0,1,4.639.092,19.839,19.839,0,0,1,4.319,2.093,30,30,0,0,0,3.513,1.885,9.712,9.712,0,0,0,2.591.749,4.643,4.643,0,0,0,.732.049c.167,0,.255-.006.255-.021a13.165,13.165,0,0,1-3.46-1.042,34.667,34.667,0,0,1-3.435-1.944,19.161,19.161,0,0,0-4.393-2.161,7.41,7.41,0,0,0-4.9-.053,6.457,6.457,0,0,0-1.843,1.139,14.464,14.464,0,0,1-1.444,1.119,2.967,2.967,0,0,1-2.457.426A2.537,2.537,0,0,1-937.218,2755.685Z" transform="translate(937.22 -2753.115)" fill="#aed3f2"/>
            </g>
          </g>
        </g>
        <g id="Grupo_59453" data-name="Grupo 59453" transform="translate(2.227 14.565)">
          <g id="Grupo_59452" data-name="Grupo 59452">
            <g id="Grupo_59451" data-name="Grupo 59451">
              <path id="Trazado_104006" data-name="Trazado 104006" d="M-936.08,2769.411c.034.021.2-.257.594-.669a5.638,5.638,0,0,1,2.015-1.278,9,9,0,0,1,3.508-.528,36.815,36.815,0,0,1,4.39.6,15.079,15.079,0,0,0,4.494.186,12.365,12.365,0,0,0,3.537-1.01,11.278,11.278,0,0,0,2.127-1.264,3.041,3.041,0,0,0,.673-.606,22.488,22.488,0,0,1-2.916,1.6,12.887,12.887,0,0,1-3.466.9,15.46,15.46,0,0,1-4.384-.216,32.94,32.94,0,0,0-4.443-.57,8.876,8.876,0,0,0-3.628.637,5.29,5.29,0,0,0-2.024,1.439,3.616,3.616,0,0,0-.382.56C-936.059,2769.329-936.092,2769.4-936.08,2769.411Z" transform="translate(936.082 -2764.836)" fill="#aed3f2"/>
            </g>
          </g>
        </g>
        <g id="Grupo_59456" data-name="Grupo 59456" transform="translate(3.657 23.545)">
          <g id="Grupo_59455" data-name="Grupo 59455">
            <g id="Grupo_59454" data-name="Grupo 59454">
              <path id="Trazado_104007" data-name="Trazado 104007" d="M-915.6,2777.686a2.147,2.147,0,0,0-.7-.36,7.444,7.444,0,0,0-2.091-.448,13.288,13.288,0,0,0-3.16.181c-1.177.19-2.438.515-3.762.8a15.82,15.82,0,0,1-3.757.425,8.2,8.2,0,0,1-2.982-.645,6.892,6.892,0,0,1-2.262-1.684,1.963,1.963,0,0,0,.428.659,5.331,5.331,0,0,0,1.713,1.289,8.034,8.034,0,0,0,3.088.76,15.129,15.129,0,0,0,3.858-.4c1.339-.285,2.591-.619,3.742-.826a14.443,14.443,0,0,1,3.079-.263A11.613,11.613,0,0,1-915.6,2777.686Z" transform="translate(934.313 -2775.947)" fill="#aed3f2"/>
            </g>
          </g>
        </g>
        <g id="Grupo_59459" data-name="Grupo 59459" transform="translate(4.458 32.462)">
          <g id="Grupo_59458" data-name="Grupo 59458">
            <g id="Grupo_59457" data-name="Grupo 59457">
              <path id="Trazado_104008" data-name="Trazado 104008" d="M-933.321,2788.444a4.093,4.093,0,0,1,2.449-.246,11.834,11.834,0,0,1,2.562.954,9.725,9.725,0,0,0,3.326.917,9.981,9.981,0,0,0,6.034-1.4,8.547,8.547,0,0,0,1.5-1.155c.307-.327.465-.515.445-.534a22.135,22.135,0,0,1-2.093,1.437,10.341,10.341,0,0,1-5.852,1.241c-2.388-.137-4.221-1.562-5.877-1.749a3.739,3.739,0,0,0-1.9.165C-933.154,2788.242-933.334,2788.43-933.321,2788.444Z" transform="translate(933.322 -2786.979)" fill="#aed3f2"/>
            </g>
          </g>
        </g>
        <g id="Grupo_59462" data-name="Grupo 59462" transform="translate(5.863 42.405)">
          <g id="Grupo_59461" data-name="Grupo 59461">
            <g id="Grupo_59460" data-name="Grupo 59460">
              <path id="Trazado_104009" data-name="Trazado 104009" d="M-931.583,2802.765a4.833,4.833,0,0,0,2.1-.418c1.268-.423,2.838-1.4,4.671-2.124a7.6,7.6,0,0,1,2.68-.561,4.925,4.925,0,0,1,2.155.492,4.76,4.76,0,0,1,1.558,1.345,1.14,1.14,0,0,0-.239-.532,3.467,3.467,0,0,0-1.182-1.07,4.957,4.957,0,0,0-2.287-.614,7.521,7.521,0,0,0-2.833.556c-1.9.757-3.419,1.758-4.63,2.238C-930.782,2802.593-931.593,2802.7-931.583,2802.765Z" transform="translate(931.583 -2799.281)" fill="#aed3f2"/>
            </g>
          </g>
        </g>
        <g id="Grupo_59465" data-name="Grupo 59465" transform="translate(7.1 51.44)">
          <g id="Grupo_59464" data-name="Grupo 59464">
            <g id="Grupo_59463" data-name="Grupo 59463">
              <path id="Trazado_104010" data-name="Trazado 104010" d="M-930.053,2810.475a5.866,5.866,0,0,0,1.6.518,28.769,28.769,0,0,0,3.993.673,28.949,28.949,0,0,0,4.048.117,5.837,5.837,0,0,0,1.667-.2c-.006-.124-2.557-.014-5.675-.329S-930.022,2810.354-930.053,2810.475Z" transform="translate(930.053 -2810.459)" fill="#aed3f2"/>
            </g>
          </g>
        </g>
      </g>
    </g>
    <g id="Grupo_59469" data-name="Grupo 59469" transform="translate(-1469.962 2747.308)">
      <g id="Grupo_59468" data-name="Grupo 59468">
        <path id="Trazado_104011" data-name="Trazado 104011" d="M-1007.882,2825.495c0,.448-103.448.81-231.029.81-127.625,0-231.051-.362-231.051-.81s103.427-.811,231.051-.811C-1111.33,2824.684-1007.882,2825.047-1007.882,2825.495Z" transform="translate(1469.962 -2824.684)" fill="#344154"/>
      </g>
    </g>
    <g id="Grupo_59488" data-name="Grupo 59488" transform="translate(-1229.646 2421.139)">
      <g id="Grupo_59470" data-name="Grupo 59470">
        <path id="Rectángulo_5713" data-name="Rectángulo 5713" d="M0,0H166.79a0,0,0,0,1,0,0V155.742a16.22,16.22,0,0,1-16.22,16.22H0a0,0,0,0,1,0,0V0A0,0,0,0,1,0,0Z" fill="#ececec"/>
      </g>
      <g id="Grupo_59485" data-name="Grupo 59485" transform="translate(18.362 50.548)">
        <g id="Grupo_59472" data-name="Grupo 59472">
          <g id="Grupo_59471" data-name="Grupo 59471">
            <path id="Trazado_104012" data-name="Trazado 104012" d="M-1015.263,2484.31c0,.349-30.146.631-67.325.631s-67.33-.283-67.33-.631,30.139-.632,67.33-.632S-1015.263,2483.961-1015.263,2484.31Z" transform="translate(1149.918 -2483.678)" fill="#5e6178"/>
          </g>
        </g>
        <g id="Grupo_59474" data-name="Grupo 59474" transform="translate(1.6 11.649)">
          <g id="Grupo_59473" data-name="Grupo 59473">
            <path id="Trazado_104013" data-name="Trazado 104013" d="M-1081.411,2498.722c0,.348-14.894.631-33.262.631s-33.265-.283-33.265-.631,14.891-.631,33.265-.631S-1081.411,2498.374-1081.411,2498.722Z" transform="translate(1147.939 -2498.091)" fill="#5e6178"/>
          </g>
        </g>
        <g id="Grupo_59476" data-name="Grupo 59476" transform="translate(77.118 10.57)">
          <g id="Grupo_59475" data-name="Grupo 59475">
            <path id="Trazado_104014" data-name="Trazado 104014" d="M-1036.885,2497.388c0,.349-3.944.631-8.81.631s-8.811-.282-8.811-.631,3.944-.631,8.811-.631S-1036.885,2497.039-1036.885,2497.388Z" transform="translate(1054.506 -2496.756)" fill="#5e6178"/>
          </g>
        </g>
        <g id="Grupo_59478" data-name="Grupo 59478" transform="translate(103.369 9.851)">
          <g id="Grupo_59477" data-name="Grupo 59477">
            <path id="Trazado_104015" data-name="Trazado 104015" d="M-987.144,2496.5c0,.349-7.809.632-17.441.632s-17.442-.283-17.442-.632,7.808-.631,17.442-.631S-987.144,2496.149-987.144,2496.5Z" transform="translate(1022.027 -2495.866)" fill="#5e6178"/>
          </g>
        </g>
        <g id="Grupo_59480" data-name="Grupo 59480" transform="translate(0 22.797)">
          <g id="Grupo_59479" data-name="Grupo 59479">
            <path id="Trazado_104016" data-name="Trazado 104016" d="M-1087.346,2512.514c0,.349-14.009.632-31.285.632s-31.287-.283-31.287-.632,14-.631,31.287-.631S-1087.346,2512.166-1087.346,2512.514Z" transform="translate(1149.918 -2511.884)" fill="#5e6178"/>
          </g>
        </g>
        <g id="Grupo_59482" data-name="Grupo 59482" transform="translate(69.926 22.476)">
          <g id="Grupo_59481" data-name="Grupo 59481">
            <path id="Trazado_104017" data-name="Trazado 104017" d="M-995.078,2512.117c0,.348-15.3.631-34.162.631s-34.164-.283-34.164-.631,15.293-.631,34.164-.631S-995.078,2511.769-995.078,2512.117Z" transform="translate(1063.404 -2511.486)" fill="#5e6178"/>
          </g>
        </g>
        <g id="Grupo_59484" data-name="Grupo 59484" transform="translate(107.83 33.694)">
          <g id="Grupo_59483" data-name="Grupo 59483">
            <path id="Trazado_104018" data-name="Trazado 104018" d="M-986.086,2526c0,.349-6.811.631-15.211.631s-15.211-.282-15.211-.631,6.81-.631,15.211-.631S-986.086,2525.648-986.086,2526Z" transform="translate(1016.508 -2525.365)" fill="#5e6178"/>
          </g>
        </g>
      </g>
      <g id="Grupo_59487" data-name="Grupo 59487" transform="translate(19.961 38.061)">
        <g id="Grupo_59486" data-name="Grupo 59486">
          <path id="Trazado_104019" data-name="Trazado 104019" d="M-1074.221,2468.861c0,.348-16.5.631-36.857.631s-36.86-.283-36.86-.631,16.5-.632,36.86-.632S-1074.221,2468.512-1074.221,2468.861Z" transform="translate(1147.939 -2468.229)" fill="#d9a171"/>
        </g>
      </g>
    </g>
    <g id="Grupo_59509" data-name="Grupo 59509" transform="translate(-1431.371 2517.458)">
      <g id="Grupo_59504" data-name="Grupo 59504">
        <g id="Grupo_59503" data-name="Grupo 59503">
          <g id="Grupo_59502" data-name="Grupo 59502">
            <g id="Grupo_59491" data-name="Grupo 59491" transform="translate(14.005)">
              <g id="Grupo_59490" data-name="Grupo 59490">
                <g id="Grupo_59489" data-name="Grupo 59489">
                  <rect id="Rectángulo_5714" data-name="Rectángulo 5714" width="346.472" height="229.119" rx="14.567" fill="#344154"/>
                </g>
              </g>
            </g>
            <g id="Grupo_59494" data-name="Grupo 59494" transform="translate(0 212.173)">
              <g id="Grupo_59493" data-name="Grupo 59493">
                <g id="Grupo_59492" data-name="Grupo 59492">
                  <path id="Rectángulo_5715" data-name="Rectángulo 5715" d="M0,0H375.376a0,0,0,0,1,0,0V2.25a17.8,17.8,0,0,1-17.8,17.8H17.8A17.8,17.8,0,0,1,0,2.25V0A0,0,0,0,1,0,0Z" fill="#344154"/>
                </g>
              </g>
            </g>
            <g id="Grupo_59497" data-name="Grupo 59497" transform="translate(23.789 9.103)">
              <g id="Grupo_59496" data-name="Grupo 59496">
                <g id="Grupo_59495" data-name="Grupo 59495">
                  <rect id="Rectángulo_5716" data-name="Rectángulo 5716" width="326.903" height="193.487" fill="#5e6178"/>
                </g>
              </g>
            </g>
            <g id="Grupo_59501" data-name="Grupo 59501" transform="translate(153.569 211.948)">
              <g id="Grupo_59500" data-name="Grupo 59500">
                <g id="Grupo_59499" data-name="Grupo 59499">
                  <g id="Grupo_59498" data-name="Grupo 59498">
                    <path id="Trazado_104020" data-name="Trazado 104020" d="M-1232.216,2802.761c-.007,0,.116-.007.361-.011l1.1-.01,4.269-.024,15.839-.065,52.96-.113h.391l-.2.338c-.667,1.141-1.382,2.367-2.1,3.6l-2.223,3.807-.065.112h-.129l-65.546-.123h-.057l-.029-.048-3.433-5.582c-.372-.61-.659-1.08-.862-1.414-.192-.314-.277-.467-.277-.467s.117.169.326.49.521.8.917,1.417l3.5,5.448-.086-.048,65.546-.122-.193.11,2.223-3.808,2.1-3.6.193.337-52.744-.114-15.914-.064-4.335-.024-1.136-.012C-1232.074,2802.768-1232.216,2802.761-1232.216,2802.761Z" transform="translate(1232.216 -2802.536)" fill="#5e6178"/>
                  </g>
                </g>
              </g>
            </g>
          </g>
        </g>
      </g>
      <g id="Grupo_59508" data-name="Grupo 59508" transform="translate(14.004 211.962)">
        <g id="Grupo_59505" data-name="Grupo 59505" transform="translate(0 0.211)">
          <line id="Línea_256" data-name="Línea 256" x2="346.472" fill="#344154"/>
        </g>
        <g id="Grupo_59507" data-name="Grupo 59507">
          <g id="Grupo_59506" data-name="Grupo 59506">
            <path id="Trazado_104021" data-name="Trazado 104021" d="M-1058.418,2802.764c0,.116-77.567.21-173.228.21-95.694,0-173.245-.094-173.245-.21s77.55-.211,173.245-.211C-1135.985,2802.553-1058.418,2802.647-1058.418,2802.764Z" transform="translate(1404.89 -2802.553)" fill="#5e6178"/>
          </g>
        </g>
      </g>
    </g>
    <g id="Grupo_59557" data-name="Grupo 59557" transform="translate(-1288.923 2487.649)">
      <g id="Grupo_59510" data-name="Grupo 59510" transform="translate(159.585 0.271)">
        <path id="Trazado_104022" data-name="Trazado 104022" d="M-1029.27,2503.762h0a9.678,9.678,0,0,1,9.678,9.678V2533.3h-28.94v-18.322a11.216,11.216,0,0,1,11.216-11.216Z" transform="translate(1048.532 -2503.762)" fill="#344154"/>
      </g>
      <g id="Grupo_59512" data-name="Grupo 59512" transform="translate(56.877)">
        <g id="Grupo_59511" data-name="Grupo 59511">
          <path id="Trazado_104023" data-name="Trazado 104023" d="M-1053.636,2503.7c0,.116-27.306.187-60.981.157s-60.988-.148-60.988-.265,27.3-.186,60.988-.156S-1053.635,2503.581-1053.636,2503.7Z" transform="translate(1175.605 -2503.427)" fill="#344154"/>
        </g>
      </g>
      <g id="Grupo_59513" data-name="Grupo 59513" transform="translate(0.402 0.163)">
        <path id="Trazado_104024" data-name="Trazado 104024" d="M-1067.287,2503.712l-12.069-.083-17.531.108h-128.79a19.8,19.8,0,0,0-19.8,19.8v212.791h166.79V2514.592C-1078.2,2503.737-1067.287,2503.712-1067.287,2503.712Z" transform="translate(1245.477 -2503.629)" fill="#fafafa"/>
      </g>
      <g id="Grupo_59514" data-name="Grupo 59514" transform="translate(0 0.028)">
        <path id="Trazado_104025" data-name="Trazado 104025" d="M-1067.382,2503.68l-100.568.22-50.285.038-6.286,0c-1.053-.02-2.084.041-3.117.1a20.494,20.494,0,0,0-3.05.556,19.587,19.587,0,0,0-10.263,6.6,19.707,19.707,0,0,0-3.07,5.359,15.325,15.325,0,0,0-.5,1.467l-.386,1.5a21.421,21.421,0,0,0-.36,3.077c-.09,4.164-.02,8.373-.038,12.558l.135,201.138-.4-.4,166.79.108-.293.293.08-119.625.1-59.811.059-29.9.015-7.476.007-3.738a12.224,12.224,0,0,1,.078-1.867,10.079,10.079,0,0,1,.292-1.847,9.9,9.9,0,0,1,4.04-6.09,11.694,11.694,0,0,1,3.354-1.62A14.126,14.126,0,0,1-1067.382,2503.68Zm0,0a14.113,14.113,0,0,0-3.668.653,11.666,11.666,0,0,0-3.341,1.63,9.849,9.849,0,0,0-4,6.079,9.983,9.983,0,0,0-.284,1.838,12.247,12.247,0,0,0-.071,1.864l.007,3.738.015,7.476.059,29.906.1,59.813.081,119.62v.294h-.294l-166.79.108h-.4v-.4l.135-201.138c.023-4.195-.041-8.37.055-12.582a21.835,21.835,0,0,1,.374-3.157l.4-1.541a15.808,15.808,0,0,1,.515-1.5,20.2,20.2,0,0,1,3.158-5.494,20.068,20.068,0,0,1,10.531-6.753,20.762,20.762,0,0,1,3.125-.565c1.06-.057,2.12-.116,3.163-.094l6.286,0,50.284.038Z" transform="translate(1245.975 -2503.462)" fill="#344154"/>
      </g>
      <g id="Grupo_59516" data-name="Grupo 59516" transform="translate(72.59 40.124)">
        <g id="Grupo_59515" data-name="Grupo 59515">
          <path id="Trazado_104026" data-name="Trazado 104026" d="M-1084.45,2553.7c0,.348-16.055.631-35.856.631s-35.859-.283-35.859-.631,16.052-.631,35.859-.631S-1084.45,2553.352-1084.45,2553.7Z" transform="translate(1156.165 -2553.069)" fill="#d9a171"/>
        </g>
      </g>
      <g id="Grupo_59518" data-name="Grupo 59518" transform="translate(74.028 51.582)">
        <g id="Grupo_59517" data-name="Grupo 59517">
          <path id="Trazado_104027" data-name="Trazado 104027" d="M-1126.656,2567.876c0,.349-6.208.631-13.864.631s-13.865-.283-13.865-.631,6.206-.631,13.865-.631S-1126.656,2567.527-1126.656,2567.876Z" transform="translate(1154.385 -2567.245)" fill="#5e6178"/>
        </g>
      </g>
      <g id="Grupo_59520" data-name="Grupo 59520" transform="translate(14.149 86.533)">
        <g id="Grupo_59519" data-name="Grupo 59519">
          <path id="Trazado_104028" data-name="Trazado 104028" d="M-1175.811,2611.119c0,.349-11.789.632-26.329.632s-26.331-.283-26.331-.632,11.786-.631,26.331-.631S-1175.811,2610.771-1175.811,2611.119Z" transform="translate(1228.47 -2610.488)" fill="#5e6178"/>
        </g>
      </g>
      <g id="Grupo_59522" data-name="Grupo 59522" transform="translate(73.779 86.533)">
        <g id="Grupo_59521" data-name="Grupo 59521">
          <path id="Trazado_104029" data-name="Trazado 104029" d="M-1102.033,2611.119c0,.349-11.789.632-26.328.632s-26.331-.283-26.331-.632,11.787-.631,26.331-.631S-1102.033,2610.771-1102.033,2611.119Z" transform="translate(1154.693 -2610.488)" fill="#d9a171"/>
        </g>
      </g>
      <g id="Grupo_59524" data-name="Grupo 59524" transform="translate(14.149 95.868)">
        <g id="Grupo_59523" data-name="Grupo 59523">
          <path id="Trazado_104030" data-name="Trazado 104030" d="M-1175.811,2622.668c0,.348-11.789.631-26.329.631s-26.331-.283-26.331-.631,11.786-.631,26.331-.631S-1175.811,2622.32-1175.811,2622.668Z" transform="translate(1228.47 -2622.037)" fill="#5e6178"/>
        </g>
      </g>
      <g id="Grupo_59526" data-name="Grupo 59526" transform="translate(14.149 105.201)">
        <g id="Grupo_59525" data-name="Grupo 59525">
          <path id="Trazado_104031" data-name="Trazado 104031" d="M-1175.811,2634.216c0,.349-11.789.632-26.329.632s-26.331-.283-26.331-.632,11.786-.631,26.331-.631S-1175.811,2633.868-1175.811,2634.216Z" transform="translate(1228.47 -2633.585)" fill="#d9a171"/>
        </g>
      </g>
      <g id="Grupo_59528" data-name="Grupo 59528" transform="translate(74.028 70.594)">
        <g id="Grupo_59527" data-name="Grupo 59527">
          <path id="Trazado_104032" data-name="Trazado 104032" d="M-1126.656,2591.4c0,.349-6.208.631-13.864.631s-13.865-.282-13.865-.631,6.206-.631,13.865-.631S-1126.656,2591.051-1126.656,2591.4Z" transform="translate(1154.385 -2590.768)" fill="#5e6178"/>
        </g>
      </g>
      <g id="Grupo_59530" data-name="Grupo 59530" transform="translate(131.361 86.533)">
        <g id="Grupo_59529" data-name="Grupo 59529">
          <path id="Trazado_104033" data-name="Trazado 104033" d="M-1064.965,2611.119c0,.349-4.139.632-9.242.632s-9.243-.283-9.243-.632,4.138-.631,9.243-.631S-1064.965,2610.771-1064.965,2611.119Z" transform="translate(1083.451 -2610.488)" fill="#5e6178"/>
        </g>
      </g>
      <g id="Grupo_59532" data-name="Grupo 59532" transform="translate(107.215 51.582)">
        <g id="Grupo_59531" data-name="Grupo 59531">
          <path id="Trazado_104034" data-name="Trazado 104034" d="M-1065.749,2567.876c0,.349-10.651.631-23.787.631s-23.79-.283-23.79-.631,10.65-.631,23.79-.631S-1065.749,2567.527-1065.749,2567.876Z" transform="translate(1113.326 -2567.245)" fill="#5e6178"/>
        </g>
      </g>
      <g id="Grupo_59534" data-name="Grupo 59534" transform="translate(74.028 60.683)">
        <g id="Grupo_59533" data-name="Grupo 59533">
          <path id="Trazado_104035" data-name="Trazado 104035" d="M-1075.768,2579.137c0,.349-17.6.631-39.306.631s-39.31-.282-39.31-.631,17.6-.631,39.31-.631S-1075.768,2578.789-1075.768,2579.137Z" transform="translate(1154.385 -2578.506)" fill="#5e6178"/>
        </g>
      </g>
      <g id="Grupo_59536" data-name="Grupo 59536" transform="translate(73.779 95.868)">
        <g id="Grupo_59535" data-name="Grupo 59535">
          <path id="Trazado_104036" data-name="Trazado 104036" d="M-1078.625,2622.668c0,.348-17.03.631-38.032.631s-38.036-.283-38.036-.631,17.026-.631,38.036-.631S-1078.625,2622.32-1078.625,2622.668Z" transform="translate(1154.693 -2622.037)" fill="#5e6178"/>
        </g>
      </g>
      <g id="Grupo_59538" data-name="Grupo 59538" transform="translate(78.469 122.89)">
        <g id="Grupo_59537" data-name="Grupo 59537">
          <path id="Trazado_104037" data-name="Trazado 104037" d="M-1077.513,2656.1c0,.349-15.98.631-35.688.631s-35.69-.282-35.69-.631,15.976-.631,35.69-.631S-1077.513,2655.753-1077.513,2656.1Z" transform="translate(1148.891 -2655.47)" fill="#d9a171"/>
        </g>
      </g>
      <g id="Grupo_59540" data-name="Grupo 59540" transform="translate(78.469 131.975)">
        <g id="Grupo_59539" data-name="Grupo 59539">
          <path id="Trazado_104038" data-name="Trazado 104038" d="M-1077.513,2667.341c0,.348-15.98.631-35.688.631s-35.69-.283-35.69-.631,15.976-.631,35.69-.631S-1077.513,2666.993-1077.513,2667.341Z" transform="translate(1148.891 -2666.71)" fill="#5e6178"/>
        </g>
      </g>
      <g id="Grupo_59542" data-name="Grupo 59542" transform="translate(78.469 141.059)">
        <g id="Grupo_59541" data-name="Grupo 59541">
          <path id="Trazado_104039" data-name="Trazado 104039" d="M-1077.513,2678.58c0,.349-15.98.632-35.688.632s-35.69-.283-35.69-.632,15.976-.631,35.69-.631S-1077.513,2678.232-1077.513,2678.58Z" transform="translate(1148.891 -2677.949)" fill="#5e6178"/>
        </g>
      </g>
      <g id="Grupo_59544" data-name="Grupo 59544" transform="translate(78.469 150.144)">
        <g id="Grupo_59543" data-name="Grupo 59543">
          <path id="Trazado_104040" data-name="Trazado 104040" d="M-1077.513,2689.82c0,.349-15.98.631-35.688.631s-35.69-.282-35.69-.631,15.976-.631,35.69-.631S-1077.513,2689.472-1077.513,2689.82Z" transform="translate(1148.891 -2689.189)" fill="#5e6178"/>
        </g>
      </g>
      <g id="Grupo_59546" data-name="Grupo 59546" transform="translate(78.469 159.228)">
        <g id="Grupo_59545" data-name="Grupo 59545">
          <path id="Trazado_104041" data-name="Trazado 104041" d="M-1107.8,2701.06c0,.175-2.3.332-6.018.446s-8.854.185-14.527.185-10.811-.07-14.529-.185-6.017-.271-6.017-.446,2.3-.332,6.017-.446,8.855-.185,14.529-.185,10.809.071,14.527.185S-1107.8,2700.885-1107.8,2701.06Z" transform="translate(1148.891 -2700.429)" fill="#5e6178"/>
        </g>
      </g>
      <g id="Grupo_59548" data-name="Grupo 59548" transform="translate(75.434 105.69)">
        <g id="Grupo_59547" data-name="Grupo 59547">
          <path id="Trazado_104042" data-name="Trazado 104042" d="M-1091.166,2634.821c0,.349-13.764.631-30.739.631s-30.741-.283-30.741-.631,13.761-.631,30.741-.631S-1091.166,2634.473-1091.166,2634.821Z" transform="translate(1152.646 -2634.19)" fill="#5e6178"/>
        </g>
      </g>
      <g id="Grupo_59552" data-name="Grupo 59552" transform="translate(75.434 210.784)">
        <g id="Grupo_59549" data-name="Grupo 59549">
          <path id="Trazado_104043" data-name="Trazado 104043" d="M-1149.77,2765.653a1.439,1.439,0,0,1-1.439,1.439,1.438,1.438,0,0,1-1.438-1.439,1.437,1.437,0,0,1,1.438-1.438A1.438,1.438,0,0,1-1149.77,2765.653Z" transform="translate(1152.646 -2764.215)" fill="#344154"/>
        </g>
        <g id="Grupo_59550" data-name="Grupo 59550" transform="translate(8.538)">
          <path id="Trazado_104044" data-name="Trazado 104044" d="M-1139.207,2765.653a1.438,1.438,0,0,1-1.438,1.439,1.439,1.439,0,0,1-1.439-1.439,1.438,1.438,0,0,1,1.439-1.438A1.437,1.437,0,0,1-1139.207,2765.653Z" transform="translate(1142.083 -2764.215)" fill="#344154"/>
        </g>
        <g id="Grupo_59551" data-name="Grupo 59551" transform="translate(17.075)">
          <path id="Trazado_104045" data-name="Trazado 104045" d="M-1128.643,2765.653a1.439,1.439,0,0,1-1.439,1.439,1.439,1.439,0,0,1-1.439-1.439,1.438,1.438,0,0,1,1.439-1.438A1.438,1.438,0,0,1-1128.643,2765.653Z" transform="translate(1131.52 -2764.215)" fill="#344154"/>
        </g>
      </g>
      <g id="Grupo_59554" data-name="Grupo 59554" transform="translate(74.18 178.159)">
        <g id="Grupo_59553" data-name="Grupo 59553">
          <path id="Trazado_104046" data-name="Trazado 104046" d="M-1101.537,2724.481c0,.348-11.789.631-26.329.631s-26.331-.283-26.331-.631,11.787-.631,26.331-.631S-1101.537,2724.132-1101.537,2724.481Z" transform="translate(1154.197 -2723.85)" fill="#d9a171"/>
        </g>
      </g>
      <g id="Grupo_59556" data-name="Grupo 59556" transform="translate(74.18 187.492)">
        <g id="Grupo_59555" data-name="Grupo 59555">
          <path id="Trazado_104047" data-name="Trazado 104047" d="M-1078.13,2736.029c0,.349-17.029.632-38.032.632s-38.035-.283-38.035-.632,17.026-.631,38.035-.631S-1078.13,2735.681-1078.13,2736.029Z" transform="translate(1154.197 -2735.398)" fill="#5e6178"/>
        </g>
      </g>
    </g>
    <g id="Grupo_59583" data-name="Grupo 59583" transform="translate(-1126.111 2682.779)">
      <g id="Grupo_59563" data-name="Grupo 59563" transform="translate(29.396 8.546)">
        <g id="Grupo_59560" data-name="Grupo 59560" transform="translate(0 0)">
          <g id="Grupo_59559" data-name="Grupo 59559">
            <g id="Grupo_59558" data-name="Grupo 59558">
              <rect id="Rectángulo_5717" data-name="Rectángulo 5717" width="44.809" height="56.048" transform="translate(0 44.808) rotate(-89.632)" fill="#aed3f2"/>
            </g>
          </g>
        </g>
        <rect id="Rectángulo_5718" data-name="Rectángulo 5718" width="39.167" height="52.111" transform="translate(1.95 42) rotate(-89.632)" fill="#d9a171"/>
        <path id="Trazado_104048" data-name="Trazado 104048" d="M-1005.758,2801.636l18.357-24.229,11.177,15.3,7.7-8.093,14.877,17.353Z" transform="translate(1007.708 -2759.636)" fill="#d9a171" opacity="0.2"/>
        <g id="Grupo_59562" data-name="Grupo 59562" transform="translate(28.181 10.763)" opacity="0.2">
          <g id="Grupo_59561" data-name="Grupo 59561">
            <path id="Trazado_104049" data-name="Trazado 104049" d="M-965.1,2772.865a4.1,4.1,0,0,1-4.129,4.077,4.1,4.1,0,0,1-4.077-4.129,4.1,4.1,0,0,1,4.129-4.077A4.1,4.1,0,0,1-965.1,2772.865Z" transform="translate(973.305 -2768.736)" fill="#d9a171"/>
          </g>
        </g>
      </g>
      <g id="Grupo_59569" data-name="Grupo 59569" transform="translate(21.176 3.867)">
        <g id="Grupo_59566" data-name="Grupo 59566" transform="translate(0 0)">
          <g id="Grupo_59565" data-name="Grupo 59565">
            <g id="Grupo_59564" data-name="Grupo 59564">
              <rect id="Rectángulo_5719" data-name="Rectángulo 5719" width="44.809" height="56.048" transform="translate(0 44.808) rotate(-89.632)" fill="#aed3f2"/>
            </g>
          </g>
        </g>
        <rect id="Rectángulo_5720" data-name="Rectángulo 5720" width="39.167" height="52.111" transform="translate(1.95 42) rotate(-89.632)" fill="#d9a171"/>
        <path id="Trazado_104050" data-name="Trazado 104050" d="M-1015.927,2795.847l18.357-24.229,11.177,15.3,7.7-8.094,14.877,17.353Z" transform="translate(1017.878 -2753.847)" fill="#d9a171" opacity="0.2"/>
        <g id="Grupo_59568" data-name="Grupo 59568" transform="translate(28.181 10.763)" opacity="0.2">
          <g id="Grupo_59567" data-name="Grupo 59567">
            <path id="Trazado_104051" data-name="Trazado 104051" d="M-975.269,2767.076a4.1,4.1,0,0,1-4.129,4.077,4.1,4.1,0,0,1-4.076-4.129,4.1,4.1,0,0,1,4.129-4.077A4.1,4.1,0,0,1-975.269,2767.076Z" transform="translate(983.474 -2762.947)" fill="#d9a171"/>
          </g>
        </g>
      </g>
      <g id="Grupo_59575" data-name="Grupo 59575" transform="translate(13.857 0)">
        <g id="Grupo_59572" data-name="Grupo 59572">
          <g id="Grupo_59571" data-name="Grupo 59571">
            <g id="Grupo_59570" data-name="Grupo 59570">
              <rect id="Rectángulo_5721" data-name="Rectángulo 5721" width="44.809" height="56.048" transform="translate(0 44.808) rotate(-89.632)" fill="#aed3f2"/>
            </g>
          </g>
        </g>
        <rect id="Rectángulo_5722" data-name="Rectángulo 5722" width="39.167" height="52.111" transform="translate(1.95 42) rotate(-89.632)" fill="#d9a171"/>
        <path id="Trazado_104052" data-name="Trazado 104052" d="M-1024.983,2791.063l18.357-24.229,11.177,15.3,7.7-8.094,14.877,17.353Z" transform="translate(1026.934 -2749.063)" fill="#d9a171" opacity="0.2"/>
        <g id="Grupo_59574" data-name="Grupo 59574" transform="translate(28.18 10.763)" opacity="0.2">
          <g id="Grupo_59573" data-name="Grupo 59573">
            <path id="Trazado_104053" data-name="Trazado 104053" d="M-984.325,2762.292a4.1,4.1,0,0,1-4.129,4.077,4.1,4.1,0,0,1-4.077-4.129,4.1,4.1,0,0,1,4.129-4.077A4.1,4.1,0,0,1-984.325,2762.292Z" transform="translate(992.531 -2758.163)" fill="#d9a171"/>
          </g>
        </g>
      </g>
      <g id="Grupo_59581" data-name="Grupo 59581" transform="translate(5.637 4.813)">
        <g id="Grupo_59578" data-name="Grupo 59578" transform="translate(0 0)">
          <g id="Grupo_59577" data-name="Grupo 59577">
            <g id="Grupo_59576" data-name="Grupo 59576">
              <rect id="Rectángulo_5723" data-name="Rectángulo 5723" width="44.809" height="56.048" transform="translate(0 44.808) rotate(-89.632)" fill="#aed3f2"/>
            </g>
          </g>
        </g>
        <rect id="Rectángulo_5724" data-name="Rectángulo 5724" width="39.167" height="52.111" transform="translate(1.95 42) rotate(-89.632)" fill="#5e6178"/>
        <path id="Trazado_104054" data-name="Trazado 104054" d="M-1035.153,2797.018l18.357-24.229,11.177,15.3,7.7-8.093,14.877,17.353Z" transform="translate(1037.103 -2755.018)" fill="#d9a171" opacity="0.2"/>
        <g id="Grupo_59580" data-name="Grupo 59580" transform="translate(28.18 10.763)" opacity="0.2">
          <g id="Grupo_59579" data-name="Grupo 59579">
            <path id="Trazado_104055" data-name="Trazado 104055" d="M-994.494,2768.247a4.1,4.1,0,0,1-4.129,4.076,4.1,4.1,0,0,1-4.077-4.13,4.1,4.1,0,0,1,4.129-4.076A4.1,4.1,0,0,1-994.494,2768.247Z" transform="translate(1002.7 -2764.118)" fill="#d9a171"/>
          </g>
        </g>
      </g>
      <g id="Grupo_59582" data-name="Grupo 59582" transform="translate(0 21.475)">
        <rect id="Rectángulo_5725" data-name="Rectángulo 5725" width="32.359" height="43.264" transform="translate(61.972 0)" fill="#344154"/>
        <path id="Trazado_104056" data-name="Trazado 104056" d="M-1044.54,2771.416v43.265h64.717v-43.265Zm39.239,10.239h-13.76a2.978,2.978,0,0,1-2.978-2.978,2.978,2.978,0,0,1,2.978-2.978h13.76a2.977,2.977,0,0,1,2.978,2.978A2.977,2.977,0,0,1-1005.3,2781.655Z" transform="translate(1044.54 -2771.416)" fill="#d9a171"/>
      </g>
    </g>
    <g id="Grupo_59710" data-name="Grupo 59710" transform="translate(-1366.86 2526.561)">
      <g id="Grupo_59709" data-name="Grupo 59709" clip-path="url(#clip-path)">
        <g id="Grupo_59708" data-name="Grupo 59708" transform="translate(45.452 14.537)">
          <g id="Grupo_59620" data-name="Grupo 59620" transform="translate(0 84.071)">
            <g id="Grupo_59593" data-name="Grupo 59593" transform="translate(0 111.87)">
              <g id="Grupo_59584" data-name="Grupo 59584">
                <path id="Trazado_104057" data-name="Trazado 104057" d="M-1056.129,2819.246l-86.638-5.305c-.547-1.239-.909-1.961-.909-1.961l-23.482.467-7.64-.467s-.116.233-.3.625l-78.823,1.571c-15.715,0-32.237,9.587-32.237,21.839-.2,11.66,5.448,24.315,19.528,24.029l107.395-.361,107.394.361c14.081.287,17.8-8.2,17.825-18.277C-1032.373,2823.007-1044.124,2819.4-1056.129,2819.246Z" transform="translate(1286.166 -2811.98)" fill="#5e6178"/>
              </g>
              <g id="Grupo_59586" data-name="Grupo 59586" transform="translate(29.391 15.249)">
                <g id="Grupo_59585" data-name="Grupo 59585">
                  <path id="Trazado_104058" data-name="Trazado 104058" d="M-1249.8,2863.669s.174-.021.516-.03l1.519-.028,5.849-.055,21.609-.094,72.111-.1-.3.321c-.147-2.354-.3-4.874-.464-7.413-.323-5.2-.641-10.305-.943-15.167l.267.28-66.43-7.392-19.684-2.252-5.3-.635-1.372-.179a3.076,3.076,0,0,1-.465-.079,2.824,2.824,0,0,1,.471.022l1.378.124,5.315.53,19.7,2.071,66.452,7.192.25.028.016.252c.3,4.861.624,9.972.95,15.167.159,2.539.315,5.058.462,7.413l.02.322h-.322l-72.111-.1-21.609-.094-5.849-.055-1.519-.028C-1249.629,2863.689-1249.8,2863.669-1249.8,2863.669Z" transform="translate(1249.803 -2830.846)" fill="#344154"/>
                </g>
              </g>
              <g id="Grupo_59588" data-name="Grupo 59588" transform="translate(28.482 10.156)">
                <g id="Grupo_59587" data-name="Grupo 59587">
                  <path id="Trazado_104059" data-name="Trazado 104059" d="M-1227.877,2831.651c-.066.082-1.144-.786-3.036-1.94a33.03,33.03,0,0,0-7.888-3.466,33.067,33.067,0,0,0-8.525-1.254c-2.216-.028-3.59.135-3.6.031a3.062,3.062,0,0,1,.952-.22,20.03,20.03,0,0,1,2.647-.24,28.585,28.585,0,0,1,8.7,1.1,28.573,28.573,0,0,1,7.951,3.687,19.758,19.758,0,0,1,2.116,1.61C-1228.1,2831.376-1227.85,2831.62-1227.877,2831.651Z" transform="translate(1250.928 -2824.545)" fill="#344154"/>
                </g>
              </g>
              <g id="Grupo_59590" data-name="Grupo 59590" transform="translate(146.844 12.648)">
                <g id="Grupo_59589" data-name="Grupo 59589">
                  <path id="Trazado_104060" data-name="Trazado 104060" d="M-1028.019,2827.634c.038.162-17.05,4.3-38.163,9.229s-38.266,8.8-38.3,8.639,17.047-4.294,38.167-9.229S-1028.057,2827.471-1028.019,2827.634Z" transform="translate(1104.487 -2827.629)" fill="#344154"/>
                </g>
              </g>
              <g id="Grupo_59592" data-name="Grupo 59592" transform="translate(196.719 10.96)">
                <g id="Grupo_59591" data-name="Grupo 59591">
                  <path id="Trazado_104061" data-name="Trazado 104061" d="M-1030.637,2825.563c.057.188-3.3.866-6.7,3.206-3.424,2.3-5.287,5.173-5.441,5.052a5.962,5.962,0,0,1,1.166-1.895,17.711,17.711,0,0,1,3.935-3.658,17.713,17.713,0,0,1,4.846-2.317A5.962,5.962,0,0,1-1030.637,2825.563Z" transform="translate(1042.78 -2825.54)" fill="#344154"/>
                </g>
              </g>
            </g>
            <g id="Grupo_59594" data-name="Grupo 59594" transform="translate(142.634 24.492)">
              <path id="Trazado_104062" data-name="Trazado 104062" d="M-1075.717,2703.873l27.443,47.771a20.3,20.3,0,0,1,.554,19.188h0a20.3,20.3,0,0,1-18.727,11.212l-42.138-1.189-1.11-15.324,37.112-7.107-25.022-43.307Z" transform="translate(1109.695 -2703.873)" fill="#ffbf9d"/>
            </g>
            <g id="Grupo_59595" data-name="Grupo 59595" transform="translate(52.282 24.492)">
              <path id="Trazado_104063" data-name="Trazado 104063" d="M-1199.428,2785.621l38.748,10.264.842-11.619-35.708-20.741,26.079-48.407-21.888-11.244-27.443,47.771h0a22.372,22.372,0,0,0,12.918,31.926Z" transform="translate(1221.482 -2703.873)" fill="#ffbf9d"/>
            </g>
            <g id="Grupo_59596" data-name="Grupo 59596" transform="translate(68.545)">
              <path id="Trazado_104064" data-name="Trazado 104064" d="M-1104.945,2728.735l26.484-13.948a134.07,134.07,0,0,0-11.346-18.921c-8.206-11.344-20.924-19.277-35.368-22.294h0l-30.463.36a40.294,40.294,0,0,0-10.864,2.5l.022-.118c-16.532,3.646-34.878,39.7-34.878,39.7l24.1,12.688.533,3.791a25.744,25.744,0,0,0,6.281,13.508l-7.019,46.16,78.219,1.617-9.959-33.057Z" transform="translate(1201.36 -2673.571)" fill="#d9a171"/>
            </g>
            <g id="Grupo_59598" data-name="Grupo 59598" transform="translate(93.008 38.753)">
              <g id="Grupo_59597" data-name="Grupo 59597">
                <path id="Trazado_104065" data-name="Trazado 104065" d="M-1163.933,2755.448a5.582,5.582,0,0,1-1.164-.881,16.853,16.853,0,0,1-2.66-2.974,19.358,19.358,0,0,1-3.265-12.584,41.049,41.049,0,0,1,1.789-7.017c.7-2.1,1.413-3.969,2.033-5.524s1.156-2.8,1.543-3.652a6.362,6.362,0,0,1,.667-1.3,7.063,7.063,0,0,1-.448,1.385l-1.361,3.716c-.567,1.571-1.233,3.444-1.9,5.545a43.919,43.919,0,0,0-1.718,6.918,19.944,19.944,0,0,0,.658,7,18.639,18.639,0,0,0,2.359,5.266A32.519,32.519,0,0,0-1163.933,2755.448Z" transform="translate(1171.094 -2721.518)" fill="#344154"/>
              </g>
            </g>
            <g id="Grupo_59601" data-name="Grupo 59601" transform="translate(84.029 78.253)">
              <g id="Grupo_59599" data-name="Grupo 59599">
                <path id="Trazado_104066" data-name="Trazado 104066" d="M-1177.787,2821.874l-4.416-51.485h95.278l-6.314,52.127Z" transform="translate(1182.203 -2770.388)" fill="#344154"/>
              </g>
              <g id="Grupo_59600" data-name="Grupo 59600" transform="translate(41.572 21.391)">
                <path id="Trazado_104067" data-name="Trazado 104067" d="M-1118.635,2802.92a6.067,6.067,0,0,1-6.067,6.067,6.068,6.068,0,0,1-6.067-6.067,6.067,6.067,0,0,1,6.067-6.067A6.066,6.066,0,0,1-1118.635,2802.92Z" transform="translate(1130.769 -2796.853)" fill="#fafafa"/>
              </g>
            </g>
            <g id="Grupo_59615" data-name="Grupo 59615" transform="translate(130.001 139.796)">
              <g id="Grupo_59602" data-name="Grupo 59602">
                <path id="Trazado_104068" data-name="Trazado 104068" d="M-1125.326,2846.531l16.177,2.258v17.583l-14.877-.384Z" transform="translate(1125.326 -2846.531)" fill="#ffbf9d"/>
              </g>
              <g id="Grupo_59612" data-name="Grupo 59612" transform="translate(16.177 2.258)">
                <g id="Grupo_59603" data-name="Grupo 59603">
                  <path id="Trazado_104069" data-name="Trazado 104069" d="M-1105.311,2849.325h7.273a8.06,8.06,0,0,1,4.032,1.081l3.835,2.215a59.763,59.763,0,0,0,6.7,3.2c4.422,1.421,11.862,3.333,13.428,4.542,4.474,3.45,3.114,7.529.656,7.956-2.158.374-35.926-1.406-35.926-1.406Z" transform="translate(1105.311 -2849.325)" fill="#d9a171"/>
                </g>
                <g id="Grupo_59605" data-name="Grupo 59605" transform="translate(11.153 6.951)">
                  <g id="Grupo_59604" data-name="Grupo 59604">
                    <path id="Trazado_104070" data-name="Trazado 104070" d="M-1090.718,2867.1a11.47,11.47,0,0,1-.784-4.57,11.464,11.464,0,0,1,.508-4.609c.174.023.015,2.072.1,4.591S-1090.545,2867.071-1090.718,2867.1Z" transform="translate(1091.512 -2857.925)" fill="#344154"/>
                  </g>
                </g>
                <g id="Grupo_59607" data-name="Grupo 59607" transform="translate(15.126 7.642)">
                  <g id="Grupo_59606" data-name="Grupo 59606">
                    <path id="Trazado_104071" data-name="Trazado 104071" d="M-1086.325,2867.172a14.788,14.788,0,0,1-.269-4.2,14.767,14.767,0,0,1,.336-4.193,14.777,14.777,0,0,1,.269,4.2A14.813,14.813,0,0,1-1086.325,2867.172Z" transform="translate(1086.596 -2858.781)" fill="#344154"/>
                  </g>
                </g>
                <g id="Grupo_59609" data-name="Grupo 59609" transform="translate(18.684 8.077)">
                  <g id="Grupo_59608" data-name="Grupo 59608">
                    <path id="Trazado_104072" data-name="Trazado 104072" d="M-1081.4,2867.972c-.167.013-.453-1.914-.639-4.3a15.768,15.768,0,0,1-.036-4.351,15.8,15.8,0,0,1,.639,4.3A15.8,15.8,0,0,1-1081.4,2867.972Z" transform="translate(1082.195 -2859.318)" fill="#344154"/>
                  </g>
                </g>
                <g id="Grupo_59611" data-name="Grupo 59611" transform="translate(1.562 4.13)">
                  <g id="Grupo_59610" data-name="Grupo 59610">
                    <path id="Trazado_104073" data-name="Trazado 104073" d="M-1096.141,2861.754a5.018,5.018,0,0,1-1.492-.469,13.976,13.976,0,0,1-3.633-2.245c-.344-.295-.693-.618-1.039-.975a4.146,4.146,0,0,1-.927-1.313,1.832,1.832,0,0,1,.2-1.805,1.374,1.374,0,0,1,.9-.5,2.327,2.327,0,0,1,.98.112,7.38,7.38,0,0,1,4.754,5.974,7.388,7.388,0,0,1-3.232,6.909,4.584,4.584,0,0,1-1.666.749,1.936,1.936,0,0,1-.949-.046,1.268,1.268,0,0,1-.734-.646,1.835,1.835,0,0,1,.213-1.676,5.166,5.166,0,0,1,.934-1.123,11.167,11.167,0,0,1,3.576-2.342,4.592,4.592,0,0,1,1.506-.425c.015.047-.517.209-1.41.641a12.029,12.029,0,0,0-3.369,2.429,4.8,4.8,0,0,0-.829,1.049,1.39,1.39,0,0,0-.171,1.225.963.963,0,0,0,1.136.39,4.108,4.108,0,0,0,1.452-.688,6.885,6.885,0,0,0,2.943-6.371,6.887,6.887,0,0,0-4.321-5.517,1.146,1.146,0,0,0-1.3.191,1.325,1.325,0,0,0-.146,1.289,7.105,7.105,0,0,0,1.779,2.145A19.516,19.516,0,0,0-1096.141,2861.754Z" transform="translate(1103.379 -2854.435)" fill="#344154"/>
                  </g>
                </g>
              </g>
              <g id="Grupo_59614" data-name="Grupo 59614" transform="translate(24.642 2.462)">
                <g id="Grupo_59613" data-name="Grupo 59613">
                  <path id="Trazado_104074" data-name="Trazado 104074" d="M-1067.377,2868.363a4.271,4.271,0,0,0,.887-1.105,4.161,4.161,0,0,0-.477-3.668,8.167,8.167,0,0,0-4.493-3.387c-2.056-.74-4.509-1.1-6.984-1.869a48.692,48.692,0,0,1-12.016-5.475c-1.428-.91-2.53-1.725-3.275-2.307a6.52,6.52,0,0,1-1.1-.972,7.113,7.113,0,0,1,1.241.781c.784.521,1.916,1.276,3.36,2.132a54.289,54.289,0,0,0,11.966,5.26c2.437.761,4.867,1.127,7,1.925a8.455,8.455,0,0,1,4.675,3.705,4.313,4.313,0,0,1,.311,3.981,2.471,2.471,0,0,1-.749.827C-1067.244,2868.328-1067.367,2868.379-1067.377,2868.363Z" transform="translate(1094.838 -2849.577)" fill="#344154"/>
                </g>
              </g>
            </g>
            <g id="Grupo_59617" data-name="Grupo 59617" transform="translate(84.8 12.395)">
              <g id="Grupo_59616" data-name="Grupo 59616">
                <path id="Trazado_104075" data-name="Trazado 104075" d="M-1094.959,2689.15a.918.918,0,0,1,0,.248c-.014.192-.031.431-.053.726q-.093,1.018-.257,2.813c-.25,2.5-.609,6.073-1.06,10.562l-.027.273-.243-.129-14.047-7.395.334-.093-7.63,12.873-.163.276-.255-.2-12.849-9.853h.369c-1.786,1.4-3.68,2.884-5.6,4.386l-7.629,5.974-.281.219-.169-.312-7.268-13.445.364.123-15.412,6.867-.283.126-.052-.3-2.326-13.708.237.133-8.825,3.365-2.347.87-.608.212a.788.788,0,0,1-.212.057.765.765,0,0,1,.194-.1l.59-.256,2.315-.956,8.765-3.517.2-.08.038.213c.684,3.822,1.507,8.412,2.452,13.686l-.334-.177,15.377-6.945.239-.107.125.23,7.3,13.428-.449-.093,7.625-5.979,5.6-4.384.184-.145.185.142,12.829,9.88-.418.08c2.758-4.606,5.355-8.942,7.687-12.837l.124-.206.21.112,13.984,7.511-.271.143c.523-4.483.94-8.051,1.231-10.545q.224-1.788.352-2.8l.1-.72A.924.924,0,0,1-1094.959,2689.15Z" transform="translate(1181.249 -2688.907)" fill="#aed3f2"/>
              </g>
            </g>
            <g id="Grupo_59619" data-name="Grupo 59619" transform="translate(79.148 24.875)">
              <g id="Grupo_59618" data-name="Grupo 59618">
                <path id="Trazado_104076" data-name="Trazado 104076" d="M-1084.993,2705.065a1.653,1.653,0,0,1-.065.341c-.062.251-.142.576-.244.988l-1,3.807c-.9,3.347-2.2,8.156-3.812,14.158l-.061.229-.217-.1-16.413-7.878.322-.083-13.826,19.718-.2.29-.249-.252-13.287-13.467-2.789-2.83.377.044-17.906,11.228-.256.161-.148-.262-9.654-17.05.3.114-18.412,6.337-.175.061-.06-.173c-1.743-5.058-3.126-9.067-4.085-11.849l-1.059-3.151-.26-.814a1.243,1.243,0,0,1-.072-.281,1.239,1.239,0,0,1,.12.264l.307.8,1.15,3.118c1,2.769,2.434,6.76,4.246,11.792l-.234-.113,18.367-6.467.2-.071.105.185,9.715,17.014-.4-.1,17.891-11.252.205-.129.171.173,2.789,2.829,13.276,13.479-.451.038,13.888-19.675.127-.178.2.1,16.362,7.984-.277.125c1.69-5.981,3.044-10.774,3.986-14.11.469-1.62.837-2.884,1.1-3.779l.3-.974A1.615,1.615,0,0,1-1084.993,2705.065Z" transform="translate(1188.242 -2704.347)" fill="#aed3f2"/>
              </g>
            </g>
          </g>
          <g id="Grupo_59707" data-name="Grupo 59707" transform="translate(103.674)">
            <g id="Grupo_59621" data-name="Grupo 59621" transform="translate(7.967)">
              <path id="Trazado_104077" data-name="Trazado 104077" d="M-1089.022,2598.046a17.08,17.08,0,0,1-13.006-4.1c4.239,2.139,9.887-.8,11.378-5.306s.268-12.9-3.433-15.871a14.678,14.678,0,0,0-12.767-2.746c-4.364,1.168-8.989,7.8-10.415,12.088l.082.131c-.671-.268-1.348-.518-2.029-.747a34.963,34.963,0,0,0-15.061-1.823,24.422,24.422,0,0,0-13.766,6.061l29.588,47.557c5.374-.473,10.135-4.1,12.951-8.7s3.9-10.076,4.162-15.465c.067-1.352.063-2.718.007-4.083l9.516,1.529a21.217,21.217,0,0,0-6.326-5.655A7.946,7.946,0,0,0-1089.022,2598.046Z" transform="translate(1148.04 -2569.556)" fill="#344154"/>
            </g>
            <g id="Grupo_59695" data-name="Grupo 59695" transform="translate(1.269 17.283)">
              <g id="Grupo_59694" data-name="Grupo 59694">
                <g id="Grupo_59693" data-name="Grupo 59693">
                  <g id="Grupo_59687" data-name="Grupo 59687">
                    <g id="Grupo_59686" data-name="Grupo 59686">
                      <g id="Grupo_59675" data-name="Grupo 59675">
                        <g id="Grupo_59674" data-name="Grupo 59674">
                          <g id="Grupo_59673" data-name="Grupo 59673">
                            <g id="Grupo_59626" data-name="Grupo 59626">
                              <g id="Grupo_59625" data-name="Grupo 59625">
                                <g id="Grupo_59624" data-name="Grupo 59624">
                                  <g id="Grupo_59623" data-name="Grupo 59623">
                                    <g id="Grupo_59622" data-name="Grupo 59622">
                                      <path id="Trazado_104078" data-name="Trazado 104078" d="M-1128.01,2675.955a14.881,14.881,0,0,0,14.56-14.7l.687-59.167h0a4.709,4.709,0,0,0-4.213-4.777l-24.99-6.317c-8-.846-13.325,9.009-13.831,17.041-.562,8.924-.9,19.841.16,26.5,2.126,13.389,12.388,15.093,12.388,15.093,0-.035.007,5.181.038,11.526a14.883,14.883,0,0,0,15.2,14.807Z" transform="translate(1156.328 -2590.939)" fill="#ffbf9d"/>
                                    </g>
                                  </g>
                                </g>
                              </g>
                            </g>
                            <g id="Grupo_59638" data-name="Grupo 59638" transform="translate(2.869 20.966)">
                              <g id="Grupo_59631" data-name="Grupo 59631" transform="translate(2.85 3.24)">
                                <g id="Grupo_59630" data-name="Grupo 59630">
                                  <g id="Grupo_59629" data-name="Grupo 59629">
                                    <g id="Grupo_59628" data-name="Grupo 59628">
                                      <g id="Grupo_59627" data-name="Grupo 59627">
                                        <path id="Trazado_104079" data-name="Trazado 104079" d="M-1149.25,2622.44a1.717,1.717,0,0,0,1.656,1.732,1.642,1.642,0,0,0,1.77-1.548,1.718,1.718,0,0,0-1.654-1.733A1.644,1.644,0,0,0-1149.25,2622.44Z" transform="translate(1149.251 -2620.888)" fill="#344154"/>
                                      </g>
                                    </g>
                                  </g>
                                </g>
                              </g>
                              <g id="Grupo_59637" data-name="Grupo 59637">
                                <g id="Grupo_59636" data-name="Grupo 59636">
                                  <g id="Grupo_59635" data-name="Grupo 59635">
                                    <g id="Grupo_59634" data-name="Grupo 59634">
                                      <g id="Grupo_59633" data-name="Grupo 59633">
                                        <g id="Grupo_59632" data-name="Grupo 59632">
                                          <path id="Trazado_104080" data-name="Trazado 104080" d="M-1152.75,2618.684c.213.224,1.515-.739,3.362-.734,1.845-.022,3.2.929,3.4.7.1-.1-.119-.5-.709-.934a4.715,4.715,0,0,0-2.724-.839,4.522,4.522,0,0,0-2.675.863C-1152.662,2618.179-1152.855,2618.584-1152.75,2618.684Z" transform="translate(1152.777 -2616.879)" fill="#344154"/>
                                        </g>
                                      </g>
                                    </g>
                                  </g>
                                </g>
                              </g>
                            </g>
                            <g id="Grupo_59650" data-name="Grupo 59650" transform="translate(21.032 21.311)">
                              <g id="Grupo_59643" data-name="Grupo 59643" transform="translate(2.266 2.896)">
                                <g id="Grupo_59642" data-name="Grupo 59642">
                                  <g id="Grupo_59641" data-name="Grupo 59641">
                                    <g id="Grupo_59640" data-name="Grupo 59640">
                                      <g id="Grupo_59639" data-name="Grupo 59639">
                                        <path id="Trazado_104081" data-name="Trazado 104081" d="M-1127.5,2622.44a1.716,1.716,0,0,0,1.655,1.732,1.642,1.642,0,0,0,1.77-1.548,1.717,1.717,0,0,0-1.654-1.733A1.643,1.643,0,0,0-1127.5,2622.44Z" transform="translate(1127.503 -2620.888)" fill="#344154"/>
                                      </g>
                                    </g>
                                  </g>
                                </g>
                              </g>
                              <g id="Grupo_59649" data-name="Grupo 59649">
                                <g id="Grupo_59648" data-name="Grupo 59648">
                                  <g id="Grupo_59647" data-name="Grupo 59647">
                                    <g id="Grupo_59646" data-name="Grupo 59646">
                                      <g id="Grupo_59645" data-name="Grupo 59645">
                                        <g id="Grupo_59644" data-name="Grupo 59644">
                                          <path id="Trazado_104082" data-name="Trazado 104082" d="M-1130.279,2619.11c.213.224,1.516-.738,3.362-.733,1.845-.022,3.2.929,3.4.7.1-.1-.117-.5-.709-.934a4.715,4.715,0,0,0-2.723-.84,4.526,4.526,0,0,0-2.676.864C-1130.19,2618.6-1130.384,2619.01-1130.279,2619.11Z" transform="translate(1130.306 -2617.305)" fill="#344154"/>
                                        </g>
                                      </g>
                                    </g>
                                  </g>
                                </g>
                              </g>
                            </g>
                            <g id="Grupo_59656" data-name="Grupo 59656" transform="translate(9.646 21.423)">
                              <g id="Grupo_59655" data-name="Grupo 59655">
                                <g id="Grupo_59654" data-name="Grupo 59654">
                                  <g id="Grupo_59653" data-name="Grupo 59653">
                                    <g id="Grupo_59652" data-name="Grupo 59652">
                                      <g id="Grupo_59651" data-name="Grupo 59651">
                                        <path id="Trazado_104083" data-name="Trazado 104083" d="M-1139.686,2632.84a12.256,12.256,0,0,0-3-.542c-.472-.048-.918-.142-1-.465a2.4,2.4,0,0,1,.315-1.4q.666-1.712,1.4-3.593c1.938-5.115,3.341-9.321,3.134-9.4s-1.946,4.008-3.883,9.124q-.7,1.892-1.337,3.614a2.731,2.731,0,0,0-.245,1.852,1.184,1.184,0,0,0,.776.69,3.247,3.247,0,0,0,.8.112A11.986,11.986,0,0,0-1139.686,2632.84Z" transform="translate(1144.394 -2617.444)" fill="#344154"/>
                                      </g>
                                    </g>
                                  </g>
                                </g>
                              </g>
                            </g>
                            <g id="Grupo_59661" data-name="Grupo 59661" transform="translate(13.077 53.9)">
                              <g id="Grupo_59660" data-name="Grupo 59660">
                                <g id="Grupo_59659" data-name="Grupo 59659">
                                  <g id="Grupo_59658" data-name="Grupo 59658">
                                    <g id="Grupo_59657" data-name="Grupo 59657">
                                      <path id="Trazado_104084" data-name="Trazado 104084" d="M-1140.148,2662.409a34.056,34.056,0,0,0,17.93-4.783s-4.35,9.2-17.75,7.945Z" transform="translate(1140.148 -2657.626)" fill="#ff9a6c"/>
                                    </g>
                                  </g>
                                </g>
                              </g>
                            </g>
                            <g id="Grupo_59666" data-name="Grupo 59666" transform="translate(14.95 40.016)">
                              <g id="Grupo_59665" data-name="Grupo 59665">
                                <g id="Grupo_59664" data-name="Grupo 59664">
                                  <g id="Grupo_59663" data-name="Grupo 59663">
                                    <g id="Grupo_59662" data-name="Grupo 59662">
                                      <path id="Trazado_104085" data-name="Trazado 104085" d="M-1137.646,2641.7a3.327,3.327,0,0,1,2.984-1.236,3.04,3.04,0,0,1,2.1,1.125,1.927,1.927,0,0,1,.146,2.2,2.234,2.234,0,0,1-2.422.613,6.984,6.984,0,0,1-2.362-1.41,2.032,2.032,0,0,1-.528-.546.617.617,0,0,1,0-.687" transform="translate(1137.831 -2640.448)" fill="#ff9a6c"/>
                                    </g>
                                  </g>
                                </g>
                              </g>
                            </g>
                            <g id="Grupo_59672" data-name="Grupo 59672" transform="translate(13.902 38.096)">
                              <g id="Grupo_59671" data-name="Grupo 59671">
                                <g id="Grupo_59670" data-name="Grupo 59670">
                                  <g id="Grupo_59669" data-name="Grupo 59669">
                                    <g id="Grupo_59668" data-name="Grupo 59668">
                                      <g id="Grupo_59667" data-name="Grupo 59667">
                                        <path id="Trazado_104086" data-name="Trazado 104086" d="M-1133.238,2638.073c-.3-.017-.3,1.989-2.022,3.412s-3.851,1.2-3.866,1.484c-.028.125.476.39,1.378.414a5,5,0,0,0,3.228-1.125,4.345,4.345,0,0,0,1.565-2.861C-1132.878,2638.559-1133.1,2638.062-1133.238,2638.073Z" transform="translate(1139.127 -2638.073)" fill="#344154"/>
                                      </g>
                                    </g>
                                  </g>
                                </g>
                              </g>
                            </g>
                          </g>
                        </g>
                      </g>
                      <g id="Grupo_59680" data-name="Grupo 59680" transform="translate(20.218 18.496)">
                        <g id="Grupo_59679" data-name="Grupo 59679">
                          <g id="Grupo_59678" data-name="Grupo 59678">
                            <g id="Grupo_59677" data-name="Grupo 59677">
                              <g id="Grupo_59676" data-name="Grupo 59676">
                                <path id="Trazado_104087" data-name="Trazado 104087" d="M-1131.3,2615.208c.183.5,2.027.264,4.195.525,2.173.218,3.921.853,4.208.4.129-.216-.176-.688-.883-1.174a7.019,7.019,0,0,0-3.119-1.092,7.021,7.021,0,0,0-3.283.386C-1130.981,2614.575-1131.382,2614.969-1131.3,2615.208Z" transform="translate(1131.313 -2613.822)" fill="#344154"/>
                              </g>
                            </g>
                          </g>
                        </g>
                      </g>
                      <g id="Grupo_59685" data-name="Grupo 59685" transform="translate(3.107 17.447)">
                        <g id="Grupo_59684" data-name="Grupo 59684">
                          <g id="Grupo_59683" data-name="Grupo 59683">
                            <g id="Grupo_59682" data-name="Grupo 59682">
                              <g id="Grupo_59681" data-name="Grupo 59681">
                                <path id="Trazado_104088" data-name="Trazado 104088" d="M-1152.436,2614.44c.325.419,1.6-.016,3.129-.036,1.53-.074,2.826.282,3.125-.157.131-.213-.073-.634-.639-1.032a4.329,4.329,0,0,0-2.544-.687,4.327,4.327,0,0,0-2.5.844C-1152.4,2613.8-1152.579,2614.235-1152.436,2614.44Z" transform="translate(1152.484 -2612.525)" fill="#344154"/>
                              </g>
                            </g>
                          </g>
                        </g>
                      </g>
                    </g>
                  </g>
                  <g id="Grupo_59689" data-name="Grupo 59689" transform="translate(41.671 27.362)">
                    <g id="Grupo_59688" data-name="Grupo 59688">
                      <path id="Trazado_104089" data-name="Trazado 104089" d="M-1104.36,2625.213a3.355,3.355,0,0,1,3.5.175,6.405,6.405,0,0,1,2.771,7.367,6.406,6.406,0,0,1-6.682,4.16" transform="translate(1104.771 -2624.792)" fill="#ffbf9d"/>
                    </g>
                  </g>
                  <g id="Grupo_59692" data-name="Grupo 59692" transform="translate(42.71 30.348)">
                    <g id="Grupo_59691" data-name="Grupo 59691">
                      <g id="Grupo_59690" data-name="Grupo 59690">
                        <path id="Trazado_104090" data-name="Trazado 104090" d="M-1103.179,2633.631c.038-.1.521.114,1.166-.183a2.331,2.331,0,0,0,1.149-2.288,2.364,2.364,0,0,0-1.429-2.147c-.669-.274-1.163-.14-1.191-.244-.047-.066.455-.422,1.339-.224a2.459,2.459,0,0,1,1.309.817,2.98,2.98,0,0,1,.664,1.762,2.661,2.661,0,0,1-1.676,2.785C-1102.756,2634.149-1103.25,2633.685-1103.179,2633.631Z" transform="translate(1103.486 -2628.487)" fill="#ff9a6c"/>
                      </g>
                    </g>
                  </g>
                </g>
              </g>
            </g>
            <g id="Grupo_59697" data-name="Grupo 59697" transform="translate(45.784 54.439)">
              <g id="Grupo_59696" data-name="Grupo 59696">
                <path id="Trazado_104091" data-name="Trazado 104091" d="M-1099.092,2637.956a2.756,2.756,0,0,1,.614.433l1.64,1.339,5.777,4.908.195.165-.165.2c-2.151,2.583-4.548,5.819-7.242,9.2-.61.762-1.219,1.508-1.811,2.205l-.5.583-.034-.764c-.243-5.451-.431-10.277-.537-13.741-.04-1.648-.073-3.016-.1-4.083a7.6,7.6,0,0,1,.04-1.487,7.487,7.487,0,0,1,.178,1.477c.074,1.065.168,2.429.281,4.074.214,3.459.474,8.281.737,13.732l-.529-.18,1.8-2.2c2.685-3.368,5.111-6.587,7.324-9.151l.03.362-5.638-5.072-1.549-1.448A2.764,2.764,0,0,1-1099.092,2637.956Z" transform="translate(1101.252 -2636.91)" fill="#5e6178"/>
              </g>
            </g>
            <g id="Grupo_59698" data-name="Grupo 59698" transform="translate(0 11.482)">
              <path id="Trazado_104092" data-name="Trazado 104092" d="M-1137.027,2583.762a48.76,48.76,0,0,0-9.762,1.066,16.35,16.35,0,0,0-8.441,4.752,9.926,9.926,0,0,0-2.332,9.131c.936,3.143,4.163,5.6,7.413,5.17,2.468-.332,4.834-2.158,7.216-1.432,2.251.686,3.49,3.432,5.8,3.859,2.284.423,4.317-1.628,6.631-1.828,2.553-.221,4.769,1.874,5.905,4.17s1.567,4.892,2.708,7.186a5.824,5.824,0,0,0,3.449,3.282,4.741,4.741,0,0,0,4.174-1.175,9.693,9.693,0,0,0,2.444-3.741,21.13,21.13,0,0,0-1.369-18.447,21.131,21.131,0,0,0-15.525-10.056" transform="translate(1157.898 -2583.762)" fill="#344154"/>
            </g>
            <g id="Grupo_59700" data-name="Grupo 59700" transform="translate(39.067 12.646)">
              <g id="Grupo_59699" data-name="Grupo 59699">
                <path id="Trazado_104093" data-name="Trazado 104093" d="M-1095.137,2598.258c-.1.03-.416-1.08-1.238-2.719a19.686,19.686,0,0,0-4.307-5.642,19.71,19.71,0,0,0-6.05-3.716c-1.713-.652-2.849-.849-2.83-.956.006-.041.294-.024.814.044a12.143,12.143,0,0,1,2.158.509,17.591,17.591,0,0,1,6.314,3.669,17.6,17.6,0,0,1,4.289,5.909,12.075,12.075,0,0,1,.723,2.1C-1095.144,2597.963-1095.1,2598.248-1095.137,2598.258Z" transform="translate(1109.562 -2585.203)" fill="#d9a171"/>
              </g>
            </g>
            <g id="Grupo_59702" data-name="Grupo 59702" transform="translate(44.668 4.387)">
              <g id="Grupo_59701" data-name="Grupo 59701">
                <path id="Trazado_104094" data-name="Trazado 104094" d="M-1083.567,2576.687a22.169,22.169,0,0,0-3.224-1,12.854,12.854,0,0,0-7.853,1.182,17.432,17.432,0,0,0-6.069,5.281c-1.241,1.686-1.821,2.865-1.913,2.817a2.6,2.6,0,0,1,.318-.87,16.706,16.706,0,0,1,1.245-2.194,16.3,16.3,0,0,1,6.149-5.576,12.47,12.47,0,0,1,8.209-1.06,9.179,9.179,0,0,1,2.377.887C-1083.806,2576.447-1083.548,2576.656-1083.567,2576.687Z" transform="translate(1102.633 -2574.984)" fill="#5e6178"/>
              </g>
            </g>
            <g id="Grupo_59704" data-name="Grupo 59704" transform="translate(43.654 21.82)">
              <g id="Grupo_59703" data-name="Grupo 59703">
                <path id="Trazado_104095" data-name="Trazado 104095" d="M-1096.68,2596.552a8.444,8.444,0,0,1,.02,2.754,21.785,21.785,0,0,1-1.673,6.439,21.815,21.815,0,0,1-3.534,5.639,8.414,8.414,0,0,1-2.016,1.875c-.158-.129,2.989-3.021,4.993-7.754C-1096.826,2600.8-1096.883,2596.526-1096.68,2596.552Z" transform="translate(1103.888 -2596.552)" fill="#5e6178"/>
              </g>
            </g>
            <g id="Grupo_59706" data-name="Grupo 59706" transform="translate(46.344 22.104)">
              <g id="Grupo_59705" data-name="Grupo 59705">
                <path id="Trazado_104096" data-name="Trazado 104096" d="M-1095.655,2596.9c.04-.012.153.26.327.767a12.992,12.992,0,0,1,.524,2.207,18.839,18.839,0,0,1-.361,7.462,18.842,18.842,0,0,1-3.227,6.74,12.962,12.962,0,0,1-1.51,1.692c-.393.365-.622.55-.652.52-.076-.076.753-.913,1.815-2.463a21.23,21.23,0,0,0,2.986-6.637,21.217,21.217,0,0,0,.524-7.259C-1095.427,2598.066-1095.759,2596.935-1095.655,2596.9Z" transform="translate(1100.559 -2596.904)" fill="#5e6178"/>
              </g>
            </g>
          </g>
        </g>
      </g>
    </g>
    <g id="Grupo_59711" data-name="Grupo 59711" transform="translate(-1198.862 2430.725)">
      <path id="Trazado_104097" data-name="Trazado 104097" d="M-1125.01,2442.259a4.559,4.559,0,0,1-1.451,3.034,4.759,4.759,0,0,1-3.246,1.068,4.367,4.367,0,0,1-3.519-1.574,6.333,6.333,0,0,1-1.323-4.212v-1.191a7.058,7.058,0,0,1,.617-3.038,4.6,4.6,0,0,1,1.748-2.012,4.867,4.867,0,0,1,2.621-.7,4.475,4.475,0,0,1,3.165,1.1,4.61,4.61,0,0,1,1.387,3.051h-1.642a3.555,3.555,0,0,0-.923-2.151,2.791,2.791,0,0,0-1.987-.666,2.925,2.925,0,0,0-2.456,1.158,5.318,5.318,0,0,0-.889,3.3v1.2a5.47,5.47,0,0,0,.842,3.21,2.723,2.723,0,0,0,2.358,1.192,3.141,3.141,0,0,0,2.089-.617,3.423,3.423,0,0,0,.966-2.149Z" transform="translate(1134.549 -2433.12)" fill="#344154"/>
      <path id="Trazado_104098" data-name="Trazado 104098" d="M-1120.81,2442.257a5.447,5.447,0,0,1,.532-2.434,3.974,3.974,0,0,1,1.481-1.667,4.035,4.035,0,0,1,2.166-.587,3.881,3.881,0,0,1,3.042,1.3,5.006,5.006,0,0,1,1.162,3.463v.111a5.5,5.5,0,0,1-.515,2.413,3.909,3.909,0,0,1-1.473,1.663,4.078,4.078,0,0,1-2.2.6,3.876,3.876,0,0,1-3.034-1.3,4.985,4.985,0,0,1-1.161-3.447Zm1.583.188a3.942,3.942,0,0,0,.71,2.459,2.274,2.274,0,0,0,1.9.927,2.262,2.262,0,0,0,1.906-.94,4.307,4.307,0,0,0,.706-2.634,3.931,3.931,0,0,0-.719-2.454,2.284,2.284,0,0,0-1.91-.94,2.261,2.261,0,0,0-1.881.927A4.273,4.273,0,0,0-1119.227,2442.444Z" transform="translate(1131.915 -2433.875)" fill="#344154"/>
      <path id="Trazado_104099" data-name="Trazado 104099" d="M-1106.508,2437.739l.052,1.157a3.354,3.354,0,0,1,2.757-1.328q2.918,0,2.944,3.294v6.083h-1.574v-6.093a2.12,2.12,0,0,0-.455-1.472,1.826,1.826,0,0,0-1.392-.477,2.269,2.269,0,0,0-1.344.409,2.766,2.766,0,0,0-.9,1.072v6.561H-1108v-9.207Z" transform="translate(1129.458 -2433.875)" fill="#344154"/>
      <path id="Trazado_104100" data-name="Trazado 104100" d="M-1094.229,2435.021v2.229h1.719v1.216h-1.719v5.718a1.272,1.272,0,0,0,.23.83.964.964,0,0,0,.782.277,3.824,3.824,0,0,0,.749-.1v1.269a4.624,4.624,0,0,1-1.208.169,1.959,1.959,0,0,1-1.591-.639,2.742,2.742,0,0,1-.536-1.812v-5.711h-1.676v-1.216h1.676v-2.229Z" transform="translate(1127.441 -2433.387)" fill="#344154"/>
      <path id="Trazado_104101" data-name="Trazado 104101" d="M-1083.435,2446.945a3.3,3.3,0,0,1-.221-.97,3.511,3.511,0,0,1-2.621,1.141,3.249,3.249,0,0,1-2.233-.771,2.488,2.488,0,0,1-.872-1.953,2.6,2.6,0,0,1,1.094-2.234,5.155,5.155,0,0,1,3.075-.8h1.532v-.723a1.77,1.77,0,0,0-.494-1.315,1.986,1.986,0,0,0-1.455-.489,2.3,2.3,0,0,0-1.413.425,1.255,1.255,0,0,0-.57,1.03h-1.583a2.171,2.171,0,0,1,.49-1.331,3.333,3.333,0,0,1,1.327-1.017,4.458,4.458,0,0,1,1.842-.375,3.64,3.64,0,0,1,2.493.8,2.869,2.869,0,0,1,.936,2.191v4.238a5.192,5.192,0,0,0,.323,2.017v.136Zm-2.612-1.2a2.766,2.766,0,0,0,1.4-.383,2.317,2.317,0,0,0,.962-1v-1.889h-1.234q-2.893,0-2.894,1.693a1.433,1.433,0,0,0,.494,1.157A1.9,1.9,0,0,0-1086.047,2445.746Z" transform="translate(1125.889 -2433.875)" fill="#344154"/>
      <path id="Trazado_104102" data-name="Trazado 104102" d="M-1069.534,2441.568a5.471,5.471,0,0,1-.97,3.39,3.1,3.1,0,0,1-2.6,1.281,3.208,3.208,0,0,1-2.7-1.234l-.077,1.063h-1.447V2433h1.574v4.876a3.191,3.191,0,0,1,2.629-1.183,3.119,3.119,0,0,1,2.634,1.268,5.643,5.643,0,0,1,.957,3.472Zm-1.574-.179a4.255,4.255,0,0,0-.621-2.485,2.057,2.057,0,0,0-1.787-.877,2.313,2.313,0,0,0-2.238,1.447v3.982a2.377,2.377,0,0,0,2.255,1.447,2.045,2.045,0,0,0,1.761-.876A4.521,4.521,0,0,0-1071.109,2441.39Z" transform="translate(1123.578 -2432.999)" fill="#344154"/>
      <path id="Trazado_104103" data-name="Trazado 104103" d="M-1065.221,2434.541a.941.941,0,0,1,.234-.646.879.879,0,0,1,.693-.263.9.9,0,0,1,.7.263.933.933,0,0,1,.238.646.9.9,0,0,1-.238.639.909.909,0,0,1-.7.255.893.893,0,0,1-.693-.255A.91.91,0,0,1-1065.221,2434.541Zm1.7,11.649h-1.574v-9.207h1.574Z" transform="translate(1121.256 -2433.12)" fill="#344154"/>
      <path id="Trazado_104104" data-name="Trazado 104104" d="M-1058.257,2446.069h-1.574V2433h1.574Z" transform="translate(1120.222 -2432.999)" fill="#344154"/>
      <path id="Trazado_104105" data-name="Trazado 104105" d="M-1054.756,2434.541a.941.941,0,0,1,.233-.646.88.88,0,0,1,.694-.263.892.892,0,0,1,.7.263.929.929,0,0,1,.238.646.9.9,0,0,1-.238.639.906.906,0,0,1-.7.255.894.894,0,0,1-.694-.255A.91.91,0,0,1-1054.756,2434.541Zm1.7,11.649h-1.574v-9.207h1.574Z" transform="translate(1119.249 -2433.12)" fill="#344154"/>
      <path id="Trazado_104106" data-name="Trazado 104106" d="M-1050.008,2441.39a5.4,5.4,0,0,1,1-3.408,3.176,3.176,0,0,1,2.629-1.289,3.193,3.193,0,0,1,2.561,1.106V2433h1.575v13.07h-1.447l-.077-.987a3.2,3.2,0,0,1-2.629,1.158,3.147,3.147,0,0,1-2.608-1.31,5.46,5.46,0,0,1-1.008-3.421Zm1.574.179a4.081,4.081,0,0,0,.647,2.451,2.089,2.089,0,0,0,1.786.885,2.3,2.3,0,0,0,2.187-1.344v-4.23a2.314,2.314,0,0,0-2.169-1.3,2.1,2.1,0,0,0-1.8.894A4.493,4.493,0,0,0-1048.434,2441.568Z" transform="translate(1118.339 -2432.999)" fill="#344154"/>
      <path id="Trazado_104107" data-name="Trazado 104107" d="M-1031.753,2446.945a3.323,3.323,0,0,1-.221-.97,3.51,3.51,0,0,1-2.62,1.141,3.252,3.252,0,0,1-2.234-.771,2.491,2.491,0,0,1-.872-1.953,2.6,2.6,0,0,1,1.094-2.234,5.157,5.157,0,0,1,3.076-.8H-1032v-.723a1.77,1.77,0,0,0-.494-1.315,1.985,1.985,0,0,0-1.455-.489,2.3,2.3,0,0,0-1.413.425,1.255,1.255,0,0,0-.57,1.03h-1.583a2.17,2.17,0,0,1,.489-1.331,3.338,3.338,0,0,1,1.327-1.017,4.465,4.465,0,0,1,1.843-.375,3.641,3.641,0,0,1,2.493.8,2.872,2.872,0,0,1,.936,2.191v4.238a5.176,5.176,0,0,0,.323,2.017v.136Zm-2.612-1.2a2.762,2.762,0,0,0,1.4-.383,2.313,2.313,0,0,0,.962-1v-1.889h-1.234q-2.893,0-2.893,1.693a1.432,1.432,0,0,0,.493,1.157A1.9,1.9,0,0,0-1034.365,2445.746Z" transform="translate(1115.979 -2433.875)" fill="#344154"/>
      <path id="Trazado_104108" data-name="Trazado 104108" d="M-1026.12,2441.39a5.4,5.4,0,0,1,1-3.408,3.176,3.176,0,0,1,2.629-1.289,3.193,3.193,0,0,1,2.561,1.106V2433h1.575v13.07h-1.447l-.076-.987a3.206,3.206,0,0,1-2.63,1.158,3.144,3.144,0,0,1-2.607-1.31,5.456,5.456,0,0,1-1.009-3.421Zm1.574.179a4.082,4.082,0,0,0,.647,2.451,2.09,2.09,0,0,0,1.787.885,2.3,2.3,0,0,0,2.186-1.344v-4.23a2.314,2.314,0,0,0-2.169-1.3,2.1,2.1,0,0,0-1.8.894A4.494,4.494,0,0,0-1024.546,2441.568Z" transform="translate(1113.759 -2432.999)" fill="#344154"/>
    </g>
    <g id="Grupo_59716" data-name="Grupo 59716" transform="translate(-1414.497 2643.365)">
      <g id="Grupo_59715" data-name="Grupo 59715" transform="translate(9.304)">
        <g id="Grupo_59712" data-name="Grupo 59712" transform="translate(0 23.838)">
          <rect id="Rectángulo_5727" data-name="Rectángulo 5727" width="29.035" height="79.438" fill="#6595bf"/>
          <rect id="Rectángulo_5728" data-name="Rectángulo 5728" width="18.269" height="34.499" transform="translate(5.383 5.22)" fill="#aed3f2"/>
          <path id="Trazado_104109" data-name="Trazado 104109" d="M-1366.392,2801.369a7.177,7.177,0,0,1-7.177,7.177,7.177,7.177,0,0,1-7.177-7.177,7.177,7.177,0,0,1,7.177-7.177A7.177,7.177,0,0,1-1366.392,2801.369Z" transform="translate(1388.087 -2738.732)" fill="#aed3f2"/>
          <rect id="Rectángulo_5729" data-name="Rectángulo 5729" width="11.418" height="2.936" transform="translate(8.808 11.581)" fill="#6595bf"/>
          <rect id="Rectángulo_5730" data-name="Rectángulo 5730" width="11.418" height="2.936" transform="translate(8.808 17.78)" fill="#6595bf"/>
        </g>
        <g id="Grupo_59713" data-name="Grupo 59713" transform="translate(31.47 10.675)">
          <rect id="Rectángulo_5731" data-name="Rectángulo 5731" width="29.035" height="92.614" fill="#6595bf"/>
          <rect id="Rectángulo_5732" data-name="Rectángulo 5732" width="18.269" height="34.499" transform="translate(5.383 5.22)" fill="#aed3f2"/>
          <path id="Trazado_104110" data-name="Trazado 104110" d="M-1327.457,2801.385a7.177,7.177,0,0,1-7.177,7.177,7.178,7.178,0,0,1-7.177-7.177,7.178,7.178,0,0,1,7.177-7.177A7.177,7.177,0,0,1-1327.457,2801.385Z" transform="translate(1349.152 -2725.573)" fill="#aed3f2"/>
          <rect id="Rectángulo_5733" data-name="Rectángulo 5733" width="11.418" height="2.936" transform="translate(8.808 11.581)" fill="#6595bf"/>
          <rect id="Rectángulo_5734" data-name="Rectángulo 5734" width="11.418" height="2.936" transform="translate(8.808 17.78)" fill="#6595bf"/>
        </g>
        <g id="Grupo_59714" data-name="Grupo 59714" transform="translate(62.94)">
          <rect id="Rectángulo_5735" data-name="Rectángulo 5735" width="29.035" height="103.289" fill="#6595bf"/>
          <rect id="Rectángulo_5736" data-name="Rectángulo 5736" width="18.269" height="34.499" transform="translate(5.383 5.22)" fill="#aed3f2"/>
          <path id="Trazado_104111" data-name="Trazado 104111" d="M-1288.522,2801.385a7.177,7.177,0,0,1-7.177,7.177,7.178,7.178,0,0,1-7.177-7.177,7.178,7.178,0,0,1,7.177-7.177A7.177,7.177,0,0,1-1288.522,2801.385Z" transform="translate(1310.217 -2714.897)" fill="#aed3f2"/>
          <rect id="Rectángulo_5737" data-name="Rectángulo 5737" width="11.418" height="2.936" transform="translate(8.808 11.581)" fill="#6595bf"/>
          <rect id="Rectángulo_5738" data-name="Rectángulo 5738" width="11.418" height="2.936" transform="translate(8.808 17.78)" fill="#6595bf"/>
        </g>
      </g>
      <path id="Trazado_104112" data-name="Trazado 104112" d="M-1401.339,2809.4l54.115-34.7,12.157,12.206,33.87-23.831-8.529-4.453h18.97l-4.706,17.438-2.794-10.045-38.233,27.163-11.764-12.007-50.732,32.5Z" transform="translate(1401.339 -2708.074)" fill="#d9a171"/>
    </g>
  </g>
</svg>
