<svg xmlns="http://www.w3.org/2000/svg" width="373.329" height="383.532" viewBox="0 0 373.329 383.532">
  <g id="Grupo_66546" data-name="Grupo 66546" transform="translate(-822.26 -12438.729)">
    <g id="Grupo_55409" data-name="Grupo 55409" transform="translate(607.943 8328.106)">
      <circle id="Elipse_4000" data-name="Elipse 4000" cx="184.164" cy="184.164" r="184.164" transform="translate(216.816 4123.325)" fill="#cee5f7" stroke="#aed3f2" stroke-miterlimit="10" stroke-width="5"/>
      <g id="Grupo_55408" data-name="Grupo 55408">
        <rect id="Rectángulo_5247" data-name="Rectángulo 5247" width="33.12" height="0.25" transform="translate(548.649 4453.912)" fill="#ebebeb"/>
        <rect id="Rectángulo_5248" data-name="Rectángulo 5248" width="8.69" height="0.25" transform="translate(454.4 4456.632)" fill="#ebebeb"/>
        <rect id="Rectángulo_5249" data-name="Rectángulo 5249" width="19.19" height="0.25" transform="translate(528.459 4444.632)" fill="#ebebeb"/>
        <rect id="Rectángulo_5250" data-name="Rectángulo 5250" width="6.33" height="0.25" transform="translate(236.43 4446.313)" fill="#ebebeb"/>
        <rect id="Rectángulo_5251" data-name="Rectángulo 5251" width="93.68" height="0.25" transform="translate(263.34 4450.532)" fill="#ebebeb"/>
        <rect id="Rectángulo_5252" data-name="Rectángulo 5252" width="14.46" height="20.16" transform="translate(326.539 4228.682)" fill="#ebebeb"/>
        <rect id="Rectángulo_5253" data-name="Rectángulo 5253" width="14.46" height="20.16" transform="translate(345.78 4228.682)" fill="#ebebeb"/>
        <rect id="Rectángulo_5254" data-name="Rectángulo 5254" width="14.46" height="20.16" transform="translate(365.02 4228.682)" fill="#ebebeb"/>
        <rect id="Rectángulo_5255" data-name="Rectángulo 5255" width="14.46" height="20.16" transform="translate(268.25 4264.882)" fill="#ebebeb"/>
        <rect id="Rectángulo_5256" data-name="Rectángulo 5256" width="14.46" height="20.16" transform="translate(287.479 4264.882)" fill="#ebebeb"/>
        <rect id="Rectángulo_5257" data-name="Rectángulo 5257" width="14.46" height="20.16" transform="translate(306.72 4264.882)" fill="#ebebeb"/>
        <rect id="Rectángulo_5258" data-name="Rectángulo 5258" width="14.46" height="20.16" transform="translate(325.96 4264.882)" fill="#ebebeb"/>
        <rect id="Rectángulo_5259" data-name="Rectángulo 5259" width="14.46" height="20.16" transform="translate(345.19 4264.882)" fill="#ebebeb"/>
        <rect id="Rectángulo_5260" data-name="Rectángulo 5260" width="14.46" height="20.16" transform="translate(364.43 4264.882)" fill="#ebebeb"/>
        <rect id="Rectángulo_5261" data-name="Rectángulo 5261" width="14.46" height="20.16" transform="translate(286.9 4301.083)" fill="#ebebeb"/>
        <rect id="Rectángulo_5262" data-name="Rectángulo 5262" width="14.46" height="20.16" transform="translate(306.129 4301.083)" fill="#ebebeb"/>
        <rect id="Rectángulo_5263" data-name="Rectángulo 5263" width="14.46" height="20.16" transform="translate(325.37 4301.083)" fill="#ebebeb"/>
        <rect id="Rectángulo_5264" data-name="Rectángulo 5264" width="14.46" height="20.16" transform="translate(286.31 4337.282)" fill="#ebebeb"/>
        <rect id="Rectángulo_5265" data-name="Rectángulo 5265" width="14.46" height="20.16" transform="translate(305.549 4337.282)" fill="#ebebeb"/>
        <rect id="Rectángulo_5266" data-name="Rectángulo 5266" width="14.46" height="20.16" transform="translate(324.78 4337.282)" fill="#ebebeb"/>
        <rect id="Rectángulo_5267" data-name="Rectángulo 5267" width="14.46" height="20.16" transform="translate(285.72 4373.482)" fill="#ebebeb"/>
        <rect id="Rectángulo_5268" data-name="Rectángulo 5268" width="14.46" height="20.16" transform="translate(324.199 4373.482)" fill="#ebebeb"/>
        <rect id="Rectángulo_5269" data-name="Rectángulo 5269" width="14.46" height="20.16" transform="translate(323.609 4409.682)" fill="#ebebeb"/>
        <rect id="Rectángulo_5270" data-name="Rectángulo 5270" width="14.46" height="20.87" transform="translate(276.039 4258.792)" fill="#ebebeb"/>
        <rect id="Rectángulo_5271" data-name="Rectángulo 5271" width="14.46" height="20.87" transform="translate(295.28 4258.792)" fill="#ebebeb"/>
        <rect id="Rectángulo_5272" data-name="Rectángulo 5272" width="14.46" height="20.87" transform="translate(294.69 4296.272)" fill="#ebebeb"/>
        <rect id="Rectángulo_5273" data-name="Rectángulo 5273" width="14.46" height="20.87" transform="translate(294.109 4333.762)" fill="#ebebeb"/>
        <rect id="Rectángulo_5274" data-name="Rectángulo 5274" width="3.78" height="27.89" transform="translate(324.199 4110.622)" fill="#f5f5f5"/>
        <rect id="Rectángulo_5275" data-name="Rectángulo 5275" width="3.78" height="27.89" transform="translate(419.199 4110.622)" fill="#f5f5f5"/>
        <rect id="Rectángulo_5276" data-name="Rectángulo 5276" width="127.28" height="40.53" transform="translate(308.609 4133.142)" fill="#f2e9e4"/>
        <rect id="Rectángulo_5277" data-name="Rectángulo 5277" width="5.3" height="40.53" transform="translate(430.579 4133.142)" fill="#e6e6e6"/>
        <g id="freepik--Plant--inject-48">
          <path id="Trazado_101574" data-name="Trazado 101574" d="M261.806,4443.9s-5.65-12.33.81-24.48,8.32-15,4.21-17.5-6,9.72-6,9.72-3.46-8.4-.6-17.19,4.66-23.11.75-24.65-.75,17.86-4.14,24.48a57.032,57.032,0,0,1-3.32-14.43c-.47-7.06.26-18.33-2.83-21.22s-5.06-.89-2,14.69a162.846,162.846,0,0,1,3,28.25s-6.71-20.44-11.21-21-4.49,6-.64,11.76,11.28,16,12.5,21.32c0,0-7.36-15.38-14-10.66s5.76,14,11.28,17.36,9.35,24.4,9.35,24.4Z" fill="#d9a171"/>
          <path id="Trazado_101575" data-name="Trazado 101575" d="M261.806,4443.9s-5.65-12.33.81-24.48,8.32-15,4.21-17.5-6,9.72-6,9.72-3.46-8.4-.6-17.19,4.66-23.11.75-24.65-.75,17.86-4.14,24.48a57.032,57.032,0,0,1-3.32-14.43c-.47-7.06.26-18.33-2.83-21.22s-5.06-.89-2,14.69a162.846,162.846,0,0,1,3,28.25s-6.71-20.44-11.21-21-4.49,6-.64,11.76,11.28,16,12.5,21.32c0,0-7.36-15.38-14-10.66s5.76,14,11.28,17.36,9.35,24.4,9.35,24.4Z" fill="#47495a" opacity="0.6" style="isolation: isolate"/>
          <path id="Trazado_101576" data-name="Trazado 101576" d="M257.326,4448.952s5.5-12.41-1.1-24.46-8.5-14.89-4.42-17.44,6.12,9.63,6.12,9.63,3.37-8.45.4-17.2-4.94-23-1-24.63,1,17.85,4.44,24.41a56.921,56.921,0,0,0,3.14-14.47c.39-7.07-.48-18.33,2.57-21.27s5.06-1,2.21,14.66a162.707,162.707,0,0,0-2.67,28.29s6.46-20.53,11-21.2,4.56,6,.78,11.76-11.08,16.19-12.24,21.5c0,0,7.17-15.49,13.85-10.88s-5.59,14.09-11.07,17.53-9.06,24.54-9.06,24.54Z" fill="#d9a171"/>
          <path id="Trazado_101577" data-name="Trazado 101577" d="M257.326,4448.952s5.5-12.41-1.1-24.46-8.5-14.89-4.42-17.44,6.12,9.63,6.12,9.63,3.37-8.45.4-17.2-4.94-23-1-24.63,1,17.85,4.44,24.41a56.921,56.921,0,0,0,3.14-14.47c.39-7.07-.48-18.33,2.57-21.27s5.06-1,2.21,14.66a162.707,162.707,0,0,0-2.67,28.29s6.46-20.53,11-21.2,4.56,6,.78,11.76-11.08,16.19-12.24,21.5c0,0,7.17-15.49,13.85-10.88s-5.59,14.09-11.07,17.53-9.06,24.54-9.06,24.54Z" fill="#5e6178" opacity="0.7" style="isolation: isolate"/>
          <path id="Trazado_101578" data-name="Trazado 101578" d="M282.716,4440.1h-45.44l3.68,32.52h38.09Z" fill="#d9a171"/>
        </g>
        <g id="freepik--trash-bin--inject-48">
          <path id="Trazado_101579" data-name="Trazado 101579" d="M574.7,4447.832a3,3,0,0,0-2.39-4.27,6.359,6.359,0,0,0-2-7,1.469,1.469,0,0,0-.87-.39,1.774,1.774,0,0,0-.95.41l-5.57,4a3.326,3.326,0,0,0-1.11,1.09c-1.14,2.21,3,5,1.28,6.86-.48.52-1.26.63-1.87,1-1.33.83-1.49,2.65-2.1,4.09s-2.78,2.55-3.6,1.22c.61-1.38-1.24-2.56-2.73-2.74s-3.06-.26-3.89-1.66c-2.13,1.85-6.88-3.32-6.77-5.41-1.75.13-2.94,1.77-3.32,3.4a24.443,24.443,0,0,0-.18,5.2c-.05,3.39-1.14,6.7-1.08,10.08,0,2.63,1.06,5.55,3.47,6.61a8.993,8.993,0,0,0,3.73.5l27.43-.17a4.307,4.307,0,0,0,1.93-.32c1.24-.65,1.5-2.28,1.62-3.67l1.47-17.87Z" fill="#d9a171"/>
          <path id="Trazado_101580" data-name="Trazado 101580" d="M574.7,4447.832a3,3,0,0,0-2.39-4.27,6.359,6.359,0,0,0-2-7,1.469,1.469,0,0,0-.87-.39,1.774,1.774,0,0,0-.95.41l-5.57,4a3.326,3.326,0,0,0-1.11,1.09c-1.14,2.21,3,5,1.28,6.86-.48.52-1.26.63-1.87,1-1.33.83-1.49,2.65-2.1,4.09s-2.78,2.55-3.6,1.22c.61-1.38-1.24-2.56-2.73-2.74s-3.06-.26-3.89-1.66c-2.13,1.85-6.88-3.32-6.77-5.41-1.75.13-2.94,1.77-3.32,3.4a24.443,24.443,0,0,0-.18,5.2c-.05,3.39-1.14,6.7-1.08,10.08,0,2.63,1.06,5.55,3.47,6.61a8.993,8.993,0,0,0,3.73.5l27.43-.17a4.307,4.307,0,0,0,1.93-.32c1.24-.65,1.5-2.28,1.62-3.67l1.47-17.87Z" fill="#fff" opacity="0.3" style="isolation: isolate"/>
          <path id="Trazado_101581" data-name="Trazado 101581" d="M576.3,4418.842h-42.56l.351,4.3.25,3.07.649,8,.37,4.59.49,6.11.21,2.62.07.78.25,3.08.34,4.22.21,2.62.22,2.66.25,3.08.19,2.33.21,2.62.09,1.14h39.06l.09-1.14.21-2.61.19-2.35.25-3.08.22-2.65.21-2.62.34-4.23.25-3.07.06-.78.21-2.62.5-6.11.37-4.58.64-8,.25-3.07.35-4.3Zm2.56,2.82h0l-.82-.82h.89Zm-.21,2.61-.079,1-3.81,3.81-4.37-4.37,3.91-3.91h.92Zm-1.1,13.62-2.79,2.79-4.37-4.37,4.37-4.36,3,3Zm-40.5-2.92h0l3-3,4.37,4.36-4.37,4.37-2.78-2.79Zm36.3-4.44-4.37,4.37-4.37-4.37,4.37-4.37Zm-6.87-9.69h5l-2.5,2.5Zm1.08,15.47-4.36,4.37-4.33-4.37,4.37-4.36Zm-14.51,5.78,4.37-4.36,4.36,4.36-4.36,4.33Zm2.95,5.78-4.37,4.37-4.36-4.36,4.37-4.37Zm7.2-4.36,4.36,4.37-4.36,4.36-4.33-4.37Zm-5.78-8.61-4.37-4.37,4.37-4.37,4.36,4.37Zm-1.42,1.41-4.36,4.37-4.37-4.37,4.37-4.36Zm-10.13-1.41-4.359-4.37,4.359-4.37,4.37,4.37Zm0,2.83,4.37,4.36-4.37,4.33-4.359-4.37Zm4.37,15.93-4.37,4.36-4.359-4.36,4.359-4.37Zm1.41,1.41,4.37,4.37-4.359,4.37-4.391-4.39Zm1.421-1.41,4.37-4.37,4.359,4.37-4.359,4.36Zm10.15,1.41,4.359,4.37-4.359,4.37-4.351-4.39Zm5.78,5.78,4.369,4.37-2.829,2.83h-3.08l-2.83-2.83Zm-4.37-7.19,4.37-4.37,4.369,4.37-4.369,4.36Zm0-11.57,4.37-4.36,4.369,4.36-4.39,4.33Zm2.95-17.34-4.36,4.37-4.351-4.37,3.911-3.91h.92Zm-10.14-1.41-2.5-2.5h5Zm-1.421,1.41-4.359,4.37-4.37-4.37,3.91-3.91h.92Zm-7.65-3.91-2.5,2.5-2.489-2.5Zm-7.82,0,3.91,3.91-4.369,4.37-3.8-3.81-.08-1,3.42-3.43Zm-3.739,0-.81.81h0l-.071-.81Zm-.27,7.55,2.14,2.14-1.811,1.82Zm1.19,14.65-.17-2.07h0l1.119,1.12-1,.95Zm.21,2.63,2.15-2.16,4.369,4.37-4.369,4.36-1.761-1.76Zm.65,8.08v-.19l.1.1-.09.09Zm.76,9.31-.55-6.7,1.29-1.29,4.37,4.37-4.37,4.36-.74-.74Zm.4,5-.08-1,.42-.42,1.42,1.42Zm1.76-2.83,4.359-4.37,4.37,4.37-2.829,2.83h-3.08Zm8.73,2.83,1.42-1.42,1.42,1.42Zm5.66,0-2.83-2.83,4.37-4.37,4.36,4.37-2.82,2.83Zm5.9,0,1.42-1.42,1.42,1.42Zm13.32,0h-1.76l1.42-1.42.42.42Zm.41-5-.75.74-4.391-4.38,4.37-4.37,1.29,1.29Zm.77-9.51v.2l-.09-.09.11-.11Zm.25-3.07-1.77,1.76-4.37-4.36,4.37-4.37,2.16,2.16Zm.6-7.43-1-1,1.13-1.12Zm1.17-14.63-.32,4-1.83-1.83,2.15-2.15Z" fill="#d9a171"/>
          <g id="Grupo_55404" data-name="Grupo 55404" opacity="0.6">
            <path id="Trazado_101582" data-name="Trazado 101582" d="M576.3,4418.842h-42.56l.351,4.3.25,3.07.649,8,.37,4.59.49,6.11.21,2.62.07.78.25,3.08.34,4.22.21,2.62.22,2.66.25,3.08.19,2.33.21,2.62.09,1.14h39.06l.09-1.14.21-2.61.19-2.35.25-3.08.22-2.65.21-2.62.34-4.23.25-3.07.06-.78.21-2.62.5-6.11.37-4.58.64-8,.25-3.07.35-4.3Zm2.56,2.82h0l-.82-.82h.89Zm-.21,2.61-.079,1-3.81,3.81-4.37-4.37,3.91-3.91h.92Zm-1.1,13.62-2.79,2.79-4.37-4.37,4.37-4.36,3,3Zm-40.5-2.92h0l3-3,4.37,4.36-4.37,4.37-2.78-2.79Zm36.3-4.44-4.37,4.37-4.37-4.37,4.37-4.37Zm-6.87-9.69h5l-2.5,2.5Zm1.08,15.47-4.36,4.37-4.33-4.37,4.37-4.36Zm-14.51,5.78,4.37-4.36,4.36,4.36-4.36,4.33Zm2.95,5.78-4.37,4.37-4.36-4.36,4.37-4.37Zm7.2-4.36,4.36,4.37-4.36,4.36-4.33-4.37Zm-5.78-8.61-4.37-4.37,4.37-4.37,4.36,4.37Zm-1.42,1.41-4.36,4.37-4.37-4.37,4.37-4.36Zm-10.13-1.41-4.359-4.37,4.359-4.37,4.37,4.37Zm0,2.83,4.37,4.36-4.37,4.33-4.359-4.37Zm4.37,15.93-4.37,4.36-4.359-4.36,4.359-4.37Zm1.41,1.41,4.37,4.37-4.359,4.37-4.391-4.39Zm1.421-1.41,4.37-4.37,4.359,4.37-4.359,4.36Zm10.15,1.41,4.359,4.37-4.359,4.37-4.351-4.39Zm5.78,5.78,4.369,4.37-2.829,2.83h-3.08l-2.83-2.83Zm-4.37-7.19,4.37-4.37,4.369,4.37-4.369,4.36Zm0-11.57,4.37-4.36,4.369,4.36-4.39,4.33Zm2.95-17.34-4.36,4.37-4.351-4.37,3.911-3.91h.92Zm-10.14-1.41-2.5-2.5h5Zm-1.421,1.41-4.359,4.37-4.37-4.37,3.91-3.91h.92Zm-7.65-3.91-2.5,2.5-2.489-2.5Zm-7.82,0,3.91,3.91-4.369,4.37-3.8-3.81-.08-1,3.42-3.43Zm-3.739,0-.81.81h0l-.071-.81Zm-.27,7.55,2.14,2.14-1.811,1.82Zm1.19,14.65-.17-2.07h0l1.119,1.12-1,.95Zm.21,2.63,2.15-2.16,4.369,4.37-4.369,4.36-1.761-1.76Zm.65,8.08v-.19l.1.1-.09.09Zm.76,9.31-.55-6.7,1.29-1.29,4.37,4.37-4.37,4.36-.74-.74Zm.4,5-.08-1,.42-.42,1.42,1.42Zm1.76-2.83,4.359-4.37,4.37,4.37-2.829,2.83h-3.08Zm8.73,2.83,1.42-1.42,1.42,1.42Zm5.66,0-2.83-2.83,4.37-4.37,4.36,4.37-2.82,2.83Zm5.9,0,1.42-1.42,1.42,1.42Zm13.32,0h-1.76l1.42-1.42.42.42Zm.41-5-.75.74-4.391-4.38,4.37-4.37,1.29,1.29Zm.77-9.51v.2l-.09-.09.11-.11Zm.25-3.07-1.77,1.76-4.37-4.36,4.37-4.37,2.16,2.16Zm.6-7.43-1-1,1.13-1.12Zm1.17-14.63-.32,4-1.83-1.83,2.15-2.15Z" fill="#fff"/>
          </g>
          <rect id="Rectángulo_5278" data-name="Rectángulo 5278" width="52.8" height="5.57" rx="1.64" transform="translate(531.02 4417.052)" fill="#d9a171"/>
          <rect id="Rectángulo_5279" data-name="Rectángulo 5279" width="45.19" height="5.57" rx="1.64" transform="translate(534.82 4467.063)" fill="#d9a171"/>
        </g>
        <g id="freepik--character-2--inject-48">
          <path id="Trazado_101583" data-name="Trazado 101583" d="M341.069,4266.912h30l20.31,8.24h-30Z" fill="#fff" opacity="0.3" style="isolation: isolate"/>
          <g id="freepik--group--inject-48">
            <path id="Trazado_101584" data-name="Trazado 101584" d="M439.76,4211.142c6.32,3.22,4.51,18.72-11.65,47.66l-11.07-9a163.607,163.607,0,0,1,10.16-26.16C433.75,4210.582,439.76,4211.142,439.76,4211.142Z" fill="#d9a171"/>
            <path id="Trazado_101585" data-name="Trazado 101585" d="M439.76,4211.142c6.32,3.22,4.51,18.72-11.65,47.66l-11.07-9a163.607,163.607,0,0,1,10.16-26.16C433.75,4210.582,439.76,4211.142,439.76,4211.142Z" fill="#fff" opacity="0.4" style="isolation: isolate"/>
            <path id="Trazado_101586" data-name="Trazado 101586" d="M494.04,4280.8h-43c-4.09,22.35-16.9,101.42-7.71,171.87l14.539-1.81s-1.35-93.53,11.52-128.1c1.48,18.5,3.23,38.19,4.76,48.67,3.72,25.78,11.72,82.14,11.72,82.14H500.7s-3-53.94-4.44-79.29C494.76,4346.772,494.1,4286.422,494.04,4280.8Z" fill="#344154"/>
            <path id="Trazado_101587" data-name="Trazado 101587" d="M436.679,4211.362c4.451-1,27.921-6.26,46.86-5.52,0,0,6.09,62.41,11.8,87.78l-49.53,8.68s-11.12-62.1-9.91-90A1,1,0,0,1,436.679,4211.362Z" fill="#d9a171"/>
            <path id="Trazado_101588" data-name="Trazado 101588" d="M436.679,4211.362c4.451-1,27.921-6.26,46.86-5.52,0,0,6.09,62.41,11.8,87.78l-49.53,8.68s-11.12-62.1-9.91-90A1,1,0,0,1,436.679,4211.362Z" fill="#fff" opacity="0.6" style="isolation: isolate"/>
            <path id="Trazado_101589" data-name="Trazado 101589" d="M479.119,4205s-5.67,23.84,9.83,44.09l3.83,25.43,4.45,21.06-24.64,6.5-8.83-19.77-.89,21.83L443.26,4307l-2.13-25s-3.391-19.74-4.261-30.58c0,0-2.94-25.12,1.641-41.14l6.45-1.39s.36,15.31,10.16,27.59c0,0,9.3-24.51,17.74-31.45Z" fill="#d9a171"/>
            <path id="Trazado_101590" data-name="Trazado 101590" d="M479.119,4205s-5.67,23.84,9.83,44.09l3.83,25.43,4.45,21.06-24.64,6.5-8.83-19.77-.89,21.83L443.26,4307l-2.13-25s-3.391-19.74-4.261-30.58c0,0-2.94-25.12,1.641-41.14l6.45-1.39s.36,15.31,10.16,27.59c0,0,9.3-24.51,17.74-31.45Z" fill="#d9a171" opacity="0.2" style="isolation: isolate"/>
            <path id="Trazado_101591" data-name="Trazado 101591" d="M417.04,4249.8s-4.2,16.707-5.447,18.6-29.445-2.734-29.445-2.734-4.807-1.853-7.6-.585-11.676,4.547-12.231,6.851,6.361,6.667,7.768,7.852c1.239,1.044,7.569-2.776,9.228-4.125a7.071,7.071,0,0,0,2.341-3.337s29.644,9.637,38.417,7.077,8.04-20.6,8.04-20.6Z" fill="#d9a171"/>
            <path id="Trazado_101592" data-name="Trazado 101592" d="M456.29,4464.942l-8.36.88-1.57-18.04,8.36-.89Z" fill="#ebb376"/>
            <path id="Trazado_101593" data-name="Trazado 101593" d="M498.049,4464.333h-8.11l-.67-18.78h8.11Z" fill="#ebb376"/>
            <path id="Trazado_101594" data-name="Trazado 101594" d="M488.81,4463.422h9.85a.732.732,0,0,1,.7.56l1.59,7.22a1.192,1.192,0,0,1-.908,1.418l-.012,0a1.166,1.166,0,0,1-.261,0c-3.19-.05-5.51-.24-9.51-.24-2.47,0-9.9.25-13.31.25s-3.84-3.36-2.45-3.67c6.25-1.36,10.95-3.25,12.95-5A2.005,2.005,0,0,1,488.81,4463.422Z" fill="#344154"/>
            <path id="Trazado_101595" data-name="Trazado 101595" d="M486.13,4464.822a2.424,2.424,0,0,1-1.55-.42,1.127,1.127,0,0,1-.41-1,.579.579,0,0,1,.33-.53c.9-.47,3.519,1.14,3.81,1.33a.169.169,0,0,1,.089.18.205.205,0,0,1-.14.17A10.892,10.892,0,0,1,486.13,4464.822Zm-1.2-1.69a.519.519,0,0,0-.25.06c-.049,0-.119.07-.13.22a.809.809,0,0,0,.261.69,3.9,3.9,0,0,0,2.89.15A8.007,8.007,0,0,0,484.929,4463.132Z" fill="#d9a171"/>
            <path id="Trazado_101596" data-name="Trazado 101596" d="M488.209,4464.532h-.1c-.829-.46-2.45-2.24-2.29-3.1a.632.632,0,0,1,.62-.5,1.063,1.063,0,0,1,.82.24c.94.77,1.13,3.1,1.14,3.21a.209.209,0,0,1-.089.18A.166.166,0,0,1,488.209,4464.532Zm-1.63-3.29h-.1c-.24,0-.26.14-.28.19-.1.53.93,1.88,1.77,2.51a4.613,4.613,0,0,0-1-2.54.668.668,0,0,0-.39-.16Z" fill="#d9a171"/>
            <path id="Trazado_101597" data-name="Trazado 101597" d="M447.04,4463.132h9.829a.731.731,0,0,1,.691.56l1.6,7.22a1.2,1.2,0,0,1-.921,1.42h-.26c-3.19-.06-5.51-.25-9.51-.25-2.47,0-9.91.26-13.31.26s-3.85-3.37-2.45-3.68c6.25-1.36,10.95-3.25,12.95-5A2.005,2.005,0,0,1,447.04,4463.132Z" fill="#344154"/>
            <path id="Trazado_101598" data-name="Trazado 101598" d="M444.359,4464.562a2.465,2.465,0,0,1-1.56-.41,1.182,1.182,0,0,1-.4-1,.572.572,0,0,1,.33-.53c.9-.47,3.52,1.14,3.81,1.33a.179.179,0,0,1,.09.18.2.2,0,0,1-.15.17A9.361,9.361,0,0,1,444.359,4464.562Zm-1.21-1.68a.4.4,0,0,0-.239.05c-.06,0-.12.07-.13.23a.828.828,0,0,0,.26.69,4,4,0,0,0,2.89.14,8.026,8.026,0,0,0-2.781-1.11Z" fill="#d9a171"/>
            <path id="Trazado_101599" data-name="Trazado 101599" d="M446.429,4464.272h-.089c-.84-.45-2.451-2.24-2.291-3.1a.632.632,0,0,1,.62-.5,1,1,0,0,1,.81.25c.94.76,1.14,3.09,1.15,3.2a.224.224,0,0,1-.09.18A.193.193,0,0,1,446.429,4464.272Zm-1.63-3.29h-.09c-.25,0-.269.14-.28.19-.1.53.93,1.88,1.77,2.51a4.611,4.611,0,0,0-1-2.54A.7.7,0,0,0,444.8,4460.982Z" fill="#d9a171"/>
            <path id="Trazado_101600" data-name="Trazado 101600" d="M454.72,4446.892l-8.36.89.81,9.31,8.37-.89Z" fill="#d9a171" opacity="0.2" style="isolation: isolate"/>
            <path id="Trazado_101601" data-name="Trazado 101601" d="M497.38,4445.563h-8.11l.35,9.68h8.12Z" fill="#d9a171" opacity="0.2" style="isolation: isolate"/>
            <path id="Trazado_101602" data-name="Trazado 101602" d="M441.63,4456.063l18.03-2.68-.55-5-18.76,2.47Z" fill="#d9a171"/>
            <path id="Trazado_101603" data-name="Trazado 101603" d="M441.63,4456.063l18.03-2.68-.55-5-18.76,2.47Z" fill="#fff" opacity="0.6" style="isolation: isolate"/>
            <path id="Trazado_101604" data-name="Trazado 101604" d="M484.109,4453.692H501.6v-5.23l-18.15-.34Z" fill="#d9a171"/>
            <path id="Trazado_101605" data-name="Trazado 101605" d="M484.109,4453.692H501.6v-5.23l-18.15-.34Z" fill="#fff" opacity="0.6" style="isolation: isolate"/>
            <path id="Trazado_101606" data-name="Trazado 101606" d="M469.369,4322.762a115.208,115.208,0,0,0-4.8,18.66c-1.21-16.47,3.609-33.93,3.609-33.93Z" fill="#d9a171" opacity="0.2" style="isolation: isolate"/>
            <path id="Trazado_101607" data-name="Trazado 101607" d="M467.739,4206.362c-3.12,4.32-12.87,5-12.87,5s-6.25-.37-5.4-2.48c3.359-1.31,4.7-3.29,5-5.52a10.284,10.284,0,0,0-.49-4.05,20.128,20.128,0,0,0-.76-2.16l9.87-11.14C462.729,4192.092,463.079,4203.012,467.739,4206.362Z" fill="#ebb376"/>
            <path id="Trazado_101608" data-name="Trazado 101608" d="M461.51,4192.122c1,7.12-4.34,10.28-7.08,11.27a10.284,10.284,0,0,0-.49-4.05Z" fill="#d9a171" opacity="0.2" style="isolation: isolate"/>
            <path id="Trazado_101609" data-name="Trazado 101609" d="M441.69,4169.532s-2.44,11,3.19,15.73,7-16.07,7-16.07Z" fill="#344154"/>
            <path id="Trazado_101610" data-name="Trazado 101610" d="M461.459,4195.282a10.148,10.148,0,0,1-11.889,3.14,11.284,11.284,0,0,1-6.07-5.67,9.092,9.092,0,0,1-.47-1.11c-2.451-7-2.571-19,4.929-23a11,11,0,0,1,16.2,9.39C464.51,4186.082,465.09,4190.792,461.459,4195.282Z" fill="#ebb376"/>
            <path id="Trazado_101611" data-name="Trazado 101611" d="M452.26,4181.532c.109.64-.22,1.21-.65,1.26s-.82-.46-.89-1.11.23-1.21.649-1.25S452.19,4180.872,452.26,4181.532Z" fill="#344154"/>
            <path id="Trazado_101612" data-name="Trazado 101612" d="M444.869,4182.282c.11.64-.23,1.21-.66,1.26s-.82-.46-.89-1.1.23-1.22.65-1.26S444.869,4181.672,444.869,4182.282Z" fill="#344154"/>
            <path id="Trazado_101613" data-name="Trazado 101613" d="M447.28,4182.362a23.822,23.822,0,0,1-2.541,5.89,3.768,3.768,0,0,0,3.18.26Z" fill="#d58745"/>
            <path id="Trazado_101614" data-name="Trazado 101614" d="M454.3,4178.922a.427.427,0,0,1-.39-.11,3.069,3.069,0,0,0-2.57-1,.39.39,0,0,1-.13-.76h0a3.83,3.83,0,0,1,3.26,1.26.38.38,0,0,1,0,.538l0,0h0A.48.48,0,0,1,454.3,4178.922Z" fill="#344154"/>
            <path id="Trazado_101615" data-name="Trazado 101615" d="M441.489,4180.072a.357.357,0,0,1-.23,0,.379.379,0,0,1-.231-.484v-.006h0a3.8,3.8,0,0,1,2.53-2.42.38.38,0,0,1,.46.279h0a.389.389,0,0,1-.29.46h0a3.083,3.083,0,0,0-2,2A.416.416,0,0,1,441.489,4180.072Z" fill="#344154"/>
            <path id="Trazado_101616" data-name="Trazado 101616" d="M457.28,4168.692l-.24,3.56a2.642,2.642,0,0,1,1.5,3.25c-1,3,1,7.55,3.34,9.27,0,0,0-1.3,1.1-1s1.17,7-.78,10.29c0,0,3.05-3.07,4.48-10.21,1.33-6.6,1.24-12-.24-14.49Z" fill="#344154"/>
            <path id="Trazado_101617" data-name="Trazado 101617" d="M468.32,4184.252a7.61,7.61,0,0,1-4,4.29c-2.44,1.11-4.07-1-3.73-3.5.309-2.23,1.94-5.57,4.559-5.6S469.149,4181.912,468.32,4184.252Z" fill="#ebb376"/>
            <path id="Trazado_101618" data-name="Trazado 101618" d="M457.04,4172.252a23.492,23.492,0,0,0-8.16.8,13.33,13.33,0,0,1-7.11.29s-3.56-7.2,1.15-11.56,12.59-2.66,15.14-1.18-2.63,1.23-2.63,1.23,8.34,1.55,11.95,4.72,2.74,8.39,2,9.27-1.4-1.06-1.4-1.06a9.568,9.568,0,0,1-5,1C459.869,4175.722,461.169,4172.972,457.04,4172.252Z" fill="#344154"/>
            <path id="Trazado_101619" data-name="Trazado 101619" d="M448.4,4191.132a21.043,21.043,0,0,1,1.441,2.77,4.383,4.383,0,0,0,.529-.14c2.421-.62,3.33-1.71,3.61-2.73a3.228,3.228,0,0,0,0-1.52,2.994,2.994,0,0,0-.29-.82,11.85,11.85,0,0,1-4.48,2.21Z" fill="#344154"/>
            <path id="Trazado_101620" data-name="Trazado 101620" d="M449.22,4190.9l.45.81c2.27-.6,3.79-1.33,4.32-2.2a3.028,3.028,0,0,0-.29-.82A11.864,11.864,0,0,1,449.22,4190.9Z" fill="#fff"/>
            <path id="Trazado_101621" data-name="Trazado 101621" d="M450.369,4193.762c2.421-.62,3.33-1.71,3.61-2.73a7.952,7.952,0,0,0-2.54,1.23A3.006,3.006,0,0,0,450.369,4193.762Z" fill="#de5753"/>
            <path id="Trazado_101622" data-name="Trazado 101622" d="M465.26,4203.192a27.173,27.173,0,0,1-9.27,7.58,11.985,11.985,0,0,1-2.28-5.14,20.932,20.932,0,0,0-5.32,3.62,14.537,14.537,0,0,0,2.36,6.54l5.07-3.63,6.15,4.49s8.079-5.22,9.89-10.58Z" fill="#d9a171"/>
            <path id="Trazado_101623" data-name="Trazado 101623" d="M465.26,4203.192a27.173,27.173,0,0,1-9.27,7.58,11.985,11.985,0,0,1-2.28-5.14,20.932,20.932,0,0,0-5.32,3.62,14.537,14.537,0,0,0,2.36,6.54l5.07-3.63,6.15,4.49s8.079-5.22,9.89-10.58Z" fill="#fff" opacity="0.4" style="isolation: isolate"/>
            <rect id="Rectángulo_5280" data-name="Rectángulo 5280" width="10.08" height="6.9" transform="matrix(0.994, -0.107, 0.107, 0.994, 462.3, 4239.372)" fill="#fff" opacity="0.6" style="isolation: isolate"/>
            <path id="Trazado_101624" data-name="Trazado 101624" d="M465.57,4235.642l1,3.31a.879.879,0,0,0,1,.62h0a.9.9,0,0,0,.75-.76l.53-3.84Z" fill="#d9a171"/>
            <path id="Trazado_101625" data-name="Trazado 101625" d="M465.57,4235.642l1,3.31a.879.879,0,0,0,1,.62h0a.9.9,0,0,0,.75-.76l.53-3.84Z" fill="#d9a171" opacity="0.4" style="isolation: isolate"/>
            <path id="Trazado_101626" data-name="Trazado 101626" d="M472.94,4245.082s-3.72,11.17-5.321,13.6-42.85,13.1-42.85,13.1-3.459-1.76-5.64-1.57-10.68,2.17-10.88,3.75,4.36,8.7,5.44,9.29,12-1.05,13.16-3.89c0,0,42.13-7.56,46.09-9.15s12.45-20.38,12.45-20.38Z" fill="#ebb376"/>
            <path id="Trazado_101627" data-name="Trazado 101627" d="M483.54,4205.842c6.38.43,11.95,14.17,10.859,25.25s-11.28,30-11.28,30l-14.239-7s3.56-12.67,7.62-24.67S478.72,4205.512,483.54,4205.842Z" fill="#d9a171"/>
            <path id="Trazado_101628" data-name="Trazado 101628" d="M483.54,4205.842c6.38.43,11.95,14.17,10.859,25.25s-11.28,30-11.28,30l-14.239-7s3.56-12.67,7.62-24.67S478.72,4205.512,483.54,4205.842Z" fill="#fff" opacity="0.4" style="isolation: isolate"/>
            <path id="Trazado_101629" data-name="Trazado 101629" d="M467.18,4255.342l1.58-2.31,16.63,5.62-.86,4.13Z" fill="#d9a171"/>
            <path id="Trazado_101630" data-name="Trazado 101630" d="M467.18,4255.342l1.58-2.31,16.63,5.62-.86,4.13Z" fill="#fff" opacity="0.3" style="isolation: isolate"/>
            <path id="Trazado_101631" data-name="Trazado 101631" d="M452.762,4214.351l-.588,4.191,1.9,1.617s-2.346,10.854-2.19,11.37,2.7,4.819,2.7,4.819l5.034-10.431-3.282-6.1,3.791-4.515-4.3-3.143Z" fill="#344154"/>
            <g id="Grupo_55405" data-name="Grupo 55405">
              <path id="Trazado_101632" data-name="Trazado 101632" d="M460.88,4244.275l-.448-2.874,1.007-.157a1.336,1.336,0,0,1,.825.077.7.7,0,0,1,.362.545.66.66,0,0,1-.051.389.635.635,0,0,1-.265.283.612.612,0,0,1,.383.169.666.666,0,0,1,.191.391.766.766,0,0,1-.167.668,1.2,1.2,0,0,1-.72.335Zm.332-1.762.438-.069c.3-.051.429-.194.393-.427a.334.334,0,0,0-.158-.263.6.6,0,0,0-.371-.03l-.415.064Zm.065.418.121.776.507-.079a.493.493,0,0,0,.311-.151.345.345,0,0,0,.075-.293.365.365,0,0,0-.471-.337Z" fill="#344154"/>
              <path id="Trazado_101633" data-name="Trazado 101633" d="M464.66,4243.686a.653.653,0,0,1-.087-.182.7.7,0,0,1-.5.315.77.77,0,0,1-.549-.1.593.593,0,0,1-.277-.426.611.611,0,0,1,.17-.56,1.26,1.26,0,0,1,.7-.3l.263-.041-.019-.122a.358.358,0,0,0-.113-.225.3.3,0,0,0-.254-.052.338.338,0,0,0-.215.1.233.233,0,0,0-.052.2l-.571.089a.585.585,0,0,1,.061-.362.773.773,0,0,1,.285-.3,1.206,1.206,0,0,1,.456-.163.947.947,0,0,1,.658.1.7.7,0,0,1,.318.522l.145.925a1.027,1.027,0,0,0,.156.447l.005.034Zm-.534-.323a.494.494,0,0,0,.224-.092.374.374,0,0,0,.135-.176l-.057-.367-.213.033c-.286.044-.423.167-.41.367l0,.034a.231.231,0,0,0,.1.164A.3.3,0,0,0,464.126,4243.363Z" fill="#344154"/>
              <path id="Trazado_101634" data-name="Trazado 101634" d="M465.782,4241.324l.056.244a.757.757,0,0,1,.57-.382.625.625,0,0,1,.536.121.944.944,0,0,1,.263.57l.214,1.38-.57.088-.213-1.366a.376.376,0,0,0-.12-.251.36.36,0,0,0-.275-.041.4.4,0,0,0-.329.262l.234,1.506-.57.089-.333-2.136Z" fill="#344154"/>
              <path id="Trazado_101635" data-name="Trazado 101635" d="M468.677,4242.631a.384.384,0,0,0,.243-.127.308.308,0,0,0,.066-.247l.535-.083a.733.733,0,0,1-.056.416.8.8,0,0,1-.275.33,1.015,1.015,0,0,1-.432.169.935.935,0,0,1-.768-.179,1.171,1.171,0,0,1-.39-.763l-.005-.037a1.148,1.148,0,0,1,.14-.829.925.925,0,0,1,.674-.406.907.907,0,0,1,.678.128.816.816,0,0,1,.341.568l-.535.084a.4.4,0,0,0-.145-.255.385.385,0,0,0-.555.129.855.855,0,0,0-.029.487l.01.059a.865.865,0,0,0,.174.459A.353.353,0,0,0,468.677,4242.631Z" fill="#344154"/>
              <path id="Trazado_101636" data-name="Trazado 101636" d="M469.7,4241.787a1.275,1.275,0,0,1,.034-.585.906.906,0,0,1,.292-.44,1.039,1.039,0,0,1,.513-.219.985.985,0,0,1,.747.154,1.075,1.075,0,0,1,.417.671l.027.146a1.13,1.13,0,0,1-.152.831,1.075,1.075,0,0,1-1.473.23,1.146,1.146,0,0,1-.4-.762Zm.577-.048a.808.808,0,0,0,.187.448.416.416,0,0,0,.651-.1.885.885,0,0,0,.038-.527.793.793,0,0,0-.189-.444.381.381,0,0,0-.353-.113.376.376,0,0,0-.3.213A.9.9,0,0,0,470.281,4241.739Z" fill="#344154"/>
            </g>
          </g>
          <rect id="Rectángulo_5281" data-name="Rectángulo 5281" width="228.92" height="171.99" transform="translate(313.229 4300.632)" fill="#344154"/>
          <rect id="Rectángulo_5282" data-name="Rectángulo 5282" width="169.52" height="171.99" transform="translate(313.229 4300.632)" fill="#d6d9dd" opacity="0.4" style="isolation: isolate"/>
          <rect id="Rectángulo_5283" data-name="Rectángulo 5283" width="234.64" height="9.95" rx="1.56" transform="translate(310.819 4294.302)" fill="#d9a171"/>
          <rect id="Rectángulo_5284" data-name="Rectángulo 5284" width="174.64" height="9.95" rx="1.56" transform="translate(310.819 4294.302)" fill="#344154" opacity="0.2" style="isolation: isolate"/>
          <rect id="Rectángulo_5285" data-name="Rectángulo 5285" width="49.42" height="82.83" transform="translate(310.819 4213.032)" fill="#fff" opacity="0.56"/>
          <rect id="Rectángulo_5286" data-name="Rectángulo 5286" width="109.972" height="82.83" transform="translate(435.807 4213.032)" fill="#fff" opacity="0.56"/>
          <rect id="Rectángulo_5287" data-name="Rectángulo 5287" width="75.568" height="53.956" transform="translate(360.24 4213.032)" fill="#fff" opacity="0.56"/>
        </g>
        <g id="freepik--character-1--inject-48">
          <path id="Trazado_101637" data-name="Trazado 101637" d="M341.284,4265.552c3.45,1.08,4,21.13,4,21.13h-2s1-21.25-4.15-20.59Z" fill="#344154"/>
          <path id="Trazado_101638" data-name="Trazado 101638" d="M341.284,4265.552c3.45,1.08,4,21.13,4,21.13h-2s1-21.25-4.15-20.59Z" fill="#d9a171" opacity="0.2" style="isolation: isolate"/>
          <path id="Trazado_101639" data-name="Trazado 101639" d="M345.634,4455.242l-6.31,1.11-2.59-8.6-2.36-7.89,7.28-2.54,2.11,9.49Z" fill="#e4897b"/>
          <path id="Trazado_101640" data-name="Trazado 101640" d="M343.794,4447l-7.03.93-2.37-7.98,7.26-2.59Z" fill="#d9a171" opacity="0.2" style="isolation: isolate"/>
          <path id="Trazado_101641" data-name="Trazado 101641" d="M303.524,4458.152h-6.41l-1.05-9.03-.95-8.23,7.6-1.26.43,9.8Z" fill="#e4897b"/>
          <path id="Trazado_101642" data-name="Trazado 101642" d="M303.144,4449.512l-7.08-.31-.95-8.27,7.6-1.28Z" fill="#d9a171" opacity="0.2" style="isolation: isolate"/>
          <path id="Trazado_101643" data-name="Trazado 101643" d="M312.2,4470.832a11,11,0,0,0-3.42-1.86h0s-3.72-3.69-5.51-14.8l-4.87-1.27a4.173,4.173,0,0,0-4.43,1.73,2.4,2.4,0,0,0-.31.64,27.822,27.822,0,0,0-.52,3.61c-.49,3.76-.07,12.2-.07,12.2h.88l.35-7.66c.13-2.6,2.12.45,2.69,3.25s1.78,5.78,7.48,5.92C311.124,4472.722,313.884,4472.422,312.2,4470.832Z" fill="#344154"/>
          <path id="Trazado_101644" data-name="Trazado 101644" d="M354.7,4470.082a11,11,0,0,0-3.42-1.86h0s-3.72-3.69-5.51-14.8l-4.87-1.27a4.173,4.173,0,0,0-4.43,1.73,2.4,2.4,0,0,0-.31.64,27.822,27.822,0,0,0-.52,3.61c-.49,3.76-.07,12.2-.07,12.2h.88l.35-7.66c.13-2.6,2.12.45,2.69,3.25s1.78,5.78,7.48,5.92C353.624,4471.972,356.384,4471.712,354.7,4470.082Z" fill="#344154"/>
          <path id="Trazado_101645" data-name="Trazado 101645" d="M344.394,4442l-10.37,1.82c-10.47-26.07-17.91-47.83-23.17-65.89-2.83-9.74-5.19-18.4-6.88-26.09l.31,28.38v63.93h-10.22c-25.61-122-7.46-149.81-7.46-149.81l30.65-5.1a140.443,140.443,0,0,1,2.56,17.18l1.38,10.16,12,61.88Z" fill="#d9a171"/>
          <g id="Grupo_55406" data-name="Grupo 55406" opacity="0.4">
            <path id="Trazado_101646" data-name="Trazado 101646" d="M344.394,4442l-10.37,1.82c-10.47-26.07-17.91-47.83-23.17-65.89-2.83-9.74-5.19-18.4-6.88-26.09l.31,28.38v63.93h-10.22c-25.61-122-7.46-149.81-7.46-149.81l30.65-5.1a140.443,140.443,0,0,1,2.56,17.18l1.38,10.16,12,61.88Z" fill="#fff"/>
          </g>
          <path id="Trazado_101647" data-name="Trazado 101647" d="M353.534,4259.122l10.34-10.22s.36-2.74,1.36-3.5,8.1-3.34,9-2.77,2.07,6.31.86,7.36-7.67,2.39-8.33,2.28l-11.19,13.28Z" fill="#eec1bb"/>
          <path id="Trazado_101648" data-name="Trazado 101648" d="M316.494,4240.492c4.46,2.37,20.29,24.5,22.63,25.6s20.16-13.36,20.16-13.36l3,5.13s-14.66,20.67-22.89,19.67-24.11-18.5-24.11-18.5Z" fill="#344154"/>
          <path id="Trazado_101649" data-name="Trazado 101649" d="M358.3,4253.282l1.23-1.17,3.25,5.5-1.16,2.25Z" fill="#d9a171"/>
          <path id="Trazado_101650" data-name="Trazado 101650" d="M321.624,4265.492c-3.7-3.53-6.36-6.46-6.36-6.46l.28-4.4,1.39-4.27A17.551,17.551,0,0,1,321.624,4265.492Z" fill="#d9a171" opacity="0.2" style="isolation: isolate"/>
          <path id="Trazado_101651" data-name="Trazado 101651" d="M310.854,4377.932c-2.83-9.74-5-18.4-6.73-26.09a240.376,240.376,0,0,1,2-27.22S310.624,4359.722,310.854,4377.932Z" fill="#d9a171" opacity="0.2" style="isolation: isolate"/>
          <path id="Trazado_101652" data-name="Trazado 101652" d="M317.984,4287.352c1.25-22,.7-34.12.13-40.17-.63-6.45-1.62-6.69-1.62-6.69s-7-.68-13.07-.63a98.7,98.7,0,0,0-14,1.48,93.674,93.674,0,0,0-13,3.13q1.061,3,1.95,5.76c.8,2.38,1.51,4.6,2.15,6.66,1.21,3.87,2.14,7.21,2.89,10.2a111.537,111.537,0,0,1,3.33,23s-7.7,20.1-9.2,34.85l25.5,2.75,3.5-14.75,3.5,15.25,14.25-5Z" fill="#344154"/>
          <path id="Trazado_101653" data-name="Trazado 101653" d="M291.624,4238.7s3.67-2.93,10.23-.59l.89,3.34s-5.63,2.13-8.47,1.57S291.624,4238.7,291.624,4238.7Z" fill="#d9a171"/>
          <path id="Trazado_101654" data-name="Trazado 101654" d="M291.624,4238.7s3.67-2.93,10.23-.59l.89,3.34s-5.63,2.13-8.47,1.57S291.624,4238.7,291.624,4238.7Z" fill="#d9a171" opacity="0.2" style="isolation: isolate"/>
          <path id="Trazado_101655" data-name="Trazado 101655" d="M284.624,4272.482c-.34-1.68-.74-3.47-1.23-5.39-.31-1.22-.65-2.5-1-3.86,1-3.41,2-.75,2-.75A30.711,30.711,0,0,1,284.624,4272.482Z" fill="#d9a171" opacity="0.2" style="isolation: isolate"/>
          <path id="Trazado_101656" data-name="Trazado 101656" d="M303.074,4241.2a7.86,7.86,0,0,0-1-.41c-.72-.57-1.59-1.94-1.55-5.27a27.263,27.263,0,0,1,.36-3.91l-9.26-1.73s3.16,6.24.52,10.88c-.9.4-1.44,1-1.35,1.72.7,5.36,12.21,10.54,12.21,10.54S308.624,4244.272,303.074,4241.2Z" fill="#eec1bb"/>
          <path id="Trazado_101657" data-name="Trazado 101657" d="M300.924,4231.612a27.259,27.259,0,0,0-.36,3.91c-6.26,0-8.91-5.64-8.91-5.64Z" fill="#d9a171" opacity="0.2" style="isolation: isolate"/>
          <path id="Trazado_101658" data-name="Trazado 101658" d="M296.784,4201.022s10.84-1.37,12.84,7.4a13.468,13.468,0,0,1-4.75,13.62Z" fill="#344154"/>
          <path id="Trazado_101659" data-name="Trazado 101659" d="M295.8,4205.692c8.06-.44,10.89,3.73,11.93,12,1.31,10.34-.59,17.84-10.79,16.18C283.094,4231.612,282.414,4206.422,295.8,4205.692Z" fill="#eec1bb"/>
          <path id="Trazado_101660" data-name="Trazado 101660" d="M302.5,4217.532a17.044,17.044,0,0,0,2.53,3.21,2.209,2.209,0,0,1-2.08,1Z" fill="#d4827d"/>
          <path id="Trazado_101661" data-name="Trazado 101661" d="M297.534,4217.142c.05.66-.27,1.22-.71,1.26s-.84-.47-.89-1.14.27-1.22.71-1.26S297.484,4216.482,297.534,4217.142Z" fill="#344154"/>
          <path id="Trazado_101662" data-name="Trazado 101662" d="M296.464,4216.052l1.39-.68S297.234,4216.642,296.464,4216.052Z" fill="#344154"/>
          <path id="Trazado_101663" data-name="Trazado 101663" d="M305.744,4216.362c0,.66-.27,1.22-.71,1.26s-.84-.48-.89-1.14.26-1.22.71-1.26S305.694,4215.7,305.744,4216.362Z" fill="#344154"/>
          <path id="Trazado_101664" data-name="Trazado 101664" d="M304.624,4215.272l1.4-.68S305.444,4215.862,304.624,4215.272Z" fill="#344154"/>
          <path id="Trazado_101665" data-name="Trazado 101665" d="M297.144,4211.582a4.212,4.212,0,0,0-3.43,1.41" fill="none" stroke="#263238" stroke-linecap="round" stroke-linejoin="round" stroke-width="0.686"/>
          <path id="Trazado_101666" data-name="Trazado 101666" d="M302.984,4210.922a3.763,3.763,0,0,1,3.25.48" fill="none" stroke="#263238" stroke-linecap="round" stroke-linejoin="round" stroke-width="0.686"/>
          <path id="Trazado_101667" data-name="Trazado 101667" d="M287.734,4219.752s3.41-6.82,2.56-11.9c0,0,15.61-7.4,17.29,8.76,0,0,.77-14.48-13.1-14s-12.71,20.71-5.22,26.35C289.264,4228.922,285.624,4224.022,287.734,4219.752Z" fill="#344154"/>
          <path id="Trazado_101668" data-name="Trazado 101668" d="M298.164,4200.422s6.62-1.63,8.5.12-11.5,14.13-18.5,15.38c0,0-2.38,7.75-.5,11.37,0,0-7.88-2.75-8.25-14.75S291.624,4196.022,298.164,4200.422Z" fill="#344154"/>
          <path id="Trazado_101669" data-name="Trazado 101669" d="M289.144,4221.422a3.541,3.541,0,0,0-4-3c-2.48.41-3.39,5.6,2.89,6.5C288.954,4224.982,289.4,4224.092,289.144,4221.422Z" fill="#eec1bb"/>
          <path id="Trazado_101670" data-name="Trazado 101670" d="M285.624,4205.152s-2.75-7-10.13-6.5-8.5,12-4.62,20.5,1.29,11.27,1.29,11.27,4.12-.5,4.12-8.13a27.462,27.462,0,0,1,.25,4.88s2.75-3.88.13-11.25,5.75-4,5.75-4Z" fill="#344154"/>
          <path id="Trazado_101671" data-name="Trazado 101671" d="M306.034,4201.152s-3.5,11.25-12.87,14.62" fill="none" stroke="#263238" stroke-linecap="round" stroke-linejoin="round" stroke-width="0.686"/>
          <path id="Trazado_101672" data-name="Trazado 101672" d="M296.624,4224.652a6.447,6.447,0,0,0,4.62,1.87" fill="none" stroke="#263238" stroke-linecap="round" stroke-linejoin="round" stroke-width="0.686"/>
          <path id="Trazado_101673" data-name="Trazado 101673" d="M291.624,4238.7s1.66,3.37,7.32,5.77l2.31,3.73v-4.25a13.139,13.139,0,0,0,.6-5.84l1.88,3.55a3,3,0,0,1,2.27,2.38c.6,2.18-2.62,10-2.62,10s-10.29-3.69-12.6-8.32c-1.71-3.45.34-4.28.34-4.28Z" fill="#d9a171"/>
          <path id="Trazado_101674" data-name="Trazado 101674" d="M305.054,4256.9a.74.74,0,1,1-.74-.74.74.74,0,0,1,.74.74Z" fill="#344154"/>
          <path id="Trazado_101675" data-name="Trazado 101675" d="M306.854,4268.472a.74.74,0,1,1-.74-.74.74.74,0,0,1,.74.74Z" fill="#344154"/>
          <path id="Trazado_101676" data-name="Trazado 101676" d="M307.624,4282.492a.74.74,0,1,1-.74-.74.74.74,0,0,1,.74.74Z" fill="#344154"/>
          <path id="Trazado_101677" data-name="Trazado 101677" d="M308.234,4297.182a.74.74,0,1,1-.74-.74.74.74,0,0,1,.74.74Z" fill="#344154"/>
          <path id="Trazado_101678" data-name="Trazado 101678" d="M366.324,4247.422a30.088,30.088,0,0,1,15.2-3.18l5.57,5.86s-4.75-1.15-15.47,1.32Z" fill="#d9a171"/>
          <path id="Trazado_101679" data-name="Trazado 101679" d="M366.324,4247.422a30.088,30.088,0,0,1,15.2-3.18l5.57,5.86s-4.75-1.15-15.47,1.32Z" fill="#53372c" opacity="0.4" style="isolation: isolate"/>
          <path id="Trazado_101680" data-name="Trazado 101680" d="M366.264,4246.972a30.125,30.125,0,0,1,15-4l5.88,5.55s-4.81-.85-15.39,2.15Z" fill="#d9a171"/>
          <path id="Trazado_101681" data-name="Trazado 101681" d="M366.264,4246.972a30.125,30.125,0,0,1,15-4l5.88,5.55s-4.81-.85-15.39,2.15Z" fill="#a66d58" opacity="0.2" style="isolation: isolate"/>
          <path id="Trazado_101682" data-name="Trazado 101682" d="M366.694,4246.2l5.39,4.49a27.344,27.344,0,0,1,17.15-2.7l-6.77-5.95S372.624,4240.9,366.694,4246.2Z" fill="#d9a171"/>
          <path id="Trazado_101683" data-name="Trazado 101683" d="M368.064,4246.312l3.78,3.34s7.71-4.12,15.33-2.6l-5-4.55S373.624,4241.422,368.064,4246.312Z" fill="#d9a171" opacity="0.2" style="isolation: isolate"/>
          <path id="Trazado_101684" data-name="Trazado 101684" d="M378.674,4244.842c0,.81-.88,1.47-2,1.47s-2-.66-2-1.47.88-1.48,2-1.48S378.674,4244.022,378.674,4244.842Z" fill="#d9a171"/>
          <path id="Trazado_101685" data-name="Trazado 101685" d="M328.514,4308.692c.37-5.57,3.82-22,3.82-22a33.882,33.882,0,0,1,4.76-2.68,26.021,26.021,0,0,1,7.89-1.51s1.57,20.73,0,23S328.074,4315.282,328.514,4308.692Z" fill="#344154"/>
          <path id="Trazado_101686" data-name="Trazado 101686" d="M332.334,4286.682s2.47-22.07,8.95-21.13c0,0-5.12,1.08-7,21.85Z" fill="#344154"/>
          <path id="Trazado_101687" data-name="Trazado 101687" d="M309.464,4276.222c1.15-.25,4.13-7.76,3.75-8.68s-22.59,2.18-22.59,2.18l1.46,8.1Z" fill="#d9a171"/>
          <path id="Trazado_101688" data-name="Trazado 101688" d="M309.464,4276.222c1.15-.25,4.13-7.76,3.75-8.68s-22.59,2.18-22.59,2.18l1.46,8.1Z" fill="#d9a171" opacity="0.2" style="isolation: isolate"/>
          <path id="Trazado_101689" data-name="Trazado 101689" d="M281.464,4269.872s23.7-3.37,24.76-3,3.24,9.36,3.24,9.36-20.53,3.25-22.32,2.73S280.624,4271.112,281.464,4269.872Z" fill="#caa79b"/>
          <path id="Trazado_101690" data-name="Trazado 101690" d="M273.414,4285.742l12.3-7.76s.94-2.59,2.08-3.12,8.63-1.52,9.36-.77.66,6.6-.75,7.37-8,.68-8.62.43l-13.79,10.53Z" fill="#eec1bb"/>
          <path id="Trazado_101691" data-name="Trazado 101691" d="M276.414,4244.472s8,11.68,6.87,21.68l-10.66,17.66,7.16-3.66,3.25,6.12s-8.25,12.71-18.75,9.71S276.414,4244.472,276.414,4244.472Z" fill="#344154"/>
          <path id="Trazado_101692" data-name="Trazado 101692" d="M279.034,4279.813l4.09,7.59.91-2.17-3.25-6.17Z" fill="#d9a171"/>
        </g>
        <g id="Grupo_55407" data-name="Grupo 55407">
          <path id="Trazado_101693" data-name="Trazado 101693" d="M351.911,4154.017a6.038,6.038,0,0,1-2.033,4.336,7.144,7.144,0,0,1-4.834,1.582,6.421,6.421,0,0,1-5.162-2.209,9.058,9.058,0,0,1-1.881-6.065v-1.043a10.231,10.231,0,0,1,.867-4.336,6.5,6.5,0,0,1,2.479-2.877,7.746,7.746,0,0,1,8.5.58,6.494,6.494,0,0,1,2.086,4.442h-3.516a3.567,3.567,0,0,0-.92-2.4,3.408,3.408,0,0,0-2.408-.744,2.987,2.987,0,0,0-2.631,1.26,7.066,7.066,0,0,0-.9,3.908v1.289a7.561,7.561,0,0,0,.838,4.043,2.932,2.932,0,0,0,2.643,1.278,3.469,3.469,0,0,0,2.432-.745,3.357,3.357,0,0,0,.919-2.3Z" fill="#6595bf"/>
          <path id="Trazado_101694" data-name="Trazado 101694" d="M361.345,4159.7a3.723,3.723,0,0,1-.34-1.136,4.1,4.1,0,0,1-3.2,1.371,4.5,4.5,0,0,1-3.088-1.078,3.466,3.466,0,0,1-1.225-2.719,3.584,3.584,0,0,1,1.494-3.094,7.374,7.374,0,0,1,4.319-1.09h1.558v-.726a2.092,2.092,0,0,0-.451-1.407,1.778,1.778,0,0,0-1.424-.527,2.023,2.023,0,0,0-1.342.41,1.4,1.4,0,0,0-.486,1.125h-3.387a3.4,3.4,0,0,1,.68-2.039,4.5,4.5,0,0,1,1.922-1.471,7.013,7.013,0,0,1,2.789-.533,5.536,5.536,0,0,1,3.721,1.178,4.12,4.12,0,0,1,1.377,3.31v5.5a6.036,6.036,0,0,0,.5,2.73v.2Zm-2.8-2.355a2.929,2.929,0,0,0,1.383-.334,2.2,2.2,0,0,0,.937-.9v-2.179H359.6q-2.544,0-2.707,1.757l-.012.2a1.356,1.356,0,0,0,.445,1.043A1.732,1.732,0,0,0,358.544,4157.345Z" fill="#6595bf"/>
          <path id="Trazado_101695" data-name="Trazado 101695" d="M370.45,4147.021v13.371a4.534,4.534,0,0,1-1.113,3.263,4.228,4.228,0,0,1-3.211,1.166,6.892,6.892,0,0,1-1.676-.2v-2.683a6.4,6.4,0,0,0,1.067.1q1.535,0,1.535-1.629v-13.394Zm-3.668-3.282a1.67,1.67,0,0,1,.51-1.254,2.206,2.206,0,0,1,2.777,0,1.8,1.8,0,0,1-.011,2.52,2.172,2.172,0,0,1-2.754,0A1.662,1.662,0,0,1,366.782,4143.739Z" fill="#6595bf"/>
          <path id="Trazado_101696" data-name="Trazado 101696" d="M380.446,4159.7a3.78,3.78,0,0,1-.34-1.136,4.1,4.1,0,0,1-3.2,1.371,4.506,4.506,0,0,1-3.088-1.078,3.468,3.468,0,0,1-1.224-2.719,3.584,3.584,0,0,1,1.494-3.094,7.371,7.371,0,0,1,4.318-1.09h1.559v-.726a2.1,2.1,0,0,0-.451-1.407,1.779,1.779,0,0,0-1.424-.527,2.019,2.019,0,0,0-1.342.41,1.4,1.4,0,0,0-.486,1.125h-3.387a3.4,3.4,0,0,1,.68-2.039,4.492,4.492,0,0,1,1.922-1.471,7.009,7.009,0,0,1,2.789-.533,5.535,5.535,0,0,1,3.72,1.178,4.12,4.12,0,0,1,1.377,3.31v5.5a6.064,6.064,0,0,0,.5,2.73v.2Zm-2.8-2.355a2.93,2.93,0,0,0,1.383-.334,2.2,2.2,0,0,0,.938-.9v-2.179H378.7q-2.543,0-2.707,1.757l-.012.2a1.357,1.357,0,0,0,.446,1.043A1.731,1.731,0,0,0,377.645,4157.345Z" fill="#6595bf"/>
          <path id="Trazado_101697" data-name="Trazado 101697" d="M400.028,4159.7h-3.386v-13.054L392.6,4147.9v-2.753l7.066-2.532h.363Z" fill="#6595bf"/>
        </g>
      </g>
    </g>
  </g>
</svg>
