<svg xmlns="http://www.w3.org/2000/svg" width="373.67" height="494.796" viewBox="0 0 373.67 494.796">
  <g id="Grupo_56943" data-name="Grupo 56943" transform="translate(-666.48 -4616.931)">
    <circle id="Elipse_4007" data-name="Elipse 4007" cx="184.164" cy="184.164" r="184.164" transform="translate(668.98 4687.686)" fill="#cee5f7" stroke="#aed3f2" stroke-miterlimit="10" stroke-width="5"/>
    <g id="Grupo_56942" data-name="Grupo 56942">
      <rect id="Rectángulo_5293" data-name="Rectángulo 5293" width="179.916" height="253.306" transform="translate(839.766 4734.86)" fill="#344154" opacity="0.15"/>
      <g id="Grupo_56680" data-name="Grupo 56680" transform="translate(0 -83)">
        <g id="Grupo_56674" data-name="Grupo 56674">
          <rect id="Rectángulo_5294" data-name="Rectángulo 5294" width="105.821" height="175.164" transform="translate(691.009 4699.931)" fill="#e1e1e1"/>
        </g>
        <g id="Grupo_56675" data-name="Grupo 56675">
          <rect id="Rectángulo_5295" data-name="Rectángulo 5295" width="105.821" height="175.164" transform="translate(687.49 4699.931)" fill="#ececec"/>
        </g>
        <g id="Grupo_56676" data-name="Grupo 56676">
          <rect id="Rectángulo_5296" data-name="Rectángulo 5296" width="96.809" height="168.06" transform="translate(691.996 4703.483)" fill="#fafafa"/>
        </g>
        <g id="Grupo_56679" data-name="Grupo 56679">
          <g id="Grupo_56677" data-name="Grupo 56677">
            <rect id="Rectángulo_5297" data-name="Rectángulo 5297" width="59.53" height="124.384" transform="translate(710.426 4725.321)" fill="#ececec"/>
          </g>
          <g id="Grupo_56678" data-name="Grupo 56678">
            <path id="Trazado_101893" data-name="Trazado 101893" d="M710.426,4805.689c-.138-11.619,10.309-22.962,21.815-24.584,5.487-.774,11.316.315,16.443-1.787,9.151-3.752,12.062-15.91,21.271-19.516l.421,89.9h-59.95Z" fill="#e1e1e1"/>
          </g>
        </g>
      </g>
      <g id="Grupo_56682" data-name="Grupo 56682">
        <g id="Grupo_56681" data-name="Grupo 56681">
          <path id="Trazado_101894" data-name="Trazado 101894" d="M942.573,4997.5a15.749,15.749,0,0,1,3.846-1.672l.792-3.807,6.433-.113.925,3.777a15.725,15.725,0,0,1,3.9,1.535l3.251-2.131,4.628,4.469-2.015,3.323a15.737,15.737,0,0,1,1.672,3.847l3.807.793.113,6.432-3.777.926a15.781,15.781,0,0,1-1.535,3.9l2.13,3.251-4.468,4.629-3.323-2.016a15.773,15.773,0,0,1-3.847,1.672l-.793,3.807-6.432.113-.926-3.777a15.758,15.758,0,0,1-3.9-1.535l-3.251,2.13-4.629-4.468,2.016-3.323a15.742,15.742,0,0,1-1.672-3.847l-3.807-.793-.113-6.432,3.777-.926a15.774,15.774,0,0,1,1.535-3.9l-2.131-3.251,4.469-4.629,3.324,2.016Zm3.429,8.569a6.9,6.9,0,1,0,9.758-.172A6.9,6.9,0,0,0,946,5006.068Z" fill="#f5f5f5"/>
        </g>
      </g>
      <g id="Grupo_56683" data-name="Grupo 56683">
        <path id="Trazado_101895" data-name="Trazado 101895" d="M1035.473,5035.727s.381-.016,1.157-.024l3.52-.022v.092c-18.187.094-92.256.164-180.805.164l-131.173-.061-39.751-.067-10.807-.04-2.811-.021c-.633-.007-.957-.021-.957-.021s.324-.015.957-.022l2.811-.021,10.807-.039,39.751-.067,131.173-.062c88.549,0,162.618.071,180.805.165v.092l-3.52-.023C1035.854,5035.742,1035.473,5035.727,1035.473,5035.727Z" fill="#1a2e35"/>
      </g>
      <g id="Grupo_56703" data-name="Grupo 56703">
        <g id="Grupo_56699" data-name="Grupo 56699">
          <g id="Grupo_56685" data-name="Grupo 56685">
            <rect id="Rectángulo_5298" data-name="Rectángulo 5298" width="181.172" height="255.633" transform="translate(824.063 4721.657)" fill="#fff"/>
            <g id="Grupo_56684" data-name="Grupo 56684">
              <path id="Trazado_101896" data-name="Trazado 101896" d="M1005.235,4977.29c0-1.7-.078-104.615-.191-255.632l.191.191-181.151.019h-.021l.211-.21c-.015,95.795-.029,184.377-.04,255.632l-.171-.17,181.172.17-181.172.171h-.17v-.171c-.011-71.255-.025-159.837-.04-255.632v-.211h.231l181.151.019h.192v.192C1005.314,4872.676,1005.237,4975.591,1005.235,4977.29Z" fill="#1a2e35"/>
            </g>
          </g>
          <rect id="Rectángulo_5299" data-name="Rectángulo 5299" width="77.341" height="17.733" rx="6.688" transform="translate(836.268 4891.382)" fill="#f5f5f5"/>
          <rect id="Rectángulo_5300" data-name="Rectángulo 5300" width="36.316" height="17.733" rx="6.688" transform="translate(874.173 4891.382)" fill="#f5f5f5"/>
          <rect id="Rectángulo_5301" data-name="Rectángulo 5301" width="159.474" height="17.732" rx="6.688" transform="translate(835.902 4927.73)" fill="#f5f5f5"/>
          <g id="Grupo_56686" data-name="Grupo 56686">
            <path id="Trazado_101897" data-name="Trazado 101897" d="M871.778,4884.247c0,.117-7.476.211-16.694.211s-16.7-.094-16.7-.211,7.474-.21,16.7-.21S871.778,4884.131,871.778,4884.247Z" fill="#1a2e35"/>
          </g>
          <g id="Grupo_56687" data-name="Grupo 56687">
            <path id="Trazado_101898" data-name="Trazado 101898" d="M892.967,4920.411c0,.116-12.125.211-27.078.211s-27.081-.1-27.081-.211,12.122-.21,27.081-.21S892.967,4920.295,892.967,4920.411Z" fill="#1a2e35"/>
          </g>
          <rect id="Rectángulo_5302" data-name="Rectángulo 5302" width="77.949" height="19.385" rx="6.508" transform="translate(833.055 4851.125)" fill="#e1e1e1"/>
          <rect id="Rectángulo_5303" data-name="Rectángulo 5303" width="162.322" height="19.385" rx="6.508" transform="translate(833.055 4733.266)" fill="#e1e1e1"/>
          <g id="Grupo_56688" data-name="Grupo 56688">
            <path id="Trazado_101899" data-name="Trazado 101899" d="M948.79,4742.958c0,.116-14.4.211-32.163.211s-32.167-.095-32.167-.211,14.4-.21,32.167-.21S948.79,4742.842,948.79,4742.958Z" fill="#1a2e35"/>
          </g>
          <g id="Grupo_56689" data-name="Grupo 56689">
            <path id="Trazado_101900" data-name="Trazado 101900" d="M1005.235,4757.344c0,.117-40.6.211-90.663.211-50.084,0-90.671-.094-90.671-.211s40.587-.21,90.671-.21C964.639,4757.134,1005.235,4757.228,1005.235,4757.344Z" fill="#ececec"/>
          </g>
          <g id="Grupo_56690" data-name="Grupo 56690">
            <path id="Trazado_101901" data-name="Trazado 101901" d="M1005.235,4843.1c0,.117-40.6.211-90.663.211-50.084,0-90.671-.094-90.671-.211s40.587-.21,90.671-.21C964.639,4842.887,1005.235,4842.981,1005.235,4843.1Z" fill="#ececec"/>
          </g>
          <rect id="Rectángulo_5304" data-name="Rectángulo 5304" width="77.341" height="17.733" rx="6.688" transform="translate(836.268 4776.778)" fill="#f5f5f5"/>
          <rect id="Rectángulo_5305" data-name="Rectángulo 5305" width="36.316" height="17.733" rx="6.688" transform="translate(874.173 4776.778)" fill="#f5f5f5"/>
          <rect id="Rectángulo_5306" data-name="Rectángulo 5306" width="76.582" height="17.732" rx="6.688" transform="translate(834.422 4813.126)" fill="#f5f5f5"/>
          <g id="Grupo_56691" data-name="Grupo 56691">
            <path id="Trazado_101902" data-name="Trazado 101902" d="M871.778,4769.643c0,.116-7.476.211-16.694.211s-16.7-.1-16.7-.211,7.474-.21,16.7-.21S871.778,4769.527,871.778,4769.643Z" fill="#1a2e35"/>
          </g>
          <g id="Grupo_56692" data-name="Grupo 56692">
            <path id="Trazado_101903" data-name="Trazado 101903" d="M950.763,4769.643c0,.116-5.886.211-13.144.211s-13.147-.1-13.147-.211,5.885-.21,13.147-.21S950.763,4769.527,950.763,4769.643Z" fill="#1a2e35"/>
          </g>
          <g id="Grupo_56693" data-name="Grupo 56693">
            <path id="Trazado_101904" data-name="Trazado 101904" d="M892.967,4805.807c0,.116-12.125.21-27.078.21s-27.081-.094-27.081-.21,12.122-.211,27.081-.211S892.967,4805.691,892.967,4805.807Z" fill="#1a2e35"/>
          </g>
          <g id="Grupo_56694" data-name="Grupo 56694">
            <path id="Trazado_101905" data-name="Trazado 101905" d="M989.781,4956.239c0,.116-11.826.21-26.412.21s-26.415-.094-26.415-.21,11.824-.21,26.415-.21S989.781,4956.123,989.781,4956.239Z" fill="#1a2e35"/>
          </g>
          <g id="Grupo_56695" data-name="Grupo 56695">
            <path id="Trazado_101906" data-name="Trazado 101906" d="M923.974,4786.143a1.52,1.52,0,0,0-.379-1.086,3.409,3.409,0,0,0-1.286-.745,15.144,15.144,0,0,1-1.565-.679,5.01,5.01,0,0,1-1.128-.774,3.113,3.113,0,0,1-.733-1.028,3.465,3.465,0,0,1-.262-1.407,3.121,3.121,0,0,1,.9-2.306,3.794,3.794,0,0,1,2.39-1.049v-1.782h1.332v1.807a3.473,3.473,0,0,1,2.306,1.228,4.046,4.046,0,0,1,.832,2.643h-2.406a2.292,2.292,0,0,0-.412-1.494,1.36,1.36,0,0,0-1.1-.5,1.4,1.4,0,0,0-1.057.387,1.475,1.475,0,0,0-.375,1.07,1.411,1.411,0,0,0,.366,1.016,4.046,4.046,0,0,0,1.362.782,15.213,15.213,0,0,1,1.635.754,4.711,4.711,0,0,1,1.083.8,3.082,3.082,0,0,1,.674,1.016,3.5,3.5,0,0,1,.233,1.327,3.108,3.108,0,0,1-.882,2.3,3.875,3.875,0,0,1-2.431,1.041v1.656h-1.324v-1.648a4.006,4.006,0,0,1-2.643-1.211,3.9,3.9,0,0,1-.937-2.735h2.406a2.211,2.211,0,0,0,.471,1.519,1.712,1.712,0,0,0,1.352.529,1.655,1.655,0,0,0,1.158-.387A1.343,1.343,0,0,0,923.974,4786.143Z" fill="#aed3f2"/>
            <path id="Trazado_101907" data-name="Trazado 101907" d="M938.094,4789.332h-2.406v-9.275l-2.873.891v-1.956l5.02-1.8h.259Z" fill="#aed3f2"/>
            <path id="Trazado_101908" data-name="Trazado 101908" d="M950.19,4784.32a6.139,6.139,0,0,1-1.041,3.846,4.158,4.158,0,0,1-6.077.025,5.964,5.964,0,0,1-1.074-3.746v-2.231a6.062,6.062,0,0,1,1.053-3.855,4.167,4.167,0,0,1,6.065-.012,5.944,5.944,0,0,1,1.074,3.742Zm-2.406-2.453a4.435,4.435,0,0,0-.412-2.2,1.394,1.394,0,0,0-1.286-.688,1.369,1.369,0,0,0-1.253.655,4.159,4.159,0,0,0-.429,2.046v2.949a4.666,4.666,0,0,0,.4,2.205,1.374,1.374,0,0,0,1.294.72,1.351,1.351,0,0,0,1.274-.691,4.547,4.547,0,0,0,.408-2.117Z" fill="#aed3f2"/>
            <path id="Trazado_101909" data-name="Trazado 101909" d="M959.972,4784.32a6.139,6.139,0,0,1-1.041,3.846,4.158,4.158,0,0,1-6.077.025,5.964,5.964,0,0,1-1.074-3.746v-2.231a6.062,6.062,0,0,1,1.053-3.855,4.167,4.167,0,0,1,6.065-.012,5.944,5.944,0,0,1,1.074,3.742Zm-2.406-2.453a4.435,4.435,0,0,0-.412-2.2,1.394,1.394,0,0,0-1.286-.688,1.369,1.369,0,0,0-1.253.655,4.159,4.159,0,0,0-.429,2.046v2.949a4.665,4.665,0,0,0,.4,2.205,1.373,1.373,0,0,0,1.294.72,1.351,1.351,0,0,0,1.274-.691,4.548,4.548,0,0,0,.408-2.117Z" fill="#aed3f2"/>
            <path id="Trazado_101910" data-name="Trazado 101910" d="M961.82,4788.149a1.212,1.212,0,0,1,.387-.932,1.5,1.5,0,0,1,1.948,0,1.212,1.212,0,0,1,.387.932,1.192,1.192,0,0,1-.383.92,1.528,1.528,0,0,1-1.956,0A1.2,1.2,0,0,1,961.82,4788.149Z" fill="#aed3f2"/>
            <path id="Trazado_101911" data-name="Trazado 101911" d="M974.707,4784.32a6.146,6.146,0,0,1-1.04,3.846,4.159,4.159,0,0,1-6.078.025,5.964,5.964,0,0,1-1.074-3.746v-2.231a6.056,6.056,0,0,1,1.054-3.855,4.166,4.166,0,0,1,6.064-.012,5.931,5.931,0,0,1,1.074,3.742Zm-2.406-2.453a4.435,4.435,0,0,0-.412-2.2,1.392,1.392,0,0,0-1.286-.688,1.369,1.369,0,0,0-1.253.655,4.158,4.158,0,0,0-.429,2.046v2.949a4.666,4.666,0,0,0,.4,2.205,1.375,1.375,0,0,0,1.295.72,1.349,1.349,0,0,0,1.273-.691,4.548,4.548,0,0,0,.408-2.117Z" fill="#aed3f2"/>
            <path id="Trazado_101912" data-name="Trazado 101912" d="M982.858,4777.085v1.982h-.233a4.083,4.083,0,0,0-2.627.849,3.448,3.448,0,0,0-1.2,2.289,3.276,3.276,0,0,1,2.44-.982,3.088,3.088,0,0,1,2.514,1.132,4.542,4.542,0,0,1,.932,2.981,4.467,4.467,0,0,1-.512,2.139,3.672,3.672,0,0,1-1.448,1.49,4.214,4.214,0,0,1-2.119.533,3.929,3.929,0,0,1-3.093-1.332,5.173,5.173,0,0,1-1.178-3.555v-.866a7.779,7.779,0,0,1,.745-3.484,5.464,5.464,0,0,1,2.14-2.339,6.273,6.273,0,0,1,3.234-.837Zm-2.348,6.078a1.923,1.923,0,0,0-1.057.3,1.828,1.828,0,0,0-.7.8V4785a3.24,3.24,0,0,0,.475,1.882,1.531,1.531,0,0,0,1.332.677,1.514,1.514,0,0,0,1.253-.611,2.865,2.865,0,0,0,0-3.178A1.575,1.575,0,0,0,980.51,4783.163Z" fill="#aed3f2"/>
            <path id="Trazado_101913" data-name="Trazado 101913" d="M994.271,4784.32a6.146,6.146,0,0,1-1.04,3.846,4.159,4.159,0,0,1-6.078.025,5.964,5.964,0,0,1-1.074-3.746v-2.231a6.056,6.056,0,0,1,1.054-3.855,4.166,4.166,0,0,1,6.064-.012,5.931,5.931,0,0,1,1.074,3.742Zm-2.406-2.453a4.435,4.435,0,0,0-.412-2.2,1.392,1.392,0,0,0-1.286-.688,1.369,1.369,0,0,0-1.253.655,4.159,4.159,0,0,0-.429,2.046v2.949a4.666,4.666,0,0,0,.4,2.205,1.375,1.375,0,0,0,1.3.72,1.349,1.349,0,0,0,1.273-.691,4.547,4.547,0,0,0,.408-2.117Z" fill="#aed3f2"/>
          </g>
          <g id="Grupo_56696" data-name="Grupo 56696">
            <path id="Trazado_101914" data-name="Trazado 101914" d="M923.974,4808.219a1.526,1.526,0,0,0-.379-1.087,3.435,3.435,0,0,0-1.286-.745,14.947,14.947,0,0,1-1.565-.678,5.026,5.026,0,0,1-1.128-.774,3.119,3.119,0,0,1-.733-1.029,3.461,3.461,0,0,1-.262-1.407,3.126,3.126,0,0,1,.9-2.306,3.8,3.8,0,0,1,2.39-1.049v-1.781h1.332v1.806a3.482,3.482,0,0,1,2.306,1.228,4.047,4.047,0,0,1,.832,2.644h-2.406a2.3,2.3,0,0,0-.412-1.5,1.362,1.362,0,0,0-1.1-.5,1.4,1.4,0,0,0-1.057.387,1.473,1.473,0,0,0-.375,1.07,1.406,1.406,0,0,0,.366,1.015,4.027,4.027,0,0,0,1.362.783,15.135,15.135,0,0,1,1.635.753,4.712,4.712,0,0,1,1.083.8,3.09,3.09,0,0,1,.674,1.015,3.5,3.5,0,0,1,.233,1.328,3.108,3.108,0,0,1-.882,2.3,3.878,3.878,0,0,1-2.431,1.041v1.656h-1.324v-1.648a4,4,0,0,1-2.643-1.211,3.9,3.9,0,0,1-.937-2.735h2.406a2.211,2.211,0,0,0,.471,1.519,1.712,1.712,0,0,0,1.352.529,1.655,1.655,0,0,0,1.158-.387A1.345,1.345,0,0,0,923.974,4808.219Z" fill="#aed3f2"/>
            <path id="Trazado_101915" data-name="Trazado 101915" d="M940.15,4802.508a2.821,2.821,0,0,1-.441,1.565,3.189,3.189,0,0,1-1.216,1.091,3.511,3.511,0,0,1,1.4,1.169,3,3,0,0,1,.516,1.753,3.176,3.176,0,0,1-1.1,2.551,5.239,5.239,0,0,1-5.986,0,3.168,3.168,0,0,1-1.107-2.547,3.022,3.022,0,0,1,.516-1.757,3.453,3.453,0,0,1,1.39-1.165,3.153,3.153,0,0,1-1.211-1.091,2.843,2.843,0,0,1-.437-1.565,3.143,3.143,0,0,1,1.032-2.469,4.749,4.749,0,0,1,5.607-.008A3.131,3.131,0,0,1,940.15,4802.508Zm-2.156,5.4a1.749,1.749,0,0,0-.458-1.266,1.833,1.833,0,0,0-2.456,0,1.974,1.974,0,0,0-.008,2.519,1.878,1.878,0,0,0,2.476.016A1.736,1.736,0,0,0,937.994,4807.911Zm-.25-5.287a1.665,1.665,0,0,0-.375-1.136,1.524,1.524,0,0,0-2.106-.013,1.656,1.656,0,0,0-.375,1.149,1.739,1.739,0,0,0,.375,1.166,1.483,1.483,0,0,0,2.11,0A1.753,1.753,0,0,0,937.744,4802.624Z" fill="#aed3f2"/>
            <path id="Trazado_101916" data-name="Trazado 101916" d="M950.19,4806.4a6.14,6.14,0,0,1-1.041,3.846,4.158,4.158,0,0,1-6.077.025,5.966,5.966,0,0,1-1.074-3.746v-2.232a6.06,6.06,0,0,1,1.053-3.854,4.166,4.166,0,0,1,6.065-.013,5.949,5.949,0,0,1,1.074,3.743Zm-2.406-2.454a4.433,4.433,0,0,0-.412-2.195,1.394,1.394,0,0,0-1.286-.688,1.368,1.368,0,0,0-1.253.654,4.16,4.16,0,0,0-.429,2.046v2.95a4.659,4.659,0,0,0,.4,2.2,1.372,1.372,0,0,0,1.294.721,1.35,1.35,0,0,0,1.274-.692,4.54,4.54,0,0,0,.408-2.116Z" fill="#aed3f2"/>
            <path id="Trazado_101917" data-name="Trazado 101917" d="M959.972,4806.4a6.14,6.14,0,0,1-1.041,3.846,4.158,4.158,0,0,1-6.077.025,5.966,5.966,0,0,1-1.074-3.746v-2.232a6.06,6.06,0,0,1,1.053-3.854,4.166,4.166,0,0,1,6.065-.013,5.949,5.949,0,0,1,1.074,3.743Zm-2.406-2.454a4.432,4.432,0,0,0-.412-2.195,1.394,1.394,0,0,0-1.286-.688,1.368,1.368,0,0,0-1.253.654,4.16,4.16,0,0,0-.429,2.046v2.95a4.658,4.658,0,0,0,.4,2.2,1.372,1.372,0,0,0,1.294.721,1.35,1.35,0,0,0,1.274-.692,4.541,4.541,0,0,0,.408-2.116Z" fill="#aed3f2"/>
            <path id="Trazado_101918" data-name="Trazado 101918" d="M961.82,4810.225a1.209,1.209,0,0,1,.387-.932,1.5,1.5,0,0,1,1.948,0,1.209,1.209,0,0,1,.387.932,1.192,1.192,0,0,1-.383.92,1.528,1.528,0,0,1-1.956,0A1.2,1.2,0,0,1,961.82,4810.225Z" fill="#aed3f2"/>
            <path id="Trazado_101919" data-name="Trazado 101919" d="M974.707,4806.4a6.146,6.146,0,0,1-1.04,3.846,4.159,4.159,0,0,1-6.078.025,5.966,5.966,0,0,1-1.074-3.746v-2.232a6.055,6.055,0,0,1,1.054-3.854,4.165,4.165,0,0,1,6.064-.013,5.937,5.937,0,0,1,1.074,3.743Zm-2.406-2.454a4.432,4.432,0,0,0-.412-2.195,1.392,1.392,0,0,0-1.286-.688,1.368,1.368,0,0,0-1.253.654,4.16,4.16,0,0,0-.429,2.046v2.95a4.659,4.659,0,0,0,.4,2.2,1.374,1.374,0,0,0,1.295.721,1.348,1.348,0,0,0,1.273-.692,4.541,4.541,0,0,0,.408-2.116Z" fill="#aed3f2"/>
            <path id="Trazado_101920" data-name="Trazado 101920" d="M984.489,4806.4a6.146,6.146,0,0,1-1.04,3.846,4.159,4.159,0,0,1-6.078.025,5.966,5.966,0,0,1-1.074-3.746v-2.232a6.054,6.054,0,0,1,1.054-3.854,4.165,4.165,0,0,1,6.064-.013,5.937,5.937,0,0,1,1.074,3.743Zm-2.406-2.454a4.433,4.433,0,0,0-.412-2.195,1.392,1.392,0,0,0-1.286-.688,1.368,1.368,0,0,0-1.253.654,4.159,4.159,0,0,0-.429,2.046v2.95a4.659,4.659,0,0,0,.4,2.2,1.374,1.374,0,0,0,1.295.721,1.348,1.348,0,0,0,1.273-.692,4.541,4.541,0,0,0,.408-2.116Z" fill="#aed3f2"/>
            <path id="Trazado_101921" data-name="Trazado 101921" d="M994.271,4806.4a6.146,6.146,0,0,1-1.04,3.846,4.159,4.159,0,0,1-6.078.025,5.966,5.966,0,0,1-1.074-3.746v-2.232a6.054,6.054,0,0,1,1.054-3.854,4.165,4.165,0,0,1,6.064-.013,5.937,5.937,0,0,1,1.074,3.743Zm-2.406-2.454a4.432,4.432,0,0,0-.412-2.195,1.392,1.392,0,0,0-1.286-.688,1.368,1.368,0,0,0-1.253.654,4.16,4.16,0,0,0-.429,2.046v2.95a4.659,4.659,0,0,0,.4,2.2,1.374,1.374,0,0,0,1.3.721,1.348,1.348,0,0,0,1.273-.692,4.54,4.54,0,0,0,.408-2.116Z" fill="#aed3f2"/>
          </g>
          <g id="Grupo_56697" data-name="Grupo 56697">
            <path id="Trazado_101922" data-name="Trazado 101922" d="M923.974,4827.636a1.521,1.521,0,0,0-.379-1.086,3.409,3.409,0,0,0-1.286-.745,15.144,15.144,0,0,1-1.565-.679,5.026,5.026,0,0,1-1.128-.774,3.118,3.118,0,0,1-.733-1.028,3.465,3.465,0,0,1-.262-1.407,3.123,3.123,0,0,1,.9-2.306,3.8,3.8,0,0,1,2.39-1.049v-1.782h1.332v1.807a3.474,3.474,0,0,1,2.306,1.228,4.046,4.046,0,0,1,.832,2.643h-2.406a2.3,2.3,0,0,0-.412-1.494,1.36,1.36,0,0,0-1.1-.5,1.4,1.4,0,0,0-1.057.387,1.473,1.473,0,0,0-.375,1.07,1.41,1.41,0,0,0,.366,1.016,4.045,4.045,0,0,0,1.362.782,15.213,15.213,0,0,1,1.635.754,4.709,4.709,0,0,1,1.083.8,3.089,3.089,0,0,1,.674,1.016,3.493,3.493,0,0,1,.233,1.327,3.108,3.108,0,0,1-.882,2.3,3.878,3.878,0,0,1-2.431,1.041v1.657h-1.324v-1.649a4,4,0,0,1-2.643-1.211,3.9,3.9,0,0,1-.937-2.735h2.406a2.211,2.211,0,0,0,.471,1.519,1.712,1.712,0,0,0,1.352.529,1.655,1.655,0,0,0,1.158-.387A1.344,1.344,0,0,0,923.974,4827.636Z" fill="#344154"/>
            <path id="Trazado_101923" data-name="Trazado 101923" d="M938.094,4830.825h-2.406v-9.275l-2.873.891v-1.956l5.02-1.8h.259Z" fill="#344154"/>
            <path id="Trazado_101924" data-name="Trazado 101924" d="M950.19,4825.813a6.14,6.14,0,0,1-1.041,3.846,4.158,4.158,0,0,1-6.077.025,5.964,5.964,0,0,1-1.074-3.746v-2.231a6.062,6.062,0,0,1,1.053-3.855,4.168,4.168,0,0,1,6.065-.012,5.946,5.946,0,0,1,1.074,3.742Zm-2.406-2.453a4.437,4.437,0,0,0-.412-2.2,1.394,1.394,0,0,0-1.286-.687,1.368,1.368,0,0,0-1.253.654,4.16,4.16,0,0,0-.429,2.046v2.949a4.666,4.666,0,0,0,.4,2.205,1.373,1.373,0,0,0,1.294.72,1.351,1.351,0,0,0,1.274-.691,4.544,4.544,0,0,0,.408-2.117Z" fill="#344154"/>
            <path id="Trazado_101925" data-name="Trazado 101925" d="M959.972,4825.813a6.14,6.14,0,0,1-1.041,3.846,4.158,4.158,0,0,1-6.077.025,5.964,5.964,0,0,1-1.074-3.746v-2.231a6.062,6.062,0,0,1,1.053-3.855,4.168,4.168,0,0,1,6.065-.012,5.946,5.946,0,0,1,1.074,3.742Zm-2.406-2.453a4.436,4.436,0,0,0-.412-2.2,1.393,1.393,0,0,0-1.286-.687,1.368,1.368,0,0,0-1.253.654,4.16,4.16,0,0,0-.429,2.046v2.949a4.665,4.665,0,0,0,.4,2.205,1.373,1.373,0,0,0,1.294.72,1.351,1.351,0,0,0,1.274-.691,4.545,4.545,0,0,0,.408-2.117Z" fill="#344154"/>
            <path id="Trazado_101926" data-name="Trazado 101926" d="M961.82,4829.642a1.211,1.211,0,0,1,.387-.932,1.5,1.5,0,0,1,1.948,0,1.211,1.211,0,0,1,.387.932,1.192,1.192,0,0,1-.383.92,1.528,1.528,0,0,1-1.956,0A1.2,1.2,0,0,1,961.82,4829.642Z" fill="#344154"/>
            <path id="Trazado_101927" data-name="Trazado 101927" d="M974.707,4825.813a6.146,6.146,0,0,1-1.04,3.846,4.159,4.159,0,0,1-6.078.025,5.964,5.964,0,0,1-1.074-3.746v-2.231a6.056,6.056,0,0,1,1.054-3.855,4.166,4.166,0,0,1,6.064-.012,5.934,5.934,0,0,1,1.074,3.742Zm-2.406-2.453a4.436,4.436,0,0,0-.412-2.2,1.391,1.391,0,0,0-1.286-.687,1.368,1.368,0,0,0-1.253.654,4.16,4.16,0,0,0-.429,2.046v2.949a4.666,4.666,0,0,0,.4,2.205,1.375,1.375,0,0,0,1.295.72,1.349,1.349,0,0,0,1.273-.691,4.546,4.546,0,0,0,.408-2.117Z" fill="#344154"/>
            <path id="Trazado_101928" data-name="Trazado 101928" d="M984.489,4825.813a6.146,6.146,0,0,1-1.04,3.846,4.159,4.159,0,0,1-6.078.025,5.964,5.964,0,0,1-1.074-3.746v-2.231a6.056,6.056,0,0,1,1.054-3.855,4.166,4.166,0,0,1,6.064-.012,5.934,5.934,0,0,1,1.074,3.742Zm-2.406-2.453a4.437,4.437,0,0,0-.412-2.2,1.392,1.392,0,0,0-1.286-.687,1.368,1.368,0,0,0-1.253.654,4.159,4.159,0,0,0-.429,2.046v2.949a4.666,4.666,0,0,0,.4,2.205,1.375,1.375,0,0,0,1.295.72,1.349,1.349,0,0,0,1.273-.691,4.545,4.545,0,0,0,.408-2.117Z" fill="#344154"/>
            <path id="Trazado_101929" data-name="Trazado 101929" d="M994.271,4825.813a6.146,6.146,0,0,1-1.04,3.846,4.159,4.159,0,0,1-6.078.025,5.964,5.964,0,0,1-1.074-3.746v-2.231a6.056,6.056,0,0,1,1.054-3.855,4.166,4.166,0,0,1,6.064-.012,5.934,5.934,0,0,1,1.074,3.742Zm-2.406-2.453a4.436,4.436,0,0,0-.412-2.2,1.391,1.391,0,0,0-1.286-.687,1.368,1.368,0,0,0-1.253.654,4.16,4.16,0,0,0-.429,2.046v2.949a4.666,4.666,0,0,0,.4,2.205,1.375,1.375,0,0,0,1.3.72,1.349,1.349,0,0,0,1.273-.691,4.544,4.544,0,0,0,.408-2.117Z" fill="#344154"/>
          </g>
          <g id="Grupo_56698" data-name="Grupo 56698">
            <path id="Trazado_101930" data-name="Trazado 101930" d="M923.974,4845.91a1.522,1.522,0,0,0-.379-1.087,3.435,3.435,0,0,0-1.286-.745,15.156,15.156,0,0,1-1.565-.678,5,5,0,0,1-1.128-.775,3.1,3.1,0,0,1-.733-1.028,3.465,3.465,0,0,1-.262-1.407,3.125,3.125,0,0,1,.9-2.306,3.8,3.8,0,0,1,2.39-1.049v-1.781h1.332v1.806a3.48,3.48,0,0,1,2.306,1.228,4.046,4.046,0,0,1,.832,2.643h-2.406a2.3,2.3,0,0,0-.412-1.494,1.363,1.363,0,0,0-1.1-.495,1.4,1.4,0,0,0-1.057.387,1.475,1.475,0,0,0-.375,1.07,1.407,1.407,0,0,0,.366,1.015,4.035,4.035,0,0,0,1.362.783,15.041,15.041,0,0,1,1.635.753,4.712,4.712,0,0,1,1.083.8,3.085,3.085,0,0,1,.674,1.015,3.5,3.5,0,0,1,.233,1.328,3.11,3.11,0,0,1-.882,2.3,3.872,3.872,0,0,1-2.431,1.04v1.657h-1.324v-1.648a4,4,0,0,1-2.643-1.212,3.9,3.9,0,0,1-.937-2.734h2.406a2.211,2.211,0,0,0,.471,1.519,1.715,1.715,0,0,0,1.352.529,1.655,1.655,0,0,0,1.158-.387A1.347,1.347,0,0,0,923.974,4845.91Z" fill="#aed3f2"/>
            <path id="Trazado_101931" data-name="Trazado 101931" d="M939.367,4844.536h1.374v1.94h-1.374v2.622h-2.406v-2.622h-4.97l-.108-1.515,5.053-7.984h2.431Zm-5.086,0h2.68v-4.279l-.158.275Z" fill="#aed3f2"/>
            <path id="Trazado_101932" data-name="Trazado 101932" d="M950.19,4844.087a6.139,6.139,0,0,1-1.041,3.846,4.158,4.158,0,0,1-6.077.025,5.967,5.967,0,0,1-1.074-3.747v-2.231a6.059,6.059,0,0,1,1.053-3.854,4.166,4.166,0,0,1,6.065-.013,5.948,5.948,0,0,1,1.074,3.742Zm-2.406-2.454a4.433,4.433,0,0,0-.412-2.195,1.392,1.392,0,0,0-1.286-.688,1.368,1.368,0,0,0-1.253.654,4.161,4.161,0,0,0-.429,2.046v2.95a4.659,4.659,0,0,0,.4,2.2,1.373,1.373,0,0,0,1.294.721,1.349,1.349,0,0,0,1.274-.692,4.54,4.54,0,0,0,.408-2.116Z" fill="#aed3f2"/>
            <path id="Trazado_101933" data-name="Trazado 101933" d="M960.055,4838.32l-4.687,10.778h-2.539l4.7-10.181H951.5v-1.94h8.558Z" fill="#aed3f2"/>
            <path id="Trazado_101934" data-name="Trazado 101934" d="M961.82,4847.916a1.21,1.21,0,0,1,.387-.932,1.5,1.5,0,0,1,1.948,0,1.21,1.21,0,0,1,.387.932,1.193,1.193,0,0,1-.383.92,1.528,1.528,0,0,1-1.956,0A1.2,1.2,0,0,1,961.82,4847.916Z" fill="#aed3f2"/>
            <path id="Trazado_101935" data-name="Trazado 101935" d="M974.707,4844.087a6.146,6.146,0,0,1-1.04,3.846,4.159,4.159,0,0,1-6.078.025,5.967,5.967,0,0,1-1.074-3.747v-2.231a6.053,6.053,0,0,1,1.054-3.854,4.165,4.165,0,0,1,6.064-.013,5.936,5.936,0,0,1,1.074,3.742Zm-2.406-2.454a4.432,4.432,0,0,0-.412-2.195,1.39,1.39,0,0,0-1.286-.688,1.368,1.368,0,0,0-1.253.654,4.16,4.16,0,0,0-.429,2.046v2.95a4.659,4.659,0,0,0,.4,2.2,1.374,1.374,0,0,0,1.295.721,1.348,1.348,0,0,0,1.273-.692,4.541,4.541,0,0,0,.408-2.116Z" fill="#aed3f2"/>
            <path id="Trazado_101936" data-name="Trazado 101936" d="M984.489,4844.087a6.145,6.145,0,0,1-1.04,3.846,4.159,4.159,0,0,1-6.078.025,5.968,5.968,0,0,1-1.074-3.747v-2.231a6.053,6.053,0,0,1,1.054-3.854,4.165,4.165,0,0,1,6.064-.013,5.936,5.936,0,0,1,1.074,3.742Zm-2.406-2.454a4.433,4.433,0,0,0-.412-2.195,1.39,1.39,0,0,0-1.286-.688,1.368,1.368,0,0,0-1.253.654,4.16,4.16,0,0,0-.429,2.046v2.95a4.659,4.659,0,0,0,.4,2.2,1.374,1.374,0,0,0,1.295.721,1.348,1.348,0,0,0,1.273-.692,4.541,4.541,0,0,0,.408-2.116Z" fill="#aed3f2"/>
            <path id="Trazado_101937" data-name="Trazado 101937" d="M994.271,4844.087a6.146,6.146,0,0,1-1.04,3.846,4.159,4.159,0,0,1-6.078.025,5.967,5.967,0,0,1-1.074-3.747v-2.231a6.053,6.053,0,0,1,1.054-3.854,4.165,4.165,0,0,1,6.064-.013,5.936,5.936,0,0,1,1.074,3.742Zm-2.406-2.454a4.432,4.432,0,0,0-.412-2.195,1.39,1.39,0,0,0-1.286-.688,1.368,1.368,0,0,0-1.253.654,4.161,4.161,0,0,0-.429,2.046v2.95a4.659,4.659,0,0,0,.4,2.2,1.374,1.374,0,0,0,1.3.721,1.348,1.348,0,0,0,1.273-.692,4.54,4.54,0,0,0,.408-2.116Z" fill="#aed3f2"/>
          </g>
        </g>
        <g id="Grupo_56700" data-name="Grupo 56700">
          <path id="Trazado_101938" data-name="Trazado 101938" d="M901.727,4787.508a9.245,9.245,0,0,1-1.252.314,14.8,14.8,0,0,1-9.333-1.337,5.371,5.371,0,0,1-1.435-1.086,3.423,3.423,0,0,1-.863-1.723,2.551,2.551,0,0,1,.416-2,1.946,1.946,0,0,1,2.043-.65,1.474,1.474,0,0,1,.9.758,1.892,1.892,0,0,1,.152,1.179,4.244,4.244,0,0,1-1.118,2.075,10.15,10.15,0,0,1-4.056,2.77,9.776,9.776,0,0,1-5.237.476,5.848,5.848,0,0,1-2.561-1.126,3.043,3.043,0,0,1-1.245-2.591,2.84,2.84,0,0,1,.557-1.409,2.208,2.208,0,0,1,1.274-.89,1.584,1.584,0,0,1,1.512.5,2.26,2.26,0,0,1,.542,1.494,3.06,3.06,0,0,1-.372,1.539,3.459,3.459,0,0,1-1.1,1.152,9.961,9.961,0,0,1-2.893,1.161,12.729,12.729,0,0,1-6.291.669,5.932,5.932,0,0,1-2.894-1.57,4.156,4.156,0,0,1-1.255-3.092,2.74,2.74,0,0,1,.876-1.963,2.009,2.009,0,0,1,2.133-.227,1.65,1.65,0,0,1,.806.785,1.69,1.69,0,0,1,.1,1.116,3.186,3.186,0,0,1-1.262,1.666,16.365,16.365,0,0,1-7.276,2.765,7.362,7.362,0,0,1-3.789-.332,3.816,3.816,0,0,1-2.329-2.855,2.6,2.6,0,0,1,1.927-2.908,1.8,1.8,0,0,1,1.725.62,2.751,2.751,0,0,1,.606,1.68,3.348,3.348,0,0,1-.37,1.7,3.991,3.991,0,0,1-1.148,1.255,8.831,8.831,0,0,1-2.966,1.243,9.943,9.943,0,0,1-5.918.214,5.086,5.086,0,0,1-2.248-1.638,3.648,3.648,0,0,1-.8-2.492,3.494,3.494,0,0,1,1.08-2.2,2.378,2.378,0,0,1,2.157-.645l.087.023,0,.086a6.253,6.253,0,0,1-1.585,4.3,6.541,6.541,0,0,1-2.832,1.93,5.371,5.371,0,0,1-2.123.272,6.111,6.111,0,0,1-.726-.137,5.616,5.616,0,0,0,2.807-.253,6.491,6.491,0,0,0,2.735-1.931,6.077,6.077,0,0,0,1.488-4.168l.09.109a2.132,2.132,0,0,0-1.926.6,3.238,3.238,0,0,0-.98,2.031,4.069,4.069,0,0,0,2.879,3.815,9.671,9.671,0,0,0,5.721-.254,8.532,8.532,0,0,0,2.843-1.2,3.663,3.663,0,0,0,1.038-1.139,2.983,2.983,0,0,0,.321-1.514,2.39,2.39,0,0,0-.521-1.452,1.424,1.424,0,0,0-1.367-.49,2.222,2.222,0,0,0-1.612,2.479,3.427,3.427,0,0,0,2.1,2.54,6.99,6.99,0,0,0,3.583.3,15.985,15.985,0,0,0,7.074-2.694,2.8,2.8,0,0,0,1.107-1.431,1.2,1.2,0,0,0-.676-1.423,1.593,1.593,0,0,0-1.679.168,2.322,2.322,0,0,0-.728,1.665,3.728,3.728,0,0,0,1.134,2.775,5.523,5.523,0,0,0,2.689,1.457,12.379,12.379,0,0,0,6.082-.658,9.623,9.623,0,0,0,2.778-1.1,3.075,3.075,0,0,0,.973-1.011,2.674,2.674,0,0,0,.325-1.335,1.87,1.87,0,0,0-.435-1.232,1.184,1.184,0,0,0-1.135-.381,2.266,2.266,0,0,0-1.529,1.952,2.674,2.674,0,0,0,1.1,2.257,5.487,5.487,0,0,0,2.392,1.057,9.447,9.447,0,0,0,5.045-.44,9.825,9.825,0,0,0,3.935-2.66,3.934,3.934,0,0,0,1.053-1.909,1.335,1.335,0,0,0-.831-1.6,1.659,1.659,0,0,0-1.733.54,2.285,2.285,0,0,0-.375,1.784,3.872,3.872,0,0,0,2.148,2.649,14.7,14.7,0,0,0,5.539,1.588,15.616,15.616,0,0,0,3.667-.129c.415-.069.732-.126.943-.174A1.914,1.914,0,0,1,901.727,4787.508Z" fill="#d9a171"/>
        </g>
        <g id="Grupo_56701" data-name="Grupo 56701">
          <path id="Trazado_101939" data-name="Trazado 101939" d="M980.807,4786.545a5.357,5.357,0,0,1-1.016.5,9.288,9.288,0,0,1-3.182.668,9.764,9.764,0,0,1-4.995-1.168,6.212,6.212,0,0,1-2.432-2.136,2.892,2.892,0,0,1-.436-1.757,2.452,2.452,0,0,1,.938-1.666,1.586,1.586,0,0,1,.984-.326,1.513,1.513,0,0,1,.981.417,2.4,2.4,0,0,1,.655,1.992,3.516,3.516,0,0,1-1.015,1.923,8.41,8.41,0,0,1-1.769,1.35,10.519,10.519,0,0,1-4.415,1.412,8.43,8.43,0,0,1-4.828-.9,4.733,4.733,0,0,1-1.872-1.811,3.517,3.517,0,0,1-.428-1.289,3.116,3.116,0,0,1,.2-1.367,3.168,3.168,0,0,1,1.925-1.942,1.843,1.843,0,0,1,1.453.145,2.252,2.252,0,0,1,.974,1.087,3.359,3.359,0,0,1-.107,2.831,5.864,5.864,0,0,1-1.925,2.118,10.557,10.557,0,0,1-5.425,1.876,10.777,10.777,0,0,1-5.613-1.207,8.464,8.464,0,0,1-2.283-1.7,3.864,3.864,0,0,1-1.133-2.6,2.559,2.559,0,0,1,1.557-2.3,1.571,1.571,0,0,1,1.451.173,2.12,2.12,0,0,1,.8,1.18,3.05,3.05,0,0,1-.545,2.615,8.1,8.1,0,0,1-1.861,1.793,11.376,11.376,0,0,1-9.131,1.953,6.161,6.161,0,0,1-3.7-2.217,3.426,3.426,0,0,1-.686-1.966,3.73,3.73,0,0,1,.487-1.934,2.46,2.46,0,0,1,1.493-1.19,2.118,2.118,0,0,1,1.767.394,3.249,3.249,0,0,1,1.193,2.964,3.99,3.99,0,0,1-1.428,2.418,5.354,5.354,0,0,1-2.111,1.072,10.415,10.415,0,0,1-3.248.2l-.842-.074a1.489,1.489,0,0,1-.286-.043,1.551,1.551,0,0,1,.289,0l.843.032a10.852,10.852,0,0,0,3.2-.277,5.223,5.223,0,0,0,2.024-1.065,3.794,3.794,0,0,0,1.325-2.3,3.007,3.007,0,0,0-1.12-2.716,1.841,1.841,0,0,0-1.54-.334,2.178,2.178,0,0,0-1.3,1.064,3.25,3.25,0,0,0,.206,3.561,5.844,5.844,0,0,0,3.517,2.067,11.037,11.037,0,0,0,8.825-1.925,7.778,7.778,0,0,0,1.765-1.706,2.648,2.648,0,0,0,.484-2.279,1.724,1.724,0,0,0-.644-.956,1.16,1.16,0,0,0-1.083-.125,2.163,2.163,0,0,0-1.285,1.927,3.459,3.459,0,0,0,1.028,2.309,8.071,8.071,0,0,0,2.172,1.612,10.392,10.392,0,0,0,5.393,1.157,10.152,10.152,0,0,0,5.206-1.8,5.45,5.45,0,0,0,1.794-1.96,2.942,2.942,0,0,0,.1-2.48,1.614,1.614,0,0,0-1.933-1.01,2.784,2.784,0,0,0-1.666,1.7,2.735,2.735,0,0,0-.178,1.185,3.163,3.163,0,0,0,.379,1.138,4.337,4.337,0,0,0,1.716,1.663,8.071,8.071,0,0,0,4.606.87,10.2,10.2,0,0,0,4.27-1.345,8.136,8.136,0,0,0,1.7-1.283,3.193,3.193,0,0,0,.935-1.73,2.087,2.087,0,0,0-.546-1.724,1.192,1.192,0,0,0-1.575-.078,2.176,2.176,0,0,0-.833,1.46,2.628,2.628,0,0,0,.386,1.587,6,6,0,0,0,2.314,2.066,9.755,9.755,0,0,0,8.034.627C980.458,4786.722,980.794,4786.518,980.807,4786.545Z" fill="#d9a171"/>
        </g>
        <g id="Grupo_56702" data-name="Grupo 56702">
          <path id="Trazado_101940" data-name="Trazado 101940" d="M905.662,4822.247a2.028,2.028,0,0,1-.31.157l-.928.421c-.819.362-2.03.892-3.625,1.492a29.488,29.488,0,0,1-6,1.6,23.07,23.07,0,0,1-3.878.235,13.148,13.148,0,0,1-4.316-.652,5.138,5.138,0,0,1-3.279-3.415,3.336,3.336,0,0,1,.318-2.578A2.918,2.918,0,0,1,885.88,4818a2.475,2.475,0,0,1,2.321,1.5,3.814,3.814,0,0,1,.2,2.875,5.622,5.622,0,0,1-1.693,2.429,11.025,11.025,0,0,1-2.539,1.637,8.7,8.7,0,0,1-6.137.717,6.22,6.22,0,0,1-4.264-4.7,5.118,5.118,0,0,1-.011-1.711,3.293,3.293,0,0,1,.7-1.6,2.176,2.176,0,0,1,1.557-.9,1.567,1.567,0,0,1,1.493,1.043,4.18,4.18,0,0,1-.6,3.435,10.387,10.387,0,0,1-2.266,2.685,9.561,9.561,0,0,1-12.668-.2,5.4,5.4,0,0,1-1.641-2.892,3.311,3.311,0,0,1,.108-1.683,3.4,3.4,0,0,1,.947-1.378,2.814,2.814,0,0,1,1.506-.708,1.994,1.994,0,0,1,1.591.5,3.076,3.076,0,0,1,.723,3.029,5.654,5.654,0,0,1-1.676,2.54,13.815,13.815,0,0,1-2.351,1.756,13.651,13.651,0,0,1-5.279,1.794,11.854,11.854,0,0,1-5.187-.466,5.777,5.777,0,0,1-2.134-1.278,4,4,0,0,1-1.157-2.088,3.643,3.643,0,0,1,.21-2.27,2.243,2.243,0,0,1,1.7-1.323,2.542,2.542,0,0,1,1.972.541,1.869,1.869,0,0,1,.627,1.8,2.827,2.827,0,0,1-.933,1.527,5.921,5.921,0,0,1-1.369.908,15.794,15.794,0,0,1-2.655,1.015,15.074,15.074,0,0,1-3.879.576,9.771,9.771,0,0,1-1.366-.058,2.285,2.285,0,0,1,.347-.007c.229,0,.57,0,1.016-.02a15.969,15.969,0,0,0,6.447-1.685,5.762,5.762,0,0,0,1.311-.889,2.622,2.622,0,0,0,.85-1.409,1.622,1.622,0,0,0-.558-1.565,2.289,2.289,0,0,0-1.769-.469,1.963,1.963,0,0,0-1.482,1.178,3.349,3.349,0,0,0-.176,2.087,4.4,4.4,0,0,0,3.108,3.123,11.549,11.549,0,0,0,5.037.425,13.286,13.286,0,0,0,5.132-1.766,13.424,13.424,0,0,0,2.279-1.712,5.3,5.3,0,0,0,1.563-2.367,2.7,2.7,0,0,0-.613-2.633,1.91,1.91,0,0,0-2.568.22,2.984,2.984,0,0,0-.83,1.21,2.906,2.906,0,0,0-.089,1.479,5.006,5.006,0,0,0,1.527,2.665,9.152,9.152,0,0,0,12.11.169,9.97,9.97,0,0,0,2.174-2.575,4.791,4.791,0,0,0,.619-1.514,2.837,2.837,0,0,0-.05-1.557,1.146,1.146,0,0,0-1.091-.777,1.771,1.771,0,0,0-1.245.741,3.748,3.748,0,0,0-.6,2.977,5.82,5.82,0,0,0,3.972,4.389,8.319,8.319,0,0,0,5.857-.683c1.756-.844,3.449-2.071,4.047-3.832a3.446,3.446,0,0,0-.176-2.6,2.116,2.116,0,0,0-1.976-1.31,2.576,2.576,0,0,0-1.965,1.328,3,3,0,0,0-.294,2.327,4.831,4.831,0,0,0,3.07,3.217,12.921,12.921,0,0,0,4.217.662,23.07,23.07,0,0,0,3.839-.2,30.083,30.083,0,0,0,5.974-1.517c1.6-.574,2.818-1.08,3.648-1.416l.944-.382A2.106,2.106,0,0,1,905.662,4822.247Z" fill="#d9a171"/>
        </g>
      </g>
      <g id="Grupo_56728" data-name="Grupo 56728" transform="translate(0 70.844)">
        <g id="Grupo_56724" data-name="Grupo 56724">
          <g id="Grupo_56704" data-name="Grupo 56704">
            <path id="Trazado_101941" data-name="Trazado 101941" d="M982.319,5000.1s-18.6-21.408-25.619-42.816-3.685-18.952-3.685-18.952,9.476,20.8,16.67,30.841,20,24.785,20,24.785Z" fill="#375a64"/>
          </g>
          <g id="Grupo_56705" data-name="Grupo 56705">
            <path id="Trazado_101942" data-name="Trazado 101942" d="M986.026,4941.664a1.083,1.083,0,0,0-2.017.689c1.134,7.52,3.585,25.167,3.489,36.612-.125,14.868.005,20.615.005,20.615h7.741s-1.374-30.736-3.123-40.107A64.324,64.324,0,0,0,986.026,4941.664Z" fill="#375a64"/>
          </g>
          <g id="Grupo_56706" data-name="Grupo 56706">
            <path id="Trazado_101943" data-name="Trazado 101943" d="M990.247,4997.081a82.008,82.008,0,0,0,6.372-23.114c.637-5.473-.5-12.869-2.192-22.74a61.264,61.264,0,0,1-.979-10.941,1.847,1.847,0,0,1,3.468-.867c.935,1.668,3.639,7.363,4.326,10.933,1.874,9.746,4,14.619,2.374,23.865s-7.622,23.489-7.622,23.489Z" fill="#375a64"/>
          </g>
          <g id="Grupo_56707" data-name="Grupo 56707">
            <path id="Trazado_101944" data-name="Trazado 101944" d="M997.22,4997.706s20.422-43.888,21.838-50.4,6.228-21.515,6.794-20.666,1.416,8.776-2.265,17.835-19.394,54.567-19.394,54.567H997.22" fill="#375a64"/>
          </g>
          <g id="Grupo_56709" data-name="Grupo 56709">
            <g id="Grupo_56708" data-name="Grupo 56708">
              <path id="Trazado_101945" data-name="Trazado 101945" d="M988.011,4995.742a4.227,4.227,0,0,1-.573-.393c-.362-.275-.913-.661-1.582-1.208a72.07,72.07,0,0,1-5.488-4.845,92.068,92.068,0,0,1-14.817-19.016,124.585,124.585,0,0,1-10.113-21.908c-1.027-2.915-1.777-5.3-2.263-6.959-.249-.827-.421-1.475-.542-1.914a4.022,4.022,0,0,1-.158-.676,4.209,4.209,0,0,1,.242.651l.62,1.889c.536,1.64,1.329,4.008,2.391,6.9a132.483,132.483,0,0,0,10.2,21.79,96.156,96.156,0,0,0,14.658,19.019c2.186,2.173,4.056,3.828,5.38,4.934.651.566,1.183.973,1.528,1.27A4.1,4.1,0,0,1,988.011,4995.742Z" fill="#1a2e35"/>
            </g>
          </g>
          <g id="Grupo_56711" data-name="Grupo 56711">
            <g id="Grupo_56710" data-name="Grupo 56710">
              <path id="Trazado_101946" data-name="Trazado 101946" d="M990.245,4974.688a7.41,7.41,0,0,1-.183-1.288c-.1-.909-.224-2.093-.377-3.518-.323-2.969-.828-7.064-1.549-11.562s-1.529-8.546-2.153-11.467c-.3-1.4-.553-2.566-.745-3.459a7.423,7.423,0,0,1-.23-1.28,7.455,7.455,0,0,1,.4,1.239c.229.805.531,1.977.881,3.432.7,2.908,1.556,6.956,2.283,11.465s1.18,8.62,1.425,11.6c.124,1.491.2,2.7.239,3.535A7.488,7.488,0,0,1,990.245,4974.688Z" fill="#1a2e35"/>
            </g>
          </g>
          <g id="Grupo_56713" data-name="Grupo 56713">
            <g id="Grupo_56712" data-name="Grupo 56712">
              <path id="Trazado_101947" data-name="Trazado 101947" d="M995.029,4939.075a3.237,3.237,0,0,1,.241.558c.155.413.358.955.612,1.63.27.707.581,1.579.876,2.613s.7,2.193.993,3.514q.242.988.506,2.064c.171.719.293,1.479.449,2.259.334,1.559.54,3.248.788,5.022a75.005,75.005,0,0,1-.832,23.2c-.374,1.752-.7,3.422-1.145,4.953-.212.767-.387,1.516-.61,2.221s-.444,1.377-.652,2.022c-.39,1.3-.865,2.428-1.242,3.434s-.741,1.858-1.061,2.544l-.727,1.582a3.193,3.193,0,0,1-.281.539,3.24,3.24,0,0,1,.2-.575l.651-1.613c.295-.694.643-1.548.989-2.563s.807-2.145,1.176-3.443l.623-2.022c.213-.7.38-1.452.583-2.217.427-1.527.739-3.192,1.1-4.937a77.448,77.448,0,0,0,.828-23.078c-.236-1.765-.428-3.449-.744-5-.148-.778-.261-1.536-.423-2.254s-.324-1.4-.476-2.061c-.276-1.321-.647-2.484-.928-3.518s-.558-1.914-.8-2.628c-.221-.686-.4-1.236-.534-1.655A3.214,3.214,0,0,1,995.029,4939.075Z" fill="#1a2e35"/>
            </g>
          </g>
          <g id="Grupo_56715" data-name="Grupo 56715">
            <g id="Grupo_56714" data-name="Grupo 56714">
              <path id="Trazado_101948" data-name="Trazado 101948" d="M1025.618,4927.523a.689.689,0,0,1-.016.2l-.091.57c-.09.5-.2,1.241-.4,2.184-.4,1.888-1.052,4.606-2.073,7.9s-2.413,7.163-4.067,11.409-3.563,8.878-5.376,13.806c-1.841,4.92-3.259,9.722-4.592,14.079s-2.573,8.275-3.784,11.506a73.562,73.562,0,0,1-3.224,7.505c-.418.87-.795,1.518-1.038,1.964l-.285.5a.688.688,0,0,1-.111.164.726.726,0,0,1,.071-.185c.067-.141.149-.312.248-.522.217-.458.568-1.118.962-2,.822-1.74,1.929-4.3,3.087-7.538s2.391-7.15,3.69-11.516,2.721-9.18,4.567-14.114c1.817-4.939,3.744-9.564,5.411-13.8s3.1-8.08,4.146-11.357,1.758-5.971,2.2-7.844c.225-.936.364-1.671.482-2.164.053-.226.1-.41.133-.562A.63.63,0,0,1,1025.618,4927.523Z" fill="#1a2e35"/>
            </g>
          </g>
          <g id="Grupo_56723" data-name="Grupo 56723">
            <g id="Grupo_56716" data-name="Grupo 56716">
              <path id="Trazado_101949" data-name="Trazado 101949" d="M962.644,4917.829a1.758,1.758,0,0,0-2.895,1.793,50.255,50.255,0,0,0,2.566,6.6c2.808,5.966,11.055,27.374,14.915,39.131s9.3,33.691,9.3,33.691l8.244-1.337s-7.543-36.039-14.912-49.025C973.941,4938.248,968.019,4923.17,962.644,4917.829Z" fill="#375a64"/>
            </g>
            <g id="Grupo_56718" data-name="Grupo 56718">
              <g id="Grupo_56717" data-name="Grupo 56717">
                <path id="Trazado_101950" data-name="Trazado 101950" d="M979.487,4972.705a5.11,5.11,0,0,1,.425.988c.243.646.576,1.59.95,2.768.759,2.351,1.688,5.636,2.624,9.285s1.712,6.971,2.254,9.379l.62,2.857a5.1,5.1,0,0,1,.171,1.061,4.99,4.99,0,0,1-.336-1.021l-.755-2.824c-.63-2.48-1.459-5.739-2.376-9.344-.935-3.645-1.815-6.935-2.5-9.3-.326-1.118-.6-2.057-.816-2.8A5.04,5.04,0,0,1,979.487,4972.705Z" fill="#1a2e35"/>
              </g>
            </g>
            <g id="Grupo_56720" data-name="Grupo 56720">
              <g id="Grupo_56719" data-name="Grupo 56719">
                <path id="Trazado_101951" data-name="Trazado 101951" d="M990.672,4998.374a.916.916,0,0,1-.047-.22c-.024-.171-.055-.385-.093-.649-.087-.57-.164-1.416-.338-2.5-.3-2.166-.843-5.287-1.728-9.094a130.284,130.284,0,0,0-3.859-13.17c-1.691-4.884-3.812-10.161-6.215-15.623-4.85-10.91-9.7-20.587-12.878-27.743-1.61-3.569-2.856-6.483-3.676-8.514-.419-1.011-.718-1.807-.927-2.344-.093-.251-.169-.453-.229-.615a.862.862,0,0,1-.064-.215.846.846,0,0,1,.105.2l.269.6c.243.56.578,1.333,1,2.313.868,2.008,2.156,4.9,3.8,8.451,3.253,7.117,8.14,16.769,13,27.695,2.407,5.47,4.522,10.764,6.2,15.668a123.959,123.959,0,0,1,3.78,13.232,92.55,92.55,0,0,1,1.6,9.14c.148,1.086.2,1.937.256,2.51.021.266.037.481.051.654A.815.815,0,0,1,990.672,4998.374Z" fill="#1a2e35"/>
              </g>
            </g>
            <g id="Grupo_56722" data-name="Grupo 56722">
              <g id="Grupo_56721" data-name="Grupo 56721">
                <path id="Trazado_101952" data-name="Trazado 101952" d="M994.775,4997.706a8.65,8.65,0,0,1-.278-1.385c-.164-.969-.38-2.246-.642-3.79-.568-3.194-1.436-7.593-2.683-12.382s-2.625-9.056-3.7-12.118c-.526-1.476-.96-2.7-1.29-3.621a8.811,8.811,0,0,1-.438-1.343,8.782,8.782,0,0,1,.6,1.281c.355.836.851,2.055,1.421,3.578a119.777,119.777,0,0,1,3.827,12.114,125.625,125.625,0,0,1,2.565,12.441c.235,1.608.415,2.911.506,3.816A8.913,8.913,0,0,1,994.775,4997.706Z" fill="#1a2e35"/>
              </g>
            </g>
          </g>
        </g>
        <g id="Grupo_56727" data-name="Grupo 56727">
          <g id="Grupo_56725" data-name="Grupo 56725">
            <rect id="Rectángulo_5307" data-name="Rectángulo 5307" width="32.178" height="39.205" transform="translate(979.517 4996.521)" fill="#344154"/>
          </g>
          <g id="Grupo_56726" data-name="Grupo 56726">
            <rect id="Rectángulo_5308" data-name="Rectángulo 5308" width="28.548" height="39.205" transform="translate(972.882 4996.521)" fill="#6595bf"/>
          </g>
        </g>
      </g>
      <g id="Grupo_56941" data-name="Grupo 56941" transform="translate(0 76)">
        <g id="Grupo_56895" data-name="Grupo 56895">
          <g id="Grupo_56891" data-name="Grupo 56891">
            <g id="Grupo_56761" data-name="Grupo 56761">
              <g id="Grupo_56760" data-name="Grupo 56760">
                <g id="Grupo_56759" data-name="Grupo 56759">
                  <g id="Grupo_56743" data-name="Grupo 56743">
                    <g id="Grupo_56742" data-name="Grupo 56742">
                      <g id="Grupo_56741" data-name="Grupo 56741">
                        <g id="Grupo_56740" data-name="Grupo 56740">
                          <g id="Grupo_56739" data-name="Grupo 56739">
                            <g id="Grupo_56738" data-name="Grupo 56738">
                              <g id="Grupo_56737" data-name="Grupo 56737">
                                <g id="Grupo_56736" data-name="Grupo 56736">
                                  <g id="Grupo_56735" data-name="Grupo 56735">
                                    <g id="Grupo_56734" data-name="Grupo 56734">
                                      <g id="Grupo_56733" data-name="Grupo 56733">
                                        <g id="Grupo_56732" data-name="Grupo 56732">
                                          <g id="Grupo_56731" data-name="Grupo 56731">
                                            <g id="Grupo_56730" data-name="Grupo 56730">
                                              <g id="Grupo_56729" data-name="Grupo 56729">
                                                <path id="Trazado_101953" data-name="Trazado 101953" d="M739.939,4788.664l-.915,73.651c-.156,12.525,2.175,30.955,21.988,30.3h0c17.148-1.866,21.7-18.1,21.831-29.788.063-5.544.127-10.167.171-10.736,0,0,18.771-1.531,20.356-20.072.765-8.959.84-27.542.712-44.354a34.659,34.659,0,0,0-32.146-34.286l-1.791-.131C750.756,4752.964,739.684,4769.274,739.939,4788.664Z" fill="#ffbf9d"/>
                                              </g>
                                            </g>
                                          </g>
                                        </g>
                                      </g>
                                    </g>
                                  </g>
                                </g>
                              </g>
                            </g>
                          </g>
                        </g>
                      </g>
                    </g>
                  </g>
                  <g id="Grupo_56758" data-name="Grupo 56758">
                    <g id="Grupo_56757" data-name="Grupo 56757">
                      <g id="Grupo_56756" data-name="Grupo 56756">
                        <g id="Grupo_56755" data-name="Grupo 56755">
                          <g id="Grupo_56754" data-name="Grupo 56754">
                            <g id="Grupo_56753" data-name="Grupo 56753">
                              <g id="Grupo_56752" data-name="Grupo 56752">
                                <g id="Grupo_56751" data-name="Grupo 56751">
                                  <g id="Grupo_56750" data-name="Grupo 56750">
                                    <g id="Grupo_56749" data-name="Grupo 56749">
                                      <g id="Grupo_56748" data-name="Grupo 56748">
                                        <g id="Grupo_56747" data-name="Grupo 56747">
                                          <g id="Grupo_56746" data-name="Grupo 56746">
                                            <g id="Grupo_56745" data-name="Grupo 56745">
                                              <g id="Grupo_56744" data-name="Grupo 56744">
                                                <path id="Trazado_101954" data-name="Trazado 101954" d="M783.014,4852.089s-11.747-.169-23.64-8.908c0,0,4.9,13.985,23.543,13.665Z" fill="#ff9a6c"/>
                                              </g>
                                            </g>
                                          </g>
                                        </g>
                                      </g>
                                    </g>
                                  </g>
                                </g>
                              </g>
                            </g>
                          </g>
                        </g>
                      </g>
                    </g>
                  </g>
                </g>
              </g>
            </g>
            <g id="Grupo_56845" data-name="Grupo 56845">
              <g id="Grupo_56844" data-name="Grupo 56844">
                <g id="Grupo_56813" data-name="Grupo 56813">
                  <g id="Grupo_56812" data-name="Grupo 56812">
                    <g id="Grupo_56811" data-name="Grupo 56811">
                      <g id="Grupo_56778" data-name="Grupo 56778">
                        <g id="Grupo_56777" data-name="Grupo 56777">
                          <g id="Grupo_56776" data-name="Grupo 56776">
                            <g id="Grupo_56775" data-name="Grupo 56775">
                              <g id="Grupo_56774" data-name="Grupo 56774">
                                <g id="Grupo_56773" data-name="Grupo 56773">
                                  <g id="Grupo_56772" data-name="Grupo 56772">
                                    <g id="Grupo_56771" data-name="Grupo 56771">
                                      <g id="Grupo_56770" data-name="Grupo 56770">
                                        <g id="Grupo_56769" data-name="Grupo 56769">
                                          <g id="Grupo_56768" data-name="Grupo 56768">
                                            <g id="Grupo_56767" data-name="Grupo 56767">
                                              <g id="Grupo_56766" data-name="Grupo 56766">
                                                <g id="Grupo_56765" data-name="Grupo 56765">
                                                  <g id="Grupo_56764" data-name="Grupo 56764">
                                                    <g id="Grupo_56763" data-name="Grupo 56763">
                                                      <g id="Grupo_56762" data-name="Grupo 56762">
                                                        <path id="Trazado_101955" data-name="Trazado 101955" d="M772.384,4795.261c-.368.375-2.509-1.349-5.616-1.432-3.1-.13-5.426,1.441-5.752,1.041-.161-.178.223-.864,1.235-1.575a7.785,7.785,0,0,1,4.619-1.31,7.5,7.5,0,0,1,4.456,1.622C772.261,4794.386,772.565,4795.093,772.384,4795.261Z" fill="#1a2e35"/>
                                                      </g>
                                                    </g>
                                                  </g>
                                                </g>
                                              </g>
                                            </g>
                                          </g>
                                        </g>
                                      </g>
                                    </g>
                                  </g>
                                </g>
                              </g>
                            </g>
                          </g>
                        </g>
                      </g>
                      <g id="Grupo_56794" data-name="Grupo 56794">
                        <g id="Grupo_56793" data-name="Grupo 56793">
                          <g id="Grupo_56792" data-name="Grupo 56792">
                            <g id="Grupo_56791" data-name="Grupo 56791">
                              <g id="Grupo_56790" data-name="Grupo 56790">
                                <g id="Grupo_56789" data-name="Grupo 56789">
                                  <g id="Grupo_56788" data-name="Grupo 56788">
                                    <g id="Grupo_56787" data-name="Grupo 56787">
                                      <g id="Grupo_56786" data-name="Grupo 56786">
                                        <g id="Grupo_56785" data-name="Grupo 56785">
                                          <g id="Grupo_56784" data-name="Grupo 56784">
                                            <g id="Grupo_56783" data-name="Grupo 56783">
                                              <g id="Grupo_56782" data-name="Grupo 56782">
                                                <g id="Grupo_56781" data-name="Grupo 56781">
                                                  <g id="Grupo_56780" data-name="Grupo 56780">
                                                    <g id="Grupo_56779" data-name="Grupo 56779">
                                                      <path id="Trazado_101956" data-name="Trazado 101956" d="M772.291,4801.686a2.513,2.513,0,0,1-2.6,2.352,2.4,2.4,0,0,1-2.419-2.449,2.515,2.515,0,0,1,2.6-2.354A2.406,2.406,0,0,1,772.291,4801.686Z" fill="#1a2e35"/>
                                                    </g>
                                                  </g>
                                                </g>
                                              </g>
                                            </g>
                                          </g>
                                        </g>
                                      </g>
                                    </g>
                                  </g>
                                </g>
                              </g>
                            </g>
                          </g>
                        </g>
                      </g>
                      <g id="Grupo_56810" data-name="Grupo 56810">
                        <g id="Grupo_56809" data-name="Grupo 56809">
                          <g id="Grupo_56808" data-name="Grupo 56808">
                            <g id="Grupo_56807" data-name="Grupo 56807">
                              <g id="Grupo_56806" data-name="Grupo 56806">
                                <g id="Grupo_56805" data-name="Grupo 56805">
                                  <g id="Grupo_56804" data-name="Grupo 56804">
                                    <g id="Grupo_56803" data-name="Grupo 56803">
                                      <g id="Grupo_56802" data-name="Grupo 56802">
                                        <g id="Grupo_56801" data-name="Grupo 56801">
                                          <g id="Grupo_56800" data-name="Grupo 56800">
                                            <g id="Grupo_56799" data-name="Grupo 56799">
                                              <g id="Grupo_56798" data-name="Grupo 56798">
                                                <g id="Grupo_56797" data-name="Grupo 56797">
                                                  <g id="Grupo_56796" data-name="Grupo 56796">
                                                    <g id="Grupo_56795" data-name="Grupo 56795">
                                                      <path id="Trazado_101957" data-name="Trazado 101957" d="M780.165,4816.869c0-.163,1.794-.34,4.693-.5.734-.022,1.433-.116,1.592-.6a3.715,3.715,0,0,0-.328-2.194q-.834-2.718-1.749-5.7c-2.414-8.114-4.1-14.763-3.777-14.858s2.55,6.406,4.964,14.519q.867,3,1.656,5.728a4.232,4.232,0,0,1,.169,2.886,1.83,1.83,0,0,1-1.275.977,4.931,4.931,0,0,1-1.25.082C781.958,4817.149,780.164,4817.032,780.165,4816.869Z" fill="#1a2e35"/>
                                                    </g>
                                                  </g>
                                                </g>
                                              </g>
                                            </g>
                                          </g>
                                        </g>
                                      </g>
                                    </g>
                                  </g>
                                </g>
                              </g>
                            </g>
                          </g>
                        </g>
                      </g>
                    </g>
                  </g>
                </g>
                <g id="Grupo_56828" data-name="Grupo 56828">
                  <g id="Grupo_56827" data-name="Grupo 56827">
                    <g id="Grupo_56826" data-name="Grupo 56826">
                      <g id="Grupo_56825" data-name="Grupo 56825">
                        <g id="Grupo_56824" data-name="Grupo 56824">
                          <g id="Grupo_56823" data-name="Grupo 56823">
                            <g id="Grupo_56822" data-name="Grupo 56822">
                              <g id="Grupo_56821" data-name="Grupo 56821">
                                <g id="Grupo_56820" data-name="Grupo 56820">
                                  <g id="Grupo_56819" data-name="Grupo 56819">
                                    <g id="Grupo_56818" data-name="Grupo 56818">
                                      <g id="Grupo_56817" data-name="Grupo 56817">
                                        <g id="Grupo_56816" data-name="Grupo 56816">
                                          <g id="Grupo_56815" data-name="Grupo 56815">
                                            <g id="Grupo_56814" data-name="Grupo 56814">
                                              <path id="Trazado_101958" data-name="Trazado 101958" d="M771.063,4783.582c-.3.689-2.787.17-5.765.323-2.981.09-5.426.809-5.771.147-.152-.317.311-.952,1.323-1.566a9.406,9.406,0,0,1,4.36-1.227,9.306,9.306,0,0,1,4.428.869C770.689,4782.658,771.194,4783.254,771.063,4783.582Z" fill="#1a2e35"/>
                                            </g>
                                          </g>
                                        </g>
                                      </g>
                                    </g>
                                  </g>
                                </g>
                              </g>
                            </g>
                          </g>
                        </g>
                      </g>
                    </g>
                  </g>
                </g>
                <g id="Grupo_56843" data-name="Grupo 56843">
                  <g id="Grupo_56842" data-name="Grupo 56842">
                    <g id="Grupo_56841" data-name="Grupo 56841">
                      <g id="Grupo_56840" data-name="Grupo 56840">
                        <g id="Grupo_56839" data-name="Grupo 56839">
                          <g id="Grupo_56838" data-name="Grupo 56838">
                            <g id="Grupo_56837" data-name="Grupo 56837">
                              <g id="Grupo_56836" data-name="Grupo 56836">
                                <g id="Grupo_56835" data-name="Grupo 56835">
                                  <g id="Grupo_56834" data-name="Grupo 56834">
                                    <g id="Grupo_56833" data-name="Grupo 56833">
                                      <g id="Grupo_56832" data-name="Grupo 56832">
                                        <g id="Grupo_56831" data-name="Grupo 56831">
                                          <g id="Grupo_56830" data-name="Grupo 56830">
                                            <g id="Grupo_56829" data-name="Grupo 56829">
                                              <path id="Trazado_101959" data-name="Trazado 101959" d="M800.564,4789.338c-.326.561-2.75-.062-5.687-.153-2.938-.144-5.376.286-5.686-.3-.136-.28.348-.784,1.372-1.23a10.266,10.266,0,0,1,4.345-.718,10.6,10.6,0,0,1,4.32,1.064C800.238,4788.527,800.708,4789.069,800.564,4789.338Z" fill="#1a2e35"/>
                                            </g>
                                          </g>
                                        </g>
                                      </g>
                                    </g>
                                  </g>
                                </g>
                              </g>
                            </g>
                          </g>
                        </g>
                      </g>
                    </g>
                  </g>
                </g>
              </g>
            </g>
            <g id="Grupo_56858" data-name="Grupo 56858">
              <g id="Grupo_56857" data-name="Grupo 56857">
                <g id="Grupo_56856" data-name="Grupo 56856">
                  <g id="Grupo_56855" data-name="Grupo 56855">
                    <g id="Grupo_56854" data-name="Grupo 56854">
                      <g id="Grupo_56853" data-name="Grupo 56853">
                        <g id="Grupo_56852" data-name="Grupo 56852">
                          <g id="Grupo_56851" data-name="Grupo 56851">
                            <g id="Grupo_56850" data-name="Grupo 56850">
                              <g id="Grupo_56849" data-name="Grupo 56849">
                                <g id="Grupo_56848" data-name="Grupo 56848">
                                  <g id="Grupo_56847" data-name="Grupo 56847">
                                    <g id="Grupo_56846" data-name="Grupo 56846">
                                      <path id="Trazado_101960" data-name="Trazado 101960" d="M740.451,4802.515c-.307-.16-12.475-4.7-13,8.014s12.353,10.617,12.39,10.253S740.451,4802.515,740.451,4802.515Z" fill="#ffbf9d"/>
                                    </g>
                                  </g>
                                </g>
                              </g>
                            </g>
                          </g>
                        </g>
                      </g>
                    </g>
                  </g>
                </g>
              </g>
            </g>
            <g id="Grupo_56872" data-name="Grupo 56872">
              <g id="Grupo_56871" data-name="Grupo 56871">
                <g id="Grupo_56870" data-name="Grupo 56870">
                  <g id="Grupo_56869" data-name="Grupo 56869">
                    <g id="Grupo_56868" data-name="Grupo 56868">
                      <g id="Grupo_56867" data-name="Grupo 56867">
                        <g id="Grupo_56866" data-name="Grupo 56866">
                          <g id="Grupo_56865" data-name="Grupo 56865">
                            <g id="Grupo_56864" data-name="Grupo 56864">
                              <g id="Grupo_56863" data-name="Grupo 56863">
                                <g id="Grupo_56862" data-name="Grupo 56862">
                                  <g id="Grupo_56861" data-name="Grupo 56861">
                                    <g id="Grupo_56860" data-name="Grupo 56860">
                                      <g id="Grupo_56859" data-name="Grupo 56859">
                                        <path id="Trazado_101961" data-name="Trazado 101961" d="M736.158,4815.805c-.055-.043-.228.146-.609.3a2.216,2.216,0,0,1-1.658-.033c-1.323-.549-2.367-2.728-2.335-5.022a7.327,7.327,0,0,1,.75-3.146,2.561,2.561,0,0,1,1.737-1.632,1.128,1.128,0,0,1,1.282.66c.156.363.065.613.131.638.035.033.282-.2.2-.732a1.415,1.415,0,0,0-.468-.817,1.68,1.68,0,0,0-1.211-.374,3.115,3.115,0,0,0-2.4,1.877,7.53,7.53,0,0,0-.914,3.513c-.023,2.566,1.19,5.017,3.007,5.624a2.375,2.375,0,0,0,2.039-.253C736.122,4816.112,736.2,4815.83,736.158,4815.805Z" fill="#ff9a6c"/>
                                      </g>
                                    </g>
                                  </g>
                                </g>
                              </g>
                            </g>
                          </g>
                        </g>
                      </g>
                    </g>
                  </g>
                </g>
              </g>
            </g>
            <g id="Grupo_56873" data-name="Grupo 56873">
              <path id="Trazado_101962" data-name="Trazado 101962" d="M777.165,4825.673c.139-.321-2.353-1.067-4.1-3.4a14.266,14.266,0,0,1-1.76-3.321c-.371-.923-.652-1.5-.789-1.46s-.1.665.106,1.67a9.392,9.392,0,0,0,1.637,3.719,7.6,7.6,0,0,0,3.248,2.487C776.474,4825.758,777.131,4825.782,777.165,4825.673Z" fill="#1a2e35"/>
            </g>
            <g id="Grupo_56882" data-name="Grupo 56882">
              <g id="Grupo_56881" data-name="Grupo 56881">
                <g id="Grupo_56880" data-name="Grupo 56880">
                  <g id="Grupo_56879" data-name="Grupo 56879">
                    <g id="Grupo_56878" data-name="Grupo 56878">
                      <g id="Grupo_56877" data-name="Grupo 56877">
                        <g id="Grupo_56876" data-name="Grupo 56876">
                          <g id="Grupo_56875" data-name="Grupo 56875">
                            <g id="Grupo_56874" data-name="Grupo 56874">
                              <path id="Trazado_101963" data-name="Trazado 101963" d="M800.7,4796.431c-.369.375-2.509-1.349-5.616-1.432-3.1-.13-5.426,1.44-5.752,1.041-.161-.178.223-.864,1.235-1.575a7.783,7.783,0,0,1,4.618-1.31,7.5,7.5,0,0,1,4.457,1.622C800.58,4795.556,800.884,4796.263,800.7,4796.431Z" fill="#1a2e35"/>
                            </g>
                          </g>
                        </g>
                      </g>
                    </g>
                  </g>
                </g>
              </g>
            </g>
            <g id="Grupo_56890" data-name="Grupo 56890">
              <g id="Grupo_56889" data-name="Grupo 56889">
                <g id="Grupo_56888" data-name="Grupo 56888">
                  <g id="Grupo_56887" data-name="Grupo 56887">
                    <g id="Grupo_56886" data-name="Grupo 56886">
                      <g id="Grupo_56885" data-name="Grupo 56885">
                        <g id="Grupo_56884" data-name="Grupo 56884">
                          <g id="Grupo_56883" data-name="Grupo 56883">
                            <path id="Trazado_101964" data-name="Trazado 101964" d="M800.193,4802.588a2.514,2.514,0,0,1-2.6,2.353,2.4,2.4,0,0,1-2.418-2.449,2.515,2.515,0,0,1,2.6-2.355A2.406,2.406,0,0,1,800.193,4802.588Z" fill="#1a2e35"/>
                          </g>
                        </g>
                      </g>
                    </g>
                  </g>
                </g>
              </g>
            </g>
          </g>
          <g id="Grupo_56892" data-name="Grupo 56892">
            <path id="Trazado_101965" data-name="Trazado 101965" d="M817.016,4763.042a10.032,10.032,0,0,0-12.514-3.96,13.733,13.733,0,0,0-23.657-11.859,5.61,5.61,0,0,0-2.735-3.763,11.074,11.074,0,0,0-4.565-1.361,21.828,21.828,0,0,0-19.942,8.695,23.761,23.761,0,0,0-20.135,7.347c-5.974,6.616-7.1,21.952-.557,35.2l1.54,8.306c2.052-.006,3.929.141,5.194,1.278,1.719,1.545,2.487,4.453,5.343,3.349,1.454-.562,2.78-3.611,3.267-5.092a72.357,72.357,0,0,0,3.133-30.63,23.251,23.251,0,0,1,7.182-5.183l-.219.2c5.181-1.8,11.043-3.57,15.959-1.137,3.814,1.887,6.055,5.844,8.906,9a29.117,29.117,0,0,0,20.748,9.583c.274,5.221-.164,12.6.11,17.82l4.392-8.363,0,.042c.36-.612.657-1.229.945-1.848l.1-.187v-.024l0-.006c.8-.652,1.413-1.848,2.77-3.4a10.953,10.953,0,0,0,1.8-11.208A10.035,10.035,0,0,0,817.016,4763.042Z" fill="#1a2e35"/>
            <path id="Trazado_101966" data-name="Trazado 101966" d="M811.031,4787.528l-.017-.015h0Z" fill="#1a2e35"/>
          </g>
          <g id="Grupo_56893" data-name="Grupo 56893">
            <path id="Trazado_101967" data-name="Trazado 101967" d="M809.415,4763.233c.013,0,.045.09.093.274a3.74,3.74,0,0,1,.117.822,5.522,5.522,0,0,1-.74,2.98,5.685,5.685,0,0,1-1.421,1.645,5.086,5.086,0,0,1-2.317.989,5.739,5.739,0,0,1-5.3-2l.316-.271a3.5,3.5,0,0,1,.9,2.493,4.6,4.6,0,0,1-1.421,3.2,5.19,5.19,0,0,1-3.007,1.28,8.08,8.08,0,0,1-5.228-1.438,17.086,17.086,0,0,1-2.794-2.375,7.058,7.058,0,0,1-.89-1,9.653,9.653,0,0,1,1,.886,19.691,19.691,0,0,0,2.841,2.242,7.9,7.9,0,0,0,5.026,1.3,4.836,4.836,0,0,0,2.766-1.194,4.222,4.222,0,0,0,1.283-2.913,3.1,3.1,0,0,0-.779-2.2l.315-.271a5.4,5.4,0,0,0,4.919,1.889,4.98,4.98,0,0,0,3.556-2.41,5.626,5.626,0,0,0,.828-2.838C809.481,4763.625,809.377,4763.241,809.415,4763.233Z" fill="#375a64"/>
          </g>
          <g id="Grupo_56894" data-name="Grupo 56894">
            <path id="Trazado_101968" data-name="Trazado 101968" d="M793.5,4749.3c.007-.012.1.03.273.122a5.577,5.577,0,0,1,.709.478,6.191,6.191,0,0,1,1.918,2.491,4.876,4.876,0,0,1-.437,4.581,3.756,3.756,0,0,1-2.317,1.59,3.813,3.813,0,0,1-2.963-.574,3.3,3.3,0,0,1-.705-.7l.364-.206a3.56,3.56,0,0,1-.1,2.858,3.912,3.912,0,0,1-1.85,1.9,5.149,5.149,0,0,1-4.332-.009,6.9,6.9,0,0,1-2.334-1.76,3.348,3.348,0,0,1-.619-.866c.027-.02.255.28.734.758a7.362,7.362,0,0,0,2.333,1.6,4.908,4.908,0,0,0,4.048-.066,3.545,3.545,0,0,0,1.649-1.723,3.164,3.164,0,0,0,.08-2.523l-.672-1.56,1.036,1.355a2.91,2.91,0,0,0,.609.6,3.429,3.429,0,0,0,2.632.513,3.379,3.379,0,0,0,2.084-1.408,4.608,4.608,0,0,0,.478-4.252,6.426,6.426,0,0,0-1.746-2.473C793.839,4749.536,793.483,4749.33,793.5,4749.3Z" fill="#375a64"/>
          </g>
        </g>
        <g id="Grupo_56940" data-name="Grupo 56940">
          <g id="Grupo_56910" data-name="Grupo 56910">
            <g id="Grupo_56896" data-name="Grupo 56896">
              <path id="Trazado_101969" data-name="Trazado 101969" d="M901.415,4842.009l-29.34,22.4a3.8,3.8,0,0,0-.562,5.512h0a3.8,3.8,0,0,0,5.2.509l29.1-22.612,3.937-7.764Z" fill="#d9a171"/>
              <path id="Trazado_101970" data-name="Trazado 101970" d="M905.979,4840.94l2.081,2.423-2.249,4.459a1.785,1.785,0,0,1-1.956-2.029,1.571,1.571,0,0,1-1.775-2.037s-1.526-.136-.665-1.747Z" fill="#fff" opacity="0.5"/>
              <path id="Trazado_101971" data-name="Trazado 101971" d="M872.075,4864.413l4.815,5.883,1.616-1.256-4.618-6.012Z" fill="#1a2e35"/>
            </g>
            <g id="Grupo_56897" data-name="Grupo 56897">
              <path id="Trazado_101972" data-name="Trazado 101972" d="M869.911,4920.579l-1.055-.19,21.616-37.785-3.416-10.893s-3.961-15.514-.66-19.475c0,0,7.22-8.5,9.562-8.381s4.216.586,4.684,2.342c0,0,3.982-.468,5.036.82a20.288,20.288,0,0,1,1.874,2.811s4.333-.352,5.5,3.4c0,0,4.1,2.108,4.45,5.153s-.82,17.215-2.108,20.845-6.09,11.242-7.495,22.485-6.358,18.54-10.76,34.971l-11.959,4.729Z" fill="#ffbf9d"/>
            </g>
            <g id="Grupo_56899" data-name="Grupo 56899">
              <g id="Grupo_56898" data-name="Grupo 56898">
                <path id="Trazado_101973" data-name="Trazado 101973" d="M900.436,4845.958a12.824,12.824,0,0,0-4.062,6.462,7.331,7.331,0,0,1,4.062-6.462Z" fill="#ff9a6c"/>
              </g>
            </g>
            <g id="Grupo_56901" data-name="Grupo 56901">
              <g id="Grupo_56900" data-name="Grupo 56900">
                <path id="Trazado_101974" data-name="Trazado 101974" d="M907.318,4849.822a12.552,12.552,0,0,0-4.095,5.823,6.794,6.794,0,0,1,4.095-5.823Z" fill="#ff9a6c"/>
              </g>
            </g>
            <g id="Grupo_56903" data-name="Grupo 56903">
              <g id="Grupo_56902" data-name="Grupo 56902">
                <path id="Trazado_101975" data-name="Trazado 101975" d="M912.825,4853.1c.092.114-.985,1.055-1.972,2.483s-1.513,2.753-1.651,2.707a7.628,7.628,0,0,1,3.623-5.19Z" fill="#ff9a6c"/>
              </g>
            </g>
            <g id="Grupo_56905" data-name="Grupo 56905">
              <g id="Grupo_56904" data-name="Grupo 56904">
                <path id="Trazado_101976" data-name="Trazado 101976" d="M892.527,4854.348a5.182,5.182,0,0,0-4.722.321c-.043-.042.115-.306.508-.6a3.548,3.548,0,0,1,3.63-.246C892.372,4854.061,892.564,4854.3,892.527,4854.348Z" fill="#ff9a6c"/>
              </g>
            </g>
            <g id="Grupo_56907" data-name="Grupo 56907">
              <g id="Grupo_56906" data-name="Grupo 56906">
                <path id="Trazado_101977" data-name="Trazado 101977" d="M901.146,4859.738a6.28,6.28,0,0,0-4.316-3.291c0-.059.333-.137.877-.067a4.307,4.307,0,0,1,3.272,2.494C901.191,4859.381,901.2,4859.724,901.146,4859.738Z" fill="#ff9a6c"/>
              </g>
            </g>
            <g id="Grupo_56909" data-name="Grupo 56909">
              <g id="Grupo_56908" data-name="Grupo 56908">
                <path id="Trazado_101978" data-name="Trazado 101978" d="M909.706,4861.566a7.03,7.03,0,0,0-5.65-1.53c-.021-.055.286-.253.856-.388a4.827,4.827,0,0,1,4.251,1.152C909.587,4861.2,909.753,4861.529,909.706,4861.566Z" fill="#ff9a6c"/>
              </g>
            </g>
          </g>
          <g id="Grupo_56934" data-name="Grupo 56934">
            <g id="Grupo_56911" data-name="Grupo 56911">
              <path id="Trazado_101979" data-name="Trazado 101979" d="M691.622,4902.78s-13.247,75.242-12.608,82.277,4.163,18.228,12.155,20.146a35.16,35.16,0,0,0,15.347,0l-9.594-92.417Z" fill="#d9a171"/>
            </g>
            <g id="Grupo_56912" data-name="Grupo 56912">
              <path id="Trazado_101980" data-name="Trazado 101980" d="M730.411,4863.97s-15.854,11.27-19.359,14.584c-14.657,13.863-17.724,19.536-19.43,24.226S701.8,5016.407,701.8,5016.407l2.407,19.033h0l111.279.287h0v-97.243l-16.719-68.436-10.287-2.928-2.077-8.157s-12.782-9.438-33.864-9.71c-6.486-.084-15.66,2.465-20.785,6.441h0Z" fill="#d9a171"/>
            </g>
            <g id="Grupo_56913" data-name="Grupo 56913">
              <path id="Trazado_101981" data-name="Trazado 101981" d="M786.319,4870.33s11.436-.515,12.446-.282c3.525.813,13.2,9.687,24.23,20.622,10.518,10.432,31.213,32.137,31.213,32.137s3.72-3.756,7.961,1.257l16.338-23.765s24.522,3.012,28.378,21.521c0,0-7.516,14.35-13.672,24.61,0,0-22.791,37.82-40.792,30.971-16.444-6.255-37.062-22.984-39.965-26.558l-24.209-17.275s-16.581-31.619-9.255-47.429Z" fill="#d9a171"/>
            </g>
            <g id="Grupo_56915" data-name="Grupo 56915">
              <g id="Grupo_56914" data-name="Grupo 56914">
                <path id="Trazado_101982" data-name="Trazado 101982" d="M788.478,4867.12a2.767,2.767,0,0,1-.587-.12l-1.651-.435c-1.436-.365-3.522-.866-6.125-1.358a170.5,170.5,0,0,0-20.538-2.532,140.4,140.4,0,0,0-20.685.061c-2.638.226-4.758.556-6.214.82l-1.674.331a.3.3,0,1,1-.024-.1l1.66-.422a54.4,54.4,0,0,1,6.218-.978,126.94,126.94,0,0,1,20.75-.206,151.391,151.391,0,0,1,20.575,2.681c2.6.537,4.684,1.091,6.108,1.514l1.63.525A2.774,2.774,0,0,1,788.478,4867.12Z" fill="#1a2e35"/>
              </g>
            </g>
            <g id="Grupo_56917" data-name="Grupo 56917">
              <g id="Grupo_56916" data-name="Grupo 56916">
                <path id="Trazado_101983" data-name="Trazado 101983" d="M745.134,4861.459a36.569,36.569,0,0,1-1.165-8.387,36.732,36.732,0,0,1,1.165,8.387Z" fill="#1a2e35"/>
              </g>
            </g>
            <g id="Grupo_56919" data-name="Grupo 56919">
              <g id="Grupo_56918" data-name="Grupo 56918">
                <path id="Trazado_101984" data-name="Trazado 101984" d="M749.289,4861.1a13.278,13.278,0,0,1-.584-8.421c.145.021-.074,1.908.095,4.224C748.953,4859.223,749.43,4861.062,749.289,4861.1Z" fill="#1a2e35"/>
              </g>
            </g>
            <g id="Grupo_56921" data-name="Grupo 56921" opacity="0.3">
              <g id="Grupo_56920" data-name="Grupo 56920">
                <path id="Trazado_101985" data-name="Trazado 101985" d="M730.778,4863.875c17.415,3.082,35.068.028,53.5,2.209-17.8-3.683-36.328-5.43-53.5-2.209"/>
              </g>
            </g>
            <g id="Grupo_56923" data-name="Grupo 56923" opacity="0.3">
              <g id="Grupo_56922" data-name="Grupo 56922">
                <path id="Trazado_101986" data-name="Trazado 101986" d="M700.217,5005.346c-9.8-22.941-8.636-48.873-7.308-73.783Z"/>
              </g>
            </g>
            <g id="Grupo_56925" data-name="Grupo 56925">
              <g id="Grupo_56924" data-name="Grupo 56924">
                <path id="Trazado_101987" data-name="Trazado 101987" d="M691.622,4919.184a1.321,1.321,0,0,1,.052.289c.026.219.06.5.1.853.083.784.2,1.884.348,3.284.286,2.887.694,7.007,1.2,12.084.995,10.206,2.355,24.306,3.975,39.865s3.247,29.637,4.545,39.807c.639,5.086,1.189,9.2,1.575,12.039.185,1.4.329,2.491.433,3.273.041.353.074.634.1.853a1.228,1.228,0,0,1,.017.293,1.327,1.327,0,0,1-.067-.286c-.038-.217-.087-.5-.148-.846-.125-.778-.3-1.87-.524-3.26-.444-2.833-1.047-6.939-1.73-12.021-1.387-10.162-3.064-24.233-4.689-39.8s-2.926-29.669-3.833-39.883c-.437-5.084-.792-9.209-1.041-12.1-.109-1.4-.2-2.506-.256-3.292-.022-.355-.04-.638-.054-.858A1.3,1.3,0,0,1,691.622,4919.184Z" fill="#1a2e35"/>
              </g>
            </g>
            <g id="Grupo_56927" data-name="Grupo 56927">
              <g id="Grupo_56926" data-name="Grupo 56926">
                <path id="Trazado_101988" data-name="Trazado 101988" d="M766.961,4906.874a3.886,3.886,0,0,1-.717.038l-2.055.014c-1.784-.007-4.366.019-7.553.094-6.375.143-15.179.611-24.841,1.755s-18.333,2.767-24.564,4.124c-3.116.676-5.631,1.256-7.363,1.682l-2,.468a4.035,4.035,0,0,1-.706.131,3.942,3.942,0,0,1,.681-.227l1.978-.558c1.719-.482,4.225-1.115,7.336-1.835a232.5,232.5,0,0,1,49.474-5.887c3.193-.03,5.777,0,7.561.062l2.055.078A3.943,3.943,0,0,1,766.961,4906.874Z" fill="#1a2e35"/>
              </g>
            </g>
            <g id="Grupo_56929" data-name="Grupo 56929">
              <g id="Grupo_56928" data-name="Grupo 56928">
                <path id="Trazado_101989" data-name="Trazado 101989" d="M724.229,4931.237c-.136,0,.12-10.424.571-23.269s.926-23.26,1.062-23.255-.12,10.422-.571,23.272S724.364,4931.242,724.229,4931.237Z" fill="#1a2e35"/>
              </g>
            </g>
            <g id="Grupo_56931" data-name="Grupo 56931">
              <g id="Grupo_56930" data-name="Grupo 56930">
                <path id="Trazado_101990" data-name="Trazado 101990" d="M781.1,4929.949a4.664,4.664,0,0,1-.418-.653q-.415-.717-1.115-1.918c-.995-1.708-2.391-4.107-4.106-7.053a61.194,61.194,0,0,1-5.15-10.974,35.975,35.975,0,0,1-1.536-7.016,42.28,42.28,0,0,1-.022-7.709,40.93,40.93,0,0,1,3.674-14.364,23.663,23.663,0,0,1,3.622-5.4,20.556,20.556,0,0,1,4.351-3.633,16.578,16.578,0,0,1,7.72-2.586,10.869,10.869,0,0,1,2.992.166,27.679,27.679,0,0,0-2.977.025,16.839,16.839,0,0,0-7.55,2.689,20.479,20.479,0,0,0-4.233,3.611,23.544,23.544,0,0,0-3.519,5.332,41.091,41.091,0,0,0-3.591,14.21,42.408,42.408,0,0,0,.012,7.612,35.985,35.985,0,0,0,1.488,6.927,63.031,63.031,0,0,0,5.022,10.944l3.97,7.129q.649,1.231,1.035,1.964A4.5,4.5,0,0,1,781.1,4929.949Z" fill="#1a2e35"/>
              </g>
            </g>
            <g id="Grupo_56933" data-name="Grupo 56933" opacity="0.3">
              <g id="Grupo_56932" data-name="Grupo 56932">
                <path id="Trazado_101991" data-name="Trazado 101991" d="M698.962,4915.123a132.566,132.566,0,0,0,20.911-2.758,31.878,31.878,0,0,0-1.171,9.354,21.464,21.464,0,0,0,4.649-8.556,12.948,12.948,0,0,0,5.275,8.657,28.282,28.282,0,0,0,.47-9.533q15.607-1.879,31.008-5.131a210.257,210.257,0,0,0-61.559,7.663"/>
              </g>
            </g>
          </g>
          <g id="Grupo_56935" data-name="Grupo 56935">
            <path id="Trazado_101992" data-name="Trazado 101992" d="M832.74,4966.99a2.846,2.846,0,0,1-.479-.286l-1.33-.887c-1.15-.777-2.8-1.92-4.833-3.346-4.062-2.851-9.63-6.853-15.7-11.379s-11.5-8.724-15.387-11.8c-1.946-1.539-3.512-2.8-4.584-3.677l-1.23-1.021a2.716,2.716,0,0,1-.411-.379,2.887,2.887,0,0,1,.464.312l1.278.959,4.666,3.571c3.937,3.02,9.387,7.176,15.456,11.7s11.606,8.562,15.622,11.474c1.978,1.436,3.592,2.609,4.754,3.454l1.284.951A2.706,2.706,0,0,1,832.74,4966.99Z" fill="#1a2e35"/>
          </g>
          <g id="Grupo_56936" data-name="Grupo 56936">
            <path id="Trazado_101993" data-name="Trazado 101993" d="M859.9,4942.184c-.073,0-.026-1.221-.168-3.176a33.312,33.312,0,0,0-4.5-14.476c-.991-1.691-1.721-2.668-1.662-2.712a3.3,3.3,0,0,1,.57.643,21.331,21.331,0,0,1,1.346,1.914,29.6,29.6,0,0,1,4.542,14.614,21.186,21.186,0,0,1-.024,2.34A3.354,3.354,0,0,1,859.9,4942.184Z" fill="#1a2e35"/>
          </g>
          <g id="Grupo_56937" data-name="Grupo 56937">
            <path id="Trazado_101994" data-name="Trazado 101994" d="M864.908,4940.356c-.067-.012.087-.956.2-2.489a31.108,31.108,0,0,0-1.363-11.841c-.462-1.466-.827-2.351-.764-2.378a2.079,2.079,0,0,1,.336.587,17.418,17.418,0,0,1,.71,1.7,26.037,26.037,0,0,1,1.377,11.966,17.525,17.525,0,0,1-.306,1.812A2.087,2.087,0,0,1,864.908,4940.356Z" fill="#1a2e35"/>
          </g>
          <g id="Grupo_56938" data-name="Grupo 56938">
            <path id="Trazado_101995" data-name="Trazado 101995" d="M902.871,4929.949c-.024.006.011-.156-.188-.3a.983.983,0,0,1-.328-.356c-.095-.168-.156-.377-.272-.572-.216-.4-.753-.719-1.143-1.316a8.567,8.567,0,0,1-.975-2.134,14.224,14.224,0,0,0-2.774-5.234,23.045,23.045,0,0,0-2.5-2.491,26.351,26.351,0,0,0-3.015-2.3,24.776,24.776,0,0,0-3.226-2l-3.2-1.567c-1.023-.482-1.971-.982-2.9-1.381l-2.589-1.1a11.821,11.821,0,0,1-1.126-.513c-.343-.206-.629-.428-.919-.589l-.839-.446c-.264-.14-.477-.322-.67-.444-.4-.248-.75-.385-.973-.506a1.092,1.092,0,0,1-.331-.2,1.674,1.674,0,0,1,.365.127,7.754,7.754,0,0,1,1.024.443,10.98,10.98,0,0,0,1.537.824c.312.161.612.379.939.562s.725.307,1.114.475l2.6,1.052c.933.383,1.9.878,2.939,1.355l3.212,1.545a24.332,24.332,0,0,1,3.275,2.02,25.925,25.925,0,0,1,3.055,2.344,22.75,22.75,0,0,1,2.526,2.553,14.158,14.158,0,0,1,2.759,5.389,8.674,8.674,0,0,0,.888,2.1c.337.568.86.9,1.09,1.367.118.226.164.436.241.6a.949.949,0,0,0,.273.349C902.947,4929.778,902.875,4929.964,902.871,4929.949Z" fill="#1a2e35"/>
          </g>
          <g id="Grupo_56939" data-name="Grupo 56939">
            <path id="Trazado_101996" data-name="Trazado 101996" d="M799.173,5033.843c-.117,0-.211-20.452-.211-45.675s.094-45.679.211-45.679.21,20.447.21,45.679S799.289,5033.843,799.173,5033.843Z" fill="#1a2e35"/>
          </g>
        </g>
      </g>
    </g>
  </g>
</svg>
