<svg xmlns="http://www.w3.org/2000/svg" width="373.329" height="373.329" viewBox="0 0 373.329 373.329">
  <g id="Grupo_66535" data-name="Grupo 66535" transform="translate(-178.983 -3191.5)">
    <g id="Grupo_53424" data-name="Grupo 53424" transform="translate(-130.377 -822.335)">
      <circle id="Elipse_3974" data-name="Elipse 3974" cx="184.164" cy="184.164" r="184.164" transform="translate(311.86 4016.335)" fill="#cee5f7" stroke="#aed3f2" stroke-miterlimit="10" stroke-width="5"/>
      <g id="Grupo_53423" data-name="Grupo 53423">
        <g id="freepik--background-complete--inject-11">
          <rect id="Rectángulo_5074" data-name="Rectángulo 5074" width="136.348" height="161.42" transform="translate(323.864 4045.545)" fill="#ebebeb"/>
          <rect id="Rectángulo_5075" data-name="Rectángulo 5075" width="57.577" height="71.799" transform="translate(331.296 4052.011)" fill="#fff"/>
          <rect id="Rectángulo_5076" data-name="Rectángulo 5076" width="57.577" height="71.799" transform="translate(395.204 4052.011)" fill="#fff"/>
          <rect id="Rectángulo_5077" data-name="Rectángulo 5077" width="57.577" height="71.799" transform="translate(331.296 4128.701)" fill="#fff"/>
          <rect id="Rectángulo_5078" data-name="Rectángulo 5078" width="57.577" height="71.799" transform="translate(395.204 4128.701)" fill="#fff"/>
          <rect id="Rectángulo_5079" data-name="Rectángulo 5079" width="32.298" height="230.94" transform="translate(323.864 4045.545)" fill="#dbdbdb"/>
          <path id="Trazado_99202" data-name="Trazado 99202" d="M350.037,4056.522l.245,24.969.095,24.97.166,49.939-.166,49.939-.087,24.97-.253,24.97-.253-24.97-.087-24.97-.174-49.939.174-49.939.087-24.97Z" fill="#ebebeb"/>
          <path id="Trazado_99203" data-name="Trazado 99203" d="M335.205,4062.316l.253,22.295.142,22.294.119,44.589-.119,44.6-.142,22.294-.253,22.295-.253-22.295-.142-22.294-.119-44.6.119-44.589.15-22.294Z" fill="#ebebeb"/>
          <path id="Trazado_99204" data-name="Trazado 99204" d="M342.621,4067.579l.253,26.109.087,26.1.174,52.218-.174,52.211-.087,26.109-.253,26.1-.253-26.1-.087-26.109-.174-52.211.174-52.218.087-26.1Z" fill="#ebebeb"/>
          <path id="Trazado_99205" data-name="Trazado 99205" d="M329.689,4057.836l.253,27.328.087,27.32.174,54.648-.174,54.648-.087,27.328-.253,27.32-.245-27.32-.095-27.328-.166-54.648.166-54.648.095-27.32Z" fill="#ebebeb"/>
          <rect id="Rectángulo_5080" data-name="Rectángulo 5080" width="32.298" height="230.94" transform="translate(427.914 4045.537)" fill="#dbdbdb"/>
          <path id="Trazado_99206" data-name="Trazado 99206" d="M434.039,4056.522l.253,24.969.087,24.97.174,49.939-.174,49.939-.087,24.97-.253,24.97-.245-24.97-.1-24.97-.166-49.939.166-49.939.1-24.97Z" fill="#ebebeb"/>
          <path id="Trazado_99207" data-name="Trazado 99207" d="M448.871,4062.316l.253,22.295.142,22.294.119,44.589-.119,44.6-.142,22.294-.253,22.295-.253-22.295-.142-22.294-.119-44.6.119-44.589.15-22.294Z" fill="#ebebeb"/>
          <path id="Trazado_99208" data-name="Trazado 99208" d="M441.455,4067.579l.253,26.109.087,26.1.174,52.218-.174,52.211-.087,26.109-.253,26.1-.253-26.1-.087-26.109-.166-52.211.166-52.218.095-26.1Z" fill="#ebebeb"/>
          <path id="Trazado_99209" data-name="Trazado 99209" d="M454.387,4057.836l.245,27.328.095,27.32.174,54.648-.174,54.648-.087,27.328-.253,27.32-.253-27.32-.087-27.328-.174-54.648.174-54.648.087-27.32Z" fill="#ebebeb"/>
          <path id="Trazado_99210" data-name="Trazado 99210" d="M628.8,4210.677a1.972,1.972,0,0,1,1.986,1.955v1.053a16.9,16.9,0,0,1,7.162,2.54,2.467,2.467,0,0,1,1.385,2.224,2.54,2.54,0,0,1-2.54,2.541h-.047a2.676,2.676,0,0,1-1.386-.42,16.969,16.969,0,0,0-4.748-2.034v8.88c7.028,1.757,10.035,4.575,10.035,9.5,0,5.081-3.957,8.461-9.845,9.015v2.77a1.971,1.971,0,0,1-1.947,1.994h-.04a2.011,2.011,0,0,1-2.034-1.986v-2.873a19.957,19.957,0,0,1-9.5-3.6,2.557,2.557,0,1,1,2.818-4.258,16.461,16.461,0,0,0,6.846,3.1v-9.085c-6.751-1.757-9.893-4.3-9.893-9.5,0-4.946,3.957-8.373,9.711-8.832v-.973a2.009,2.009,0,0,1,2.01-2.011Zm-1.852,15.766v-8.184c-2.96.277-4.44,1.852-4.44,3.886s.878,3.142,4.44,4.3Zm3.648,6.426v8.421c2.96-.325,4.582-1.805,4.582-4.021,0-2.041-1.02-3.292-4.582-4.4Z" fill="#ebebeb"/>
          <path id="Trazado_99211" data-name="Trazado 99211" d="M485.348,4048.751a1.97,1.97,0,0,1,1.986,1.954v1.053a16.906,16.906,0,0,1,7.163,2.54,2.487,2.487,0,0,1,1.385,2.224,2.541,2.541,0,0,1-2.54,2.541h-.048a2.669,2.669,0,0,1-1.385-.42,17.074,17.074,0,0,0-4.749-2.034v8.88c7.028,1.757,10.035,4.575,10.035,9.5,0,5.089-3.957,8.461-9.845,9.015v2.8a1.97,1.97,0,0,1-1.955,1.986h-.032a2.009,2.009,0,0,1-2.033-1.986h0v-2.873a19.936,19.936,0,0,1-9.5-3.6,2.551,2.551,0,1,1,2.794-4.258,16.461,16.461,0,0,0,6.846,3.1v-9.109c-6.751-1.757-9.893-4.3-9.893-9.5,0-4.947,3.957-8.366,9.711-8.833v-1a2.01,2.01,0,0,1,2.033-1.987Zm-1.852,15.765v-8.184c-2.96.277-4.44,1.852-4.44,3.886S479.934,4063.36,483.5,4064.516Zm3.648,6.426v8.413c2.96-.324,4.583-1.8,4.583-4.02C491.727,4073.3,490.706,4072.05,487.144,4070.942Z" fill="#ebebeb"/>
        </g>
        <g id="freepik--Plant--inject-11">
          <path id="Trazado_99212" data-name="Trazado 99212" d="M592.856,4264.78c12.663,12.393,14.784,31.57,12.117,48.364-.072.38-.665.277-.665-.087,0-3.823.118-7.606.1-11.389l-.19-.506c-3.309-2.375-6.332-5.113-8.223-8.833-2.121-4.163-2.952-8.848-4.567-13.193-.15-.411.293-.293.586-.079,7.7,5.682,10.154,11.792,12.362,19.96a67.928,67.928,0,0,0-1.338-12.718c-1.662-7.749-4.954-15.433-10.526-21.187C592.333,4264.9,592.658,4264.558,592.856,4264.78Z" fill="#344154"/>
          <path id="Trazado_99213" data-name="Trazado 99213" d="M590.481,4266.228c-2.176.071-3.545,3.553-5.239,4.566a1.637,1.637,0,0,1-2.3-.277c-.026-.033-.051-.067-.074-.1-1.678-2.375.625-5.24,2.794-6.862-1.583.641-2.834,1.757-4.512,2.081a1.583,1.583,0,0,1-1.986-1.032,1.652,1.652,0,0,1-.048-.194c-.736-3.166,3.277-4.622,6.031-4.686-1.337-.934-5.16-3.45-3.126-4.693s6.545,2.374,8.009,3.546c2.153,1.749,4.749,4.361,4.82,7.123C594.961,4268.855,592.175,4266.893,590.481,4266.228Z" fill="#d9a171"/>
          <path id="Trazado_99214" data-name="Trazado 99214" d="M590.481,4266.228c-2.176.071-3.545,3.553-5.239,4.566a1.637,1.637,0,0,1-2.3-.277c-.026-.033-.051-.067-.074-.1-1.678-2.375.625-5.24,2.794-6.862-1.583.641-2.834,1.757-4.512,2.081a1.583,1.583,0,0,1-1.986-1.032,1.652,1.652,0,0,1-.048-.194c-.736-3.166,3.277-4.622,6.031-4.686-1.337-.934-5.16-3.45-3.126-4.693s6.545,2.374,8.009,3.546c2.153,1.749,4.749,4.361,4.82,7.123C594.961,4268.855,592.175,4266.893,590.481,4266.228Z" fill="#d9a171" opacity="0.1" style="isolation: isolate"/>
          <path id="Trazado_99215" data-name="Trazado 99215" d="M591.13,4266.758c-2.785-1.266-8.136.562-8.6-.49-.918-2.153,3.356-3.617,5.667-3.9-2.129-.578-6.2-1.5-6.078-3.546.158-2.5,6.244-.348,9.331,2.01,3.886,2.984,3.862,5.857,3.221,6.435C593.79,4268.048,591.589,4266.972,591.13,4266.758Z" fill="#d9a171"/>
          <path id="Trazado_99216" data-name="Trazado 99216" d="M621.7,4263.553c-13.122,11.871-15.971,30.984-13.945,47.866.056.38.649.3.665-.056.143-3.822.174-7.613.325-11.388.079-.167.142-.325.213-.5,3.4-2.271,6.538-4.867,8.556-8.516,2.271-4.076,3.284-8.706,5.065-13,.166-.412-.285-.309-.586-.1-7.914,5.382-10.589,11.4-13.114,19.469a67.986,67.986,0,0,1,1.828-12.663c1.955-7.684,5.54-15.235,11.318-20.767A.235.235,0,0,0,621.7,4263.553Z" fill="#344154"/>
          <path id="Trazado_99217" data-name="Trazado 99217" d="M624.03,4265.088c2.169.159,3.4,3.688,5.057,4.749a1.639,1.639,0,0,0,2.313-.146,1.723,1.723,0,0,0,.109-.139c1.765-2.279-.427-5.263-2.532-6.965,1.527.7,2.77,1.868,4.424,2.248a1.583,1.583,0,0,0,2.031-.941,1.5,1.5,0,0,0,.058-.2c.855-3.165-3.1-4.748-5.849-4.922,1.37-.871,5.287-3.253,3.3-4.567s-6.632,2.113-8.144,3.245c-2.216,1.662-4.883,4.171-5.081,6.9C619.472,4267.55,622.329,4265.69,624.03,4265.088Z" fill="#d9a171"/>
          <path id="Trazado_99218" data-name="Trazado 99218" d="M624.03,4265.088c2.169.159,3.4,3.688,5.057,4.749a1.639,1.639,0,0,0,2.313-.146,1.723,1.723,0,0,0,.109-.139c1.765-2.279-.427-5.263-2.532-6.965,1.527.7,2.77,1.868,4.424,2.248a1.583,1.583,0,0,0,2.031-.941,1.5,1.5,0,0,0,.058-.2c.855-3.165-3.1-4.748-5.849-4.922,1.37-.871,5.287-3.253,3.3-4.567s-6.632,2.113-8.144,3.245c-2.216,1.662-4.883,4.171-5.081,6.9C619.472,4267.55,622.329,4265.69,624.03,4265.088Z" fill="#d9a171" opacity="0.1" style="isolation: isolate"/>
          <path id="Trazado_99219" data-name="Trazado 99219" d="M623.381,4265.6c2.826-1.164,8.1.862,8.6-.174,1.005-2.106-3.205-3.744-5.5-4.116,2.144-.491,6.244-1.25,6.2-3.308-.056-2.509-6.229-.586-9.395,1.662-4,2.825-4.083,5.7-3.458,6.331C620.667,4266.79,622.93,4265.824,623.381,4265.6Z" fill="#d9a171"/>
          <path id="Trazado_99220" data-name="Trazado 99220" d="M608.289,4294.989a128.32,128.32,0,0,1-4.076,18.82.468.468,0,0,1-.918-.182h0c.862-5.8,2.437-11.492,3.3-17.293a87.751,87.751,0,0,0,1.005-17.752c-.554-9.774-3.2-20.173-9.584-27.819-.143-.182.158-.435.3-.269,12.765,14.887,10.739,33.138,10.723,34.776,1.813-6.165,3.673-13.225,10.511-19.5.293-.277.522-.143.475.316-1.219,11.429-4.4,17.412-11.025,23.506C608.811,4291.4,608.574,4293.208,608.289,4294.989Z" fill="#344154"/>
          <path id="Trazado_99221" data-name="Trazado 99221" d="M597.9,4252.473c-2.295-1.021-5.461,1.907-7.732,2.1a1.879,1.879,0,0,1-2.3-1.583c-.562-3.284,3.284-5.128,6.331-5.714-1.931-.119-3.83.4-5.73-.119a1.8,1.8,0,0,1-1.55-2.027,1.9,1.9,0,0,1,.054-.26c.847-3.7,5.723-3.166,8.619-1.836-.918-1.63-3.617-6.181-.886-6.442s5.6,5.746,6.529,7.716c1.353,2.9,2.707,6.9,1.433,9.782C601.205,4257.451,599.306,4254.016,597.9,4252.473Z" fill="#d9a171"/>
          <path id="Trazado_99222" data-name="Trazado 99222" d="M597.9,4252.473c-2.295-1.021-5.461,1.907-7.732,2.1a1.879,1.879,0,0,1-2.3-1.583c-.562-3.284,3.284-5.128,6.331-5.714-1.931-.119-3.83.4-5.73-.119a1.8,1.8,0,0,1-1.55-2.027,1.9,1.9,0,0,1,.054-.26c.847-3.7,5.723-3.166,8.619-1.836-.918-1.63-3.617-6.181-.886-6.442s5.6,5.746,6.529,7.716c1.353,2.9,2.707,6.9,1.433,9.782C601.205,4257.451,599.306,4254.016,597.9,4252.473Z" fill="#d9a171" opacity="0.1" style="isolation: isolate"/>
          <path id="Trazado_99223" data-name="Trazado 99223" d="M598.285,4253.351c-2.256-2.714-8.706-3.522-8.658-4.843.118-2.691,5.294-2.066,7.835-1.195-1.915-1.67-5.683-4.67-4.519-6.735,1.416-2.517,6.656,2.778,8.666,6.79,2.533,5.042,1.06,8.009.1,8.286C600.4,4256.026,598.657,4253.795,598.285,4253.351Z" fill="#d9a171"/>
          <path id="Trazado_99224" data-name="Trazado 99224" d="M616.686,4298.431l5.635,43.022H588.052c.7-3.814,7.083-43.077,7.083-43.077Z" fill="#d9a171"/>
        </g>
        <g id="freepik--Desk--inject-11">
          <path id="Trazado_99225" data-name="Trazado 99225" d="M310.085,4341.39l42.2-.19,42.2-.071L478.89,4341l84.4.126,42.207.071,42.2.19-42.2.2-42.207.071-84.4.127-84.406-.127-42.2-.071Z" fill="#344154"/>
        </g>
        <g id="freepik--Invoice--inject-11">
          <rect id="Rectángulo_5081" data-name="Rectángulo 5081" width="124.555" height="159.434" transform="translate(517.622 4045.545)" fill="#ebebeb"/>
          <rect id="Rectángulo_5082" data-name="Rectángulo 5082" width="124.555" height="9.299" transform="translate(517.622 4054.473)" fill="#344154"/>
          <path id="Trazado_99226" data-name="Trazado 99226" d="M517.622,4063.772h67.984l-5.706,10H517.622Z" fill="#344154"/>
          <path id="Trazado_99227" data-name="Trazado 99227" d="M517.622,4052.629h67.984l-2.8,3.68H517.622Z" fill="#d9a171"/>
          <path id="Trazado_99228" data-name="Trazado 99228" d="M517.622,4058.066h36.327l-2.8,3.688H517.622Z" fill="#d9a171"/>
          <rect id="Rectángulo_5083" data-name="Rectángulo 5083" width="101.762" height="7.827" transform="translate(529.019 4110.68)" fill="#fff"/>
          <rect id="Rectángulo_5084" data-name="Rectángulo 5084" width="101.762" height="7.827" transform="translate(529.019 4102.853)" fill="#d9a171"/>
          <rect id="Rectángulo_5085" data-name="Rectángulo 5085" width="101.762" height="7.827" transform="translate(529.019 4118.5)" fill="#dbdbdb"/>
          <rect id="Rectángulo_5086" data-name="Rectángulo 5086" width="101.762" height="7.827" transform="translate(529.019 4126.327)" fill="#fff"/>
          <rect id="Rectángulo_5087" data-name="Rectángulo 5087" width="101.762" height="7.827" transform="translate(529.019 4134.154)" fill="#dbdbdb"/>
          <rect id="Rectángulo_5088" data-name="Rectángulo 5088" width="101.762" height="7.827" transform="translate(529.019 4141.973)" fill="#fff"/>
          <rect id="Rectángulo_5089" data-name="Rectángulo 5089" width="101.762" height="7.827" transform="translate(529.019 4149.8)" fill="#dbdbdb"/>
          <rect id="Rectángulo_5090" data-name="Rectángulo 5090" width="71.253" height="7.827" transform="translate(559.529 4157.628)" fill="#d9a171"/>
          <rect id="Rectángulo_5091" data-name="Rectángulo 5091" width="30.51" height="54.775" transform="translate(529.019 4102.853)" fill="#c7c7c7"/>
          <path id="Trazado_99229" data-name="Trazado 99229" d="M529.019,4118.5l50.881-.1,50.881.1-50.881.1Z" fill="#344154"/>
          <path id="Trazado_99230" data-name="Trazado 99230" d="M529.019,4126.327l50.881-.1,50.881.1-50.881.1Z" fill="#344154"/>
          <path id="Trazado_99231" data-name="Trazado 99231" d="M529.019,4134.154l50.881-.1,50.881.1-50.881.1Z" fill="#344154"/>
          <path id="Trazado_99232" data-name="Trazado 99232" d="M529.019,4141.973l50.881-.095,50.881.095-50.881.1Z" fill="#344154"/>
          <path id="Trazado_99233" data-name="Trazado 99233" d="M529.019,4149.8l50.881-.095,50.881.095-50.881.1Z" fill="#344154"/>
          <path id="Trazado_99234" data-name="Trazado 99234" d="M529.019,4157.628l50.881-.1,50.881.1-50.881.095Z" fill="#344154"/>
          <path id="Trazado_99235" data-name="Trazado 99235" d="M534.472,4106.747c3.245-.159,6.5-.174,9.742-.2s6.5,0,9.751.2c-3.253.166-6.5.174-9.751.2S537.717,4106.929,534.472,4106.747Z" fill="#344154"/>
          <path id="Trazado_99236" data-name="Trazado 99236" d="M534.472,4114.59c2.453-.167,4.915-.174,7.368-.2s4.915,0,7.376.2c-2.461.166-4.915.174-7.376.2S536.925,4114.756,534.472,4114.59Z" fill="#344154"/>
          <path id="Trazado_99237" data-name="Trazado 99237" d="M534.472,4122.417c3.245-.166,6.5-.174,9.742-.2s6.5,0,9.751.2c-3.253.166-6.5.174-9.751.2S537.717,4122.575,534.472,4122.417Z" fill="#344154"/>
          <path id="Trazado_99238" data-name="Trazado 99238" d="M534.472,4130.236c2.667-.158,5.342-.174,8.017-.2s5.35,0,8.025.2c-2.675.166-5.35.174-8.025.2S537.139,4130.4,534.472,4130.236Z" fill="#344154"/>
          <path id="Trazado_99239" data-name="Trazado 99239" d="M534.472,4138.064c3.245-.167,6.5-.175,9.742-.2s6.5,0,9.751.2c-3.253.166-6.5.174-9.751.2S537.717,4138.23,534.472,4138.064Z" fill="#344154"/>
          <path id="Trazado_99240" data-name="Trazado 99240" d="M534.472,4145.891c3.245-.166,6.5-.174,9.742-.2s6.5,0,9.751.2c-3.253.166-6.5.174-9.751.2S537.717,4146.049,534.472,4145.891Z" fill="#344154"/>
          <path id="Trazado_99241" data-name="Trazado 99241" d="M534.472,4153.71c1.97-.15,3.957-.19,5.912-.2s3.957.048,5.92.2c-1.971.158-3.957.19-5.92.2S536.442,4153.868,534.472,4153.71Z" fill="#344154"/>
          <path id="Trazado_99242" data-name="Trazado 99242" d="M566.659,4106.747c2.438-.159,4.883-.174,7.321-.2s4.891,0,7.329.2c-2.438.166-4.883.174-7.329.2S569.113,4106.929,566.659,4106.747Z" fill="#344154"/>
          <path id="Trazado_99243" data-name="Trazado 99243" d="M566.659,4114.59c2.438-.167,4.883-.174,7.321-.2s4.891,0,7.329.2c-2.438.166-4.883.174-7.329.2S569.113,4114.756,566.659,4114.59Z" fill="#344154"/>
          <path id="Trazado_99244" data-name="Trazado 99244" d="M566.659,4122.417c2.438-.166,4.883-.174,7.321-.2s4.891,0,7.329.2c-2.438.166-4.883.174-7.329.2S569.113,4122.575,566.659,4122.417Z" fill="#344154"/>
          <path id="Trazado_99245" data-name="Trazado 99245" d="M566.659,4130.236c2.438-.158,4.883-.174,7.321-.2s4.891,0,7.329.2c-2.438.166-4.883.174-7.329.2S569.113,4130.4,566.659,4130.236Z" fill="#344154"/>
          <path id="Trazado_99246" data-name="Trazado 99246" d="M566.659,4138.064c2.438-.167,4.883-.175,7.321-.2s4.891,0,7.329.2c-2.438.166-4.883.174-7.329.2S569.113,4138.23,566.659,4138.064Z" fill="#344154"/>
          <path id="Trazado_99247" data-name="Trazado 99247" d="M566.659,4145.891c2.438-.166,4.883-.174,7.321-.2s4.891,0,7.329.2c-2.438.166-4.883.174-7.329.2S569.113,4146.049,566.659,4145.891Z" fill="#344154"/>
          <path id="Trazado_99248" data-name="Trazado 99248" d="M566.659,4153.71c2.438-.158,4.883-.174,7.321-.2s4.891,0,7.329.2c-2.438.166-4.883.174-7.329.2S569.113,4153.876,566.659,4153.71Z" fill="#344154"/>
          <path id="Trazado_99249" data-name="Trazado 99249" d="M587.83,4106.747c2.446-.159,4.883-.174,7.329-.2s4.883,0,7.321.2c-2.438.166-4.884.174-7.321.2S590.276,4106.929,587.83,4106.747Z" fill="#344154"/>
          <path id="Trazado_99250" data-name="Trazado 99250" d="M592.856,4153.71a13.9,13.9,0,0,1,4.677,0A13.9,13.9,0,0,1,592.856,4153.71Z" fill="#344154"/>
          <path id="Trazado_99251" data-name="Trazado 99251" d="M592.856,4145.891a13.9,13.9,0,0,1,4.677,0A13.9,13.9,0,0,1,592.856,4145.891Z" fill="#344154"/>
          <path id="Trazado_99252" data-name="Trazado 99252" d="M592.856,4138.064a12.891,12.891,0,0,1,2.374-.2,12.155,12.155,0,0,1,2.335.2,13.957,13.957,0,0,1-4.678,0Z" fill="#344154"/>
          <path id="Trazado_99253" data-name="Trazado 99253" d="M592.856,4130.236a13.926,13.926,0,0,1,4.677,0A13.926,13.926,0,0,1,592.856,4130.236Z" fill="#344154"/>
          <path id="Trazado_99254" data-name="Trazado 99254" d="M592.856,4122.417a13.9,13.9,0,0,1,4.677,0A13.9,13.9,0,0,1,592.856,4122.417Z" fill="#344154"/>
          <path id="Trazado_99255" data-name="Trazado 99255" d="M592.856,4114.59a12.933,12.933,0,0,1,2.374-.2,12.194,12.194,0,0,1,2.335.2,12.353,12.353,0,0,1-2.335.2A13.107,13.107,0,0,1,592.856,4114.59Z" fill="#344154"/>
          <path id="Trazado_99256" data-name="Trazado 99256" d="M594.209,4161.537a39.844,39.844,0,0,1,4.131-.2,37.939,37.939,0,0,1,4.14.2A43.34,43.34,0,0,1,594.209,4161.537Z" fill="#344154"/>
          <path id="Trazado_99257" data-name="Trazado 99257" d="M609,4106.747c2.445-.159,4.883-.174,7.329-.2s4.883,0,7.32.2c-2.437.166-4.883.174-7.32.2S611.446,4106.929,609,4106.747Z" fill="#344154"/>
          <path id="Trazado_99258" data-name="Trazado 99258" d="M609,4114.59c2.445-.167,4.883-.174,7.329-.2s4.883,0,7.32.2c-2.437.166-4.883.174-7.32.2S611.446,4114.756,609,4114.59Z" fill="#344154"/>
          <path id="Trazado_99259" data-name="Trazado 99259" d="M609,4122.417c2.445-.166,4.883-.174,7.329-.2s4.883,0,7.32.2c-2.437.166-4.883.174-7.32.2S611.446,4122.575,609,4122.417Z" fill="#344154"/>
          <path id="Trazado_99260" data-name="Trazado 99260" d="M609,4130.236c2.445-.158,4.883-.174,7.329-.2s4.883,0,7.32.2c-2.437.166-4.883.174-7.32.2S611.446,4130.4,609,4130.236Z" fill="#344154"/>
          <path id="Trazado_99261" data-name="Trazado 99261" d="M609,4138.064c2.445-.167,4.883-.175,7.329-.2s4.883,0,7.32.2c-2.437.166-4.883.174-7.32.2S611.446,4138.23,609,4138.064Z" fill="#344154"/>
          <path id="Trazado_99262" data-name="Trazado 99262" d="M609,4145.891c2.445-.166,4.883-.174,7.329-.2s4.883,0,7.32.2c-2.437.166-4.883.174-7.32.2S611.446,4146.049,609,4145.891Z" fill="#344154"/>
          <path id="Trazado_99263" data-name="Trazado 99263" d="M609,4153.71c2.445-.158,4.883-.174,7.329-.2s4.883,0,7.32.2c-2.437.166-4.883.174-7.32.2S611.446,4153.876,609,4153.71Z" fill="#344154"/>
          <path id="Trazado_99264" data-name="Trazado 99264" d="M609,4161.537c2.445-.166,4.883-.174,7.329-.2s4.883,0,7.32.2c-2.437.167-4.883.175-7.32.2S611.446,4161.7,609,4161.537Z" fill="#344154"/>
          <path id="Trazado_99265" data-name="Trazado 99265" d="M529.019,4069.549c3.015-.158,6.038-.237,9.062-.3s6.038-.064,9.054-.095,6.038,0,9.062.095l4.527.11c1.511.064,3.023.1,4.535.19-1.512.095-3.024.127-4.535.2l-4.527.111c-3.024.063-6.039.055-9.062.087s-6.039,0-9.054-.087S532.034,4069.723,529.019,4069.549Z" fill="#fff"/>
          <path id="Trazado_99266" data-name="Trazado 99266" d="M529.019,4065.7c3.427-.166,6.854-.245,10.288-.309s6.854-.055,10.289-.087,6.854,0,10.289.087l5.144.111c1.717.063,3.435.1,5.144.2-1.709.087-3.427.127-5.144.19l-5.144.111c-3.427.063-6.854.063-10.289.087s-6.862,0-10.289-.087S532.446,4065.861,529.019,4065.7Z" fill="#fff"/>
          <path id="Trazado_99267" data-name="Trazado 99267" d="M529.019,4089.05c2.809-.126,5.611-.182,8.421-.229s5.619,0,8.428-.064,5.612,0,8.421.064,5.612.1,8.421.229c-2.809.127-5.611.182-8.421.23s-5.619,0-8.421.063-5.619,0-8.428-.063S531.828,4089.169,529.019,4089.05Z" fill="#344154"/>
          <path id="Trazado_99268" data-name="Trazado 99268" d="M529.019,4092.382c1.757-.119,3.522-.182,5.279-.229s3.522,0,5.286-.064,3.522,0,5.279.064,3.522.11,5.287.229c-1.765.127-3.522.182-5.287.23s-3.522.047-5.279.071-3.521,0-5.286-.071S530.776,4092.5,529.019,4092.382Z" fill="#344154"/>
          <path id="Trazado_99269" data-name="Trazado 99269" d="M529.019,4095.714c2.453-.119,4.9-.174,7.352-.222s4.9-.047,7.353-.071,4.907,0,7.352.071,4.907.1,7.352.222c-2.445.127-4.9.182-7.352.23s-4.9.047-7.352.071-4.9,0-7.353-.071S531.472,4095.841,529.019,4095.714Z" fill="#344154"/>
          <path id="Trazado_99270" data-name="Trazado 99270" d="M529.019,4171.494c1.8-.127,3.6-.182,5.405-.23s3.609-.047,5.406-.071,3.609,0,5.413.071,3.6.1,5.406.23c-1.8.118-3.609.182-5.406.229s-3.609.04-5.413.063-3.6,0-5.406-.071S530.823,4171.644,529.019,4171.494Z" fill="#344154"/>
          <path id="Trazado_99271" data-name="Trazado 99271" d="M529.019,4174.81c2.081-.127,4.171-.182,6.252-.23s4.163,0,6.252-.071,4.163,0,6.253.071,4.163.1,6.252.23c-2.089.126-4.171.182-6.252.229s-4.171.04-6.253.064-4.17,0-6.252-.064S531.124,4174.944,529.019,4174.81Z" fill="#344154"/>
          <path id="Trazado_99272" data-name="Trazado 99272" d="M529.019,4188.114c3.276-.119,6.553-.174,9.829-.222l9.822-.071,9.83.063c3.276.048,6.553.111,9.829.23-3.276.126-6.553.182-9.829.229l-9.83.071-9.822-.071C535.572,4188.264,532.295,4188.264,529.019,4188.114Z" fill="#344154"/>
          <path id="Trazado_99273" data-name="Trazado 99273" d="M529.019,4178.157c1.274-.118,2.54-.182,3.815-.229s2.54-.055,3.814-.063,2.541,0,3.815.063,2.54.111,3.815.229c-1.275.127-2.549.182-3.815.23s-2.548.063-3.815.071-2.548,0-3.814-.071S530.333,4178.284,529.019,4178.157Z" fill="#344154"/>
          <path id="Trazado_99274" data-name="Trazado 99274" d="M592.856,4181.45c3.165-.127,6.331-.182,9.5-.23l9.5-.071,9.5.071c3.166.048,6.332.1,9.5.23-3.165.119-6.331.182-9.5.229l-9.5.064-9.5-.064C599.187,4181.632,596.021,4181.569,592.856,4181.45Z" fill="#344154"/>
          <path id="Trazado_99275" data-name="Trazado 99275" d="M592.856,4178.157c2.572-.118,5.136-.182,7.708-.229s5.137-.04,7.709-.063,5.144,0,7.708.063,5.145.111,7.709.229c-2.564.127-5.137.182-7.709.23s-5.136.047-7.708.071-5.137,0-7.709-.071S595.388,4178.284,592.856,4178.157Z" fill="#344154"/>
          <path id="Trazado_99276" data-name="Trazado 99276" d="M592.856,4184.782c2.414-.119,4.827-.182,7.249-.23s4.828-.039,7.242-.063,4.835,0,7.249.063,4.828.1,7.242.23c-2.414.126-4.828.182-7.242.229s-4.835.048-7.249.071-4.828,0-7.242-.071S595.23,4184.908,592.856,4184.782Z" fill="#344154"/>
          <path id="Trazado_99277" data-name="Trazado 99277" d="M592.856,4188.114c1.733-.119,3.466-.174,5.191-.222s3.467-.047,5.2-.071,3.459,0,5.192.063,3.459.111,5.192.23c-1.733.126-3.459.182-5.192.229s-3.466.048-5.192.071-3.466,0-5.2-.071S594.549,4188.264,592.856,4188.114Z" fill="#344154"/>
          <path id="Trazado_99278" data-name="Trazado 99278" d="M530.056,4185.383c.941-.649,1.915-1.266,2.912-1.836a13.937,13.937,0,0,1,3.166-1.417,2.923,2.923,0,0,1,.435-.079.459.459,0,0,1,.483.159,1.666,1.666,0,0,1,.2.886,10.6,10.6,0,0,1-.182,1.733c-.2,1.132-.483,2.248-.792,3.356a51.556,51.556,0,0,1-2.279,6.5,11.155,11.155,0,0,1-.792,1.582,2.981,2.981,0,0,1-.308.357.472.472,0,0,1-.3.134.286.286,0,0,1-.206-.079l-.1-.1a1.688,1.688,0,0,1-.245-.918,11.59,11.59,0,0,1,.6-3.427,19.6,19.6,0,0,1,1.3-3.205,9.5,9.5,0,0,1,2.018-2.81,3.161,3.161,0,0,1,1.583-.791,1.813,1.813,0,0,1,.894.079,1.375,1.375,0,0,1,.633.641,3.767,3.767,0,0,0,.475.689.721.721,0,0,0,.7.237,4.549,4.549,0,0,0,1.441-.847c.229-.174.459-.348.7-.514a2.2,2.2,0,0,1,.372-.23c.127-.055.309-.158.475,0,.23.277.166.578.285.831a.506.506,0,0,0,.586.38,5.139,5.139,0,0,0,1.258-1.1c.388-.419.791-.855,1.14-1.282.751-.871,1.487-1.749,2.255-2.6.38-.427.792-.847,1.187-1.25.214-.2.428-.388.665-.57a1.909,1.909,0,0,1,.388-.23.618.618,0,0,1,.253-.055.345.345,0,0,1,.261.142,1.58,1.58,0,0,1,.119.91,8.111,8.111,0,0,1-.134.863c-.127.57-.285,1.124-.46,1.67a17.079,17.079,0,0,1-1.377,3.166,3.262,3.262,0,0,1-.538.72.623.623,0,0,1-.506.2,1.526,1.526,0,0,1-.459-.127,2.143,2.143,0,0,1-1.2-1.409.789.789,0,0,1,.063-.538.568.568,0,0,1,.222-.213.544.544,0,0,1,.3-.064,3.336,3.336,0,0,1,.887.206c.554.2,1.076.427,1.583.657s1.044.467,1.582.673a6.871,6.871,0,0,0,.792.285,2.817,2.817,0,0,0,.388.087.553.553,0,0,0,.308-.072c.436-.213.721-.744,1.156-1.171a1.367,1.367,0,0,1,.87-.451.468.468,0,0,1,.357.119.457.457,0,0,1,.118.348,2.318,2.318,0,0,1-.087.467c-.079.261-.111.586-.039.593s.419,0,.657,0a4.389,4.389,0,0,0,1.448-.791,8.415,8.415,0,0,1,.728-.491,1.457,1.457,0,0,1,.958-.229,3.581,3.581,0,0,1,1.472,1.068,3.671,3.671,0,0,0,.609.531c.1.063.2.087.222.063a2.712,2.712,0,0,0,.324-.206,15.139,15.139,0,0,0,1.3-1.084,15.467,15.467,0,0,0,2.216-2.557,2.875,2.875,0,0,0,.554-1.479c0-.515-.53-.792-1.076-.839a9.44,9.44,0,0,0-3.364.047,8.22,8.22,0,0,0-1.622.467,3.289,3.289,0,0,0-.72.388c-.214.158-.4.38-.341.585a1.069,1.069,0,0,0,.546.5,8.236,8.236,0,0,0,.792.317,16.276,16.276,0,0,0,1.638.475,37.637,37.637,0,0,0,6.814.656h0a36.247,36.247,0,0,1-6.861-.506,15.188,15.188,0,0,1-1.662-.459,7.118,7.118,0,0,1-.792-.317,1.241,1.241,0,0,1-.681-.641.848.848,0,0,1,.42-.847,3.586,3.586,0,0,1,.791-.435,8.257,8.257,0,0,1,1.67-.5,9.645,9.645,0,0,1,3.475-.1,2.55,2.55,0,0,1,.878.292,1.077,1.077,0,0,1,.5.847,3.247,3.247,0,0,1-.594,1.71,13.858,13.858,0,0,1-2.263,2.635,14.4,14.4,0,0,1-1.33,1.132,2.766,2.766,0,0,1-.4.245.671.671,0,0,1-.593-.087,4.644,4.644,0,0,1-.689-.585,3.373,3.373,0,0,0-1.258-.958c-.419-.063-.91.332-1.361.657a4.771,4.771,0,0,1-1.583.791,1.281,1.281,0,0,1-1.021-.039.642.642,0,0,1-.2-.578,2.567,2.567,0,0,1,.095-.451,2.054,2.054,0,0,0,.071-.372v-.056c0,.016,0,0-.055,0a1.019,1.019,0,0,0-.61.325c-.387.364-.656.918-1.258,1.242a.963.963,0,0,1-.522.1,2.358,2.358,0,0,1-.451-.1,8.445,8.445,0,0,1-.831-.3c-.531-.222-1.053-.459-1.583-.689s-1.045-.459-1.583-.657a3.022,3.022,0,0,0-.792-.19c-.182,0-.284.151-.237.4a1.817,1.817,0,0,0,.95,1.171,1.17,1.17,0,0,0,.364.1.278.278,0,0,0,.253-.118,3.172,3.172,0,0,0,.5-.642,16.727,16.727,0,0,0,1.377-3.1,15.04,15.04,0,0,0,.475-1.638,6.247,6.247,0,0,0,.142-.792,1.346,1.346,0,0,0-.063-.791c-.079-.15-.4,0-.61.19a5.912,5.912,0,0,0-.641.546c-.411.388-.791.791-1.2,1.227-.791.847-1.511,1.717-2.271,2.58-.38.427-.792.854-1.156,1.274a5.26,5.26,0,0,1-1.329,1.124.65.65,0,0,1-.736-.451c-.111-.269-.1-.61-.254-.792s-.205,0-.324.048a3.325,3.325,0,0,0-.356.221c-.23.167-.451.349-.681.523a4.675,4.675,0,0,1-1.5.894.887.887,0,0,1-.862-.277,4.334,4.334,0,0,1-.507-.712c-.158-.23-.308-.483-.538-.562a1.7,1.7,0,0,0-.791-.056,3.047,3.047,0,0,0-1.465.721,9.566,9.566,0,0,0-1.939,2.762,20.2,20.2,0,0,0-1.242,3.165,11.515,11.515,0,0,0-.554,3.324,1.489,1.489,0,0,0,.182.721l.047.047h0a.209.209,0,0,0,.08-.055,1.648,1.648,0,0,0,.245-.293,11.445,11.445,0,0,0,.791-1.488,49.454,49.454,0,0,0,2.335-6.434,31.842,31.842,0,0,0,.791-3.324,9.3,9.3,0,0,0,.19-1.678,1.4,1.4,0,0,0-.15-.792c-.071-.087-.135-.11-.285-.079a2.494,2.494,0,0,0-.411.071,14.719,14.719,0,0,0-3.166,1.338c-1.005.538-1.987,1.124-2.944,1.749Z" fill="#344154"/>
          <g id="Grupo_53422" data-name="Grupo 53422">
            <path id="Trazado_99279" data-name="Trazado 99279" d="M594.456,4072.383h-4.723v4.97h-1.484V4066.1h6.972v1.214h-5.488v3.857h4.723Z" fill="#344154"/>
            <path id="Trazado_99280" data-name="Trazado 99280" d="M601.674,4077.353a3.038,3.038,0,0,1-.2-.881,3.189,3.189,0,0,1-2.38,1.035,2.953,2.953,0,0,1-2.029-.7,2.265,2.265,0,0,1-.792-1.774,2.365,2.365,0,0,1,.993-2.029,4.68,4.68,0,0,1,2.794-.722h1.391v-.657a1.608,1.608,0,0,0-.448-1.2,1.8,1.8,0,0,0-1.322-.444,2.088,2.088,0,0,0-1.283.386,1.141,1.141,0,0,0-.518.936h-1.437a1.974,1.974,0,0,1,.444-1.21,3.021,3.021,0,0,1,1.206-.923,4.048,4.048,0,0,1,1.673-.341,3.3,3.3,0,0,1,2.265.723,2.608,2.608,0,0,1,.85,1.99v3.849a4.7,4.7,0,0,0,.294,1.832v.124Zm-2.372-1.09a2.513,2.513,0,0,0,1.275-.348,2.1,2.1,0,0,0,.873-.9v-1.716h-1.121q-2.626,0-2.627,1.538a1.3,1.3,0,0,0,.448,1.051A1.727,1.727,0,0,0,599.3,4076.263Z" fill="#344154"/>
            <path id="Trazado_99281" data-name="Trazado 99281" d="M608.476,4076.34a2.056,2.056,0,0,0,1.337-.464,1.634,1.634,0,0,0,.634-1.159H611.8a2.6,2.6,0,0,1-.495,1.368,3.256,3.256,0,0,1-1.217,1.036,3.508,3.508,0,0,1-1.611.386,3.445,3.445,0,0,1-2.717-1.14,4.541,4.541,0,0,1-1.009-3.118v-.24a5.036,5.036,0,0,1,.449-2.172,3.408,3.408,0,0,1,1.286-1.476,3.659,3.659,0,0,1,1.983-.526,3.353,3.353,0,0,1,2.338.843,3.009,3.009,0,0,1,.993,2.187h-1.352a1.976,1.976,0,0,0-.615-1.333,1.91,1.91,0,0,0-1.364-.522,2,2,0,0,0-1.689.785,3.686,3.686,0,0,0-.6,2.268v.271a3.611,3.611,0,0,0,.6,2.226A2.013,2.013,0,0,0,608.476,4076.34Z" fill="#344154"/>
            <path id="Trazado_99282" data-name="Trazado 99282" d="M615.347,4066.965v2.025h1.561v1.1h-1.561v5.193a1.159,1.159,0,0,0,.208.754.877.877,0,0,0,.711.252,3.444,3.444,0,0,0,.68-.093v1.152a4.144,4.144,0,0,1-1.1.154,1.78,1.78,0,0,1-1.445-.579,2.491,2.491,0,0,1-.487-1.647v-5.186h-1.523v-1.1h1.523v-2.025Z" fill="#344154"/>
            <path id="Trazado_99283" data-name="Trazado 99283" d="M623.74,4076.526a3.037,3.037,0,0,1-2.45.981,2.6,2.6,0,0,1-2.037-.777,3.361,3.361,0,0,1-.707-2.3v-5.441h1.43v5.4q0,1.9,1.546,1.9a2.139,2.139,0,0,0,2.179-1.221v-6.083h1.43v8.363h-1.36Z" fill="#344154"/>
            <path id="Trazado_99284" data-name="Trazado 99284" d="M631.345,4070.273a4.3,4.3,0,0,0-.7-.054,1.884,1.884,0,0,0-1.909,1.2v5.936H627.3v-8.363h1.391l.023.966a2.228,2.228,0,0,1,1.994-1.121,1.444,1.444,0,0,1,.634.109Z" fill="#344154"/>
            <path id="Trazado_99285" data-name="Trazado 99285" d="M637.513,4077.353a2.971,2.971,0,0,1-.2-.881,3.191,3.191,0,0,1-2.381,1.035,2.952,2.952,0,0,1-2.028-.7,2.263,2.263,0,0,1-.793-1.774A2.363,2.363,0,0,1,633.1,4073a4.68,4.68,0,0,1,2.794-.722h1.391v-.657a1.609,1.609,0,0,0-.449-1.2,1.8,1.8,0,0,0-1.321-.444,2.088,2.088,0,0,0-1.283.386,1.141,1.141,0,0,0-.518.936H632.28a1.969,1.969,0,0,1,.445-1.21,3.021,3.021,0,0,1,1.206-.923,4.048,4.048,0,0,1,1.673-.341,3.3,3.3,0,0,1,2.264.723,2.609,2.609,0,0,1,.851,1.99v3.849a4.7,4.7,0,0,0,.293,1.832v.124Zm-2.373-1.09a2.512,2.512,0,0,0,1.275-.348,2.108,2.108,0,0,0,.874-.9v-1.716h-1.121q-2.628,0-2.628,1.538a1.3,1.3,0,0,0,.448,1.051A1.727,1.727,0,0,0,635.14,4076.263Z" fill="#344154"/>
          </g>
        </g>
        <g id="freepik--Character--inject-11">
          <path id="Trazado_99286" data-name="Trazado 99286" d="M389.276,4279.943a79.918,79.918,0,0,0,14.309,9.537c-7.052-12.869-3.277-40.3-2.636-36.287,3.047,19.176,14.523,40.862,19.517,42.3a.26.26,0,0,1,.087,0c13.51,2.715,26.212.507,37.047-3.728a.113.113,0,0,0,0-.063c-9.275-14.673-6.268-42.626-5.714-40.861,6.031,18.938,21.044,30.944,23.838,31.15h0c11.08-7.8,17.3-16,15.916-16.992-10.06-7.289-17.6-24.534-24.179-42.626h0c-6.505-17.847-8.943-43.838-18.9-60.109-9.117-14.9-29.655-19.311-42.088-13.13C373.859,4165.313,383.126,4274.831,389.276,4279.943Z" fill="#344154"/>
          <path id="Trazado_99287" data-name="Trazado 99287" d="M408.682,4148.17a20.837,20.837,0,0,0-7.3,4.385,44.214,44.214,0,0,0-5.627,6.086,70.812,70.812,0,0,0-7.915,14.087c-4.313,9.822-6.663,29.592-7.866,40.055a163.795,163.795,0,0,0,0,31.578c.205,2.627.593,5.239.886,7.859l1.155,7.835,1.5,7.787,1.749,7.741-1.226-7.8L383,4259.952l-.879-7.827c-.2-2.62-.49-5.224-.609-7.843a178.236,178.236,0,0,1,.435-31.309c1.013-10.384,3.4-29.98,7.289-39.778a71.321,71.321,0,0,1,7.329-14.1,43.221,43.221,0,0,1,5.215-6.229,28.155,28.155,0,0,1,3.166-2.651A14.853,14.853,0,0,1,408.682,4148.17Z" fill="#344154"/>
          <path id="Trazado_99288" data-name="Trazado 99288" d="M493.135,4262.263a136.2,136.2,0,0,1-8.064-11.713c-2.525-3.957-4.883-8.041-7.012-12.188a136.262,136.262,0,0,1-5.81-12.663c-1.685-4.321-3.221-8.666-4.843-13-3.34-8.651-6.529-26.632-10.439-35.124-1.979-4.242-4.044-8.453-6.426-12.536a63.443,63.443,0,0,0-3.958-5.944,17.964,17.964,0,0,0-5.3-5.018,18.692,18.692,0,0,1,4.859,5.263,63.16,63.16,0,0,1,3.538,6.063c2.184,4.131,4.076,8.373,5.872,12.663,3.6,8.547,6.791,26.5,9.988,35.179,1.678,4.329,3.253,8.658,5.026,12.987a111.868,111.868,0,0,0,6.133,12.663A131.88,131.88,0,0,0,493.135,4262.263Z" fill="#344154"/>
          <path id="Trazado_99289" data-name="Trazado 99289" d="M414.72,4255.4c8.516,19.129,41.835,80.726,62.4,84.43,13.454,2.422,67.39-4.749,76.246-17.894,3.862-5.722-4.4-44.32-11.555-42.555s-50.327,9.093-55.708,7.74-46.956-45.9-62.278-56.762C397.372,4211.611,410.138,4245.1,414.72,4255.4Z" fill="#ffbf9d"/>
          <path id="Trazado_99290" data-name="Trazado 99290" d="M525.339,4277.173l3.245,58.376s-42.587,9.363-61.178,2.945c-22.564-7.8-55.59-77.7-60.149-89.187-7.423-18.86-5.366-30.272,5.152-27.486,4.084,1.052,9.5,4.273,16.051,10.075,6.893,6.046,46.488,45.277,58.985,52.685C494.465,4288.728,525.339,4277.173,525.339,4277.173Z" fill="#d9a171"/>
          <path id="Trazado_99291" data-name="Trazado 99291" d="M502.506,4325.6a12.906,12.906,0,0,0-3.213,1.694,12.848,12.848,0,0,0,3.537-.792,12.645,12.645,0,0,0,3.214-1.685A12.515,12.515,0,0,0,502.506,4325.6Zm-32.085-45.855a12.558,12.558,0,0,0-3.2,1.685,13.894,13.894,0,0,0,6.743-2.5A12.617,12.617,0,0,0,470.421,4279.746Zm-32.369-27.7a12.922,12.922,0,0,0-3.213,1.694,13.951,13.951,0,0,0,6.75-2.5,12.792,12.792,0,0,0-3.537.8Zm23.529,62.761a12.7,12.7,0,0,0-3.213,1.686,13.908,13.908,0,0,0,6.743-2.5,12.474,12.474,0,0,0-3.53.807Zm37.656-22.5a12.775,12.775,0,0,0-3.213,1.693,12.863,12.863,0,0,0,3.538-.791,12.689,12.689,0,0,0,3.213-1.686,12.529,12.529,0,0,0-3.538.776ZM442.69,4282.1a12.841,12.841,0,0,0-3.166,1.694,12.866,12.866,0,0,0,3.537-.792,12.609,12.609,0,0,0,3.166-1.693,12.887,12.887,0,0,0-3.537.783Zm84.683,32.235c-.135-.538-.309-1.068-.491-1.583a12.881,12.881,0,0,0-1.694-3.213,12.612,12.612,0,0,0,.792,3.538,13.264,13.264,0,0,0,1.456,2.9Zm-44.74,3.253a12.852,12.852,0,0,0-1.686-3.213,12.868,12.868,0,0,0,.792,3.537,12.653,12.653,0,0,0,1.693,3.214,12.526,12.526,0,0,0-.767-3.546Zm-28.278-50a12.851,12.851,0,0,0-1.693-3.205,12.857,12.857,0,0,0,.791,3.538,12.571,12.571,0,0,0,1.694,3.205A12.611,12.611,0,0,0,454.355,4267.589ZM423.181,4236.9a12.744,12.744,0,0,0-1.686-3.214,13.9,13.9,0,0,0,2.5,6.743,12.443,12.443,0,0,0-.855-3.529Zm44.114,95.407a12.523,12.523,0,0,0-3.443-1.108,14.06,14.06,0,0,0,6.538,3A12.8,12.8,0,0,0,467.3,4332.305Zm38.836-24.02a12.664,12.664,0,0,0-3.467-1.069,14.144,14.144,0,0,0,6.545,3,13.128,13.128,0,0,0-3.078-1.963Zm-12.79,32.06a12.534,12.534,0,0,0-3.466-1.076,10.367,10.367,0,0,0,1.915,1.33l1.868-.1Zm-31.4-45.546a12.552,12.552,0,0,0-3.466-1.077,14.068,14.068,0,0,0,6.537,3,12.634,12.634,0,0,0-3.071-1.955Zm-47.486-41.21a12.551,12.551,0,0,0-3.466-1.077,12.684,12.684,0,0,0,3.071,1.924,12.814,12.814,0,0,0,3.466,1.076,12.792,12.792,0,0,0-3.055-1.955Zm29.442,50.841a12.358,12.358,0,0,0-1.069,3.467,12.83,12.83,0,0,0,1.923-3.079,13.09,13.09,0,0,0,1.077-3.466,12.87,12.87,0,0,0-1.916,3.047Zm-15.829-32.638a12.352,12.352,0,0,0-1.069,3.466,12.825,12.825,0,0,0,1.924-3.078,13.091,13.091,0,0,0,1.076-3.467,13.118,13.118,0,0,0-1.907,3.047ZM478.439,4298a12.805,12.805,0,0,0-1.053,3.435,12.455,12.455,0,0,0,1.931-3.071,13.092,13.092,0,0,0,1.076-3.467,12.615,12.615,0,0,0-1.931,3.071Zm-74.957-61.241c.079.435.166.871.269,1.322a11.511,11.511,0,0,0,.792-2.77,9.653,9.653,0,0,0-1.037,1.416Z" fill="#fff"/>
          <path id="Trazado_99292" data-name="Trazado 99292" d="M517.931,4334.679c-.744-8.611-2.477-43.964-2.335-51.633,0-.53.348-.649.412-.095,2.833,25.753,1.962,43.2,2.255,51.688C518.271,4334.829,517.947,4334.877,517.931,4334.679Z" fill="#344154"/>
          <path id="Trazado_99293" data-name="Trazado 99293" d="M407.289,4249.3c4.511,11.492,37.553,81.4,60.149,89.187,5.54,1.923,13.3,2.429,21.368,2.216l-77.758-119.2a6.667,6.667,0,0,0-5.342,1.084C401.511,4225.9,401.915,4235.671,407.289,4249.3Z" fill="#d9a171" opacity="0.1" style="isolation: isolate"/>
          <path id="Trazado_99294" data-name="Trazado 99294" d="M329.839,4341.319l116.926-.309-6.466-40.2s9.244-11.223,7.495-23.4c-1.915-13.336-25.967-47.146-27.985-49.069-8.144-7.645-16.762-9.014-25.041-6.26h0C356.518,4246.173,329.839,4341.319,329.839,4341.319Z" fill="#d9a171"/>
          <path id="Trazado_99295" data-name="Trazado 99295" d="M338.972,4318.17a15.721,15.721,0,0,0-1.97.9l-.238.673a15.227,15.227,0,0,0,2.533-.7,12.5,12.5,0,0,0,3.213-1.694A12.634,12.634,0,0,0,338.972,4318.17Zm42.247-76.769a12.889,12.889,0,0,0-3.166,1.693,12.826,12.826,0,0,0,3.53-.791,12.5,12.5,0,0,0,3.213-1.694,12.87,12.87,0,0,0-3.577.776Zm55.171,11.365a10.631,10.631,0,0,0-1.583.965,9.8,9.8,0,0,0,1.939-.316C436.651,4253.2,436.516,4252.987,436.39,4252.766Zm-30.122,17.5a12.866,12.866,0,0,0-3.213,1.686,13.96,13.96,0,0,0,6.751-2.5A12.608,12.608,0,0,0,406.268,4270.264Zm-15.037,45.785a12.756,12.756,0,0,0-3.214,1.685,12.845,12.845,0,0,0,3.538-.791,12.6,12.6,0,0,0,3.166-1.694,12.5,12.5,0,0,0-3.467.8Zm51.443-33.961a12.842,12.842,0,0,0-3.166,1.694,12.882,12.882,0,0,0,3.538-.792,12.621,12.621,0,0,0,3.165-1.693,12.879,12.879,0,0,0-3.521.791Zm-76.722,2.042a12.81,12.81,0,0,0-3.165,1.686,13.9,13.9,0,0,0,6.743-2.5,12.61,12.61,0,0,0-3.562.815Zm57.672,30.668a12.736,12.736,0,0,0-3.213,1.686,12.848,12.848,0,0,0,3.537-.792,12.714,12.714,0,0,0,3.206-1.693,12.48,12.48,0,0,0-3.514.8Zm-31-90.468-.238-.586c-.261.182-.514.372-.791.562.047.119.087.229.126.348a12.687,12.687,0,0,0,1.694,3.182A12.9,12.9,0,0,0,392.624,4224.33ZM363.436,4317.2a12.894,12.894,0,0,0-1.686-3.213,13.954,13.954,0,0,0,2.5,6.751A12.553,12.553,0,0,0,363.436,4317.2Zm42.04-18.306a12.8,12.8,0,0,0-1.685-3.165,13.893,13.893,0,0,0,2.5,6.743A12.614,12.614,0,0,0,405.476,4298.89Zm-14.871-39.46a12.832,12.832,0,0,0-1.693-3.206,14.188,14.188,0,0,0,2.5,6.743,12.869,12.869,0,0,0-.808-3.537Zm51.665,67.121a12.438,12.438,0,0,0-1.686-3.213,12.868,12.868,0,0,0,.792,3.537,12.735,12.735,0,0,0,1.693,3.206,12.441,12.441,0,0,0-.8-3.53ZM423.141,4236.9a12.711,12.711,0,0,0-1.686-3.214,13.909,13.909,0,0,0,2.5,6.743A12.444,12.444,0,0,0,423.141,4236.9ZM378.307,4302a12.663,12.663,0,0,0-3.467-1.069,14.149,14.149,0,0,0,6.545,3,13.072,13.072,0,0,0-3.078-1.931Zm41.526,38.155a9.793,9.793,0,0,0,1.29.949h1.884A11.873,11.873,0,0,0,419.833,4340.156Zm-68.6-6.775a12.779,12.779,0,0,0-3.467-1.076,12.492,12.492,0,0,0,3.079,1.931,12.95,12.95,0,0,0,3.458,1.076A12.439,12.439,0,0,0,351.232,4333.381Zm70.825-41.068a12.688,12.688,0,0,0-3.459-1.076,12.42,12.42,0,0,0,3.071,1.931,12.8,12.8,0,0,0,3.467,1.069,12.815,12.815,0,0,0-3.079-1.923Zm-7.59-38.78a12.534,12.534,0,0,0-3.466-1.076,12.633,12.633,0,0,0,3.07,1.923,12.816,12.816,0,0,0,3.467,1.077,12.787,12.787,0,0,0-3.071-1.9Zm-45.539,10.732a12.538,12.538,0,0,0-1.076,3.467,12.689,12.689,0,0,0,1.923-3.079,12.377,12.377,0,0,0,1.076-3.459,12.682,12.682,0,0,0-1.923,3.1Zm36.691,63.623a12.8,12.8,0,0,0-1.069,3.467,12.659,12.659,0,0,0,1.924-3.008,12.8,12.8,0,0,0,1.076-3.466,13.089,13.089,0,0,0-1.931,3.031Zm22.469-56.152a12.365,12.365,0,0,0-1.069,3.467,12.838,12.838,0,0,0,1.923-3.079,13.1,13.1,0,0,0,1.077-3.466,13.074,13.074,0,0,0-1.931,3.1Zm-50.217,59.421a12.81,12.81,0,0,0-1.076,3.522,12.442,12.442,0,0,0,1.931-3.071,12.773,12.773,0,0,0,1.068-3.466,12.778,12.778,0,0,0-1.923,3.039Zm-25.389-29.077a12.733,12.733,0,0,0-1.076,3.466,13.926,13.926,0,0,0,3-6.545A12.861,12.861,0,0,0,352.482,4302.08Zm35.757-18.844a12.391,12.391,0,0,0-1.076,3.458,12.674,12.674,0,0,0,1.923-3.07,12.82,12.82,0,0,0,1.076-3.467A12.826,12.826,0,0,0,388.239,4283.236Zm14.4-44.9a12.391,12.391,0,0,0-1.076,3.458,14.056,14.056,0,0,0,3-6.537,12.849,12.849,0,0,0-1.923,3.1Z" fill="#fff"/>
          <path id="Trazado_99296" data-name="Trazado 99296" d="M432.5,4244.63c2.263,3.767,4.748,7.4,7.123,11.08-.958-2.628-1.892-5.255-2.936-7.843a.048.048,0,0,1,.031-.06.05.05,0,0,1,.048.012,54.564,54.564,0,0,1,4.044,9.782,74.463,74.463,0,0,1,4.749,8.706,34.826,34.826,0,0,1,3.165,11.444,29.375,29.375,0,0,1-1.662,11.777,76.208,76.208,0,0,1-5.92,12.473c-.3.53-1.036.039-.791-.491,3.316-7.075,6.98-14.515,6.648-22.532s-4.021-15.235-7.637-22.113a109.942,109.942,0,0,0-7.123-12.132C432.124,4244.622,432.393,4244.456,432.5,4244.63Z" fill="#344154"/>
          <path id="Trazado_99297" data-name="Trazado 99297" d="M469.44,4332.7l-2.374,13.288h73.7a9.03,9.03,0,0,0,8.563-7.241l1.06-6.047Z" fill="#dbdbdb"/>
          <path id="Trazado_99298" data-name="Trazado 99298" d="M461.138,4338.747l1.068-6.047h14.476l-1.069,6.047a9.013,9.013,0,0,1-8.516,7.241,6.019,6.019,0,0,1-4.748-2.121A6.219,6.219,0,0,1,461.138,4338.747Z" fill="#ebebeb"/>
          <path id="Trazado_99299" data-name="Trazado 99299" d="M493.389,4237.934l-19.05,108.054h66.48a9.029,9.029,0,0,0,8.508-7.241l19.05-108.054H501.9a8.592,8.592,0,0,0-5.493,2.121A8.867,8.867,0,0,0,493.389,4237.934Z" fill="#dbdbdb"/>
          <path id="Trazado_99300" data-name="Trazado 99300" d="M501.9,4230.693l-3.846,21.827H578.99l2.572-14.586a5.912,5.912,0,0,0-5.959-7.241Z" fill="#ebebeb"/>
          <path id="Trazado_99301" data-name="Trazado 99301" d="M493.389,4237.934l-2.573,14.586h14.476l2.572-14.586a5.909,5.909,0,0,0-5.96-7.241,8.591,8.591,0,0,0-5.492,2.121A8.865,8.865,0,0,0,493.389,4237.934Z" fill="#dbdbdb"/>
          <path id="Trazado_99302" data-name="Trazado 99302" d="M558.587,4272.48c2.706,7.717,10.51,17.76,10.6,23.838a6.98,6.98,0,0,1-4.63,6.909s5.667,3.617,4.836,9.141c-.428,2.842-5.35,4.654-5.35,4.654s4.416,3.094,3.371,7.962c-.831,3.878-5.635,5.112-5.635,5.112s2.849,4.947.736,8.627c-4.289,7.455-38.139,3.862-42.041-9.165-1.82-6.07,6.4-4.748,6.4-4.748s-11.365-4.749-10.8-11.761,11.135-4.63,11.135-4.63-10.969-4.709-9.655-11.911c1.377-7.487,11.547-3.308,11.547-3.308s-6.988-5.9-4.749-11.175c3.744-8.706,16.794,4.131,24.424,3.166l5.4-11.872Z" fill="#ffbf9d"/>
          <path id="Trazado_99303" data-name="Trazado 99303" d="M564.238,4283.869c-1.924-7.527,7.993-15.512,7.186-22.952-1.085-10.09-13.217-1.582-17.206,12.465l-1.179,11.437Z" fill="#ffbf9d"/>
          <path id="Trazado_99304" data-name="Trazado 99304" d="M561.048,4330.4a.087.087,0,0,1,0,.174c-11.428,1.536-24.439-.285-34.649-5.785-.34-.174-.19-.792.222-.673C538.247,4327.778,548.828,4330.089,561.048,4330.4Z" fill="#344154"/>
          <path id="Trazado_99305" data-name="Trazado 99305" d="M564.2,4317.109c.135,0,.127.222,0,.237-11.784,1.52-26.386-.933-37.411-8.658-.372-.261-.451-.878,0-.609C534.5,4312.661,553.2,4316.88,564.2,4317.109Z" fill="#344154"/>
          <path id="Trazado_99306" data-name="Trazado 99306" d="M528.481,4292.393c10.85,7,22.856,9.806,35.614,10.914.166,0,.127.253,0,.277-6.379,1.155-14.428-.4-20.577-2.145a33.921,33.921,0,0,1-15.235-8.666C528.061,4292.606,528.243,4292.25,528.481,4292.393Z" fill="#344154"/>
          <path id="Trazado_99307" data-name="Trazado 99307" d="M400.633,4221.544c.158,2.057,7.645,16.39,16.778,17.364,2.976.308,5.4-15.829,5.4-15.829l.459-1.147,6.331-16.138-17.688-15.623-2.58-2.1s-1.433,4.527-3.166,10.178c-.079.261-.166.53-.245.791s-.214.618-.3.918c-.269.839-.538,1.7-.792,2.565-.2.657-.387,1.29-.569,1.986s-.372,1.377-.57,2.066A110.6,110.6,0,0,0,400.633,4221.544Z" fill="#ffbf9d"/>
          <path id="Trazado_99308" data-name="Trazado 99308" d="M406.141,4198.228a34.771,34.771,0,0,0,17.127,23.68l6.331-16.137-17.688-15.623-2.58-2.1S407.874,4192.577,406.141,4198.228Z" fill="#344154"/>
          <path id="Trazado_99309" data-name="Trazado 99309" d="M457.743,4186.555c-4.005,30.137-22.509,31.142-29.006,30.272-5.9-.792-25.888-4.234-25.018-34.625s16.154-38.06,29.742-36.968S461.755,4156.409,457.743,4186.555Z" fill="#ffbf9d"/>
          <path id="Trazado_99310" data-name="Trazado 99310" d="M453.413,4183.318a20.279,20.279,0,0,1-1.931-.839,3.336,3.336,0,0,1-1.8-1.227,1.068,1.068,0,0,1,.269-1.29,2.681,2.681,0,0,1,2.714-.087,3.953,3.953,0,0,1,2.145,1.86,1.155,1.155,0,0,1-1.4,1.583Z" fill="#344154"/>
          <path id="Trazado_99311" data-name="Trazado 99311" d="M433.034,4178.142q1.049.052,2.1,0a3.419,3.419,0,0,0,2.145-.428,1.084,1.084,0,0,0,.261-1.29,2.691,2.691,0,0,0-2.469-1.147,3.959,3.959,0,0,0-2.7.87,1.156,1.156,0,0,0,.665,2Z" fill="#344154"/>
          <path id="Trazado_99312" data-name="Trazado 99312" d="M436.247,4184.774c0-.087-.174.063-.19.15-.3,2.05-.989,4.345-2.96,4.685-.055,0-.071.119,0,.119C435.4,4189.847,436.287,4186.76,436.247,4184.774Z" fill="#344154"/>
          <path id="Trazado_99313" data-name="Trazado 99313" d="M434.815,4182.312c-3.229-.838-4.678,5.691-1.678,6.466S437.521,4183.017,434.815,4182.312Z" fill="#344154"/>
          <path id="Trazado_99314" data-name="Trazado 99314" d="M433.454,4182.376c-.649.245-1.354.791-2.05.688-.792-.095-1.267-.918-1.639-1.685-.039-.08-.11-.04-.126.047-.3,1.251-.1,2.636,1.2,3.118,1.179.444,2.3-.467,2.9-1.654C433.849,4182.669,433.723,4182.281,433.454,4182.376Z" fill="#344154"/>
          <path id="Trazado_99315" data-name="Trazado 99315" d="M448.317,4186.681c0-.071.134.135.11.222-.53,2-.791,4.384.879,5.469.055.039,0,.134-.04.11C447.106,4191.636,447.494,4188.478,448.317,4186.681Z" fill="#344154"/>
          <path id="Trazado_99316" data-name="Trazado 99316" d="M450.6,4184.964c3.308.5,2.066,7.067-.989,6.608S447.834,4184.552,450.6,4184.964Z" fill="#344154"/>
          <path id="Trazado_99317" data-name="Trazado 99317" d="M451.886,4185.66c.451.443.847,1.172,1.464,1.33s1.369-.428,1.955-1.021c.063-.063.1,0,.1.087-.206,1.266-.871,2.493-2.121,2.509s-1.741-1.219-1.8-2.525C451.459,4185.795,451.7,4185.478,451.886,4185.66Z" fill="#344154"/>
          <path id="Trazado_99318" data-name="Trazado 99318" d="M433.026,4202.2c.356.594.657,1.369,1.369,1.583a5.547,5.547,0,0,0,2.28.079.072.072,0,0,1,.063.127,2.8,2.8,0,0,1-2.833.4,2.179,2.179,0,0,1-1.093-2.185C432.812,4202.114,432.987,4202.114,433.026,4202.2Z" fill="#344154"/>
          <path id="Trazado_99319" data-name="Trazado 99319" d="M443.03,4196.645s-.214,3.111-.515,4.543c0,.135-.387.119-.878.048a.049.049,0,0,1-.055,0,6.949,6.949,0,0,1-6.063-3.91.151.151,0,0,1,.072-.2.148.148,0,0,1,.181.042,10.4,10.4,0,0,0,5.833,3.07c.182-.372.182-5.342.412-5.31a12.438,12.438,0,0,1,3.094,1.409c.633-6.474.222-13,.95-19.43a.2.2,0,1,1,.4,0c.91,6.806.34,14.246-.143,20.973C446.267,4198.695,443.552,4197.009,443.03,4196.645Z" fill="#344154"/>
          <path id="Trazado_99320" data-name="Trazado 99320" d="M405.84,4182.589c6.965,1.425,9.054-9.584,9.054-9.584s8.049.792,11.12-11.832c0,0,2.3,8.453,12.718,12.109,2.208.792-4.258-6.592-4.258-6.592s7.511,10.027,25.049,10.193c1.235,0,3.585-18.432-8.5-27.106a30.883,30.883,0,0,0-36-.681s-9.5,3.34-12.37,12.339S403.134,4182.035,405.84,4182.589Z" fill="#344154"/>
          <path id="Trazado_99321" data-name="Trazado 99321" d="M429.029,4196.337a10.091,10.091,0,1,1,12.806-9.5h0a10.107,10.107,0,0,1-10.289,9.846A9.859,9.859,0,0,1,429.029,4196.337Zm5.074-18.14a6.663,6.663,0,1,0,.023,0Z" fill="#ebebeb"/>
          <path id="Trazado_99322" data-name="Trazado 99322" d="M451.981,4199.8c-3.712-1.037-6.023-5.785-5.208-10.985a12.023,12.023,0,0,1,3.166-6.64,6.284,6.284,0,0,1,10.621,1.67,12.022,12.022,0,0,1,1.013,7.3c-.863,5.492-4.891,9.442-8.983,8.8A4.512,4.512,0,0,1,451.981,4199.8Zm4.068-18.345a3.538,3.538,0,0,0-.5-.111,5.4,5.4,0,0,0-4.622,1.781,10.768,10.768,0,0,0-2.825,5.9c-.744,4.748,1.369,9.062,4.749,9.592s6.7-2.92,7.447-7.677a10.756,10.756,0,0,0-.879-6.482,5.538,5.538,0,0,0-3.411-3Z" fill="#ebebeb"/>
          <path id="Trazado_99323" data-name="Trazado 99323" d="M441.344,4187.955l-.7-1.155c1.709-1.037,5.468-2.192,7.494.791l-1.115.792C445.214,4185.676,441.5,4187.86,441.344,4187.955Z" fill="#ebebeb"/>
          <path id="Trazado_99324" data-name="Trazado 99324" d="M396.533,4183.515l-1.084-.791c.372-.506,3.72-4.954,6.775-4.97,2.849,0,20.442,4.471,21.194,4.661l-.34,1.306c-5.042-1.29-18.646-4.63-20.846-4.622C400.213,4179.139,397.435,4182.32,396.533,4183.515Z" fill="#ebebeb"/>
          <path id="Trazado_99325" data-name="Trazado 99325" d="M408.207,4185.154s-4.424-10.708-9.141-9.331-2.833,15.892,1.693,18.828a5.146,5.146,0,0,0,7.2-1.027c.043-.058.085-.117.126-.176Z" fill="#ffbf9d"/>
          <path id="Trazado_99326" data-name="Trazado 99326" d="M399.746,4179.97a.07.07,0,0,0-.082.058.072.072,0,0,0,.027.068c3.166,2.177,4.258,5.786,4.788,9.4-.744-1.5-1.986-2.517-3.957-1.678a.111.111,0,0,0-.039.152.112.112,0,0,0,.087.054,3.164,3.164,0,0,1,3.165,1.836,14.605,14.605,0,0,1,1.021,3.11c.1.34.689.3.649-.079v-.087C406.41,4188.406,404.353,4181.466,399.746,4179.97Z" fill="#344154"/>
          <path id="Trazado_99327" data-name="Trazado 99327" d="M422.579,4223.586l-4.258,13.9-18.131-15.575-4.266,5.848s18.622,25.619,18.622,24.384L419.1,4240.1l8.706,7.376-2.375-20.166Z" fill="#ebebeb"/>
          <path id="Trazado_99328" data-name="Trazado 99328" d="M427.162,4237.436c-.5-3.316-.91-6.672-1.583-9.964,0-.111-.214-.151-.23,0-.395,3.276,1.583,15.947,1.836,18.994h0c-.364-.325-8.009-6.458-8.072-6.332-1.045,1.939-4.393,10.716-4.606,11.508-2.944-4.068-15.338-20.047-18.741-23.838a.114.114,0,1,0-.19.127c2.667,4.337,18.725,25.444,18.915,25.373a130.423,130.423,0,0,0,4.748-12.734c1.322,1.361,9.11,8.365,9.094,7.867A104.05,104.05,0,0,0,427.162,4237.436Z" fill="#344154"/>
          <path id="Trazado_99329" data-name="Trazado 99329" d="M394.618,4250c-7.044,30.343-27,64.288-39.627,74.268-7.693,6.07-32.314,6.125-33.414-9.806s47.24-65.863,54.355-75.574S400.981,4222.62,394.618,4250Z" fill="#ffbf9d"/>
          <path id="Trazado_99330" data-name="Trazado 99330" d="M394.618,4250c-7.044,30.343-27,64.288-39.627,74.268-7.693,6.07-32.314,6.125-33.414-9.806s47.24-65.863,54.355-75.574S400.981,4222.62,394.618,4250Z" fill="#d9a171"/>
          <path id="Trazado_99331" data-name="Trazado 99331" d="M338.972,4318.17a12.832,12.832,0,0,0-3.165,1.693,12.8,12.8,0,0,0,3.53-.791,12.526,12.526,0,0,0,3.213-1.694A12.588,12.588,0,0,0,338.972,4318.17Zm42.247-76.769a12.889,12.889,0,0,0-3.166,1.693,12.826,12.826,0,0,0,3.53-.791,12.5,12.5,0,0,0,3.213-1.694,12.87,12.87,0,0,0-3.577.776Zm-15.251,42.737a12.817,12.817,0,0,0-3.166,1.686,13.9,13.9,0,0,0,6.743-2.5,12.6,12.6,0,0,0-3.577.807Zm-12.053-13.565a12.8,12.8,0,0,0-1.654-3.245,12.865,12.865,0,0,0,.791,3.538,12.652,12.652,0,0,0,1.694,3.213A12.856,12.856,0,0,0,353.915,4270.573Zm-19.675,30.193a12.927,12.927,0,0,0-1.694-3.213,13.958,13.958,0,0,0,2.5,6.751A12.866,12.866,0,0,0,334.24,4300.766Zm27.518,13.217a11.055,11.055,0,0,0,.57,2.817l.625-.791A10.745,10.745,0,0,0,361.758,4313.983Zm28.855-54.553a12.85,12.85,0,0,0-1.693-3.206,12.541,12.541,0,0,0,.791,3.53,13.685,13.685,0,0,0,1.353,2.746c.064-.205.135-.4.2-.609h0a15.058,15.058,0,0,0-.657-2.461Zm-44.937,25.389a12.8,12.8,0,0,0-3.467-1.069,12.658,12.658,0,0,0,3.071,1.923,12.816,12.816,0,0,0,3.467,1.077A13.061,13.061,0,0,0,345.676,4284.819Zm23.252-20.578a12.548,12.548,0,0,0-1.076,3.467,12.68,12.68,0,0,0,1.923-3.079,12.381,12.381,0,0,0,1.076-3.458,12.661,12.661,0,0,0-1.923,3.118Zm-16.446,37.839a12.733,12.733,0,0,0-1.076,3.466,13.926,13.926,0,0,0,3-6.545A12.861,12.861,0,0,0,352.482,4302.08ZM322.139,4312.7c-.206.467-.4.942-.57,1.432a2.1,2.1,0,0,0,0,.317,7.462,7.462,0,0,0,.1.957,14.73,14.73,0,0,0,1.314-2.318,13.02,13.02,0,0,0,1.076-3.467A12.63,12.63,0,0,0,322.139,4312.7Z" fill="#fff"/>
          <path id="Trazado_99332" data-name="Trazado 99332" d="M333.7,4326.575a32.473,32.473,0,0,0,10.019.055,27.084,27.084,0,0,0,9.236-3.3c6.031-3.467,10.067-9.339,13.652-15.117q5.9-9.5,11.08-19.453c3.443-6.624,6.6-13.4,9.648-20.213,1.543-3.435,2.944-6.917,4.408-10.384s2.849-6.893,4.123-10.4c.325-.887.626-1.773.934-2.659a.066.066,0,0,1,.127.039h0c-1.14,3.625-2.224,7.289-3.451,10.882-.158.467-.332.934-.5,1.4,1.274-2.714,2.58-5.413,3.957-8.08.079-.159.3,0,.237.142-1.218,2.77-2.485,5.54-3.783,8.239q-.965,2.018-1.939,4.02c-.617,1.662-1.258,3.332-1.915,4.986q-4.249,10.638-9.45,20.823t-11.206,19.952c-3.665,5.991-7.6,12.148-13.526,16.145a25.8,25.8,0,0,1-19.35,3.9,17.8,17.8,0,0,1-2.375-.681.158.158,0,0,1,.072-.3Z" fill="#344154"/>
          <path id="Trazado_99333" data-name="Trazado 99333" d="M345.478,4204.789c5.026-12.227,13.177-29,18.654-31.562,5.762-2.667,26.394-11.215,31.831-11.65s24.717,5.2,28.2,8.619c2.778,2.738-2.042,9.259-13.027,8.326-10.288-.879-12.663-1.583-15.646-1.132s-11.809,7.574-11.033,11.927c.459,2.556,6.434,6.964,11.08,6.165s7.44-5.342,13.177-7.994,13.969,0,13.866,2.375-3.165,2.722-9.386,9.291c-4.021,4.218-6.917,12.6-15.346,19.477-4.234,3.451-12.615,13.391-12.615,13.391Z" fill="#ffbf9d"/>
          <path id="Trazado_99334" data-name="Trazado 99334" d="M364.132,4173.227c5.667-5.295,18.923-14.056,30.154-15.338,7.589-.879,28.38,16.826,26.513,21.187s-5.92,3.339-11.753,1.076c-2.121-.792-12.663-7.97-15.235-6.047-3.736,2.762-10.416,13.771-10.416,13.771Z" fill="#ffbf9d"/>
          <path id="Trazado_99335" data-name="Trazado 99335" d="M420.68,4177.184c-1.686-5.619-7.471-9.877-13.367-13.581-.1-.063-.19.079-.1.135,1.5.949,10.723,8.46,13.367,13.5C420.617,4177.295,420.7,4177.239,420.68,4177.184Z" fill="#344154"/>
          <path id="Trazado_99336" data-name="Trazado 99336" d="M364.132,4173.227c5.667-5.295,18.923-14.056,30.154-15.338,7.589-.879,22.579,18.781,20.719,23.149s-7.8,3.221-13.66-.68c-1.9-1.267-7.621-7.978-10.217-6.063-3.744,2.762-12.893,9.656-12.893,9.656Z" fill="#ffbf9d"/>
          <path id="Trazado_99337" data-name="Trazado 99337" d="M383.617,4179.637c.9-.791,1.219-1.123,2.137-1.939s1.844-1.582,2.817-2.374a9.221,9.221,0,0,1,2.707-1.694,4.705,4.705,0,0,1,3,.167c2.184.791,3.838,2.722,5.453,4.305,1.8,1.757,5.69,4.859,9.149,5.366a6.822,6.822,0,0,0,2.833,0,4.313,4.313,0,0,0,1.923-.863c2.089-2.1,1-5.389-.348-7.914-2.517-4.622-6.49-8.524-10.447-11.871-.974-.831-1.971-1.639-2.96-2.446a10.29,10.29,0,0,0-3.783-2.224c-2.335-.617-6.775.792-8.144,1.187-.1,0-.134-.134,0-.166,1.662-.53,5.975-2.525,9.695-1.361a12.283,12.283,0,0,1,3.585,2.327c1.116.862,2.311,1.852,3.427,2.825a54.8,54.8,0,0,1,6.094,6.1,22.843,22.843,0,0,1,4.448,7.067,6.7,6.7,0,0,1-1.322,6.83c-1.472,1.449-3.775,1.3-4.819,1.172a11.461,11.461,0,0,1-2.968-.792,47.711,47.711,0,0,1-5.976-3.553c-1.836-1.338-3.324-3.166-5.263-4.369a4.069,4.069,0,0,0-3.1-.586,10.6,10.6,0,0,0-2.817,1.5,32.612,32.612,0,0,0-4.971,3.53C383.514,4180.207,383.237,4179.986,383.617,4179.637Z" fill="#344154"/>
          <path id="Trazado_99338" data-name="Trazado 99338" d="M359.732,4177.975c2.255-2.627,7.914-14.4,11.317-17.593s17.712-13.534,22.675-11.65c6.236,2.374-3.435,12.22-8.025,16.114s-6.1,12.148-6.1,12.148Z" fill="#ffbf9d"/>
          <path id="Trazado_99339" data-name="Trazado 99339" d="M392.418,4158.19c-1.583,1.2-3.071,2.6-4.527,3.957a38.816,38.816,0,0,0-4.084,3.957,17.033,17.033,0,0,0-2.612,4.962,26.136,26.136,0,0,0-.791,2.652c-.222.894-.427,1.986-.7,2.952,0,.1.126.166.158.055a43.585,43.585,0,0,1,2.065-5.144,23.723,23.723,0,0,1,2.976-4.883c2.375-2.976,5.334-5.406,7.725-8.366C392.711,4158.237,392.537,4158.1,392.418,4158.19Z" fill="#344154"/>
          <path id="Trazado_99340" data-name="Trazado 99340" d="M393.2,4195.466a8.237,8.237,0,0,0,5.841-1.971c1.52-1.139,2.968-2.374,4.495-3.506a19.647,19.647,0,0,1,4.868-2.873,22.649,22.649,0,0,1,6.252-1.044,12.21,12.21,0,0,1,6.015.878c1.535.728,3.166,2.319,2.319,4.187a7.283,7.283,0,0,1-1.726,2.2,18.061,18.061,0,0,1-2.136,1.741c-1.512,1.085-3.119,2.058-4.527,3.293a28.829,28.829,0,0,0-4.543,5.951c-.515.792-3.8,5.968-5.05,7.732a31.388,31.388,0,0,1-3.521,4.211,43.78,43.78,0,0,1-4.045,3.292,25.53,25.53,0,0,0-4.218,3.775c-.055.072-.15,0-.111-.1,1.583-2.912,4.48-4.867,7.123-6.8,3.38-2.5,10.882-15.417,12.244-17.174,2.263-2.92,5.7-4.321,8.278-6.862.594-.585,1.5-1.416,1.488-2.334a2.588,2.588,0,0,0-1.583-1.971,10.463,10.463,0,0,0-5.888-.689,26.859,26.859,0,0,0-6,.99,19.763,19.763,0,0,0-4.8,2.508c-1.694,1.172-3.316,2.375-5.1,3.435a8.3,8.3,0,0,1-5.73,1.282C393.059,4195.6,393.106,4195.458,393.2,4195.466Z" fill="#344154"/>
          <path id="Trazado_99341" data-name="Trazado 99341" d="M420.949,4168.629c-1.353-.665-2.7-1.385-4.076-2.011v-.063c1.63.649,3.308,1.187,4.946,1.82a5.049,5.049,0,0,1,3.166,2.588,3.816,3.816,0,0,1-.791,3.736,10.221,10.221,0,0,1-3.577,2.422c-.072.039-.127-.072-.056-.111,1.971-1.14,5.026-3.435,3.419-6.055A6.951,6.951,0,0,0,420.949,4168.629Z" fill="#344154"/>
          <path id="Trazado_99342" data-name="Trazado 99342" d="M414.356,4181.758a8.715,8.715,0,0,0,4.622-.791,3.3,3.3,0,0,0,1.686-2.5,1.648,1.648,0,0,0-.15-1.116c-.064-.079.087-.15.11-.055a5.036,5.036,0,0,0,.246.6,2.608,2.608,0,0,1,.118.538,2.921,2.921,0,0,1-.087,1.085,3.509,3.509,0,0,1-1.369,1.891,5.871,5.871,0,0,1-5.2.491A.074.074,0,0,1,414.356,4181.758Z" fill="#344154"/>
          <path id="Trazado_99343" data-name="Trazado 99343" d="M385.216,4232.038c-3.372,12.164-29,77.038-36.121,86.195s-24.447,11.127-29.283-5.421,20.34-95.645,25.658-108.023C348.438,4197.9,386.427,4227.63,385.216,4232.038Z" fill="#ffbf9d"/>
          <path id="Trazado_99344" data-name="Trazado 99344" d="M390.819,4240.237l-50.287-29.164s-21.512,73.785-21.891,96.539c-.277,16.327,19.3,28.531,34.759,6.458S390.819,4240.237,390.819,4240.237Z" fill="#d9a171"/>
          <path id="Trazado_99345" data-name="Trazado 99345" d="M342.067,4212.007a13.205,13.205,0,0,0-1.86,2.984,12.762,12.762,0,0,0-1.068,3.466,12.671,12.671,0,0,0,1.923-3.071,12.889,12.889,0,0,0,1.06-3.379h-.055Zm-16.209,70.358a12.829,12.829,0,0,0-1.068,3.467,12.66,12.66,0,0,0,1.923-3.071,12.818,12.818,0,0,0,1.077-3.482A13.243,13.243,0,0,0,325.858,4282.365Zm-3.719,30.336a12.724,12.724,0,0,0-1.077,3.466,12.686,12.686,0,0,0,1.916-3.078,13.02,13.02,0,0,0,1.076-3.467,12.63,12.63,0,0,0-1.915,3.079Zm30.343-10.621a12.733,12.733,0,0,0-1.076,3.466,13.926,13.926,0,0,0,3-6.545,12.861,12.861,0,0,0-1.923,3.079Zm16.9-74.244v.221l.135-.166Zm-.459,36.477a12.552,12.552,0,0,0-1.076,3.466,12.658,12.658,0,0,0,1.923-3.079,12.391,12.391,0,0,0,1.076-3.458,12.68,12.68,0,0,0-1.923,3.047Zm-23.189-8.263a12.456,12.456,0,0,0-1.076,3.443,14.138,14.138,0,0,0,3-6.545,12.851,12.851,0,0,0-1.923,3.078Zm17.222-8.745a12.816,12.816,0,0,0-3.467-1.077,12.467,12.467,0,0,0,3.071,1.932,12.825,12.825,0,0,0,3.466,1.044,12.81,12.81,0,0,0-3.07-1.923Zm-17.285,37.514a12.8,12.8,0,0,0-3.467-1.069,12.658,12.658,0,0,0,3.071,1.923,12.816,12.816,0,0,0,3.467,1.077A13.061,13.061,0,0,0,345.676,4284.819Zm-7.519-46.362a12.663,12.663,0,0,0-3.466-1.077,13.935,13.935,0,0,0,6.545,3,12.822,12.822,0,0,0-3.079-1.892Zm-3.957,62.277a12.88,12.88,0,0,0-1.694-3.213,13.976,13.976,0,0,0,2.5,6.751,12.849,12.849,0,0,0-.767-3.506Zm19.715-30.161a12.8,12.8,0,0,0-1.654-3.245,12.865,12.865,0,0,0,.791,3.538,12.652,12.652,0,0,0,1.694,3.213A12.856,12.856,0,0,0,353.915,4270.573Zm12.053,13.589a12.833,12.833,0,0,0-3.166,1.686,13.91,13.91,0,0,0,6.743-2.5,12.576,12.576,0,0,0-3.577.783Zm-33.588-17.649a12.565,12.565,0,0,0-3.166,1.694,13.19,13.19,0,0,0,3.538-.792,12.647,12.647,0,0,0,3.166-1.694A12.588,12.588,0,0,0,332.38,4266.513Zm19.683-36.905a12.921,12.921,0,0,0-3.213,1.694,12.9,12.9,0,0,0,3.537-.791,12.683,12.683,0,0,0,3.213-1.694A12.847,12.847,0,0,0,352.063,4229.608Zm29.156,11.777a12.876,12.876,0,0,0-3.166,1.694,12.863,12.863,0,0,0,3.53-.792,12.5,12.5,0,0,0,3.213-1.694A12.9,12.9,0,0,0,381.219,4241.385Zm-42.247,76.769a12.867,12.867,0,0,0-3.165,1.693,12.834,12.834,0,0,0,3.53-.791,12.513,12.513,0,0,0,3.213-1.694,12.581,12.581,0,0,0-3.578.808Z" fill="#fff"/>
          <path id="Trazado_99346" data-name="Trazado 99346" d="M383.918,4249.2c-7.614-4.091-38.179-21.946-44.518-26.252-.443-.3-.356-.656.142-.4,23.142,11.681,37.253,21.907,44.55,26.331A.185.185,0,0,1,383.918,4249.2Z" fill="#344154"/>
          <path id="Trazado_99347" data-name="Trazado 99347" d="M367.828,4288.317c5.311-9.972,10.415-20.047,15.037-30.375q1.923-4.338,3.767-8.706c1.18-2.8,2.375-5.611,3.435-8.46-1.052-.737-5.674-3.76-6.173-4.227a.2.2,0,0,1,.206-.332c.617.229,5.983,3.34,7.123,4.187.166.118-2.121,5.674-3.166,8.333s-2.105,5.3-3.213,7.915q-3.293,7.811-6.965,15.44c-2.635,5.493-5.389,10.906-8.31,16.233C367.021,4292.915,360.966,4301.162,367.828,4288.317Z" fill="#344154"/>
        </g>
        <g id="freepik--Pencil--inject-11">
          <path id="Trazado_99348" data-name="Trazado 99348" d="M570.988,4370.6s9.862,1.337,10.226-5.461-9.584-6.529-9.584-6.529Z" fill="#dd6a57"/>
          <rect id="Rectángulo_5092" data-name="Rectángulo 5092" width="12.006" height="69.986" transform="translate(501.52 4366.887) rotate(-86.92)" fill="#d9a171"/>
          <rect id="Rectángulo_5093" data-name="Rectángulo 5093" width="14.016" height="2.778" transform="translate(568.95 4371.528) rotate(-86.92)" fill="#37474f"/>
          <rect id="Rectángulo_5094" data-name="Rectángulo 5094" width="14.016" height="2.786" transform="translate(565.873 4371.357) rotate(-86.92)" fill="#37474f"/>
          <path id="Trazado_99349" data-name="Trazado 99349" d="M502.142,4354.876l-8.864,4.044-2.928,1.322,2.77,1.662,8.381,4.97,1.8-1.116-1.678-1.282,1.8-1.124-1.678-1.274,1.8-1.1s-1.646-1.274-1.669-1.306l1.8-1.092-1.678-1.306,1.8-1.092Z" fill="#ebebeb"/>
          <path id="Trazado_99350" data-name="Trazado 99350" d="M493.278,4358.92l-2.928,1.322,2.77,1.662Z" fill="#37474f"/>
        </g>
        <g id="freepik--Calculator--inject-11">
          <path id="Trazado_99351" data-name="Trazado 99351" d="M443.924,4348.5l10.249,26.466H360.618l11.183-26.434Z" fill="#d9a171"/>
          <path id="Trazado_99352" data-name="Trazado 99352" d="M444.668,4350.42l9.505,24.542v4.487H360.618v-4.487l10.376-24.519Z" fill="#d9a171"/>
          <path id="Trazado_99353" data-name="Trazado 99353" d="M443.924,4348.5l10.249,26.466H360.618l11.183-26.434Z" fill="#d9a171" opacity="0.1" style="isolation: isolate"/>
          <path id="Trazado_99354" data-name="Trazado 99354" d="M396.882,4367.84l-.586,5.089H384.931l1.092-5.089Z" fill="#fff"/>
          <path id="Trazado_99355" data-name="Trazado 99355" d="M397.554,4362.078l-.594,5.089H386.173l1.1-5.089Z" fill="#fff"/>
          <path id="Trazado_99356" data-name="Trazado 99356" d="M398.219,4356.316l-.586,5.089H387.416l1.1-5.089Z" fill="#d9a171"/>
          <path id="Trazado_99357" data-name="Trazado 99357" d="M398.892,4350.555l-.594,5.081-9.632.008,1.1-5.089Z" fill="#d9a171"/>
          <path id="Trazado_99358" data-name="Trazado 99358" d="M409.339,4367.84l-.008,5.089H397.966l.514-5.089Z" fill="#37474f"/>
          <path id="Trazado_99359" data-name="Trazado 99359" d="M409.339,4362.078v5.089H398.551l.514-5.089Z" fill="#37474f"/>
          <path id="Trazado_99360" data-name="Trazado 99360" d="M409.347,4356.316v5.081H399.129l.514-5.081Z" fill="#37474f"/>
          <path id="Trazado_99361" data-name="Trazado 99361" d="M409.418,4350.547v5.089h-9.632l.507-5.081Z" fill="#fff"/>
          <path id="Trazado_99362" data-name="Trazado 99362" d="M421.788,4367.84l.578,5.089H411l-.071-5.089Z" fill="#37474f"/>
          <path id="Trazado_99363" data-name="Trazado 99363" d="M421.131,4362.078l.578,5.081-10.787.008-.071-5.089Z" fill="#37474f"/>
          <path id="Trazado_99364" data-name="Trazado 99364" d="M420.474,4356.309l.578,5.089H410.842l-.071-5.081Z" fill="#37474f"/>
          <path id="Trazado_99365" data-name="Trazado 99365" d="M419.817,4350.547l.578,5.089h-9.632l-.071-5.089Z" fill="#fff"/>
          <path id="Trazado_99366" data-name="Trazado 99366" d="M434.245,4367.84l1.163,5.089H424.035l-.649-5.089Z" fill="#37474f"/>
          <path id="Trazado_99367" data-name="Trazado 99367" d="M432.923,4362.07l1.163,5.089H423.3l-.657-5.081Z" fill="#37474f"/>
          <path id="Trazado_99368" data-name="Trazado 99368" d="M431.6,4356.309l1.163,5.089H422.556l-.657-5.089Z" fill="#37474f"/>
          <path id="Trazado_99369" data-name="Trazado 99369" d="M430.288,4350.539l1.163,5.089-9.64.008-.649-5.089Z" fill="#fff"/>
          <path id="Trazado_99370" data-name="Trazado 99370" d="M446.694,4367.84l1.749,5.081-11.365.008-1.243-5.089Z" fill="#37474f"/>
          <path id="Trazado_99371" data-name="Trazado 99371" d="M444.716,4362.07l1.749,5.089h-10.8l-1.235-5.089Z" fill="#37474f"/>
          <path id="Trazado_99372" data-name="Trazado 99372" d="M442.729,4356.3l1.749,5.089-10.209.008-1.243-5.089Z" fill="#fff"/>
          <path id="Trazado_99373" data-name="Trazado 99373" d="M440.751,4350.539l1.749,5.089h-9.632l-1.243-5.089Z" fill="#fff"/>
          <path id="Trazado_99374" data-name="Trazado 99374" d="M389.822,4371.14h0c-.451,0-.792-.142-.792-.348s.444-.348.887-.348h0c.451,0,.791.134.791.348S390.249,4371.14,389.822,4371.14Zm.087-.506h0c-.261,0-.483.063-.507.158s.19.158.444.158h0c.261,0,.482-.063.5-.158S390.162,4370.634,389.909,4370.634Zm2.121.261-2.73-.966a.068.068,0,0,1-.072-.079c.008-.032.1-.079.19-.079h.119l2.738.973a.076.076,0,0,1,.072.072c0,.023-.095.087-.2.087a.279.279,0,0,1-.119-.008Zm-.4-.649h0c-.451,0-.791-.143-.791-.349s.435-.348.87-.348h0c.444,0,.792.143.792.348s-.428.349-.871.349Zm.079-.515h0c-.261,0-.482.072-.5.166s.19.159.435.159h0c.261,0,.483-.064.5-.159s-.19-.166-.436-.166Z" fill="#37474f"/>
          <path id="Trazado_99375" data-name="Trazado 99375" d="M392.449,4360.147c-.831,0-1.44-.348-1.361-.791a.79.79,0,0,1,.412-.491.43.43,0,0,1,.332,0c.1.04.1.119,0,.166a.526.526,0,0,0-.285.34.365.365,0,0,0,.23.38,1.5,1.5,0,0,0,.7.159,1.791,1.791,0,0,0,.752-.159.582.582,0,0,0,.364-.38.357.357,0,0,0-.174-.34c-.063-.047-.04-.126.071-.166a.413.413,0,0,1,.325,0,.531.531,0,0,1,.253.491C394.017,4359.8,393.288,4360.147,392.449,4360.147Z" fill="#37474f"/>
          <path id="Trazado_99376" data-name="Trazado 99376" d="M394,4358.422h-2.438c-.127,0-.214-.056-.206-.119h0l.127-.681c0-.063.119-.118.245-.118s.222.055.214.118l-.1.57h.792l.079-.49c0-.064.126-.119.245-.119s.222.055.214.119l-.079.49h.791l.1-.57c0-.063.119-.118.245-.118s.214.055.206.118l-.1.681h0A.376.376,0,0,1,394,4358.422Z" fill="#37474f"/>
          <path id="Trazado_99377" data-name="Trazado 99377" d="M393.534,4353.76c-.792,0-1.346-.356-1.274-.791a.789.789,0,0,1,.395-.491.386.386,0,0,1,.309,0c.1.048.1.127,0,.174a.5.5,0,0,0-.277.341.4.4,0,0,0,.214.379,1.327,1.327,0,0,0,.656.151,1.588,1.588,0,0,0,.7-.151.608.608,0,0,0,.348-.379.357.357,0,0,0-.166-.341c-.056-.047,0-.126.071-.174a.344.344,0,0,1,.309,0,.522.522,0,0,1,.229.491C395,4353.4,394.317,4353.76,393.534,4353.76Z" fill="#37474f"/>
          <path id="Trazado_99378" data-name="Trazado 99378" d="M402.532,4369.921l2.7.531c.1,0,.15.055.15.1a.1.1,0,0,1,0,.048.457.457,0,0,1-.34.063l-2.374-.459v.546c0,.064-.127.119-.269.119s-.253-.055-.246-.119l.048-.728h0l.047-.047h.309Z" fill="#fff"/>
          <path id="Trazado_99379" data-name="Trazado 99379" d="M404.574,4364.16c.578,0,1.037.229,1.021.506s-.491.507-1.068.507a1.459,1.459,0,0,1-.863-.23,1.214,1.214,0,0,1-.435.071c-.4,0-.713-.158-.705-.348s.349-.348.744-.348a1.173,1.173,0,0,1,.428.071A1.582,1.582,0,0,1,404.574,4364.16Zm0,.229c-.308,0-.578.127-.585.277s.245.269.561.277.57-.126.578-.277-.253-.277-.562-.277Zm-1.329.4c.142,0,.253-.056.261-.119s-.111-.119-.246-.119-.245.056-.245.119.095.087.222.087Z" fill="#fff"/>
          <path id="Trazado_99380" data-name="Trazado 99380" d="M403.886,4359.4c-.562,0-1-.229-.982-.514s.428-.483.934-.507h.245a4.923,4.923,0,0,1,.839.072,1.685,1.685,0,0,1,.7.277.44.44,0,0,1,.182.316c0,.063-.1.119-.23.119s-.221-.048-.229-.111a.271.271,0,0,0-.111-.2.864.864,0,0,0-.285-.134h-.1a.3.3,0,0,1,.072.2C404.9,4359.166,404.44,4359.4,403.886,4359.4Zm0-.229c.3,0,.554-.127.562-.285s-.23-.277-.531-.277-.546.126-.554.277.23.285.531.285Z" fill="#fff"/>
          <path id="Trazado_99381" data-name="Trazado 99381" d="M404.709,4353.547c-.127,0-.23-.056-.23-.119v-.665c0-.063.119-.127.246-.127s.221.064.221.127v.665C404.946,4353.491,404.835,4353.547,404.709,4353.547Z" fill="#37474f"/>
          <path id="Trazado_99382" data-name="Trazado 99382" d="M417.158,4369.818c.142,0,.261.048.261.119h.348c.143,0,.254.055.262.119s-.1.119-.246.119h-.348l.047.656h0a.084.084,0,0,1-.055.072.455.455,0,0,1-.356,0l-2.177-.792H416.9C416.9,4369.866,417.016,4369.818,417.158,4369.818Zm-1.369.372,1.171.42v-.42Z" fill="#fff"/>
          <path id="Trazado_99383" data-name="Trazado 99383" d="M415.733,4364.342a1.705,1.705,0,0,1,.792-.159,1.938,1.938,0,0,1,.791.159c.222.1.333.237.341.372h0c0,.134-.088.269-.293.372a.459.459,0,0,1-.356,0c-.1-.048-.1-.127,0-.174s.174-.127.166-.2a.293.293,0,0,0-.19-.206,1.04,1.04,0,0,0-.42-.079.957.957,0,0,0-.419.079.237.237,0,0,0-.158.206c0,.071.063.142.182.2s.11.126,0,.174h-.206l-1.148-.064a.336.336,0,0,1-.174-.055h0a.1.1,0,0,1,0-.055v-.626c0-.071.1-.126.246-.126s.245.055.245.126v.515h.435a.254.254,0,0,1-.047-.143C415.425,4364.579,415.52,4364.445,415.733,4364.342Z" fill="#fff"/>
          <path id="Trazado_99384" data-name="Trazado 99384" d="M416.121,4358.366c.554,0,1.021.23,1.037.515s-.356.483-.863.514h-.245a4.446,4.446,0,0,1-.855-.079,1.715,1.715,0,0,1-.728-.269.509.509,0,0,1-.214-.317c0-.071.087-.118.214-.126s.23.047.245.111a.293.293,0,0,0,.127.205,1.058,1.058,0,0,0,.3.127h.111a.326.326,0,0,1-.1-.206C415.14,4358.6,415.575,4358.366,416.121,4358.366Zm0,.238c-.293,0-.538.126-.53.277s.269.277.57.277.538-.119.522-.277-.245-.277-.546-.277Z" fill="#fff"/>
          <path id="Trazado_99385" data-name="Trazado 99385" d="M415.575,4353.5c0,.063-.087.111-.2.111s-.206-.048-.213-.111l-.048-.855c0-.055.087-.11.2-.11s.2.047.206.11Zm-1.06-.57h0c.142,0,.269.064.269.143s-.111.15-.254.15h0c-.142,0-.261-.063-.269-.15s.1-.143.246-.143Zm1.582,0h0c.143,0,.262.064.262.143s-.1.15-.246.15h0c-.15,0-.269-.071-.277-.15s.151-.143.293-.143Z" fill="#37474f"/>
          <path id="Trazado_99386" data-name="Trazado 99386" d="M427.779,4370.159H430.5c.143,0,.262.055.277.118s-.087.119-.229.119h-2.311l.119.079s.047.048.047.064,0,.079-.111.095a.455.455,0,0,1-.356,0l-.38-.262h.2Z" fill="#fff"/>
          <path id="Trazado_99387" data-name="Trazado 99387" d="M429.354,4364.144c.142,0,.253.055.269.119l.142.751h0a.078.078,0,0,1-.063.087.476.476,0,0,1-.348,0l-1.29-.633a1.078,1.078,0,0,0-.435-.087.851.851,0,0,0-.364.071c-.119.056-.167.127-.151.206s.071.127.174.182l.135.064c.1.047.1.118,0,.166a.467.467,0,0,1-.341,0l-.134-.063a.528.528,0,0,1-.332-.341.416.416,0,0,1,.284-.38,1.656,1.656,0,0,1,.681-.134,1.884,1.884,0,0,1,.792.174l.791.4-.087-.452A.321.321,0,0,1,429.354,4364.144Z" fill="#fff"/>
          <path id="Trazado_99388" data-name="Trazado 99388" d="M426.766,4358.556a1.454,1.454,0,0,1,.681-.134,1.822,1.822,0,0,1,.751.15c.222.1.349.238.372.372s-.047.269-.229.372a.4.4,0,0,1-.333,0c-.1-.047-.11-.119,0-.166a.214.214,0,0,0,.127-.206.334.334,0,0,0-.206-.2.868.868,0,0,0-.411-.087.678.678,0,0,0-.372.087c-.1.056-.143.127-.135.2s0,.063-.055.087h0a.433.433,0,0,1-.333,0l-.466-.214.055.341c0,.063-.079.119-.214.119s-.245-.056-.253-.119l-.1-.625c0-.072.087-.119.214-.119h.174l.586.269A.544.544,0,0,1,426.766,4358.556Z" fill="#fff"/>
          <path id="Trazado_99389" data-name="Trazado 99389" d="M425.8,4352.731l.681.254.594-.254a.361.361,0,0,1,.285,0s.055.048.055.072a.094.094,0,0,1-.063.095l-.5.213.578.206a.121.121,0,0,1,.1.087.211.211,0,0,1,0,.071.32.32,0,0,1-.277,0l-.7-.253-.593.253a.353.353,0,0,1-.285,0c-.072-.055-.064-.118,0-.158l.49-.206-.562-.213c-.095-.04-.126-.111-.071-.167A.336.336,0,0,1,425.8,4352.731Z" fill="#37474f"/>
          <path id="Trazado_99390" data-name="Trazado 99390" d="M442.856,4370.293c0-.087.111-.158.3-.158s.365.071.4.158-.111.159-.3.159S442.887,4370.38,442.856,4370.293Z" fill="#fff"/>
          <path id="Trazado_99391" data-name="Trazado 99391" d="M440.418,4365.228a3.857,3.857,0,0,1-1.1-.142c-.3-.087-.546-.23-.594-.4s.119-.3.372-.388a2.955,2.955,0,0,1,1.006-.142,3.752,3.752,0,0,1,1.084.142c.308.087.562.23.609.388s-.118.309-.372.4A3.007,3.007,0,0,1,440.418,4365.228Zm-.245-.831a2.616,2.616,0,0,0-.792.1c-.166.063-.237.135-.213.2s.126.142.324.206a3.311,3.311,0,0,0,.792.1,2.622,2.622,0,0,0,.751-.1c.167-.064.23-.135.206-.206s-.119-.135-.332-.2a3.2,3.2,0,0,0-.736-.1Z" fill="#fff"/>
          <path id="Trazado_99392" data-name="Trazado 99392" d="M438.368,4359.3c-.126,0-.253-.055-.277-.126l-.182-.649c0-.072.072-.127.2-.127s.253.055.277.127l.19.649C438.6,4359.213,438.527,4359.3,438.368,4359.3Zm.792,0c-.143,0-.269-.055-.285-.126l-.2-.649c0-.072.079-.127.214-.127s.261.055.277.127l.2.649c.007.039-.048.126-.222.126Z" fill="#37474f"/>
          <path id="Trazado_99393" data-name="Trazado 99393" d="M437.094,4353.19l.1.3c0,.063-.063.111-.182.111s-.237-.048-.253-.111l-.087-.3h-.515c-.118,0-.237-.055-.253-.118s.063-.127.19-.127h.538l-.087-.3c0-.063.063-.118.182-.118s.23.055.245.118l.088.3h.546a.286.286,0,0,1,.261.119c0,.071-.064.126-.19.126Z" fill="#37474f"/>
          <path id="Trazado_99394" data-name="Trazado 99394" d="M390.629,4363.9c.1,0,.182.04.174.088l-.047.269c.617.11,2.232.387,2.7.451a.415.415,0,0,1,.142.047.064.064,0,0,1,.04.064s0,.055-.087.079-.618.285-.839.372a.825.825,0,0,1-.459.055c-.024-.016,0,0,0-.047s0-.056.071-.08l.214-.095.174-.079.166-.071.174-.079-2.548-.443h-.064s-.055-.048-.047-.071l.063-.349C390.439,4363.962,390.534,4363.9,390.629,4363.9Z" fill="#37474f"/>
          <path id="Trazado_99395" data-name="Trazado 99395" d="M384.456,4350.555l-6.142,22.374H366.348l8.5-22.366Z" fill="#455a64"/>
          <path id="Trazado_99396" data-name="Trazado 99396" d="M374.207,4360.662h4.171c.221,0,.364.087.332.2s-.229.19-.451.19h-3.474l.111.143a.105.105,0,0,1,0,.1.383.383,0,0,1-.254.166.561.561,0,0,1-.514-.071l-.364-.428h.253Z" fill="#fff"/>
          <path id="Trazado_99397" data-name="Trazado 99397" d="M378.995,4358.612c.214,0,.348.087.317.2l-.38,1.25h0a.307.307,0,0,1-.166.142.71.71,0,0,1-.546,0l-1.536-1.052a1.1,1.1,0,0,0-.617-.143,1.935,1.935,0,0,0-.641.111.687.687,0,0,0-.412.341.252.252,0,0,0,.127.308l.158.111c.119.079.063.2-.119.277a.673.673,0,0,1-.546,0l-.158-.111a.467.467,0,0,1-.229-.57,1.248,1.248,0,0,1,.791-.625,3.176,3.176,0,0,1,1.187-.221,2.07,2.07,0,0,1,1.132.277l.981.672.23-.752C378.584,4358.7,378.781,4358.612,378.995,4358.612Z" fill="#fff"/>
          <path id="Trazado_99398" data-name="Trazado 99398" d="M377.048,4356.784a3.161,3.161,0,0,1,1.267-.254,2.143,2.143,0,0,1,1.108.254.537.537,0,0,1,.308.625,1.173,1.173,0,0,1-.688.617.658.658,0,0,1-.546,0c-.127-.079-.088-.206.087-.285a.63.63,0,0,0,.372-.332.3.3,0,0,0-.159-.341,1.2,1.2,0,0,0-.609-.142,1.69,1.69,0,0,0-.689.142.729.729,0,0,0-.387.333c0,.063-.072.111-.167.15h0a.689.689,0,0,1-.546,0l-.585-.356-.2.57c0,.111-.246.2-.459.2s-.356-.087-.317-.2l.364-1.045c0-.111.246-.2.451-.2a.577.577,0,0,1,.174,0h.087l.729.451A1.529,1.529,0,0,1,377.048,4356.784Z" fill="#fff"/>
          <path id="Trazado_99399" data-name="Trazado 99399" d="M379.525,4354.077c.206,0,.333.087.3.2v.039h.507c.2,0,.332.079.3.19s-.213.2-.419.2h-.507l-.348,1.108h0a.221.221,0,0,1-.119.127.64.64,0,0,1-.522,0l-2.635-1.306h0v-.04h2.865v-.039C379.169,4354.172,379.328,4354.077,379.525,4354.077Zm-2.2.625,1.409.7.229-.7Z" fill="#fff"/>
          <path id="Trazado_99400" data-name="Trazado 99400" d="M378.544,4352.32a2.914,2.914,0,0,1,1.219-.261,1.974,1.974,0,0,1,1.045.261.521.521,0,0,1,.284.617h0a1.112,1.112,0,0,1-.664.617.6.6,0,0,1-.523,0c-.118-.079-.079-.205.087-.284a.619.619,0,0,0,.364-.341.275.275,0,0,0-.15-.332,1.051,1.051,0,0,0-.57-.143,1.588,1.588,0,0,0-.665.143.608.608,0,0,0-.364.332.278.278,0,0,0,.143.341c.119.079.071.205-.1.284l-.1.04h-.23l-1.662-.1a.364.364,0,0,1-.229-.1h0a.07.07,0,0,1,0-.087l.364-1.045c0-.11.229-.2.435-.2s.333.087.293.2l-.3.871.633.04a.633.633,0,0,1,0-.238A1.179,1.179,0,0,1,378.544,4352.32Z" fill="#fff"/>
        </g>
        <g id="freepik--speech-bubble--inject-11">
          <path id="Trazado_99401" data-name="Trazado 99401" d="M513.451,4130.236a26.418,26.418,0,0,1-42.167,21.219l-12.972,3.3,5.39-12.054a26.426,26.426,0,1,1,49.718-12.465Z" fill="#fff"/>
          <path id="Trazado_99402" data-name="Trazado 99402" d="M513.451,4130.236a26.55,26.55,0,0,1-3.917,13.874,29.908,29.908,0,0,1-2.1,2.984,29.569,29.569,0,0,1-2.525,2.635c-.467.4-.879.855-1.377,1.2l-1.464,1.1c-.483.364-1.029.657-1.536.982l-.791.482c-.261.151-.546.277-.792.412l-1.646.791-1.717.642a12.165,12.165,0,0,1-1.749.53c-.594.142-1.179.348-1.781.435a25.769,25.769,0,0,1-3.641.443,22.61,22.61,0,0,1-3.664,0,26.478,26.478,0,0,1-13.62-5.073l.237.048-12.924,3.371-.7.182.293-.665,5.358-12.061v.332a26.172,26.172,0,0,1-3.165-11.642,26.616,26.616,0,1,1,53.215-1.005Zm0,0a26.485,26.485,0,0,0-10.217-20.767,26.832,26.832,0,0,0-10.763-4.946,26.328,26.328,0,0,0-11.809.324,25.988,25.988,0,0,0-10.478,5.414,27.228,27.228,0,0,0-7.012,9.426,26.115,26.115,0,0,0,.87,22.84l.087.166-.071.167-5.421,12.037-.4-.475,12.964-3.244h.127l.11.079a26.125,26.125,0,0,0,13.312,5.152,23,23,0,0,0,3.617.055,26.214,26.214,0,0,0,3.6-.387c.6-.088,1.179-.277,1.773-.412a12.135,12.135,0,0,0,1.741-.507l1.71-.609,1.638-.791c.277-.135.554-.254.791-.4l.792-.467c.514-.325,1.06-.6,1.543-.958l1.464-1.084a16.408,16.408,0,0,0,1.377-1.187,30.162,30.162,0,0,0,2.533-2.612,28.808,28.808,0,0,0,2.105-2.968A26.485,26.485,0,0,0,513.451,4130.236Z" fill="#344154"/>
          <path id="Trazado_99403" data-name="Trazado 99403" d="M484.168,4144.181l-9.837-9.948,3.308-3.261,5.738,5.809,11.935-18.7,3.91,2.493Z" fill="#d9a171"/>
        </g>
      </g>
    </g>
  </g>
</svg>
