<svg xmlns="http://www.w3.org/2000/svg" width="427.106" height="373.329" viewBox="0 0 427.106 373.329">
  <g id="Grupo_66547" data-name="Grupo 66547" transform="translate(-139 -13053.932)">
    <g id="Grupo_59388" data-name="Grupo 59388" transform="translate(-39.151 6183.722)">
      <circle id="Elipse_4027" data-name="Elipse 4027" cx="184.164" cy="184.164" r="184.164" transform="translate(200.133 6872.709)" fill="#aed3f2" stroke="#aed3f2" stroke-miterlimit="10" stroke-width="5"/>
      <g id="freepik--background-complete--inject-14">
        <path id="Trazado_103290" data-name="Trazado 103290" d="M182.3,7175.775l4.775,31.371H214.81l6.437-30.915Z" fill="#ebebeb"/>
        <path id="Trazado_103291" data-name="Trazado 103291" d="M217.4,7195.857c0,.09-7.1.16-15.871.16s-15.9-.044-15.9-.16,7.1-.167,15.871-.167S217.4,7195.793,217.4,7195.857Z" fill="#fafafa"/>
        <path id="Trazado_103292" data-name="Trazado 103292" d="M217.48,7194.336c0,.09-7.156.167-15.981.167s-15.98-.077-15.98-.167,7.156-.16,15.98-.16S217.48,7194.246,217.48,7194.336Z" fill="#fafafa"/>
        <path id="Trazado_103293" data-name="Trazado 103293" d="M217.4,7192.6c0,.09-7.149.16-15.974.16s-15.98-.07-15.98-.16,7.149-.161,15.98-.161S217.4,7192.507,217.4,7192.6Z" fill="#fafafa"/>
        <path id="Trazado_103294" data-name="Trazado 103294" d="M190.262,7205.355a25.567,25.567,0,0,1-.847-3.947,26.6,26.6,0,0,1-.533-4,24.293,24.293,0,0,1,.853,3.947A25.108,25.108,0,0,1,190.262,7205.355Z" fill="#fafafa"/>
        <path id="Trazado_103295" data-name="Trazado 103295" d="M192.149,7205.022a31.853,31.853,0,0,1-.341-3.851,30.02,30.02,0,0,1-.179-3.851,18.8,18.8,0,0,1,.5,3.851A18.361,18.361,0,0,1,192.149,7205.022Z" fill="#fafafa"/>
        <path id="Trazado_103296" data-name="Trazado 103296" d="M195.576,7205.022a19.667,19.667,0,0,1-.719-3.954,18.89,18.89,0,0,1-.212-4.011,119.241,119.241,0,0,1,.931,7.965Z" fill="#fafafa"/>
        <path id="Trazado_103297" data-name="Trazado 103297" d="M198,7205.189a20.528,20.528,0,0,1-.385-4.018,19.464,19.464,0,0,1,.128-4.03,34.883,34.883,0,0,1,.2,4.024A33.345,33.345,0,0,1,198,7205.189Z" fill="#fafafa"/>
        <path id="Trazado_103298" data-name="Trazado 103298" d="M202.276,7205.022a22.563,22.563,0,0,1-.289-3.806,22.818,22.818,0,0,1,.032-3.851,45.563,45.563,0,0,1,.257,7.631Z" fill="#fafafa"/>
        <path id="Trazado_103299" data-name="Trazado 103299" d="M205.4,7205.189a23.911,23.911,0,0,1-.128-3.941,24.375,24.375,0,0,1,.192-3.941,23.482,23.482,0,0,1,.135,3.941A23.928,23.928,0,0,1,205.4,7205.189Z" fill="#fafafa"/>
        <path id="Trazado_103300" data-name="Trazado 103300" d="M208.321,7204.771a51.833,51.833,0,0,1,.8-8.208,27.555,27.555,0,0,1-.238,4.12A26.556,26.556,0,0,1,208.321,7204.771Z" fill="#fafafa"/>
        <path id="Trazado_103301" data-name="Trazado 103301" d="M212.1,7204.361a21.634,21.634,0,0,1,1.5-6.887,30.96,30.96,0,0,1-.693,3.453A29.97,29.97,0,0,1,212.1,7204.361Z" fill="#fafafa"/>
        <path id="Trazado_103302" data-name="Trazado 103302" d="M209.425,7113.876a.5.5,0,0,1,0,.154,2.114,2.114,0,0,1-.128.442c-.128.411-.308.982-.526,1.695s-.527,1.63-.815,2.682-.642,2.24-1,3.575-.731,2.792-1.084,4.371-.706,3.273-1.065,5.051c-.642,3.581-1.284,7.534-1.7,11.706s-.591,8.182-.642,11.815c0,1.823,0,3.549.051,5.134s.116,3.119.193,4.493.192,2.618.276,3.709.18,2.022.269,2.792.135,1.328.18,1.758a2.23,2.23,0,0,0,.039.462.866.866,0,0,1,0,.161.513.513,0,0,1-.039-.154,2.964,2.964,0,0,0-.071-.456c-.057-.43-.141-1.014-.243-1.758s-.225-1.7-.321-2.792-.251-2.33-.321-3.7-.2-2.882-.238-4.493-.07-3.35-.083-5.172c.038-3.646.218-7.657.642-11.848s1.046-8.144,1.726-11.725c.372-1.791.706-3.485,1.1-5.057s.751-3.042,1.117-4.371.731-2.522,1.052-3.568.642-1.925.867-2.67.442-1.283.584-1.675c.064-.173.115-.321.16-.436A.621.621,0,0,1,209.425,7113.876Z" fill="#ebebeb"/>
        <path id="Trazado_103303" data-name="Trazado 103303" d="M204.419,7133.3a10.341,10.341,0,0,1,4.313-5.474,2.461,2.461,0,0,1,2.279-.417c.969.468,1.046,1.829.757,2.862a7.579,7.579,0,0,1-3.138,4.281,6.422,6.422,0,0,1-4.711,1.213" fill="#ebebeb"/>
        <path id="Trazado_103304" data-name="Trazado 103304" d="M202.738,7146.44c.712-2.7,2.875-6.553,5.134-8.228a3.282,3.282,0,0,1,1.168-.642,1.353,1.353,0,0,1,1.245.27,1.924,1.924,0,0,1,.276,1.8,10.909,10.909,0,0,1-8.093,8.144" fill="#ebebeb"/>
        <path id="Trazado_103305" data-name="Trazado 103305" d="M202.269,7157.992a15.825,15.825,0,0,1,5.135-6.489,2.466,2.466,0,0,1,1.8-.641c.982.179,1.425,1.379,1.335,2.368-.173,2.041-1.733,3.677-3.344,4.948a20.775,20.775,0,0,1-4.781,2.458" fill="#ebebeb"/>
        <path id="Trazado_103306" data-name="Trazado 103306" d="M202.533,7166.264a15.193,15.193,0,0,1,4.4-5.005,3.177,3.177,0,0,1,1.283-.591,1.354,1.354,0,0,1,1.284.494c.436.642,0,1.521-.456,2.144a12.513,12.513,0,0,1-6.27,4.6" fill="#ebebeb"/>
        <path id="Trazado_103307" data-name="Trazado 103307" d="M202.314,7162.889a49.208,49.208,0,0,0-6.283-6.418c-.359-.3-.808-.642-1.251-.475a.944.944,0,0,0-.578.847,2.385,2.385,0,0,0,.238,1.046,12.19,12.19,0,0,0,8.093,6.809" fill="#ebebeb"/>
        <path id="Trazado_103308" data-name="Trazado 103308" d="M202.513,7152.087l-4.935-6.013a5.886,5.886,0,0,0-1.6-1.521,2.035,2.035,0,0,0-2.1,0,1.993,1.993,0,0,0-.68,1.989,5.338,5.338,0,0,0,.962,1.977,14.686,14.686,0,0,0,3.6,3.819,5.984,5.984,0,0,0,4.492,1.392" fill="#ebebeb"/>
        <path id="Trazado_103309" data-name="Trazado 103309" d="M203.2,7139.932a17.149,17.149,0,0,0-4.967-7.457,2.884,2.884,0,0,0-1.284-.758,2.193,2.193,0,0,0-2.265,1.592,4.079,4.079,0,0,0,.449,3.267,8.531,8.531,0,0,0,2.323,2.451,19.68,19.68,0,0,0,5.487,2.965" fill="#ebebeb"/>
        <path id="Trazado_103310" data-name="Trazado 103310" d="M205.2,7129.112c-.481-3.485-2.3-6.418-4.4-9.216-.443-.591-1.059-1.226-1.8-1.111a1.425,1.425,0,0,0-1.027.886,3.287,3.287,0,0,0-.2,1.393,10.782,10.782,0,0,0,7,9.626" fill="#ebebeb"/>
        <path id="Trazado_103311" data-name="Trazado 103311" d="M206.557,7123.554a28.651,28.651,0,0,1-.18-5.4,9.705,9.705,0,0,1,1.79-5.025,4.136,4.136,0,0,1,1.791-1.425,2.266,2.266,0,0,1,2.2.289,2.4,2.4,0,0,1,.751,1.926,6.016,6.016,0,0,1-.558,2.066c-1.284,3.164-3.5,6.668-5.776,7.554" fill="#ebebeb"/>
        <path id="Trazado_103312" data-name="Trazado 103312" d="M185.05,7127.706a2.05,2.05,0,0,1,0,.443v3.286a25.908,25.908,0,0,0,.1,2.644c.09,1.964.276,4.3.577,6.873s.758,5.4,1.361,8.344,1.36,5.692,2.1,8.182,1.527,4.692,2.239,6.527c.334.924.687,1.74.976,2.465s.552,1.341.776,1.842.366.872.495,1.168a2.19,2.19,0,0,1,.154.417,2.146,2.146,0,0,1-.212-.392c-.141-.288-.328-.641-.552-1.142s-.526-1.1-.828-1.823-.674-1.534-1.027-2.451c-.738-1.829-1.527-4.037-2.3-6.521s-1.508-5.262-2.131-8.2-1.039-5.776-1.347-8.343-.45-4.929-.507-6.9c-.045-.982-.039-1.874-.045-2.657s0-1.457,0-2.009.032-.943.045-1.283A2.063,2.063,0,0,1,185.05,7127.706Z" fill="#e0e0e0"/>
        <path id="Trazado_103313" data-name="Trazado 103313" d="M185.827,7142.011a7.348,7.348,0,0,1,1.758-4.633,1.755,1.755,0,0,1,1.464-.777c.763.109,1.11,1.021,1.136,1.784a5.4,5.4,0,0,1-1.22,3.562,4.547,4.547,0,0,1-2.952,1.823" fill="#e0e0e0"/>
        <path id="Trazado_103314" data-name="Trazado 103314" d="M187.5,7151.3a12.372,12.372,0,0,1,1.714-6.706,2.33,2.33,0,0,1,.641-.674.971.971,0,0,1,.9-.084,1.342,1.342,0,0,1,.578,1.162,7.785,7.785,0,0,1-3.755,7.291" fill="#e0e0e0"/>
        <path id="Trazado_103315" data-name="Trazado 103315" d="M189.671,7159.275a11.31,11.31,0,0,1,2.118-5.532,1.748,1.748,0,0,1,1.085-.821c.706-.09,1.283.642,1.425,1.322a5.467,5.467,0,0,1-1.22,4.088,14.909,14.909,0,0,1-2.721,2.7" fill="#e0e0e0"/>
        <path id="Trazado_103316" data-name="Trazado 103316" d="M191.635,7164.859a10.863,10.863,0,0,1,1.925-4.351,2.254,2.254,0,0,1,.771-.687.955.955,0,0,1,.988.058c.436.346.34,1.033.154,1.559a8.984,8.984,0,0,1-3.28,4.493" fill="#e0e0e0"/>
        <path id="Trazado_103317" data-name="Trazado 103317" d="M190.762,7162.613a34.857,34.857,0,0,0-5.66-3.01,1.012,1.012,0,0,0-.95-.052.642.642,0,0,0-.212.7,1.612,1.612,0,0,0,.385.642,8.7,8.7,0,0,0,6.976,2.894" fill="#e0e0e0"/>
        <path id="Trazado_103318" data-name="Trazado 103318" d="M188.574,7155.213l-4.66-3.036a4.144,4.144,0,0,0-1.418-.686,1.435,1.435,0,0,0-1.437.436,1.412,1.412,0,0,0-.033,1.5,3.735,3.735,0,0,0,1.072,1.143,10.552,10.552,0,0,0,3.273,1.822,4.377,4.377,0,0,0,3.37,0" fill="#e0e0e0"/>
        <path id="Trazado_103319" data-name="Trazado 103319" d="M186.424,7146.786a12.24,12.24,0,0,0-4.968-4,2.021,2.021,0,0,0-1.046-.238,1.554,1.554,0,0,0-1.2,1.572,2.928,2.928,0,0,0,.963,2.125,6.2,6.2,0,0,0,2.111,1.174,14.348,14.348,0,0,0,4.377.835" fill="#e0e0e0"/>
        <path id="Trazado_103320" data-name="Trazado 103320" d="M185.429,7138.982a14.481,14.481,0,0,0-4.974-5.327,1.488,1.488,0,0,0-1.463-.372,1,1,0,0,0-.513.822,2.4,2.4,0,0,0,.166.994,7.7,7.7,0,0,0,6.835,5.045" fill="#e0e0e0"/>
        <path id="Trazado_103321" data-name="Trazado 103321" d="M185.179,7134.888a20.881,20.881,0,0,1-1.284-3.633,6.845,6.845,0,0,1,.141-3.806,2.915,2.915,0,0,1,.912-1.36,1.621,1.621,0,0,1,1.559-.276,1.734,1.734,0,0,1,.931,1.155,4.358,4.358,0,0,1,.064,1.527c-.212,2.439-.956,5.295-2.323,6.418" fill="#e0e0e0"/>
        <path id="Trazado_103322" data-name="Trazado 103322" d="M220.117,7127.4a4.126,4.126,0,0,1,.039.443c0,.321,0,.738.045,1.284a16.1,16.1,0,0,1,0,2.009c-.039.783,0,1.668-.051,2.65-.058,1.97-.225,4.313-.507,6.9s-.732,5.423-1.342,8.344-1.367,5.7-2.131,8.195-1.565,4.7-2.31,6.521c-.347.924-.712,1.732-1.02,2.451s-.591,1.335-.828,1.829l-.552,1.143a2.481,2.481,0,0,1-.212.385,1.71,1.71,0,0,1,.154-.417c.122-.3.289-.681.494-1.162s.488-1.123.777-1.848.642-1.541.975-2.465c.713-1.829,1.47-4.043,2.234-6.52s1.476-5.25,2.1-8.183,1.046-5.776,1.367-8.343.488-4.91.571-6.874c.065-.982.071-1.867.1-2.65s0-1.451,0-2v-1.283A1.9,1.9,0,0,1,220.117,7127.4Z" fill="#ebebeb"/>
        <path id="Trazado_103323" data-name="Trazado 103323" d="M219.322,7141.71a7.343,7.343,0,0,0-1.765-4.64,1.761,1.761,0,0,0-1.464-.777c-.757.109-1.1,1.021-1.129,1.791a5.412,5.412,0,0,0,1.219,3.587,4.567,4.567,0,0,0,2.946,1.823" fill="#ebebeb"/>
        <path id="Trazado_103324" data-name="Trazado 103324" d="M217.666,7151a12.372,12.372,0,0,0-1.714-6.706,2.336,2.336,0,0,0-.642-.642.97.97,0,0,0-.9-.09,1.386,1.386,0,0,0-.578,1.168,7.8,7.8,0,0,0,3.761,7.284" fill="#ebebeb"/>
        <path id="Trazado_103325" data-name="Trazado 103325" d="M215.471,7158.961a11.3,11.3,0,0,0-2.118-5.532,1.747,1.747,0,0,0-1.091-.828c-.706-.09-1.284.642-1.418,1.322a5.463,5.463,0,0,0,1.213,4.094,14.692,14.692,0,0,0,2.727,2.7" fill="#ebebeb"/>
        <path id="Trazado_103326" data-name="Trazado 103326" d="M213.546,7164.557a10.915,10.915,0,0,0-1.926-4.351,2.265,2.265,0,0,0-.776-.687.962.962,0,0,0-.982.052c-.443.346-.34,1.033-.154,1.559a8.93,8.93,0,0,0,3.279,4.493" fill="#ebebeb"/>
        <path id="Trazado_103327" data-name="Trazado 103327" d="M214.406,7162.305a35.561,35.561,0,0,1,5.654-3,1,1,0,0,1,.956-.051.642.642,0,0,1,.212.7,1.734,1.734,0,0,1-.392.642,8.7,8.7,0,0,1-6.97,2.894" fill="#ebebeb"/>
        <path id="Trazado_103328" data-name="Trazado 103328" d="M216.594,7154.911l4.659-3.035a4.329,4.329,0,0,1,1.412-.694,1.471,1.471,0,0,1,1.444.437,1.435,1.435,0,0,1,.032,1.5,3.814,3.814,0,0,1-1.084,1.136,10.379,10.379,0,0,1-3.273,1.829,4.392,4.392,0,0,1-3.363,0" fill="#ebebeb"/>
        <path id="Trazado_103329" data-name="Trazado 103329" d="M218.744,7146.485a12.325,12.325,0,0,1,4.987-4.012,2.161,2.161,0,0,1,1.046-.237,1.56,1.56,0,0,1,1.2,1.572,2.936,2.936,0,0,1-1.014,2.131,6.208,6.208,0,0,1-2.1,1.168,14.192,14.192,0,0,1-4.377.835" fill="#ebebeb"/>
        <path id="Trazado_103330" data-name="Trazado 103330" d="M219.732,7138.674a14.458,14.458,0,0,1,4.981-5.327,1.521,1.521,0,0,1,1.463-.372,1.027,1.027,0,0,1,.513.828,2.382,2.382,0,0,1-.167.988,7.7,7.7,0,0,1-6.835,5.051" fill="#ebebeb"/>
        <path id="Trazado_103331" data-name="Trazado 103331" d="M219.963,7134.612a21.159,21.159,0,0,0,1.284-3.639,6.92,6.92,0,0,0-.141-3.806,2.906,2.906,0,0,0-.912-1.354,1.6,1.6,0,0,0-1.559-.276,1.7,1.7,0,0,0-.931,1.155,4.362,4.362,0,0,0-.064,1.528c.212,2.438.95,5.294,2.323,6.417" fill="#ebebeb"/>
        <path id="Trazado_103332" data-name="Trazado 103332" d="M179.12,7169.544v5.872a2.312,2.312,0,0,0,2.311,2.311h40.163a2.311,2.311,0,0,0,2.31-2.311h0v-5.872Z" fill="#ebebeb"/>
        <path id="Trazado_103333" data-name="Trazado 103333" d="M182.605,7177.746l.334,1.867L220,7182.258l.937-4.512Z" fill="#e0e0e0"/>
        <path id="Trazado_103334" data-name="Trazado 103334" d="M273.527,7115.307a7.023,7.023,0,0,0-5.87-8.009l-.048-.007a.705.705,0,0,0-.5.058.722.722,0,0,0-.186.68,8.464,8.464,0,0,0,6.591,7.477" fill="#e0e0e0"/>
        <path id="Trazado_103335" data-name="Trazado 103335" d="M263.7,7128.258c1.764,3.645,4.312,6.1,7.463,6.225.642,0,1.1-.391,1.708-.43a3.76,3.76,0,0,1,1.007.379,1.441,1.441,0,0,0,.526.122c3.254-.173,6.033-2.465,7.9-6.3,2.605-5.365,1.8-11.129-1.791-12.881a8.75,8.75,0,0,0-1.476-.577,5.863,5.863,0,0,0-1.784-.206,13.233,13.233,0,0,0-4.082.925,1.357,1.357,0,0,0-.173.064c-2.92-1.284-5.256-1.284-7.515-.206C261.885,7117.129,261.089,7122.893,263.7,7128.258Z" fill="#ebebeb"/>
        <path id="Trazado_103336" data-name="Trazado 103336" d="M263.752,7122.822a2.835,2.835,0,0,1-.3-1.078,5.819,5.819,0,0,1,1.823-4.935,2.907,2.907,0,0,1,.924-.642c0,.038-.334.269-.8.751a6.4,6.4,0,0,0-1.393,2.207,6.486,6.486,0,0,0-.379,2.568C263.675,7122.4,263.8,7122.809,263.752,7122.822Z" fill="#fafafa"/>
        <path id="Trazado_103337" data-name="Trazado 103337" d="M264.413,7125.37c-.064,0-.179-.237-.256-.565s-.084-.6,0-.642.179.238.256.572S264.484,7125.357,264.413,7125.37Z" fill="#fafafa"/>
        <path id="Trazado_103338" data-name="Trazado 103338" d="M280.933,7106.527c0,.045-.674.308-1.688.912a13.63,13.63,0,0,0-4.89,5.1,13.31,13.31,0,0,0-.841,1.887c-.392,1.11-.514,1.842-.559,1.829a2.063,2.063,0,0,1,.058-.513,4.841,4.841,0,0,1,.116-.6c.064-.231.115-.494.218-.777a11.624,11.624,0,0,1,.809-1.925,13.524,13.524,0,0,1,1.418-2.15,13.882,13.882,0,0,1,1.823-1.816,13.211,13.211,0,0,1,1.739-1.175c.257-.154.507-.256.719-.359a3.741,3.741,0,0,1,.564-.237A2.467,2.467,0,0,1,280.933,7106.527Z" fill="#e0e0e0"/>
        <path id="Trazado_103339" data-name="Trazado 103339" d="M310.558,7115.307a7.029,7.029,0,0,0-5.876-8.016h0a.718.718,0,0,0-.507.058.738.738,0,0,0-.186.68,8.46,8.46,0,0,0,6.6,7.477" fill="#e0e0e0"/>
        <path id="Trazado_103340" data-name="Trazado 103340" d="M300.725,7128.258c1.772,3.645,4.313,6.1,7.464,6.225.642,0,1.111-.391,1.707-.43a3.753,3.753,0,0,1,1.008.379,1.441,1.441,0,0,0,.526.122c3.261-.173,6.033-2.465,7.9-6.3,2.605-5.365,1.8-11.129-1.791-12.881a8.97,8.97,0,0,0-1.47-.577,5.9,5.9,0,0,0-1.79-.206,13.29,13.29,0,0,0-4.082.925l-.173.064c-2.92-1.284-5.25-1.284-7.515-.206C298.9,7117.129,298.12,7122.893,300.725,7128.258Z" fill="#ebebeb"/>
        <path id="Trazado_103341" data-name="Trazado 103341" d="M300.79,7122.822a2.747,2.747,0,0,1-.3-1.078,5.819,5.819,0,0,1,1.823-4.935,2.809,2.809,0,0,1,.93-.642c0,.038-.334.269-.808.751a6.4,6.4,0,0,0-1.387,2.207,6.509,6.509,0,0,0-.385,2.568C300.706,7122.4,300.828,7122.809,300.79,7122.822Z" fill="#fafafa"/>
        <path id="Trazado_103342" data-name="Trazado 103342" d="M301.47,7125.37c-.071,0-.186-.237-.263-.565s-.084-.6,0-.642.179.238.256.572A1,1,0,0,1,301.47,7125.37Z" fill="#fafafa"/>
        <path id="Trazado_103343" data-name="Trazado 103343" d="M317.983,7106.527c0,.045-.674.308-1.688.912a13.981,13.981,0,0,0-1.681,1.2,13.451,13.451,0,0,0-3.209,3.9,14.2,14.2,0,0,0-.841,1.887c-.392,1.11-.507,1.842-.558,1.829a2.537,2.537,0,0,1,.057-.513,5.055,5.055,0,0,1,.122-.6,7.213,7.213,0,0,1,.212-.777,12.27,12.27,0,0,1,.809-1.925,13.528,13.528,0,0,1,1.418-2.15,13.884,13.884,0,0,1,1.823-1.816,12.708,12.708,0,0,1,1.784-1.181,6.636,6.636,0,0,1,.719-.359,3.632,3.632,0,0,1,.558-.238A2.593,2.593,0,0,1,317.983,7106.527Z" fill="#e0e0e0"/>
        <path id="Trazado_103344" data-name="Trazado 103344" d="M254.62,7115.307a7.022,7.022,0,0,0-5.871-8.008l-.053-.008a.709.709,0,0,0-.5.058.727.727,0,0,0-.186.68,8.467,8.467,0,0,0,6.611,7.477" fill="#e0e0e0"/>
        <path id="Trazado_103345" data-name="Trazado 103345" d="M244.775,7128.258c1.771,3.645,4.319,6.1,7.47,6.225.642,0,1.1-.391,1.707-.43a3.754,3.754,0,0,1,1.008.379,1.436,1.436,0,0,0,.526.122c3.254-.173,6.033-2.465,7.9-6.3,2.606-5.365,1.8-11.129-1.79-12.881a8.817,8.817,0,0,0-1.476-.577,5.871,5.871,0,0,0-1.784-.206,13.233,13.233,0,0,0-4.082.925,1.357,1.357,0,0,0-.173.064c-2.92-1.284-5.257-1.284-7.516-.206C242.971,7117.129,242.169,7122.893,244.775,7128.258Z" fill="#f5f5f5"/>
        <path id="Trazado_103346" data-name="Trazado 103346" d="M244.839,7122.822a2.817,2.817,0,0,1-.295-1.078,5.821,5.821,0,0,1,1.822-4.935,2.922,2.922,0,0,1,.925-.642c0,.038-.334.269-.8.751a6.415,6.415,0,0,0-1.392,2.207,6.487,6.487,0,0,0-.379,2.568C244.762,7122.4,244.884,7122.809,244.839,7122.822Z" fill="#fafafa"/>
        <path id="Trazado_103347" data-name="Trazado 103347" d="M245.5,7125.37c-.064,0-.18-.237-.257-.565s-.083-.6,0-.642.186.238.263.572S245.571,7125.357,245.5,7125.37Z" fill="#fafafa"/>
        <path id="Trazado_103348" data-name="Trazado 103348" d="M262.039,7106.527c0,.045-.674.308-1.688.912a13.314,13.314,0,0,0-5.731,6.982c-.392,1.11-.514,1.842-.559,1.829a2.063,2.063,0,0,1,.058-.513,4.841,4.841,0,0,1,.116-.6c.064-.231.115-.494.218-.777a11.7,11.7,0,0,1,.808-1.925,13.532,13.532,0,0,1,1.419-2.15,13.937,13.937,0,0,1,1.822-1.816,13.285,13.285,0,0,1,1.74-1.175c.256-.154.507-.256.719-.359a3.741,3.741,0,0,1,.564-.237A2.448,2.448,0,0,1,262.039,7106.527Z" fill="#e0e0e0"/>
        <path id="Trazado_103349" data-name="Trazado 103349" d="M291.5,7115.307a7.016,7.016,0,0,0-5.856-8.008l-.055-.008a.7.7,0,0,0-.5.058.712.712,0,0,0-.186.68,8.465,8.465,0,0,0,6.591,7.477" fill="#e0e0e0"/>
        <path id="Trazado_103350" data-name="Trazado 103350" d="M281.664,7128.258c1.772,3.645,4.32,6.1,7.471,6.225.642,0,1.1-.391,1.707-.43a3.847,3.847,0,0,1,1.008.379,1.393,1.393,0,0,0,.526.122c3.254-.173,6.026-2.465,7.9-6.3,2.606-5.365,1.8-11.129-1.8-12.881a8.69,8.69,0,0,0-1.47-.577,5.864,5.864,0,0,0-1.784-.206,13.165,13.165,0,0,0-4.081.925l-.18.064c-2.92-1.284-5.25-1.284-7.509-.206C279.861,7117.129,279.059,7122.893,281.664,7128.258Z" fill="#f5f5f5"/>
        <path id="Trazado_103351" data-name="Trazado 103351" d="M281.729,7122.822a2.836,2.836,0,0,1-.3-1.078,5.819,5.819,0,0,1,1.823-4.935,2.918,2.918,0,0,1,.924-.642c0,.038-.333.269-.8.751a6.3,6.3,0,0,0-1.771,4.787C281.652,7122.4,281.774,7122.809,281.729,7122.822Z" fill="#fafafa"/>
        <path id="Trazado_103352" data-name="Trazado 103352" d="M282.39,7125.37c-.065,0-.18-.237-.257-.565s-.083-.6,0-.642.186.238.257.572S282.454,7125.357,282.39,7125.37Z" fill="#fafafa"/>
        <path id="Trazado_103353" data-name="Trazado 103353" d="M298.9,7106.527c0,.045-.674.308-1.682.912a13.3,13.3,0,0,0-5.737,6.982c-.4,1.11-.514,1.842-.559,1.829a1.815,1.815,0,0,1,.052-.513,2.793,2.793,0,0,1,.122-.6,7.249,7.249,0,0,1,.218-.777,12.241,12.241,0,0,1,.8-1.925,12.514,12.514,0,0,1,4.987-5.141c.256-.154.507-.256.719-.359a3.882,3.882,0,0,1,.558-.237A2.5,2.5,0,0,1,298.9,7106.527Z" fill="#e0e0e0"/>
        <path id="Trazado_103354" data-name="Trazado 103354" d="M349.732,7115.307a7.016,7.016,0,0,0-5.855-8.009l-.049-.007a.7.7,0,0,0-.5.058.728.728,0,0,0-.193.68,8.48,8.48,0,0,0,6.6,7.477" fill="#e0e0e0"/>
        <path id="Trazado_103355" data-name="Trazado 103355" d="M339.9,7128.258c1.771,3.645,4.313,6.1,7.464,6.225.642,0,1.11-.391,1.713-.43a3.847,3.847,0,0,1,1.008.379,1.4,1.4,0,0,0,.526.122c3.254-.173,6.027-2.465,7.9-6.3,2.6-5.365,1.8-11.129-1.8-12.881a8.968,8.968,0,0,0-1.47-.577,5.871,5.871,0,0,0-1.784-.206,13.178,13.178,0,0,0-4.082.925l-.18.064c-2.92-1.284-5.249-1.284-7.515-.206C338.1,7117.129,337.294,7122.893,339.9,7128.258Z" fill="#ebebeb"/>
        <path id="Trazado_103356" data-name="Trazado 103356" d="M339.977,7122.822a2.817,2.817,0,0,1-.295-1.078,5.715,5.715,0,0,1,.321-2.683,5.82,5.82,0,0,1,1.495-2.252,2.871,2.871,0,0,1,.93-.642c0,.038-.333.269-.8.751a6.3,6.3,0,0,0-1.771,4.787C339.887,7122.4,340.009,7122.809,339.977,7122.822Z" fill="#fafafa"/>
        <path id="Trazado_103357" data-name="Trazado 103357" d="M340.619,7125.37c-.071,0-.186-.237-.257-.565s-.083-.6,0-.642.186.238.257.572S340.689,7125.357,340.619,7125.37Z" fill="#fafafa"/>
        <path id="Trazado_103358" data-name="Trazado 103358" d="M357.157,7106.527c0,.045-.641.308-1.681.912a13.436,13.436,0,0,0-1.688,1.2,15.157,15.157,0,0,0-1.778,1.8,14.758,14.758,0,0,0-1.4,2.1,12.632,12.632,0,0,0-.841,1.887c-.4,1.11-.513,1.842-.558,1.829a1.814,1.814,0,0,1,.051-.513,4.86,4.86,0,0,1,.122-.6,7.155,7.155,0,0,1,.225-.789,12.105,12.105,0,0,1,.8-1.926,13.868,13.868,0,0,1,1.425-2.15,13.465,13.465,0,0,1,1.822-1.816,12.741,12.741,0,0,1,1.727-1.168c.256-.154.507-.257.718-.359a3.9,3.9,0,0,1,.559-.238A2.6,2.6,0,0,1,357.157,7106.527Z" fill="#e0e0e0"/>
        <path id="Trazado_103359" data-name="Trazado 103359" d="M330.677,7115.307a7.021,7.021,0,0,0-5.869-8.009l-.048-.007a.705.705,0,0,0-.5.058.725.725,0,0,0-.187.68,8.461,8.461,0,0,0,6.6,7.477" fill="#e0e0e0"/>
        <path id="Trazado_103360" data-name="Trazado 103360" d="M320.845,7128.258c1.772,3.645,4.313,6.1,7.464,6.225.642,0,1.1-.391,1.707-.43a3.753,3.753,0,0,1,1.008.379,1.441,1.441,0,0,0,.526.122c3.254-.173,6.033-2.465,7.9-6.3,2.605-5.365,1.8-11.129-1.791-12.881a8.969,8.969,0,0,0-1.47-.577,5.937,5.937,0,0,0-1.79-.206,13.233,13.233,0,0,0-4.082.925,1.357,1.357,0,0,0-.173.064c-2.92-1.284-5.256-1.284-7.516-.206C319.035,7117.129,318.24,7122.893,320.845,7128.258Z" fill="#f5f5f5"/>
        <path id="Trazado_103361" data-name="Trazado 103361" d="M320.9,7122.822a2.835,2.835,0,0,1-.3-1.078,5.819,5.819,0,0,1,1.823-4.935,2.809,2.809,0,0,1,.93-.642c0,.038-.334.269-.809.751a6.414,6.414,0,0,0-1.392,2.207,6.486,6.486,0,0,0-.379,2.568C320.826,7122.4,320.948,7122.809,320.9,7122.822Z" fill="#fafafa"/>
        <path id="Trazado_103362" data-name="Trazado 103362" d="M321.564,7125.37c-.064,0-.18-.237-.257-.565s-.083-.6,0-.642.18.238.257.572S321.635,7125.357,321.564,7125.37Z" fill="#fafafa"/>
        <path id="Trazado_103363" data-name="Trazado 103363" d="M338.1,7106.527c0,.045-.674.308-1.688.912a13.334,13.334,0,0,0-5.731,6.982c-.392,1.11-.507,1.842-.559,1.829a2.061,2.061,0,0,1,.058-.513,3.9,3.9,0,0,1,.122-.6,7.213,7.213,0,0,1,.212-.777,12.273,12.273,0,0,1,.809-1.925,13.528,13.528,0,0,1,1.418-2.15,13.884,13.884,0,0,1,1.823-1.816,13.214,13.214,0,0,1,1.739-1.175c.257-.154.507-.256.719-.359a3.741,3.741,0,0,1,.564-.237A2.467,2.467,0,0,1,338.1,7106.527Z" fill="#e0e0e0"/>
        <rect id="Rectángulo_5549" data-name="Rectángulo 5549" width="151.942" height="7.413" transform="translate(215.548 7133.174)" fill="#e0e0e0"/>
        <rect id="Rectángulo_5550" data-name="Rectángulo 5550" width="98.417" height="155.53" transform="translate(475.881 6947.942)" fill="#e0e0e0"/>
        <rect id="Rectángulo_5551" data-name="Rectángulo 5551" width="92.776" height="150.049" transform="translate(478.531 6950.869)" fill="#f5f5f5"/>
        <rect id="Rectángulo_5552" data-name="Rectángulo 5552" width="36.992" height="57.407" transform="translate(524.919 6959.61)" fill="#fff"/>
        <path id="Trazado_103364" data-name="Trazado 103364" d="M545.386,6964.68a1.38,1.38,0,1,1-1.38-1.38A1.38,1.38,0,0,1,545.386,6964.68Z" fill="#e0e0e0"/>
        <rect id="Rectángulo_5553" data-name="Rectángulo 5553" width="36.992" height="57.407" transform="translate(487.638 7032.992)" fill="#fff"/>
        <path id="Trazado_103365" data-name="Trazado 103365" d="M508.124,7038.062a1.38,1.38,0,1,1-1.38-1.38A1.38,1.38,0,0,1,508.124,7038.062Z" fill="#e0e0e0"/>
        <rect id="Rectángulo_5554" data-name="Rectángulo 5554" width="31.595" height="44.829" transform="translate(487.138 6959.61)" fill="#fff"/>
        <path id="Trazado_103366" data-name="Trazado 103366" d="M504.081,6963.679a1.149,1.149,0,1,1-1.149-1.149h.006A1.15,1.15,0,0,1,504.081,6963.679Z" fill="#e0e0e0"/>
        <rect id="Rectángulo_5555" data-name="Rectángulo 5555" width="34.002" height="18.843" transform="matrix(0.994, -0.112, 0.112, 0.994, 529.35, 7037.56)" fill="#fff"/>
        <path id="Trazado_103367" data-name="Trazado 103367" d="M547.812,7039.262a1.174,1.174,0,1,1-1.175-1.175,1.174,1.174,0,0,1,1.175,1.175Z" fill="#e0e0e0"/>
        <path id="Trazado_103368" data-name="Trazado 103368" d="M519.676,7046.084c0,.148-5.776.276-12.97.276s-12.977-.128-12.977-.276,5.776-.276,12.977-.276S519.676,7045.93,519.676,7046.084Z" fill="#e0e0e0"/>
        <path id="Trazado_103369" data-name="Trazado 103369" d="M519.676,7050.172c0,.148-5.776.276-12.97.276s-12.977-.128-12.977-.276,5.776-.276,12.977-.276S519.676,7050.037,519.676,7050.172Z" fill="#e0e0e0"/>
        <path id="Trazado_103370" data-name="Trazado 103370" d="M519.676,7054.3c0,.148-5.776.276-12.97.276s-12.977-.128-12.977-.276,5.776-.276,12.977-.276S519.676,7054.145,519.676,7054.3Z" fill="#e0e0e0"/>
        <path id="Trazado_103371" data-name="Trazado 103371" d="M519.676,7058.406c0,.148-5.776.276-12.97.276s-12.977-.128-12.977-.276,5.776-.276,12.977-.276S519.676,7058.252,519.676,7058.406Z" fill="#e0e0e0"/>
        <path id="Trazado_103372" data-name="Trazado 103372" d="M519.676,7062.514c0,.147-5.776.276-12.97.276s-12.977-.129-12.977-.276,5.776-.276,12.977-.276S519.676,7062.366,519.676,7062.514Z" fill="#e0e0e0"/>
        <path id="Trazado_103373" data-name="Trazado 103373" d="M519.676,7066.621c0,.148-5.776.276-12.97.276s-12.977-.128-12.977-.276,5.776-.276,12.977-.276S519.676,7066.467,519.676,7066.621Z" fill="#e0e0e0"/>
        <path id="Trazado_103374" data-name="Trazado 103374" d="M519.676,7070.709c0,.148-5.776.27-12.97.27s-12.977-.122-12.977-.27,5.776-.276,12.977-.276S519.676,7070.575,519.676,7070.709Z" fill="#e0e0e0"/>
        <path id="Trazado_103375" data-name="Trazado 103375" d="M559.967,7041.681c0,.154-5.712,1.085-12.835,2.086s-12.836,1.695-12.887,1.541,5.711-1.085,12.835-2.086S559.948,7041.534,559.967,7041.681Z" fill="#e0e0e0"/>
        <path id="Trazado_103376" data-name="Trazado 103376" d="M560.481,7044.249c0,.154-5.712,1.084-12.836,2.085s-12.836,1.695-12.887,1.541,5.712-1.085,12.836-2.086S560.461,7044.1,560.481,7044.249Z" fill="#e0e0e0"/>
        <path id="Trazado_103377" data-name="Trazado 103377" d="M560.956,7046.623c0,.154-5.719,1.085-12.836,2.086s-12.868,1.694-12.887,1.54,5.712-1.084,12.836-2.086S560.93,7046.476,560.956,7046.623Z" fill="#e0e0e0"/>
        <path id="Trazado_103378" data-name="Trazado 103378" d="M558.664,6971.618c0,.148-6.565.276-14.658.276s-14.658-.128-14.658-.276,6.565-.276,14.658-.276S558.664,6971.464,558.664,6971.618Z" fill="#e0e0e0"/>
        <path id="Trazado_103379" data-name="Trazado 103379" d="M558.664,6974.057c0,.154-6.565.276-14.658.276s-14.658-.122-14.658-.276,6.565-.257,14.658-.257S558.664,6973.909,558.664,6974.057Z" fill="#e0e0e0"/>
        <path id="Trazado_103380" data-name="Trazado 103380" d="M558.664,6976.5c0,.154-6.565.276-14.658.276s-14.658-.122-14.658-.276,6.565-.276,14.658-.276S558.664,6976.367,558.664,6976.5Z" fill="#e0e0e0"/>
        <path id="Trazado_103381" data-name="Trazado 103381" d="M558.664,6978.934c0,.154-6.565.276-14.658.276s-14.658-.122-14.658-.276,6.565-.276,14.658-.276S558.664,6978.793,558.664,6978.934Z" fill="#e0e0e0"/>
        <path id="Trazado_103382" data-name="Trazado 103382" d="M558.664,6981.386c0,.154-6.565.276-14.658.276s-14.658-.122-14.658-.276,6.565-.276,14.658-.276S558.664,6981.232,558.664,6981.386Z" fill="#e0e0e0"/>
        <path id="Trazado_103383" data-name="Trazado 103383" d="M558.664,6983.825c0,.154-6.565.276-14.658.276s-14.658-.122-14.658-.276,6.565-.276,14.658-.276S558.664,6983.677,558.664,6983.825Z" fill="#e0e0e0"/>
        <path id="Trazado_103384" data-name="Trazado 103384" d="M558.664,6986.27c0,.154-6.565.276-14.658.276s-14.658-.122-14.658-.276,6.565-.276,14.658-.276S558.664,6986.116,558.664,6986.27Z" fill="#e0e0e0"/>
        <path id="Trazado_103385" data-name="Trazado 103385" d="M558.664,6993.516c0,.154-6.565.276-14.658.276s-14.658-.122-14.658-.276,6.565-.276,14.658-.276S558.664,6993.362,558.664,6993.516Z" fill="#e0e0e0"/>
        <path id="Trazado_103386" data-name="Trazado 103386" d="M558.87,6996.1c0,.154-6.566.276-14.659.276s-14.658-.122-14.658-.276,6.566-.276,14.658-.276S558.87,6995.942,558.87,6996.1Z" fill="#e0e0e0"/>
        <path id="Trazado_103387" data-name="Trazado 103387" d="M559.075,6998.676c0,.154-6.559.276-14.658.276s-14.652-.122-14.652-.276,6.559-.276,14.652-.276S559.075,6998.522,559.075,6998.676Z" fill="#e0e0e0"/>
        <path id="Trazado_103388" data-name="Trazado 103388" d="M559.281,7001.256c0,.154-6.559.276-14.652.276s-14.684-.135-14.684-.276,6.559-.276,14.658-.276S559.281,7001.1,559.281,7001.256Z" fill="#e0e0e0"/>
        <path id="Trazado_103389" data-name="Trazado 103389" d="M559.467,7003.836c0,.147-6.566.275-14.659.275s-14.658-.128-14.658-.275,6.559-.276,14.658-.276S559.467,7003.681,559.467,7003.836Z" fill="#e0e0e0"/>
        <path id="Trazado_103390" data-name="Trazado 103390" d="M559.7,7006.415c0,.148-6.566.276-14.659.276s-14.658-.128-14.658-.276,6.559-.275,14.658-.275S559.7,7006.261,559.7,7006.415Z" fill="#e0e0e0"/>
        <circle id="Elipse_4028" data-name="Elipse 4028" cx="28.014" cy="28.014" r="28.014" transform="matrix(0.159, -0.987, 0.987, 0.159, 389.077, 6989.262)" fill="#ebebeb"/>
        <circle id="Elipse_4029" data-name="Elipse 4029" cx="25.35" cy="25.35" r="25.35" transform="translate(396.155 6940.418)" fill="#f5f5f5"/>
        <path id="Trazado_103391" data-name="Trazado 103391" d="M395.895,6964.263v2.516c0,.327.065.687.09,1.078s.077.8.116,1.284a13.665,13.665,0,0,0,.244,1.4,24.369,24.369,0,0,0,2.368,6.944,25.4,25.4,0,0,0,5.975,7.612l1.046.892c.366.276.757.533,1.142.809a11.55,11.55,0,0,0,1.188.795l1.283.719.642.36.687.3,1.392.642c.475.193.976.327,1.47.494a12.612,12.612,0,0,0,1.508.449,24.268,24.268,0,0,0,3.177.584c.546.052,1.091.142,1.649.167H422.4l.854-.07c.571-.058,1.148-.09,1.72-.167a26.327,26.327,0,0,0,3.44-.77l.86-.251.436-.128.417-.173,1.688-.68c.552-.257,1.085-.559,1.637-.841.269-.148.558-.27.815-.443l.783-.507a28.987,28.987,0,0,0,3.029-2.253l1.38-1.328.346-.34.315-.366.641-.738.642-.738.565-.8.565-.809.282-.4c.09-.141.167-.282.244-.424l.982-1.732q.392-.906.809-1.83a24.95,24.95,0,0,0,1.02-16l-.558-1.926c-.251-.641-.5-1.225-.745-1.841l-.186-.456-.231-.437L443.7,6954l-.456-.867-.532-.815-.527-.815-.269-.4-.3-.379-1.194-1.5a28.3,28.3,0,0,0-2.708-2.625l-.712-.641c-.231-.206-.5-.366-.745-.546-.513-.346-1-.719-1.514-1.046l-1.586-.9-.391-.219c-.135-.07-.276-.122-.411-.186l-.821-.366a27.105,27.105,0,0,0-3.312-1.213c-.558-.154-1.129-.256-1.688-.385l-.834-.186c-.276-.058-.565-.07-.841-.109l-1.669-.2c-.558-.045-1.11,0-1.655-.045a24.467,24.467,0,0,0-3.209.161,12.738,12.738,0,0,0-1.56.25c-.507.1-1.02.173-1.514.3l-1.47.449-.719.212-.687.276-1.36.539c-.449.173-.854.43-1.284.642s-.834.423-1.238.641l-1.149.745a25.332,25.332,0,0,0-6.919,6.771,24.2,24.2,0,0,0-3.253,6.565,12.529,12.529,0,0,0-.424,1.367c-.1.436-.193.847-.276,1.226s-.18.731-.231,1.052-.077.642-.109.886l-.154,1.207c-.039.269-.064.41-.064.41a4.068,4.068,0,0,1,.032-.417c.032-.276.07-.68.128-1.206a8.625,8.625,0,0,1,.1-.892c.039-.328.142-.642.219-1.053s.166-.8.263-1.239a14.074,14.074,0,0,1,.41-1.373,24.275,24.275,0,0,1,3.209-6.623,25.347,25.347,0,0,1,6.938-6.848l1.155-.757c.4-.231.828-.437,1.245-.642s.841-.469,1.284-.642l1.367-.552.693-.282.725-.212,1.47-.436c.5-.129,1.02-.2,1.534-.309a12.833,12.833,0,0,1,1.566-.25,24.829,24.829,0,0,1,3.26-.173c.552,0,1.11,0,1.669.045l1.688.192c.282.039.571.058.853.109l.841.187c.565.134,1.142.237,1.707.391a27.215,27.215,0,0,1,3.344,1.219l.828.366.417.186.4.225,1.6.9c.52.327,1.014.7,1.528,1.052.25.187.526.347.757.552l.719.642a28.931,28.931,0,0,1,2.746,2.657c.4.507.8,1.008,1.207,1.515l.3.385.269.411.533.821.539.822.462.879.456.879.231.443.192.462.751,1.861c.193.642.379,1.284.571,1.925a25.366,25.366,0,0,1-1.065,16.148l-.815,1.848-.937,1.726c-.083.148-.161.3-.25.437l-.289.4-.571.815-.572.809-.641.744-.642.745-.321.372-.347.34-1.4,1.342a28.553,28.553,0,0,1-3.061,2.271l-.8.514c-.263.173-.552.3-.821.449-.559.283-1.1.591-1.656.847l-1.707.687-.424.167c-.141.051-.289.09-.436.135l-.867.25a26.64,26.64,0,0,1-3.478.77c-.584.083-1.162.109-1.739.167l-.86.071h-2.561a15.672,15.672,0,0,1-1.656-.18,23.642,23.642,0,0,1-3.209-.6,11.86,11.86,0,0,1-1.521-.456c-.5-.167-1-.308-1.482-.5l-1.4-.642-.693-.308-.642-.366-1.284-.732c-.423-.231-.8-.539-1.193-.8s-.777-.539-1.149-.821l-1.046-.9a25.38,25.38,0,0,1-5.988-7.7,24.091,24.091,0,0,1-2.336-7,14,14,0,0,1-.231-1.412c-.032-.449-.071-.872-.1-1.283s-.064-.751-.077-1.078,0-.642,0-.9c0-.526,0-.93.032-1.213A1.257,1.257,0,0,0,395.895,6964.263Z" fill="#e0e0e0"/>
        <path id="Trazado_103392" data-name="Trazado 103392" d="M433.035,6966.477a5.527,5.527,0,0,1-.9.058l-2.477.051c-2.105,0-5.038.052-8.344.052h-.166v-1.823c0-3.69,0-7.06.051-9.46,0-1.161.038-2.131.051-2.862a6.088,6.088,0,0,1,.064-1.053,5.994,5.994,0,0,1,.065,1.053c0,.731.032,1.7.051,2.862.032,2.426.051,5.776.051,9.46v1.656l-.167-.167c3.306,0,6.239,0,8.344.058l2.477.051A4.683,4.683,0,0,1,433.035,6966.477Z" fill="#e0e0e0"/>
        <path id="Trazado_103393" data-name="Trazado 103393" d="M421.406,6944.381a13.8,13.8,0,0,1,0,4.28,13.8,13.8,0,0,1,0-4.28Z" fill="#e0e0e0"/>
        <path id="Trazado_103394" data-name="Trazado 103394" d="M433.035,6947.821a6.925,6.925,0,0,1-1.386,1.591,6.732,6.732,0,0,1-1.611,1.374,12.8,12.8,0,0,1,3-2.965Z" fill="#e0e0e0"/>
        <path id="Trazado_103395" data-name="Trazado 103395" d="M439.819,6955.24a26.325,26.325,0,0,1-3.575,2.195,5.688,5.688,0,0,1,1.682-1.284A5.759,5.759,0,0,1,439.819,6955.24Z" fill="#e0e0e0"/>
        <path id="Trazado_103396" data-name="Trazado 103396" d="M443.8,6966.253a25.73,25.73,0,0,1-5.847,0A26.722,26.722,0,0,1,443.8,6966.253Z" fill="#e0e0e0"/>
        <path id="Trazado_103397" data-name="Trazado 103397" d="M403.3,6965.868a23.817,23.817,0,0,1-5.519,0A22.834,22.834,0,0,1,403.3,6965.868Z" fill="#e0e0e0"/>
        <path id="Trazado_103398" data-name="Trazado 103398" d="M406.164,6974.063a12.263,12.263,0,0,1-2.086,1.926,12.437,12.437,0,0,1-2.291,1.636,11.768,11.768,0,0,1,2.079-1.925A12.446,12.446,0,0,1,406.164,6974.063Z" fill="#e0e0e0"/>
        <path id="Trazado_103399" data-name="Trazado 103399" d="M413.23,6980.4a18.457,18.457,0,0,1-1.418,2.464,19.439,19.439,0,0,1-1.509,2.407,9.447,9.447,0,0,1,1.226-2.567A9.254,9.254,0,0,1,413.23,6980.4Z" fill="#e0e0e0"/>
        <path id="Trazado_103400" data-name="Trazado 103400" d="M421.406,6988.561a25.611,25.611,0,0,1,0-5.84,25.611,25.611,0,0,1,0,5.84Z" fill="#e0e0e0"/>
        <path id="Trazado_103401" data-name="Trazado 103401" d="M434,6984.71a8.344,8.344,0,0,1-2.407-1.649,8.615,8.615,0,0,1-1.963-2.156,27.268,27.268,0,0,1,2.182,1.925A26.967,26.967,0,0,1,434,6984.71Z" fill="#e0e0e0"/>
        <path id="Trazado_103402" data-name="Trazado 103402" d="M439.909,6978.331a21.218,21.218,0,0,1-3.633-3.626,10.124,10.124,0,0,1,1.926,1.7A10.369,10.369,0,0,1,439.909,6978.331Z" fill="#e0e0e0"/>
        <path id="Trazado_103403" data-name="Trazado 103403" d="M405.894,6958.012a15.591,15.591,0,0,1-3.183-3.183,15.591,15.591,0,0,1,3.183,3.183Z" fill="#e0e0e0"/>
        <path id="Trazado_103404" data-name="Trazado 103404" d="M413.185,6950.33a14.963,14.963,0,0,1-3.125-3.113,7.473,7.473,0,0,1,1.681,1.438A7.588,7.588,0,0,1,413.185,6950.33Z" fill="#e0e0e0"/>
        <path id="Trazado_103405" data-name="Trazado 103405" d="M398.8,6966.028a25.343,25.343,0,0,1,23.842-25.3c-.494,0-1-.051-1.508-.051a25.356,25.356,0,0,0,0,50.7,14.834,14.834,0,0,0,1.508-.051A25.35,25.35,0,0,1,398.8,6966.028Z" fill="#e0e0e0"/>
      </g>
      <g id="freepik--character-1--inject-14">
        <path id="Trazado_103406" data-name="Trazado 103406" d="M269.528,7018.571a8.086,8.086,0,0,0-.584-14.074l-9.7-1.881q.385,18.24.526,36.492a13.7,13.7,0,0,0,6.867-2.927c1.861-1.7,2.856-4.55,1.772-6.828a6.418,6.418,0,0,0,1.116-10.782Z" fill="#344154"/>
        <path id="Trazado_103407" data-name="Trazado 103407" d="M223.07,7017.621l-.219-4.313,25.768-5.731c7.965-1.1,16.853,6.649,17.611,14.652.834,8.9,1.508,19.786.641,26.467-1.707,13.433-11.9,15.454-11.9,15.454l.828,13.2c.327,7.7-6.116,9.627-13.83,9.954h0a14,14,0,0,1-14.562-12.906Z" fill="#966960"/>
        <path id="Trazado_103408" data-name="Trazado 103408" d="M262.668,7031a1.714,1.714,0,0,1-1.605,1.778,1.629,1.629,0,0,1-1.8-1.435l-.006-.054a1.715,1.715,0,0,1,1.6-1.784,1.65,1.65,0,0,1,1.814,1.467Z" fill="#344154"/>
        <path id="Trazado_103409" data-name="Trazado 103409" d="M263.605,7027.992c-.206.231-1.534-.686-3.383-.642s-3.164,1.027-3.375.809c-.1-.1.1-.507.68-.956a4.734,4.734,0,0,1,2.695-.918,4.5,4.5,0,0,1,2.7.777C263.476,7027.492,263.682,7027.89,263.605,7027.992Z" fill="#344154"/>
        <path id="Trazado_103410" data-name="Trazado 103410" d="M245.494,7032.119a1.714,1.714,0,0,1-1.6,1.778,1.637,1.637,0,0,1-1.812-1.441l-.005-.048a1.713,1.713,0,0,1,1.6-1.784,1.65,1.65,0,0,1,1.814,1.467Z" fill="#344154"/>
        <path id="Trazado_103411" data-name="Trazado 103411" d="M245.455,7028.9c-.212.231-1.54-.694-3.382-.642s-3.171,1.027-3.376.808c-.1-.1.1-.507.68-.956a4.675,4.675,0,0,1,2.689-.924,4.53,4.53,0,0,1,2.7.777C245.346,7028.4,245.551,7028.8,245.455,7028.9Z" fill="#344154"/>
        <path id="Trazado_103412" data-name="Trazado 103412" d="M252.572,7042.375a13.026,13.026,0,0,1,2.978-.642c.469-.064.918-.173.982-.494a2.368,2.368,0,0,0-.353-1.387l-1.508-3.549c-2.092-5.044-3.626-9.2-3.421-9.286s2.067,3.94,4.159,8.985l1.451,3.568a2.748,2.748,0,0,1,.3,1.842,1.186,1.186,0,0,1-.757.712,2.979,2.979,0,0,1-.8.135A10.28,10.28,0,0,1,252.572,7042.375Z" fill="#344154"/>
        <path id="Trazado_103413" data-name="Trazado 103413" d="M254.979,7064.182a35.39,35.39,0,0,1-18.509-4.235s4.807,9.222,18.612,7.573Z" fill="#77544d"/>
        <path id="Trazado_103414" data-name="Trazado 103414" d="M251.931,7046.848a3.334,3.334,0,0,0-3.017-1.143,3.036,3.036,0,0,0-2.066,1.188,1.923,1.923,0,0,0-.077,2.207,2.245,2.245,0,0,0,2.438.533,7.047,7.047,0,0,0,2.317-1.476,2.031,2.031,0,0,0,.527-.552.645.645,0,0,0,0-.687" fill="#77544d"/>
        <path id="Trazado_103415" data-name="Trazado 103415" d="M247.181,7043.825c.3-.032.366,1.97,2.125,3.344s3.883,1.078,3.908,1.36c.032.122-.462.405-1.367.456a4.963,4.963,0,0,1-3.254-1.027,4.345,4.345,0,0,1-1.655-2.8C246.835,7044.319,247.047,7043.812,247.181,7043.825Z" fill="#344154"/>
        <path id="Trazado_103416" data-name="Trazado 103416" d="M245.705,7023.679c-.167.507-2.015.328-4.171.642s-3.889.969-4.191.533c-.135-.212.154-.693.847-1.2a7.336,7.336,0,0,1,6.367-.9C245.365,7023.057,245.776,7023.436,245.705,7023.679Z" fill="#344154"/>
        <path id="Trazado_103417" data-name="Trazado 103417" d="M263.322,7021.671c-.308.43-1.591,0-3.125.057s-2.811.373-3.126-.057c-.134-.212.058-.642.642-1.053a4.537,4.537,0,0,1,5.038,0C263.271,7021.035,263.463,7021.459,263.322,7021.671Z" fill="#344154"/>
        <path id="Trazado_103418" data-name="Trazado 103418" d="M225.913,7070.44s-13.985,15.306-13.985,33.308,11.418,40.58,10.346,53.48-11.02,30.093-13.978,38.693-2.413,11.289-2.413,11.289h73.625l-1.482-49.289-.129-25.953.437-23.49-20.858-28.238v-5.776l-30.639-8.061Z" fill="#d9a171"/>
        <path id="Trazado_103419" data-name="Trazado 103419" d="M278.7,7169.544s25.486,27.013,26.018,27.443,20.127,0,20.127,0l12.007,6.719s-.712,2.291-4.717,1.149a1.649,1.649,0,0,1-.609,2.407h-6.861l-6.116-.071H298.383l-19.157-13.259Z" fill="#966960"/>
        <g id="Grupo_59383" data-name="Grupo 59383" opacity="0.3">
          <path id="Trazado_103420" data-name="Trazado 103420" d="M218.455,7091.169a41.775,41.775,0,0,0,7.772,25.415,34.215,34.215,0,0,0,22.463,13.7c3,.4,6.077.372,8.985,1.187,2.612.732,4.993,2.118,7.56,2.991a20.317,20.317,0,0,0,9.28.911c1.213-.16,2.567-.577,3.029-1.713.642-1.688-1.219-3.209-2.811-4.069-19.523-10.59-39.932-23.361-56.246-38.424"/>
        </g>
        <path id="Trazado_103421" data-name="Trazado 103421" d="M249.6,7119.831s46.51,20.537,53.018,20.537,43-33.141,43-33.141l-8.683-10.448-35.183,20.614-40.284-22.078Z" fill="#966960"/>
        <path id="Trazado_103422" data-name="Trazado 103422" d="M330.9,7100.668l8.549-5.34s3.748-7.355,5.724-8.215,13.189-4.98,13.189-4.98l11.36-1.046s1.02,1.45-2.138,3.587c-2.349,1.592-6.912,2.439-6.912,2.439l-2.8,1.284s2.111,2.374,3.793,2.31c1.5-.058,6.758-3.132,8.407-2.477s-.494,4.948-.494,4.948h0a104.314,104.314,0,0,1-7.451,11.668c-1.014,1.161-7.881,1.161-7.881,1.161l-7.394.912-8.266,6.418Z" fill="#966960"/>
        <path id="Trazado_103423" data-name="Trazado 103423" d="M232.651,7072.782a16.589,16.589,0,0,0-11.783,7.99c-3.549,5.712-2.567,11.206-.211,18.548a24.646,24.646,0,0,0,6.295,9.3c6.283,6.072,19.793,14.453,19.793,14.453l21.025-23.842S244.608,7076.023,232.651,7072.782Z" fill="#d9a171"/>
        <path id="Trazado_103424" data-name="Trazado 103424" d="M241.239,7076.485l.128.1.379.308,1.437,1.206,5.436,4.6,19.254,16.423.109.1-.1.116-20.537,23.3c-.167.192-.333.385-.494.558l-.09.1-.122-.071c-3.85-2.33-7.579-4.717-11.064-7.162a47.507,47.507,0,0,1-9.319-7.971,31.866,31.866,0,0,1-5.988-9.319,22.052,22.052,0,0,1-.949-13.683,21.735,21.735,0,0,1,1.283-3.549,18.144,18.144,0,0,1,3.325-5,16.288,16.288,0,0,1,2.907-2.439l.853-.5c.193-.109.3-.154.3-.154l-.276.186-.835.52a17.44,17.44,0,0,0-2.849,2.478,18.2,18.2,0,0,0-3.248,4.986,20.99,20.99,0,0,0-1.219,3.524,22.325,22.325,0,0,0-.6,4.139,22.727,22.727,0,0,0,1.618,9.383,31.656,31.656,0,0,0,5.962,9.222,48.38,48.38,0,0,0,9.273,7.907c3.466,2.452,7.188,4.813,11.052,7.137l-.212.038.494-.565,20.537-23.264v.205l-19.17-16.513-5.378-4.666-1.412-1.245-.359-.321Z" fill="#344154"/>
        <path id="Trazado_103425" data-name="Trazado 103425" d="M257.476,7074.387a2.536,2.536,0,0,1-.039.507c-.045.333-.128.815-.269,1.431a19.252,19.252,0,0,1-1.926,4.954l-.07.129-.122-.09a56.094,56.094,0,0,0-10.692-5.41,109.687,109.687,0,0,0-12.984-4.114c-1.688-.449-3.067-.751-4.017-.969l-1.1-.27a1.518,1.518,0,0,1-.372-.115,1.555,1.555,0,0,1,.385.051l1.11.2c.957.187,2.349.45,4.05.867a97.274,97.274,0,0,1,13.048,4.037,52.559,52.559,0,0,1,10.781,5.513l-.192.038a20.139,20.139,0,0,0,1.989-4.858c.161-.6.264-1.085.334-1.412A2.936,2.936,0,0,1,257.476,7074.387Z" fill="#344154"/>
        <path id="Trazado_103426" data-name="Trazado 103426" d="M270.549,7010.112a8.3,8.3,0,0,0,2.965-8.677,9.477,9.477,0,0,0-6.649-6.507,10.361,10.361,0,0,0-1.925-.3,8.634,8.634,0,0,0-4.191-1.059,4.489,4.489,0,0,0-3.53-3.4,10.615,10.615,0,0,0-5.134.359,8.721,8.721,0,0,0-14.023,1.046,7.149,7.149,0,0,0-10.429,4.724,7.094,7.094,0,0,0-5.025,2.567,6.918,6.918,0,0,0-1.091,1.874,6.685,6.685,0,0,0-1.188,2.682,8.035,8.035,0,0,0-3.209,14.761,7.349,7.349,0,0,0,1.926,11.61,9.418,9.418,0,0,0,.95,7.329,4.527,4.527,0,0,0,2.425,2.118,1.828,1.828,0,0,0,.219.5c.84,1.226,2.791.642,3.921-.34,2.76-2.336,4.165-5.9,4.858-9.454s.777-7.181,1.438-10.73a.522.522,0,0,1,.045-.251,9.922,9.922,0,0,1,1.822-4.088,25.419,25.419,0,0,0,3.274,1.958,10.642,10.642,0,0,0,12.3-2.843,15.593,15.593,0,0,0,10.043,3.318c3.6-.1,7.137-.886,9.826-3.28a4.9,4.9,0,0,0,1.495-2.291A1.528,1.528,0,0,0,270.549,7010.112Z" fill="#344154"/>
        <path id="Trazado_103427" data-name="Trazado 103427" d="M225.772,7035.232c-.18-.09-7.259-2.529-7.375,4.813s7.278,5.943,7.3,5.731S225.772,7035.232,225.772,7035.232Z" fill="#966960"/>
        <path id="Trazado_103428" data-name="Trazado 103428" d="M223.493,7042.959a2.317,2.317,0,0,1-.346.186,1.287,1.287,0,0,1-.957,0,3.152,3.152,0,0,1-1.418-2.856,4.2,4.2,0,0,1,.385-1.829,1.455,1.455,0,0,1,.976-.963.643.643,0,0,1,.751.359c.1.206.044.353.083.366s.16-.122.1-.423a.833.833,0,0,0-.276-.469,1,1,0,0,0-.706-.192,1.781,1.781,0,0,0-1.354,1.116,4.359,4.359,0,0,0-.475,2.035c0,1.482.757,2.881,1.816,3.209a1.365,1.365,0,0,0,1.174-.18C223.48,7043.113,223.519,7042.971,223.493,7042.959Z" fill="#77544d"/>
        <path id="Trazado_103429" data-name="Trazado 103429" d="M273.109,7000.242a.4.4,0,0,0,.065.166,3.3,3.3,0,0,1,.134.527,5.605,5.605,0,0,1-1.508,4.948,5.779,5.779,0,0,1-3.889,1.694l.135-.115a12.626,12.626,0,0,1-2.94,6.417,9.807,9.807,0,0,1-3.208,2.484,8.143,8.143,0,0,1-4.211.687,14.308,14.308,0,0,1-4.088-.963,10.961,10.961,0,0,1-3.42-1.989h.224a13.31,13.31,0,0,1-6.1,3.51,10.436,10.436,0,0,1-5.525-.378,10.846,10.846,0,0,1-3.209-1.74,8.77,8.77,0,0,1-.732-.641,1.5,1.5,0,0,1-.231-.244s.346.3,1.027.795a11.2,11.2,0,0,0,3.209,1.637,10.331,10.331,0,0,0,5.4.3,13.119,13.119,0,0,0,5.93-3.472l.109-.1.109.1a10.8,10.8,0,0,0,3.318,1.926,14.081,14.081,0,0,0,4,.937,7.76,7.76,0,0,0,4.043-.642,9.366,9.366,0,0,0,3.087-2.394,12.362,12.362,0,0,0,2.914-6.251v-.116h.116a5.573,5.573,0,0,0,3.735-1.572,5.4,5.4,0,0,0,1.508-2.753,5.777,5.777,0,0,0,.077-2.035C273.167,7000.485,273.09,7000.242,273.109,7000.242Z" fill="#455a64"/>
        <path id="Trazado_103430" data-name="Trazado 103430" d="M221.33,7002.988a16.366,16.366,0,0,0-.641,2.523,10.5,10.5,0,0,0,1.219,6.52l.064.109-.1.077a6.761,6.761,0,0,0-1.925,3,6.464,6.464,0,0,0,0,3.9,6.779,6.779,0,0,0,3.151,3.851l.135.071-.065.141a8.4,8.4,0,0,0-.828,4.582,9.166,9.166,0,0,0,1.085,3.556,10.375,10.375,0,0,0,2.1,2.567.817.817,0,0,1-.193-.129,5.783,5.783,0,0,1-.52-.417,8.227,8.227,0,0,1-1.559-1.925,9.107,9.107,0,0,1-1.181-3.62,8.646,8.646,0,0,1,.809-4.755l.07.211a7.057,7.057,0,0,1-3.324-4.056,6.789,6.789,0,0,1,.038-4.107,7,7,0,0,1,2.041-3.119v.186a10.453,10.453,0,0,1-1.142-6.694,9.285,9.285,0,0,1,.513-1.874,4.39,4.39,0,0,1,.205-.468C221.3,7003.033,221.324,7002.982,221.33,7002.988Z" fill="#455a64"/>
        <path id="Trazado_103431" data-name="Trazado 103431" d="M221.793,7045.526a5.6,5.6,0,0,0-.142,1.322,1.928,1.928,0,0,0,.533,1.238,1.62,1.62,0,0,0,1.508.424,1.354,1.354,0,0,0,.912-1.213,2.582,2.582,0,0,0-.257-1.361c-.36-.738-.68-1.161-.642-1.193a3.432,3.432,0,0,1,.841,1.091,2.7,2.7,0,0,1,.353,1.5,1.923,1.923,0,0,1-.3.892,1.493,1.493,0,0,1-.828.61,1.879,1.879,0,0,1-1.816-.533,2.091,2.091,0,0,1-.552-1.437A1.991,1.991,0,0,1,221.793,7045.526Z" fill="#344154"/>
        <path id="Trazado_103432" data-name="Trazado 103432" d="M263.547,7095.6a2.906,2.906,0,0,1-.218.25l-.642.674-2.465,2.42c-2.06,2.073-4.871,4.967-7.868,8.26s-5.615,6.372-7.483,8.619l-2.208,2.663-.641.719a1.293,1.293,0,0,1-.225.237,2.506,2.506,0,0,1,.173-.276l.559-.757c.487-.642,1.212-1.592,2.124-2.74,1.822-2.285,4.415-5.385,7.419-8.69s5.846-6.174,7.952-8.2c1.052-1.014,1.925-1.823,2.522-2.375l.706-.641A1.135,1.135,0,0,1,263.547,7095.6Z" fill="#344154"/>
      </g>
      <g id="freepik--character-2--inject-14">
        <path id="Trazado_103433" data-name="Trazado 103433" d="M374.325,7088.589l5.86-5.776,6.969-1.219,24.568,9.582s3.85,6.777.873,11.757-5.776,4.8-5.776,4.8l-5.225-3.312-18.618,2.073s-7.842-5.4-8.016-6.45-.173-7.316-.173-7.316l-.738-1.04A2.4,2.4,0,0,1,374.325,7088.589Z" fill="#ffbe9d"/>
        <path id="Trazado_103434" data-name="Trazado 103434" d="M375.191,7098.069a72.044,72.044,0,0,0,11.771,5.622,6.818,6.818,0,0,0,2.83.6,3.252,3.252,0,0,0,2.426-1.315,2.676,2.676,0,0,0,.244-2.7,4.926,4.926,0,0,0-2.105-1.816l-7.451-4.236" fill="#ffbe9d"/>
        <path id="Trazado_103435" data-name="Trazado 103435" d="M375.153,7098.139a73.34,73.34,0,0,0,6.54,3.459,36.872,36.872,0,0,0,6.623,2.625,3.526,3.526,0,0,0,4.249-1.752c.7-1.688-.45-3.061-1.881-3.908-2.567-1.509-5.173-2.946-7.759-4.416a.078.078,0,1,0-.077.135h0l7.188,4.088c1.123.642,2.464,1.354,2.567,2.8a2.9,2.9,0,0,1-2.612,3,8.3,8.3,0,0,1-4.005-.93c-1.251-.488-2.567-1.034-3.812-1.6A73.235,73.235,0,0,1,375.2,7098a.08.08,0,0,0-.077.141Z" fill="#eb996e"/>
        <path id="Trazado_103436" data-name="Trazado 103436" d="M375.037,7100.231c3.209,3.575,7.593,6.874,11.283,10.628a5.339,5.339,0,0,0,.892-6.3" fill="#ffbe9d"/>
        <path id="Trazado_103437" data-name="Trazado 103437" d="M374.98,7100.276c3.478,3.851,7.656,6.944,11.282,10.628a.1.1,0,0,0,.116,0,5.457,5.457,0,0,0,.9-6.418c-.052-.09-.186,0-.135.084a5.325,5.325,0,0,1,.1,4.832,3.3,3.3,0,0,1-.744,1.117c-.225.167-.2.122-.437-.07a5.788,5.788,0,0,1-.475-.475c-.718-.7-1.456-1.387-2.2-2.067-2.8-2.567-5.744-4.961-8.3-7.772-.064-.077-.18.039-.109.116Z" fill="#eb996e"/>
        <path id="Trazado_103438" data-name="Trazado 103438" d="M386.423,7086.362c-4.3-2.5-11.154-3.517-18.753-4.787l-7.432,13.567s13.407,2.028,19.106,4.492c8.15,3.537,12.553,14.2,12.553,14.2l10.756-13.324S399.887,7092.819,386.423,7086.362Z" fill="#455a64"/>
        <path id="Trazado_103439" data-name="Trazado 103439" d="M385.351,7090,384,7092.53c.866.571,1.758,1.194,1.418,2.3-.4,1.315-1.758,1.719-3.356,1.283l-.578,1.072-.494-.154.584-1.078a3.671,3.671,0,0,1-1.926-1.566l.54-.469a3.245,3.245,0,0,0,1.726,1.444l1.335-2.483c-.828-.565-1.643-1.188-1.284-2.3.392-1.284,1.714-1.714,3.254-1.316l.584-1.072.488.155-.584,1.078a3.856,3.856,0,0,1,1.7,1.174l-.495.5A3.283,3.283,0,0,0,385.351,7090Zm-1.688,3.126-1.284,2.362c1.124.288,2.009,0,2.266-.8C384.857,7094.025,384.318,7093.57,383.663,7093.127Zm-.083-.9,1.283-2.381c-1.084-.244-1.925.064-2.182.86C382.476,7091.349,382.976,7091.792,383.58,7092.228Z" fill="#fff"/>
        <path id="Trazado_103440" data-name="Trazado 103440" d="M385.89,7087.357l.334.148.969.468c.423.206.95.469,1.54.809s1.284.712,2.047,1.2a39.29,39.29,0,0,1,5.192,3.812,28.181,28.181,0,0,1,5.539,6.36l.045.077-.058.071-8.985,11.347-.16.205-.109-.244a31.469,31.469,0,0,0-3.851-6.456,22.547,22.547,0,0,0-5.872-5.378,20.291,20.291,0,0,0-4.968-2.086c-1.707-.52-3.408-.976-5.076-1.4-3.344-.841-6.579-1.579-9.627-2.227l-.212-.045.109-.18c2.311-3.992,4.422-7.631,6.277-10.827l.045-.077h.083a108.345,108.345,0,0,1,12.464,2.567,21.5,21.5,0,0,1,3.241,1.245,8.9,8.9,0,0,1,1.065.585,1.628,1.628,0,0,1-.282-.129c-.18-.09-.449-.237-.815-.391a23.143,23.143,0,0,0-3.254-1.175,111.2,111.2,0,0,0-12.464-2.464l.135-.064-6.232,10.859-.1-.231c3.068.641,6.3,1.373,9.627,2.214,1.675.423,3.382.873,5.1,1.4a20.2,20.2,0,0,1,5.045,2.118,22.613,22.613,0,0,1,5.955,5.461,31.077,31.077,0,0,1,3.9,6.534l-.269-.039,9.03-11.315v.148a28.333,28.333,0,0,0-5.443-6.328,40.47,40.47,0,0,0-5.134-3.851c-.738-.494-1.425-.879-2.015-1.225s-1.1-.642-1.527-.841l-.95-.5A1.582,1.582,0,0,1,385.89,7087.357Z" fill="#fff"/>
        <path id="Trazado_103441" data-name="Trazado 103441" d="M392.167,7085.092c-.142.109-14.28,4.55-14.28,4.55l-4.659,1.983s1.983,3.151,5.07,2.509a11.632,11.632,0,0,0,3.96-1.283l4.954.231s2.073,8.754,17.688,4.557" fill="#ffbe9d"/>
        <path id="Trazado_103442" data-name="Trazado 103442" d="M404.9,7097.664a1.69,1.69,0,0,1-.373.116l-1.091.276a27.12,27.12,0,0,1-4.126.738,19.8,19.8,0,0,1-2.952.083h-.822l-.841-.128-.866-.129-.879-.237a11.781,11.781,0,0,1-1.772-.642,10.581,10.581,0,0,1-1.681-1.084,7.189,7.189,0,0,1-2.439-3.466l.148.122-4.955-.225.1-.032a9.956,9.956,0,0,1-2.458.937,15.325,15.325,0,0,1-1.926.424,4.1,4.1,0,0,1-1.97-.244,6.344,6.344,0,0,1-2.9-2.388l-.1-.16.179-.077,4.666-1.97h0l10.358-3.209,2.921-.892.776-.238a1.353,1.353,0,0,1,.27-.07,1.14,1.14,0,0,1-.257.115l-.757.276-2.9.976-10.32,3.33h0l-4.659,1.99.077-.231a6.073,6.073,0,0,0,2.74,2.253,3.938,3.938,0,0,0,1.816.224,16.221,16.221,0,0,0,1.894-.417,9.945,9.945,0,0,0,2.348-.886l.058-.032h.045l4.955.238h.115v.122a6.784,6.784,0,0,0,.931,1.848,8.1,8.1,0,0,0,1.392,1.451,9.677,9.677,0,0,0,1.676.981,10.843,10.843,0,0,0,1.726.642l.841.257.847.135.828.135.808.038a21.5,21.5,0,0,0,2.92-.045,32.093,32.093,0,0,0,4.127-.642l1.1-.231A2.741,2.741,0,0,1,404.9,7097.664Z" fill="#eb996e"/>
        <path id="Trazado_103443" data-name="Trazado 103443" d="M371.867,7085.182c0,.558-.642,1.014-1.373,1.014s-1.38-.456-1.38-1.014.642-1.021,1.38-1.021S371.867,7084.617,371.867,7085.182Z" fill="#fff"/>
        <path id="Trazado_103444" data-name="Trazado 103444" d="M391.827,7107.978c0,.731.436,1.328.975,1.328s.982-.6.982-1.328-.443-1.322-.982-1.322S391.827,7107.252,391.827,7107.978Z" fill="#fff"/>
        <path id="Trazado_103445" data-name="Trazado 103445" d="M561.3,7171.713l-2.118.546-86.6,2.432-2.83,32.449,93.309.141,1.765-2.291Z" fill="#344154"/>
        <path id="Trazado_103446" data-name="Trazado 103446" d="M497.714,7048.76l10.7-4.9,5.019-6.36,33.019-4.4,4.628,6.014,25.767,16.783s-7.952,92.474-9.036,100.618-6.514,15.2-6.514,15.2-56.054,14.934-75.814,7.336c0,0-13.407-8.343-12.053-21.943s8.6-51.144,8.6-51.144Z" fill="#d9a171"/>
        <path id="Trazado_103447" data-name="Trazado 103447" d="M410.182,7088.615l45.4,12.65s-.269-5.013,4.005-5.975c0,0,26.685-37.789,29.618-40.991s8.51-5.539,8.51-5.539l-19.15,75.731s-16.623,8.831-23.406,7.5-24.388-7.471-34.8-14.678l-16.006-9.967Z" fill="#d9a171"/>
        <path id="Trazado_103448" data-name="Trazado 103448" d="M462.031,7117.964a2.849,2.849,0,0,1-.167-.7c-.1-.52-.231-1.155-.378-1.925a48.212,48.212,0,0,0-1.669-6.161,34.48,34.48,0,0,0-1.348-3.241,25.7,25.7,0,0,0-1.392-2.5c-.873-1.38-1.541-2.144-1.5-2.189a3,3,0,0,1,.5.514,7.183,7.183,0,0,1,.539.642,9.658,9.658,0,0,1,.642.9,21.966,21.966,0,0,1,1.469,2.5,29.745,29.745,0,0,1,1.387,3.266,37.8,37.8,0,0,1,1.585,6.232c.135.809.231,1.47.276,1.925A2.905,2.905,0,0,1,462.031,7117.964Z" fill="#344154"/>
        <path id="Trazado_103449" data-name="Trazado 103449" d="M575.222,7055.1s-19.606-2-27.179,14.973-8.131,64.589-8.131,64.589c-.9-1.765-17.04,11.584-20.223,14.709L486.7,7158.5l5.776,21.179s40.58-4.153,51.2-9.428c12.027-5.969,20.685-7.817,24.144-14.415s11.976-46.272,12.913-59.114S585.209,7058.336,575.222,7055.1Z" fill="#d9a171"/>
        <path id="Trazado_103450" data-name="Trazado 103450" d="M525.093,7047.695a1.212,1.212,0,0,1-.141.257c-.1.16-.251.4-.456.706-.4.641-1.014,1.476-1.8,2.567-1.54,2.13-3.851,4.993-6.161,8.343l-.161.231-.128-.25c-.212-.411-.43-.847-.642-1.284-2.021-3.953-3.85-7.547-5.134-10.153-.642-1.283-1.136-2.317-1.521-3.093l-.4-.854a1.436,1.436,0,0,1-.122-.3,1.781,1.781,0,0,1,.18.275c.1.187.276.488.456.822l1.617,3.042c1.354,2.567,3.209,6.155,5.224,10.108l.642,1.284h-.283c2.343-3.4,4.666-6.226,6.258-8.344l1.874-2.47A8.137,8.137,0,0,1,525.093,7047.695Z" fill="#344154"/>
        <path id="Trazado_103451" data-name="Trazado 103451" d="M549.686,7040.353a2.309,2.309,0,0,1-.289.289l-.866.77c-.745.68-1.836,1.649-3.145,2.9a112.805,112.805,0,0,0-9.588,10.313c-1.5,1.836-2.875,3.646-4.088,5.327l-.161.225-.109-.251-3.851-8.689-1.091-2.516c-.115-.27-.2-.494-.276-.674a1.036,1.036,0,0,1-.083-.237.9.9,0,0,1,.128.218c.09.173.193.391.328.641.288.642.68,1.451,1.168,2.478l3.966,8.651-.276-.032c1.206-1.694,2.567-3.511,4.088-5.353a100.2,100.2,0,0,1,9.685-10.268c1.328-1.232,2.445-2.176,3.208-2.824l.912-.732A1.521,1.521,0,0,1,549.686,7040.353Z" fill="#344154"/>
        <path id="Trazado_103452" data-name="Trazado 103452" d="M568.593,7153.981s-.052.128-.161.378l-.5,1.1a25.055,25.055,0,0,1-2.458,3.972,25.814,25.814,0,0,1-5.308,5.237,35.47,35.47,0,0,1-8.8,4.685,68.623,68.623,0,0,1-11.841,3.107c-2.176.417-4.454.75-6.771,1.251s-4.717,1.033-7.207,1.457c-9.96,1.662-21.108,3.138-33.058,4.653h-.135l-.039-.135c-1.854-6.8-3.786-13.888-5.776-21.179l-.045-.173.174-.032c2.092-.4,4.325-.879,6.565-1.412,4.666-1.1,9.21-2.387,13.683-3.607s8.934-2.208,12.887-4.191a26.063,26.063,0,0,0,5.365-3.658c1.624-1.405,3.126-2.907,4.64-4.345a42.4,42.4,0,0,1,4.711-3.992,17.151,17.151,0,0,1,5.353-2.618l-.109.122c2.49-17.585,4.569-32.3,6.032-42.64.745-5.135,1.322-9.216,1.727-12,.2-1.373.353-2.438.462-3.164.058-.353.1-.641.128-.808s.045-.276.045-.276a2.1,2.1,0,0,1,0,.276c0,.192-.058.462-.1.815-.1.731-.237,1.79-.417,3.17-.385,2.786-.937,6.854-1.643,12.014-1.431,10.34-3.472,25.068-5.911,42.653v.1h-.1a16.961,16.961,0,0,0-5.256,2.567,42.059,42.059,0,0,0-4.666,3.972c-1.514,1.438-3.016,2.946-4.653,4.358a26.38,26.38,0,0,1-5.423,3.71c-4.005,2.008-8.5,2.971-12.945,4.222s-9.023,2.51-13.7,3.614c-2.247.532-4.493,1.014-6.579,1.412l.129-.206c1.983,7.278,3.908,14.37,5.776,21.179l-.18-.115c11.944-1.5,23.1-2.965,33.052-4.608,9.826-2.189,18.843-3.03,25.793-5.732a35.334,35.334,0,0,0,8.78-4.62,25.925,25.925,0,0,0,7.765-9.062c.225-.475.4-.835.52-1.085A2.535,2.535,0,0,1,568.593,7153.981Z" fill="#344154"/>
        <g id="Grupo_59384" data-name="Grupo 59384" opacity="0.3">
          <path id="Trazado_103453" data-name="Trazado 103453" d="M562.085,7142.165a5.123,5.123,0,0,0-1.027-2.342c-2.387-3.357-6.469-5.2-10.551-5.744s-6.385-.225-10.454.443l-.257.186c6.88-.526,11.892,2.169,16.423,7.432a10.28,10.28,0,0,0,2.1,2.118,2.656,2.656,0,0,0,2.824.186A2.433,2.433,0,0,0,562.085,7142.165Z"/>
        </g>
        <path id="Trazado_103454" data-name="Trazado 103454" d="M559.178,7139.5a21.363,21.363,0,0,0-2.169-2.2,14.929,14.929,0,0,0-6.7-3.055,22.849,22.849,0,0,0-7.431-.1c-.95.122-1.714.243-2.247.327a4.019,4.019,0,0,1-.834.09,3.834,3.834,0,0,1,.809-.218c.526-.122,1.283-.276,2.239-.437a21.593,21.593,0,0,1,7.529,0,14.439,14.439,0,0,1,6.783,3.209,10.806,10.806,0,0,1,1.566,1.675A3.632,3.632,0,0,1,559.178,7139.5Z" fill="#344154"/>
        <path id="Trazado_103455" data-name="Trazado 103455" d="M571.705,7055.826a26.561,26.561,0,0,0-4.312-.641,17.172,17.172,0,0,0-2.2.057c-.391.045-.795.129-1.206.186a8.552,8.552,0,0,0-1.284.289,16.073,16.073,0,0,0-5.211,2.413,20.943,20.943,0,0,0-4.2,3.96c-.289.334-.514.713-.77,1.046a6.78,6.78,0,0,0-.694,1.014c-.391.687-.8,1.284-1.1,1.926s-.559,1.148-.8,1.636-.379.931-.526,1.284-.244.584-.334.808-.129.276-.141.27a.868.868,0,0,1,.077-.3c.077-.225.167-.5.276-.828s.269-.8.475-1.284l.763-1.675c.289-.642.687-1.245,1.072-1.925.193-.353.456-.642.693-1.033a7.968,7.968,0,0,1,.77-1.072,20.226,20.226,0,0,1,4.249-4.037,16.038,16.038,0,0,1,5.32-2.445,8.569,8.569,0,0,1,1.284-.276c.423-.058.834-.135,1.232-.173a17.385,17.385,0,0,1,2.233,0l.976.07c.3.045.584.1.854.148a7.9,7.9,0,0,1,1.354.3l.84.257A1.506,1.506,0,0,1,571.705,7055.826Z" fill="#344154"/>
        <path id="Trazado_103456" data-name="Trazado 103456" d="M485.3,7074.926a.68.68,0,0,1,0,.18v.526c0,.481-.084,1.155-.154,2.015-.135,1.746-.366,4.274-.642,7.4-.642,6.244-1.624,14.857-3.023,24.336s-2.926,18.015-4.139,24.17c-.6,3.08-1.111,5.57-1.489,7.284-.186.834-.328,1.5-.437,1.97-.045.212-.09.379-.122.514a.587.587,0,0,1-.051.173.677.677,0,0,1,0-.18,3.627,3.627,0,0,1,.09-.52c.09-.475.218-1.142.372-1.983.334-1.752.809-4.235,1.386-7.3,1.149-6.168,2.638-14.7,4.044-24.176s2.432-18.073,3.112-24.311c.328-3.1.6-5.622.783-7.387.1-.853.167-1.527.218-2.009a3.171,3.171,0,0,1,.065-.526A.534.534,0,0,1,485.3,7074.926Z" fill="#344154"/>
        <g id="Grupo_59385" data-name="Grupo 59385" opacity="0.3">
          <path id="Trazado_103457" data-name="Trazado 103457" d="M478.564,7124.459c2.156-8.016,3-16.879,4.1-25.338-1.367,9.582-6.033,20.717-11.373,28.79C473.949,7126.743,476.426,7125.588,478.564,7124.459Z"/>
        </g>
        <g id="Grupo_59386" data-name="Grupo 59386" opacity="0.3">
          <path id="Trazado_103458" data-name="Trazado 103458" d="M526.415,7048.478a121.96,121.96,0,0,0,3.851,14.459,2.964,2.964,0,0,0,.834,1.4,1.922,1.922,0,0,0,1.79.187,4.361,4.361,0,0,0,1.515-1.066c2.336-2.323,3.6-5.468,5.07-8.414a87.827,87.827,0,0,1,9.126-13.753c-6.892,5.776-11.988,12.367-16.981,18.766Z"/>
        </g>
        <g id="Grupo_59387" data-name="Grupo 59387" opacity="0.3">
          <path id="Trazado_103459" data-name="Trazado 103459" d="M509.08,7044.993a127.348,127.348,0,0,0,6.335,18.913c.122.289.3.642.609.642a.954.954,0,0,0,.719-.475,62.982,62.982,0,0,0,7.817-15.614l-8.163,11.006Z"/>
        </g>
        <path id="Trazado_103460" data-name="Trazado 103460" d="M530.041,7115.634a1.332,1.332,0,0,1-.347.167l-1.02.424c-.886.365-2.176.866-3.78,1.463-3.209,1.194-7.7,2.734-12.707,4.21s-9.627,2.606-12.958,3.337c-1.675.372-3.029.642-3.973.822l-1.084.192a2.19,2.19,0,0,1-.385.052,1.513,1.513,0,0,1,.372-.116l1.072-.257,3.94-.924c3.331-.789,7.913-1.957,12.926-3.427s9.5-3,12.713-4.133l3.851-1.361,1.04-.359A1.431,1.431,0,0,1,530.041,7115.634Z" fill="#344154"/>
        <path id="Trazado_103461" data-name="Trazado 103461" d="M521.37,7075.542a.853.853,0,0,1-.147.109l-.443.282c-.4.244-.976.642-1.707,1.111-1.47.975-3.5,2.522-6.142,4.28a30.7,30.7,0,0,1-4.531,2.516,17.607,17.607,0,0,1-5.776,1.431,11.682,11.682,0,0,1-6.418-1.283,8.055,8.055,0,0,1-2.631-2.323,5.64,5.64,0,0,1-1.1-3.447,3.846,3.846,0,0,1,.54-1.778,3.7,3.7,0,0,1,1.334-1.283,4.987,4.987,0,0,1,3.472-.52,4.33,4.33,0,0,1,2.8,1.887,5.511,5.511,0,0,1,.886,3.125,6.611,6.611,0,0,1-.738,3,6.738,6.738,0,0,1-1.887,2.227,9.382,9.382,0,0,1-4.846,1.8,12.469,12.469,0,0,1-4.268-.378,19.925,19.925,0,0,1-3.048-1.053,19.639,19.639,0,0,1-1.842-.879l-.462-.25c-.107-.056-.158-.088-.154-.1a.543.543,0,0,1,.167.065l.481.224c.424.193,1.04.481,1.861.815a21.122,21.122,0,0,0,3.042,1,12.657,12.657,0,0,0,4.2.327,9.227,9.227,0,0,0,4.7-1.79,6.441,6.441,0,0,0,1.791-2.144,6.356,6.356,0,0,0,.693-2.869,5.2,5.2,0,0,0-.841-2.952,4.03,4.03,0,0,0-2.612-1.739,4.633,4.633,0,0,0-3.209.488,3.253,3.253,0,0,0-1.213,1.149,3.5,3.5,0,0,0-.494,1.623,5.275,5.275,0,0,0,1.039,3.209,7.706,7.706,0,0,0,2.523,2.234,11.373,11.373,0,0,0,6.238,1.283,17.379,17.379,0,0,0,5.692-1.38,30.209,30.209,0,0,0,4.493-2.458c2.644-1.72,4.7-3.247,6.2-4.191.745-.474,1.335-.834,1.74-1.059l.468-.256A.587.587,0,0,1,521.37,7075.542Z" fill="#fff"/>
        <path id="Trazado_103462" data-name="Trazado 103462" d="M545.412,7092.7a.257.257,0,0,1-.142-.077l-.391-.269a12.073,12.073,0,0,0-1.566-.9,12.751,12.751,0,0,0-6.418-1.283,12.494,12.494,0,0,0-8.555,4.28,10.084,10.084,0,0,0-2.516,5.09,5.458,5.458,0,0,0,.36,2.945,4.159,4.159,0,0,0,2.034,2.2,3.9,3.9,0,0,0,3.01.032,4.919,4.919,0,0,0,2.356-1.778,3.8,3.8,0,0,0,.641-1.283,4.633,4.633,0,0,0,.18-1.419,5.851,5.851,0,0,0-.7-2.67,6.726,6.726,0,0,0-1.662-2.066,7.6,7.6,0,0,0-2.188-1.22,10.047,10.047,0,0,0-4.493-.468,17.241,17.241,0,0,0-6.225,2.2c-.687.378-1.213.693-1.566.911l-.411.238-.141.077a.7.7,0,0,1,.122-.1l.392-.27c.346-.231.86-.564,1.54-.969a23.188,23.188,0,0,1,2.567-1.283,14.024,14.024,0,0,1,3.69-1.014,10.161,10.161,0,0,1,4.608.436,7.854,7.854,0,0,1,2.285,1.284,6.969,6.969,0,0,1,1.746,2.143,6.187,6.187,0,0,1,.75,2.818,5.024,5.024,0,0,1-.186,1.508,4.214,4.214,0,0,1-.641,1.4,5.246,5.246,0,0,1-2.51,1.926,4.265,4.265,0,0,1-3.209-.084,4.493,4.493,0,0,1-2.195-2.374,5.844,5.844,0,0,1-.385-3.126,10.429,10.429,0,0,1,2.612-5.25,12.548,12.548,0,0,1,15.262-2.894A9.028,9.028,0,0,1,545.412,7092.7Z" fill="#fff"/>
        <path id="Trazado_103463" data-name="Trazado 103463" d="M582.192,7077.166l-.147.057-.443.135a13.891,13.891,0,0,1-1.727.372,16.757,16.757,0,0,1-6.482-.308,16.361,16.361,0,0,1-4.184-1.675,10.117,10.117,0,0,1-2.041-1.5,6.084,6.084,0,0,1-1.508-2.233,4.282,4.282,0,0,1,0-2.831,3.212,3.212,0,0,1,2.041-2.118,3.288,3.288,0,0,1,2.965.681,4.241,4.241,0,0,1,1.566,2.727,6.189,6.189,0,0,1-.437,3.119,10.905,10.905,0,0,1-1.514,2.638,15.336,15.336,0,0,1-9.062,5.725,14.672,14.672,0,0,1-4.493.224,15.3,15.3,0,0,1-6.167-2.015,11.248,11.248,0,0,1-1.926-1.4l.135.084.372.263a16.3,16.3,0,0,0,1.489.943,15.549,15.549,0,0,0,6.123,1.887,14.573,14.573,0,0,0,4.415-.257,15.132,15.132,0,0,0,8.857-5.654,10.46,10.46,0,0,0,1.47-2.567,5.941,5.941,0,0,0,.417-2.952,3.907,3.907,0,0,0-1.451-2.51,2.926,2.926,0,0,0-2.657-.641,2.879,2.879,0,0,0-1.835,1.925,3.965,3.965,0,0,0,0,2.625,7.411,7.411,0,0,0,3.395,3.594,16.321,16.321,0,0,0,4.107,1.681,17.016,17.016,0,0,0,6.418.411c.758-.1,1.342-.218,1.733-.308l.443-.1A.722.722,0,0,1,582.192,7077.166Z" fill="#fff"/>
        <path id="Trazado_103464" data-name="Trazado 103464" d="M482.138,7093.557a12.852,12.852,0,0,0-.9-1.226,7.441,7.441,0,0,0-3.408-2.233,7.223,7.223,0,0,0-5.859.757,4.745,4.745,0,0,0-2.246,2.625,1.924,1.924,0,0,0,.333,1.688,2.564,2.564,0,0,0,1.624.84,2.821,2.821,0,0,0,1.823-.321,3.6,3.6,0,0,0,1.283-1.283,6.8,6.8,0,0,0,.828-3.44,11.316,11.316,0,0,0-1.636-5.827,11.922,11.922,0,0,0-2.709-3.113c-.776-.6-1.283-.86-1.245-.892a1.645,1.645,0,0,1,.36.173,10.824,10.824,0,0,1,.962.642,11.512,11.512,0,0,1,4.576,9.043,7.062,7.062,0,0,1-.853,3.606,3.975,3.975,0,0,1-1.393,1.432,3.159,3.159,0,0,1-2.034.365,2.873,2.873,0,0,1-1.836-.969,2.212,2.212,0,0,1-.391-1.97,5.029,5.029,0,0,1,2.4-2.811,7.448,7.448,0,0,1,6.09-.719,7.37,7.37,0,0,1,3.44,2.375,7.278,7.278,0,0,1,.642.943A1.593,1.593,0,0,1,482.138,7093.557Z" fill="#fff"/>
        <path id="Trazado_103465" data-name="Trazado 103465" d="M518.046,7045.109a16.173,16.173,0,0,0-3.613,1.2,15.772,15.772,0,0,0-3.036,2.3,6.757,6.757,0,0,1,2.875-2.567A6.827,6.827,0,0,1,518.046,7045.109Z" fill="#fff"/>
        <path id="Trazado_103466" data-name="Trazado 103466" d="M538.981,7050.172a3.584,3.584,0,0,1-1.38-.455,7.636,7.636,0,0,1-4.043-5.526,3.611,3.611,0,0,1,0-1.457c.064,0,.064.552.25,1.412a8.345,8.345,0,0,0,3.9,5.384A12.3,12.3,0,0,0,538.981,7050.172Z" fill="#fff"/>
        <path id="Trazado_103467" data-name="Trazado 103467" d="M497.856,7140.664a5.113,5.113,0,0,1-.861.3,9.312,9.312,0,0,1-1.026.283c-.411.09-.867.211-1.387.282a23.469,23.469,0,0,1-3.671.327,24.209,24.209,0,0,1-8.843-1.61,23.3,23.3,0,0,1-3.318-1.6c-.462-.25-.848-.526-1.194-.75a9.843,9.843,0,0,1-.866-.642,5.136,5.136,0,0,1-.7-.591c.045-.051,1.059.758,2.875,1.759a25.466,25.466,0,0,0,3.312,1.514,27.06,27.06,0,0,0,4.3,1.181,27.677,27.677,0,0,0,4.434.411,25.689,25.689,0,0,0,3.633-.25C496.572,7141.017,497.856,7140.619,497.856,7140.664Z" fill="#fff"/>
        <path id="Trazado_103468" data-name="Trazado 103468" d="M538.808,7126.75a.539.539,0,0,1-.161-.052l-.449-.179-.719-.295c-.289-.11-.642-.212-1.014-.341a20.971,20.971,0,0,0-6.681-.982,21.411,21.411,0,0,0-9.627,2.478,19.118,19.118,0,0,0-4.71,3.536,7.687,7.687,0,0,0-1.669,2.567,4.231,4.231,0,0,0,0,3.061,2.911,2.911,0,0,0,2.227,1.926,3.159,3.159,0,0,0,2.676-1.078,3.7,3.7,0,0,0,1.053-2.651,5.185,5.185,0,0,0-.86-2.663,8.48,8.48,0,0,0-4.1-3.248,10.98,10.98,0,0,0-4.556-.706,11.193,11.193,0,0,0-6.245,2.311,15.535,15.535,0,0,0-1.778,1.732.518.518,0,0,1,.09-.134l.295-.385a4.282,4.282,0,0,1,.52-.591,7.625,7.625,0,0,1,.79-.725,11.325,11.325,0,0,1,10.987-1.759,8.749,8.749,0,0,1,4.255,3.338,5.57,5.57,0,0,1,.918,2.824,4.033,4.033,0,0,1-1.136,2.881,3.49,3.49,0,0,1-2.959,1.188,3.212,3.212,0,0,1-2.49-2.118,4.49,4.49,0,0,1,0-3.293,7.917,7.917,0,0,1,1.733-2.689,19.254,19.254,0,0,1,4.807-3.587,21.314,21.314,0,0,1,9.781-2.439,20.361,20.361,0,0,1,6.732,1.084c.379.142.719.257,1,.373l.719.333.43.206A.656.656,0,0,1,538.808,7126.75Z" fill="#fff"/>
        <path id="Trazado_103469" data-name="Trazado 103469" d="M571.083,7119.279a1.979,1.979,0,0,1-.257.174l-.77.443c-.334.186-.751.41-1.245.641s-1.046.514-1.688.764-1.335.552-2.1.809-1.592.513-2.464.776a41.289,41.289,0,0,1-5.776,1.117,40.738,40.738,0,0,1-5.918.192c-.911-.057-1.771-.1-2.567-.2s-1.553-.205-2.233-.327-1.284-.257-1.816-.372-.989-.238-1.355-.353l-.847-.257a.942.942,0,0,1-.289-.109,1.059,1.059,0,0,1,.308.045l.86.2c.373.09.828.2,1.361.295s1.142.237,1.823.321,1.412.212,2.214.282,1.656.129,2.567.173a43.024,43.024,0,0,0,5.866-.218,43.87,43.87,0,0,0,5.776-1.084c.866-.244,1.7-.462,2.452-.738s1.469-.514,2.105-.764,1.2-.5,1.7-.719.918-.417,1.284-.59l.8-.379A1.408,1.408,0,0,1,571.083,7119.279Z" fill="#fff"/>
        <path id="Trazado_103470" data-name="Trazado 103470" d="M439.453,7126.281a.868.868,0,0,1,.09-.289l.327-.8q.225-.507.5-1.252c.193-.494.411-1.052.642-1.681.455-1.245.9-2.766,1.36-4.454a55.439,55.439,0,0,0,1.111-5.6,45.505,45.505,0,0,0,.41-5.679,31.8,31.8,0,0,0-.34-4.634c-.051-.327-.083-.642-.141-.937s-.122-.565-.18-.822a11.413,11.413,0,0,0-.321-1.315l-.231-.822a.848.848,0,0,1-.057-.295,2.228,2.228,0,0,1,.122.276l.288.809a9.924,9.924,0,0,1,.379,1.283c.064.263.135.533.205.828s.11.6.174.937a29.155,29.155,0,0,1,.41,4.672,42.308,42.308,0,0,1-.385,5.725,51.39,51.39,0,0,1-1.142,5.629c-.475,1.694-.95,3.208-1.438,4.46-.231.642-.462,1.181-.673,1.669s-.392.9-.559,1.238l-.378.764A1.294,1.294,0,0,1,439.453,7126.281Z" fill="#fff"/>
        <path id="Trazado_103471" data-name="Trazado 103471" d="M526.094,7047.81a1.039,1.039,0,0,1,0,.193c0,.148-.039.334-.064.571l-.27,2.182c-.231,1.926-.642,4.64-1.116,8.023-1,6.764-2.568,16.083-4.66,26.313s-4.223,19.433-5.814,26.082c-.8,3.3-1.457,5.981-1.926,7.862-.231.911-.41,1.623-.545,2.137-.058.224-.109.41-.148.552a.623.623,0,0,1-.064.186,1.876,1.876,0,0,1,.032-.2c.03-.141.069-.328.116-.559l.481-2.15c.436-1.88,1.059-4.569,1.823-7.887,1.527-6.662,3.626-15.871,5.712-26.089s3.69-19.529,4.755-26.313c.533-3.375.944-6.109,1.22-8,.141-.931.25-1.656.333-2.182.039-.231.071-.417.09-.565A.908.908,0,0,1,526.094,7047.81Z" fill="#344154"/>
        <path id="Trazado_103472" data-name="Trazado 103472" d="M510.011,7122.334a2.653,2.653,0,0,1-.257.263l-.77.713a15.32,15.32,0,0,0-1.2,1.142l-.712.751a10.429,10.429,0,0,0-.771.867,26.082,26.082,0,0,0-1.611,2.111c-.269.4-.551.8-.827,1.226l-.783,1.36a31.633,31.633,0,0,0-2.657,6.45,41.743,41.743,0,0,0-1.284,6.861c-.071,1.072-.18,2.092-.186,3.048,0,.482,0,.944-.032,1.387s0,.872,0,1.283c0,.815.051,1.553.09,2.2s.07,1.207.122,1.656l.083,1.052a1.6,1.6,0,0,1,0,.366,1.3,1.3,0,0,1-.07-.359c-.045-.276-.09-.642-.154-1.04s-.129-1.014-.174-1.662-.128-1.38-.141-2.2c0-.411-.032-.835-.045-1.284s0-.911,0-1.393c0-.962.09-1.989.154-3.067a40.584,40.584,0,0,1,1.284-6.932,30.942,30.942,0,0,1,2.7-6.5l.8-1.373c.283-.424.578-.828.854-1.226a24.505,24.505,0,0,1,1.656-2.1,10.306,10.306,0,0,1,.8-.86l.738-.732a12.48,12.48,0,0,1,1.245-1.116l.815-.642A1.31,1.31,0,0,1,510.011,7122.334Z" fill="#344154"/>
        <path id="Trazado_103473" data-name="Trazado 103473" d="M545.45,6993.573c.4-13.413-8.876-24.683-22.3-24.708l-1.238.07a24,24,0,0,0-22.649,23.38c-.276,11.636-.436,24.485,0,30.7.886,12.836,13.863,14.119,13.863,14.119l.077,1.97,12.566,8.132,20.62-13.978Z" fill="#ffbe9d"/>
        <path id="Trazado_103474" data-name="Trazado 103474" d="M502.438,7001.063a1.835,1.835,0,0,0,1.874,1.752,1.752,1.752,0,0,0,1.8-1.706c0-.018,0-.035,0-.052a1.842,1.842,0,0,0-1.874-1.759,1.76,1.76,0,0,0-1.8,1.72Z" fill="#344154"/>
        <path id="Trazado_103475" data-name="Trazado 103475" d="M502.155,6997.79c.238.231,1.573-.879,3.55-.988s3.478.8,3.683.545c.1-.109-.16-.533-.815-.956a5.023,5.023,0,0,0-2.965-.732,4.878,4.878,0,0,0-2.811,1.085C502.213,6997.244,502.034,6997.687,502.155,6997.79Z" fill="#344154"/>
        <path id="Trazado_103476" data-name="Trazado 103476" d="M521.7,7000.376a1.841,1.841,0,0,0,1.874,1.752,1.752,1.752,0,0,0,1.8-1.706c0-.02,0-.039,0-.059a1.844,1.844,0,0,0-1.874-1.752,1.754,1.754,0,0,0-1.8,1.707Z" fill="#344154"/>
        <path id="Trazado_103477" data-name="Trazado 103477" d="M521.813,6996.121c.219.257,1.663-.706,3.639-.6s3.376,1.175,3.6.944c.109-.1-.1-.546-.706-1.04a5.059,5.059,0,0,0-2.869-1.046,4.854,4.854,0,0,0-2.907.77C521.942,6995.621,521.711,6996.012,521.813,6996.121Z" fill="#344154"/>
        <path id="Trazado_103478" data-name="Trazado 103478" d="M515.485,7012.788a13.368,13.368,0,0,0-3.241-.4c-.507,0-.994-.1-1.1-.436a2.569,2.569,0,0,1,.25-1.515q.642-1.868,1.284-3.927c1.765-5.59,3.01-10.173,2.785-10.237s-1.842,4.4-3.6,9.993l-1.213,3.94a2.91,2.91,0,0,0-.148,2,1.284,1.284,0,0,0,.866.694,3.315,3.315,0,0,0,.867.07A13.448,13.448,0,0,0,515.485,7012.788Z" fill="#344154"/>
        <path id="Trazado_103479" data-name="Trazado 103479" d="M521.377,7013.828c-.321,0-.206,2.144-1.925,3.774s-4.044,1.514-4.044,1.816c0,.135.533.391,1.5.359a5.336,5.336,0,0,0,3.382-1.4,4.662,4.662,0,0,0,1.5-3.151C521.794,7014.322,521.524,7013.809,521.377,7013.828Z" fill="#344154"/>
        <path id="Trazado_103480" data-name="Trazado 103480" d="M521.691,6989.6c.18.545,2.163.346,4.493.686s4.171,1.034,4.492.559c.141-.231-.173-.745-.911-1.284a7.878,7.878,0,0,0-6.835-.95C522.051,6988.933,521.6,6989.344,521.691,6989.6Z" fill="#e0e0e0"/>
        <path id="Trazado_103481" data-name="Trazado 103481" d="M502.784,6992.694c.379.43,1.714-.115,3.344-.224s3.042.128,3.337-.36c.129-.237-.115-.642-.744-1.065a4.652,4.652,0,0,0-2.766-.578,4.6,4.6,0,0,0-2.619,1.053C502.784,6992.014,502.624,6992.482,502.784,6992.694Z" fill="#e0e0e0"/>
        <path id="Trazado_103482" data-name="Trazado 103482" d="M537.2,6973.954c.642-.353,3.357,2.471,3.883,2.939,3.093,2.741,4.377,7.888,4.775,12a44.287,44.287,0,0,1-.09,11.8c-.077.5-.366,2.631-.366,2.631-.545.488-1.1,5.077-1.835,5.134-1.034.084-2.028-6.931-2.227-7.464a30.862,30.862,0,0,0-.86-4.73,42.859,42.859,0,0,1-1.476-7.611c-.18-3.575-1.534-8.876-1.72-12.451C537.255,6975.52,536.619,6974.288,537.2,6973.954Z" fill="#e0e0e0"/>
        <path id="Trazado_103483" data-name="Trazado 103483" d="M537.543,6978.69l7.464,5.379a29.649,29.649,0,0,1,.79,4.178l-7.419-4.493Z" fill="#fafafa"/>
        <path id="Trazado_103484" data-name="Trazado 103484" d="M543.486,7003.142c.212-.1,8.69-3.112,8.9,5.7s-8.671,7.208-8.69,6.951S543.486,7003.142,543.486,7003.142Z" fill="#ffbe9d"/>
        <path id="Trazado_103485" data-name="Trazado 103485" d="M546.3,7012.39c.038,0,.16.1.417.219a1.533,1.533,0,0,0,1.149,0c.924-.366,1.668-1.861,1.675-3.447a5.2,5.2,0,0,0-.482-2.188,1.776,1.776,0,0,0-1.187-1.149.775.775,0,0,0-.892.443c-.116.25-.051.423-.1.443s-.193-.148-.135-.514a1,1,0,0,1,.334-.558,1.137,1.137,0,0,1,.84-.244,2.155,2.155,0,0,1,1.637,1.329,5.177,5.177,0,0,1,.6,2.438c0,1.778-.886,3.46-2.15,3.851a1.612,1.612,0,0,1-1.406-.2C546.323,7012.6,546.272,7012.41,546.3,7012.39Z" fill="#eb996e"/>
        <path id="Trazado_103486" data-name="Trazado 103486" d="M512.95,7037.125A30.949,30.949,0,0,0,530,7031.214s-3.588,9.409-14.119,9.627c-.174,0-2.689-1.74-2.689-1.74Z" fill="#eb996e"/>
        <path id="Trazado_103487" data-name="Trazado 103487" d="M509.581,7003.373a4.452,4.452,0,0,1-3.209,1.252c-1.983.109-3.434-.725-3.337-.854a25.715,25.715,0,0,0,3.3.244C508.143,7003.893,509.491,7003.213,509.581,7003.373Z" fill="#eb996e"/>
        <path id="Trazado_103488" data-name="Trazado 103488" d="M509.748,6996.609c-.071.051-.328-.231-.835-.526a5.013,5.013,0,0,0-2.143-.642,13.439,13.439,0,0,0-2.336.1c-.642.057-.995.07-1.014,0s.333-.244.937-.417a7.358,7.358,0,0,1,2.458-.283,4.13,4.13,0,0,1,2.355.9C509.671,6996.166,509.812,6996.571,509.748,6996.609Z" fill="#eb996e"/>
        <path id="Trazado_103489" data-name="Trazado 103489" d="M534.6,6995.9c.115.109-.642.956-1.926,1.347s-2.355.116-2.323-.038a19.517,19.517,0,0,1,2.144-.546C533.622,6996.3,534.482,6995.762,534.6,6995.9Z" fill="#eb996e"/>
        <path id="Trazado_103490" data-name="Trazado 103490" d="M535.233,6998.586c.09.134-.77.725-1.983.642s-1.983-.8-1.874-.918.885.244,1.925.308S535.156,6998.425,535.233,6998.586Z" fill="#eb996e"/>
        <path id="Trazado_103491" data-name="Trazado 103491" d="M529.425,6995.325c-.1.154-1.5-1.078-3.62-1.174s-3.639.963-3.722.8c-.045-.058.257-.417.918-.783a5.456,5.456,0,0,1,5.6.289C529.213,6994.889,529.476,6995.274,529.425,6995.325Z" fill="#eb996e"/>
        <path id="Trazado_103492" data-name="Trazado 103492" d="M527.795,7002.173c.115.116-.783,1.034-2.272,1.374a3.308,3.308,0,0,1-2.651-.225c.052-.148,1.175-.051,2.51-.372S527.686,7002.039,527.795,7002.173Z" fill="#eb996e"/>
        <path id="Trazado_103493" data-name="Trazado 103493" d="M523.026,7013.944c-.147.1-.6-.347-1.322-.475s-1.283.083-1.412-.058.539-.738,1.528-.539S523.187,7013.879,523.026,7013.944Z" fill="#eb996e"/>
        <path id="Trazado_103494" data-name="Trazado 103494" d="M524.579,7013.353c-.154.077-.513-.321-1.059-.642s-1.071-.417-1.084-.59.642-.353,1.386.058S524.733,7013.295,524.579,7013.353Z" fill="#eb996e"/>
        <path id="Trazado_103495" data-name="Trazado 103495" d="M537.242,7026.022a.588.588,0,0,1,.237.462,3.527,3.527,0,0,1-.3,1.322.955.955,0,0,0,.4,1.292.838.838,0,0,0,.109.049,3.224,3.224,0,0,1,1.014.745,1.6,1.6,0,0,1,.179,1.457,12.873,12.873,0,0,1-1.283,2.066,1.719,1.719,0,0,0,.135,1.637c.551.892,1.123,1.348,1.046,1.425s-.687-.257-1.412-1.194a2.118,2.118,0,0,1-.283-2.092c.315-.77.982-1.284,1.188-2.028a1.023,1.023,0,0,0-.077-.918,3.129,3.129,0,0,0-.828-.642,1.518,1.518,0,0,1-.77-.943,1.718,1.718,0,0,1,.154-1.027,5.186,5.186,0,0,0,.468-1.181C537.28,7026.208,537.2,7026.048,537.242,7026.022Z" fill="#eb996e"/>
        <path id="Trazado_103496" data-name="Trazado 103496" d="M542.71,7034.705c-.052.039-.514-.34-1.014-1.213a2.72,2.72,0,0,1-.321-1.784c.115-.757.86-1.283.751-1.752s-.738-.828-1.284-1.251a1.832,1.832,0,0,1-.642-1.727,1.783,1.783,0,0,1,.572-1.078c.231-.18.391-.212.41-.18a2.532,2.532,0,0,0-.552,1.284,1.426,1.426,0,0,0,.572,1.245c.218.173.513.321.815.545a1.7,1.7,0,0,1,.706,1.053,1.673,1.673,0,0,1-.405,1.187,2.122,2.122,0,0,0-.4.777,2.479,2.479,0,0,0,.16,1.482A8.6,8.6,0,0,1,542.71,7034.705Z" fill="#eb996e"/>
        <path id="Trazado_103497" data-name="Trazado 103497" d="M523.527,6982.644a2.792,2.792,0,0,1-1.99.731c-1.347.09-3.125-.295-4.929.129-.9.237-1.726.68-2.567.975a4.889,4.889,0,0,1-2.317.366,2.616,2.616,0,0,1-1.476-.6c-.282-.263-.359-.462-.327-.481a3.456,3.456,0,0,0,1.836.642,5.084,5.084,0,0,0,2.079-.456,19.835,19.835,0,0,1,2.567-1.046,8.341,8.341,0,0,1,2.843-.128c.847.077,1.6.16,2.221.16A12.262,12.262,0,0,0,523.527,6982.644Z" fill="#eb996e"/>
        <path id="Trazado_103498" data-name="Trazado 103498" d="M520.607,6980.8c0,.173-2.24.282-4.987.411s-4.987.231-5.006.057,2.2-.539,4.974-.641S520.607,6980.635,520.607,6980.8Z" fill="#eb996e"/>
        <path id="Trazado_103499" data-name="Trazado 103499" d="M518.784,6978.716c-.051.167-.9.051-1.925,0s-1.926-.115-1.926-.282.854-.424,1.964-.328S518.835,6978.562,518.784,6978.716Z" fill="#eb996e"/>
        <path id="Trazado_103500" data-name="Trazado 103500" d="M501.944,6999.394c.083.148-.584.539-1.406.244s-1.1-1.02-.937-1.084.539.3,1.143.507S501.886,6999.234,501.944,6999.394Z" fill="#eb996e"/>
        <path id="Trazado_103501" data-name="Trazado 103501" d="M501.167,7000.4c.064.16-.25.436-.52.821s-.436.764-.642.751-.275-.565.116-1.1S501.116,7000.242,501.167,7000.4Z" fill="#eb996e"/>
        <path id="Trazado_103502" data-name="Trazado 103502" d="M455.986,7159.16l-15.711-4.031a2.619,2.619,0,0,0-3.2,1.861l-.007.026-4.454,17.373a2.611,2.611,0,0,0,1.846,3.2l.034.009,33.116,8.491a2.618,2.618,0,0,0,3.2-1.86l.007-.027,4.454-17.366a2.618,2.618,0,0,0-1.86-3.2l-.027-.007Z" fill="#344154"/>
        <path id="Trazado_103503" data-name="Trazado 103503" d="M458.707,7182.534c-.09,0,1.142-4.538,2.747-10.076s2.984-10.019,3.074-9.993-1.143,4.544-2.754,10.082S458.79,7182.559,458.707,7182.534Z" fill="#455a64"/>
        <path id="Trazado_103504" data-name="Trazado 103504" d="M487.279,7161.355s-4.9.436-6.264.077-10.057-3.331-11.777-3.6a9.024,9.024,0,0,0-1.283-.109,8.6,8.6,0,0,0-3.851.835l-3.709,1.726,8.009,2.054s-.032.718-1.36,2.008-16.822,7.593-17.868,8.138-2.118,1.284-1.341,2.433a6.117,6.117,0,0,0,3.665,1.925,13.355,13.355,0,0,0,2.926-.642s-4.492,2.433-4.576,3.344.52,2.49,1.406,2.362c.744-.1,4.614-.9,4.614-.9s10.012-2.118,10.365-1.79-4.659,3.356-5.378,3.549-3.851.141-4.583.494a1.623,1.623,0,0,0-.057,2.888,17.132,17.132,0,0,0,4.261,1.778,1.842,1.842,0,0,0-.436,2.111,2.351,2.351,0,0,0,1.925,1.406,7.01,7.01,0,0,0,4-.95c.88-.578,15.724-6.168,16.687-6.81s4.049-4.075,5.352-5.076a37.006,37.006,0,0,1,3.5-2.24Z" fill="#ffbe9d"/>
        <path id="Trazado_103505" data-name="Trazado 103505" d="M451.384,7178.022a4.079,4.079,0,0,1,.642-.533,7.541,7.541,0,0,1,.821-.545l.527-.321.641-.315a44.567,44.567,0,0,1,7.06-2.644,71.584,71.584,0,0,0,7.124-2.432l.641-.27.546-.276c.34-.167.642-.314.866-.455a4.733,4.733,0,0,1,.738-.4,4.717,4.717,0,0,1-.68.494,8.827,8.827,0,0,1-.847.5l-.545.3-.642.288a55.751,55.751,0,0,1-7.118,2.523,51.922,51.922,0,0,0-7.059,2.567l-.642.295-.533.295a9.28,9.28,0,0,0-.84.5A4.83,4.83,0,0,1,451.384,7178.022Z" fill="#eb996e"/>
        <path id="Trazado_103506" data-name="Trazado 103506" d="M469.168,7177.316a8.343,8.343,0,0,0,6.18-2.7,2.463,2.463,0,0,1-.642.835,6.648,6.648,0,0,1-2.073,1.424,6.483,6.483,0,0,1-2.458.552A2.43,2.43,0,0,1,469.168,7177.316Z" fill="#eb996e"/>
        <path id="Trazado_103507" data-name="Trazado 103507" d="M460.061,7187.828a3.115,3.115,0,0,1,.642-.205c.423-.109,1.033-.27,1.784-.481a51.651,51.651,0,0,0,11.212-4.653c.68-.379,1.226-.693,1.6-.918a2.921,2.921,0,0,1,.6-.315,3.4,3.4,0,0,1-.546.411c-.359.251-.892.591-1.56,1a42.82,42.82,0,0,1-11.244,4.672c-.757.186-1.379.321-1.809.4A2.845,2.845,0,0,1,460.061,7187.828Z" fill="#eb996e"/>
        <path id="Trazado_103508" data-name="Trazado 103508" d="M442.9,7151.946l-1.938,4.4,25.813,6.264Z" fill="#455a64"/>
        <path id="Trazado_103509" data-name="Trazado 103509" d="M465.291,7162.613a1.134,1.134,0,0,1-.276,0,4.459,4.459,0,0,1-.789-.058c-.68-.064-1.669-.186-2.875-.392a85.28,85.28,0,0,1-9.312-2.214c-3.594-.975-6.912-1.649-9.268-2.336-1.181-.327-2.124-.642-2.772-.866a5.9,5.9,0,0,1-.989-.405,7.322,7.322,0,0,1,1.027.283c.642.186,1.611.462,2.792.764,2.362.641,5.686,1.283,9.3,2.239s6.868,1.836,9.268,2.3c1.193.231,2.169.392,2.849.495A7.443,7.443,0,0,1,465.291,7162.613Z" fill="#455a64"/>
      </g>
      <g id="freepik--Counter--inject-14">
        <path id="Trazado_103510" data-name="Trazado 103510" d="M603.365,7207.146c0,.1-95.2.167-212.6.167s-212.617-.071-212.617-.167,95.17-.167,212.617-.167S603.365,7207.056,603.365,7207.146Z" fill="#344154"/>
      </g>
      <g id="freepik--speech-bubble--inject-14">
        <path id="Trazado_103511" data-name="Trazado 103511" d="M298.6,7036.695l6.726-11.873a31.825,31.825,0,1,1,7.624,8.484h0Z" fill="#6595bf"/>
        <path id="Trazado_103512" data-name="Trazado 103512" d="M298.6,7036.695l14.363-3.466-.045.129h0l-.385-.5.5.385a32.839,32.839,0,0,0,6.521,3.851,31.731,31.731,0,0,0,8.664,2.438,28.358,28.358,0,0,0,4.993.238c.854-.051,1.733-.077,2.612-.154l2.663-.411a31.808,31.808,0,0,0,19.652-12.669,31.34,31.34,0,0,0,5.3-12.155,32.162,32.162,0,0,0-.379-13.991,31.013,31.013,0,0,0-6.745-12.925l-1.283-1.412a17.414,17.414,0,0,0-1.38-1.284,15.772,15.772,0,0,0-1.425-1.245l-1.508-1.123a11.96,11.96,0,0,0-1.566-1.033l-1.592-.969-1.668-.815a14.485,14.485,0,0,0-1.688-.751,32.093,32.093,0,0,0-14.119-2.176,31.087,31.087,0,0,0-12.945,3.812,32.055,32.055,0,0,0-14.973,18.362,34.4,34.4,0,0,0-1.4,10.268,31.68,31.68,0,0,0,1.508,8.87,32.368,32.368,0,0,0,3.138,6.815v.084c-4.37,7.592-6.507,11.346-6.815,11.828l6.674-11.925v.084a32.351,32.351,0,0,1-3.209-6.842,31.688,31.688,0,0,1-1.553-8.92,34.369,34.369,0,0,1,1.386-10.339A32.239,32.239,0,0,1,317,6980.218a31.338,31.338,0,0,1,13.073-3.851,32.48,32.48,0,0,1,14.241,2.189,16.362,16.362,0,0,1,1.7.757l1.688.821,1.611.982a13.436,13.436,0,0,1,1.572,1.027l1.521,1.143a17.967,17.967,0,0,1,1.444,1.283c.462.437.969.834,1.4,1.284l1.284,1.425a31.4,31.4,0,0,1,6.809,13.066,32.392,32.392,0,0,1,.372,14.119,31.565,31.565,0,0,1-5.365,12.271,32.085,32.085,0,0,1-19.85,12.753l-2.689.4c-.886.077-1.772.1-2.632.147a28.8,28.8,0,0,1-5.031-.256,32,32,0,0,1-8.709-2.445,32.646,32.646,0,0,1-6.54-3.941l.122-.115h0l.077.109h-.122Z" fill="#344154"/>
        <path id="Trazado_103513" data-name="Trazado 103513" d="M321.808,7008.636l3.215-3.215,6.2,5.513,12.175-11.712,2.984,3.215-15.615,14.7Z" fill="#fff"/>
      </g>
      <rect id="Rectángulo_5556" data-name="Rectángulo 5556" width="254.459" height="15.849" transform="translate(350.798 7191.461)" fill="#a66d58"/>
    </g>
  </g>
</svg>
