<svg xmlns="http://www.w3.org/2000/svg" width="358.739" height="360.497" viewBox="0 0 358.739 360.497">
  <g id="Grupo_59377" data-name="Grupo 59377" transform="translate(-2099.534 -5269.955)">
    <g id="freepik--background-complete--inject-46" transform="translate(2099.534 5269.955)">
      <path id="Trazado_103149" data-name="Trazado 103149" d="M2304.324,5708.372c-1.25-1.076-4.042-4.477-1.89-8.432.791-1.456,2.468-2.175,3.955-2.808a16.091,16.091,0,0,0,4.374-2.27c2.373-2.009,3.021-5.363,4.6-8.053,1.8-3.084,5.173-5.395,8.7-5.236,4.074.189,7.475,3.52,9.018,7.316s1.582,8.013,1.629,12.11c0,2.271-.087,4.825-1.748,6.328-1.535,1.416-3.844,1.432-5.925,1.369l-22.282-.688" transform="translate(-2141.775 -5355.983)" fill="#aed3f2"/>
      <path id="Trazado_103150" data-name="Trazado 103150" d="M2343.429,5638h-58.6l10.56,62.939a7.017,7.017,0,0,0,5,5.6l.206.055a5.362,5.362,0,0,0,.522.134,7.243,7.243,0,0,0,1.187.143v.055l.285-.047h26.1a7.118,7.118,0,0,0,1.432-.143,7.039,7.039,0,0,0,5.925-6.146l5.094-43.362.229-1.725h0l2.017-17.181Zm-11.074,40.15h-6.012l.609-18.272h6.969Zm2.144-18.272h5.758l-2.128,18.312h-5.173Zm-17.173,38.514-.372-15.868h8.661l-.53,15.868Zm-9.365-15.868h8.416l.364,15.868h-7.546Zm.649,15.868h-7.056c-.664-4.279-1.582-9.848-2.484-15.868h8.306Zm-.973-20.2-1.416-18.272h9.65l.419,18.272Zm9.239,0-.427-18.272h9.935l-.6,18.272Zm-.522-22.646-.4-16.919h11.153l-.562,16.919Zm-.585,0h-9.887l-1.321-16.919h10.821Zm-10.473,0H2294.83c-.372-2.373-.728-4.548-1.044-6.542-1.092-6.834-1.5-9.413-1.725-10.378h11.92Zm.34,4.375,1.416,18.272H2298.4c-.292-1.859-.585-3.734-.878-5.608-.68-4.311-1.36-8.622-2-12.656Zm-7.792,18.272h-5.656l-3.061-18.272h5.838C2295.827,5665.53,2296.815,5671.8,2297.844,5678.186Zm.688,4.374c.862,5.489,1.708,10.908,2.484,15.868h-5.466l-2.658-15.868Zm27.187,15.868.53-15.868h5.782l-1.353,15.868Zm1.424-42.888.562-16.919h8.084l-1.447,16.919Zm-35.595-16.919c.229,1.226,1.3,7.91,2.729,16.919h-5.925l-2.84-16.919Zm44.248,59.808h-4.572l1.36-15.868h5.031Zm5.031-42.888h-5.893l1.439-16.919h6.439Z" transform="translate(-2138.262 -5346.876)" fill="#e0e0e0"/>
      <rect id="Rectángulo_5512" data-name="Rectángulo 5512" width="30.532" height="60.527" transform="translate(225.607 55.931)" fill="#aed3f2"/>
      <rect id="Rectángulo_5513" data-name="Rectángulo 5513" width="32.992" height="60.527" transform="translate(257.318 55.931)" fill="#aed3f2"/>
      <rect id="Rectángulo_5514" data-name="Rectángulo 5514" width="32.992" height="58.486" transform="translate(257.318 120.69)" fill="#aed3f2"/>
      <path id="Trazado_103151" data-name="Trazado 103151" d="M2471.9,5324.842h34.74v-53.693h1.178v53.693h28.271v-54.887H2471.9Z" transform="translate(-2177.36 -5269.955)" fill="#aed3f2"/>
      <rect id="Rectángulo_5515" data-name="Rectángulo 5515" width="28.278" height="60.527" transform="translate(330.461 55.931)" fill="#aed3f2"/>
      <rect id="Rectángulo_5516" data-name="Rectángulo 5516" width="28.278" height="58.486" transform="translate(330.461 120.69)" fill="#aed3f2"/>
      <rect id="Rectángulo_5517" data-name="Rectángulo 5517" width="30.532" height="58.486" transform="translate(225.607 120.69)" fill="#aed3f2"/>
      <rect id="Rectángulo_5518" data-name="Rectángulo 5518" width="34.748" height="58.486" transform="translate(294.542 120.69)" fill="#aed3f2"/>
      <rect id="Rectángulo_5519" data-name="Rectángulo 5519" width="30.532" height="52.704" transform="translate(225.607 180.221)" fill="#aed3f2"/>
      <rect id="Rectángulo_5520" data-name="Rectángulo 5520" width="28.278" height="52.704" transform="translate(330.461 180.221)" fill="#aed3f2"/>
      <path id="Trazado_103152" data-name="Trazado 103152" d="M2415.285,5324.842v-53.693h1.179v53.693h32.992v-54.887h-64.7v54.887Z" transform="translate(-2159.146 -5269.955)" fill="#aed3f2"/>
      <rect id="Rectángulo_5521" data-name="Rectángulo 5521" width="34.748" height="52.704" transform="translate(294.542 180.221)" fill="#aed3f2"/>
      <rect id="Rectángulo_5522" data-name="Rectángulo 5522" width="32.992" height="52.704" transform="translate(257.318 180.221)" fill="#aed3f2"/>
      <rect id="Rectángulo_5523" data-name="Rectángulo 5523" width="34.748" height="60.527" transform="translate(294.542 55.931)" fill="#aed3f2"/>
      <path id="Trazado_103153" data-name="Trazado 103153" d="M2111.584,5446.31a3.109,3.109,0,0,1-3.8-2.159l-6.984-26.1a2.579,2.579,0,0,1,1.914-3.085l2.452-.656a2.665,2.665,0,0,0,1.954-2.018l.237-1.21a2.674,2.674,0,0,1,1.954-2.017l11.635-3.108a2.7,2.7,0,0,1,2.523.593l.791.751a2.7,2.7,0,0,0,2.523.586l14.823-3.955a2.571,2.571,0,0,1,3.164,1.716l7.119,26.641a3.1,3.1,0,0,1-2.191,3.8Z" transform="translate(-2099.784 -5297.935)" fill="#e0e0e0"/>
      <path id="Trazado_103154" data-name="Trazado 103154" d="M2125.082,5408.246l-9.437,2.516-1.282-1.353a3.361,3.361,0,0,0-3.314-.878l-9.215,2.476a2.983,2.983,0,0,0-2.223,3.575l.285,1.076,7.594,28.286a3.385,3.385,0,0,0,4.224,2.254h0l37.454-10.062a3.377,3.377,0,0,0,2.527-4.054l0-.012-7.182-26.7a2.231,2.231,0,0,0-2.727-1.585l-.01,0Z" transform="translate(-2099.534 -5297.91)" fill="#ebebeb"/>
      <path id="Trazado_103155" data-name="Trazado 103155" d="M2273.573,5394.355a3.757,3.757,0,0,1-2.769-4.533l7.657-31.695a3.109,3.109,0,0,1,3.821-2.167l2.982.72a3.224,3.224,0,0,0,3.243-1.021l.957-1.139a3.228,3.228,0,0,1,3.235-1.013l14.151,3.417a3.251,3.251,0,0,1,2.373,2.081l.427,1.273a3.267,3.267,0,0,0,2.373,2.081l18.035,4.358a3.109,3.109,0,0,1,2.413,3.67l-7.831,32.431a3.748,3.748,0,0,1-4.521,2.769h0Z" transform="translate(-2135.308 -5287.396)" fill="#e0e0e0"/>
      <path id="Trazado_103156" data-name="Trazado 103156" d="M2310.2,5361.354l-11.47-2.8-.562-2.167a4.074,4.074,0,0,0-3.021-2.871l-11.216-2.745a3.608,3.608,0,0,0-4.43,2.515l-.316,1.305-8.313,34.424a4.1,4.1,0,0,0,3.164,4.841l45.562,11a4.1,4.1,0,0,0,5.031-2.855l7.854-32.518a2.7,2.7,0,0,0-1.985-3.256l-.008,0Z" transform="translate(-2135.325 -5286.819)" fill="#ebebeb"/>
      <path id="Trazado_103157" data-name="Trazado 103157" d="M2160.375,5338.5a4.216,4.216,0,0,1-4.651-3.726l-3.955-36.386a3.489,3.489,0,0,1,3.207-3.749h0l3.417-.38a3.606,3.606,0,0,0,3.037-2.3l.57-1.582a3.632,3.632,0,0,1,3.037-2.3l16.247-1.787a3.638,3.638,0,0,1,3.259,1.3l.941,1.179a3.665,3.665,0,0,0,3.259,1.313l20.708-2.278a3.489,3.489,0,0,1,3.954,2.95v.008l4.09,37.217a4.208,4.208,0,0,1-3.714,4.65h-.012Z" transform="translate(-2110.449 -5273.363)" fill="#e0e0e0"/>
      <path id="Trazado_103158" data-name="Trazado 103158" d="M2186.515,5290.7l-13.138,1.416-1.416-2.064a4.572,4.572,0,0,0-4.287-1.891l-12.909,1.416a4.051,4.051,0,0,0-3.726,4.343l.166,1.5,4.343,39.55a4.6,4.6,0,0,0,5.173,3.86l52.3-5.75a4.6,4.6,0,0,0,4.232-4.933v0l-4.105-37.327a3.029,3.029,0,0,0-3.341-2.682h0Z" transform="translate(-2110.296 -5273.752)" fill="#f2e9e4"/>
      <path id="Trazado_103159" data-name="Trazado 103159" d="M2196.321,5318.352a5.109,5.109,0,0,0,2.507-5.031,4.8,4.8,0,1,0-9.6-.041,4.907,4.907,0,0,0,.111,1.046,5.1,5.1,0,0,0,3.552,4.406c-7.2,1.906-6,9.832-6,9.832l17.331-1.819S2203.7,5318.652,2196.321,5318.352Z" transform="translate(-2117.776 -5278.011)" fill="#e0e0e0"/>
      <path id="Trazado_103160" data-name="Trazado 103160" d="M2117.355,5344.509a9.129,9.129,0,0,1,2.278-.688l.7-2.1,3.639.364.269,2.191a8.826,8.826,0,0,1,2.1,1.131l1.978-.989,2.31,2.824-1.353,1.74a9.079,9.079,0,0,1,.688,2.278l2.088.7-.364,3.631-2.191.277a8.911,8.911,0,0,1-1.124,2.1l.989,2.009-2.824,2.317-1.74-1.36a9.048,9.048,0,0,1-2.286.688l-.7,2.1-3.662-.4-.277-2.191a9.26,9.26,0,0,1-2.1-1.147l-1.978.981-2.31-2.824,1.36-1.74a8.809,8.809,0,0,1-.688-2.278l-2.1-.7.364-3.63,2.191-.269a8.861,8.861,0,0,1,1.123-2.1l-.981-1.97,2.824-2.317Zm1.36,5.054a3.955,3.955,0,1,0,5.563.585l-.026-.032A3.956,3.956,0,0,0,2118.715,5349.563Z" transform="translate(-2101.735 -5284.955)" fill="#6595bf"/>
      <path id="Trazado_103161" data-name="Trazado 103161" d="M2135.7,5525.491a2.652,2.652,0,0,0,.949-.158,1.932,1.932,0,0,0,.886-.72,1.81,1.81,0,0,0,.277-.672c.048-.261.071-.554.111-.854.308-2.452.744-5.957,1.289-10.283l.435-3.4c.071-.593.15-1.194.229-1.812l.118-.925a4.6,4.6,0,0,0,.071-.91,1.8,1.8,0,0,0-.965-1.416,2.381,2.381,0,0,0-.91-.229l-1.012-.134-4.184-.538-18.644-2.428a1.782,1.782,0,0,0-1.819,1,2.07,2.07,0,0,0-.158.53l-.079.609c-.055.4-.1.791-.158,1.21q-.315,2.42-.625,4.746c-.419,3.117-.791,6.123-1.195,8.994-.095.711-.19,1.416-.277,2.112a1.772,1.772,0,0,0,.791,1.582,1.8,1.8,0,0,0,.878.309l.989.134,1.946.261,7.119.957,10.283,1.416,2.784.4.72.119a.794.794,0,0,1,.245.056h-.245l-.728-.071-2.8-.332-10.283-1.282-7.119-.91-1.946-.253-.989-.126a2.16,2.16,0,0,1-1.969-2.317c.087-.7.174-1.416.269-2.136.372-2.863.791-5.869,1.171-8.985q.308-2.373.625-4.746c.047-.4.1-.791.158-1.21l.079-.609a2.407,2.407,0,0,1,.19-.648,2.184,2.184,0,0,1,2.254-1.226l18.636,2.46,4.185.562,1.012.134a2.879,2.879,0,0,1,1.02.269,2.151,2.151,0,0,1,1.147,1.693,4.28,4.28,0,0,1-.079.989,6.175,6.175,0,0,1-.126.934c-.079.617-.158,1.218-.245,1.811-.158,1.179-.308,2.31-.459,3.394-.593,4.311-1.076,7.807-1.416,10.283-.048.3-.071.577-.127.854a2.029,2.029,0,0,1-.316.712,2,2,0,0,1-.957.735,1.7,1.7,0,0,1-.728.111A1.293,1.293,0,0,1,2135.7,5525.491Z" transform="translate(-2101.662 -5318.155)" fill="#e0e0e0"/>
      <path id="Trazado_103162" data-name="Trazado 103162" d="M2136.774,5524.828a1.759,1.759,0,0,1-.238-.3l-.609-.91c-.546-.854-1.281-1.994-2.175-3.37l-1.487-2.373-.4-.632a.586.586,0,0,0-.522-.253c-.214,0-.356.143-.578.333l-.633.546-1.305,1.115a2.8,2.8,0,0,1-.388.293.917.917,0,0,1-.546.1.882.882,0,0,1-.514-.221.946.946,0,0,1-.19-.206l-.127-.189c-.672-1.021-1.36-2.08-2.072-3.164l-1.052-1.582-.514-.791a.569.569,0,0,0-.585-.269.529.529,0,0,0-.293.15l-.316.316-.633.625-1.226,1.21-4.24,4.177-2.9,2.816-.791.744a1.553,1.553,0,0,1-.3.237,1.612,1.612,0,0,1,.237-.3l.791-.791,2.792-2.879c1.2-1.218,2.618-2.65,4.177-4.239l1.218-1.218.625-.633.324-.316a.927.927,0,0,1,.5-.261.973.973,0,0,1,1,.442l.514.791,1.052,1.582,2.072,3.164a.648.648,0,0,0,.815.421.642.642,0,0,0,.355-.278l1.313-1.107.64-.53a3.409,3.409,0,0,1,.332-.27.915.915,0,0,1,.467-.15.925.925,0,0,1,.791.419c.142.221.277.435.4.648l1.448,2.373,2.065,3.441.546.949C2136.718,5524.7,2136.774,5524.82,2136.774,5524.828Z" transform="translate(-2102.169 -5320.664)" fill="#e0e0e0"/>
      <path id="Trazado_103163" data-name="Trazado 103163" d="M2134.992,5510.783a2.907,2.907,0,0,0-.079-.569,2.363,2.363,0,0,0-.7-1.3,2.212,2.212,0,0,0-2.009-.538,2.16,2.16,0,0,0-.53,4.01,2.207,2.207,0,0,0,2.088,0,2.317,2.317,0,0,0,1.012-1.068c.15-.332.182-.538.222-.53a1.074,1.074,0,0,1-.079.585,2.3,2.3,0,0,1-1.012,1.266,2.482,2.482,0,0,1-2.373.095,2.524,2.524,0,0,1,.625-4.746,2.468,2.468,0,0,1,2.294.7,2.316,2.316,0,0,1,.625,1.511A1.063,1.063,0,0,1,2134.992,5510.783Z" transform="translate(-2105.924 -5319.693)" fill="#e0e0e0"/>
      <path id="Trazado_103164" data-name="Trazado 103164" d="M2292.511,5325.946a2.553,2.553,0,0,0,.933.253,1.956,1.956,0,0,0,1.1-.3,1.747,1.747,0,0,0,.53-.5c.15-.213.293-.474.451-.728l5.387-8.843,1.788-2.927c.316-.506.633-1.028.957-1.582l.49-.791a4.169,4.169,0,0,0,.435-.791,1.8,1.8,0,0,0-.3-1.693,2.481,2.481,0,0,0-.736-.577l-.87-.53-3.591-2.214-16.026-9.856a1.756,1.756,0,0,0-2.412.593h0l-.324.522-.656,1.06c-.854,1.376-1.7,2.737-2.523,4.074-1.661,2.673-3.259,5.252-4.746,7.712l-1.115,1.812a1.8,1.8,0,0,0,.7,2.444l.854.53,1.661,1.028,6.035,3.757,8.78,5.537,2.373,1.51.609.4.2.15-.221-.11-.633-.364-2.412-1.448-8.844-5.434-6.067-3.734-1.677-1.02-.854-.53a2.222,2.222,0,0,1-.791-.791,2.13,2.13,0,0,1-.055-2.167c.364-.609.736-1.218,1.115-1.835l4.746-7.72,2.523-4.09.641-1.036.316-.522a2.533,2.533,0,0,1,.443-.514,2.2,2.2,0,0,1,2.563-.2l15.986,9.887,3.583,2.23.87.538a2.615,2.615,0,0,1,.791.665,2.126,2.126,0,0,1,.348,2.009,3.929,3.929,0,0,1-.475.87l-.5.791c-.324.53-.649,1.044-.965,1.582-.625,1.013-1.234,1.985-1.811,2.911l-5.442,8.765c-.174.261-.308.506-.475.735a1.869,1.869,0,0,1-.585.514,1.973,1.973,0,0,1-1.171.277,1.8,1.8,0,0,1-.712-.2A1.027,1.027,0,0,1,2292.511,5325.946Z" transform="translate(-2135.302 -5275.014)" fill="#6595bf"/>
      <path id="Trazado_103165" data-name="Trazado 103165" d="M2293.78,5312.171l1.463,2.927a.79.79,0,0,1-.791,1.194l-3.33-.1-3.235-.1a.831.831,0,0,1-.641-1.281l1.827-2.792,1.843-2.816a.791.791,0,0,1,1.431.087Z" transform="translate(-2138.739 -5278.071)" fill="#6595bf"/>
    </g>
    <g id="freepik--Floor--inject-46" transform="translate(2114.364 5630.041)">
      <path id="Trazado_103166" data-name="Trazado 103166" d="M2459.993,5725.391c0,.119-76.49.206-170.855.206s-170.855-.087-170.855-.206,76.473-.206,170.855-.206S2459.993,5725.28,2459.993,5725.391Z" transform="translate(-2118.282 -5725.185)" fill="#263238"/>
    </g>
    <g id="freepik--Plant--inject-46" transform="translate(2365.228 5483.936)">
      <path id="Trazado_103167" data-name="Trazado 103167" d="M2517.929,5544.8c-7.435,3.852-13.139,10.489-17.236,17.79s-6.747,15.313-9.365,23.271l-2.286,41.029c8.653-14.721,15.6-32.027,17.473-49l-5.759-.506c3.86-.593,7.119-3.394,9.16-6.708a39.892,39.892,0,0,0,4.161-10.908l-7.024,1.044A26.029,26.029,0,0,0,2517.929,5544.8Z" transform="translate(-2446.636 -5541.379)" fill="#455a64"/>
      <g id="Grupo_59357" data-name="Grupo 59357" transform="translate(42.405 3.425)" opacity="0.3">
        <path id="Trazado_103168" data-name="Trazado 103168" d="M2517.929,5544.8c-7.435,3.852-13.139,10.489-17.236,17.79s-6.747,15.313-9.365,23.271l-2.286,41.029c8.653-14.721,15.6-32.027,17.473-49l-5.759-.506c3.86-.593,7.119-3.394,9.16-6.708a39.892,39.892,0,0,0,4.161-10.908l-7.024,1.044A26.029,26.029,0,0,0,2517.929,5544.8Z" transform="translate(-2489.042 -5544.805)" fill="#344154"/>
      </g>
      <path id="Trazado_103169" data-name="Trazado 103169" d="M2482.507,5635.568s-18.778-22.48-18.565-43.939h7.586s-8.242-5.418-7.586-8.456.87-14.522.87-14.522l6.929,1.74s-5.2-2.6-5.845-6.724,1.511-23.192,1.511-23.192,8.456,8.891,11.074,17.987,9.428,19.728,7.419,47.46S2482.507,5635.568,2482.507,5635.568Z" transform="translate(-2441.383 -5540.475)" fill="#455a64"/>
      <path id="Trazado_103170" data-name="Trazado 103170" d="M2499.46,5644.155s20.344-13.558,24.861-30.849l-6.1-1.653s7.815-2.555,7.95-5.142,2.484-11.865,2.484-11.865l-5.957-.119s4.746-.957,6.17-4.128,3.86-18.984,3.86-18.984-8.74,5.3-12.822,12.047-11.889,13.795-16.358,36.513S2499.46,5644.155,2499.46,5644.155Z" transform="translate(-2448.812 -5546.941)" fill="#455a64"/>
      <path id="Trazado_103171" data-name="Trazado 103171" d="M2474.822,5565.255a1.025,1.025,0,0,1,.071.229l.166.7c.142.633.348,1.527.6,2.666s.569,2.579.894,4.232.728,3.528,1.115,5.616c.791,4.168,1.653,9.151,2.531,14.7s1.693,11.659,2.444,18.09,1.305,12.585,1.748,18.193.72,10.646.886,14.887c.1,2.12.15,4.042.206,5.727s.079,3.164.087,4.327,0,2.072,0,2.729v.957a1.28,1.28,0,0,1,0-.245v-.712c0-.648-.063-1.582-.1-2.729s-.087-2.634-.166-4.319-.134-3.6-.261-5.719c-.2-4.24-.538-9.278-.973-14.871s-1.044-11.73-1.78-18.193-1.582-12.538-2.413-18.083-1.669-10.528-2.444-14.7c-.364-2.088-.736-3.955-1.044-5.632s-.593-3.077-.831-4.24-.4-2.041-.522-2.682c-.056-.292-.1-.521-.127-.7A.822.822,0,0,1,2474.822,5565.255Z" transform="translate(-2443.665 -5545.654)" fill="#263238"/>
      <path id="Trazado_103172" data-name="Trazado 103172" d="M2473.954,5664.24s-17.188-19.5-22.528-31.292l4.026-1.716a10.483,10.483,0,0,1-8.171-2.682,29.315,29.315,0,0,1-5.537-6.882l5.308-.894a19.776,19.776,0,0,1-11.62-8.97c6.265,1.028,11.928,4.469,16.611,8.772a82.748,82.748,0,0,1,10.062,11.651,40.008,40.008,0,0,1,3.907,6.423C2468.883,5644.607,2473.961,5657.082,2473.954,5664.24Z" transform="translate(-2435.432 -5555.383)" fill="#455a64"/>
      <path id="Trazado_103173" data-name="Trazado 103173" d="M2523.434,5585.805a.647.647,0,0,1-.071.2l-.261.569-1.044,2.167c-.917,1.875-2.223,4.6-3.8,7.981-3.164,6.755-7.317,16.192-11.43,26.807s-7.364,20.4-9.579,27.526c-1.107,3.56-1.977,6.455-2.555,8.456l-.688,2.3-.19.593a1.084,1.084,0,0,1-.079.206.8.8,0,0,1,0-.214c.04-.158.087-.364.15-.608.15-.562.348-1.337.609-2.326.538-2.017,1.361-4.92,2.437-8.5,2.144-7.119,5.371-16.959,9.492-27.59s8.321-20.052,11.549-26.783c1.582-3.37,2.95-6.075,3.915-7.91.475-.9.839-1.582,1.107-2.135.127-.222.221-.4.3-.546A.955.955,0,0,1,2523.434,5585.805Z" transform="translate(-2447.617 -5549.949)" fill="#263238"/>
      <path id="Trazado_103174" data-name="Trazado 103174" d="M2482.646,5679.847a8.764,8.764,0,0,1-.261-1.392c-.135-.894-.364-2.191-.68-3.789a76.466,76.466,0,0,0-8.931-23.643c-.791-1.4-1.495-2.523-1.993-3.29a9.726,9.726,0,0,1-.72-1.218,9.5,9.5,0,0,1,.854,1.131c.538.736,1.265,1.843,2.112,3.235a69.3,69.3,0,0,1,8.962,23.73c.285,1.582.467,2.918.554,3.828A9.639,9.639,0,0,1,2482.646,5679.847Z" transform="translate(-2442.67 -5562.638)" fill="#263238"/>
      <rect id="Rectángulo_5524" data-name="Rectángulo 5524" width="37.612" height="7.673" transform="translate(25.035 112.63)" fill="#d9a171"/>
      <path id="Trazado_103175" data-name="Trazado 103175" d="M2471.622,5692.565l4.066,25.8h22.725l3.8-25.8Z" transform="translate(-2442.996 -5572.263)" fill="#d9a171"/>
      <path id="Trazado_103176" data-name="Trazado 103176" d="M2503.324,5692.511c0,.111-7.119.206-15.891.206s-15.891-.095-15.891-.206,7.119-.206,15.891-.206S2503.324,5692.392,2503.324,5692.511Z" transform="translate(-2442.979 -5572.208)" fill="#263238"/>
    </g>
    <g id="freepik--filing-cabinet--inject-46" transform="translate(2131.845 5349.308)">
      <rect id="Rectángulo_5525" data-name="Rectángulo 5525" width="120.216" height="280.938" fill="#455a64"/>
      <g id="Grupo_59358" data-name="Grupo 59358" opacity="0.3">
        <rect id="Rectángulo_5526" data-name="Rectángulo 5526" width="32.866" height="280.938" fill="#344154"/>
      </g>
      <path id="Trazado_103177" data-name="Trazado 103177" d="M2222.823,5384.153V5381.9l-1.092,1.835h-.53l-1.092-1.772v2.191H2219V5379.9h1.012l1.5,2.452,1.447-2.452h.989v4.248Z" transform="translate(-2156.814 -5372.288)" fill="#fff"/>
      <path id="Trazado_103178" data-name="Trazado 103178" d="M2228.436,5382.626v1.526h-1.2v-1.542l-1.582-2.706h1.265l1,1.685,1-1.685h1.163Z" transform="translate(-2158.204 -5372.288)" fill="#fff"/>
      <path id="Trazado_103179" data-name="Trazado 103179" d="M2235.034,5380.838v.934h1.875v.925h-1.875v1.456h-1.2V5379.9h3.33v.934Z" transform="translate(-2159.914 -5372.288)" fill="#fff"/>
      <path id="Trazado_103180" data-name="Trazado 103180" d="M2238.752,5379.9h1.21v4.248h-1.2Z" transform="translate(-2160.942 -5372.288)" fill="#fff"/>
      <path id="Trazado_103181" data-name="Trazado 103181" d="M2241.352,5379.9h1.194v3.291h2.025v.957h-3.219Z" transform="translate(-2161.485 -5372.288)" fill="#fff"/>
      <path id="Trazado_103182" data-name="Trazado 103182" d="M2249.383,5383.22v.933h-3.4V5379.9h3.322v.934h-2.135v.712h1.883v.894h-1.883v.791Z" transform="translate(-2162.453 -5372.288)" fill="#fff"/>
      <path id="Trazado_103183" data-name="Trazado 103183" d="M2250.792,5383.764l.4-.878a2.693,2.693,0,0,0,1.4.411c.49,0,.688-.134.688-.34,0-.672-2.412-.182-2.412-1.756,0-.791.617-1.376,1.882-1.376a3.236,3.236,0,0,1,1.535.364l-.372.894a2.423,2.423,0,0,0-1.171-.325c-.506,0-.688.166-.688.38,0,.649,2.373.166,2.373,1.725,0,.743-.617,1.368-1.875,1.368A3.282,3.282,0,0,1,2250.792,5383.764Z" transform="translate(-2163.458 -5372.271)" fill="#fff"/>
      <path id="Trazado_103184" data-name="Trazado 103184" d="M2266.158,5450.024V5434.8c0-9.7-.055-23.6-.087-40.507l.166.166-78.419.04h0l.206-.206v55.734l-.182-.19,56.533.1,16.12.047h.079l-16.073.055-56.659.1h-.19v-56.042h.214l78.419.039h.166v.167c-.04,16.943-.071,30.849-.087,40.618,0,4.833,0,8.614-.048,11.2v2.927A2.4,2.4,0,0,1,2266.158,5450.024Z" transform="translate(-2150.262 -5375.251)" fill="#263238"/>
      <g id="Grupo_59359" data-name="Grupo 59359" transform="translate(61.452 53.329)" opacity="0.3">
        <rect id="Rectángulo_5527" data-name="Rectángulo 5527" width="31.925" height="5.403" fill="#344154"/>
      </g>
      <g id="Grupo_59360" data-name="Grupo 59360" transform="translate(36.552 78.997)" opacity="0.4">
        <rect id="Rectángulo_5528" data-name="Rectángulo 5528" width="68.366" height="53.115" fill="#344154"/>
      </g>
      <path id="Trazado_103185" data-name="Trazado 103185" d="M2228.092,5471.978h-13.028l-.791-1.305a2.855,2.855,0,0,0-2.46-1.408h-9.563a2.856,2.856,0,0,0-2.855,2.713h-3.409a2.674,2.674,0,0,0-2.674,2.674h0v6.628h37.414v-6.628A2.673,2.673,0,0,0,2228.092,5471.978Z" transform="translate(-2151.445 -5390.964)" fill="#e0e0e0"/>
      <path id="Trazado_103186" data-name="Trazado 103186" d="M2236.725,5471.978h-12.988l-.791-1.305a2.845,2.845,0,0,0-2.46-1.408h-9.563a2.848,2.848,0,0,0-2.848,2.713h-3.417a2.674,2.674,0,0,0-2.666,2.674v6.628H2239.4v-6.628a2.673,2.673,0,0,0-2.674-2.674Z" transform="translate(-2153.259 -5390.964)" fill="#ebebeb"/>
      <path id="Trazado_103187" data-name="Trazado 103187" d="M2248,5471.978h-13l-.791-1.305a2.869,2.869,0,0,0-2.468-1.408h-9.555a2.848,2.848,0,0,0-2.848,2.713h-3.409a2.674,2.674,0,0,0-2.674,2.674h0v6.628h37.406v-6.628A2.674,2.674,0,0,0,2248,5471.978Z" transform="translate(-2155.615 -5390.964)" fill="#aed3f2"/>
      <path id="Trazado_103188" data-name="Trazado 103188" d="M2219.072,5506.156V5474.3a2.752,2.752,0,0,1,2.871-2.626h2.745a2.9,2.9,0,0,0,2.6-1.535l.593-1.17a2.9,2.9,0,0,1,2.6-1.527h13.028a2.926,2.926,0,0,1,2.476,1.3l.641.989a2.935,2.935,0,0,0,2.468,1.3h16.611a2.752,2.752,0,0,1,2.871,2.626v32.5Z" transform="translate(-2156.829 -5390.584)" fill="#d9a171"/>
      <g id="Grupo_59361" data-name="Grupo 59361" transform="translate(62.243 76.86)" opacity="0.3">
        <path id="Trazado_103189" data-name="Trazado 103189" d="M2219.072,5506.156V5474.3a2.752,2.752,0,0,1,2.871-2.626h2.745a2.9,2.9,0,0,0,2.6-1.535l.593-1.17a2.9,2.9,0,0,1,2.6-1.527h13.028a2.926,2.926,0,0,1,2.476,1.3l.641.989a2.935,2.935,0,0,0,2.468,1.3h16.611a2.752,2.752,0,0,1,2.871,2.626v32.5Z" transform="translate(-2219.072 -5467.444)" fill="#344154"/>
      </g>
      <path id="Trazado_103190" data-name="Trazado 103190" d="M2232.222,5475.95v-25.138a3.751,3.751,0,0,1,3.741-3.758h40.08a3.757,3.757,0,0,1,3.757,3.758h0v24.441Z" transform="translate(-2159.577 -5386.322)" fill="#fff"/>
      <path id="Trazado_103191" data-name="Trazado 103191" d="M2234.2,5482.637v-31.846a2.762,2.762,0,0,1,2.871-2.635h2.729a2.9,2.9,0,0,0,2.61-1.526l.585-1.17a2.912,2.912,0,0,1,2.61-1.535h13.028a2.934,2.934,0,0,1,2.468,1.3l.641.989a2.919,2.919,0,0,0,2.476,1.3h16.611a2.752,2.752,0,0,1,2.871,2.626v32.5Z" transform="translate(-2159.991 -5385.668)" fill="#d9a171"/>
      <path id="Trazado_103192" data-name="Trazado 103192" d="M2234.2,5482.593h3.662l10.18-.048,35.666-.095-.19.189v-31.734a8.876,8.876,0,0,0,0-1.14,2.413,2.413,0,0,0-1.242-1.7,2.859,2.859,0,0,0-.957-.324,7.677,7.677,0,0,0-1.06,0h-15.938a3.171,3.171,0,0,1-1.076-.166,3.028,3.028,0,0,1-1.677-1.313l-.546-.854a2.639,2.639,0,0,0-.633-.688,2.84,2.84,0,0,0-1.748-.562h-13.36a2.783,2.783,0,0,0-1.526.7c-.839.72-.926,2.176-2.017,2.9a3.156,3.156,0,0,1-1.708.593h-1.717a14.448,14.448,0,0,0-1.645,0,2.732,2.732,0,0,0-1.4.625,2.417,2.417,0,0,0-.791,1.258,8.254,8.254,0,0,0-.071,1.543v6c0,7.649-.055,13.843-.079,18.146V5476c0-4.311-.048-10.521-.079-18.192v-6.036a8.242,8.242,0,0,1,.071-1.629,2.732,2.732,0,0,1,.735-1.455,3.16,3.16,0,0,1,1.582-.7,15.69,15.69,0,0,1,1.7-.048h1.7a2.8,2.8,0,0,0,1.519-.53c.965-.608,1-1.961,1.978-2.879a3.178,3.178,0,0,1,1.724-.791c.649-.056,1.234,0,1.859,0h11.549a3.171,3.171,0,0,1,1.986.633,2.881,2.881,0,0,1,.728.791l.554.854a2.655,2.655,0,0,0,1.463,1.147,2.7,2.7,0,0,0,.949.142h15.931a6.746,6.746,0,0,1,1.123.04,3.246,3.246,0,0,1,1.1.371,2.841,2.841,0,0,1,1.44,1.993,8.877,8.877,0,0,1,.04,1.2v31.869h-.19l-35.785-.095-10.141-.048H2234.5Z" transform="translate(-2159.991 -5385.624)" fill="#263238"/>
      <path id="Trazado_103193" data-name="Trazado 103193" d="M2260.042,5447.5a67.243,67.243,0,0,1-10.52,0,67.4,67.4,0,0,1,10.52,0Z" transform="translate(-2163.193 -5386.368)" fill="#fff"/>
      <path id="Trazado_103194" data-name="Trazado 103194" d="M2253.682,5499.578v-31.869c0-1.448,1.455-2.626,3.251-2.626h3.1a3.37,3.37,0,0,0,2.942-1.526l.672-1.155a3.37,3.37,0,0,1,2.942-1.527h14.721a3.439,3.439,0,0,1,2.8,1.3l.72.989a3.464,3.464,0,0,0,2.792,1.3h18.739c1.8,0,3.243,1.179,3.243,2.626v32.494Z" transform="translate(-2164.062 -5389.211)" fill="#d9a171"/>
      <path id="Trazado_103195" data-name="Trazado 103195" d="M2253.658,5499.525h4.161l11.548-.056,40.238-.087-.19.19v-32.787a2.374,2.374,0,0,0-1.179-1.693,3.71,3.71,0,0,0-2.144-.506H2287.9a4.078,4.078,0,0,1-2.207-.5,3.046,3.046,0,0,1-.894-.728c-.245-.309-.435-.585-.657-.886a3.006,3.006,0,0,0-1.582-1.25,5.412,5.412,0,0,0-2.033-.222h-14.183a3.511,3.511,0,0,0-1.716.546,2.7,2.7,0,0,0-.665.6,7.23,7.23,0,0,0-.475.791c-.158.276-.3.538-.475.791a2.862,2.862,0,0,1-.672.711,3.708,3.708,0,0,1-1.756.712c-1.258.079-2.373,0-3.591,0a3.275,3.275,0,0,0-2.84,1.345,2.373,2.373,0,0,0-.34,1.511v4.793c0,8.219-.063,14.863-.079,19.482,0,2.294,0,4.089-.04,5.315v.063c0-1.227,0-3.006-.04-5.292,0-4.627-.047-11.3-.079-19.529v-4.81a2.762,2.762,0,0,1,.38-1.685,3.616,3.616,0,0,1,3.109-1.5c1.155,0,2.373,0,3.543-.047a3.343,3.343,0,0,0,1.582-.648,3.943,3.943,0,0,0,1.052-1.432,8.7,8.7,0,0,1,.506-.791,2.872,2.872,0,0,1,.744-.672,3.829,3.829,0,0,1,1.89-.617h14.206a5.531,5.531,0,0,1,2.167.246,3.382,3.382,0,0,1,1.74,1.384c.213.284.427.593.633.862a2.9,2.9,0,0,0,.791.633,3.743,3.743,0,0,0,2.017.443h18.193a4.126,4.126,0,0,1,2.373.562,2.756,2.756,0,0,1,1.36,2.009v32.953h-.19l-40.341-.1-11.6-.11h-4.082Z" transform="translate(-2164.038 -5389.158)" fill="#263238"/>
      <path id="Trazado_103196" data-name="Trazado 103196" d="M2284.132,5464.963a117.418,117.418,0,0,1-13.89,0,117.418,117.418,0,0,1,13.89,0Z" transform="translate(-2167.523 -5390.017)" fill="#fff"/>
      <rect id="Rectángulo_5529" data-name="Rectángulo 5529" width="49.754" height="42.888" transform="translate(36.552 89.612)" fill="#455a64"/>
      <g id="Grupo_59362" data-name="Grupo 59362" transform="translate(36.552 89.612)" opacity="0.3">
        <rect id="Rectángulo_5530" data-name="Rectángulo 5530" width="49.754" height="42.888" fill="#344154"/>
      </g>
      <rect id="Rectángulo_5531" data-name="Rectángulo 5531" width="78.427" height="55.734" transform="translate(86.306 78.301)" fill="#455a64"/>
      <path id="Trazado_103197" data-name="Trazado 103197" d="M2327.875,5524.913v-3.979c0-2.595,0-6.391-.04-11.24,0-9.7-.055-23.611-.087-40.507l.166.166-78.419.039h0l.206-.205v55.725l-.19-.182,56.532.087,16.121.055h.079l-16.073.047-56.659.1h-.229V5468.9h78.8v.174c-.04,16.943-.071,30.849-.087,40.609,0,4.833,0,8.614-.048,11.2v2.927A7.575,7.575,0,0,1,2327.875,5524.913Z" transform="translate(-2163.143 -5390.887)" fill="#263238"/>
      <g id="Grupo_59363" data-name="Grupo 59363" transform="translate(111.562 115.011)" opacity="0.3">
        <rect id="Rectángulo_5532" data-name="Rectángulo 5532" width="36.386" height="5.402" fill="#344154"/>
      </g>
      <path id="Trazado_103198" data-name="Trazado 103198" d="M2266.158,5603.391v-15.227c0-9.7-.055-23.611-.087-40.507l.166.167-78.419.04h0l.206-.206v55.734l-.182-.189,56.533.095,16.12.047h.079l-16.073.047-56.659.095h-.19v-56.121h.214l78.419.039h.166v.167c-.04,16.943-.071,30.888-.087,40.609,0,4.841,0,8.622-.048,11.208v2.927A3.208,3.208,0,0,1,2266.158,5603.391Z" transform="translate(-2150.262 -5407.288)" fill="#263238"/>
      <g id="Grupo_59364" data-name="Grupo 59364" transform="translate(61.452 174.628)" opacity="0.3">
        <rect id="Rectángulo_5533" data-name="Rectángulo 5533" width="33.174" height="5.402" fill="#344154"/>
      </g>
      <path id="Trazado_103199" data-name="Trazado 103199" d="M2266.152,5680.069v-15.227c0-9.7-.055-23.6-.087-40.507l.166.167-78.419.039h0l.206-.206v55.734l-.182-.19,56.532.095,16.12.048h.055l-16.073.047-56.659.095h-.19v-56.129h78.8v.166c-.04,16.943-.071,30.888-.087,40.618,0,4.833,0,8.614-.048,11.2v2.927A4.317,4.317,0,0,1,2266.152,5680.069Z" transform="translate(-2150.256 -5423.312)" fill="#263238"/>
      <g id="Grupo_59365" data-name="Grupo 59365" transform="translate(61.452 235.282)" opacity="0.3">
        <rect id="Rectángulo_5534" data-name="Rectángulo 5534" width="33.174" height="5.402" fill="#344154"/>
      </g>
      <g id="Grupo_59370" data-name="Grupo 59370" transform="translate(52.593 29.29)">
        <rect id="Rectángulo_5535" data-name="Rectángulo 5535" width="52.04" height="15.63" rx="2.49" transform="translate(0.672)" fill="#fff"/>
        <rect id="Rectángulo_5536" data-name="Rectángulo 5536" width="52.04" height="15.63" rx="2.49" transform="translate(47.768 64.814)" fill="#fff"/>
        <rect id="Rectángulo_5537" data-name="Rectángulo 5537" width="52.04" height="15.63" rx="2.49" transform="translate(0 124.337)" fill="#fff"/>
        <rect id="Rectángulo_5538" data-name="Rectángulo 5538" width="52.04" height="15.63" rx="2.49" transform="translate(0 184.793)" fill="#fff"/>
        <g id="Grupo_59366" data-name="Grupo 59366" transform="translate(11.835 2.974)">
          <path id="Trazado_103200" data-name="Trazado 103200" d="M2228.975,5421.326h-6.938v-1.376l3.274-3.489a8.122,8.122,0,0,0,1-1.287,2.07,2.07,0,0,0,.323-1.043,1.544,1.544,0,0,0-.34-1.06,1.231,1.231,0,0,0-.974-.387,1.329,1.329,0,0,0-1.074.47,1.86,1.86,0,0,0-.392,1.233h-2.016a3.314,3.314,0,0,1,.441-1.688,3.1,3.1,0,0,1,1.248-1.2,3.787,3.787,0,0,1,1.828-.436,3.6,3.6,0,0,1,2.43.751,2.659,2.659,0,0,1,.865,2.121,3.406,3.406,0,0,1-.389,1.529,8.5,8.5,0,0,1-1.335,1.814l-2.3,2.427h4.352Z" transform="translate(-2221.835 -5411.064)" fill="#344154"/>
          <path id="Trazado_103201" data-name="Trazado 103201" d="M2239.223,5417.142a5.122,5.122,0,0,1-.869,3.211,3.472,3.472,0,0,1-5.075.021,4.977,4.977,0,0,1-.9-3.128v-1.864a5.059,5.059,0,0,1,.879-3.218,3.477,3.477,0,0,1,5.065-.011,4.956,4.956,0,0,1,.9,3.125Zm-2.009-2.049a3.715,3.715,0,0,0-.344-1.834,1.163,1.163,0,0,0-1.074-.574,1.141,1.141,0,0,0-1.046.547,3.467,3.467,0,0,0-.358,1.709v2.463a3.9,3.9,0,0,0,.337,1.841,1.149,1.149,0,0,0,1.082.6,1.127,1.127,0,0,0,1.063-.577,3.8,3.8,0,0,0,.341-1.768Z" transform="translate(-2224.039 -5411.064)" fill="#344154"/>
          <path id="Trazado_103202" data-name="Trazado 103202" d="M2249.628,5421.326h-6.938v-1.376l3.275-3.489a8.155,8.155,0,0,0,1-1.287,2.072,2.072,0,0,0,.323-1.043,1.545,1.545,0,0,0-.341-1.06,1.228,1.228,0,0,0-.974-.387,1.329,1.329,0,0,0-1.074.47,1.859,1.859,0,0,0-.392,1.233h-2.016a3.317,3.317,0,0,1,.441-1.688,3.1,3.1,0,0,1,1.248-1.2,3.788,3.788,0,0,1,1.828-.436,3.593,3.593,0,0,1,2.43.751,2.657,2.657,0,0,1,.865,2.121,3.4,3.4,0,0,1-.389,1.529,8.477,8.477,0,0,1-1.334,1.814l-2.3,2.427h4.352Z" transform="translate(-2226.152 -5411.064)" fill="#344154"/>
          <path id="Trazado_103203" data-name="Trazado 103203" d="M2258.076,5421.359h-2.009v-7.745l-2.4.744v-1.633l4.192-1.5h.215Z" transform="translate(-2228.488 -5411.098)" fill="#344154"/>
        </g>
        <g id="Grupo_59367" data-name="Grupo 59367" transform="translate(59.203 68.242)">
          <path id="Trazado_103204" data-name="Trazado 103204" d="M2288.859,5503.84h-6.939v-1.376l3.275-3.49a8.155,8.155,0,0,0,1-1.286,2.073,2.073,0,0,0,.323-1.043,1.546,1.546,0,0,0-.341-1.06,1.229,1.229,0,0,0-.973-.386,1.327,1.327,0,0,0-1.074.469,1.86,1.86,0,0,0-.393,1.233h-2.016a3.314,3.314,0,0,1,.441-1.688,3.106,3.106,0,0,1,1.248-1.2,3.79,3.79,0,0,1,1.829-.435,3.6,3.6,0,0,1,2.429.75,2.657,2.657,0,0,1,.866,2.121,3.409,3.409,0,0,1-.39,1.53,8.513,8.513,0,0,1-1.334,1.814l-2.3,2.426h4.352Z" transform="translate(-2281.719 -5493.579)" fill="#344154"/>
          <path id="Trazado_103205" data-name="Trazado 103205" d="M2299.107,5499.656a5.126,5.126,0,0,1-.87,3.211,3.472,3.472,0,0,1-5.075.022,4.984,4.984,0,0,1-.9-3.128V5497.9a5.063,5.063,0,0,1,.879-3.219,3.479,3.479,0,0,1,5.065-.01,4.969,4.969,0,0,1,.9,3.125Zm-2.009-2.049a3.708,3.708,0,0,0-.345-1.833,1.162,1.162,0,0,0-1.073-.574,1.141,1.141,0,0,0-1.047.546,3.478,3.478,0,0,0-.358,1.708v2.463a3.893,3.893,0,0,0,.337,1.841,1.15,1.15,0,0,0,1.081.6,1.129,1.129,0,0,0,1.064-.578,3.807,3.807,0,0,0,.341-1.768Z" transform="translate(-2283.923 -5493.579)" fill="#344154"/>
          <path id="Trazado_103206" data-name="Trazado 103206" d="M2309.513,5503.84h-6.938v-1.376l3.275-3.49a8.155,8.155,0,0,0,1-1.286,2.066,2.066,0,0,0,.323-1.043,1.546,1.546,0,0,0-.341-1.06,1.229,1.229,0,0,0-.973-.386,1.328,1.328,0,0,0-1.074.469,1.86,1.86,0,0,0-.393,1.233h-2.016a3.319,3.319,0,0,1,.441-1.688,3.111,3.111,0,0,1,1.248-1.2,3.79,3.79,0,0,1,1.829-.435,3.6,3.6,0,0,1,2.43.75,2.659,2.659,0,0,1,.865,2.121,3.411,3.411,0,0,1-.389,1.53,8.517,8.517,0,0,1-1.335,1.814l-2.3,2.426h4.352Z" transform="translate(-2286.036 -5493.579)" fill="#344154"/>
          <path id="Trazado_103207" data-name="Trazado 103207" d="M2319.761,5499.656a5.123,5.123,0,0,1-.87,3.211,3.472,3.472,0,0,1-5.075.022,4.984,4.984,0,0,1-.9-3.128V5497.9a5.061,5.061,0,0,1,.88-3.219,3.479,3.479,0,0,1,5.065-.01,4.965,4.965,0,0,1,.9,3.125Zm-2.009-2.049a3.706,3.706,0,0,0-.344-1.833,1.163,1.163,0,0,0-1.074-.574,1.141,1.141,0,0,0-1.047.546,3.475,3.475,0,0,0-.358,1.708v2.463a3.892,3.892,0,0,0,.338,1.841,1.148,1.148,0,0,0,1.08.6,1.127,1.127,0,0,0,1.064-.578,3.794,3.794,0,0,0,.341-1.768Z" transform="translate(-2288.24 -5493.579)" fill="#344154"/>
        </g>
        <g id="Grupo_59368" data-name="Grupo 59368" transform="translate(11.526 127.572)">
          <path id="Trazado_103208" data-name="Trazado 103208" d="M2228.583,5578.847h-6.938v-1.376l3.274-3.49a7.984,7.984,0,0,0,1-1.286,2.064,2.064,0,0,0,.323-1.043,1.543,1.543,0,0,0-.341-1.06,1.229,1.229,0,0,0-.973-.386,1.328,1.328,0,0,0-1.074.469,1.861,1.861,0,0,0-.392,1.235h-2.016a3.316,3.316,0,0,1,.441-1.689,3.114,3.114,0,0,1,1.248-1.2,3.792,3.792,0,0,1,1.829-.435,3.59,3.59,0,0,1,2.43.751,2.656,2.656,0,0,1,.865,2.12,3.4,3.4,0,0,1-.389,1.53,8.5,8.5,0,0,1-1.335,1.814l-2.3,2.426h4.352Z" transform="translate(-2221.444 -5568.585)" fill="#344154"/>
          <path id="Trazado_103209" data-name="Trazado 103209" d="M2238.831,5574.662a5.125,5.125,0,0,1-.869,3.212,3.472,3.472,0,0,1-5.075.021,4.975,4.975,0,0,1-.9-3.128V5572.9a5.061,5.061,0,0,1,.879-3.219,3.479,3.479,0,0,1,5.064-.01,4.964,4.964,0,0,1,.9,3.125Zm-2.009-2.049a3.707,3.707,0,0,0-.344-1.833,1.164,1.164,0,0,0-1.074-.574,1.142,1.142,0,0,0-1.047.547,3.472,3.472,0,0,0-.357,1.708v2.463a3.894,3.894,0,0,0,.337,1.84,1.147,1.147,0,0,0,1.081.6,1.127,1.127,0,0,0,1.063-.577,3.8,3.8,0,0,0,.341-1.768Z" transform="translate(-2223.648 -5568.585)" fill="#344154"/>
          <path id="Trazado_103210" data-name="Trazado 103210" d="M2247.358,5578.88h-2.009v-7.745l-2.4.743v-1.633l4.191-1.5h.216Z" transform="translate(-2225.939 -5568.618)" fill="#344154"/>
          <path id="Trazado_103211" data-name="Trazado 103211" d="M2257.355,5574.8a2.537,2.537,0,0,1-1.835.771,2.715,2.715,0,0,1-2.148-.921,3.643,3.643,0,0,1-.806-2.485,3.878,3.878,0,0,1,.434-1.825,3.188,3.188,0,0,1,1.213-1.293,3.36,3.36,0,0,1,1.752-.462,3.223,3.223,0,0,1,1.78.5,3.292,3.292,0,0,1,1.209,1.44,5.168,5.168,0,0,1,.438,2.147v.744a5.856,5.856,0,0,1-1.259,3.977,4.759,4.759,0,0,1-3.567,1.543l-.493.007v-1.675l.444-.007Q2257.14,5577.144,2257.355,5574.8Zm-1.342-.765a1.4,1.4,0,0,0,.838-.25,1.677,1.677,0,0,0,.532-.6v-.827a2.76,2.76,0,0,0-.39-1.585,1.21,1.21,0,0,0-1.043-.563,1.173,1.173,0,0,0-.994.553,2.35,2.35,0,0,0-.389,1.387,2.292,2.292,0,0,0,.379,1.36A1.235,1.235,0,0,0,2256.014,5574.036Z" transform="translate(-2227.949 -5568.585)" fill="#344154"/>
        </g>
        <g id="Grupo_59369" data-name="Grupo 59369" transform="translate(11.513 187.408)">
          <path id="Trazado_103212" data-name="Trazado 103212" d="M2228.568,5654.492h-6.939v-1.377l3.275-3.49a7.98,7.98,0,0,0,1-1.286,2.061,2.061,0,0,0,.323-1.042,1.546,1.546,0,0,0-.341-1.06,1.225,1.225,0,0,0-.973-.387,1.329,1.329,0,0,0-1.074.47,1.86,1.86,0,0,0-.393,1.233h-2.016a3.32,3.32,0,0,1,.441-1.689,3.117,3.117,0,0,1,1.247-1.2,3.8,3.8,0,0,1,1.829-.435,3.591,3.591,0,0,1,2.43.751,2.659,2.659,0,0,1,.865,2.121,3.4,3.4,0,0,1-.389,1.528,8.462,8.462,0,0,1-1.335,1.814l-2.3,2.427h4.352Z" transform="translate(-2221.428 -5644.23)" fill="#344154"/>
          <path id="Trazado_103213" data-name="Trazado 103213" d="M2238.815,5650.308a5.12,5.12,0,0,1-.87,3.211,3.473,3.473,0,0,1-5.075.021,4.981,4.981,0,0,1-.9-3.129v-1.863a5.057,5.057,0,0,1,.879-3.218,3.478,3.478,0,0,1,5.065-.012,4.968,4.968,0,0,1,.9,3.126Zm-2.009-2.049a3.707,3.707,0,0,0-.344-1.834,1.163,1.163,0,0,0-1.074-.574,1.141,1.141,0,0,0-1.046.546,3.479,3.479,0,0,0-.359,1.709v2.464a3.9,3.9,0,0,0,.338,1.841,1.148,1.148,0,0,0,1.081.6,1.129,1.129,0,0,0,1.064-.578,3.788,3.788,0,0,0,.341-1.767Z" transform="translate(-2223.632 -5644.23)" fill="#344154"/>
          <path id="Trazado_103214" data-name="Trazado 103214" d="M2247.342,5654.525h-2.009v-7.745l-2.4.744v-1.633l4.192-1.5h.216Z" transform="translate(-2225.923 -5644.264)" fill="#344154"/>
          <path id="Trazado_103215" data-name="Trazado 103215" d="M2259.254,5647.061a2.357,2.357,0,0,1-.369,1.307,2.653,2.653,0,0,1-1.015.911,2.931,2.931,0,0,1,1.167.977,2.5,2.5,0,0,1,.431,1.464,2.656,2.656,0,0,1-.918,2.131,4.379,4.379,0,0,1-5,0,2.643,2.643,0,0,1-.925-2.127,2.521,2.521,0,0,1,.431-1.468,2.876,2.876,0,0,1,1.161-.973,2.62,2.62,0,0,1-1.011-.911,2.367,2.367,0,0,1-.365-1.307,2.624,2.624,0,0,1,.862-2.062,3.964,3.964,0,0,1,4.682-.007A2.614,2.614,0,0,1,2259.254,5647.061Zm-1.8,4.512a1.46,1.46,0,0,0-.382-1.057,1.53,1.53,0,0,0-2.051,0,1.65,1.65,0,0,0-.007,2.1,1.567,1.567,0,0,0,2.068.014A1.449,1.449,0,0,0,2257.453,5651.572Zm-.208-4.414a1.394,1.394,0,0,0-.313-.95,1.273,1.273,0,0,0-1.759-.01,1.382,1.382,0,0,0-.313.96,1.455,1.455,0,0,0,.313.974,1.241,1.241,0,0,0,1.762,0A1.47,1.47,0,0,0,2257.245,5647.158Z" transform="translate(-2227.949 -5644.23)" fill="#344154"/>
        </g>
      </g>
    </g>
    <g id="freepik--speech-bubble--inject-46" transform="translate(2357.459 5300.334)">
      <path id="Trazado_103216" data-name="Trazado 103216" d="M2431.114,5358.23a2.626,2.626,0,1,1-2.626-2.626,2.626,2.626,0,0,1,2.626,2.626Z" transform="translate(-2425.663 -5318.234)" fill="#fff"/>
      <path id="Trazado_103217" data-name="Trazado 103217" d="M2431.062,5358.194a5.618,5.618,0,0,0-.158-.617,2.643,2.643,0,0,0-.965-1.353,2.49,2.49,0,0,0-2.333-.316,2.445,2.445,0,0,0,0,4.58,2.492,2.492,0,0,0,2.333-.317,2.637,2.637,0,0,0,.965-1.353c.119-.387.126-.625.158-.625a1.217,1.217,0,0,1,0,.665,2.61,2.61,0,0,1-.949,1.582,2.743,2.743,0,0,1-2.634.443,2.808,2.808,0,0,1,0-5.292,2.722,2.722,0,0,1,2.634.443,2.613,2.613,0,0,1,.949,1.582A.946.946,0,0,1,2431.062,5358.194Z" transform="translate(-2425.61 -5318.199)" fill="#263238"/>
      <circle id="Elipse_4026" data-name="Elipse 4026" cx="21.729" cy="21.729" r="21.729" transform="translate(6.496 0.154)" fill="#fff"/>
      <path id="Trazado_103218" data-name="Trazado 103218" d="M2477.222,5330.243a1.8,1.8,0,0,1-.04-.348l-.079-1.036a7.647,7.647,0,0,0-.048-.791,6.974,6.974,0,0,0-.134-.9,16.369,16.369,0,0,0-.459-2.238,20.913,20.913,0,0,0-2.373-5.75,21.579,21.579,0,0,0-25.905-9.2,23.289,23.289,0,0,0-2.808,1.234c-.451.253-.886.538-1.337.791a10.918,10.918,0,0,0-1.305.894,24.178,24.178,0,0,0-2.476,2.144,23.817,23.817,0,0,0-2.112,2.492,20.938,20.938,0,0,0-3.077,5.933,21.394,21.394,0,0,0,0,13.589,20.744,20.744,0,0,0,3.077,5.933,23.717,23.717,0,0,0,2.112,2.492,24.1,24.1,0,0,0,2.436,2.081,10.914,10.914,0,0,0,1.305.894c.451.269.886.562,1.337.791a23.152,23.152,0,0,0,2.808,1.234,21.529,21.529,0,0,0,25.874-9.191,21.013,21.013,0,0,0,2.373-5.758,16.333,16.333,0,0,0,.459-2.238c.047-.325.111-.625.134-.9s.04-.53.048-.791l.079-1.028a1.8,1.8,0,0,1,.04-.356v2.183a7.893,7.893,0,0,1-.119.917,15.055,15.055,0,0,1-.427,2.254,20.457,20.457,0,0,1-2.373,5.83,21.8,21.8,0,0,1-26.229,9.437,22.9,22.9,0,0,1-2.864-1.25c-.467-.253-.91-.546-1.368-.791a11.588,11.588,0,0,1-1.321-.91,24.185,24.185,0,0,1-2.492-2.112,23.725,23.725,0,0,1-2.152-2.539,21.031,21.031,0,0,1-3.164-6.043,21.748,21.748,0,0,1,0-13.842,21.237,21.237,0,0,1,3.164-6.043,25.747,25.747,0,0,1,2.152-2.539,24.276,24.276,0,0,1,2.507-2.1,11.676,11.676,0,0,1,1.321-.91c.459-.269.91-.562,1.368-.791a24,24,0,0,1,2.864-1.25,21.6,21.6,0,0,1,26.229,9.357,20.483,20.483,0,0,1,2.373,5.83,15.04,15.04,0,0,1,.427,2.262c.04.324.095.633.118.91s0,.538,0,.791v1.036A.74.74,0,0,0,2477.222,5330.243Z" transform="translate(-2427.262 -5308.361)" fill="#263238"/>
      <path id="Trazado_103219" data-name="Trazado 103219" d="M2458.073,5338.237a6.581,6.581,0,1,1,6.581-6.581,6.581,6.581,0,0,1-6.581,6.581Zm0-12.363a5.79,5.79,0,1,0,5.79,5.79v-.008A5.79,5.79,0,0,0,2458.073,5325.874Z" transform="translate(-2431.02 -5311.854)" fill="#6595bf"/>
      <rect id="Rectángulo_5539" data-name="Rectángulo 5539" width="0.791" height="6.415" transform="translate(30.162 25.199) rotate(-35.98)" fill="#6595bf"/>
      <path id="Trazado_103220" data-name="Trazado 103220" d="M2455.639,5330.325a3.789,3.789,0,0,0,.65,5.318,3.673,3.673,0,0,0,.482.321" transform="translate(-2431.718 -5312.952)" fill="#fff"/>
      <path id="Trazado_103221" data-name="Trazado 103221" d="M2456.715,5335.958a2.1,2.1,0,0,1-.862-.466,3.673,3.673,0,0,1-.91-4.406,1.815,1.815,0,0,1,.617-.791c.04,0-.158.348-.348.886a4.086,4.086,0,0,0-.166,2.159,4.133,4.133,0,0,0,1,1.922C2456.461,5335.7,2456.77,5335.9,2456.715,5335.958Z" transform="translate(-2431.662 -5312.945)" fill="#263238"/>
    </g>
    <g id="freepik--Character--inject-46" transform="translate(2235.038 5318.522)">
      <path id="Trazado_103222" data-name="Trazado 103222" d="M2417.224,5406.634c-1.178-21.183-10.647-31.031-13.447-47.586-1.392-8.314-1.036-16.825-6.929-22.844a17.673,17.673,0,0,0-9.089-4.746,12.077,12.077,0,0,0-5.7.562c-2.792-.411-4.042-.546-6.012,0a16.212,16.212,0,0,0-7.079,4.311c-4.2,5.125-5.062,12.173-5.134,18.8a110.427,110.427,0,0,0,4.422,31.687,4.444,4.444,0,0,0,1.479,2.6,4.351,4.351,0,0,0,3.164.324,63.178,63.178,0,0,0,11.96-3.117,3.992,3.992,0,0,0,1.519-.791c1.068-1.091.617-2.895.126-4.342l10.734-9.184c-.712,6.391-2.769,12.553-3.678,18.913a53.552,53.552,0,0,0,1.74,22.75,34.6,34.6,0,0,1,12.656-.285c1,.158,2.642,8.124,3.536,7.625C2413.039,5420.438,2417.326,5408.438,2417.224,5406.634Z" transform="translate(-2290.277 -5331.355)" fill="#263238"/>
      <path id="Trazado_103223" data-name="Trazado 103223" d="M2380.08,5337.825l3.045-.34,11.628,4.683a3.251,3.251,0,0,1,3.069,3.164l-.1,37.9a10.612,10.612,0,0,1-2.049,6.842l-1.637,2.159a8.579,8.579,0,0,1-14.333-.91,4.289,4.289,0,0,1-.411-.98,6.534,6.534,0,0,1-.174-.847,26.971,26.971,0,0,1-.364-5.687c-.206-3.354-.277-4.746-.277-4.69s-7.119-.791-9.049-9.967c-.957-4.548-1.107-12.079-1.028-18.24C2368.468,5345.347,2373.23,5337.817,2380.08,5337.825Z" transform="translate(-2291.228 -5332.637)" fill="#ffbe9d"/>
      <path id="Trazado_103224" data-name="Trazado 103224" d="M2371.192,5363.246a1.2,1.2,0,0,0,1.2,1.139,1.132,1.132,0,0,0,1.163-1.1v-.033a1.185,1.185,0,0,0-1.194-1.139,1.139,1.139,0,0,0-1.17,1.107Z" transform="translate(-2291.815 -5337.784)" fill="#263238"/>
      <path id="Trazado_103225" data-name="Trazado 103225" d="M2386.152,5362.308a1.179,1.179,0,0,0,1.2,1.14,1.132,1.132,0,0,0,1.163-1.1v-.023a1.179,1.179,0,0,0-1.194-1.14,1.132,1.132,0,0,0-1.17,1.091Z" transform="translate(-2294.942 -5337.59)" fill="#263238"/>
      <path id="Trazado_103226" data-name="Trazado 103226" d="M2370.636,5358.884c.15.15,1.012-.562,2.286-.617s2.239.522,2.373.364-.095-.348-.514-.617a3.276,3.276,0,0,0-1.906-.49,3.172,3.172,0,0,0-1.811.688C2370.675,5358.537,2370.557,5358.821,2370.636,5358.884Z" transform="translate(-2291.694 -5336.824)" fill="#263238"/>
      <path id="Trazado_103227" data-name="Trazado 103227" d="M2385.9,5358.035c.158.143,1-.585,2.27-.688s2.246.467,2.373.3-.1-.34-.538-.6a3.219,3.219,0,0,0-3.71.309C2385.927,5357.688,2385.816,5357.972,2385.9,5358.035Z" transform="translate(-2294.883 -5336.631)" fill="#263238"/>
      <path id="Trazado_103228" data-name="Trazado 103228" d="M2380.472,5368.148a8.8,8.8,0,0,0-2.088-.269c-.324,0-.633-.063-.7-.285a1.586,1.586,0,0,1,.166-.973c.269-.791.546-1.637.839-2.523a41.518,41.518,0,0,0,1.827-6.573,43.439,43.439,0,0,0-2.373,6.415l-.791,2.532a1.868,1.868,0,0,0-.111,1.289.792.792,0,0,0,.562.443,2.012,2.012,0,0,0,.554.047A7.677,7.677,0,0,0,2380.472,5368.148Z" transform="translate(-2293.067 -5336.825)" fill="#263238"/>
      <path id="Trazado_103229" data-name="Trazado 103229" d="M2381.182,5389.013a23.518,23.518,0,0,0,12.181-3.908s-2.784,6.534-12.055,6.131Z" transform="translate(-2293.903 -5342.589)" fill="#eb996e"/>
      <path id="Trazado_103230" data-name="Trazado 103230" d="M2382.186,5374.551a2.294,2.294,0,0,1,2.017-.957,2.07,2.07,0,0,1,1.479.7,1.313,1.313,0,0,1,.182,1.511,1.582,1.582,0,0,1-1.646.506,4.757,4.757,0,0,1-1.677-.895,1.26,1.26,0,0,1-.38-.355.42.42,0,0,1,0-.475" transform="translate(-2294.093 -5340.183)" fill="#eb996e"/>
      <path id="Trazado_103231" data-name="Trazado 103231" d="M2385.106,5371.805c-.206,0-.143,1.376-1.274,2.42s-2.61.957-2.61,1.155.34.253.965.237a3.456,3.456,0,0,0,2.183-.886,2.992,2.992,0,0,0,.973-2.025C2385.367,5372.153,2385.224,5371.805,2385.106,5371.805Z" transform="translate(-2293.912 -5339.81)" fill="#263238"/>
      <path id="Trazado_103232" data-name="Trazado 103232" d="M2385.9,5352.169c.19.309,1.25-.119,2.579-.261s2.476,0,2.571-.348c.039-.158-.214-.435-.72-.657a3.956,3.956,0,0,0-2.033-.277,3.86,3.86,0,0,0-1.891.736C2385.983,5351.694,2385.809,5352.019,2385.9,5352.169Z" transform="translate(-2294.884 -5335.376)" fill="#263238"/>
      <path id="Trazado_103233" data-name="Trazado 103233" d="M2370.273,5352.767c.237.285,1.1-.063,2.151-.126s1.954.1,2.151-.221c.079-.15-.079-.427-.482-.688a2.951,2.951,0,0,0-1.772-.379,2.981,2.981,0,0,0-1.693.664C2370.273,5352.332,2370.178,5352.632,2370.273,5352.767Z" transform="translate(-2291.616 -5335.531)" fill="#263238"/>
      <path id="Trazado_103234" data-name="Trazado 103234" d="M2403.282,5366.329c0-.68.68-2.373,1.353-2.484,1.8-.372,5.071-.387,5.331,4.208.356,6.281-6.027,5.339-6.051,5.165S2403.424,5368.7,2403.282,5366.329Z" transform="translate(-2298.522 -5338.115)" fill="#ffbe9d"/>
      <path id="Trazado_103235" data-name="Trazado 103235" d="M2406.38,5371.25a1.723,1.723,0,0,0,.3.143,1.06,1.06,0,0,0,.791,0,2.731,2.731,0,0,0,1.115-2.507,3.548,3.548,0,0,0-.4-1.582,1.282,1.282,0,0,0-.87-.791.571.571,0,0,0-.633.34c-.071.182,0,.3-.055.316s-.142-.1-.111-.364a.712.712,0,0,1,.229-.4.793.793,0,0,1,.593-.2,1.583,1.583,0,0,1,1.2.91,3.713,3.713,0,0,1,.475,1.732c0,1.266-.546,2.491-1.439,2.8a1.152,1.152,0,0,1-1.012-.111C2406.4,5371.425,2406.357,5371.267,2406.38,5371.25Z" transform="translate(-2299.168 -5338.638)" fill="#eb996e"/>
      <path id="Trazado_103236" data-name="Trazado 103236" d="M2398.891,5350.823c.443-2.507-.5-6.02-1.147-8.464a9.192,9.192,0,0,0-3.765-4.944,15.323,15.323,0,0,0-9.492-2.863l-1.258.411c-1.859-.15-3.844.245-4.865,1.748h0v-1.685a12.435,12.435,0,0,0-8.3,5.442,29.4,29.4,0,0,0-3.955,9.365,103.309,103.309,0,0,0,12.118-12.205c3.631,4.746,9.01,7.8,13.914,11.351a18.271,18.271,0,0,1,1.084,7.214c0,6.169,1.305,11.746,1.788,17.908.277,3.551.253,6.588,3.884,6.28C2399.365,5369.008,2396.937,5362,2398.891,5350.823Z" transform="translate(-2290.754 -5332.021)" fill="#263238"/>
      <path id="Trazado_103237" data-name="Trazado 103237" d="M2409.679,5354.029a5.9,5.9,0,0,1-1.748.316,16.914,16.914,0,0,1-4.271-.166,20.188,20.188,0,0,1-4.105-1.187,6.356,6.356,0,0,1-1.582-.791c.055-.134,2.515,1.012,5.759,1.582A33.612,33.612,0,0,0,2409.679,5354.029Z" transform="translate(-2297.413 -5335.71)" fill="#455a64"/>
      <path id="Trazado_103238" data-name="Trazado 103238" d="M2405.374,5347.751a5.5,5.5,0,0,1-1-.063c-.648-.062-1.582-.2-2.713-.411a46.345,46.345,0,0,1-16.682-6.763c-.957-.641-1.724-1.194-2.231-1.582a4.328,4.328,0,0,1-.791-.657,5.111,5.111,0,0,1,.854.53c.538.364,1.321.87,2.294,1.479a53.09,53.09,0,0,0,16.579,6.724c1.123.245,2.041.427,2.681.538A4.213,4.213,0,0,1,2405.374,5347.751Z" transform="translate(-2294.064 -5332.801)" fill="#455a64"/>
      <path id="Trazado_103239" data-name="Trazado 103239" d="M2367.51,5351.175a6.114,6.114,0,0,1-1.448,1.685,6.208,6.208,0,0,1-1.732,1.4c-.079-.087.569-.838,1.448-1.693A6.13,6.13,0,0,1,2367.51,5351.175Z" transform="translate(-2290.38 -5335.498)" fill="#455a64"/>
      <path id="Trazado_103240" data-name="Trazado 103240" d="M2363.791,5402.266c.7-1.226.174-6.241.174-6.241l-1.629,2.935c-3.441,1.337-8.171,3.243-9.492,4.177-1.985,1.392-4.675,7.261-4.675,7.261l-16.611,21.024-31.047-5.442-2.919,15.591,10.489,2.175,18.446,2.373c5.181,1.116,10.22,1.527,14.238-1.875l.277-.538c-1.463,20.961.554,44.074,1.242,65.067a11.371,11.371,0,0,0,.878,4.809c1.06,2.073,4.983,3.164,7.285,2.855s1.582-1.78,2.064-4.05c.269-1.242-.894-2.966-1.044-4.224q-3.393-27.368-6.779-54.729c-.071-1.123-.15-2.167-.229-3.093-.791-9.642-.91-12.245-.483-16.659C2344.64,5426.874,2359.044,5410.547,2363.791,5402.266Z" transform="translate(-2276.433 -5344.872)" fill="#d9a171"/>
      <path id="Trazado_103241" data-name="Trazado 103241" d="M2357.6,5421.135a4.764,4.764,0,0,1-.475.949c-.332.586-.791,1.456-1.3,2.547a43.017,43.017,0,0,0-4.279,18.264c0,1.21,0,2.191.04,2.863a4.582,4.582,0,0,1,0,1.06,6.039,6.039,0,0,1-.158-1.044,28.673,28.673,0,0,1-.174-2.879,39.076,39.076,0,0,1,1.02-9.492,39.492,39.492,0,0,1,3.291-8.93,28.186,28.186,0,0,1,1.432-2.507A5.477,5.477,0,0,1,2357.6,5421.135Z" transform="translate(-2287.647 -5350.12)" fill="#263238"/>
      <g id="Grupo_59371" data-name="Grupo 59371" transform="translate(61.448 74.646)" opacity="0.3">
        <path id="Trazado_103242" data-name="Trazado 103242" d="M2354.867,5425.725a36.617,36.617,0,0,0-5.727,11.414c-1.068,4.146-.4,6.5-.49,10.845l2.492.562C2350.587,5440.746,2350.848,5435.6,2354.867,5425.725Z" transform="translate(-2348.527 -5425.725)" fill="#344154"/>
      </g>
      <path id="Trazado_103243" data-name="Trazado 103243" d="M2355.389,5431.709a1.613,1.613,0,0,1,0-.412c.047-.26.071-.664.19-1.162a33.44,33.44,0,0,1,1.273-4.137,121.694,121.694,0,0,1,5.9-12.972c.728-1.408,1.448-2.769,2.16-4.066l.055-.1h.119l2.618-.048-.174.269a2.609,2.609,0,0,0-1.021-1.146l-.182-.119.142-.158a59.95,59.95,0,0,1,5.616-5.9c.728-.665,1.321-1.171,1.732-1.511a.413.413,0,1,1,.079.087l-1.661,1.582a71.779,71.779,0,0,0-5.482,5.964l-.048-.269a2.943,2.943,0,0,1,1.171,1.305l.126.261h-.293l-2.618.071.166-.1c-.7,1.289-1.416,2.65-2.144,4.058-2.539,4.944-4.683,9.492-6,12.885a39.17,39.17,0,0,0-1.384,4.074A13.52,13.52,0,0,1,2355.389,5431.709Z" transform="translate(-2288.51 -5345.649)" fill="#263238"/>
      <path id="Trazado_103244" data-name="Trazado 103244" d="M2394.858,5675.755l10.2,16.413s-13.257,15.883-11.667,19.095l32.542-18.628L2411.05,5666.4Z" transform="translate(-2296.427 -5401.382)" fill="#d9a171"/>
      <path id="Trazado_103245" data-name="Trazado 103245" d="M2419.546,5689.9a1.527,1.527,0,0,1,1.788.989,1.471,1.471,0,0,1-.965,1.779,1.582,1.582,0,0,1-1.883-1.06,1.519,1.519,0,0,1,1.21-1.74" transform="translate(-2301.696 -5406.285)" fill="#e0e0e0"/>
      <g id="Grupo_59372" data-name="Grupo 59372" transform="translate(96.665 288.666)" opacity="0.6">
        <path id="Trazado_103246" data-name="Trazado 103246" d="M2425.854,5698.881l-1.582-2.586-30.619,18.833s-1.092,1.456-.34,2.373Z" transform="translate(-2393.048 -5696.295)" fill="#fff"/>
      </g>
      <path id="Trazado_103247" data-name="Trazado 103247" d="M2407.349,5698.933c.095.158.933-.221,2-.158s1.875.49,1.986.34-.649-.926-1.954-.981S2407.23,5698.807,2407.349,5698.933Z" transform="translate(-2299.37 -5408.013)" fill="#263238"/>
      <path id="Trazado_103248" data-name="Trazado 103248" d="M2404.051,5703.31c.055.174.894.047,1.819.411s1.487.989,1.645.886-.261-1.052-1.416-1.479S2403.972,5703.151,2404.051,5703.31Z" transform="translate(-2298.682 -5409.019)" fill="#263238"/>
      <path id="Trazado_103249" data-name="Trazado 103249" d="M2403.818,5709.424c.166-.056-.071-.973-.973-1.582s-1.851-.562-1.843-.388.736.372,1.471.9S2403.652,5709.5,2403.818,5709.424Z" transform="translate(-2298.046 -5409.938)" fill="#263238"/>
      <path id="Trazado_103250" data-name="Trazado 103250" d="M2404.925,5693.576c.15.1.791-.53,1.685-.981s1.8-.577,1.8-.791-.989-.364-2.081.182S2404.774,5693.5,2404.925,5693.576Z" transform="translate(-2298.86 -5406.649)" fill="#263238"/>
      <path id="Trazado_103251" data-name="Trazado 103251" d="M2392.2,5686.626l1.1,19.3s-19.245,7.593-19.387,11.176l37.485-.791-.475-30.137Z" transform="translate(-2292.384 -5405.514)" fill="#d9a171"/>
      <path id="Trazado_103252" data-name="Trazado 103252" d="M2412.562,5708.8a1.582,1.582,0,0,1,1.1,1.732,1.478,1.478,0,0,1-1.7,1.1,1.629,1.629,0,0,1-1.155-1.835,1.535,1.535,0,0,1,1.9-.949" transform="translate(-2300.09 -5410.238)" fill="#e0e0e0"/>
      <g id="Grupo_59373" data-name="Grupo 59373" transform="translate(81.509 307.768)" opacity="0.6">
        <path id="Trazado_103253" data-name="Trazado 103253" d="M2411.376,5723.482l-.166-3.038-35.864,1.867s-1.653.791-1.439,1.93Z" transform="translate(-2373.888 -5720.445)" fill="#fff"/>
      </g>
      <path id="Trazado_103254" data-name="Trazado 103254" d="M2397.652,5710.864c0,.182.926.245,1.835.791s1.408,1.329,1.582,1.258-.126-1.131-1.242-1.8S2397.6,5710.7,2397.652,5710.864Z" transform="translate(-2297.345 -5410.634)" fill="#263238"/>
      <path id="Trazado_103255" data-name="Trazado 103255" d="M2392.722,5713.056c-.04.182.791.475,1.4,1.234s.831,1.582,1.013,1.582.277-1.052-.53-1.978S2392.722,5712.882,2392.722,5713.056Z" transform="translate(-2296.315 -5411.116)" fill="#263238"/>
      <path id="Trazado_103256" data-name="Trazado 103256" d="M2389.619,5718.259c.166.04.4-.886-.087-1.875s-1.361-1.376-1.432-1.218.467.672.854,1.5S2389.437,5718.243,2389.619,5718.259Z" transform="translate(-2295.348 -5411.566)" fill="#263238"/>
      <path id="Trazado_103257" data-name="Trazado 103257" d="M2397.95,5705.141c.079.166.91-.111,1.946-.056s1.851.356,1.946.2-.7-.791-1.922-.838S2397.855,5705,2397.95,5705.141Z" transform="translate(-2297.406 -5409.332)" fill="#263238"/>
      <path id="Trazado_103258" data-name="Trazado 103258" d="M2361.475,5504.515s-1.724,82.113-.174,87.8,33.285,63.8,33.285,63.8l19.15-9.4-25.391-61.366,5.6-78.9Z" transform="translate(-2289.613 -5367.546)" fill="#263238"/>
      <path id="Trazado_103259" data-name="Trazado 103259" d="M2403.728,5498.715s11.011,17.979,9.065,28.761c-.791,4.422-6.826,14.238-6.826,14.238v52.625l4.651,70.272H2388.3l-9.595-61.966a50.606,50.606,0,0,1-4.651-10.592c-1.289-4.9-5.49-62.932-5.49-62.932l-6.676-23.6Z" transform="translate(-2289.872 -5366.334)" fill="#263238"/>
      <path id="Trazado_103260" data-name="Trazado 103260" d="M2420.714,5661.525a9.648,9.648,0,0,0,0,1.479c0,.95.095,2.326.19,4.026.19,3.394.53,8.076.926,13.249s.728,9.856.949,13.25c.1,1.637.2,2.99.261,4.018a9.872,9.872,0,0,0,.15,1.471,8.222,8.222,0,0,0,0-1.479c0-.949-.047-2.325-.119-4.026-.135-3.4-.419-8.092-.791-13.265s-.791-9.776-1.052-13.241c-.142-1.638-.253-2.99-.348-4.019A9.072,9.072,0,0,0,2420.714,5661.525Z" transform="translate(-2302.16 -5400.362)" fill="#455a64"/>
      <path id="Trazado_103261" data-name="Trazado 103261" d="M2406.267,5510.334a3.039,3.039,0,0,1-.6.681,13.412,13.412,0,0,1-1.914,1.582,15.262,15.262,0,0,1-15.559.917,13.4,13.4,0,0,1-2.088-1.32,3.344,3.344,0,0,1-.672-.6,31.26,31.26,0,0,0,2.887,1.653,15.733,15.733,0,0,0,15.274-.957A30.856,30.856,0,0,0,2406.267,5510.334Z" transform="translate(-2294.792 -5368.762)" fill="#455a64"/>
      <path id="Trazado_103262" data-name="Trazado 103262" d="M2370.572,5531.225a1.225,1.225,0,0,1,0,.293c0,.214.04.49.071.847.055.791.142,1.874.245,3.282.19,2.871.475,6.984.791,12.055.712,10.173,1.582,24.244,2.966,39.74.19,2.111.4,4.2.641,6.232.134,1.021.245,2.041.467,3a23.692,23.692,0,0,0,.933,2.832c1.376,3.71,2.848,7.214,4.256,10.488v.048c1.487,9.539,2.745,17.615,3.639,23.326l1.076,6.621c.135.751.237,1.328.316,1.748s.134.593.126.6a3.99,3.99,0,0,1-.19-.585c-.087-.4-.221-.973-.372-1.74-.3-1.526-.7-3.765-1.187-6.605-.973-5.679-2.278-13.747-3.781-23.31v.047c-1.424-3.274-2.9-6.779-4.3-10.5a23.939,23.939,0,0,1-.941-2.863c-.237-1.021-.348-2.033-.483-3.054-.245-2.049-.458-4.137-.64-6.249-1.361-15.512-2.207-29.583-2.848-39.763l-.6-12.079c-.071-1.408-.126-2.508-.158-3.283v-.854A1.405,1.405,0,0,1,2370.572,5531.225Z" transform="translate(-2291.686 -5373.128)" fill="#455a64"/>
      <path id="Trazado_103263" data-name="Trazado 103263" d="M2375.54,5399.336s-.237,3.6,2.689,3.6c4.113,0,12.735-7.91,12.735-7.91l-16.611,39.645v47.982l-14.088,1.439s-1.653-.237-1.986-2.61c-.656-4.643-.562-13.107-1.1-16.611-1.677-10.836-4.968-16.737-4.5-25.312.688-12.759,18.644-34.8,18.644-34.8Z" transform="translate(-2287.937 -5344.663)" fill="#fff"/>
      <path id="Trazado_103264" data-name="Trazado 103264" d="M2394.737,5388.715a108.3,108.3,0,0,1-6.945,11.24c-3.591,4.991-26.34,39.842-26.34,39.842l9.088,70.7,1.013,5.988a2.99,2.99,0,0,0,3.438,2.462c.046-.007.093-.016.137-.026l40.183-7.064a3.646,3.646,0,0,0,2.856-4.659l-17.94-50.386,11.588-44.747s-.427-6.518-7.483-13.13c-1.345-1.258-6.89-5.854-7.807-7.119Z" transform="translate(-2289.78 -5343.344)" fill="#d9a171"/>
      <g id="Grupo_59374" data-name="Grupo 59374" transform="translate(73.879 113.444)" opacity="0.3">
        <path id="Trazado_103265" data-name="Trazado 103265" d="M2364.891,5480s18.5,14.673,27.5,14.808,13.684-7.491,13.684-7.491l-18.106.5-23.73-13.044Z" transform="translate(-2364.242 -5474.775)" fill="#344154"/>
      </g>
      <path id="Trazado_103266" data-name="Trazado 103266" d="M2347.7,5451.563s16.69,11.026,19.775,13.123,17.647,10.544,19.546,11.153,13.676.688,15.82-3.314,3.623-12.546,3.623-12.546l2.84-39.984a16.1,16.1,0,0,0-2.879-10.458c-1.724-2.436-4-4.635-6.47-4.263-5.26.791-16.571,13.5-16.026,20.036s.562,24.727.562,24.727l-29.8-9.864Z" transform="translate(-2286.906 -5346.796)" fill="#d9a171"/>
      <path id="Trazado_103267" data-name="Trazado 103267" d="M2406.382,5410.675a8.752,8.752,0,0,1,.546.791,14.47,14.47,0,0,1,1.266,2.429,15.8,15.8,0,0,1,1.092,4.271,32.627,32.627,0,0,1-.135,5.956c-.617,8.906-1.5,21.586-2.555,36.758h0q-.451,2.562-1.092,5.181a44.852,44.852,0,0,1-1.582,5.261,10.833,10.833,0,0,1-1.266,2.563,6.252,6.252,0,0,1-2.278,1.812,17.741,17.741,0,0,1-5.64,1.677,24.383,24.383,0,0,1-6.035.158,8.232,8.232,0,0,1-3-.791c-.926-.459-1.827-.965-2.729-1.464q-5.435-3.037-10.963-6.327c-4.422-2.563-8.527-5.459-12.608-8.124l-11.865-7.91-.158-.1.1-.158,7.016-11.58.079-.127.143.048,29.757,10.077-.174.118c.609-7.427,1.092-13.344,1.424-17.4.174-2.017.309-3.575.4-4.644.047-.514.079-.917.111-1.194l.047-.411v.411c0,.27-.047.681-.079,1.2-.079,1.068-.19,2.635-.332,4.651-.3,4.073-.744,9.982-1.305,17.4v.174l-.166-.056-29.813-10.006.222-.079-7.008,11.588-.055-.261,11.865,7.87c4.1,2.674,8.179,5.537,12.585,8.107q5.537,3.3,10.955,6.328c.9.5,1.8,1,2.713,1.455a7.9,7.9,0,0,0,2.864.791,23.983,23.983,0,0,0,5.933-.149,17.485,17.485,0,0,0,5.537-1.622,6.021,6.021,0,0,0,2.152-1.7,10.368,10.368,0,0,0,1.218-2.468,44.23,44.23,0,0,0,1.582-5.221c.435-1.732.791-3.457,1.1-5.142h0c1.115-15.163,2.041-27.843,2.7-36.75a32.7,32.7,0,0,0,.182-5.924,15.662,15.662,0,0,0-1.028-4.248,15.943,15.943,0,0,0-1.21-2.437c-.158-.269-.292-.459-.372-.593Z" transform="translate(-2286.839 -5347.934)" fill="#263238"/>
      <path id="Trazado_103268" data-name="Trazado 103268" d="M2367.862,5432.771a3.034,3.034,0,0,1,.364-.419c.269-.3.633-.688,1.076-1.171l3.955-4.295,5.94-6.328c2.271-2.373,4.7-5.015,7.57-7.53v.3l-.237-.27-2.009-2.223-.333-.371h.5l3.718.189-.182.1,7.483-13.027,2.215-3.781.609-1c.142-.229.221-.349.237-.341a2.479,2.479,0,0,1-.174.372c-.143.269-.324.617-.554,1.036l-2.112,3.845-7.364,13.1-.063.1h-.126l-3.718-.189.166-.34,2,2.223.245.269.135.15-.158.143c-2.824,2.476-5.276,5.133-7.562,7.475l-6,6.28c-1.708,1.788-3.1,3.228-4.073,4.208-.483.491-.862.87-1.131,1.115A2.32,2.32,0,0,1,2367.862,5432.771Z" transform="translate(-2291.12 -5344.156)" fill="#263238"/>
      <g id="Grupo_59375" data-name="Grupo 59375" transform="translate(75.406 64.474)" opacity="0.3">
        <path id="Trazado_103269" data-name="Trazado 103269" d="M2366.172,5439.221l22.63-21.333-1.93-2.112h1.93l.506-2.911-1.274,2.246-3.726-.189,2.2,2.009-18.8,19.877Z" transform="translate(-2366.172 -5412.865)" fill="#344154"/>
      </g>
      <path id="Trazado_103270" data-name="Trazado 103270" d="M2384.282,5515.313l.38-.095,1.155-.245,4.366-.917,15.25-3.1h.135l.071.118,4.2,6.842.158.253-.293.055-.5.1-22.243,4.176h-.111l-.04-.111-1.9-5.229c-.2-.569-.364-1.021-.483-1.369a3.337,3.337,0,0,1-.15-.466,4.665,4.665,0,0,1,.221.5c.135.348.324.791.554,1.384l2.009,5.086-.15-.087,22.211-4.311.5-.1-.134.309-4.192-6.85.206.1-15.14,2.879-4.437.791-1.2.206A2.83,2.83,0,0,1,2384.282,5515.313Z" transform="translate(-2294.551 -5368.893)" fill="#263238"/>
      <g id="Grupo_59376" data-name="Grupo 59376" transform="translate(89.944 147.094)" opacity="0.3">
        <path id="Trazado_103271" data-name="Trazado 103271" d="M2384.552,5517.315l1.606,8.3,23.034-4.153-.641-1.922-21.594,4.121Z" transform="translate(-2384.552 -5517.315)" fill="#344154"/>
      </g>
      <path id="Trazado_103272" data-name="Trazado 103272" d="M2399.955,5468.867c-.119.055-1.076-1.843-2.792-3.781s-3.472-3.164-3.4-3.251A13.9,13.9,0,0,1,2399.955,5468.867Z" transform="translate(-2296.532 -5358.626)" fill="#263238"/>
      <path id="Trazado_103273" data-name="Trazado 103273" d="M2291.329,5436.616s-5.774-3.456-8.084-5.671c0,0-3.362-1.061-4.9,1.06,0,0-3.559.981-4.034,1.646s-3.464,5.275-3.464,5.275,1.582,5.5,1.732,5.774c.285.6.933,1.234,1.479.569a1.154,1.154,0,0,0,.253-.791v-.363l.862-.609s.388,2.136,1.542,1.8a20.109,20.109,0,0,0,3.749-2.254s3.655,2.08,5.577,2.293a60.629,60.629,0,0,1,6.328,1.416l1.946-10.448Z" transform="translate(-2270.842 -5352.115)" fill="#ffbe9d"/>
      <path id="Trazado_103274" data-name="Trazado 103274" d="M2274.652,5445.5a.476.476,0,0,1-.451.087,1.18,1.18,0,0,1-.791-.95,17.068,17.068,0,0,1,0-4.018,36.854,36.854,0,0,1,.633-3.955,6.827,6.827,0,0,1,.427-1.582c.142,0-.308,2.507-.649,5.537a23.553,23.553,0,0,0-.142,3.955,1,1,0,0,0,.585.846C2274.486,5445.534,2274.645,5445.471,2274.652,5445.5Z" transform="translate(-2271.354 -5353.035)" fill="#eb996e"/>
      <path id="Trazado_103275" data-name="Trazado 103275" d="M2282.631,5436.854a4.609,4.609,0,0,1-2.729,1.266l.166-.149-.047.205a12.95,12.95,0,0,1-.949,3.053,12.6,12.6,0,0,1,.546-3.163l.055-.2v-.135h.135A19.957,19.957,0,0,0,2282.631,5436.854Z" transform="translate(-2272.562 -5353.405)" fill="#eb996e"/>
      <path id="Trazado_103276" data-name="Trazado 103276" d="M2286.682,5437.574a2.84,2.84,0,0,0-3.164-.649l-.6.791-4.556,3.8a7,7,0,0,0-2.041,2.3,2.373,2.373,0,0,0,.474,2.832,2.723,2.723,0,0,0,3.227-.427c.91-.735,1.582-1.764,2.515-2.452,1.471-1.083,3.607-1.376,4.509-2.958A2.837,2.837,0,0,0,2286.682,5437.574Z" transform="translate(-2271.93 -5353.373)" fill="#ffbe9d"/>
      <path id="Trazado_103277" data-name="Trazado 103277" d="M2283.167,5435.955a2.518,2.518,0,0,1-.4,1.653,6.141,6.141,0,0,1-1.147,1.479,14.95,14.95,0,0,1-1.78,1.384,11.093,11.093,0,0,0-3.014,2.587,9.841,9.841,0,0,0-.791,1.455,2.671,2.671,0,0,1,.53-1.621,6.834,6.834,0,0,1,1.218-1.408,19.173,19.173,0,0,1,1.8-1.353,15.88,15.88,0,0,0,1.756-1.329,6.343,6.343,0,0,0,1.155-1.337A8.117,8.117,0,0,0,2283.167,5435.955Z" transform="translate(-2271.927 -5353.217)" fill="#eb996e"/>
      <path id="Trazado_103278" data-name="Trazado 103278" d="M2314.022,5456.1s.166-5.664,1.582-7.349,9.824-3.829,9.824-3.829l21.072,4.889-4.9,7.91-1.479-1.392s-6.628,1.993-9.9,1.273a37.2,37.2,0,0,1-5.711-1.7l-3.433.237s-2.476,2.563-3.275,2.563-1.677-.72-1.281-1.519l-.712-1.2S2314.346,5456.821,2314.022,5456.1Z" transform="translate(-2279.867 -5355.092)" fill="#ffbe9d"/>
      <path id="Trazado_103279" data-name="Trazado 103279" d="M2325.736,5454.063a3.525,3.525,0,0,1-1.5.514,25.885,25.885,0,0,0-3.678.72,5.137,5.137,0,0,0-2.642,2.421,8.8,8.8,0,0,1-.791,1.353,4.411,4.411,0,0,1,.538-1.487,6.338,6.338,0,0,1,.957-1.463,4.408,4.408,0,0,1,1.8-1.211,17.583,17.583,0,0,1,3.773-.624C2325.158,5454.181,2325.712,5454.007,2325.736,5454.063Z" transform="translate(-2280.515 -5357)" fill="#eb996e"/>
      <path id="Trazado_103280" data-name="Trazado 103280" d="M2323.836,5448.8c0,.055-.673.166-1.717.538a17.276,17.276,0,0,0-1.788.72,8.7,8.7,0,0,0-1.993,1.187,4.6,4.6,0,0,0-.68.957c-.2.34-.38.672-.538,1a9.647,9.647,0,0,0-.688,1.788c-.277,1.06-.229,1.748-.3,1.756a3.635,3.635,0,0,1,0-1.82,8.38,8.38,0,0,1,.625-1.891c.158-.34.34-.687.538-1.036a4.625,4.625,0,0,1,.751-1.06,8.483,8.483,0,0,1,2.136-1.266,14.962,14.962,0,0,1,1.867-.656A4.331,4.331,0,0,1,2323.836,5448.8Z" transform="translate(-2280.283 -5355.898)" fill="#eb996e"/>
    </g>
    <text id="Enero" transform="translate(2210.37 5411.606)" fill="#fff" font-size="12" font-family="Roboto-Regular, Roboto"><tspan x="0" y="13">Enero</tspan></text>
  </g>
</svg>
