<svg xmlns="http://www.w3.org/2000/svg" width="384.245" height="373.329" viewBox="0 0 384.245 373.329">
  <g id="Grupo_66545" data-name="Grupo 66545" transform="translate(-173.887 -11792.419)">
    <g id="Grupo_55403" data-name="Grupo 55403" transform="translate(-67.336 8201.532)">
      <circle id="Elipse_3999" data-name="Elipse 3999" cx="184.164" cy="184.164" r="184.164" transform="translate(254.639 3593.387)" fill="#cee5f7" stroke="#aed3f2" stroke-miterlimit="10" stroke-width="5"/>
      <path id="Trazado_101478" data-name="Trazado 101478" d="M548.328,3905.9h-162.4a11.4,11.4,0,0,1-11.49-12.44l19.89-260.77a13.7,13.7,0,0,1,13.4-12.44h162.4a11.4,11.4,0,0,1,11.49,12.44l-19.89,260.77A13.71,13.71,0,0,1,548.328,3905.9Z" fill="#d9a171"/>
      <path id="Trazado_101479" data-name="Trazado 101479" d="M548.328,3905.9h-162.4a11.4,11.4,0,0,1-11.49-12.44l19.89-260.77a13.7,13.7,0,0,1,13.4-12.44h162.4a11.4,11.4,0,0,1,11.49,12.44l-19.89,260.77A13.71,13.71,0,0,1,548.328,3905.9Z" fill="#fff" opacity="0.5" style="isolation: isolate"/>
      <path id="Trazado_101480" data-name="Trazado 101480" d="M545.918,3905.9H383.508a11.4,11.4,0,0,1-11.49-12.44l19.9-260.77a13.7,13.7,0,0,1,13.41-12.44h162.4a11.4,11.4,0,0,1,11.49,12.44l-19.89,260.77A13.7,13.7,0,0,1,545.918,3905.9Z" fill="#d9a171"/>
      <path id="Trazado_101481" data-name="Trazado 101481" d="M545.918,3905.9H383.508a11.4,11.4,0,0,1-11.49-12.44l19.9-260.77a13.7,13.7,0,0,1,13.41-12.44h162.4a11.4,11.4,0,0,1,11.49,12.44l-19.89,260.77A13.7,13.7,0,0,1,545.918,3905.9Z" fill="#fff" opacity="0.7" style="isolation: isolate"/>
      <path id="Trazado_101482" data-name="Trazado 101482" d="M383.828,3901.746a7.576,7.576,0,0,1-7.66-8.29l19.63-257.31a9.109,9.109,0,0,1,8.93-8.29h162.4a7.58,7.58,0,0,1,7.692,7.466,7.835,7.835,0,0,1-.032.824l-19.63,257.31a9.111,9.111,0,0,1-8.92,8.29Z" fill="#344154"/>
      <path id="Trazado_101483" data-name="Trazado 101483" d="M545.088,3671.136H428.868a4.494,4.494,0,0,1-4.54-4.92h0a5.42,5.42,0,0,1,5.29-4.91h116.22a4.49,4.49,0,0,1,4.559,4.42,4.716,4.716,0,0,1-.019.49h0A5.4,5.4,0,0,1,545.088,3671.136Z" fill="#d9a171" opacity="0.2" style="isolation: isolate"/>
      <path id="Trazado_101484" data-name="Trazado 101484" d="M495.508,3625.316h-18.77a1.11,1.11,0,0,1-1.125-1.095,1.1,1.1,0,0,1,.005-.115h0a1.339,1.339,0,0,1,1.3-1.21H495.7a1.109,1.109,0,0,1,1.114,1.1c0,.035,0,.07,0,.1h0A1.321,1.321,0,0,1,495.508,3625.316Z" fill="#d9a171" opacity="0.3" style="isolation: isolate"/>
      <path id="Trazado_101485" data-name="Trazado 101485" d="M428.328,3666.216a12.421,12.421,0,0,0-12.56-13.6h118a12.427,12.427,0,0,1,12.56,13.6Z" fill="#f0f0f0"/>
      <path id="Trazado_101486" data-name="Trazado 101486" d="M415.8,3652.616a14.939,14.939,0,0,0-14.65,13.6l-12.09,158.47a14.93,14.93,0,0,1-14.64,13.6h118a14.94,14.94,0,0,0,14.65-13.6l12.09-158.47a14.93,14.93,0,0,1,14.64-13.6Z" fill="#fff"/>
      <path id="Trazado_101487" data-name="Trazado 101487" d="M479.848,3824.686a12.421,12.421,0,0,0,12.56,13.6h-118a12.418,12.418,0,0,1-12.56-13.6Z" fill="#f0f0f0"/>
      <path id="Trazado_101488" data-name="Trazado 101488" d="M410.778,3821.556c.45-5.79-1.37-10.47-7.15-10.47h90.86c5.78,0,10.13,5.29,7.16,10.47Z" fill="#e0e0e0"/>
      <path id="Trazado_101489" data-name="Trazado 101489" d="M479.848,3824.686a14.93,14.93,0,0,1,14.64-13.63h-118a14.93,14.93,0,0,0-14.64,13.6Z" fill="#f0f0f0"/>
      <path id="Trazado_101490" data-name="Trazado 101490" d="M535.638,3863.976H400.188a3.266,3.266,0,0,1-3.3-3.57h0a3.929,3.929,0,0,1,3.84-3.57h135.46a3.269,3.269,0,0,1,3.3,3.236c0,.111,0,.223-.013.334h0A3.931,3.931,0,0,1,535.638,3863.976Z" fill="#fff"/>
      <path id="Trazado_101491" data-name="Trazado 101491" d="M467.238,3881.136h-68.36a3.261,3.261,0,0,1-3.315-3.205,3.181,3.181,0,0,1,.015-.365h0a3.929,3.929,0,0,1,3.84-3.57h68.36a3.275,3.275,0,0,1,3.3,3.57h0A3.93,3.93,0,0,1,467.238,3881.136Z" fill="#fff"/>
      <path id="Trazado_101492" data-name="Trazado 101492" d="M514.568,3881.136h-27.69a3.261,3.261,0,0,1-3.315-3.205,3.181,3.181,0,0,1,.015-.365h0a3.929,3.929,0,0,1,3.84-3.57h27.69a3.28,3.28,0,0,1,3.312,3.247c0,.108,0,.216-.012.323h0A3.93,3.93,0,0,1,514.568,3881.136Z" fill="#fff"/>
      <path id="Trazado_101493" data-name="Trazado 101493" d="M542.258,3813.236l-7.07,1.11a6.55,6.55,0,0,0-.81-1.85,4.183,4.183,0,0,0-1.31-1.05l-.42,5.43q5.6,1.53,7.38,3.22a6.861,6.861,0,0,1,2.09,5.76,8.228,8.228,0,0,1-1.2,3.76,10.137,10.137,0,0,1-2.54,2.85,10.289,10.289,0,0,1-3.14,1.67,15.846,15.846,0,0,1-4,.61l-.27,3.54h-2.64l.27-3.54a16.857,16.857,0,0,1-4.41-.89,8.3,8.3,0,0,1-2.86-1.8,7.735,7.735,0,0,1-1.73-2.47,10.578,10.578,0,0,1-.77-3.2l7.65-.88a6.7,6.7,0,0,0,.7,2.69,4.2,4.2,0,0,0,1.78,1.46l.5-6.63a33.353,33.353,0,0,1-5.24-1.82,6.484,6.484,0,0,1-2.56-2.47,6.774,6.774,0,0,1-.84-4.15,8.056,8.056,0,0,1,2.76-5.58,11.235,11.235,0,0,1,7.14-2.49l.14-1.86h2.74l-.14,1.86a10.8,10.8,0,0,1,6.28,2A7.3,7.3,0,0,1,542.258,3813.236Zm-11.93-1.88a3.9,3.9,0,0,0-1.74,1,2.257,2.257,0,0,0-.58,1.38,2.135,2.135,0,0,0,.37,1.44,3.2,3.2,0,0,0,1.58,1Zm1.33,18.49a4.785,4.785,0,0,0,2.43-1.18,2.906,2.906,0,0,0,.88-1.83,2.282,2.282,0,0,0-.5-1.63,5.1,5.1,0,0,0-2.35-1.38Z" fill="#fff"/>
      <path id="Trazado_101494" data-name="Trazado 101494" d="M504.688,3721.606h-97.53l.2-2.7H504.9Z" fill="#d9a171"/>
      <g id="Grupo_55400" data-name="Grupo 55400">
        <path id="Trazado_101495" data-name="Trazado 101495" d="M434.688,3721.606h-27.53l-.64,8.29h27.54Z" fill="#f0f0f0"/>
        <path id="Trazado_101496" data-name="Trazado 101496" d="M433.428,3738.176h-27.54l-.63,8.28H432.8Z" fill="#f0f0f0"/>
        <path id="Trazado_101497" data-name="Trazado 101497" d="M432.158,3754.736h-27.53l-.63,8.29h27.53Z" fill="#f0f0f0"/>
        <path id="Trazado_101498" data-name="Trazado 101498" d="M430.9,3771.306h-27.54l-.63,8.28h27.54Z" fill="#f0f0f0"/>
        <path id="Trazado_101499" data-name="Trazado 101499" d="M406.518,3729.9h27.54l.63-8.29h-27.53" fill="#f0f0f0"/>
        <path id="Trazado_101500" data-name="Trazado 101500" d="M405.258,3746.456H432.8l.63-8.28h-27.54" fill="#f0f0f0"/>
        <path id="Trazado_101501" data-name="Trazado 101501" d="M404,3763.026h27.53l.63-8.29h-27.53" fill="#f0f0f0"/>
        <path id="Trazado_101502" data-name="Trazado 101502" d="M402.728,3779.586h27.54l.63-8.28h-27.54" fill="#f0f0f0"/>
        <path id="Trazado_101503" data-name="Trazado 101503" d="M440.792,3729.9h27.54l.63-8.29h-27.53" fill="#f0f0f0"/>
        <path id="Trazado_101504" data-name="Trazado 101504" d="M439.532,3746.456h27.54l.63-8.28h-27.54" fill="#f0f0f0"/>
        <path id="Trazado_101505" data-name="Trazado 101505" d="M438.272,3763.026H465.8l.63-8.29H438.9" fill="#f0f0f0"/>
        <path id="Trazado_101506" data-name="Trazado 101506" d="M437,3779.586h27.54l.63-8.28h-27.54" fill="#f0f0f0"/>
        <path id="Trazado_101507" data-name="Trazado 101507" d="M440.792,3729.9h27.54l.63-8.29h-27.53" fill="#f0f0f0"/>
        <path id="Trazado_101508" data-name="Trazado 101508" d="M439.532,3746.456h27.54l.63-8.28h-27.54" fill="#f0f0f0"/>
        <path id="Trazado_101509" data-name="Trazado 101509" d="M438.272,3763.026H465.8l.63-8.29H438.9" fill="#f0f0f0"/>
        <path id="Trazado_101510" data-name="Trazado 101510" d="M437,3779.586h27.54l.63-8.28h-27.54" fill="#f0f0f0"/>
        <path id="Trazado_101511" data-name="Trazado 101511" d="M476.372,3729.9h27.54l.63-8.29h-27.53" fill="#8a8a8a"/>
        <path id="Trazado_101512" data-name="Trazado 101512" d="M475.112,3746.456h27.54l.63-8.28h-27.54" fill="#8a8a8a"/>
        <path id="Trazado_101513" data-name="Trazado 101513" d="M473.852,3763.026h27.53l.63-8.29h-27.53" fill="#8a8a8a"/>
        <path id="Trazado_101514" data-name="Trazado 101514" d="M472.582,3779.586h27.54l.63-8.28h-27.54" fill="#8a8a8a"/>
      </g>
      <path id="Trazado_101515" data-name="Trazado 101515" d="M499.428,3790.576h-97.54l.21-2.71h97.54Z" fill="#d9a171"/>
      <path id="Trazado_101516" data-name="Trazado 101516" d="M488.268,3671.136h20.27l-.92,12.09h-20.27Z" fill="#f0f0f0"/>
      <g id="Grupo_55401" data-name="Grupo 55401">
        <path id="Trazado_101517" data-name="Trazado 101517" d="M419.322,3698.379H415.48l-.272,2.6h4.508l-.168,1.608h-6.509l1.017-9.711h6.5l-.17,1.621h-4.495l-.242,2.314h3.841Z" fill="#a66d58"/>
        <path id="Trazado_101518" data-name="Trazado 101518" d="M423.873,3697.526l1.44-2.154h2.06l-2.424,3.534,1.755,3.682h-2.067l-1.05-2.268-1.518,2.268h-2.074l2.526-3.682-1.677-3.534h2.068Z" fill="#a66d58"/>
        <path id="Trazado_101519" data-name="Trazado 101519" d="M430.794,3693.6l-.186,1.774h1.234l-.148,1.413H430.46l-.377,3.6a.8.8,0,0,0,.093.573.7.7,0,0,0,.569.174,3.159,3.159,0,0,0,.571-.047l-.153,1.461a4.17,4.17,0,0,1-1.185.173q-2.028,0-1.853-2.047l.407-3.889h-1.053l.148-1.413h1.053l.186-1.774Z" fill="#a66d58"/>
        <path id="Trazado_101520" data-name="Trazado 101520" d="M436.781,3697.179a5.224,5.224,0,0,0-.688-.053,1.582,1.582,0,0,0-1.511.74l-.495,4.722H432.16l.755-7.216h1.821l-.037.86a2.026,2.026,0,0,1,1.712-.994,1.932,1.932,0,0,1,.591.087Z" fill="#a66d58"/>
        <path id="Trazado_101521" data-name="Trazado 101521" d="M441.123,3702.588a1.984,1.984,0,0,1-.126-.647,2.591,2.591,0,0,1-1.9.78,2.326,2.326,0,0,1-1.693-.613,1.785,1.785,0,0,1-.535-1.548,2.3,2.3,0,0,1,1.035-1.76,4.522,4.522,0,0,1,2.522-.621h.887l.044-.413a1.1,1.1,0,0,0-.173-.8.912.912,0,0,0-.779-.3,1.246,1.246,0,0,0-.788.234.89.89,0,0,0-.344.64h-1.928a2.147,2.147,0,0,1,.509-1.16,2.956,2.956,0,0,1,1.181-.837,4.23,4.23,0,0,1,1.619-.3,2.885,2.885,0,0,1,2.048.67,2.134,2.134,0,0,1,.586,1.885l-.328,3.127a3.307,3.307,0,0,0,.124,1.554l-.012.114Zm-1.454-1.341a1.772,1.772,0,0,0,.807-.19,1.455,1.455,0,0,0,.587-.51l.13-1.241h-.72q-1.447,0-1.645,1l-.019.113a.7.7,0,0,0,.191.594A.9.9,0,0,0,439.669,3701.247Z" fill="#a66d58"/>
        <path id="Trazado_101522" data-name="Trazado 101522" d="M447.414,3701.167a1.383,1.383,0,0,0,.9-.293,1.162,1.162,0,0,0,.428-.781h1.808a2.719,2.719,0,0,1-.541,1.344,3.063,3.063,0,0,1-1.177.947,3.59,3.59,0,0,1-1.545.337,2.82,2.82,0,0,1-2.338-.984,3.6,3.6,0,0,1-.609-2.717l.013-.127a4.262,4.262,0,0,1,1.166-2.661,3.432,3.432,0,0,1,2.538-.994,2.753,2.753,0,0,1,2.09.771,2.483,2.483,0,0,1,.616,2.05h-1.808a1.212,1.212,0,0,0-.25-.915,1.044,1.044,0,0,0-.844-.352,1.3,1.3,0,0,0-1.068.491,3.075,3.075,0,0,0-.511,1.593l-.021.2a2.739,2.739,0,0,0,.172,1.6A1.049,1.049,0,0,0,447.414,3701.167Z" fill="#a66d58"/>
        <path id="Trazado_101523" data-name="Trazado 101523" d="M454.636,3693.6l-.186,1.774h1.234l-.148,1.413H454.3l-.377,3.6a.8.8,0,0,0,.093.573.7.7,0,0,0,.569.174,3.171,3.171,0,0,0,.572-.047l-.153,1.461a4.172,4.172,0,0,1-1.186.173q-2.027,0-1.853-2.047l.408-3.889h-1.054l.148-1.413h1.054l.186-1.774Z" fill="#a66d58"/>
        <path id="Trazado_101524" data-name="Trazado 101524" d="M455.887,3698.913A4.614,4.614,0,0,1,456.5,3697a3.527,3.527,0,0,1,1.326-1.3,3.748,3.748,0,0,1,1.853-.46,2.97,2.97,0,0,1,2.29.894,3.25,3.25,0,0,1,.776,2.427l-.038.494a4.187,4.187,0,0,1-1.206,2.664,3.567,3.567,0,0,1-2.593,1,2.916,2.916,0,0,1-2.386-1,3.534,3.534,0,0,1-.645-2.721Zm1.913.137a2.538,2.538,0,0,0,.222,1.573,1.136,1.136,0,0,0,1.05.544,1.431,1.431,0,0,0,1.15-.538,3.2,3.2,0,0,0,.574-1.719,2.517,2.517,0,0,0-.23-1.563,1.139,1.139,0,0,0-1.049-.555,1.413,1.413,0,0,0-1.152.551A3.258,3.258,0,0,0,457.8,3699.05Z" fill="#a66d58"/>
        <path id="Trazado_101525" data-name="Trazado 101525" d="M467.053,3702.588l1.017-9.711h3.4a4.14,4.14,0,0,1,2.61.677,2.091,2.091,0,0,1,.706,1.984,2.412,2.412,0,0,1-.5,1.257,2.447,2.447,0,0,1-1.1.8,1.786,1.786,0,0,1,1.1.754,2.071,2.071,0,0,1,.285,1.387,2.875,2.875,0,0,1-1.116,2.121,4.368,4.368,0,0,1-2.624.734Zm2.592-5.642h1.48q1.516-.027,1.641-1.208a1.016,1.016,0,0,0-.284-.95,1.877,1.877,0,0,0-1.18-.29h-1.4Zm-.149,1.413-.274,2.621h1.714a1.805,1.805,0,0,0,1.139-.336,1.3,1.3,0,0,0,.494-.931q.139-1.333-1.238-1.354Z" fill="#a66d58"/>
        <path id="Trazado_101526" data-name="Trazado 101526" d="M479.824,3702.588a2.012,2.012,0,0,1-.125-.647,2.6,2.6,0,0,1-1.9.78,2.328,2.328,0,0,1-1.693-.613,1.785,1.785,0,0,1-.535-1.548,2.3,2.3,0,0,1,1.035-1.76,4.528,4.528,0,0,1,2.523-.621h.887l.043-.413a1.1,1.1,0,0,0-.173-.8.911.911,0,0,0-.779-.3,1.248,1.248,0,0,0-.788.234.893.893,0,0,0-.344.64h-1.927a2.145,2.145,0,0,1,.508-1.16,2.952,2.952,0,0,1,1.182-.837,4.226,4.226,0,0,1,1.619-.3,2.883,2.883,0,0,1,2.047.67,2.134,2.134,0,0,1,.586,1.885l-.327,3.127a3.294,3.294,0,0,0,.124,1.554l-.012.114Zm-1.453-1.341a1.778,1.778,0,0,0,.807-.19,1.461,1.461,0,0,0,.587-.51l.13-1.241h-.721q-1.447,0-1.645,1l-.019.113a.7.7,0,0,0,.192.594A.893.893,0,0,0,478.371,3701.247Z" fill="#a66d58"/>
        <path id="Trazado_101527" data-name="Trazado 101527" d="M485.495,3695.372l-.027.833a2.817,2.817,0,0,1,2.176-.967,1.886,1.886,0,0,1,1.636.674,2.924,2.924,0,0,1,.363,2.014l-.488,4.662h-1.928l.484-4.615a1.165,1.165,0,0,0-.174-.891,1.093,1.093,0,0,0-.858-.277,1.5,1.5,0,0,0-1.293.694l-.533,5.089h-1.927l.755-7.216Z" fill="#a66d58"/>
        <path id="Trazado_101528" data-name="Trazado 101528" d="M493.765,3701.167a1.383,1.383,0,0,0,.9-.293,1.162,1.162,0,0,0,.428-.781H496.9a2.72,2.72,0,0,1-.541,1.344,3.063,3.063,0,0,1-1.177.947,3.59,3.59,0,0,1-1.545.337,2.82,2.82,0,0,1-2.338-.984,3.6,3.6,0,0,1-.609-2.717l.013-.127a4.262,4.262,0,0,1,1.166-2.661,3.432,3.432,0,0,1,2.538-.994,2.753,2.753,0,0,1,2.09.771,2.483,2.483,0,0,1,.616,2.05H495.3a1.208,1.208,0,0,0-.251-.915,1.041,1.041,0,0,0-.843-.352,1.3,1.3,0,0,0-1.068.491,3.074,3.074,0,0,0-.511,1.593l-.021.2a2.739,2.739,0,0,0,.172,1.6A1.049,1.049,0,0,0,493.765,3701.167Z" fill="#a66d58"/>
        <path id="Trazado_101529" data-name="Trazado 101529" d="M497.823,3698.913a4.614,4.614,0,0,1,.614-1.914,3.527,3.527,0,0,1,1.326-1.3,3.748,3.748,0,0,1,1.853-.46,2.97,2.97,0,0,1,2.29.894,3.25,3.25,0,0,1,.776,2.427l-.038.494a4.187,4.187,0,0,1-1.206,2.664,3.567,3.567,0,0,1-2.593,1,2.916,2.916,0,0,1-2.386-1,3.534,3.534,0,0,1-.645-2.721Zm1.913.137a2.538,2.538,0,0,0,.222,1.573,1.136,1.136,0,0,0,1.05.544,1.431,1.431,0,0,0,1.15-.538,3.2,3.2,0,0,0,.574-1.719,2.517,2.517,0,0,0-.23-1.563,1.139,1.139,0,0,0-1.049-.555,1.413,1.413,0,0,0-1.152.551A3.258,3.258,0,0,0,499.736,3699.05Z" fill="#a66d58"/>
      </g>
      <g id="freepik--Character--inject-1">
        <path id="Trazado_101530" data-name="Trazado 101530" d="M289.508,3748.056l3.62,1.45a8.13,8.13,0,0,1,3.36,2.52l1.66,2.1a3.671,3.671,0,0,1-.12,4.71l-1.76,2a3.691,3.691,0,0,1-5.208.339l-.032-.029-1.7-1.5s-5.2-3.65-6.73-8.48l1-1A6.909,6.909,0,0,1,289.508,3748.056Z" fill="#ffb573"/>
        <path id="Trazado_101531" data-name="Trazado 101531" d="M299.428,3712.976l-1.18.78-1.31.9c-.87.62-1.75,1.26-2.6,1.91-1.71,1.33-3.37,2.7-4.91,4.16a40.449,40.449,0,0,0-7.74,9.42c-.25.42-.47.84-.68,1.27l-.16.32c.04-.135.073-.272.1-.41a1.238,1.238,0,0,0,0-.5c-.09-.29-.1.46.13,1.2a30.68,30.68,0,0,0,2.39,5.54c2.06,3.94,4.64,8,7.08,12l.06.11a3.52,3.52,0,0,1-1.17,4.83,3.56,3.56,0,0,1-4-.23,65.318,65.318,0,0,1-5.71-5,67.678,67.678,0,0,1-5.22-5.69,34.6,34.6,0,0,1-4.59-7.13,19.014,19.014,0,0,1-.94-2.46,12.224,12.224,0,0,1-.52-3.37,9.886,9.886,0,0,1,.25-2.3,10.779,10.779,0,0,1,.38-1.27l.19-.51c.25-.69.53-1.36.82-2a46.887,46.887,0,0,1,9.54-13.69,60.632,60.632,0,0,1,6-5.37c1.06-.82,2.13-1.62,3.24-2.37.56-.38,1.12-.76,1.7-1.12l.89-.54,1-.58a7,7,0,0,1,7.36,11.88Z" fill="#ffb573"/>
        <path id="Trazado_101532" data-name="Trazado 101532" d="M299.548,3697.106c-5.84,0-12.24,2.53-20.44,12.7,0,6.07,12.81,14.14,12.81,14.14S312.918,3697.056,299.548,3697.106Z" fill="#d9a171"/>
        <path id="Trazado_101533" data-name="Trazado 101533" d="M256.158,3937.5a1.209,1.209,0,0,1-.31-.05c-1.21-.43-2.35-3.51-2.42-5.23a.26.26,0,0,1,.15-.26.289.289,0,0,1,.31,0c.13.11,3.14,2.58,3.28,4.24a1.175,1.175,0,0,1-.27.9A1,1,0,0,1,256.158,3937.5Zm-2.09-4.61c.27,1.63,1.2,3.75,2,4a.37.37,0,0,0,.43-.16.611.611,0,0,0,.14-.48c-.11-.95-1.59-2.48-2.57-3.36Z" fill="#344154"/>
        <path id="Trazado_101534" data-name="Trazado 101534" d="M258.038,3933.826a9.745,9.745,0,0,1-4.49-1.38.284.284,0,0,1,.09-.51c.16,0,3.93-1,5.35-.16a1.154,1.154,0,0,1,.57.75.92.92,0,0,1-.36,1A2.06,2.06,0,0,1,258.038,3933.826Zm-3.57-1.51c1.47.74,3.74,1.24,4.41.78.1-.07.19-.17.13-.44a.58.58,0,0,0-.31-.4c-.83-.51-2.94-.2-4.23.06Z" fill="#344154"/>
        <path id="Trazado_101535" data-name="Trazado 101535" d="M243.068,3931.546a47.15,47.15,0,0,0,7.46-10.59s9.28,2.28,7.46,5c-3.31,4.85-4.92,14.82-.66,20.16,2.43,3.05-1.41,3.56-4,2.25-4-2.07-3.87-2.85-6-6.28-1.8-2.93-2.51-4.08-5-5.34C240.328,3935.656,241.328,3933.616,243.068,3931.546Z" fill="#d9a171"/>
        <path id="Trazado_101536" data-name="Trazado 101536" d="M321.768,3757.386s-13.44,65.6-23.3,93.67c-10.34,29.42-38.89,74.83-40,76.78-4.06-1.09-7.68-2.51-10.09-4.86,0,0,13.4-49.25,26.46-81.2,5-66.7,15.89-84.34,15.89-84.34Z" fill="#344154"/>
        <path id="Trazado_101537" data-name="Trazado 101537" d="M301.238,3792.486c-.61,12.69-1,30.14-.43,51.38,4.11-13.24,8.58-31.19,12.34-47.3C310.638,3793.216,306.738,3791.606,301.238,3792.486Z" fill="#d9a171" opacity="0.2" style="isolation: isolate"/>
        <path id="Trazado_101538" data-name="Trazado 101538" d="M302.048,3676.946c1.41,5.71,2.79,15,.54,20,0,0,8.42.38,19.18,9,5.07-7.44-.8-8.9-.8-8.9-4.47-1-4.25-7-4.24-11.25Z" fill="#ffb573"/>
        <path id="Trazado_101539" data-name="Trazado 101539" d="M299.928,3699.5c-4.2-.46-1.3-8.44.88-7.66,5.52,2,17.9-.22,21.73,1.89s2.86,6.44,2.86,6.44S304.448,3700,299.928,3699.5Z" fill="#d9a171"/>
        <path id="Trazado_101540" data-name="Trazado 101540" d="M299.928,3699.5c-4.2-.46-1.3-8.44.88-7.66,5.52,2,17.9-.22,21.73,1.89s2.86,6.44,2.86,6.44S304.448,3700,299.928,3699.5Z" fill="#fff" opacity="0.7" style="isolation: isolate"/>
        <path id="Trazado_101541" data-name="Trazado 101541" d="M324.428,3666.876c.14.76.65,1.31,1.15,1.22s.79-.78.66-1.54-.65-1.31-1.15-1.22S324.328,3666.116,324.428,3666.876Z" fill="#344154"/>
        <path id="Trazado_101542" data-name="Trazado 101542" d="M324.878,3665.416l1.74-.85S325.928,3666.166,324.878,3665.416Z" fill="#344154"/>
        <path id="Trazado_101543" data-name="Trazado 101543" d="M325.448,3660.776a.445.445,0,0,0,0-.34.46.46,0,0,0-.56-.32,4.55,4.55,0,0,0-3.14,2.72.479.479,0,0,0,.29.58.46.46,0,0,0,.58-.29,3.579,3.579,0,0,1,2.51-2.13A.48.48,0,0,0,325.448,3660.776Z" fill="#344154"/>
        <path id="Trazado_101544" data-name="Trazado 101544" d="M325.328,3668.736a20.684,20.684,0,0,0,3.27,4.63,3.321,3.321,0,0,1-2.7.8Z" fill="#ed893e"/>
        <path id="Trazado_101545" data-name="Trazado 101545" d="M298.328,3666.486c2.23,9.28,3,13.25,8.47,17.24,8.27,6,18.95,1.26,19.49-8.48.48-8.78-3.24-22.47-12.9-24.61S296.1,3657.206,298.328,3666.486Z" fill="#ffb573"/>
        <path id="Trazado_101546" data-name="Trazado 101546" d="M316.328,3668.2c5.46-7.22,9-13.06,6.33-19.45-2.25-5.34-8.48-3.78-9.35-1.11-16.56-1.41-22.51,4.59-19.09,14.51,2.18,6.33-6.28,3-4.22,11.08,1.57,6.16-4,8.51-1.17,12.05,4.08,5.11,12.5-1.55,22.11,2.28C318.778,3690.7,330.6,3685.946,316.328,3668.2Z" fill="#344154"/>
        <path id="Trazado_101547" data-name="Trazado 101547" d="M315.418,3669.656a6.138,6.138,0,0,0,4.15,2.85c2.17.32,2.92-2.12,2-4.38-.8-2-2.89-4.65-4.94-3.92S314.188,3667.706,315.418,3669.656Z" fill="#ffb573"/>
        <path id="Trazado_101548" data-name="Trazado 101548" d="M318.648,3943.616a8.995,8.995,0,0,1-4.73-2.07.283.283,0,0,1,.16-.49c.16,0,4-.43,5.32.63a1.11,1.11,0,0,1,.45.83.9.9,0,0,1-.5,1A1.655,1.655,0,0,1,318.648,3943.616Zm-3.81-2.06c1.36.95,3.53,1.78,4.26,1.42.11-.06.21-.15.19-.42a.591.591,0,0,0-.25-.44c-.71-.62-2.88-.64-4.2-.56Z" fill="#344154"/>
        <path id="Trazado_101549" data-name="Trazado 101549" d="M314.108,3941.626a.306.306,0,0,1-.23-.12.29.29,0,0,1,0-.31c.08-.14,2-3.52,3.63-3.93a1.129,1.129,0,0,1,.94.13.91.91,0,0,1,.48,1c-.22,1.27-3.08,2.9-4.75,3.25Zm3.73-3.84h-.2c-.94.24-2.21,1.95-2.92,3.06,1.56-.54,3.51-1.8,3.65-2.6a.415.415,0,0,0-.23-.41A.611.611,0,0,0,317.838,3937.786Z" fill="#344154"/>
        <path id="Trazado_101550" data-name="Trazado 101550" d="M326.078,3947.126c-8.1-.63-13.56-6.19-13-12.08.31-3.25-10.07-3.54-10.07-3.54,1.64,10.07-.42,11.51-1.1,14.11s-.51,5.48,1.64,5.53c2.57.07,3.77-.42,7-.3,3.74.15,7.78.29,14.43.3C327.608,3951.156,329.678,3947.406,326.078,3947.126Z" fill="#d9a171"/>
        <path id="Trazado_101551" data-name="Trazado 101551" d="M335.768,3757.386s-.71,49.69-4.63,82.34-17.4,96.69-17.4,96.69a22.548,22.548,0,0,1-10.77-.1s-4.26-50,2.89-98.37c-5.25-50.67-8.54-80.56-8.54-80.56Z" fill="#344154"/>
        <path id="Trazado_101552" data-name="Trazado 101552" d="M337.608,3711.426c-.17,3.84,5.89,12.72-1.59,17.86,1.4,3.13,2.58,24.32-.25,28.1-4.13,3-26.48,2.45-45,0-.79-7.66,3.43-23.53-1.74-48.27a9.871,9.871,0,0,1,8.67-11.84c1.56-.15,3.21-.29,4.9-.37a126.39,126.39,0,0,1,17.73,0c1.91.18,3.89.42,5.78.69A13.381,13.381,0,0,1,337.608,3711.426Z" fill="#d9a171"/>
        <g id="Grupo_55402" data-name="Grupo 55402" opacity="0.3">
          <path id="Trazado_101553" data-name="Trazado 101553" d="M289.488,3707.776l-.41.23h0a.26.26,0,1,0,.24.45l.46-.25c2,.73,4.13,2.39,5.36,2.56-2-1.75-3.41-3-5-2.78.47-.28.93-.56,1.39-.86,1.82.68,3.8,2.2,4.93,2.35-1.84-1.62-3.16-2.78-4.61-2.56l1-.69.56-.41c1.65.71,3.39,2.22,4.43,2.43-1.66-1.64-2.83-2.8-4.23-2.57.44-.33.87-.66,1.29-1,1.51.66,3.11,2,4.06,2.23-1.52-1.51-2.59-2.57-3.88-2.37l1.08-.9.26-.22c1.33.7,2.65,2.08,3.52,2.33-1.26-1.51-2.14-2.56-3.46-2.39.34-.29.68-.59,1-.9,1.23.65,2.44,1.92,3.24,2.15-1.16-1.39-2-2.35-3.18-2.2l1.06-1c1.07.66,2.09,1.86,2.8,2.11-1-1.32-1.64-2.23-2.73-2.18.19-.19.38-.37.56-.56l.32-.33c1,.61,1.93,1.72,2.58,1.95-.88-1.21-1.51-2.06-2.51-2,.29-.3.58-.61.86-.92.9.49,1.75,1.42,2.35,1.6-.79-1-1.35-1.74-2.31-1.64l.16-.17.6-.7a24.805,24.805,0,0,0,2.14,1.45c-.72-.93-1.23-1.58-2.09-1.51.23-.28.46-.58.66-.88a.08.08,0,0,0,.007-.113l-.007-.007a.09.09,0,0,0-.11,0h0q-.3.42-.63.81a1.891,1.891,0,0,0-.37-1.32h-.34a13,13,0,0,1,.55,1.48c-.18.21-.37.41-.55.61l-.13.14c.19-.73-.19-1.36-.77-2.16h-.19c.16.62.63,1.47.82,2.29l-.8.81c.26-.92-.38-1.73-1.27-2.88,0,.69.84,1.88,1.16,3l-.28.28-.55.52c.25-1-.43-1.87-1.4-3.1,0,.74.91,2,1.26,3.23l-1,.87c.21-1-.46-2-1.37-3.3,0,.79.81,2.19,1.14,3.5l-.79.67c.23-1.08-.49-2.14-1.48-3.59,0,.86.88,2.38,1.23,3.8l-.21.17c-.36.3-.73.59-1.1.88.29-1.11-.4-2.36-1.35-4.06-.07.92.75,2.72,1,4.31-.42.32-.84.62-1.27.93.48-1.26-.3-2.67-1.38-4.63-.09,1,.85,3.06,1.12,4.81l-.38.26-1.19.77c.55-1.27-.12-2.77-1.1-4.81-.05.07-.1.14-.14.21.07,1.2.77,3.12.92,4.79-.44.28-.9.54-1.35.79.52-1.06.22-2.26-.42-3.76a9.6,9.6,0,0,0-.35,1.3A17.612,17.612,0,0,1,289.488,3707.776Z" fill="#344154"/>
          <path id="Trazado_101554" data-name="Trazado 101554" d="M315.038,3700.846c-1.51-1-3-2.73-4-3.1,1.37,1.88,2.35,3.21,3.77,3.21-.49.25-1,.51-1.44.78-1.38-.89-2.74-2.51-3.65-2.85,1.26,1.73,2.16,2.95,3.46,3-.41.23-.81.47-1.21.71l-.29.18c-1.21-.9-2.29-2.47-3.11-2.86,1,1.7,1.71,2.87,3,2.91-.39.23-.77.48-1.15.73-1.1-.83-2.1-2.28-2.85-2.63.92,1.55,1.56,2.63,2.79,2.67l-1.2.81c-.95-.82-1.77-2.17-2.43-2.53.74,1.45,1.26,2.47,2.35,2.59l-.65.46-.36.27c-.88-.75-1.64-2-2.25-2.33.69,1.34,1.17,2.27,2.17,2.39-.34.25-.67.5-1,.76-.82-.62-1.51-1.67-2.08-1.94.63,1.14,1.06,1.93,2,2l-.18.14-.71.6c-.74-.58-1.37-1.53-1.89-1.78.57,1,1,1.76,1.83,1.83-.27.24-.54.5-.8.77a.069.069,0,0,0-.012.1l.012.012a.081.081,0,0,0,.11,0h0a8.14,8.14,0,0,1,.75-.7c-.25.68.11,1.37.59,2.31a19.133,19.133,0,0,0-.41-2.46c.21-.18.42-.34.64-.51l.15-.12c-.34.77.05,1.54.6,2.62a24.237,24.237,0,0,0-.45-2.73c.31-.24.61-.46.93-.68-.4.86.1,1.77.8,3,.07-.68-.54-2-.67-3.14l.32-.23.62-.42c-.4.93.13,1.91.89,3.28.07-.74-.58-2.15-.73-3.39l1.09-.7c-.37.95.13,2,.82,3.47.12-.78-.45-2.29-.57-3.63l.89-.54c-.4,1,.14,2.19.9,3.78.13-.85-.5-2.5-.62-3.95l.23-.13,1.23-.7c-.46,1.05,0,2.39.68,4.23.22-.9-.3-2.81-.32-4.42.47-.25.93-.49,1.41-.72-.68,1.17-.14,2.68.63,4.79.24-1-.36-3.15-.35-4.92l.41-.2,1.31-.58c-.78,1.22-.29,2.9.41,5.23.32-1.08-.2-3.44-.07-5.37.48-.2,1-.38,1.46-.56-.94,1.33-.4,3.18.37,5.76.36-1.17-.22-3.77-.07-5.86l.45-.16h0a.25.25,0,0,0,.166-.312l-.006-.018a.271.271,0,0,0-.33-.16l-.49.18a31.827,31.827,0,0,1-3.32-2.43h-.8c1.3,1.55,2.37,2.59,3.7,2.61-.51.19-1,.41-1.51.63-1.69-1-3.4-2.77-4.49-3.11,1.56,1.9,2.68,3.25,4.15,3.26l-1.12.52Z" fill="#344154"/>
          <path id="Trazado_101555" data-name="Trazado 101555" d="M302.548,3719.546c-1.1-1.2-1.87-2-2.95-1.87l.5-.61.28-.36a26.379,26.379,0,0,0,2.78,1.64c-1-1.1-1.73-1.88-2.73-1.72.26-.33.51-.66.76-1,.95.38,1.9,1.21,2.52,1.32-.91-.93-1.54-1.58-2.49-1.37a1.365,1.365,0,0,0,.14-.19c.18-.25.35-.5.52-.76a24.433,24.433,0,0,0,2.3,1.21c-.83-.85-1.4-1.44-2.25-1.27a7.879,7.879,0,0,0,.56-1,.083.083,0,0,0-.15-.07h0a8.036,8.036,0,0,1-.54.87c.06-.72-.47-1.29-1.19-2.07a19.022,19.022,0,0,0,1.06,2.27l-.48.66-.12.15c.13-.83-.46-1.47-1.27-2.36a22.421,22.421,0,0,0,1.16,2.52l-.71.9c.15-.95-.57-1.68-1.59-2.73a23.1,23.1,0,0,0,1.49,2.85l-.25.31-.49.57c.14-1-.63-1.8-1.73-2.92.13.73,1.13,1.92,1.61,3.07l-.86,1c.1-1-.67-1.91-1.73-3.13.1.79,1.06,2.09,1.53,3.35l-.71.76c.11-1.1-.73-2.07-1.88-3.4.1.85,1.14,2.27,1.65,3.63l-.19.2c-.32.34-.66.67-1,1,.17-1.13-.65-2.29-1.78-3.88,0,.92,1,2.62,1.49,4.17-.38.36-.77.72-1.16,1.06.34-1.3-.59-2.61-1.89-4.44,0,1,1.19,2.94,1.65,4.65l-.35.3c-.36.31-.73.61-1.1.91.43-1.39-.5-2.87-1.79-4.93,0,1.12,1.11,3.26,1.5,5.15q-.611.48-1.26.93a3.561,3.561,0,0,0-.38-2.81c.12,1.19.22,2.35.3,3.49l.14-.1c2.05.51,4.37,1.91,5.61,1.94-2.16-1.52-3.72-2.6-5.25-2.2.44-.33.87-.67,1.29-1,1.89.47,4,1.76,5.16,1.79-2-1.41-3.45-2.42-4.87-2,.32-.27.63-.53.94-.81l.51-.47c1.72.53,3.62,1.84,4.67,1.92-1.82-1.44-3.12-2.46-4.49-2.08.4-.37.79-.75,1.18-1.14,1.57.49,3.32,1.69,4.28,1.77-1.68-1.33-2.87-2.27-4.13-1.92.33-.34.66-.67,1-1l.23-.25c1.4.55,2.87,1.77,3.76,1.93-1.42-1.36-2.41-2.31-3.7-2,.3-.33.61-.67.9-1,1.29.51,2.64,1.63,3.46,1.77-1.3-1.25-2.21-2.11-3.4-1.83.32-.36.63-.73.93-1.1C300.668,3718.3,301.818,3719.376,302.548,3719.546Z" fill="#344154"/>
          <path id="Trazado_101556" data-name="Trazado 101556" d="M319.958,3718.816c-.72.32-1.69,1.61-2.76,2.43l-.93-.46c1.09-.21,1.77-1.29,2.71-2.78-.79.34-1.84,1.75-3,2.64l-.24-.13c-.42-.21-.83-.44-1.24-.66,1.13-.17,2-1.3,3.19-2.85-.88.3-2.2,1.77-3.55,2.65-.46-.26-.91-.52-1.36-.8,1.34-.05,2.33-1.33,3.7-3.11-1,.34-2.47,2-4,2.94l-.39-.24-1.18-.79c1.44,0,2.59-1.31,4.18-3.15-1.08.3-2.79,2-4.48,2.94q-.651-.45-1.26-.93c1.62.08,2.89-1.37,4.66-3.41-1.19.32-3.07,2.21-4.92,3.21l-.37-.3h0a.269.269,0,0,0-.37,0,.259.259,0,0,0,0,.36l.41.32c.12,2.11-.55,4.74-.22,5.94.82-2.52,1.41-4.33.58-5.67.44.32.89.63,1.34.93.1,2-.51,4.36-.2,5.46.76-2.33,1.3-4,.51-5.25l1,.66.6.36c0,1.79-.7,4-.48,5,.85-2.16,1.45-3.7.69-4.89.47.27,1,.53,1.43.79,0,1.65-.64,3.66-.44,4.61.78-2,1.33-3.41.63-4.51l1.26.64.3.15c-.11,1.49-.85,3.26-.74,4.15.89-1.75,1.5-3,.82-4.12l1.23.57c-.11,1.38-.79,3-.68,3.83.81-1.62,1.37-2.74.75-3.79.44.2.88.39,1.33.57-.18,1.24-.88,2.66-.83,3.41.83-1.41,1.4-2.39.92-3.37l.74.3.42.16c-.16,1.15-.8,2.45-.76,3.14.76-1.29,1.29-2.2.85-3.11.39.15.78.3,1.18.43-.08,1-.6,2.17-.52,2.8.62-1.14,1-1.94.58-2.78l.22.08c.29.09.58.19.88.27a24.777,24.777,0,0,0-.48,2.55c.56-1,1-1.76.55-2.53a8.154,8.154,0,0,0,1.08.26.081.081,0,0,0,.09-.06.09.09,0,0,0-.06-.1h0c-.34-.07-.67-.16-1-.26.7-.16,1.09-.82,1.62-1.74-.5.22-1.13,1.11-1.85,1.67l-.77-.26-.18-.07c.83-.12,1.27-.87,1.88-1.91-.57.25-1.26,1.24-2.07,1.84-.35-.13-.71-.26-1.06-.41.94-.13,1.44-1,2.13-2.31-.61.31-1.39,1.52-2.28,2.25l-.37-.15-.69-.3c1-.15,1.54-1.13,2.29-2.5-.66.33-1.5,1.63-2.46,2.43-.4-.17-.79-.35-1.18-.54C318.468,3721.176,319.1,3720.186,319.958,3718.816Z" fill="#344154"/>
          <path id="Trazado_101557" data-name="Trazado 101557" d="M314.188,3732.146a25.059,25.059,0,0,0,2.36,1.06c-.87-.79-1.49-1.34-2.32-1.13a9.3,9.3,0,0,0,.5-1,.083.083,0,0,0-.15-.07h0c-.15.31-.31.61-.48.91,0-.72-.56-1.26-1.32-2a18.837,18.837,0,0,0,1.19,2.19l-.43.69-.11.16c.07-.84-.55-1.44-1.42-2.27a24.075,24.075,0,0,0,1.31,2.43l-.64.95c.09-.95-.68-1.65-1.76-2.62.16.67,1.16,1.71,1.66,2.75l-.23.32c-.14.2-.3.4-.45.6.08-1-.74-1.76-1.91-2.8.18.72,1.25,1.84,1.8,3-.26.35-.53.69-.8,1,0-1-.78-1.86-1.92-3,.15.77,1.19,2,1.73,3.24q-.321.41-.66.81c0-1.11-.85-2-2.08-3.28.15.84,1.28,2.19,1.88,3.52l-.18.21c-.31.36-.62.71-.94,1.05.1-1.13-.8-2.25-2-3.76.08.92,1.21,2.55,1.75,4.07-.36.38-.72.76-1.09,1.13.25-1.31-.76-2.57-2.17-4.31.1,1,1.38,2.86,1.94,4.54l-.32.32-1.05,1c.34-1.41-.68-2.83-2.09-4.8,0,1.12,1.31,3.19,1.82,5-.39.35-.79.69-1.2,1,.45-1.56-.66-3.13-2.24-5.32,0,1.23,1.44,3.49,2,5.52l-.38.3h0a.26.26,0,0,0,.32.41h0l.4-.33c2.08.37,4.49,1.63,5.73,1.58-2.26-1.38-3.88-2.37-5.38-1.87.41-.35.82-.72,1.22-1.09,1.91.35,4.12,1.5,5.26,1.46-2.09-1.28-3.6-2.19-5-1.71.3-.29.6-.57.89-.87l.49-.5c1.74.42,3.72,1.6,4.77,1.62-1.91-1.32-3.26-2.26-4.61-1.79.38-.4.74-.8,1.1-1.21,1.61.38,3.42,1.47,4.39,1.49-1.76-1.22-3-2.08-4.24-1.66.31-.35.61-.71.91-1.07l.21-.27c1.44.46,3,1.59,3.88,1.69-1.51-1.27-2.55-2.15-3.82-1.75l.84-1.06c1.32.42,2.73,1.45,3.56,1.54-1.38-1.16-2.34-2-3.51-1.61.29-.38.58-.77.86-1.16,1.17.46,2.39,1.47,3.13,1.59-1.18-1.12-2-1.91-3.07-1.67.16-.21.31-.43.46-.64s.17-.26.26-.38c1.07.42,2.19,1.35,2.88,1.46-1.09-1-1.85-1.76-2.83-1.54q.36-.521.69-1.05c1,.32,2,1.09,2.6,1.16-1-.87-1.64-1.48-2.57-1.21l.13-.2Z" fill="#344154"/>
          <path id="Trazado_101558" data-name="Trazado 101558" d="M320.248,3743.306q.32-.409.66-.78c-.15.7.28,1.34.88,2.22a22.033,22.033,0,0,0-.71-2.4l.57-.58.13-.14c-.24.81.24,1.53.92,2.52a24.443,24.443,0,0,0-.78-2.65l.83-.79c-.28.91.32,1.75,1.18,2.93,0-.69-.78-1.92-1.06-3l.3-.26.56-.5c-.29,1,.36,1.88,1.28,3.15,0-.75-.83-2.07-1.14-3.27.33-.29.66-.56,1-.84-.25,1,.38,2,1.24,3.35,0-.79-.73-2.23-1-3.54l.82-.64c-.28,1.07.41,2.15,1.35,3.64,0-.86-.8-2.42-1.1-3.84l.22-.17,1.13-.83c-.33,1.09.31,2.36,1.2,4.1.1-.92-.65-2.75-.86-4.34.43-.3.86-.6,1.3-.89-.53,1.24.2,2.68,1.22,4.68.12-1-.75-3.09-1-4.85l.38-.24c.41-.25.82-.5,1.23-.73-.63,1.3.07,2.9,1,5.13.19-1.11-.61-3.39-.72-5.31.45-.26.91-.51,1.38-.74-.77,1.43,0,3.2,1.08,5.67.21-1.21-.68-3.72-.79-5.81l.42-.21h0a.25.25,0,0,0,.124-.331l0-.009a.26.26,0,0,0-.347-.121h0l-.46.24c-1.95-.8-4.05-2.54-5.27-2.75,1.92,1.82,3.3,3.13,4.87,3-.48.25-.95.53-1.42.8-1.8-.74-3.72-2.33-4.84-2.52,1.78,1.69,3.06,2.89,4.52,2.72l-1.05.66-.58.39c-1.62-.78-3.31-2.35-4.33-2.59,1.59,1.7,2.72,2.9,4.13,2.72-.45.31-.89.63-1.33,1-1.49-.71-3-2.15-4-2.37,1.47,1.56,2.51,2.66,3.8,2.51-.37.28-.75.56-1.11.85l-.27.22c-1.3-.75-2.57-2.18-3.43-2.46,1.2,1.56,2,2.63,3.37,2.51l-1.05.86c-1.2-.68-2.37-2-3.16-2.26,1.11,1.43,1.88,2.42,3.1,2.32a12.461,12.461,0,0,0-1.09,1c-1-.7-2-1.94-2.72-2.21.91,1.35,1.56,2.29,2.65,2.28l-.59.53-.33.32c-1-.65-1.86-1.79-2.51-2,.85,1.24,1.44,2.11,2.45,2.1-.31.29-.61.58-.9.88-.88-.51-1.7-1.47-2.3-1.67.76,1,1.29,1.78,2.26,1.72l-.16.16c-.21.22-.43.45-.63.68-.81-.48-1.55-1.35-2.09-1.53.69.95,1.17,1.62,2,1.59a9.442,9.442,0,0,0-.7.85.08.08,0,0,0-.007.113l.007.007a.07.07,0,0,0,.1.012l.012-.012Z" fill="#344154"/>
          <path id="Trazado_101559" data-name="Trazado 101559" d="M308.528,3757.556q.6-.559,1.17-1.14c1.58.49,3.32,1.69,4.29,1.77-1.68-1.33-2.87-2.27-4.13-1.93.33-.33.66-.67,1-1l.23-.25c1.4.55,2.86,1.77,3.76,1.93-1.42-1.37-2.41-2.31-3.71-2,.31-.33.61-.67.91-1,1.29.51,2.64,1.63,3.46,1.77-1.31-1.25-2.22-2.12-3.4-1.83l.93-1.1c1.14.53,2.29,1.61,3,1.78-1.1-1.19-1.88-2-3-1.86l.5-.61.28-.36c1.05.49,2.11,1.48,2.79,1.64-1-1.11-1.73-1.88-2.73-1.72.26-.33.51-.66.75-1,1,.38,1.9,1.21,2.52,1.32-.9-.93-1.53-1.58-2.48-1.37l.14-.19c.17-.25.35-.5.52-.76a25.138,25.138,0,0,0,2.29,1.2c-.82-.84-1.4-1.43-2.25-1.27a9.945,9.945,0,0,0,.56-.95.081.081,0,0,0-.14-.08h0q-.25.45-.54.87c0-.72-.47-1.29-1.19-2.07a21.2,21.2,0,0,0,1,2.27l-.47.66-.12.15c.13-.83-.46-1.47-1.28-2.36a25.422,25.422,0,0,0,1.16,2.51c-.23.31-.46.61-.7.9.15-.94-.57-1.68-1.59-2.72.12.68,1.05,1.78,1.49,2.85-.09.1-.17.21-.25.31l-.49.57c.14-1-.63-1.8-1.73-2.92.13.73,1.13,1.91,1.61,3.07l-.86,1c.1-1-.67-1.91-1.73-3.13.09.78,1,2.09,1.52,3.35l-.71.76c.11-1.11-.72-2.07-1.87-3.4.1.85,1.14,2.27,1.65,3.63l-.19.2-1,1c.17-1.13-.66-2.3-1.79-3.88,0,.92,1.05,2.62,1.49,4.17l-1.15,1.06c.33-1.3-.59-2.61-1.9-4.44,0,1,1.2,2.94,1.66,4.65l-.35.3c-.36.31-.73.61-1.1.9.43-1.38-.5-2.86-1.79-4.92,0,1.11,1.08,3.21,1.48,5.08h.77c.31-.26.62-.52.92-.79s.35-.31.52-.47a32.674,32.674,0,0,1,3.46,1.54h.76C310.978,3758.056,309.778,3757.206,308.528,3757.556Z" fill="#344154"/>
          <path id="Trazado_101560" data-name="Trazado 101560" d="M303,3754.476c0,1,.75,2.64,1.28,4.31l.76.06C304.948,3757.606,304.1,3756.236,303,3754.476Z" fill="#344154"/>
          <path id="Trazado_101561" data-name="Trazado 101561" d="M306.968,3758.986l1.51.09A2.709,2.709,0,0,0,306.968,3758.986Z" fill="#344154"/>
          <path id="Trazado_101562" data-name="Trazado 101562" d="M336.068,3756.886a1.623,1.623,0,0,0,.08-.18l-.36-.13-.18-.06a1.545,1.545,0,0,0,.76-.36c.09-.26.18-.54.26-.85a11.047,11.047,0,0,1-1.21,1.14l-1.09-.39c.94-.14,1.44-1,2.13-2.32-.61.31-1.39,1.52-2.28,2.26l-.37-.15-.69-.3c1-.16,1.54-1.13,2.29-2.51-.66.34-1.5,1.64-2.46,2.44l-1.18-.54c1-.21,1.62-1.2,2.48-2.57-.72.32-1.69,1.62-2.76,2.44l-.93-.46c1.09-.22,1.77-1.3,2.71-2.79-.79.35-1.84,1.76-3,2.64l-.24-.12-1.24-.67c1.13-.17,2-1.3,3.19-2.84-.88.3-2.2,1.77-3.55,2.64-.46-.25-.91-.52-1.36-.79,1.34-.06,2.33-1.33,3.7-3.11-1,.33-2.47,2-4,2.94l-.39-.24c-.4-.26-.79-.52-1.18-.8,1.44,0,2.59-1.31,4.18-3.14-1.08.3-2.79,2-4.48,2.94l-1.27-.94c1.63.08,2.9-1.37,4.67-3.41-1.19.33-3.07,2.21-4.92,3.21l-.37-.29h0a.26.26,0,0,0-.32.41l.41.31c.12,2.11-.55,4.75-.22,5.94.82-2.51,1.41-4.32.58-5.67.44.33.89.64,1.34.94.1,1.94-.51,4.36-.2,5.46.76-2.34,1.3-4,.51-5.25.35.22.69.45,1,.66l.6.36c0,1.79-.7,4-.48,5,.85-2.17,1.45-3.7.69-4.9.47.28,1,.54,1.43.79,0,1.65-.64,3.67-.44,4.61.78-2,1.33-3.4.63-4.5l1.26.63.3.15c-.11,1.5-.85,3.26-.74,4.16.89-1.76,1.5-3,.82-4.12l1.23.57c-.1,1.34-.74,2.89-.69,3.74h.05c.79-1.56,1.32-2.66.71-3.7l1.33.58c-.15,1-.63,2.12-.78,2.91l.27-.05c.64-1.12,1-2,.6-2.82l.73.29.43.17a15.684,15.684,0,0,1-.56,2.08l.46-.14a2.073,2.073,0,0,0,.19-1.91l1.18.43a6.068,6.068,0,0,1-.19,1,3.714,3.714,0,0,0,.44-.26,1.4,1.4,0,0,0-.19-.73l.22.07Z" fill="#344154"/>
          <path id="Trazado_101563" data-name="Trazado 101563" d="M297.588,3736.056h0a.27.27,0,0,0,.18-.32.26.26,0,0,0-.32-.18l-.5.15c-1.77-1.15-3.5-3.25-4.66-3.69,1.54,2.15,2.65,3.69,4.23,3.82-.52.16-1,.34-1.55.53a40.944,40.944,0,0,1-3.35-2.8v.68c1,1.3,1.87,2.17,3,2.25-.39.14-.77.29-1.15.45l-.65.27a11.637,11.637,0,0,1-1.21-1.05v.83a2.346,2.346,0,0,0,1,.32l-1,.47v.42l1.35-.58c-.75,1.12-.3,2.67.32,4.82.31-1-.16-3.17,0-4.94l.42-.17,1.34-.49c-.86,1.17-.48,2.88.07,5.24.39-1.05,0-3.44.27-5.35.5-.17,1-.33,1.5-.47-1,1.27-.6,3.14,0,5.78.43-1.15,0-3.78.31-5.86Z" fill="#344154"/>
          <path id="Trazado_101564" data-name="Trazado 101564" d="M291.408,3742.286a1.3,1.3,0,0,0,.1.36,9.056,9.056,0,0,0,0-2.62C291.478,3740.8,291.448,3741.556,291.408,3742.286Z" fill="#344154"/>
          <path id="Trazado_101565" data-name="Trazado 101565" d="M294.948,3756.916l-.37-.59c.81-1.6,2.43-3.25,2.69-4.27-1.74,1.55-3,2.65-2.82,4.06-.3-.46-.61-.9-.92-1.35.75-1.47,2.23-3,2.48-3.91-1.6,1.42-2.73,2.43-2.61,3.73l-.83-1.14-.2-.27c.77-1.28,2.23-2.52,2.54-3.37-1.59,1.16-2.69,2-2.59,3.31l-.84-1.07c.72-1.18,2.06-2.32,2.34-3.1-1.46,1.07-2.47,1.81-2.39,3l-.62-.74v.42l.36.44a2.441,2.441,0,0,0-.38-.06v.44l.58-.14.63.84a2.2,2.2,0,0,0-1.24,0v.62a9.828,9.828,0,0,1,1.46-.39l.16.21.81,1.16a3.6,3.6,0,0,0-2.44.33v.55a25.439,25.439,0,0,1,2.68-.54c.29.44.57.88.84,1.33-.95-.44-2-.11-3.45.51v.4h.22a31.427,31.427,0,0,1,3.37-.67l.24.39.43.77.56.07A5.988,5.988,0,0,1,294.948,3756.916Z" fill="#344154"/>
          <path id="Trazado_101566" data-name="Trazado 101566" d="M291.038,3747.836v.47a3.524,3.524,0,0,0,.7-.91Z" fill="#344154"/>
          <path id="Trazado_101567" data-name="Trazado 101567" d="M296.918,3758.116l.89.1a13.6,13.6,0,0,0,1.81-3.26A15.192,15.192,0,0,0,296.918,3758.116Z" fill="#344154"/>
          <path id="Trazado_101568" data-name="Trazado 101568" d="M295.908,3758.056c.83-1.69,2.3-3.43,2.51-4.49-1.74,1.74-3,3-2.84,4.45Z" fill="#344154"/>
          <path id="Trazado_101569" data-name="Trazado 101569" d="M290.908,3749.626a4.144,4.144,0,0,1-.05.79,15.369,15.369,0,0,0,1.92-2.21A8.831,8.831,0,0,0,290.908,3749.626Z" fill="#344154"/>
        </g>
        <path id="Trazado_101570" data-name="Trazado 101570" d="M360.328,3725.176l4.42-4.69,6.13,8.63s-5.17,3.66-10.12,3.52l-.57-1.27A6.936,6.936,0,0,1,360.328,3725.176Z" fill="#ffb573"/>
        <path id="Trazado_101571" data-name="Trazado 101571" d="M371.878,3720.946l1.73,3.25a3.061,3.061,0,0,1-1.25,4.13l-1.44.79-6.13-8.63,3.51-1A3.061,3.061,0,0,1,371.878,3720.946Z" fill="#ffb573"/>
        <path id="Trazado_101572" data-name="Trazado 101572" d="M337.008,3708.346l.38,1.91.42,2c.3,1.35.59,2.71.93,4,.65,2.68,1.43,5.31,2.26,7.85a53.579,53.579,0,0,0,3,7.11,19.4,19.4,0,0,0,3.66,5.1l-2.12-1c-.62-.08-.74.11-.41.1a4.466,4.466,0,0,0,1.51-.44,25.11,25.11,0,0,0,4.26-2.49c1.49-1,3-2.18,4.49-3.39s3-2.5,4.46-3.69l.16-.12a3.52,3.52,0,0,1,5.36,4.33,53.788,53.788,0,0,1-3.35,5.55,52.541,52.541,0,0,1-4.08,5.16,30.33,30.33,0,0,1-5.39,4.78,17.26,17.26,0,0,1-4,2,12.157,12.157,0,0,1-2.82.62,11.109,11.109,0,0,1-3.56-.26,5.354,5.354,0,0,1-1.89-.87l-.24-.18a29.091,29.091,0,0,1-7.61-8.49,49.459,49.459,0,0,1-2.46-4.5q-1.09-2.269-2-4.54a82.078,82.078,0,0,1-2.94-9.14c-.39-1.54-.76-3.07-1.07-4.62-.15-.78-.31-1.55-.44-2.34s-.25-1.53-.38-2.47a7,7,0,0,1,13.8-2.3Z" fill="#ffb573"/>
        <path id="Trazado_101573" data-name="Trazado 101573" d="M327.418,3697.846c5.82.6,10.47,4.46,13.72,16.75-2.5,3.46-18.25,11.05-18.25,11.05S314.118,3696.476,327.418,3697.846Z" fill="#d9a171"/>
      </g>
    </g>
  </g>
</svg>
