<svg xmlns="http://www.w3.org/2000/svg" width="401.235" height="448.034" viewBox="0 0 401.235 448.034">
  <g id="Grupo_66538" data-name="Grupo 66538" transform="translate(-804.309 -6814)">
    <g id="Grupo_54115" data-name="Grupo 54115" transform="translate(-51.231 5830.375)">
      <circle id="Elipse_3979" data-name="Elipse 3979" cx="184.164" cy="184.164" r="184.164" transform="translate(870.777 1060.83)" fill="#cee5f7" stroke="#aed3f2" stroke-miterlimit="10" stroke-width="5"/>
      <g id="freepik--hand-1--inject-2">
        <path id="Trazado_99991" data-name="Trazado 99991" d="M1001.041,1207.871s-22.94-25.26-24.52-26.81-2.77-28.49-7.13-40.35-6.47-81.5-6.47-81.5-4.15-5.14-15.85-2.37-23.17-2.38-36.22,5.14,12.26,115.08,12.26,115.08l25.69,81.87Z" fill="rgba(0,0,0,0.7)" opacity="0.2" style="isolation: isolate"/>
        <path id="Trazado_99992" data-name="Trazado 99992" d="M1016.8,1208.061s-10.28,65.67-21,74.37c-6.19,5-15.84,7.3-24.4,7-6.2-.22-11.84-1.78-15.16-4.61-7.91-6.73-19-10.29-24.52-14.64s-5.54-19.78-9.1-32.84-8.71-13.45-9.89-26.5-5.94-53-14.54-64.09-8.8-19.78-12.36-31.06-29.6-52.09-29.6-52.09l63.48-13s6.24,25.83,12.92,46.9c3.17,10,6.44,18.94,9.18,23.52a196.734,196.734,0,0,1,13.63,27.69c7.18,7.52,11.11,24.18,12.3,38.77h0l17,9.48C997.811,1200.531,1016.8,1208.061,1016.8,1208.061Z" fill="#ffbf9d"/>
        <path id="Trazado_99993" data-name="Trazado 99993" d="M1016.8,1208.061s-10.28,65.67-21,74.37c-6.19,5-15.84,7.3-24.4,7-20.3-5-25.76-16.32-28.51-19.06-3.66-3.65-8.47-25.89-5.83-38.83s.74-17.73-1.44-24.05c-4.83-14,9.9-21.54,11.42-26.84s1-34.94-5.63-44.58c-3.52-5.13-12.59-31.57-8.77-38.55,3.17,10,6.44,18.94,9.18,23.52a196.746,196.746,0,0,1,13.63,27.69c7.18,7.52,11.11,24.18,12.3,38.77h0l17,9.48C997.811,1200.531,1016.8,1208.061,1016.8,1208.061Z" fill="#d9a171" opacity="0.4" style="isolation: isolate"/>
        <path id="Trazado_99994" data-name="Trazado 99994" d="M939.281,1203.441s-3.58,4.21-6.74,4.21" fill="none" stroke="#263238" stroke-linecap="round" stroke-linejoin="round" stroke-width="1"/>
        <path id="Trazado_99995" data-name="Trazado 99995" d="M947.071,1217.671s-3.85,8.18-10,10" fill="none" stroke="#263238" stroke-linecap="round" stroke-linejoin="round" stroke-width="1"/>
        <path id="Trazado_99996" data-name="Trazado 99996" d="M940.231,1265.611s8.71-3.76,10.09-10.09" fill="none" stroke="#263238" stroke-linecap="round" stroke-linejoin="round" stroke-width="1"/>
        <path id="Trazado_99997" data-name="Trazado 99997" d="M984.761,1196.971s-2.18,2.77-2.18,5" fill="none" stroke="#263238" stroke-linecap="round" stroke-linejoin="round" stroke-width="1"/>
        <path id="Trazado_99998" data-name="Trazado 99998" d="M919.751,1050.6s13.58,56.17,22.1,70.46a196.752,196.752,0,0,1,13.63,27.69c7.18,7.52,11.11,24.19,12.3,38.78h0l17,9.48c13.05,3.56,32,11.08,32,11.08s-10.28,65.67-21,74.37-31.55,9.06-39.55,2.34-19-10.29-24.52-14.64-5.54-19.78-9.1-32.84-8.71-13.45-9.89-26.5-5.94-53-14.54-64.09-8.8-19.78-12.36-31.06-29.59-52.07-29.59-52.07" fill="none" stroke="#263238" stroke-linecap="round" stroke-linejoin="round" stroke-width="1"/>
        <g id="Grupo_54077" data-name="Grupo 54077">
          <path id="Trazado_99999" data-name="Trazado 99999" d="M1097.183,1206.031a2.8,2.8,0,0,1,.79,3.875L967.841,1406.615a2.8,2.8,0,0,1-3.877.789l-93.806-62.057a2.8,2.8,0,0,1-.788-3.875L999.5,1144.763a2.8,2.8,0,0,1,3.875-.79Z" fill="#fff"/>
          <rect id="Rectángulo_5140" data-name="Rectángulo 5140" width="73.413" height="1.398" transform="translate(1034.613 1276.973) rotate(-56.513)" fill="#5e6178"/>
          <rect id="Rectángulo_5141" data-name="Rectángulo 5141" width="95.936" height="4.665" transform="matrix(0.552, -0.834, 0.834, 0.552, 955.218, 1243.599)" fill="#5e6178"/>
          <rect id="Rectángulo_5142" data-name="Rectángulo 5142" width="90.892" height="2.098" transform="translate(917.038 1365.178) rotate(-56.513)" fill="#5e6178"/>
          <path id="Trazado_100000" data-name="Trazado 100000" d="M980.479,1273.082l-6.681,10.1-10.1-6.681,6.681-10.1Zm-6.93,8.876,5.707-8.627-8.627-5.708-5.708,8.628Z" fill="#5e6178"/>
          <path id="Trazado_100001" data-name="Trazado 100001" d="M988.96,1260.262l-6.681,10.1-10.1-6.681,6.681-10.1Zm-6.93,8.877,5.707-8.628-8.628-5.707-5.707,8.627Z" fill="#5e6178"/>
          <path id="Trazado_100002" data-name="Trazado 100002" d="M997.441,1247.443l-6.681,10.1-10.1-6.681,6.68-10.1Zm-6.931,8.876,5.708-8.628-8.628-5.707-5.707,8.628Z" fill="#5e6178"/>
          <path id="Trazado_100003" data-name="Trazado 100003" d="M1005.921,1234.623l-6.68,10.1-10.1-6.681,6.68-10.1Zm-6.93,8.876,5.708-8.627-8.628-5.708-5.707,8.628Z" fill="#5e6178"/>
          <path id="Trazado_100004" data-name="Trazado 100004" d="M1014.4,1221.8l-6.681,10.1-10.1-6.681,6.681-10.1Zm-6.93,8.876,5.708-8.628-8.628-5.707-5.708,8.628Z" fill="#5e6178"/>
          <path id="Trazado_100005" data-name="Trazado 100005" d="M1022.883,1208.984l-6.681,10.1-10.1-6.681,6.681-10.1Zm-6.93,8.877,5.708-8.629-8.628-5.708-5.708,8.629Z" fill="#5e6178"/>
          <path id="Trazado_100006" data-name="Trazado 100006" d="M1031.364,1196.164l-6.681,10.1-10.1-6.681,6.681-10.1Zm-6.93,8.877,5.707-8.628-8.628-5.707-5.707,8.627Z" fill="#5e6178"/>
          <path id="Trazado_100007" data-name="Trazado 100007" d="M1039.844,1183.345l-6.68,10.1-10.1-6.681,6.68-10.1Zm-6.93,8.876,5.709-8.628-8.628-5.708-5.708,8.629Z" fill="#5e6178"/>
          <rect id="Rectángulo_5143" data-name="Rectángulo 5143" width="215.328" height="2.097" transform="translate(941.439 1381.321) rotate(-56.513)" fill="#5e6178"/>
          <rect id="Rectángulo_5144" data-name="Rectángulo 5144" width="102.984" height="2.097" transform="matrix(0.552, -0.834, 0.834, 0.552, 957.941, 1392.237)" fill="#5e6178"/>
          <path id="Trazado_100008" data-name="Trazado 100008" d="M1093.23,1212,967.908,1401.433a3.8,3.8,0,0,1-5.265,1.072l-87.459-57.858a3.8,3.8,0,0,1-1.072-5.265l125.322-189.437a3.8,3.8,0,0,1,5.264-1.073l87.46,57.858A3.8,3.8,0,0,1,1093.23,1212Zm-217.2,128.658a1.5,1.5,0,0,0,.421,2.071l87.46,57.858a1.5,1.5,0,0,0,2.071-.421l125.323-189.438a1.5,1.5,0,0,0-.423-2.072l-87.459-57.858a1.5,1.5,0,0,0-2.071.422Z" fill="#5e6178"/>
          <g id="Grupo_54075" data-name="Grupo 54075">
            <g id="Grupo_54074" data-name="Grupo 54074">
              <path id="Trazado_100009" data-name="Trazado 100009" d="M898.434,1348.573c-.081.123-.023.195.1.277l.336.222c.123.081.2.095.277-.028l.725-1.1.725-1.095c.081-.123.047-.2-.076-.277l-.336-.222c-.123-.082-.22-.1-.3.027l-.014.021-9.92-6.558.014-.021c.081-.123.1-.162-.026-.243l-.336-.222c-.123-.082-.27-.13-.351-.007l-.725,1.1-.725,1.1c-.082.123.027.229.15.31l.336.222c.123.082.145.063.227-.06l.021-.032,9.92,6.558Z" fill="#5e6178"/>
              <path id="Trazado_100010" data-name="Trazado 100010" d="M902.967,1341.93a.246.246,0,0,0,.048.356l.335.222c.124.081.249.017.33-.106l.725-1.1.725-1.1c.081-.123.054-.206-.069-.287l-.336-.222c-.123-.082-.227-.086-.308.037l-.007.011-9.92-6.558.007-.011c.081-.123.1-.172-.019-.253l-.336-.222c-.123-.082-.277-.12-.359,0l-.724,1.095-.725,1.1a.3.3,0,0,0,.1.389l.336.223c.123.081.2-.017.279-.14l.028-.042,9.92,6.558Z" fill="#5e6178"/>
              <path id="Trazado_100011" data-name="Trazado 100011" d="M907.484,1334.957a.234.234,0,0,0,.055.345l.336.222c.123.082.241.028.322-.1l.725-1.1.725-1.1a.186.186,0,0,0-.062-.3l-.336-.223a.2.2,0,0,0-.315.048l-.059.09-9.92-6.558.059-.09c.081-.123.111-.182-.012-.264l-.336-.222c-.123-.081-.284-.109-.365.015l-.725,1.1-.725,1.095a.287.287,0,0,0,.1.379l.336.222c.123.082.191-.006.272-.129l-.024.037,9.92,6.558Z" fill="#5e6178"/>
              <path id="Trazado_100012" data-name="Trazado 100012" d="M898.64,1323.75l-12.3,5.584-.006,0-.358,13.557,6.33-9.569Z" fill="#5e6178"/>
              <rect id="Rectángulo_5145" data-name="Rectángulo 5145" width="21.388" height="0.884" transform="translate(898.614 1350.38) rotate(-56.513)" fill="#5e6178"/>
              <rect id="Rectángulo_5146" data-name="Rectángulo 5146" width="22.449" height="0.884" transform="matrix(0.552, -0.834, 0.834, 0.552, 899.058, 1351.31)" fill="#5e6178"/>
              <rect id="Rectángulo_5147" data-name="Rectángulo 5147" width="24.216" height="1.237" transform="matrix(0.552, -0.834, 0.834, 0.552, 899.456, 1352.633)" fill="#5e6178"/>
            </g>
          </g>
          <rect id="Rectángulo_5148" data-name="Rectángulo 5148" width="215.285" height="2.098" transform="translate(928.569 1372.754) rotate(-56.513)" fill="#5e6178"/>
          <g id="Grupo_54076" data-name="Grupo 54076">
            <path id="Trazado_100013" data-name="Trazado 100013" d="M916.756,1321.477l-11.678-7.68,2.69-4.091a6.433,6.433,0,0,1,2.934-2.689,3.332,3.332,0,0,1,3.109.471,3.159,3.159,0,0,1,1.222,1.435,3.048,3.048,0,0,1,.151,1.857,2.953,2.953,0,0,1,1.838-.819,3.209,3.209,0,0,1,2.008.579,3.689,3.689,0,0,1,1.844,2.752,5.8,5.8,0,0,1-1.132,3.645Zm-5.2-6.869,1.171-1.78q1.165-1.842-.255-2.776a1.6,1.6,0,0,0-1.446-.29,2.9,2.9,0,0,0-1.306,1.226l-1.108,1.685Zm1.7,1.118,3.153,2.073,1.355-2.061a2.379,2.379,0,0,0,.468-1.594,1.662,1.662,0,0,0-.8-1.213,1.755,1.755,0,0,0-2.72.59Z" fill="#d9a171"/>
            <path id="Trazado_100014" data-name="Trazado 100014" d="M925.579,1302.818l-2.774,4.219,1.879,2.384L923,1311.98l-8.82-12.027,1.466-2.23,14.554,3.308-1.683,2.559Zm-4.3,2.287,1.92-2.919-5.337-1.407Z" fill="#d9a171"/>
            <path id="Trazado_100015" data-name="Trazado 100015" d="M937.163,1290.443l-1.583,2.407-10.764-.369,7.684,5.053-1.582,2.406-11.679-7.679,1.583-2.407,10.785.371-7.7-5.063,1.577-2.4Z" fill="#d9a171"/>
            <path id="Trazado_100016" data-name="Trazado 100016" d="M940.683,1276.616a4.946,4.946,0,0,1,2.053,3.343,5.855,5.855,0,0,1-1.093,4.021,5.263,5.263,0,0,1-3.836,2.539,7.422,7.422,0,0,1-5-1.443l-.714-.469a8.372,8.372,0,0,1-2.577-2.545,5.319,5.319,0,0,1-.854-2.991,6.342,6.342,0,0,1,4.224-5.558,5.311,5.311,0,0,1,3.978.571l-1.582,2.406a2.922,2.922,0,0,0-2.054-.449,2.791,2.791,0,0,0-1.593,1.314,2.444,2.444,0,0,0-.322,2.367,5.78,5.78,0,0,0,2.271,2.373l.883.58a6.189,6.189,0,0,0,3.144,1.246,2.4,2.4,0,0,0,2.064-1.234,2.849,2.849,0,0,0,.585-2,2.756,2.756,0,0,0-1.162-1.666Z" fill="#d9a171"/>
            <path id="Trazado_100017" data-name="Trazado 100017" d="M946.346,1264.335a8.456,8.456,0,0,1,2.623,2.6,5.5,5.5,0,0,1,.858,3.063,6.172,6.172,0,0,1-3.407,5.2,5.552,5.552,0,0,1-3.154.454,8.2,8.2,0,0,1-3.4-1.326l-.578-.38a8.386,8.386,0,0,1-2.627-2.618,5.533,5.533,0,0,1-.858-3.08,6.161,6.161,0,0,1,3.412-5.19,5.534,5.534,0,0,1,3.168-.432,8.366,8.366,0,0,1,3.437,1.369Zm-2.133,2.09a5.894,5.894,0,0,0-3.224-1.178,2.781,2.781,0,0,0-2.475,3.738,5.811,5.811,0,0,0,2.325,2.483l.57.374a5.948,5.948,0,0,0,3.208,1.168,2.757,2.757,0,0,0,2.5-3.73,5.914,5.914,0,0,0-2.339-2.48Z" fill="#d9a171"/>
          </g>
        </g>
        <path id="Trazado_100018" data-name="Trazado 100018" d="M981.991,1262.431a9.373,9.373,0,0,1-8.54.13,12.254,12.254,0,0,1-5.31-5.46c-3.95-7.12-14.64-23.34-16.61-28s-6.33-17.84-10.68-23.37-6.73-13.85-6.73-13.85l-1.58-80.7c2.37,11.67,8.9,24.92,8.9,24.92a37.351,37.351,0,0,1,14,12.66,23.284,23.284,0,0,1,2.73,3.53c6.46,10,9.59,28,9.93,42,.4,15.83,5.54,23,13.85,36.79S987.391,1259.361,981.991,1262.431Z" fill="#ffbf9d"/>
        <path id="Trazado_100019" data-name="Trazado 100019" d="M981.991,1262.431a9.594,9.594,0,0,1-8.54.13c4.54-1.24,10.5-3.57,9.13-7-2.15-5.48-8.44,2.65-11.6,0s-14.64-17.85-7.35-24.54,5-17.91,0-21.07-1.75-10.69-.17-22.54c1-7.17-2.43-23.41-5.25-35.13,6.46,10,9.59,28,9.93,42,.4,15.83,5.54,23,13.85,36.79S987.391,1259.551,981.991,1262.431Z" fill="#d9a171" opacity="0.4" style="isolation: isolate"/>
        <path id="Trazado_100020" data-name="Trazado 100020" d="M932.541,1111.131c2.37,11.67,8.9,24.92,8.9,24.92a37.351,37.351,0,0,1,14,12.66c8.31,8.7,12.27,29.67,12.66,45.49s5.54,23,13.85,36.79,6,28.17,0,31.44c-4.18,2.29-9.89,1.79-13.85-5.33s-14.64-23.34-16.61-28-6.33-17.84-10.68-23.37-6.73-13.85-6.73-13.85" fill="none" stroke="#263238" stroke-linecap="round" stroke-linejoin="round" stroke-width="1"/>
        <path id="Trazado_100021" data-name="Trazado 100021" d="M958.231,1227.631s6.46-.58,9.42-3" fill="none" stroke="#263238" stroke-linecap="round" stroke-linejoin="round" stroke-width="1"/>
        <path id="Trazado_100022" data-name="Trazado 100022" d="M931.751,1193.471s-1.26,3,5.34,6" fill="none" stroke="#263238" stroke-linecap="round" stroke-linejoin="round" stroke-width="1"/>
      </g>
      <g id="freepik--hand-2--inject-2">
        <path id="Trazado_100023" data-name="Trazado 100023" d="M1107.053,1255.576s-3.56,43.08,1.59,53.53,7.73,81.85,5.42,90.831c0,0,16.58,4.179,23.14-1.761s16.65-.22,33.27-6,4.63-134.07,4.63-134.07l.51-46.669-27.41-24.421Z" fill="rgba(0,0,0,0.7)" opacity="0.2" style="isolation: isolate"/>
        <path id="Trazado_100024" data-name="Trazado 100024" d="M1148.523,1410.567c.23-2.11-3.09-32.38-3.15-35.67-.16-9-2.71-20.81-2.71-20.81-3.56-9.1-6.33-30.07-15.83-43.52s-9.49-29.271-11.07-42.7-1.19-12.269-.79-24.19a175.575,175.575,0,0,0-1.19-26.81c-.79-7.92-2.37-21.85,0-28.34s8.57-8,15.36-1.5,9.56,33.15,9.56,36.44,0,13.571,2.38,17.53c0,0,13.45-6.88,13.45-8.78s-.4-18.69,1.58-19.589l-7.91-25.6,15-5.33a39.055,39.055,0,0,1,7.24,8.7,46.986,46.986,0,0,1,4.23,8.49c6.33,16.79,16.5,28.5,18.6,33.33s0,43.19,0,50.32-4.6,40-4.48,45.53c.09,4,2.79,18.88,5.48,30.29,1,4.4,7.07,36.28,8,38.81Z" fill="#ffbf9d"/>
        <path id="Trazado_100025" data-name="Trazado 100025" d="M1160.363,1210.937c-.1,2.149,2.47,19.29,2.47,19.29,1.78,4.269-7.94,18.829-7.94,18.829-2.1,1.18-3,8.5-3,8.5-6.58-1.459-21.65-16.609-21.65-16.609s-1.78,6.21-3.78,21.579,10.68,51.881,16.08,77.09,2.83,35.25,2.83,35.25c-.16-9-2.71-20.81-2.71-20.81-3.56-9.1-6.33-30.07-15.83-43.519s-9.49-29.241-11.07-42.671-1.19-12.269-.79-24.19a175.575,175.575,0,0,0-1.19-26.81c-.79-7.92-2.37-21.85,0-28.34s8.57-8,15.36-1.5,9.56,33.15,9.56,36.44,0,13.571,2.38,17.53c0,0,13.45-6.88,13.45-8.78s-.4-18.69,1.58-19.589l-7.91-25.6,15-5.33a39.055,39.055,0,0,1,7.24,8.7C1165.593,1200.1,1160.463,1209.6,1160.363,1210.937Z" fill="#d9a171" opacity="0.4" style="isolation: isolate"/>
        <path id="Trazado_100026" data-name="Trazado 100026" d="M1185.583,1330.716c.66-6,2.63-20.26,3.88-29.16-1.53,6.951-4,10.47-4,10.47s4.26-51,4.68-54.11,4.72-17.09,3.14-25.75c2.1,4.82,0,43.19,0,50.32s-4.6,40-4.48,45.53c.09,4,4.38,29.49,7.07,40.9C1190.093,1360.516,1184.923,1336.746,1185.583,1330.716Z" fill="#d9a171" opacity="0.4" style="isolation: isolate"/>
        <path id="Trazado_100027" data-name="Trazado 100027" d="M1202.253,1397.116c-3.16-9.1-13.31-63.6-13.43-69.1s4.48-38.41,4.48-45.53,2.1-45.5,0-50.32-12.27-16.54-18.6-33.33a43.668,43.668,0,0,0-11.47-17.19l-15,5.33,7.91,25.6c-2,.9-1.58,17.69-1.58,19.59s-13.45,8.78-13.45,8.78c-2.38-4-2.38-14.24-2.38-17.53s-2.77-29.95-9.56-36.44-13-5-15.36,1.5-.79,20.42,0,28.34a175.466,175.466,0,0,1,1.19,26.84c-.4,11.92-.8,10.74.79,24.19s1.58,29.27,11.07,42.72,12.27,34.42,15.83,43.52c0,0,6.72,48.57,5.86,56.48" fill="none" stroke="#263238" stroke-linecap="round" stroke-linejoin="round" stroke-width="1"/>
        <path id="Trazado_100028" data-name="Trazado 100028" d="M1141.083,1240.946s2.37,11.07,7.71,16.61" fill="none" stroke="#263238" stroke-linecap="round" stroke-linejoin="round" stroke-width="1"/>
        <path id="Trazado_100029" data-name="Trazado 100029" d="M1142.523,1246s10,3.06,14.18,3.25" fill="none" stroke="#263238" stroke-linecap="round" stroke-linejoin="round" stroke-width="1"/>
        <path id="Trazado_100030" data-name="Trazado 100030" d="M1154.533,1232.166s7.12-3.29,11.67-1.31" fill="none" stroke="#263238" stroke-linecap="round" stroke-linejoin="round" stroke-width="1"/>
        <path id="Trazado_100031" data-name="Trazado 100031" d="M1156.113,1212.576s5.54-.51,6.72-3.28" fill="none" stroke="#263238" stroke-linecap="round" stroke-linejoin="round" stroke-width="1"/>
        <path id="Trazado_100032" data-name="Trazado 100032" d="M1128.663,1313.386s10.64,13.21,13.8,19.93" fill="none" stroke="#263238" stroke-linecap="round" stroke-linejoin="round" stroke-width="1"/>
        <path id="Trazado_100033" data-name="Trazado 100033" d="M1190.533,1255.576c-1.78,10.49-4.16,39.17-4.95,44.31" fill="none" stroke="#263238" stroke-linecap="round" stroke-linejoin="round" stroke-width="1"/>
        <path id="Trazado_100034" data-name="Trazado 100034" d="M1193.933,1235.8c.3,9.5-2,14.44-2,14.44" fill="none" stroke="#263238" stroke-linecap="round" stroke-linejoin="round" stroke-width="1"/>
        <g id="Grupo_54114" data-name="Grupo 54114">
          <g id="Grupo_54081" data-name="Grupo 54081">
            <g id="Grupo_54078" data-name="Grupo 54078">
              <path id="Trazado_100035" data-name="Trazado 100035" d="M964.681,1084.413l137.432,207.066,154.347-101.993L1116.685,983.88Z" fill="#fff"/>
            </g>
            <g id="Grupo_54080" data-name="Grupo 54080">
              <g id="Grupo_54079" data-name="Grupo 54079">
                <path id="Trazado_100036" data-name="Trazado 100036" d="M964.681,1084.413l151.9-100.687.152-.1.1.151,139.809,205.583.129.19-.191.127-1.094.722L1102.226,1291.65l-.171.113-.113-.171L964.681,1084.413c1,1.507,56.134,84.424,137.6,206.953l-.284-.058,153.241-101.288,1.094-.722-.063.316-139.739-205.63.254.05Z" fill="#344154"/>
              </g>
            </g>
          </g>
          <g id="Grupo_54090" data-name="Grupo 54090">
            <g id="Grupo_54083" data-name="Grupo 54083">
              <g id="Grupo_54082" data-name="Grupo 54082">
                <path id="Trazado_100037" data-name="Trazado 100037" d="M1177.614,1183.475a27.148,27.148,0,1,1,36.7,11.263A27.179,27.179,0,0,1,1177.614,1183.475Zm47.526-25.207a26.649,26.649,0,1,0-11.056,36.029A26.678,26.678,0,0,0,1225.14,1158.268Z" fill="#e1e1e1"/>
              </g>
            </g>
            <g id="Grupo_54085" data-name="Grupo 54085">
              <g id="Grupo_54084" data-name="Grupo 54084">
                <path id="Trazado_100038" data-name="Trazado 100038" d="M1180.349,1182.024a23.677,23.677,0,1,1,32.012,9.823A23.7,23.7,0,0,1,1180.349,1182.024Zm38.749-20.552a20.185,20.185,0,1,0-8.374,27.29A20.208,20.208,0,0,0,1219.1,1161.472Z" fill="#e1e1e1"/>
              </g>
            </g>
            <g id="Grupo_54087" data-name="Grupo 54087">
              <g id="Grupo_54086" data-name="Grupo 54086">
                <path id="Trazado_100039" data-name="Trazado 100039" d="M1185.653,1179.589a17.346,17.346,0,0,1-2.041-7.813l3.492-.076a13.874,13.874,0,0,0,1.635,6.252,14.026,14.026,0,0,0,24.47.554l3.01,1.771a17.519,17.519,0,0,1-30.566-.688Z" fill="#e1e1e1"/>
              </g>
            </g>
            <g id="Grupo_54089" data-name="Grupo 54089">
              <g id="Grupo_54088" data-name="Grupo 54088">
                <path id="Trazado_100040" data-name="Trazado 100040" d="M1186.68,1161.472a17.52,17.52,0,0,1,31.921,11.166l-3.484-.253a14.028,14.028,0,0,0-25.555-8.94Z" fill="#e1e1e1"/>
              </g>
            </g>
          </g>
          <g id="Grupo_54092" data-name="Grupo 54092">
            <g id="Grupo_54091" data-name="Grupo 54091">
              <path id="Trazado_100041" data-name="Trazado 100041" d="M1074,1092.169c.069.105-13.323,9.08-29.907,20.044s-30.091,19.772-30.16,19.667,13.32-9.077,29.91-20.045S1073.928,1092.065,1074,1092.169Z" fill="#344154"/>
            </g>
          </g>
          <g id="Grupo_54094" data-name="Grupo 54094">
            <g id="Grupo_54093" data-name="Grupo 54093">
              <path id="Trazado_100042" data-name="Trazado 100042" d="M1149.927,1065.371c.143.214-28.158,19.084-63.2,42.141s-63.584,41.583-63.727,41.368,28.152-19.081,63.21-42.146S1149.784,1065.156,1149.927,1065.371Z" fill="#344154"/>
            </g>
          </g>
          <g id="Grupo_54096" data-name="Grupo 54096">
            <g id="Grupo_54095" data-name="Grupo 54095">
              <path id="Trazado_100043" data-name="Trazado 100043" d="M1155.755,1076.3c.143.214-28.158,19.084-63.2,42.141s-63.583,41.583-63.726,41.368,28.152-19.081,63.209-42.146S1155.613,1076.083,1155.755,1076.3Z" fill="#344154"/>
            </g>
          </g>
          <g id="Grupo_54098" data-name="Grupo 54098">
            <g id="Grupo_54097" data-name="Grupo 54097">
              <path id="Trazado_100044" data-name="Trazado 100044" d="M1161.584,1087.225c.143.214-28.158,19.084-63.2,42.141s-63.584,41.583-63.727,41.368,28.152-19.081,63.21-42.146S1161.441,1087.01,1161.584,1087.225Z" fill="#344154"/>
            </g>
          </g>
          <g id="Grupo_54100" data-name="Grupo 54100">
            <g id="Grupo_54099" data-name="Grupo 54099">
              <path id="Trazado_100045" data-name="Trazado 100045" d="M1167.412,1098.152c.143.214-28.158,19.084-63.2,42.141s-63.583,41.583-63.726,41.368,28.152-19.08,63.209-42.145S1167.27,1097.937,1167.412,1098.152Z" fill="#344154"/>
            </g>
          </g>
          <g id="Grupo_54102" data-name="Grupo 54102">
            <g id="Grupo_54101" data-name="Grupo 54101">
              <path id="Trazado_100046" data-name="Trazado 100046" d="M1173.241,1109.079c.143.214-28.158,19.084-63.2,42.141s-63.584,41.583-63.727,41.368,28.152-19.08,63.21-42.145S1173.1,1108.864,1173.241,1109.079Z" fill="#344154"/>
            </g>
          </g>
          <g id="Grupo_54104" data-name="Grupo 54104">
            <g id="Grupo_54103" data-name="Grupo 54103">
              <path id="Trazado_100047" data-name="Trazado 100047" d="M1179.069,1120.006c.143.214-28.158,19.084-63.2,42.141s-63.583,41.583-63.726,41.368,28.152-19.08,63.209-42.145S1178.927,1119.791,1179.069,1120.006Z" fill="#344154"/>
            </g>
          </g>
          <g id="Grupo_54106" data-name="Grupo 54106">
            <g id="Grupo_54105" data-name="Grupo 54105">
              <path id="Trazado_100048" data-name="Trazado 100048" d="M1148.183,1224.144c.069.1-10.5,7.07-23.6,15.555s-23.783,15.282-23.851,15.177,10.5-7.069,23.6-15.557S1148.115,1224.039,1148.183,1224.144Z" fill="#d9a171"/>
            </g>
          </g>
          <g id="Grupo_54108" data-name="Grupo 54108">
            <g id="Grupo_54107" data-name="Grupo 54107">
              <path id="Trazado_100049" data-name="Trazado 100049" d="M1131.355,1244.028c.068.105-5.84,4.052-13.194,8.815s-13.374,8.54-13.442,8.435,5.839-4.051,13.2-8.816S1131.287,1243.923,1131.355,1244.028Z" fill="#d9a171"/>
            </g>
          </g>
          <g id="Grupo_54110" data-name="Grupo 54110">
            <g id="Grupo_54109" data-name="Grupo 54109">
              <path id="Trazado_100050" data-name="Trazado 100050" d="M1096.257,1182.349c.069.1-6.837,4.832-15.424,10.56s-15.607,10.288-15.676,10.184,6.835-4.832,15.425-10.561S1096.187,1182.245,1096.257,1182.349Z" fill="#d9a171"/>
            </g>
          </g>
          <g id="Grupo_54112" data-name="Grupo 54112">
            <g id="Grupo_54111" data-name="Grupo 54111">
              <path id="Trazado_100051" data-name="Trazado 100051" d="M1156.883,1195.918s.053-.013.161-.028a2.182,2.182,0,0,1,.486-.024,6.284,6.284,0,0,1,1.859.4,20.815,20.815,0,0,1,6.2,3.845,26.405,26.405,0,0,1,7.019,9.128,17.13,17.13,0,0,1,1.085,3.344,23.077,23.077,0,0,1-.777,11.734,24.114,24.114,0,0,1-4.284,7.816,20.445,20.445,0,0,1-7.7,5.8,20.9,20.9,0,0,1-20.381-2.668,17.077,17.077,0,0,1-3.937-4.166,13,13,0,0,1-2.209-5.434,9.383,9.383,0,0,1,.775-5.933,6.738,6.738,0,0,1,2.045-2.318,6.918,6.918,0,0,1,2.9-1.137,9.136,9.136,0,0,1,6.074,1.247,14.657,14.657,0,0,1,4.509,4.43,26.344,26.344,0,0,1,4.321,12.049,24.912,24.912,0,0,1-1.928,12.645,22.969,22.969,0,0,1-7.981,9.509,21.6,21.6,0,0,1-11.337,3.866,20.194,20.194,0,0,1-11.1-2.936,19.591,19.591,0,0,1-7.475-7.97,14.3,14.3,0,0,1-1.549-5.058,10.29,10.29,0,0,1,.659-5.085,6.148,6.148,0,0,1,3.506-3.453,7.071,7.071,0,0,1,4.762.085,8.861,8.861,0,0,1,3.764,2.621,11.49,11.49,0,0,1,2.06,3.876,22.776,22.776,0,0,1,.793,8.064,36.019,36.019,0,0,1-1.116,7.146,39.353,39.353,0,0,1-2.076,5.94,39.971,39.971,0,0,1-2.507,4.656,33.9,33.9,0,0,1-4.509,5.748c-1.167,1.2-1.845,1.758-1.845,1.758s.147-.164.451-.465.776-.729,1.328-1.356a35.182,35.182,0,0,0,4.425-5.778,40.283,40.283,0,0,0,2.46-4.651,39.462,39.462,0,0,0,2.028-5.915,35.908,35.908,0,0,0,1.073-7.1,22.54,22.54,0,0,0-.81-7.952,11.171,11.171,0,0,0-2.012-3.759,8.53,8.53,0,0,0-3.624-2.506,6.717,6.717,0,0,0-4.518-.075,5.787,5.787,0,0,0-3.288,3.26,9.926,9.926,0,0,0-.618,4.9,13.886,13.886,0,0,0,1.519,4.92,19.2,19.2,0,0,0,7.334,7.79,19.788,19.788,0,0,0,10.865,2.861,21.164,21.164,0,0,0,11.1-3.8,22.539,22.539,0,0,0,7.821-9.326,24.471,24.471,0,0,0,1.888-12.415,25.9,25.9,0,0,0-4.242-11.841,14.239,14.239,0,0,0-4.365-4.3,8.7,8.7,0,0,0-5.777-1.193,6.476,6.476,0,0,0-2.721,1.061,6.3,6.3,0,0,0-1.91,2.162,8.95,8.95,0,0,0-.734,5.657,12.553,12.553,0,0,0,2.134,5.265,16.652,16.652,0,0,0,3.838,4.072,20.523,20.523,0,0,0,19.981,2.654,20.1,20.1,0,0,0,7.577-5.683,23.8,23.8,0,0,0,4.248-7.692,22.879,22.879,0,0,0,.817-11.579,16.98,16.98,0,0,0-1.052-3.3,26.411,26.411,0,0,0-6.9-9.1,21.185,21.185,0,0,0-6.113-3.892,6.577,6.577,0,0,0-1.83-.44C1157.1,1195.877,1156.885,1195.941,1156.883,1195.918Z" fill="#d9a171"/>
            </g>
          </g>
          <g id="Grupo_54113" data-name="Grupo 54113">
            <path id="Trazado_100052" data-name="Trazado 100052" d="M1035.724,1059.824a8.578,8.578,0,0,1,1.369,3.5,5.586,5.586,0,0,1-.464,3.2,6.274,6.274,0,0,1-5.311,3.431,5.64,5.64,0,0,1-3.12-.877,8.342,8.342,0,0,1-2.613-2.632l-.38-.591a8.539,8.539,0,0,1-1.365-3.518,5.637,5.637,0,0,1,.471-3.219,6.265,6.265,0,0,1,5.312-3.421,5.646,5.646,0,0,1,3.125.9,8.514,8.514,0,0,1,2.632,2.69Zm-2.845,1.065a5.983,5.983,0,0,0-2.513-2.423,2.829,2.829,0,0,0-3.842,2.456,5.909,5.909,0,0,0,1.14,3.268l.375.583a6.057,6.057,0,0,0,2.5,2.407,2.8,2.8,0,0,0,3.866-2.438,6.024,6.024,0,0,0-1.153-3.27Zm-7.855-7.544,2.587-1.666-.636,4.01-1.929,1.243Z" fill="#344154"/>
            <path id="Trazado_100053" data-name="Trazado 100053" d="M1042.8,1057.151l-1.962,1.264,2.818,4.376-2.463,1.587-7.7-11.955,4.442-2.86a5.977,5.977,0,0,1,3.876-1.161,3.878,3.878,0,0,1,2.868,1.929,4.366,4.366,0,0,1,.784,2.381,4.294,4.294,0,0,1-.767,2.335l5.732,3.22.074.115-2.643,1.7Zm-3.247-.731,1.987-1.28a2.42,2.42,0,0,0,1.133-1.4,2.009,2.009,0,0,0-.329-1.629,2.149,2.149,0,0,0-1.337-1.021,2.371,2.371,0,0,0-1.786.465l-1.979,1.274Z" fill="#344154"/>
            <path id="Trazado_100054" data-name="Trazado 100054" d="M1051.92,1057.467l-7.7-11.954,3.678-2.369a6.648,6.648,0,0,1,3.278-1.106,5.889,5.889,0,0,1,3.242.769,7.426,7.426,0,0,1,2.615,2.527l.354.55a7.445,7.445,0,0,1,1.223,3.406,5.843,5.843,0,0,1-.638,3.257,6.7,6.7,0,0,1-2.351,2.536Zm-3.95-11.545,5.139,7.98,1.19-.766a3.184,3.184,0,0,0,1.6-2.367,5.068,5.068,0,0,0-.96-3.2l-.407-.633a5.156,5.156,0,0,0-2.534-2.276,3.171,3.171,0,0,0-2.814.482Z" fill="#344154"/>
            <path id="Trazado_100055" data-name="Trazado 100055" d="M1066.7,1040.617l-4.729,3.046,2.062,3.2,5.55-3.574,1.274,1.978-8.013,5.161-7.7-11.955,8-5.149,1.285,1.995-5.534,3.563,1.834,2.849,4.73-3.045Z" fill="#344154"/>
            <path id="Trazado_100056" data-name="Trazado 100056" d="M1082.028,1038.079l-2.463,1.586-9.86-4.778,5.065,7.866-2.463,1.586-7.7-11.955,2.463-1.586,9.879,4.789-5.075-7.882,2.455-1.581Z" fill="#344154"/>
            <path id="Trazado_100057" data-name="Trazado 100057" d="M1035.791,1096.4l-7.7-11.954,3.678-2.369a6.649,6.649,0,0,1,3.278-1.106,5.889,5.889,0,0,1,3.242.769,7.418,7.418,0,0,1,2.615,2.527l.354.55a7.433,7.433,0,0,1,1.223,3.406,5.838,5.838,0,0,1-.638,3.256,6.7,6.7,0,0,1-2.351,2.537Zm-3.95-11.545,5.139,7.98,1.19-.766a3.184,3.184,0,0,0,1.6-2.367,5.072,5.072,0,0,0-.959-3.2l-.408-.633a5.156,5.156,0,0,0-2.534-2.276,3.172,3.172,0,0,0-2.814.482Z" fill="#344154"/>
            <path id="Trazado_100058" data-name="Trazado 100058" d="M1050.575,1079.549l-4.729,3.046,2.062,3.2,5.55-3.574,1.275,1.978-8.014,5.161-7.7-11.955,8-5.15,1.285,2-5.534,3.563,1.835,2.849,4.729-3.045Z" fill="#344154"/>
            <path id="Trazado_100059" data-name="Trazado 100059" d="M1060.116,1074.776l2.712,4.212-2.463,1.586-7.7-11.954,4.663-3a6.415,6.415,0,0,1,2.686-1.033,4.328,4.328,0,0,1,2.474.387,4.646,4.646,0,0,1,1.88,1.711,4.087,4.087,0,0,1,.582,3.546,5.962,5.962,0,0,1-2.677,3.158Zm-1.285-1.995,2.2-1.417a2.573,2.573,0,0,0,1.194-1.419,1.989,1.989,0,0,0-.333-1.644,2.345,2.345,0,0,0-1.432-1.088,2.3,2.3,0,0,0-1.788.362l-2.258,1.454Z" fill="#344154"/>
            <path id="Trazado_100060" data-name="Trazado 100060" d="M1074.913,1067.722l-4.319,2.781.765,2.992-2.619,1.686-3.248-14.82,2.282-1.47,12.173,9.073-2.619,1.687Zm-4.939.357,2.989-1.924-4.384-3.507Z" fill="#344154"/>
            <path id="Trazado_100061" data-name="Trazado 100061" d="M1089.377,1059.755a5.083,5.083,0,0,1-1.084,2.446,9.366,9.366,0,0,1-2.411,2.174,6.345,6.345,0,0,1-3.158,1.075,5.371,5.371,0,0,1-3.072-.8,8.219,8.219,0,0,1-2.6-2.61l-.523-.812a8.739,8.739,0,0,1-1.393-3.489,5.3,5.3,0,0,1,.451-3.124,6.818,6.818,0,0,1,6.2-3.537,5.161,5.161,0,0,1,3.321,2.037l-2.4,1.544a2.838,2.838,0,0,0-1.694-1.034,2.76,2.76,0,0,0-1.854.52,2.6,2.6,0,0,0-1.305,2.176,5.894,5.894,0,0,0,1.143,3.236l.492.764a5.622,5.622,0,0,0,2.543,2.381,2.911,2.911,0,0,0,2.713-.388,3.254,3.254,0,0,0,1.6-1.865l-1.328-2.061-2.241,1.443-1.168-1.814,4.7-3.03Z" fill="#344154"/>
            <path id="Trazado_100062" data-name="Trazado 100062" d="M1098.49,1047.951a8.594,8.594,0,0,1,1.37,3.5,5.6,5.6,0,0,1-.464,3.2,6.278,6.278,0,0,1-5.311,3.431,5.643,5.643,0,0,1-3.121-.877,8.342,8.342,0,0,1-2.613-2.632l-.38-.592a8.531,8.531,0,0,1-1.365-3.517,5.638,5.638,0,0,1,.471-3.219,6.266,6.266,0,0,1,5.312-3.421,5.646,5.646,0,0,1,3.125.9,8.525,8.525,0,0,1,2.633,2.69Zm-2.845,1.065a5.991,5.991,0,0,0-2.513-2.424,2.83,2.83,0,0,0-3.842,2.457,5.909,5.909,0,0,0,1.14,3.268l.375.583a6.057,6.057,0,0,0,2.5,2.407,2.8,2.8,0,0,0,3.866-2.438,6.025,6.025,0,0,0-1.153-3.27Z" fill="#344154"/>
          </g>
        </g>
        <path id="Trazado_100063" data-name="Trazado 100063" d="M1152.793,1258.556l-10.33,74.761c-2.3-4.891-8.57-13.231-11.81-17.4-1.2-1.56-2-2.53-2-2.53l-1.83-2.82c-9.49-13.451-9.49-29.27-11.07-42.72s-1.19-12.27-.79-24.19a175.434,175.434,0,0,0-1.18-26.791c-.79-7.92-2.37-21.85,0-28.34,1.16-3.179,3.25-5.16,5.87-5.58s6,.78,9.49,4.08c6.79,6.49,9.56,33.15,9.56,36.44s0,13.571,2.38,17.53C1141.083,1240.946,1147.463,1253.016,1152.793,1258.556Z" fill="#ffbf9d"/>
        <path id="Trazado_100064" data-name="Trazado 100064" d="M1126.043,1305.236c2.16,2.76,3.63,6.74,4.61,10.68-1.2-1.56-2-2.53-2-2.53l-1.83-2.82c-9.49-13.45-9.49-29.27-11.07-42.72s-1.19-12.27-.79-24.19a175.427,175.427,0,0,0-1.18-26.79c-.79-7.92-2.37-21.85,0-28.34,1.16-3.179,3.25-5.16,5.87-5.58,5,1.42,10,6.51,11.74,15.22,3,14.62-10.53,2.81-13.66,15.2s1.42,15.731,3.29,18.85-.52,10-3.29,19.24S1120.113,1297.646,1126.043,1305.236Z" fill="#d9a171" opacity="0.4" style="isolation: isolate"/>
        <path id="Trazado_100065" data-name="Trazado 100065" d="M1152.793,1258.556c-5.34-5.54-11.71-17.609-11.71-17.609-2.38-4-2.38-14.24-2.38-17.53s-2.77-29.951-9.56-36.44-13-5-15.36,1.5-.79,20.42,0,28.34a175.455,175.455,0,0,1,1.19,26.84c-.4,11.92-.8,10.739.79,24.19s1.58,29.269,11.07,42.72l1.83,2.82s10.64,13.21,13.8,19.93" fill="none" stroke="#263238" stroke-linecap="round" stroke-linejoin="round" stroke-width="1"/>
        <path id="Trazado_100066" data-name="Trazado 100066" d="M1117.783,1226.916s9.07-4.69,13.61-4.29" fill="none" stroke="#263238" stroke-linecap="round" stroke-linejoin="round" stroke-width="1"/>
      </g>
    </g>
  </g>
</svg>
